%FSLAX45Y45*%
G04 Gerber Fmt 4.5, Leading zero omitted, Abs format (unit mm)*
G04 Created by KiCad (PCBNEW (5.1.6-0-10_14)) date 2020-05-23 00:01:58*
%MOMM*%
%LPD*%
G01*
G04 APERTURE LIST*
%TA.AperFunction,Profile*%
%ADD10C,0.150000*%
%TD*%
%ADD11C,0.200000*%
%ADD12C,0.300000*%
G04 APERTURE END LIST*
D10*
X19850000Y-11800000D02*
X10250000Y-11800000D01*
X10250000Y-6800000D02*
X19850000Y-6800000D01*
X20050000Y-7000000D02*
X19850000Y-6800000D01*
X20050000Y-11600000D02*
X20050000Y-7000000D01*
X19850000Y-11800000D02*
X20050000Y-11600000D01*
X10050000Y-7000000D02*
X10250000Y-6800000D01*
X10050000Y-11600000D02*
X10250000Y-11800000D01*
X10050000Y-7000000D02*
X10050000Y-11600000D01*
D11*
X14040482Y-7024726D02*
X14080482Y-7064726D01*
X14080482Y-7024726D02*
X14040482Y-7064726D01*
X15263314Y-9452598D02*
X15303314Y-9492598D01*
X15303314Y-9452598D02*
X15263314Y-9492598D01*
X17558500Y-7039000D02*
X17598500Y-7079000D01*
X17598500Y-7039000D02*
X17558500Y-7079000D01*
X11202382Y-9279926D02*
G75*
G03*
X11202382Y-9279926I-37500J0D01*
G01*
X11519882Y-9025926D02*
G75*
G03*
X11519882Y-9025926I-37500J0D01*
G01*
X11519882Y-9533926D02*
G75*
G03*
X11519882Y-9533926I-37500J0D01*
G01*
X12498500Y-9622500D02*
X12498500Y-9702500D01*
X12458500Y-9662500D02*
X12538500Y-9662500D01*
X12498500Y-10384500D02*
X12498500Y-10464500D01*
X12458500Y-10424500D02*
X12538500Y-10424500D01*
X12816000Y-9622500D02*
X12816000Y-9702500D01*
X12776000Y-9662500D02*
X12856000Y-9662500D01*
X12816000Y-10384500D02*
X12816000Y-10464500D01*
X12776000Y-10424500D02*
X12856000Y-10424500D01*
X12498500Y-8352500D02*
X12498500Y-8432500D01*
X12458500Y-8392500D02*
X12538500Y-8392500D01*
X12498500Y-8852500D02*
X12498500Y-8932500D01*
X12458500Y-8892500D02*
X12538500Y-8892500D01*
X13133500Y-9876500D02*
X13133500Y-9956500D01*
X13093500Y-9916500D02*
X13173500Y-9916500D01*
X13133500Y-10638500D02*
X13133500Y-10718500D01*
X13093500Y-10678500D02*
X13173500Y-10678500D01*
X13514500Y-9622500D02*
X13514500Y-9702500D01*
X13474500Y-9662500D02*
X13554500Y-9662500D01*
X13514500Y-9876500D02*
X13514500Y-9956500D01*
X13474500Y-9916500D02*
X13554500Y-9916500D01*
X13514500Y-10130500D02*
X13514500Y-10210500D01*
X13474500Y-10170500D02*
X13554500Y-10170500D01*
X14276500Y-9622500D02*
X14276500Y-9702500D01*
X14236500Y-9662500D02*
X14316500Y-9662500D01*
X14276500Y-9876500D02*
X14276500Y-9956500D01*
X14236500Y-9916500D02*
X14316500Y-9916500D01*
X14276500Y-10130500D02*
X14276500Y-10210500D01*
X14236500Y-10170500D02*
X14316500Y-10170500D01*
X12471882Y-9234926D02*
X12471882Y-9314926D01*
X12431882Y-9274926D02*
X12511882Y-9274926D01*
X13233882Y-9234926D02*
X13233882Y-9314926D01*
X13193882Y-9274926D02*
X13273882Y-9274926D01*
X13514500Y-8606500D02*
X13514500Y-8686500D01*
X13474500Y-8646500D02*
X13554500Y-8646500D01*
X13514500Y-8860500D02*
X13514500Y-8940500D01*
X13474500Y-8900500D02*
X13554500Y-8900500D01*
X13514500Y-9114500D02*
X13514500Y-9194500D01*
X13474500Y-9154500D02*
X13554500Y-9154500D01*
X14276500Y-8606500D02*
X14276500Y-8686500D01*
X14236500Y-8646500D02*
X14316500Y-8646500D01*
X14276500Y-8860500D02*
X14276500Y-8940500D01*
X14236500Y-8900500D02*
X14316500Y-8900500D01*
X14276500Y-9114500D02*
X14276500Y-9194500D01*
X14236500Y-9154500D02*
X14316500Y-9154500D01*
X17813702Y-7598820D02*
X17813702Y-7535180D01*
X17750062Y-7535180D01*
X17750062Y-7598820D01*
X17813702Y-7598820D01*
X18321702Y-7598820D02*
X18321702Y-7535180D01*
X18258062Y-7535180D01*
X18258062Y-7598820D01*
X18321702Y-7598820D01*
X14530500Y-10792000D02*
X14580500Y-10742000D01*
X14530500Y-10692000D01*
X14480500Y-10742000D01*
X14530500Y-10792000D01*
X14530500Y-11046000D02*
X14580500Y-10996000D01*
X14530500Y-10946000D01*
X14480500Y-10996000D01*
X14530500Y-11046000D01*
X14530500Y-11300000D02*
X14580500Y-11250000D01*
X14530500Y-11200000D01*
X14480500Y-11250000D01*
X14530500Y-11300000D01*
X16562500Y-7617000D02*
X16612500Y-7567000D01*
X16562500Y-7517000D01*
X16512500Y-7567000D01*
X16562500Y-7617000D01*
X16816500Y-7617000D02*
X16866500Y-7567000D01*
X16816500Y-7517000D01*
X16766500Y-7567000D01*
X16816500Y-7617000D01*
X17070500Y-7617000D02*
X17120500Y-7567000D01*
X17070500Y-7517000D01*
X17020500Y-7567000D01*
X17070500Y-7617000D01*
X16562500Y-7871000D02*
X16612500Y-7821000D01*
X16562500Y-7771000D01*
X16512500Y-7821000D01*
X16562500Y-7871000D01*
X16816500Y-7871000D02*
X16866500Y-7821000D01*
X16816500Y-7771000D01*
X16766500Y-7821000D01*
X16816500Y-7871000D01*
X17070500Y-7871000D02*
X17120500Y-7821000D01*
X17070500Y-7771000D01*
X17020500Y-7821000D01*
X17070500Y-7871000D01*
X14530500Y-8188500D02*
X14580500Y-8138500D01*
X14530500Y-8088500D01*
X14480500Y-8138500D01*
X14530500Y-8188500D01*
X14784500Y-8188500D02*
X14834500Y-8138500D01*
X14784500Y-8088500D01*
X14734500Y-8138500D01*
X14784500Y-8188500D01*
X17946682Y-7247126D02*
X17996682Y-7197126D01*
X17946682Y-7147126D01*
X17896682Y-7197126D01*
X17946682Y-7247126D01*
X18200682Y-7247126D02*
X18250682Y-7197126D01*
X18200682Y-7147126D01*
X18150682Y-7197126D01*
X18200682Y-7247126D01*
X14784500Y-8696500D02*
X14834500Y-8646500D01*
X14784500Y-8596500D01*
X14734500Y-8646500D01*
X14784500Y-8696500D01*
X14784500Y-10220500D02*
X14834500Y-10170500D01*
X14784500Y-10120500D01*
X14734500Y-10170500D01*
X14784500Y-10220500D01*
X15038500Y-8696500D02*
X15088500Y-8646500D01*
X15038500Y-8596500D01*
X14988500Y-8646500D01*
X15038500Y-8696500D01*
X15038500Y-10220500D02*
X15088500Y-10170500D01*
X15038500Y-10120500D01*
X14988500Y-10170500D01*
X15038500Y-10220500D01*
X15292500Y-8696500D02*
X15342500Y-8646500D01*
X15292500Y-8596500D01*
X15242500Y-8646500D01*
X15292500Y-8696500D01*
X15292500Y-10220500D02*
X15342500Y-10170500D01*
X15292500Y-10120500D01*
X15242500Y-10170500D01*
X15292500Y-10220500D01*
X15546500Y-8696500D02*
X15596500Y-8646500D01*
X15546500Y-8596500D01*
X15496500Y-8646500D01*
X15546500Y-8696500D01*
X15546500Y-10220500D02*
X15596500Y-10170500D01*
X15546500Y-10120500D01*
X15496500Y-10170500D01*
X15546500Y-10220500D01*
X15800500Y-8696500D02*
X15850500Y-8646500D01*
X15800500Y-8596500D01*
X15750500Y-8646500D01*
X15800500Y-8696500D01*
X15800500Y-10220500D02*
X15850500Y-10170500D01*
X15800500Y-10120500D01*
X15750500Y-10170500D01*
X15800500Y-10220500D01*
X16054500Y-8696500D02*
X16104500Y-8646500D01*
X16054500Y-8596500D01*
X16004500Y-8646500D01*
X16054500Y-8696500D01*
X16054500Y-10220500D02*
X16104500Y-10170500D01*
X16054500Y-10120500D01*
X16004500Y-10170500D01*
X16054500Y-10220500D01*
X16308500Y-8696500D02*
X16358500Y-8646500D01*
X16308500Y-8596500D01*
X16258500Y-8646500D01*
X16308500Y-8696500D01*
X16308500Y-10220500D02*
X16358500Y-10170500D01*
X16308500Y-10120500D01*
X16258500Y-10170500D01*
X16308500Y-10220500D01*
X16562500Y-8696500D02*
X16612500Y-8646500D01*
X16562500Y-8596500D01*
X16512500Y-8646500D01*
X16562500Y-8696500D01*
X16562500Y-10220500D02*
X16612500Y-10170500D01*
X16562500Y-10120500D01*
X16512500Y-10170500D01*
X16562500Y-10220500D01*
X16816500Y-8696500D02*
X16866500Y-8646500D01*
X16816500Y-8596500D01*
X16766500Y-8646500D01*
X16816500Y-8696500D01*
X16816500Y-10220500D02*
X16866500Y-10170500D01*
X16816500Y-10120500D01*
X16766500Y-10170500D01*
X16816500Y-10220500D01*
X17070500Y-8696500D02*
X17120500Y-8646500D01*
X17070500Y-8596500D01*
X17020500Y-8646500D01*
X17070500Y-8696500D01*
X17070500Y-10220500D02*
X17120500Y-10170500D01*
X17070500Y-10120500D01*
X17020500Y-10170500D01*
X17070500Y-10220500D01*
X17324500Y-8696500D02*
X17374500Y-8646500D01*
X17324500Y-8596500D01*
X17274500Y-8646500D01*
X17324500Y-8696500D01*
X17324500Y-10220500D02*
X17374500Y-10170500D01*
X17324500Y-10120500D01*
X17274500Y-10170500D01*
X17324500Y-10220500D01*
X17578500Y-8696500D02*
X17628500Y-8646500D01*
X17578500Y-8596500D01*
X17528500Y-8646500D01*
X17578500Y-8696500D01*
X17578500Y-10220500D02*
X17628500Y-10170500D01*
X17578500Y-10120500D01*
X17528500Y-10170500D01*
X17578500Y-10220500D01*
X17832500Y-8696500D02*
X17882500Y-8646500D01*
X17832500Y-8596500D01*
X17782500Y-8646500D01*
X17832500Y-8696500D01*
X17832500Y-10220500D02*
X17882500Y-10170500D01*
X17832500Y-10120500D01*
X17782500Y-10170500D01*
X17832500Y-10220500D01*
X18086500Y-8696500D02*
X18136500Y-8646500D01*
X18086500Y-8596500D01*
X18036500Y-8646500D01*
X18086500Y-8696500D01*
X18086500Y-10220500D02*
X18136500Y-10170500D01*
X18086500Y-10120500D01*
X18036500Y-10170500D01*
X18086500Y-10220500D01*
X18340500Y-8696500D02*
X18390500Y-8646500D01*
X18340500Y-8596500D01*
X18290500Y-8646500D01*
X18340500Y-8696500D01*
X18340500Y-10220500D02*
X18390500Y-10170500D01*
X18340500Y-10120500D01*
X18290500Y-10170500D01*
X18340500Y-10220500D01*
X18086500Y-10919000D02*
X18136500Y-10869000D01*
X18086500Y-10819000D01*
X18036500Y-10869000D01*
X18086500Y-10919000D01*
X18340500Y-10919000D02*
X18390500Y-10869000D01*
X18340500Y-10819000D01*
X18290500Y-10869000D01*
X18340500Y-10919000D01*
X18594500Y-10919000D02*
X18644500Y-10869000D01*
X18594500Y-10819000D01*
X18544500Y-10869000D01*
X18594500Y-10919000D01*
X18848500Y-10919000D02*
X18898500Y-10869000D01*
X18848500Y-10819000D01*
X18798500Y-10869000D01*
X18848500Y-10919000D01*
X19102500Y-10919000D02*
X19152500Y-10869000D01*
X19102500Y-10819000D01*
X19052500Y-10869000D01*
X19102500Y-10919000D01*
X16562500Y-7363000D02*
X16612500Y-7313000D01*
X16562500Y-7263000D01*
X16512500Y-7313000D01*
X16562500Y-7363000D01*
X16816500Y-7363000D02*
X16866500Y-7313000D01*
X16816500Y-7263000D01*
X16766500Y-7313000D01*
X16816500Y-7363000D01*
X17070500Y-7363000D02*
X17120500Y-7313000D01*
X17070500Y-7263000D01*
X17020500Y-7313000D01*
X17070500Y-7363000D01*
X15737000Y-7365000D02*
X15787000Y-7315000D01*
X15737000Y-7265000D01*
X15687000Y-7315000D01*
X15737000Y-7365000D01*
X15737000Y-8125000D02*
X15787000Y-8075000D01*
X15737000Y-8025000D01*
X15687000Y-8075000D01*
X15737000Y-8125000D01*
X16562500Y-7109000D02*
X16612500Y-7059000D01*
X16562500Y-7009000D01*
X16512500Y-7059000D01*
X16562500Y-7109000D01*
X16816500Y-7109000D02*
X16866500Y-7059000D01*
X16816500Y-7009000D01*
X16766500Y-7059000D01*
X16816500Y-7109000D01*
X17070500Y-7109000D02*
X17120500Y-7059000D01*
X17070500Y-7009000D01*
X17020500Y-7059000D01*
X17070500Y-7109000D01*
X14911500Y-11554000D02*
X14961500Y-11504000D01*
X14911500Y-11454000D01*
X14861500Y-11504000D01*
X14911500Y-11554000D01*
X15165500Y-11554000D02*
X15215500Y-11504000D01*
X15165500Y-11454000D01*
X15115500Y-11504000D01*
X15165500Y-11554000D01*
X15419500Y-11554000D02*
X15469500Y-11504000D01*
X15419500Y-11454000D01*
X15369500Y-11504000D01*
X15419500Y-11554000D01*
X15673500Y-11554000D02*
X15723500Y-11504000D01*
X15673500Y-11454000D01*
X15623500Y-11504000D01*
X15673500Y-11554000D01*
X15927500Y-11554000D02*
X15977500Y-11504000D01*
X15927500Y-11454000D01*
X15877500Y-11504000D01*
X15927500Y-11554000D01*
X16181500Y-11554000D02*
X16231500Y-11504000D01*
X16181500Y-11454000D01*
X16131500Y-11504000D01*
X16181500Y-11554000D01*
X16435500Y-11554000D02*
X16485500Y-11504000D01*
X16435500Y-11454000D01*
X16385500Y-11504000D01*
X16435500Y-11554000D01*
X16689500Y-11554000D02*
X16739500Y-11504000D01*
X16689500Y-11454000D01*
X16639500Y-11504000D01*
X16689500Y-11554000D01*
X16943500Y-11554000D02*
X16993500Y-11504000D01*
X16943500Y-11454000D01*
X16893500Y-11504000D01*
X16943500Y-11554000D01*
X17197500Y-11554000D02*
X17247500Y-11504000D01*
X17197500Y-11454000D01*
X17147500Y-11504000D01*
X17197500Y-11554000D01*
X17451500Y-11554000D02*
X17501500Y-11504000D01*
X17451500Y-11454000D01*
X17401500Y-11504000D01*
X17451500Y-11554000D01*
X17705500Y-11554000D02*
X17755500Y-11504000D01*
X17705500Y-11454000D01*
X17655500Y-11504000D01*
X17705500Y-11554000D01*
X17959500Y-11554000D02*
X18009500Y-11504000D01*
X17959500Y-11454000D01*
X17909500Y-11504000D01*
X17959500Y-11554000D01*
X18213500Y-11554000D02*
X18263500Y-11504000D01*
X18213500Y-11454000D01*
X18163500Y-11504000D01*
X18213500Y-11554000D01*
X18467500Y-11554000D02*
X18517500Y-11504000D01*
X18467500Y-11454000D01*
X18417500Y-11504000D01*
X18467500Y-11554000D01*
X18721500Y-11554000D02*
X18771500Y-11504000D01*
X18721500Y-11454000D01*
X18671500Y-11504000D01*
X18721500Y-11554000D01*
X18975500Y-11554000D02*
X19025500Y-11504000D01*
X18975500Y-11454000D01*
X18925500Y-11504000D01*
X18975500Y-11554000D01*
X18882282Y-7258000D02*
X18992282Y-7368000D01*
X18992282Y-7258000D02*
X18882282Y-7368000D01*
X18992282Y-7313000D02*
G75*
G03*
X18992282Y-7313000I-55000J0D01*
G01*
X18882282Y-7512000D02*
X18992282Y-7622000D01*
X18992282Y-7512000D02*
X18882282Y-7622000D01*
X18992282Y-7567000D02*
G75*
G03*
X18992282Y-7567000I-55000J0D01*
G01*
X18882282Y-7766000D02*
X18992282Y-7876000D01*
X18992282Y-7766000D02*
X18882282Y-7876000D01*
X18992282Y-7821000D02*
G75*
G03*
X18992282Y-7821000I-55000J0D01*
G01*
X14216882Y-7344926D02*
X14346882Y-7474926D01*
X14346882Y-7344926D02*
X14216882Y-7474926D01*
X14281882Y-7344926D02*
X14281882Y-7474926D01*
X14216882Y-7409926D02*
X14346882Y-7409926D01*
X14716882Y-7344926D02*
X14846882Y-7474926D01*
X14846882Y-7344926D02*
X14716882Y-7474926D01*
X14781882Y-7344926D02*
X14781882Y-7474926D01*
X14716882Y-7409926D02*
X14846882Y-7409926D01*
X11036382Y-6992426D02*
X11166382Y-7122426D01*
X11166382Y-6992426D02*
X11036382Y-7122426D01*
X11101382Y-6992426D02*
X11101382Y-7122426D01*
X11036382Y-7057426D02*
X11166382Y-7057426D01*
X11036382Y-7492426D02*
X11166382Y-7622426D01*
X11166382Y-7492426D02*
X11036382Y-7622426D01*
X11101382Y-7492426D02*
X11101382Y-7622426D01*
X11036382Y-7557426D02*
X11166382Y-7557426D01*
X11036382Y-10992926D02*
X11166382Y-11122926D01*
X11166382Y-10992926D02*
X11036382Y-11122926D01*
X11101382Y-10992926D02*
X11101382Y-11122926D01*
X11036382Y-11057926D02*
X11166382Y-11057926D01*
X11036382Y-11492926D02*
X11166382Y-11622926D01*
X11166382Y-11492926D02*
X11036382Y-11622926D01*
X11101382Y-11492926D02*
X11101382Y-11622926D01*
X11036382Y-11557926D02*
X11166382Y-11557926D01*
X10398882Y-8196426D02*
X10533882Y-8331426D01*
X10533882Y-8196426D02*
X10398882Y-8331426D01*
X10514112Y-8311656D02*
X10514112Y-8216196D01*
X10418652Y-8216196D01*
X10418652Y-8311656D01*
X10514112Y-8311656D01*
X10398882Y-8696426D02*
X10533882Y-8831426D01*
X10533882Y-8696426D02*
X10398882Y-8831426D01*
X10514112Y-8811656D02*
X10514112Y-8716196D01*
X10418652Y-8716196D01*
X10418652Y-8811656D01*
X10514112Y-8811656D01*
X10398882Y-9696426D02*
X10533882Y-9831426D01*
X10533882Y-9696426D02*
X10398882Y-9831426D01*
X10514112Y-9811656D02*
X10514112Y-9716196D01*
X10418652Y-9716196D01*
X10418652Y-9811656D01*
X10514112Y-9811656D01*
X10398882Y-10196426D02*
X10533882Y-10331426D01*
X10533882Y-10196426D02*
X10398882Y-10331426D01*
X10514112Y-10311656D02*
X10514112Y-10216196D01*
X10418652Y-10216196D01*
X10418652Y-10311656D01*
X10514112Y-10311656D01*
X19489314Y-7139098D02*
X19809314Y-7459098D01*
X19809314Y-7139098D02*
X19489314Y-7459098D01*
X19649314Y-7459098D02*
X19809314Y-7299098D01*
X19649314Y-7139098D01*
X19489314Y-7299098D01*
X19649314Y-7459098D01*
X13489314Y-11139098D02*
X13809314Y-11459098D01*
X13809314Y-11139098D02*
X13489314Y-11459098D01*
X13649314Y-11459098D02*
X13809314Y-11299098D01*
X13649314Y-11139098D01*
X13489314Y-11299098D01*
X13649314Y-11459098D01*
X13489314Y-7139098D02*
X13809314Y-7459098D01*
X13809314Y-7139098D02*
X13489314Y-7459098D01*
X13649314Y-7459098D02*
X13809314Y-7299098D01*
X13649314Y-7139098D01*
X13489314Y-7299098D01*
X13649314Y-7459098D01*
X19489314Y-11139098D02*
X19809314Y-11459098D01*
X19809314Y-11139098D02*
X19489314Y-11459098D01*
X19649314Y-11459098D02*
X19809314Y-11299098D01*
X19649314Y-11139098D01*
X19489314Y-11299098D01*
X19649314Y-11459098D01*
D12*
X10086429Y-12515714D02*
X10086429Y-12215714D01*
X10157857Y-12215714D01*
X10200714Y-12230000D01*
X10229286Y-12258571D01*
X10243571Y-12287143D01*
X10257857Y-12344286D01*
X10257857Y-12387143D01*
X10243571Y-12444286D01*
X10229286Y-12472857D01*
X10200714Y-12501428D01*
X10157857Y-12515714D01*
X10086429Y-12515714D01*
X10386429Y-12515714D02*
X10386429Y-12315714D01*
X10386429Y-12372857D02*
X10400714Y-12344286D01*
X10415000Y-12330000D01*
X10443571Y-12315714D01*
X10472143Y-12315714D01*
X10572143Y-12515714D02*
X10572143Y-12315714D01*
X10572143Y-12215714D02*
X10557857Y-12230000D01*
X10572143Y-12244286D01*
X10586429Y-12230000D01*
X10572143Y-12215714D01*
X10572143Y-12244286D01*
X10757857Y-12515714D02*
X10729286Y-12501428D01*
X10715000Y-12472857D01*
X10715000Y-12215714D01*
X10915000Y-12515714D02*
X10886429Y-12501428D01*
X10872143Y-12472857D01*
X10872143Y-12215714D01*
X11257857Y-12515714D02*
X11257857Y-12215714D01*
X11357857Y-12430000D01*
X11457857Y-12215714D01*
X11457857Y-12515714D01*
X11729286Y-12515714D02*
X11729286Y-12358571D01*
X11715000Y-12330000D01*
X11686428Y-12315714D01*
X11629286Y-12315714D01*
X11600714Y-12330000D01*
X11729286Y-12501428D02*
X11700714Y-12515714D01*
X11629286Y-12515714D01*
X11600714Y-12501428D01*
X11586428Y-12472857D01*
X11586428Y-12444286D01*
X11600714Y-12415714D01*
X11629286Y-12401428D01*
X11700714Y-12401428D01*
X11729286Y-12387143D01*
X11872143Y-12315714D02*
X11872143Y-12615714D01*
X11872143Y-12330000D02*
X11900714Y-12315714D01*
X11957857Y-12315714D01*
X11986428Y-12330000D01*
X12000714Y-12344286D01*
X12015000Y-12372857D01*
X12015000Y-12458571D01*
X12000714Y-12487143D01*
X11986428Y-12501428D01*
X11957857Y-12515714D01*
X11900714Y-12515714D01*
X11872143Y-12501428D01*
X12143571Y-12487143D02*
X12157857Y-12501428D01*
X12143571Y-12515714D01*
X12129286Y-12501428D01*
X12143571Y-12487143D01*
X12143571Y-12515714D01*
X12143571Y-12330000D02*
X12157857Y-12344286D01*
X12143571Y-12358571D01*
X12129286Y-12344286D01*
X12143571Y-12330000D01*
X12143571Y-12358571D01*
X9760000Y-12990000D02*
X9800000Y-13030000D01*
X9800000Y-12990000D02*
X9760000Y-13030000D01*
X10143571Y-12845714D02*
X10172143Y-12845714D01*
X10200714Y-12860000D01*
X10215000Y-12874286D01*
X10229286Y-12902857D01*
X10243571Y-12960000D01*
X10243571Y-13031428D01*
X10229286Y-13088571D01*
X10215000Y-13117143D01*
X10200714Y-13131428D01*
X10172143Y-13145714D01*
X10143571Y-13145714D01*
X10115000Y-13131428D01*
X10100714Y-13117143D01*
X10086429Y-13088571D01*
X10072143Y-13031428D01*
X10072143Y-12960000D01*
X10086429Y-12902857D01*
X10100714Y-12874286D01*
X10115000Y-12860000D01*
X10143571Y-12845714D01*
X10372143Y-13117143D02*
X10386429Y-13131428D01*
X10372143Y-13145714D01*
X10357857Y-13131428D01*
X10372143Y-13117143D01*
X10372143Y-13145714D01*
X10643571Y-12945714D02*
X10643571Y-13145714D01*
X10572143Y-12831428D02*
X10500714Y-13045714D01*
X10686429Y-13045714D01*
X10857857Y-12845714D02*
X10886429Y-12845714D01*
X10915000Y-12860000D01*
X10929286Y-12874286D01*
X10943571Y-12902857D01*
X10957857Y-12960000D01*
X10957857Y-13031428D01*
X10943571Y-13088571D01*
X10929286Y-13117143D01*
X10915000Y-13131428D01*
X10886429Y-13145714D01*
X10857857Y-13145714D01*
X10829286Y-13131428D01*
X10815000Y-13117143D01*
X10800714Y-13088571D01*
X10786429Y-13031428D01*
X10786429Y-12960000D01*
X10800714Y-12902857D01*
X10815000Y-12874286D01*
X10829286Y-12860000D01*
X10857857Y-12845714D01*
X11086429Y-13145714D02*
X11086429Y-12945714D01*
X11086429Y-12974286D02*
X11100714Y-12960000D01*
X11129286Y-12945714D01*
X11172143Y-12945714D01*
X11200714Y-12960000D01*
X11215000Y-12988571D01*
X11215000Y-13145714D01*
X11215000Y-12988571D02*
X11229286Y-12960000D01*
X11257857Y-12945714D01*
X11300714Y-12945714D01*
X11329286Y-12960000D01*
X11343571Y-12988571D01*
X11343571Y-13145714D01*
X11486428Y-13145714D02*
X11486428Y-12945714D01*
X11486428Y-12974286D02*
X11500714Y-12960000D01*
X11529286Y-12945714D01*
X11572143Y-12945714D01*
X11600714Y-12960000D01*
X11615000Y-12988571D01*
X11615000Y-13145714D01*
X11615000Y-12988571D02*
X11629286Y-12960000D01*
X11657857Y-12945714D01*
X11700714Y-12945714D01*
X11729286Y-12960000D01*
X11743571Y-12988571D01*
X11743571Y-13145714D01*
X12329286Y-12831428D02*
X12072143Y-13217143D01*
X12715000Y-12845714D02*
X12743571Y-12845714D01*
X12772143Y-12860000D01*
X12786428Y-12874286D01*
X12800714Y-12902857D01*
X12815000Y-12960000D01*
X12815000Y-13031428D01*
X12800714Y-13088571D01*
X12786428Y-13117143D01*
X12772143Y-13131428D01*
X12743571Y-13145714D01*
X12715000Y-13145714D01*
X12686428Y-13131428D01*
X12672143Y-13117143D01*
X12657857Y-13088571D01*
X12643571Y-13031428D01*
X12643571Y-12960000D01*
X12657857Y-12902857D01*
X12672143Y-12874286D01*
X12686428Y-12860000D01*
X12715000Y-12845714D01*
X12943571Y-13117143D02*
X12957857Y-13131428D01*
X12943571Y-13145714D01*
X12929286Y-13131428D01*
X12943571Y-13117143D01*
X12943571Y-13145714D01*
X13143571Y-12845714D02*
X13172143Y-12845714D01*
X13200714Y-12860000D01*
X13215000Y-12874286D01*
X13229286Y-12902857D01*
X13243571Y-12960000D01*
X13243571Y-13031428D01*
X13229286Y-13088571D01*
X13215000Y-13117143D01*
X13200714Y-13131428D01*
X13172143Y-13145714D01*
X13143571Y-13145714D01*
X13115000Y-13131428D01*
X13100714Y-13117143D01*
X13086428Y-13088571D01*
X13072143Y-13031428D01*
X13072143Y-12960000D01*
X13086428Y-12902857D01*
X13100714Y-12874286D01*
X13115000Y-12860000D01*
X13143571Y-12845714D01*
X13529286Y-13145714D02*
X13357857Y-13145714D01*
X13443571Y-13145714D02*
X13443571Y-12845714D01*
X13415000Y-12888571D01*
X13386428Y-12917143D01*
X13357857Y-12931428D01*
X13786428Y-12845714D02*
X13729286Y-12845714D01*
X13700714Y-12860000D01*
X13686428Y-12874286D01*
X13657857Y-12917143D01*
X13643571Y-12974286D01*
X13643571Y-13088571D01*
X13657857Y-13117143D01*
X13672143Y-13131428D01*
X13700714Y-13145714D01*
X13757857Y-13145714D01*
X13786428Y-13131428D01*
X13800714Y-13117143D01*
X13815000Y-13088571D01*
X13815000Y-13017143D01*
X13800714Y-12988571D01*
X13786428Y-12974286D01*
X13757857Y-12960000D01*
X13700714Y-12960000D01*
X13672143Y-12974286D01*
X13657857Y-12988571D01*
X13643571Y-13017143D01*
X13929286Y-12845714D02*
X13929286Y-12902857D01*
X14043571Y-12845714D02*
X14043571Y-12902857D01*
X14486428Y-13260000D02*
X14472143Y-13245714D01*
X14443571Y-13202857D01*
X14429286Y-13174286D01*
X14415000Y-13131428D01*
X14400714Y-13060000D01*
X14400714Y-13002857D01*
X14415000Y-12931428D01*
X14429286Y-12888571D01*
X14443571Y-12860000D01*
X14472143Y-12817143D01*
X14486428Y-12802857D01*
X14572143Y-12845714D02*
X14757857Y-12845714D01*
X14657857Y-12960000D01*
X14700714Y-12960000D01*
X14729286Y-12974286D01*
X14743571Y-12988571D01*
X14757857Y-13017143D01*
X14757857Y-13088571D01*
X14743571Y-13117143D01*
X14729286Y-13131428D01*
X14700714Y-13145714D01*
X14615000Y-13145714D01*
X14586428Y-13131428D01*
X14572143Y-13117143D01*
X15115000Y-13145714D02*
X15115000Y-12845714D01*
X15243571Y-13145714D02*
X15243571Y-12988571D01*
X15229286Y-12960000D01*
X15200714Y-12945714D01*
X15157857Y-12945714D01*
X15129286Y-12960000D01*
X15115000Y-12974286D01*
X15429286Y-13145714D02*
X15400714Y-13131428D01*
X15386428Y-13117143D01*
X15372143Y-13088571D01*
X15372143Y-13002857D01*
X15386428Y-12974286D01*
X15400714Y-12960000D01*
X15429286Y-12945714D01*
X15472143Y-12945714D01*
X15500714Y-12960000D01*
X15515000Y-12974286D01*
X15529286Y-13002857D01*
X15529286Y-13088571D01*
X15515000Y-13117143D01*
X15500714Y-13131428D01*
X15472143Y-13145714D01*
X15429286Y-13145714D01*
X15700714Y-13145714D02*
X15672143Y-13131428D01*
X15657857Y-13102857D01*
X15657857Y-12845714D01*
X15929286Y-13131428D02*
X15900714Y-13145714D01*
X15843571Y-13145714D01*
X15815000Y-13131428D01*
X15800714Y-13102857D01*
X15800714Y-12988571D01*
X15815000Y-12960000D01*
X15843571Y-12945714D01*
X15900714Y-12945714D01*
X15929286Y-12960000D01*
X15943571Y-12988571D01*
X15943571Y-13017143D01*
X15800714Y-13045714D01*
X16057857Y-13131428D02*
X16086428Y-13145714D01*
X16143571Y-13145714D01*
X16172143Y-13131428D01*
X16186428Y-13102857D01*
X16186428Y-13088571D01*
X16172143Y-13060000D01*
X16143571Y-13045714D01*
X16100714Y-13045714D01*
X16072143Y-13031428D01*
X16057857Y-13002857D01*
X16057857Y-12988571D01*
X16072143Y-12960000D01*
X16100714Y-12945714D01*
X16143571Y-12945714D01*
X16172143Y-12960000D01*
X16286428Y-13260000D02*
X16300714Y-13245714D01*
X16329286Y-13202857D01*
X16343571Y-13174286D01*
X16357857Y-13131428D01*
X16372143Y-13060000D01*
X16372143Y-13002857D01*
X16357857Y-12931428D01*
X16343571Y-12888571D01*
X16329286Y-12860000D01*
X16300714Y-12817143D01*
X16286428Y-12802857D01*
X9800000Y-13406000D02*
G75*
G03*
X9800000Y-13406000I-37500J0D01*
G01*
X10143571Y-13241714D02*
X10172143Y-13241714D01*
X10200714Y-13256000D01*
X10215000Y-13270286D01*
X10229286Y-13298857D01*
X10243571Y-13356000D01*
X10243571Y-13427428D01*
X10229286Y-13484571D01*
X10215000Y-13513143D01*
X10200714Y-13527428D01*
X10172143Y-13541714D01*
X10143571Y-13541714D01*
X10115000Y-13527428D01*
X10100714Y-13513143D01*
X10086429Y-13484571D01*
X10072143Y-13427428D01*
X10072143Y-13356000D01*
X10086429Y-13298857D01*
X10100714Y-13270286D01*
X10115000Y-13256000D01*
X10143571Y-13241714D01*
X10372143Y-13513143D02*
X10386429Y-13527428D01*
X10372143Y-13541714D01*
X10357857Y-13527428D01*
X10372143Y-13513143D01*
X10372143Y-13541714D01*
X10486429Y-13241714D02*
X10686429Y-13241714D01*
X10557857Y-13541714D01*
X10943571Y-13241714D02*
X10800714Y-13241714D01*
X10786429Y-13384571D01*
X10800714Y-13370286D01*
X10829286Y-13356000D01*
X10900714Y-13356000D01*
X10929286Y-13370286D01*
X10943571Y-13384571D01*
X10957857Y-13413143D01*
X10957857Y-13484571D01*
X10943571Y-13513143D01*
X10929286Y-13527428D01*
X10900714Y-13541714D01*
X10829286Y-13541714D01*
X10800714Y-13527428D01*
X10786429Y-13513143D01*
X11086429Y-13541714D02*
X11086429Y-13341714D01*
X11086429Y-13370286D02*
X11100714Y-13356000D01*
X11129286Y-13341714D01*
X11172143Y-13341714D01*
X11200714Y-13356000D01*
X11215000Y-13384571D01*
X11215000Y-13541714D01*
X11215000Y-13384571D02*
X11229286Y-13356000D01*
X11257857Y-13341714D01*
X11300714Y-13341714D01*
X11329286Y-13356000D01*
X11343571Y-13384571D01*
X11343571Y-13541714D01*
X11486428Y-13541714D02*
X11486428Y-13341714D01*
X11486428Y-13370286D02*
X11500714Y-13356000D01*
X11529286Y-13341714D01*
X11572143Y-13341714D01*
X11600714Y-13356000D01*
X11615000Y-13384571D01*
X11615000Y-13541714D01*
X11615000Y-13384571D02*
X11629286Y-13356000D01*
X11657857Y-13341714D01*
X11700714Y-13341714D01*
X11729286Y-13356000D01*
X11743571Y-13384571D01*
X11743571Y-13541714D01*
X12329286Y-13227428D02*
X12072143Y-13613143D01*
X12715000Y-13241714D02*
X12743571Y-13241714D01*
X12772143Y-13256000D01*
X12786428Y-13270286D01*
X12800714Y-13298857D01*
X12815000Y-13356000D01*
X12815000Y-13427428D01*
X12800714Y-13484571D01*
X12786428Y-13513143D01*
X12772143Y-13527428D01*
X12743571Y-13541714D01*
X12715000Y-13541714D01*
X12686428Y-13527428D01*
X12672143Y-13513143D01*
X12657857Y-13484571D01*
X12643571Y-13427428D01*
X12643571Y-13356000D01*
X12657857Y-13298857D01*
X12672143Y-13270286D01*
X12686428Y-13256000D01*
X12715000Y-13241714D01*
X12943571Y-13513143D02*
X12957857Y-13527428D01*
X12943571Y-13541714D01*
X12929286Y-13527428D01*
X12943571Y-13513143D01*
X12943571Y-13541714D01*
X13143571Y-13241714D02*
X13172143Y-13241714D01*
X13200714Y-13256000D01*
X13215000Y-13270286D01*
X13229286Y-13298857D01*
X13243571Y-13356000D01*
X13243571Y-13427428D01*
X13229286Y-13484571D01*
X13215000Y-13513143D01*
X13200714Y-13527428D01*
X13172143Y-13541714D01*
X13143571Y-13541714D01*
X13115000Y-13527428D01*
X13100714Y-13513143D01*
X13086428Y-13484571D01*
X13072143Y-13427428D01*
X13072143Y-13356000D01*
X13086428Y-13298857D01*
X13100714Y-13270286D01*
X13115000Y-13256000D01*
X13143571Y-13241714D01*
X13343571Y-13241714D02*
X13529286Y-13241714D01*
X13429286Y-13356000D01*
X13472143Y-13356000D01*
X13500714Y-13370286D01*
X13515000Y-13384571D01*
X13529286Y-13413143D01*
X13529286Y-13484571D01*
X13515000Y-13513143D01*
X13500714Y-13527428D01*
X13472143Y-13541714D01*
X13386428Y-13541714D01*
X13357857Y-13527428D01*
X13343571Y-13513143D01*
X13715000Y-13241714D02*
X13743571Y-13241714D01*
X13772143Y-13256000D01*
X13786428Y-13270286D01*
X13800714Y-13298857D01*
X13815000Y-13356000D01*
X13815000Y-13427428D01*
X13800714Y-13484571D01*
X13786428Y-13513143D01*
X13772143Y-13527428D01*
X13743571Y-13541714D01*
X13715000Y-13541714D01*
X13686428Y-13527428D01*
X13672143Y-13513143D01*
X13657857Y-13484571D01*
X13643571Y-13427428D01*
X13643571Y-13356000D01*
X13657857Y-13298857D01*
X13672143Y-13270286D01*
X13686428Y-13256000D01*
X13715000Y-13241714D01*
X13929286Y-13241714D02*
X13929286Y-13298857D01*
X14043571Y-13241714D02*
X14043571Y-13298857D01*
X14486428Y-13656000D02*
X14472143Y-13641714D01*
X14443571Y-13598857D01*
X14429286Y-13570286D01*
X14415000Y-13527428D01*
X14400714Y-13456000D01*
X14400714Y-13398857D01*
X14415000Y-13327428D01*
X14429286Y-13284571D01*
X14443571Y-13256000D01*
X14472143Y-13213143D01*
X14486428Y-13198857D01*
X14572143Y-13241714D02*
X14757857Y-13241714D01*
X14657857Y-13356000D01*
X14700714Y-13356000D01*
X14729286Y-13370286D01*
X14743571Y-13384571D01*
X14757857Y-13413143D01*
X14757857Y-13484571D01*
X14743571Y-13513143D01*
X14729286Y-13527428D01*
X14700714Y-13541714D01*
X14615000Y-13541714D01*
X14586428Y-13527428D01*
X14572143Y-13513143D01*
X15115000Y-13541714D02*
X15115000Y-13241714D01*
X15243571Y-13541714D02*
X15243571Y-13384571D01*
X15229286Y-13356000D01*
X15200714Y-13341714D01*
X15157857Y-13341714D01*
X15129286Y-13356000D01*
X15115000Y-13370286D01*
X15429286Y-13541714D02*
X15400714Y-13527428D01*
X15386428Y-13513143D01*
X15372143Y-13484571D01*
X15372143Y-13398857D01*
X15386428Y-13370286D01*
X15400714Y-13356000D01*
X15429286Y-13341714D01*
X15472143Y-13341714D01*
X15500714Y-13356000D01*
X15515000Y-13370286D01*
X15529286Y-13398857D01*
X15529286Y-13484571D01*
X15515000Y-13513143D01*
X15500714Y-13527428D01*
X15472143Y-13541714D01*
X15429286Y-13541714D01*
X15700714Y-13541714D02*
X15672143Y-13527428D01*
X15657857Y-13498857D01*
X15657857Y-13241714D01*
X15929286Y-13527428D02*
X15900714Y-13541714D01*
X15843571Y-13541714D01*
X15815000Y-13527428D01*
X15800714Y-13498857D01*
X15800714Y-13384571D01*
X15815000Y-13356000D01*
X15843571Y-13341714D01*
X15900714Y-13341714D01*
X15929286Y-13356000D01*
X15943571Y-13384571D01*
X15943571Y-13413143D01*
X15800714Y-13441714D01*
X16057857Y-13527428D02*
X16086428Y-13541714D01*
X16143571Y-13541714D01*
X16172143Y-13527428D01*
X16186428Y-13498857D01*
X16186428Y-13484571D01*
X16172143Y-13456000D01*
X16143571Y-13441714D01*
X16100714Y-13441714D01*
X16072143Y-13427428D01*
X16057857Y-13398857D01*
X16057857Y-13384571D01*
X16072143Y-13356000D01*
X16100714Y-13341714D01*
X16143571Y-13341714D01*
X16172143Y-13356000D01*
X16286428Y-13656000D02*
X16300714Y-13641714D01*
X16329286Y-13598857D01*
X16343571Y-13570286D01*
X16357857Y-13527428D01*
X16372143Y-13456000D01*
X16372143Y-13398857D01*
X16357857Y-13327428D01*
X16343571Y-13284571D01*
X16329286Y-13256000D01*
X16300714Y-13213143D01*
X16286428Y-13198857D01*
X9760000Y-13762000D02*
X9760000Y-13842000D01*
X9720000Y-13802000D02*
X9800000Y-13802000D01*
X10143571Y-13637714D02*
X10172143Y-13637714D01*
X10200714Y-13652000D01*
X10215000Y-13666286D01*
X10229286Y-13694857D01*
X10243571Y-13752000D01*
X10243571Y-13823428D01*
X10229286Y-13880571D01*
X10215000Y-13909143D01*
X10200714Y-13923428D01*
X10172143Y-13937714D01*
X10143571Y-13937714D01*
X10115000Y-13923428D01*
X10100714Y-13909143D01*
X10086429Y-13880571D01*
X10072143Y-13823428D01*
X10072143Y-13752000D01*
X10086429Y-13694857D01*
X10100714Y-13666286D01*
X10115000Y-13652000D01*
X10143571Y-13637714D01*
X10372143Y-13909143D02*
X10386429Y-13923428D01*
X10372143Y-13937714D01*
X10357857Y-13923428D01*
X10372143Y-13909143D01*
X10372143Y-13937714D01*
X10557857Y-13766286D02*
X10529286Y-13752000D01*
X10515000Y-13737714D01*
X10500714Y-13709143D01*
X10500714Y-13694857D01*
X10515000Y-13666286D01*
X10529286Y-13652000D01*
X10557857Y-13637714D01*
X10615000Y-13637714D01*
X10643571Y-13652000D01*
X10657857Y-13666286D01*
X10672143Y-13694857D01*
X10672143Y-13709143D01*
X10657857Y-13737714D01*
X10643571Y-13752000D01*
X10615000Y-13766286D01*
X10557857Y-13766286D01*
X10529286Y-13780571D01*
X10515000Y-13794857D01*
X10500714Y-13823428D01*
X10500714Y-13880571D01*
X10515000Y-13909143D01*
X10529286Y-13923428D01*
X10557857Y-13937714D01*
X10615000Y-13937714D01*
X10643571Y-13923428D01*
X10657857Y-13909143D01*
X10672143Y-13880571D01*
X10672143Y-13823428D01*
X10657857Y-13794857D01*
X10643571Y-13780571D01*
X10615000Y-13766286D01*
X10857857Y-13637714D02*
X10886429Y-13637714D01*
X10915000Y-13652000D01*
X10929286Y-13666286D01*
X10943571Y-13694857D01*
X10957857Y-13752000D01*
X10957857Y-13823428D01*
X10943571Y-13880571D01*
X10929286Y-13909143D01*
X10915000Y-13923428D01*
X10886429Y-13937714D01*
X10857857Y-13937714D01*
X10829286Y-13923428D01*
X10815000Y-13909143D01*
X10800714Y-13880571D01*
X10786429Y-13823428D01*
X10786429Y-13752000D01*
X10800714Y-13694857D01*
X10815000Y-13666286D01*
X10829286Y-13652000D01*
X10857857Y-13637714D01*
X11086429Y-13937714D02*
X11086429Y-13737714D01*
X11086429Y-13766286D02*
X11100714Y-13752000D01*
X11129286Y-13737714D01*
X11172143Y-13737714D01*
X11200714Y-13752000D01*
X11215000Y-13780571D01*
X11215000Y-13937714D01*
X11215000Y-13780571D02*
X11229286Y-13752000D01*
X11257857Y-13737714D01*
X11300714Y-13737714D01*
X11329286Y-13752000D01*
X11343571Y-13780571D01*
X11343571Y-13937714D01*
X11486428Y-13937714D02*
X11486428Y-13737714D01*
X11486428Y-13766286D02*
X11500714Y-13752000D01*
X11529286Y-13737714D01*
X11572143Y-13737714D01*
X11600714Y-13752000D01*
X11615000Y-13780571D01*
X11615000Y-13937714D01*
X11615000Y-13780571D02*
X11629286Y-13752000D01*
X11657857Y-13737714D01*
X11700714Y-13737714D01*
X11729286Y-13752000D01*
X11743571Y-13780571D01*
X11743571Y-13937714D01*
X12329286Y-13623428D02*
X12072143Y-14009143D01*
X12715000Y-13637714D02*
X12743571Y-13637714D01*
X12772143Y-13652000D01*
X12786428Y-13666286D01*
X12800714Y-13694857D01*
X12815000Y-13752000D01*
X12815000Y-13823428D01*
X12800714Y-13880571D01*
X12786428Y-13909143D01*
X12772143Y-13923428D01*
X12743571Y-13937714D01*
X12715000Y-13937714D01*
X12686428Y-13923428D01*
X12672143Y-13909143D01*
X12657857Y-13880571D01*
X12643571Y-13823428D01*
X12643571Y-13752000D01*
X12657857Y-13694857D01*
X12672143Y-13666286D01*
X12686428Y-13652000D01*
X12715000Y-13637714D01*
X12943571Y-13909143D02*
X12957857Y-13923428D01*
X12943571Y-13937714D01*
X12929286Y-13923428D01*
X12943571Y-13909143D01*
X12943571Y-13937714D01*
X13143571Y-13637714D02*
X13172143Y-13637714D01*
X13200714Y-13652000D01*
X13215000Y-13666286D01*
X13229286Y-13694857D01*
X13243571Y-13752000D01*
X13243571Y-13823428D01*
X13229286Y-13880571D01*
X13215000Y-13909143D01*
X13200714Y-13923428D01*
X13172143Y-13937714D01*
X13143571Y-13937714D01*
X13115000Y-13923428D01*
X13100714Y-13909143D01*
X13086428Y-13880571D01*
X13072143Y-13823428D01*
X13072143Y-13752000D01*
X13086428Y-13694857D01*
X13100714Y-13666286D01*
X13115000Y-13652000D01*
X13143571Y-13637714D01*
X13343571Y-13637714D02*
X13529286Y-13637714D01*
X13429286Y-13752000D01*
X13472143Y-13752000D01*
X13500714Y-13766286D01*
X13515000Y-13780571D01*
X13529286Y-13809143D01*
X13529286Y-13880571D01*
X13515000Y-13909143D01*
X13500714Y-13923428D01*
X13472143Y-13937714D01*
X13386428Y-13937714D01*
X13357857Y-13923428D01*
X13343571Y-13909143D01*
X13815000Y-13937714D02*
X13643571Y-13937714D01*
X13729286Y-13937714D02*
X13729286Y-13637714D01*
X13700714Y-13680571D01*
X13672143Y-13709143D01*
X13643571Y-13723428D01*
X13929286Y-13637714D02*
X13929286Y-13694857D01*
X14043571Y-13637714D02*
X14043571Y-13694857D01*
X14486428Y-14052000D02*
X14472143Y-14037714D01*
X14443571Y-13994857D01*
X14429286Y-13966286D01*
X14415000Y-13923428D01*
X14400714Y-13852000D01*
X14400714Y-13794857D01*
X14415000Y-13723428D01*
X14429286Y-13680571D01*
X14443571Y-13652000D01*
X14472143Y-13609143D01*
X14486428Y-13594857D01*
X14586428Y-13666286D02*
X14600714Y-13652000D01*
X14629286Y-13637714D01*
X14700714Y-13637714D01*
X14729286Y-13652000D01*
X14743571Y-13666286D01*
X14757857Y-13694857D01*
X14757857Y-13723428D01*
X14743571Y-13766286D01*
X14572143Y-13937714D01*
X14757857Y-13937714D01*
X14872143Y-13666286D02*
X14886428Y-13652000D01*
X14915000Y-13637714D01*
X14986428Y-13637714D01*
X15015000Y-13652000D01*
X15029286Y-13666286D01*
X15043571Y-13694857D01*
X15043571Y-13723428D01*
X15029286Y-13766286D01*
X14857857Y-13937714D01*
X15043571Y-13937714D01*
X15400714Y-13937714D02*
X15400714Y-13637714D01*
X15529286Y-13937714D02*
X15529286Y-13780571D01*
X15515000Y-13752000D01*
X15486428Y-13737714D01*
X15443571Y-13737714D01*
X15415000Y-13752000D01*
X15400714Y-13766286D01*
X15715000Y-13937714D02*
X15686428Y-13923428D01*
X15672143Y-13909143D01*
X15657857Y-13880571D01*
X15657857Y-13794857D01*
X15672143Y-13766286D01*
X15686428Y-13752000D01*
X15715000Y-13737714D01*
X15757857Y-13737714D01*
X15786428Y-13752000D01*
X15800714Y-13766286D01*
X15815000Y-13794857D01*
X15815000Y-13880571D01*
X15800714Y-13909143D01*
X15786428Y-13923428D01*
X15757857Y-13937714D01*
X15715000Y-13937714D01*
X15986428Y-13937714D02*
X15957857Y-13923428D01*
X15943571Y-13894857D01*
X15943571Y-13637714D01*
X16215000Y-13923428D02*
X16186428Y-13937714D01*
X16129286Y-13937714D01*
X16100714Y-13923428D01*
X16086428Y-13894857D01*
X16086428Y-13780571D01*
X16100714Y-13752000D01*
X16129286Y-13737714D01*
X16186428Y-13737714D01*
X16215000Y-13752000D01*
X16229286Y-13780571D01*
X16229286Y-13809143D01*
X16086428Y-13837714D01*
X16343571Y-13923428D02*
X16372143Y-13937714D01*
X16429286Y-13937714D01*
X16457857Y-13923428D01*
X16472143Y-13894857D01*
X16472143Y-13880571D01*
X16457857Y-13852000D01*
X16429286Y-13837714D01*
X16386428Y-13837714D01*
X16357857Y-13823428D01*
X16343571Y-13794857D01*
X16343571Y-13780571D01*
X16357857Y-13752000D01*
X16386428Y-13737714D01*
X16429286Y-13737714D01*
X16457857Y-13752000D01*
X16572143Y-14052000D02*
X16586428Y-14037714D01*
X16615000Y-13994857D01*
X16629286Y-13966286D01*
X16643571Y-13923428D01*
X16657857Y-13852000D01*
X16657857Y-13794857D01*
X16643571Y-13723428D01*
X16629286Y-13680571D01*
X16615000Y-13652000D01*
X16586428Y-13609143D01*
X16572143Y-13594857D01*
X9786820Y-14229820D02*
X9786820Y-14166180D01*
X9723180Y-14166180D01*
X9723180Y-14229820D01*
X9786820Y-14229820D01*
X10143571Y-14033714D02*
X10172143Y-14033714D01*
X10200714Y-14048000D01*
X10215000Y-14062286D01*
X10229286Y-14090857D01*
X10243571Y-14148000D01*
X10243571Y-14219428D01*
X10229286Y-14276571D01*
X10215000Y-14305143D01*
X10200714Y-14319428D01*
X10172143Y-14333714D01*
X10143571Y-14333714D01*
X10115000Y-14319428D01*
X10100714Y-14305143D01*
X10086429Y-14276571D01*
X10072143Y-14219428D01*
X10072143Y-14148000D01*
X10086429Y-14090857D01*
X10100714Y-14062286D01*
X10115000Y-14048000D01*
X10143571Y-14033714D01*
X10372143Y-14305143D02*
X10386429Y-14319428D01*
X10372143Y-14333714D01*
X10357857Y-14319428D01*
X10372143Y-14305143D01*
X10372143Y-14333714D01*
X10529286Y-14333714D02*
X10586429Y-14333714D01*
X10615000Y-14319428D01*
X10629286Y-14305143D01*
X10657857Y-14262286D01*
X10672143Y-14205143D01*
X10672143Y-14090857D01*
X10657857Y-14062286D01*
X10643571Y-14048000D01*
X10615000Y-14033714D01*
X10557857Y-14033714D01*
X10529286Y-14048000D01*
X10515000Y-14062286D01*
X10500714Y-14090857D01*
X10500714Y-14162286D01*
X10515000Y-14190857D01*
X10529286Y-14205143D01*
X10557857Y-14219428D01*
X10615000Y-14219428D01*
X10643571Y-14205143D01*
X10657857Y-14190857D01*
X10672143Y-14162286D01*
X10857857Y-14033714D02*
X10886429Y-14033714D01*
X10915000Y-14048000D01*
X10929286Y-14062286D01*
X10943571Y-14090857D01*
X10957857Y-14148000D01*
X10957857Y-14219428D01*
X10943571Y-14276571D01*
X10929286Y-14305143D01*
X10915000Y-14319428D01*
X10886429Y-14333714D01*
X10857857Y-14333714D01*
X10829286Y-14319428D01*
X10815000Y-14305143D01*
X10800714Y-14276571D01*
X10786429Y-14219428D01*
X10786429Y-14148000D01*
X10800714Y-14090857D01*
X10815000Y-14062286D01*
X10829286Y-14048000D01*
X10857857Y-14033714D01*
X11086429Y-14333714D02*
X11086429Y-14133714D01*
X11086429Y-14162286D02*
X11100714Y-14148000D01*
X11129286Y-14133714D01*
X11172143Y-14133714D01*
X11200714Y-14148000D01*
X11215000Y-14176571D01*
X11215000Y-14333714D01*
X11215000Y-14176571D02*
X11229286Y-14148000D01*
X11257857Y-14133714D01*
X11300714Y-14133714D01*
X11329286Y-14148000D01*
X11343571Y-14176571D01*
X11343571Y-14333714D01*
X11486428Y-14333714D02*
X11486428Y-14133714D01*
X11486428Y-14162286D02*
X11500714Y-14148000D01*
X11529286Y-14133714D01*
X11572143Y-14133714D01*
X11600714Y-14148000D01*
X11615000Y-14176571D01*
X11615000Y-14333714D01*
X11615000Y-14176571D02*
X11629286Y-14148000D01*
X11657857Y-14133714D01*
X11700714Y-14133714D01*
X11729286Y-14148000D01*
X11743571Y-14176571D01*
X11743571Y-14333714D01*
X12329286Y-14019428D02*
X12072143Y-14405143D01*
X12715000Y-14033714D02*
X12743571Y-14033714D01*
X12772143Y-14048000D01*
X12786428Y-14062286D01*
X12800714Y-14090857D01*
X12815000Y-14148000D01*
X12815000Y-14219428D01*
X12800714Y-14276571D01*
X12786428Y-14305143D01*
X12772143Y-14319428D01*
X12743571Y-14333714D01*
X12715000Y-14333714D01*
X12686428Y-14319428D01*
X12672143Y-14305143D01*
X12657857Y-14276571D01*
X12643571Y-14219428D01*
X12643571Y-14148000D01*
X12657857Y-14090857D01*
X12672143Y-14062286D01*
X12686428Y-14048000D01*
X12715000Y-14033714D01*
X12943571Y-14305143D02*
X12957857Y-14319428D01*
X12943571Y-14333714D01*
X12929286Y-14319428D01*
X12943571Y-14305143D01*
X12943571Y-14333714D01*
X13143571Y-14033714D02*
X13172143Y-14033714D01*
X13200714Y-14048000D01*
X13215000Y-14062286D01*
X13229286Y-14090857D01*
X13243571Y-14148000D01*
X13243571Y-14219428D01*
X13229286Y-14276571D01*
X13215000Y-14305143D01*
X13200714Y-14319428D01*
X13172143Y-14333714D01*
X13143571Y-14333714D01*
X13115000Y-14319428D01*
X13100714Y-14305143D01*
X13086428Y-14276571D01*
X13072143Y-14219428D01*
X13072143Y-14148000D01*
X13086428Y-14090857D01*
X13100714Y-14062286D01*
X13115000Y-14048000D01*
X13143571Y-14033714D01*
X13343571Y-14033714D02*
X13529286Y-14033714D01*
X13429286Y-14148000D01*
X13472143Y-14148000D01*
X13500714Y-14162286D01*
X13515000Y-14176571D01*
X13529286Y-14205143D01*
X13529286Y-14276571D01*
X13515000Y-14305143D01*
X13500714Y-14319428D01*
X13472143Y-14333714D01*
X13386428Y-14333714D01*
X13357857Y-14319428D01*
X13343571Y-14305143D01*
X13800714Y-14033714D02*
X13657857Y-14033714D01*
X13643571Y-14176571D01*
X13657857Y-14162286D01*
X13686428Y-14148000D01*
X13757857Y-14148000D01*
X13786428Y-14162286D01*
X13800714Y-14176571D01*
X13815000Y-14205143D01*
X13815000Y-14276571D01*
X13800714Y-14305143D01*
X13786428Y-14319428D01*
X13757857Y-14333714D01*
X13686428Y-14333714D01*
X13657857Y-14319428D01*
X13643571Y-14305143D01*
X13929286Y-14033714D02*
X13929286Y-14090857D01*
X14043571Y-14033714D02*
X14043571Y-14090857D01*
X14486428Y-14448000D02*
X14472143Y-14433714D01*
X14443571Y-14390857D01*
X14429286Y-14362286D01*
X14415000Y-14319428D01*
X14400714Y-14248000D01*
X14400714Y-14190857D01*
X14415000Y-14119428D01*
X14429286Y-14076571D01*
X14443571Y-14048000D01*
X14472143Y-14005143D01*
X14486428Y-13990857D01*
X14586428Y-14062286D02*
X14600714Y-14048000D01*
X14629286Y-14033714D01*
X14700714Y-14033714D01*
X14729286Y-14048000D01*
X14743571Y-14062286D01*
X14757857Y-14090857D01*
X14757857Y-14119428D01*
X14743571Y-14162286D01*
X14572143Y-14333714D01*
X14757857Y-14333714D01*
X15115000Y-14333714D02*
X15115000Y-14033714D01*
X15243571Y-14333714D02*
X15243571Y-14176571D01*
X15229286Y-14148000D01*
X15200714Y-14133714D01*
X15157857Y-14133714D01*
X15129286Y-14148000D01*
X15115000Y-14162286D01*
X15429286Y-14333714D02*
X15400714Y-14319428D01*
X15386428Y-14305143D01*
X15372143Y-14276571D01*
X15372143Y-14190857D01*
X15386428Y-14162286D01*
X15400714Y-14148000D01*
X15429286Y-14133714D01*
X15472143Y-14133714D01*
X15500714Y-14148000D01*
X15515000Y-14162286D01*
X15529286Y-14190857D01*
X15529286Y-14276571D01*
X15515000Y-14305143D01*
X15500714Y-14319428D01*
X15472143Y-14333714D01*
X15429286Y-14333714D01*
X15700714Y-14333714D02*
X15672143Y-14319428D01*
X15657857Y-14290857D01*
X15657857Y-14033714D01*
X15929286Y-14319428D02*
X15900714Y-14333714D01*
X15843571Y-14333714D01*
X15815000Y-14319428D01*
X15800714Y-14290857D01*
X15800714Y-14176571D01*
X15815000Y-14148000D01*
X15843571Y-14133714D01*
X15900714Y-14133714D01*
X15929286Y-14148000D01*
X15943571Y-14176571D01*
X15943571Y-14205143D01*
X15800714Y-14233714D01*
X16057857Y-14319428D02*
X16086428Y-14333714D01*
X16143571Y-14333714D01*
X16172143Y-14319428D01*
X16186428Y-14290857D01*
X16186428Y-14276571D01*
X16172143Y-14248000D01*
X16143571Y-14233714D01*
X16100714Y-14233714D01*
X16072143Y-14219428D01*
X16057857Y-14190857D01*
X16057857Y-14176571D01*
X16072143Y-14148000D01*
X16100714Y-14133714D01*
X16143571Y-14133714D01*
X16172143Y-14148000D01*
X16286428Y-14448000D02*
X16300714Y-14433714D01*
X16329286Y-14390857D01*
X16343571Y-14362286D01*
X16357857Y-14319428D01*
X16372143Y-14248000D01*
X16372143Y-14190857D01*
X16357857Y-14119428D01*
X16343571Y-14076571D01*
X16329286Y-14048000D01*
X16300714Y-14005143D01*
X16286428Y-13990857D01*
X9750000Y-14644000D02*
X9800000Y-14594000D01*
X9750000Y-14544000D01*
X9700000Y-14594000D01*
X9750000Y-14644000D01*
X10243571Y-14729714D02*
X10072143Y-14729714D01*
X10157857Y-14729714D02*
X10157857Y-14429714D01*
X10129286Y-14472571D01*
X10100714Y-14501143D01*
X10072143Y-14515428D01*
X10372143Y-14701143D02*
X10386429Y-14715428D01*
X10372143Y-14729714D01*
X10357857Y-14715428D01*
X10372143Y-14701143D01*
X10372143Y-14729714D01*
X10572143Y-14429714D02*
X10600714Y-14429714D01*
X10629286Y-14444000D01*
X10643571Y-14458286D01*
X10657857Y-14486857D01*
X10672143Y-14544000D01*
X10672143Y-14615428D01*
X10657857Y-14672571D01*
X10643571Y-14701143D01*
X10629286Y-14715428D01*
X10600714Y-14729714D01*
X10572143Y-14729714D01*
X10543571Y-14715428D01*
X10529286Y-14701143D01*
X10515000Y-14672571D01*
X10500714Y-14615428D01*
X10500714Y-14544000D01*
X10515000Y-14486857D01*
X10529286Y-14458286D01*
X10543571Y-14444000D01*
X10572143Y-14429714D01*
X10857857Y-14429714D02*
X10886429Y-14429714D01*
X10915000Y-14444000D01*
X10929286Y-14458286D01*
X10943571Y-14486857D01*
X10957857Y-14544000D01*
X10957857Y-14615428D01*
X10943571Y-14672571D01*
X10929286Y-14701143D01*
X10915000Y-14715428D01*
X10886429Y-14729714D01*
X10857857Y-14729714D01*
X10829286Y-14715428D01*
X10815000Y-14701143D01*
X10800714Y-14672571D01*
X10786429Y-14615428D01*
X10786429Y-14544000D01*
X10800714Y-14486857D01*
X10815000Y-14458286D01*
X10829286Y-14444000D01*
X10857857Y-14429714D01*
X11086429Y-14729714D02*
X11086429Y-14529714D01*
X11086429Y-14558286D02*
X11100714Y-14544000D01*
X11129286Y-14529714D01*
X11172143Y-14529714D01*
X11200714Y-14544000D01*
X11215000Y-14572571D01*
X11215000Y-14729714D01*
X11215000Y-14572571D02*
X11229286Y-14544000D01*
X11257857Y-14529714D01*
X11300714Y-14529714D01*
X11329286Y-14544000D01*
X11343571Y-14572571D01*
X11343571Y-14729714D01*
X11486428Y-14729714D02*
X11486428Y-14529714D01*
X11486428Y-14558286D02*
X11500714Y-14544000D01*
X11529286Y-14529714D01*
X11572143Y-14529714D01*
X11600714Y-14544000D01*
X11615000Y-14572571D01*
X11615000Y-14729714D01*
X11615000Y-14572571D02*
X11629286Y-14544000D01*
X11657857Y-14529714D01*
X11700714Y-14529714D01*
X11729286Y-14544000D01*
X11743571Y-14572571D01*
X11743571Y-14729714D01*
X12329286Y-14415428D02*
X12072143Y-14801143D01*
X12715000Y-14429714D02*
X12743571Y-14429714D01*
X12772143Y-14444000D01*
X12786428Y-14458286D01*
X12800714Y-14486857D01*
X12815000Y-14544000D01*
X12815000Y-14615428D01*
X12800714Y-14672571D01*
X12786428Y-14701143D01*
X12772143Y-14715428D01*
X12743571Y-14729714D01*
X12715000Y-14729714D01*
X12686428Y-14715428D01*
X12672143Y-14701143D01*
X12657857Y-14672571D01*
X12643571Y-14615428D01*
X12643571Y-14544000D01*
X12657857Y-14486857D01*
X12672143Y-14458286D01*
X12686428Y-14444000D01*
X12715000Y-14429714D01*
X12943571Y-14701143D02*
X12957857Y-14715428D01*
X12943571Y-14729714D01*
X12929286Y-14715428D01*
X12943571Y-14701143D01*
X12943571Y-14729714D01*
X13143571Y-14429714D02*
X13172143Y-14429714D01*
X13200714Y-14444000D01*
X13215000Y-14458286D01*
X13229286Y-14486857D01*
X13243571Y-14544000D01*
X13243571Y-14615428D01*
X13229286Y-14672571D01*
X13215000Y-14701143D01*
X13200714Y-14715428D01*
X13172143Y-14729714D01*
X13143571Y-14729714D01*
X13115000Y-14715428D01*
X13100714Y-14701143D01*
X13086428Y-14672571D01*
X13072143Y-14615428D01*
X13072143Y-14544000D01*
X13086428Y-14486857D01*
X13100714Y-14458286D01*
X13115000Y-14444000D01*
X13143571Y-14429714D01*
X13343571Y-14429714D02*
X13529286Y-14429714D01*
X13429286Y-14544000D01*
X13472143Y-14544000D01*
X13500714Y-14558286D01*
X13515000Y-14572571D01*
X13529286Y-14601143D01*
X13529286Y-14672571D01*
X13515000Y-14701143D01*
X13500714Y-14715428D01*
X13472143Y-14729714D01*
X13386428Y-14729714D01*
X13357857Y-14715428D01*
X13343571Y-14701143D01*
X13672143Y-14729714D02*
X13729286Y-14729714D01*
X13757857Y-14715428D01*
X13772143Y-14701143D01*
X13800714Y-14658286D01*
X13815000Y-14601143D01*
X13815000Y-14486857D01*
X13800714Y-14458286D01*
X13786428Y-14444000D01*
X13757857Y-14429714D01*
X13700714Y-14429714D01*
X13672143Y-14444000D01*
X13657857Y-14458286D01*
X13643571Y-14486857D01*
X13643571Y-14558286D01*
X13657857Y-14586857D01*
X13672143Y-14601143D01*
X13700714Y-14615428D01*
X13757857Y-14615428D01*
X13786428Y-14601143D01*
X13800714Y-14586857D01*
X13815000Y-14558286D01*
X13929286Y-14429714D02*
X13929286Y-14486857D01*
X14043571Y-14429714D02*
X14043571Y-14486857D01*
X14486428Y-14844000D02*
X14472143Y-14829714D01*
X14443571Y-14786857D01*
X14429286Y-14758286D01*
X14415000Y-14715428D01*
X14400714Y-14644000D01*
X14400714Y-14586857D01*
X14415000Y-14515428D01*
X14429286Y-14472571D01*
X14443571Y-14444000D01*
X14472143Y-14401143D01*
X14486428Y-14386857D01*
X14572143Y-14429714D02*
X14772143Y-14429714D01*
X14643571Y-14729714D01*
X14857857Y-14429714D02*
X15043571Y-14429714D01*
X14943571Y-14544000D01*
X14986428Y-14544000D01*
X15015000Y-14558286D01*
X15029286Y-14572571D01*
X15043571Y-14601143D01*
X15043571Y-14672571D01*
X15029286Y-14701143D01*
X15015000Y-14715428D01*
X14986428Y-14729714D01*
X14900714Y-14729714D01*
X14872143Y-14715428D01*
X14857857Y-14701143D01*
X15400714Y-14729714D02*
X15400714Y-14429714D01*
X15529286Y-14729714D02*
X15529286Y-14572571D01*
X15515000Y-14544000D01*
X15486428Y-14529714D01*
X15443571Y-14529714D01*
X15415000Y-14544000D01*
X15400714Y-14558286D01*
X15715000Y-14729714D02*
X15686428Y-14715428D01*
X15672143Y-14701143D01*
X15657857Y-14672571D01*
X15657857Y-14586857D01*
X15672143Y-14558286D01*
X15686428Y-14544000D01*
X15715000Y-14529714D01*
X15757857Y-14529714D01*
X15786428Y-14544000D01*
X15800714Y-14558286D01*
X15815000Y-14586857D01*
X15815000Y-14672571D01*
X15800714Y-14701143D01*
X15786428Y-14715428D01*
X15757857Y-14729714D01*
X15715000Y-14729714D01*
X15986428Y-14729714D02*
X15957857Y-14715428D01*
X15943571Y-14686857D01*
X15943571Y-14429714D01*
X16215000Y-14715428D02*
X16186428Y-14729714D01*
X16129286Y-14729714D01*
X16100714Y-14715428D01*
X16086428Y-14686857D01*
X16086428Y-14572571D01*
X16100714Y-14544000D01*
X16129286Y-14529714D01*
X16186428Y-14529714D01*
X16215000Y-14544000D01*
X16229286Y-14572571D01*
X16229286Y-14601143D01*
X16086428Y-14629714D01*
X16343571Y-14715428D02*
X16372143Y-14729714D01*
X16429286Y-14729714D01*
X16457857Y-14715428D01*
X16472143Y-14686857D01*
X16472143Y-14672571D01*
X16457857Y-14644000D01*
X16429286Y-14629714D01*
X16386428Y-14629714D01*
X16357857Y-14615428D01*
X16343571Y-14586857D01*
X16343571Y-14572571D01*
X16357857Y-14544000D01*
X16386428Y-14529714D01*
X16429286Y-14529714D01*
X16457857Y-14544000D01*
X16572143Y-14844000D02*
X16586428Y-14829714D01*
X16615000Y-14786857D01*
X16629286Y-14758286D01*
X16643571Y-14715428D01*
X16657857Y-14644000D01*
X16657857Y-14586857D01*
X16643571Y-14515428D01*
X16629286Y-14472571D01*
X16615000Y-14444000D01*
X16586428Y-14401143D01*
X16572143Y-14386857D01*
X9690000Y-14935000D02*
X9800000Y-15045000D01*
X9800000Y-14935000D02*
X9690000Y-15045000D01*
X9800000Y-14990000D02*
G75*
G03*
X9800000Y-14990000I-55000J0D01*
G01*
X10243571Y-15125714D02*
X10072143Y-15125714D01*
X10157857Y-15125714D02*
X10157857Y-14825714D01*
X10129286Y-14868571D01*
X10100714Y-14897143D01*
X10072143Y-14911428D01*
X10372143Y-15097143D02*
X10386429Y-15111428D01*
X10372143Y-15125714D01*
X10357857Y-15111428D01*
X10372143Y-15097143D01*
X10372143Y-15125714D01*
X10672143Y-15125714D02*
X10500714Y-15125714D01*
X10586429Y-15125714D02*
X10586429Y-14825714D01*
X10557857Y-14868571D01*
X10529286Y-14897143D01*
X10500714Y-14911428D01*
X10857857Y-14825714D02*
X10886429Y-14825714D01*
X10915000Y-14840000D01*
X10929286Y-14854286D01*
X10943571Y-14882857D01*
X10957857Y-14940000D01*
X10957857Y-15011428D01*
X10943571Y-15068571D01*
X10929286Y-15097143D01*
X10915000Y-15111428D01*
X10886429Y-15125714D01*
X10857857Y-15125714D01*
X10829286Y-15111428D01*
X10815000Y-15097143D01*
X10800714Y-15068571D01*
X10786429Y-15011428D01*
X10786429Y-14940000D01*
X10800714Y-14882857D01*
X10815000Y-14854286D01*
X10829286Y-14840000D01*
X10857857Y-14825714D01*
X11086429Y-15125714D02*
X11086429Y-14925714D01*
X11086429Y-14954286D02*
X11100714Y-14940000D01*
X11129286Y-14925714D01*
X11172143Y-14925714D01*
X11200714Y-14940000D01*
X11215000Y-14968571D01*
X11215000Y-15125714D01*
X11215000Y-14968571D02*
X11229286Y-14940000D01*
X11257857Y-14925714D01*
X11300714Y-14925714D01*
X11329286Y-14940000D01*
X11343571Y-14968571D01*
X11343571Y-15125714D01*
X11486428Y-15125714D02*
X11486428Y-14925714D01*
X11486428Y-14954286D02*
X11500714Y-14940000D01*
X11529286Y-14925714D01*
X11572143Y-14925714D01*
X11600714Y-14940000D01*
X11615000Y-14968571D01*
X11615000Y-15125714D01*
X11615000Y-14968571D02*
X11629286Y-14940000D01*
X11657857Y-14925714D01*
X11700714Y-14925714D01*
X11729286Y-14940000D01*
X11743571Y-14968571D01*
X11743571Y-15125714D01*
X12329286Y-14811428D02*
X12072143Y-15197143D01*
X12715000Y-14825714D02*
X12743571Y-14825714D01*
X12772143Y-14840000D01*
X12786428Y-14854286D01*
X12800714Y-14882857D01*
X12815000Y-14940000D01*
X12815000Y-15011428D01*
X12800714Y-15068571D01*
X12786428Y-15097143D01*
X12772143Y-15111428D01*
X12743571Y-15125714D01*
X12715000Y-15125714D01*
X12686428Y-15111428D01*
X12672143Y-15097143D01*
X12657857Y-15068571D01*
X12643571Y-15011428D01*
X12643571Y-14940000D01*
X12657857Y-14882857D01*
X12672143Y-14854286D01*
X12686428Y-14840000D01*
X12715000Y-14825714D01*
X12943571Y-15097143D02*
X12957857Y-15111428D01*
X12943571Y-15125714D01*
X12929286Y-15111428D01*
X12943571Y-15097143D01*
X12943571Y-15125714D01*
X13143571Y-14825714D02*
X13172143Y-14825714D01*
X13200714Y-14840000D01*
X13215000Y-14854286D01*
X13229286Y-14882857D01*
X13243571Y-14940000D01*
X13243571Y-15011428D01*
X13229286Y-15068571D01*
X13215000Y-15097143D01*
X13200714Y-15111428D01*
X13172143Y-15125714D01*
X13143571Y-15125714D01*
X13115000Y-15111428D01*
X13100714Y-15097143D01*
X13086428Y-15068571D01*
X13072143Y-15011428D01*
X13072143Y-14940000D01*
X13086428Y-14882857D01*
X13100714Y-14854286D01*
X13115000Y-14840000D01*
X13143571Y-14825714D01*
X13500714Y-14925714D02*
X13500714Y-15125714D01*
X13429286Y-14811428D02*
X13357857Y-15025714D01*
X13543571Y-15025714D01*
X13629286Y-14825714D02*
X13815000Y-14825714D01*
X13715000Y-14940000D01*
X13757857Y-14940000D01*
X13786428Y-14954286D01*
X13800714Y-14968571D01*
X13815000Y-14997143D01*
X13815000Y-15068571D01*
X13800714Y-15097143D01*
X13786428Y-15111428D01*
X13757857Y-15125714D01*
X13672143Y-15125714D01*
X13643571Y-15111428D01*
X13629286Y-15097143D01*
X13929286Y-14825714D02*
X13929286Y-14882857D01*
X14043571Y-14825714D02*
X14043571Y-14882857D01*
X14486428Y-15240000D02*
X14472143Y-15225714D01*
X14443571Y-15182857D01*
X14429286Y-15154286D01*
X14415000Y-15111428D01*
X14400714Y-15040000D01*
X14400714Y-14982857D01*
X14415000Y-14911428D01*
X14429286Y-14868571D01*
X14443571Y-14840000D01*
X14472143Y-14797143D01*
X14486428Y-14782857D01*
X14572143Y-14825714D02*
X14757857Y-14825714D01*
X14657857Y-14940000D01*
X14700714Y-14940000D01*
X14729286Y-14954286D01*
X14743571Y-14968571D01*
X14757857Y-14997143D01*
X14757857Y-15068571D01*
X14743571Y-15097143D01*
X14729286Y-15111428D01*
X14700714Y-15125714D01*
X14615000Y-15125714D01*
X14586428Y-15111428D01*
X14572143Y-15097143D01*
X15115000Y-15125714D02*
X15115000Y-14825714D01*
X15243571Y-15125714D02*
X15243571Y-14968571D01*
X15229286Y-14940000D01*
X15200714Y-14925714D01*
X15157857Y-14925714D01*
X15129286Y-14940000D01*
X15115000Y-14954286D01*
X15429286Y-15125714D02*
X15400714Y-15111428D01*
X15386428Y-15097143D01*
X15372143Y-15068571D01*
X15372143Y-14982857D01*
X15386428Y-14954286D01*
X15400714Y-14940000D01*
X15429286Y-14925714D01*
X15472143Y-14925714D01*
X15500714Y-14940000D01*
X15515000Y-14954286D01*
X15529286Y-14982857D01*
X15529286Y-15068571D01*
X15515000Y-15097143D01*
X15500714Y-15111428D01*
X15472143Y-15125714D01*
X15429286Y-15125714D01*
X15700714Y-15125714D02*
X15672143Y-15111428D01*
X15657857Y-15082857D01*
X15657857Y-14825714D01*
X15929286Y-15111428D02*
X15900714Y-15125714D01*
X15843571Y-15125714D01*
X15815000Y-15111428D01*
X15800714Y-15082857D01*
X15800714Y-14968571D01*
X15815000Y-14940000D01*
X15843571Y-14925714D01*
X15900714Y-14925714D01*
X15929286Y-14940000D01*
X15943571Y-14968571D01*
X15943571Y-14997143D01*
X15800714Y-15025714D01*
X16057857Y-15111428D02*
X16086428Y-15125714D01*
X16143571Y-15125714D01*
X16172143Y-15111428D01*
X16186428Y-15082857D01*
X16186428Y-15068571D01*
X16172143Y-15040000D01*
X16143571Y-15025714D01*
X16100714Y-15025714D01*
X16072143Y-15011428D01*
X16057857Y-14982857D01*
X16057857Y-14968571D01*
X16072143Y-14940000D01*
X16100714Y-14925714D01*
X16143571Y-14925714D01*
X16172143Y-14940000D01*
X16286428Y-15240000D02*
X16300714Y-15225714D01*
X16329286Y-15182857D01*
X16343571Y-15154286D01*
X16357857Y-15111428D01*
X16372143Y-15040000D01*
X16372143Y-14982857D01*
X16357857Y-14911428D01*
X16343571Y-14868571D01*
X16329286Y-14840000D01*
X16300714Y-14797143D01*
X16286428Y-14782857D01*
X9670000Y-15321000D02*
X9800000Y-15451000D01*
X9800000Y-15321000D02*
X9670000Y-15451000D01*
X9735000Y-15321000D02*
X9735000Y-15451000D01*
X9670000Y-15386000D02*
X9800000Y-15386000D01*
X10243571Y-15521714D02*
X10072143Y-15521714D01*
X10157857Y-15521714D02*
X10157857Y-15221714D01*
X10129286Y-15264571D01*
X10100714Y-15293143D01*
X10072143Y-15307428D01*
X10372143Y-15493143D02*
X10386429Y-15507428D01*
X10372143Y-15521714D01*
X10357857Y-15507428D01*
X10372143Y-15493143D01*
X10372143Y-15521714D01*
X10486429Y-15221714D02*
X10672143Y-15221714D01*
X10572143Y-15336000D01*
X10615000Y-15336000D01*
X10643571Y-15350286D01*
X10657857Y-15364571D01*
X10672143Y-15393143D01*
X10672143Y-15464571D01*
X10657857Y-15493143D01*
X10643571Y-15507428D01*
X10615000Y-15521714D01*
X10529286Y-15521714D01*
X10500714Y-15507428D01*
X10486429Y-15493143D01*
X10857857Y-15221714D02*
X10886429Y-15221714D01*
X10915000Y-15236000D01*
X10929286Y-15250286D01*
X10943571Y-15278857D01*
X10957857Y-15336000D01*
X10957857Y-15407428D01*
X10943571Y-15464571D01*
X10929286Y-15493143D01*
X10915000Y-15507428D01*
X10886429Y-15521714D01*
X10857857Y-15521714D01*
X10829286Y-15507428D01*
X10815000Y-15493143D01*
X10800714Y-15464571D01*
X10786429Y-15407428D01*
X10786429Y-15336000D01*
X10800714Y-15278857D01*
X10815000Y-15250286D01*
X10829286Y-15236000D01*
X10857857Y-15221714D01*
X11086429Y-15521714D02*
X11086429Y-15321714D01*
X11086429Y-15350286D02*
X11100714Y-15336000D01*
X11129286Y-15321714D01*
X11172143Y-15321714D01*
X11200714Y-15336000D01*
X11215000Y-15364571D01*
X11215000Y-15521714D01*
X11215000Y-15364571D02*
X11229286Y-15336000D01*
X11257857Y-15321714D01*
X11300714Y-15321714D01*
X11329286Y-15336000D01*
X11343571Y-15364571D01*
X11343571Y-15521714D01*
X11486428Y-15521714D02*
X11486428Y-15321714D01*
X11486428Y-15350286D02*
X11500714Y-15336000D01*
X11529286Y-15321714D01*
X11572143Y-15321714D01*
X11600714Y-15336000D01*
X11615000Y-15364571D01*
X11615000Y-15521714D01*
X11615000Y-15364571D02*
X11629286Y-15336000D01*
X11657857Y-15321714D01*
X11700714Y-15321714D01*
X11729286Y-15336000D01*
X11743571Y-15364571D01*
X11743571Y-15521714D01*
X12329286Y-15207428D02*
X12072143Y-15593143D01*
X12715000Y-15221714D02*
X12743571Y-15221714D01*
X12772143Y-15236000D01*
X12786428Y-15250286D01*
X12800714Y-15278857D01*
X12815000Y-15336000D01*
X12815000Y-15407428D01*
X12800714Y-15464571D01*
X12786428Y-15493143D01*
X12772143Y-15507428D01*
X12743571Y-15521714D01*
X12715000Y-15521714D01*
X12686428Y-15507428D01*
X12672143Y-15493143D01*
X12657857Y-15464571D01*
X12643571Y-15407428D01*
X12643571Y-15336000D01*
X12657857Y-15278857D01*
X12672143Y-15250286D01*
X12686428Y-15236000D01*
X12715000Y-15221714D01*
X12943571Y-15493143D02*
X12957857Y-15507428D01*
X12943571Y-15521714D01*
X12929286Y-15507428D01*
X12943571Y-15493143D01*
X12943571Y-15521714D01*
X13143571Y-15221714D02*
X13172143Y-15221714D01*
X13200714Y-15236000D01*
X13215000Y-15250286D01*
X13229286Y-15278857D01*
X13243571Y-15336000D01*
X13243571Y-15407428D01*
X13229286Y-15464571D01*
X13215000Y-15493143D01*
X13200714Y-15507428D01*
X13172143Y-15521714D01*
X13143571Y-15521714D01*
X13115000Y-15507428D01*
X13100714Y-15493143D01*
X13086428Y-15464571D01*
X13072143Y-15407428D01*
X13072143Y-15336000D01*
X13086428Y-15278857D01*
X13100714Y-15250286D01*
X13115000Y-15236000D01*
X13143571Y-15221714D01*
X13515000Y-15221714D02*
X13372143Y-15221714D01*
X13357857Y-15364571D01*
X13372143Y-15350286D01*
X13400714Y-15336000D01*
X13472143Y-15336000D01*
X13500714Y-15350286D01*
X13515000Y-15364571D01*
X13529286Y-15393143D01*
X13529286Y-15464571D01*
X13515000Y-15493143D01*
X13500714Y-15507428D01*
X13472143Y-15521714D01*
X13400714Y-15521714D01*
X13372143Y-15507428D01*
X13357857Y-15493143D01*
X13815000Y-15521714D02*
X13643571Y-15521714D01*
X13729286Y-15521714D02*
X13729286Y-15221714D01*
X13700714Y-15264571D01*
X13672143Y-15293143D01*
X13643571Y-15307428D01*
X13929286Y-15221714D02*
X13929286Y-15278857D01*
X14043571Y-15221714D02*
X14043571Y-15278857D01*
X14486428Y-15636000D02*
X14472143Y-15621714D01*
X14443571Y-15578857D01*
X14429286Y-15550286D01*
X14415000Y-15507428D01*
X14400714Y-15436000D01*
X14400714Y-15378857D01*
X14415000Y-15307428D01*
X14429286Y-15264571D01*
X14443571Y-15236000D01*
X14472143Y-15193143D01*
X14486428Y-15178857D01*
X14729286Y-15221714D02*
X14672143Y-15221714D01*
X14643571Y-15236000D01*
X14629286Y-15250286D01*
X14600714Y-15293143D01*
X14586428Y-15350286D01*
X14586428Y-15464571D01*
X14600714Y-15493143D01*
X14615000Y-15507428D01*
X14643571Y-15521714D01*
X14700714Y-15521714D01*
X14729286Y-15507428D01*
X14743571Y-15493143D01*
X14757857Y-15464571D01*
X14757857Y-15393143D01*
X14743571Y-15364571D01*
X14729286Y-15350286D01*
X14700714Y-15336000D01*
X14643571Y-15336000D01*
X14615000Y-15350286D01*
X14600714Y-15364571D01*
X14586428Y-15393143D01*
X15115000Y-15521714D02*
X15115000Y-15221714D01*
X15243571Y-15521714D02*
X15243571Y-15364571D01*
X15229286Y-15336000D01*
X15200714Y-15321714D01*
X15157857Y-15321714D01*
X15129286Y-15336000D01*
X15115000Y-15350286D01*
X15429286Y-15521714D02*
X15400714Y-15507428D01*
X15386428Y-15493143D01*
X15372143Y-15464571D01*
X15372143Y-15378857D01*
X15386428Y-15350286D01*
X15400714Y-15336000D01*
X15429286Y-15321714D01*
X15472143Y-15321714D01*
X15500714Y-15336000D01*
X15515000Y-15350286D01*
X15529286Y-15378857D01*
X15529286Y-15464571D01*
X15515000Y-15493143D01*
X15500714Y-15507428D01*
X15472143Y-15521714D01*
X15429286Y-15521714D01*
X15700714Y-15521714D02*
X15672143Y-15507428D01*
X15657857Y-15478857D01*
X15657857Y-15221714D01*
X15929286Y-15507428D02*
X15900714Y-15521714D01*
X15843571Y-15521714D01*
X15815000Y-15507428D01*
X15800714Y-15478857D01*
X15800714Y-15364571D01*
X15815000Y-15336000D01*
X15843571Y-15321714D01*
X15900714Y-15321714D01*
X15929286Y-15336000D01*
X15943571Y-15364571D01*
X15943571Y-15393143D01*
X15800714Y-15421714D01*
X16057857Y-15507428D02*
X16086428Y-15521714D01*
X16143571Y-15521714D01*
X16172143Y-15507428D01*
X16186428Y-15478857D01*
X16186428Y-15464571D01*
X16172143Y-15436000D01*
X16143571Y-15421714D01*
X16100714Y-15421714D01*
X16072143Y-15407428D01*
X16057857Y-15378857D01*
X16057857Y-15364571D01*
X16072143Y-15336000D01*
X16100714Y-15321714D01*
X16143571Y-15321714D01*
X16172143Y-15336000D01*
X16286428Y-15636000D02*
X16300714Y-15621714D01*
X16329286Y-15578857D01*
X16343571Y-15550286D01*
X16357857Y-15507428D01*
X16372143Y-15436000D01*
X16372143Y-15378857D01*
X16357857Y-15307428D01*
X16343571Y-15264571D01*
X16329286Y-15236000D01*
X16300714Y-15193143D01*
X16286428Y-15178857D01*
X9665000Y-15714500D02*
X9800000Y-15849500D01*
X9800000Y-15714500D02*
X9665000Y-15849500D01*
X9780230Y-15829730D02*
X9780230Y-15734270D01*
X9684770Y-15734270D01*
X9684770Y-15829730D01*
X9780230Y-15829730D01*
X10243571Y-15917714D02*
X10072143Y-15917714D01*
X10157857Y-15917714D02*
X10157857Y-15617714D01*
X10129286Y-15660571D01*
X10100714Y-15689143D01*
X10072143Y-15703428D01*
X10372143Y-15889143D02*
X10386429Y-15903428D01*
X10372143Y-15917714D01*
X10357857Y-15903428D01*
X10372143Y-15889143D01*
X10372143Y-15917714D01*
X10486429Y-15617714D02*
X10672143Y-15617714D01*
X10572143Y-15732000D01*
X10615000Y-15732000D01*
X10643571Y-15746286D01*
X10657857Y-15760571D01*
X10672143Y-15789143D01*
X10672143Y-15860571D01*
X10657857Y-15889143D01*
X10643571Y-15903428D01*
X10615000Y-15917714D01*
X10529286Y-15917714D01*
X10500714Y-15903428D01*
X10486429Y-15889143D01*
X10943571Y-15617714D02*
X10800714Y-15617714D01*
X10786429Y-15760571D01*
X10800714Y-15746286D01*
X10829286Y-15732000D01*
X10900714Y-15732000D01*
X10929286Y-15746286D01*
X10943571Y-15760571D01*
X10957857Y-15789143D01*
X10957857Y-15860571D01*
X10943571Y-15889143D01*
X10929286Y-15903428D01*
X10900714Y-15917714D01*
X10829286Y-15917714D01*
X10800714Y-15903428D01*
X10786429Y-15889143D01*
X11086429Y-15917714D02*
X11086429Y-15717714D01*
X11086429Y-15746286D02*
X11100714Y-15732000D01*
X11129286Y-15717714D01*
X11172143Y-15717714D01*
X11200714Y-15732000D01*
X11215000Y-15760571D01*
X11215000Y-15917714D01*
X11215000Y-15760571D02*
X11229286Y-15732000D01*
X11257857Y-15717714D01*
X11300714Y-15717714D01*
X11329286Y-15732000D01*
X11343571Y-15760571D01*
X11343571Y-15917714D01*
X11486428Y-15917714D02*
X11486428Y-15717714D01*
X11486428Y-15746286D02*
X11500714Y-15732000D01*
X11529286Y-15717714D01*
X11572143Y-15717714D01*
X11600714Y-15732000D01*
X11615000Y-15760571D01*
X11615000Y-15917714D01*
X11615000Y-15760571D02*
X11629286Y-15732000D01*
X11657857Y-15717714D01*
X11700714Y-15717714D01*
X11729286Y-15732000D01*
X11743571Y-15760571D01*
X11743571Y-15917714D01*
X12329286Y-15603428D02*
X12072143Y-15989143D01*
X12715000Y-15617714D02*
X12743571Y-15617714D01*
X12772143Y-15632000D01*
X12786428Y-15646286D01*
X12800714Y-15674857D01*
X12815000Y-15732000D01*
X12815000Y-15803428D01*
X12800714Y-15860571D01*
X12786428Y-15889143D01*
X12772143Y-15903428D01*
X12743571Y-15917714D01*
X12715000Y-15917714D01*
X12686428Y-15903428D01*
X12672143Y-15889143D01*
X12657857Y-15860571D01*
X12643571Y-15803428D01*
X12643571Y-15732000D01*
X12657857Y-15674857D01*
X12672143Y-15646286D01*
X12686428Y-15632000D01*
X12715000Y-15617714D01*
X12943571Y-15889143D02*
X12957857Y-15903428D01*
X12943571Y-15917714D01*
X12929286Y-15903428D01*
X12943571Y-15889143D01*
X12943571Y-15917714D01*
X13143571Y-15617714D02*
X13172143Y-15617714D01*
X13200714Y-15632000D01*
X13215000Y-15646286D01*
X13229286Y-15674857D01*
X13243571Y-15732000D01*
X13243571Y-15803428D01*
X13229286Y-15860571D01*
X13215000Y-15889143D01*
X13200714Y-15903428D01*
X13172143Y-15917714D01*
X13143571Y-15917714D01*
X13115000Y-15903428D01*
X13100714Y-15889143D01*
X13086428Y-15860571D01*
X13072143Y-15803428D01*
X13072143Y-15732000D01*
X13086428Y-15674857D01*
X13100714Y-15646286D01*
X13115000Y-15632000D01*
X13143571Y-15617714D01*
X13515000Y-15617714D02*
X13372143Y-15617714D01*
X13357857Y-15760571D01*
X13372143Y-15746286D01*
X13400714Y-15732000D01*
X13472143Y-15732000D01*
X13500714Y-15746286D01*
X13515000Y-15760571D01*
X13529286Y-15789143D01*
X13529286Y-15860571D01*
X13515000Y-15889143D01*
X13500714Y-15903428D01*
X13472143Y-15917714D01*
X13400714Y-15917714D01*
X13372143Y-15903428D01*
X13357857Y-15889143D01*
X13629286Y-15617714D02*
X13815000Y-15617714D01*
X13715000Y-15732000D01*
X13757857Y-15732000D01*
X13786428Y-15746286D01*
X13800714Y-15760571D01*
X13815000Y-15789143D01*
X13815000Y-15860571D01*
X13800714Y-15889143D01*
X13786428Y-15903428D01*
X13757857Y-15917714D01*
X13672143Y-15917714D01*
X13643571Y-15903428D01*
X13629286Y-15889143D01*
X13929286Y-15617714D02*
X13929286Y-15674857D01*
X14043571Y-15617714D02*
X14043571Y-15674857D01*
X14486428Y-16032000D02*
X14472143Y-16017714D01*
X14443571Y-15974857D01*
X14429286Y-15946286D01*
X14415000Y-15903428D01*
X14400714Y-15832000D01*
X14400714Y-15774857D01*
X14415000Y-15703428D01*
X14429286Y-15660571D01*
X14443571Y-15632000D01*
X14472143Y-15589143D01*
X14486428Y-15574857D01*
X14729286Y-15717714D02*
X14729286Y-15917714D01*
X14657857Y-15603428D02*
X14586428Y-15817714D01*
X14772143Y-15817714D01*
X15115000Y-15917714D02*
X15115000Y-15617714D01*
X15243571Y-15917714D02*
X15243571Y-15760571D01*
X15229286Y-15732000D01*
X15200714Y-15717714D01*
X15157857Y-15717714D01*
X15129286Y-15732000D01*
X15115000Y-15746286D01*
X15429286Y-15917714D02*
X15400714Y-15903428D01*
X15386428Y-15889143D01*
X15372143Y-15860571D01*
X15372143Y-15774857D01*
X15386428Y-15746286D01*
X15400714Y-15732000D01*
X15429286Y-15717714D01*
X15472143Y-15717714D01*
X15500714Y-15732000D01*
X15515000Y-15746286D01*
X15529286Y-15774857D01*
X15529286Y-15860571D01*
X15515000Y-15889143D01*
X15500714Y-15903428D01*
X15472143Y-15917714D01*
X15429286Y-15917714D01*
X15700714Y-15917714D02*
X15672143Y-15903428D01*
X15657857Y-15874857D01*
X15657857Y-15617714D01*
X15929286Y-15903428D02*
X15900714Y-15917714D01*
X15843571Y-15917714D01*
X15815000Y-15903428D01*
X15800714Y-15874857D01*
X15800714Y-15760571D01*
X15815000Y-15732000D01*
X15843571Y-15717714D01*
X15900714Y-15717714D01*
X15929286Y-15732000D01*
X15943571Y-15760571D01*
X15943571Y-15789143D01*
X15800714Y-15817714D01*
X16057857Y-15903428D02*
X16086428Y-15917714D01*
X16143571Y-15917714D01*
X16172143Y-15903428D01*
X16186428Y-15874857D01*
X16186428Y-15860571D01*
X16172143Y-15832000D01*
X16143571Y-15817714D01*
X16100714Y-15817714D01*
X16072143Y-15803428D01*
X16057857Y-15774857D01*
X16057857Y-15760571D01*
X16072143Y-15732000D01*
X16100714Y-15717714D01*
X16143571Y-15717714D01*
X16172143Y-15732000D01*
X16286428Y-16032000D02*
X16300714Y-16017714D01*
X16329286Y-15974857D01*
X16343571Y-15946286D01*
X16357857Y-15903428D01*
X16372143Y-15832000D01*
X16372143Y-15774857D01*
X16357857Y-15703428D01*
X16343571Y-15660571D01*
X16329286Y-15632000D01*
X16300714Y-15589143D01*
X16286428Y-15574857D01*
X9480000Y-16018000D02*
X9800000Y-16338000D01*
X9800000Y-16018000D02*
X9480000Y-16338000D01*
X9640000Y-16338000D02*
X9800000Y-16178000D01*
X9640000Y-16018000D01*
X9480000Y-16178000D01*
X9640000Y-16338000D01*
X10057857Y-16013714D02*
X10243571Y-16013714D01*
X10143571Y-16128000D01*
X10186429Y-16128000D01*
X10215000Y-16142286D01*
X10229286Y-16156571D01*
X10243571Y-16185143D01*
X10243571Y-16256571D01*
X10229286Y-16285143D01*
X10215000Y-16299428D01*
X10186429Y-16313714D01*
X10100714Y-16313714D01*
X10072143Y-16299428D01*
X10057857Y-16285143D01*
X10372143Y-16285143D02*
X10386429Y-16299428D01*
X10372143Y-16313714D01*
X10357857Y-16299428D01*
X10372143Y-16285143D01*
X10372143Y-16313714D01*
X10500714Y-16042286D02*
X10515000Y-16028000D01*
X10543571Y-16013714D01*
X10615000Y-16013714D01*
X10643571Y-16028000D01*
X10657857Y-16042286D01*
X10672143Y-16070857D01*
X10672143Y-16099428D01*
X10657857Y-16142286D01*
X10486429Y-16313714D01*
X10672143Y-16313714D01*
X10857857Y-16013714D02*
X10886429Y-16013714D01*
X10915000Y-16028000D01*
X10929286Y-16042286D01*
X10943571Y-16070857D01*
X10957857Y-16128000D01*
X10957857Y-16199428D01*
X10943571Y-16256571D01*
X10929286Y-16285143D01*
X10915000Y-16299428D01*
X10886429Y-16313714D01*
X10857857Y-16313714D01*
X10829286Y-16299428D01*
X10815000Y-16285143D01*
X10800714Y-16256571D01*
X10786429Y-16199428D01*
X10786429Y-16128000D01*
X10800714Y-16070857D01*
X10815000Y-16042286D01*
X10829286Y-16028000D01*
X10857857Y-16013714D01*
X11086429Y-16313714D02*
X11086429Y-16113714D01*
X11086429Y-16142286D02*
X11100714Y-16128000D01*
X11129286Y-16113714D01*
X11172143Y-16113714D01*
X11200714Y-16128000D01*
X11215000Y-16156571D01*
X11215000Y-16313714D01*
X11215000Y-16156571D02*
X11229286Y-16128000D01*
X11257857Y-16113714D01*
X11300714Y-16113714D01*
X11329286Y-16128000D01*
X11343571Y-16156571D01*
X11343571Y-16313714D01*
X11486428Y-16313714D02*
X11486428Y-16113714D01*
X11486428Y-16142286D02*
X11500714Y-16128000D01*
X11529286Y-16113714D01*
X11572143Y-16113714D01*
X11600714Y-16128000D01*
X11615000Y-16156571D01*
X11615000Y-16313714D01*
X11615000Y-16156571D02*
X11629286Y-16128000D01*
X11657857Y-16113714D01*
X11700714Y-16113714D01*
X11729286Y-16128000D01*
X11743571Y-16156571D01*
X11743571Y-16313714D01*
X12329286Y-15999428D02*
X12072143Y-16385143D01*
X12715000Y-16013714D02*
X12743571Y-16013714D01*
X12772143Y-16028000D01*
X12786428Y-16042286D01*
X12800714Y-16070857D01*
X12815000Y-16128000D01*
X12815000Y-16199428D01*
X12800714Y-16256571D01*
X12786428Y-16285143D01*
X12772143Y-16299428D01*
X12743571Y-16313714D01*
X12715000Y-16313714D01*
X12686428Y-16299428D01*
X12672143Y-16285143D01*
X12657857Y-16256571D01*
X12643571Y-16199428D01*
X12643571Y-16128000D01*
X12657857Y-16070857D01*
X12672143Y-16042286D01*
X12686428Y-16028000D01*
X12715000Y-16013714D01*
X12943571Y-16285143D02*
X12957857Y-16299428D01*
X12943571Y-16313714D01*
X12929286Y-16299428D01*
X12943571Y-16285143D01*
X12943571Y-16313714D01*
X13243571Y-16313714D02*
X13072143Y-16313714D01*
X13157857Y-16313714D02*
X13157857Y-16013714D01*
X13129286Y-16056571D01*
X13100714Y-16085143D01*
X13072143Y-16099428D01*
X13357857Y-16042286D02*
X13372143Y-16028000D01*
X13400714Y-16013714D01*
X13472143Y-16013714D01*
X13500714Y-16028000D01*
X13515000Y-16042286D01*
X13529286Y-16070857D01*
X13529286Y-16099428D01*
X13515000Y-16142286D01*
X13343571Y-16313714D01*
X13529286Y-16313714D01*
X13786428Y-16013714D02*
X13729286Y-16013714D01*
X13700714Y-16028000D01*
X13686428Y-16042286D01*
X13657857Y-16085143D01*
X13643571Y-16142286D01*
X13643571Y-16256571D01*
X13657857Y-16285143D01*
X13672143Y-16299428D01*
X13700714Y-16313714D01*
X13757857Y-16313714D01*
X13786428Y-16299428D01*
X13800714Y-16285143D01*
X13815000Y-16256571D01*
X13815000Y-16185143D01*
X13800714Y-16156571D01*
X13786428Y-16142286D01*
X13757857Y-16128000D01*
X13700714Y-16128000D01*
X13672143Y-16142286D01*
X13657857Y-16156571D01*
X13643571Y-16185143D01*
X13929286Y-16013714D02*
X13929286Y-16070857D01*
X14043571Y-16013714D02*
X14043571Y-16070857D01*
X14486428Y-16428000D02*
X14472143Y-16413714D01*
X14443571Y-16370857D01*
X14429286Y-16342286D01*
X14415000Y-16299428D01*
X14400714Y-16228000D01*
X14400714Y-16170857D01*
X14415000Y-16099428D01*
X14429286Y-16056571D01*
X14443571Y-16028000D01*
X14472143Y-15985143D01*
X14486428Y-15970857D01*
X14729286Y-16113714D02*
X14729286Y-16313714D01*
X14657857Y-15999428D02*
X14586428Y-16213714D01*
X14772143Y-16213714D01*
X15115000Y-16313714D02*
X15115000Y-16013714D01*
X15243571Y-16313714D02*
X15243571Y-16156571D01*
X15229286Y-16128000D01*
X15200714Y-16113714D01*
X15157857Y-16113714D01*
X15129286Y-16128000D01*
X15115000Y-16142286D01*
X15429286Y-16313714D02*
X15400714Y-16299428D01*
X15386428Y-16285143D01*
X15372143Y-16256571D01*
X15372143Y-16170857D01*
X15386428Y-16142286D01*
X15400714Y-16128000D01*
X15429286Y-16113714D01*
X15472143Y-16113714D01*
X15500714Y-16128000D01*
X15515000Y-16142286D01*
X15529286Y-16170857D01*
X15529286Y-16256571D01*
X15515000Y-16285143D01*
X15500714Y-16299428D01*
X15472143Y-16313714D01*
X15429286Y-16313714D01*
X15700714Y-16313714D02*
X15672143Y-16299428D01*
X15657857Y-16270857D01*
X15657857Y-16013714D01*
X15929286Y-16299428D02*
X15900714Y-16313714D01*
X15843571Y-16313714D01*
X15815000Y-16299428D01*
X15800714Y-16270857D01*
X15800714Y-16156571D01*
X15815000Y-16128000D01*
X15843571Y-16113714D01*
X15900714Y-16113714D01*
X15929286Y-16128000D01*
X15943571Y-16156571D01*
X15943571Y-16185143D01*
X15800714Y-16213714D01*
X16057857Y-16299428D02*
X16086428Y-16313714D01*
X16143571Y-16313714D01*
X16172143Y-16299428D01*
X16186428Y-16270857D01*
X16186428Y-16256571D01*
X16172143Y-16228000D01*
X16143571Y-16213714D01*
X16100714Y-16213714D01*
X16072143Y-16199428D01*
X16057857Y-16170857D01*
X16057857Y-16156571D01*
X16072143Y-16128000D01*
X16100714Y-16113714D01*
X16143571Y-16113714D01*
X16172143Y-16128000D01*
X16286428Y-16428000D02*
X16300714Y-16413714D01*
X16329286Y-16370857D01*
X16343571Y-16342286D01*
X16357857Y-16299428D01*
X16372143Y-16228000D01*
X16372143Y-16170857D01*
X16357857Y-16099428D01*
X16343571Y-16056571D01*
X16329286Y-16028000D01*
X16300714Y-15985143D01*
X16286428Y-15970857D01*
M02*
