G04 #@! TF.GenerationSoftware,KiCad,Pcbnew,(5.1.6)-1*
G04 #@! TF.CreationDate,2020-09-17T22:28:53+02:00*
G04 #@! TF.ProjectId,arduino_nano_reflow_TRIAC_v1_0,61726475-696e-46f5-9f6e-616e6f5f7265,1.0*
G04 #@! TF.SameCoordinates,Original*
G04 #@! TF.FileFunction,Soldermask,Top*
G04 #@! TF.FilePolarity,Negative*
%FSLAX46Y46*%
G04 Gerber Fmt 4.6, Leading zero omitted, Abs format (unit mm)*
G04 Created by KiCad (PCBNEW (5.1.6)-1) date 2020-09-17 22:28:53*
%MOMM*%
%LPD*%
G01*
G04 APERTURE LIST*
%ADD10C,3.000000*%
%ADD11R,3.000000X3.000000*%
%ADD12O,2.000000X2.000000*%
%ADD13R,2.000000X2.000000*%
%ADD14O,2.200000X2.200000*%
%ADD15R,2.200000X2.200000*%
%ADD16C,2.000000*%
%ADD17O,2.400000X2.305000*%
%ADD18R,2.400000X2.305000*%
%ADD19C,6.800000*%
%ADD20O,2.305000X2.400000*%
%ADD21R,2.305000X2.400000*%
%ADD22C,2.400000*%
%ADD23R,2.400000X2.400000*%
%ADD24O,2.100000X2.100000*%
%ADD25R,2.100000X2.100000*%
%ADD26C,2.750000*%
G04 APERTURE END LIST*
D10*
X178618820Y-63199260D03*
D11*
X183618820Y-63199260D03*
D12*
X183428820Y-86459260D03*
X183428820Y-101699260D03*
X147868820Y-86459260D03*
X180888820Y-101699260D03*
X150408820Y-86459260D03*
X178348820Y-101699260D03*
X152948820Y-86459260D03*
X175808820Y-101699260D03*
X155488820Y-86459260D03*
X173268820Y-101699260D03*
X158028820Y-86459260D03*
X170728820Y-101699260D03*
X160568820Y-86459260D03*
X168188820Y-101699260D03*
X163108820Y-86459260D03*
X165648820Y-101699260D03*
X165648820Y-86459260D03*
X163108820Y-101699260D03*
X168188820Y-86459260D03*
X160568820Y-101699260D03*
X170728820Y-86459260D03*
X158028820Y-101699260D03*
X173268820Y-86459260D03*
X155488820Y-101699260D03*
X175808820Y-86459260D03*
X152948820Y-101699260D03*
X178348820Y-86459260D03*
X150408820Y-101699260D03*
X180888820Y-86459260D03*
D13*
X147868820Y-101699260D03*
D14*
X180298820Y-71799260D03*
D15*
X175218820Y-71799260D03*
D16*
X124985000Y-88925000D03*
X124985000Y-83925000D03*
D12*
X132538820Y-92749260D03*
D16*
X124918820Y-92749260D03*
D12*
X124985000Y-104245000D03*
D16*
X124985000Y-96625000D03*
D12*
X134998820Y-91545000D03*
X142618820Y-86465000D03*
X134998820Y-89005000D03*
X142618820Y-89005000D03*
X134998820Y-86465000D03*
D13*
X142618820Y-91545000D03*
D12*
X142638820Y-96649260D03*
X135018820Y-101729260D03*
X142638820Y-99189260D03*
X135018820Y-99189260D03*
X142638820Y-101729260D03*
D13*
X135018820Y-96649260D03*
D17*
X114823820Y-95339260D03*
X114823820Y-92799260D03*
D18*
X114823820Y-90259260D03*
G36*
G01*
X156243820Y-106030510D02*
X156243820Y-105318010D01*
G75*
G02*
X156562570Y-104999260I318750J0D01*
G01*
X157200070Y-104999260D01*
G75*
G02*
X157518820Y-105318010I0J-318750D01*
G01*
X157518820Y-106030510D01*
G75*
G02*
X157200070Y-106349260I-318750J0D01*
G01*
X156562570Y-106349260D01*
G75*
G02*
X156243820Y-106030510I0J318750D01*
G01*
G37*
G36*
G01*
X154668820Y-106030510D02*
X154668820Y-105318010D01*
G75*
G02*
X154987570Y-104999260I318750J0D01*
G01*
X155625070Y-104999260D01*
G75*
G02*
X155943820Y-105318010I0J-318750D01*
G01*
X155943820Y-106030510D01*
G75*
G02*
X155625070Y-106349260I-318750J0D01*
G01*
X154987570Y-106349260D01*
G75*
G02*
X154668820Y-106030510I0J318750D01*
G01*
G37*
D19*
X196493140Y-72990980D03*
X136493140Y-72990980D03*
X136493140Y-112990980D03*
X196493140Y-112990980D03*
D20*
X189698820Y-73599260D03*
X187158820Y-73599260D03*
D21*
X184618820Y-73599260D03*
D12*
X128160000Y-96625000D03*
D16*
X128160000Y-104245000D03*
D12*
X131335000Y-99165000D03*
D16*
X131335000Y-106785000D03*
D22*
X157370000Y-73150000D03*
D23*
X157370000Y-80750000D03*
G36*
G01*
X183268820Y-83630510D02*
X183268820Y-82518010D01*
G75*
G02*
X183612570Y-82174260I343750J0D01*
G01*
X184300070Y-82174260D01*
G75*
G02*
X184643820Y-82518010I0J-343750D01*
G01*
X184643820Y-83630510D01*
G75*
G02*
X184300070Y-83974260I-343750J0D01*
G01*
X183612570Y-83974260D01*
G75*
G02*
X183268820Y-83630510I0J343750D01*
G01*
G37*
G36*
G01*
X181393820Y-83630510D02*
X181393820Y-82518010D01*
G75*
G02*
X181737570Y-82174260I343750J0D01*
G01*
X182425070Y-82174260D01*
G75*
G02*
X182768820Y-82518010I0J-343750D01*
G01*
X182768820Y-83630510D01*
G75*
G02*
X182425070Y-83974260I-343750J0D01*
G01*
X181737570Y-83974260D01*
G75*
G02*
X181393820Y-83630510I0J343750D01*
G01*
G37*
G36*
G01*
X176213820Y-76724260D02*
X173823820Y-76724260D01*
G75*
G02*
X173493820Y-76394260I0J330000D01*
G01*
X173493820Y-75404260D01*
G75*
G02*
X173823820Y-75074260I330000J0D01*
G01*
X176213820Y-75074260D01*
G75*
G02*
X176543820Y-75404260I0J-330000D01*
G01*
X176543820Y-76394260D01*
G75*
G02*
X176213820Y-76724260I-330000J0D01*
G01*
G37*
G36*
G01*
X176213820Y-79524260D02*
X173823820Y-79524260D01*
G75*
G02*
X173493820Y-79194260I0J330000D01*
G01*
X173493820Y-78204260D01*
G75*
G02*
X173823820Y-77874260I330000J0D01*
G01*
X176213820Y-77874260D01*
G75*
G02*
X176543820Y-78204260I0J-330000D01*
G01*
X176543820Y-79194260D01*
G75*
G02*
X176213820Y-79524260I-330000J0D01*
G01*
G37*
G36*
G01*
X182243820Y-76004260D02*
X182243820Y-78394260D01*
G75*
G02*
X181913820Y-78724260I-330000J0D01*
G01*
X180923820Y-78724260D01*
G75*
G02*
X180593820Y-78394260I0J330000D01*
G01*
X180593820Y-76004260D01*
G75*
G02*
X180923820Y-75674260I330000J0D01*
G01*
X181913820Y-75674260D01*
G75*
G02*
X182243820Y-76004260I0J-330000D01*
G01*
G37*
G36*
G01*
X185043820Y-76004260D02*
X185043820Y-78394260D01*
G75*
G02*
X184713820Y-78724260I-330000J0D01*
G01*
X183723820Y-78724260D01*
G75*
G02*
X183393820Y-78394260I0J330000D01*
G01*
X183393820Y-76004260D01*
G75*
G02*
X183723820Y-75674260I330000J0D01*
G01*
X184713820Y-75674260D01*
G75*
G02*
X185043820Y-76004260I0J-330000D01*
G01*
G37*
D24*
X191025000Y-108690000D03*
X188485000Y-108690000D03*
X185945000Y-108690000D03*
X183405000Y-108690000D03*
D25*
X180865000Y-108690000D03*
D24*
X149115000Y-115040000D03*
X151655000Y-115040000D03*
X154195000Y-115040000D03*
X156735000Y-115040000D03*
X159275000Y-115040000D03*
X161815000Y-115040000D03*
X164355000Y-115040000D03*
X166895000Y-115040000D03*
X169435000Y-115040000D03*
X171975000Y-115040000D03*
X174515000Y-115040000D03*
X177055000Y-115040000D03*
X179595000Y-115040000D03*
X182135000Y-115040000D03*
X184675000Y-115040000D03*
X187215000Y-115040000D03*
D25*
X189755000Y-115040000D03*
D10*
X110993820Y-114824260D03*
D11*
X110993820Y-109824260D03*
D10*
X111093820Y-76174260D03*
D11*
X111093820Y-71174260D03*
D10*
X145718820Y-63199260D03*
D11*
X150718820Y-63199260D03*
D25*
X147845000Y-81385000D03*
D24*
X147845000Y-78845000D03*
D25*
X145305000Y-112500000D03*
D24*
X145305000Y-109960000D03*
X145305000Y-107420000D03*
D26*
X104663820Y-97639260D03*
X104663820Y-102639260D03*
X104663820Y-87639260D03*
X104663820Y-82639260D03*
M02*
