G04 #@! TF.GenerationSoftware,KiCad,Pcbnew,(5.1.8-0-10_14)*
G04 #@! TF.CreationDate,2021-01-11T22:35:15+01:00*
G04 #@! TF.ProjectId,arduino_nano_reflow_TRIAC_v1_0,61726475-696e-46f5-9f6e-616e6f5f7265,1.0*
G04 #@! TF.SameCoordinates,Original*
G04 #@! TF.FileFunction,Legend,Top*
G04 #@! TF.FilePolarity,Positive*
%FSLAX46Y46*%
G04 Gerber Fmt 4.6, Leading zero omitted, Abs format (unit mm)*
G04 Created by KiCad (PCBNEW (5.1.8-0-10_14)) date 2021-01-11 22:35:15*
%MOMM*%
%LPD*%
G01*
G04 APERTURE LIST*
%ADD10C,0.200000*%
%ADD11C,0.150000*%
%ADD12C,0.300000*%
%ADD13C,0.120000*%
%ADD14C,0.191466*%
G04 APERTURE END LIST*
D10*
X182434296Y-116055450D02*
X181184296Y-116055450D01*
X182077153Y-115638783D01*
X181184296Y-115222117D01*
X182434296Y-115222117D01*
X182434296Y-114626879D02*
X181184296Y-114626879D01*
X182374772Y-114091164D02*
X182434296Y-113912593D01*
X182434296Y-113614974D01*
X182374772Y-113495926D01*
X182315248Y-113436402D01*
X182196200Y-113376879D01*
X182077153Y-113376879D01*
X181958105Y-113436402D01*
X181898581Y-113495926D01*
X181839058Y-113614974D01*
X181779534Y-113853069D01*
X181720010Y-113972117D01*
X181660486Y-114031640D01*
X181541439Y-114091164D01*
X181422391Y-114091164D01*
X181303343Y-114031640D01*
X181243820Y-113972117D01*
X181184296Y-113853069D01*
X181184296Y-113555450D01*
X181243820Y-113376879D01*
X181184296Y-112603069D02*
X181184296Y-112364974D01*
X181243820Y-112245926D01*
X181362867Y-112126879D01*
X181600962Y-112067355D01*
X182017629Y-112067355D01*
X182255724Y-112126879D01*
X182374772Y-112245926D01*
X182434296Y-112364974D01*
X182434296Y-112603069D01*
X182374772Y-112722117D01*
X182255724Y-112841164D01*
X182017629Y-112900688D01*
X181600962Y-112900688D01*
X181362867Y-112841164D01*
X181243820Y-112722117D01*
X181184296Y-112603069D01*
X183259296Y-117305450D02*
X183259296Y-116591164D01*
X184509296Y-116948307D02*
X183259296Y-116948307D01*
X184390248Y-115460212D02*
X184449772Y-115519736D01*
X184509296Y-115698307D01*
X184509296Y-115817355D01*
X184449772Y-115995926D01*
X184330724Y-116114974D01*
X184211677Y-116174498D01*
X183973581Y-116234021D01*
X183795010Y-116234021D01*
X183556915Y-116174498D01*
X183437867Y-116114974D01*
X183318820Y-115995926D01*
X183259296Y-115817355D01*
X183259296Y-115698307D01*
X183318820Y-115519736D01*
X183378343Y-115460212D01*
X184628343Y-115222117D02*
X184628343Y-114269736D01*
X184390248Y-113257831D02*
X184449772Y-113317355D01*
X184509296Y-113495926D01*
X184509296Y-113614974D01*
X184449772Y-113793545D01*
X184330724Y-113912593D01*
X184211677Y-113972117D01*
X183973581Y-114031640D01*
X183795010Y-114031640D01*
X183556915Y-113972117D01*
X183437867Y-113912593D01*
X183318820Y-113793545D01*
X183259296Y-113614974D01*
X183259296Y-113495926D01*
X183318820Y-113317355D01*
X183378343Y-113257831D01*
X184449772Y-112781640D02*
X184509296Y-112603069D01*
X184509296Y-112305450D01*
X184449772Y-112186402D01*
X184390248Y-112126879D01*
X184271200Y-112067355D01*
X184152153Y-112067355D01*
X184033105Y-112126879D01*
X183973581Y-112186402D01*
X183914058Y-112305450D01*
X183854534Y-112543545D01*
X183795010Y-112662593D01*
X183735486Y-112722117D01*
X183616439Y-112781640D01*
X183497391Y-112781640D01*
X183378343Y-112722117D01*
X183318820Y-112662593D01*
X183259296Y-112543545D01*
X183259296Y-112245926D01*
X183318820Y-112067355D01*
X186524772Y-115281640D02*
X186584296Y-115103069D01*
X186584296Y-114805450D01*
X186524772Y-114686402D01*
X186465248Y-114626879D01*
X186346200Y-114567355D01*
X186227153Y-114567355D01*
X186108105Y-114626879D01*
X186048581Y-114686402D01*
X185989058Y-114805450D01*
X185929534Y-115043545D01*
X185870010Y-115162593D01*
X185810486Y-115222117D01*
X185691439Y-115281640D01*
X185572391Y-115281640D01*
X185453343Y-115222117D01*
X185393820Y-115162593D01*
X185334296Y-115043545D01*
X185334296Y-114745926D01*
X185393820Y-114567355D01*
X186465248Y-113317355D02*
X186524772Y-113376879D01*
X186584296Y-113555450D01*
X186584296Y-113674498D01*
X186524772Y-113853069D01*
X186405724Y-113972117D01*
X186286677Y-114031640D01*
X186048581Y-114091164D01*
X185870010Y-114091164D01*
X185631915Y-114031640D01*
X185512867Y-113972117D01*
X185393820Y-113853069D01*
X185334296Y-113674498D01*
X185334296Y-113555450D01*
X185393820Y-113376879D01*
X185453343Y-113317355D01*
X186584296Y-112781640D02*
X185334296Y-112781640D01*
X186584296Y-112067355D02*
X185870010Y-112603069D01*
X185334296Y-112067355D02*
X186048581Y-112781640D01*
X187409296Y-113198307D02*
X187409296Y-113793545D01*
X188004534Y-113853069D01*
X187945010Y-113793545D01*
X187885486Y-113674498D01*
X187885486Y-113376879D01*
X187945010Y-113257831D01*
X188004534Y-113198307D01*
X188123581Y-113138783D01*
X188421200Y-113138783D01*
X188540248Y-113198307D01*
X188599772Y-113257831D01*
X188659296Y-113376879D01*
X188659296Y-113674498D01*
X188599772Y-113793545D01*
X188540248Y-113853069D01*
X187409296Y-112781640D02*
X188659296Y-112364974D01*
X187409296Y-111948307D01*
X189543820Y-114686402D02*
X189484296Y-114805450D01*
X189484296Y-114984021D01*
X189543820Y-115162593D01*
X189662867Y-115281640D01*
X189781915Y-115341164D01*
X190020010Y-115400688D01*
X190198581Y-115400688D01*
X190436677Y-115341164D01*
X190555724Y-115281640D01*
X190674772Y-115162593D01*
X190734296Y-114984021D01*
X190734296Y-114864974D01*
X190674772Y-114686402D01*
X190615248Y-114626879D01*
X190198581Y-114626879D01*
X190198581Y-114864974D01*
X190734296Y-114091164D02*
X189484296Y-114091164D01*
X190734296Y-113376879D01*
X189484296Y-113376879D01*
X190734296Y-112781640D02*
X189484296Y-112781640D01*
X189484296Y-112484021D01*
X189543820Y-112305450D01*
X189662867Y-112186402D01*
X189781915Y-112126879D01*
X190020010Y-112067355D01*
X190198581Y-112067355D01*
X190436677Y-112126879D01*
X190555724Y-112186402D01*
X190674772Y-112305450D01*
X190734296Y-112484021D01*
X190734296Y-112781640D01*
D11*
X199471200Y-69037355D02*
X198471200Y-69037355D01*
X199471200Y-68465926D02*
X198899772Y-68894498D01*
X198471200Y-68465926D02*
X199042629Y-69037355D01*
X199090248Y-68037355D02*
X199090248Y-67275450D01*
X198471200Y-66942117D02*
X198471200Y-66370688D01*
X199471200Y-66656402D02*
X198471200Y-66656402D01*
X199471200Y-66037355D02*
X198471200Y-66037355D01*
X199471200Y-65608783D02*
X198947391Y-65608783D01*
X198852153Y-65656402D01*
X198804534Y-65751640D01*
X198804534Y-65894498D01*
X198852153Y-65989736D01*
X198899772Y-66037355D01*
X199423581Y-64751640D02*
X199471200Y-64846879D01*
X199471200Y-65037355D01*
X199423581Y-65132593D01*
X199328343Y-65180212D01*
X198947391Y-65180212D01*
X198852153Y-65132593D01*
X198804534Y-65037355D01*
X198804534Y-64846879D01*
X198852153Y-64751640D01*
X198947391Y-64704021D01*
X199042629Y-64704021D01*
X199137867Y-65180212D01*
X199471200Y-64275450D02*
X198804534Y-64275450D01*
X198995010Y-64275450D02*
X198899772Y-64227831D01*
X198852153Y-64180212D01*
X198804534Y-64084974D01*
X198804534Y-63989736D01*
X199471200Y-63656402D02*
X198804534Y-63656402D01*
X198899772Y-63656402D02*
X198852153Y-63608783D01*
X198804534Y-63513545D01*
X198804534Y-63370688D01*
X198852153Y-63275450D01*
X198947391Y-63227831D01*
X199471200Y-63227831D01*
X198947391Y-63227831D02*
X198852153Y-63180212D01*
X198804534Y-63084974D01*
X198804534Y-62942117D01*
X198852153Y-62846879D01*
X198947391Y-62799260D01*
X199471200Y-62799260D01*
X199471200Y-62180212D02*
X199423581Y-62275450D01*
X199375962Y-62323069D01*
X199280724Y-62370688D01*
X198995010Y-62370688D01*
X198899772Y-62323069D01*
X198852153Y-62275450D01*
X198804534Y-62180212D01*
X198804534Y-62037355D01*
X198852153Y-61942117D01*
X198899772Y-61894498D01*
X198995010Y-61846879D01*
X199280724Y-61846879D01*
X199375962Y-61894498D01*
X199423581Y-61942117D01*
X199471200Y-62037355D01*
X199471200Y-62180212D01*
X199852153Y-60370688D02*
X199804534Y-60418307D01*
X199661677Y-60513545D01*
X199566439Y-60561164D01*
X199423581Y-60608783D01*
X199185486Y-60656402D01*
X198995010Y-60656402D01*
X198756915Y-60608783D01*
X198614058Y-60561164D01*
X198518820Y-60513545D01*
X198375962Y-60418307D01*
X198328343Y-60370688D01*
X199090248Y-59989736D02*
X199090248Y-59227831D01*
X199471200Y-59608783D02*
X198709296Y-59608783D01*
X199852153Y-58846879D02*
X199804534Y-58799260D01*
X199661677Y-58704021D01*
X199566439Y-58656402D01*
X199423581Y-58608783D01*
X199185486Y-58561164D01*
X198995010Y-58561164D01*
X198756915Y-58608783D01*
X198614058Y-58656402D01*
X198518820Y-58704021D01*
X198375962Y-58799260D01*
X198328343Y-58846879D01*
D10*
X149077153Y-111074736D02*
X149791439Y-111074736D01*
X149434296Y-112324736D02*
X149434296Y-111074736D01*
X150208105Y-112324736D02*
X150208105Y-111074736D01*
X150624772Y-111967593D01*
X151041439Y-111074736D01*
X151041439Y-112324736D01*
X152291439Y-112324736D02*
X151577153Y-112324736D01*
X151934296Y-112324736D02*
X151934296Y-111074736D01*
X151815248Y-111253307D01*
X151696200Y-111372355D01*
X151577153Y-111431879D01*
X153362867Y-111074736D02*
X153124772Y-111074736D01*
X153005724Y-111134260D01*
X152946200Y-111193783D01*
X152827153Y-111372355D01*
X152767629Y-111610450D01*
X152767629Y-112086640D01*
X152827153Y-112205688D01*
X152886677Y-112265212D01*
X153005724Y-112324736D01*
X153243820Y-112324736D01*
X153362867Y-112265212D01*
X153422391Y-112205688D01*
X153481915Y-112086640D01*
X153481915Y-111789021D01*
X153422391Y-111669974D01*
X153362867Y-111610450D01*
X153243820Y-111550926D01*
X153005724Y-111550926D01*
X152886677Y-111610450D01*
X152827153Y-111669974D01*
X152767629Y-111789021D01*
X153898581Y-111074736D02*
X154672391Y-111074736D01*
X154255724Y-111550926D01*
X154434296Y-111550926D01*
X154553343Y-111610450D01*
X154612867Y-111669974D01*
X154672391Y-111789021D01*
X154672391Y-112086640D01*
X154612867Y-112205688D01*
X154553343Y-112265212D01*
X154434296Y-112324736D01*
X154077153Y-112324736D01*
X153958105Y-112265212D01*
X153898581Y-112205688D01*
X155089058Y-111074736D02*
X155922391Y-111074736D01*
X155386677Y-112324736D01*
X157350962Y-112324736D02*
X157350962Y-111074736D01*
X157648581Y-111074736D01*
X157827153Y-111134260D01*
X157946200Y-111253307D01*
X158005724Y-111372355D01*
X158065248Y-111610450D01*
X158065248Y-111789021D01*
X158005724Y-112027117D01*
X157946200Y-112146164D01*
X157827153Y-112265212D01*
X157648581Y-112324736D01*
X157350962Y-112324736D01*
X158600962Y-112324736D02*
X158600962Y-111491402D01*
X158600962Y-111074736D02*
X158541439Y-111134260D01*
X158600962Y-111193783D01*
X158660486Y-111134260D01*
X158600962Y-111074736D01*
X158600962Y-111193783D01*
X159136677Y-112265212D02*
X159255724Y-112324736D01*
X159493820Y-112324736D01*
X159612867Y-112265212D01*
X159672391Y-112146164D01*
X159672391Y-112086640D01*
X159612867Y-111967593D01*
X159493820Y-111908069D01*
X159315248Y-111908069D01*
X159196200Y-111848545D01*
X159136677Y-111729498D01*
X159136677Y-111669974D01*
X159196200Y-111550926D01*
X159315248Y-111491402D01*
X159493820Y-111491402D01*
X159612867Y-111550926D01*
X160208105Y-111491402D02*
X160208105Y-112741402D01*
X160208105Y-111550926D02*
X160327153Y-111491402D01*
X160565248Y-111491402D01*
X160684296Y-111550926D01*
X160743820Y-111610450D01*
X160803343Y-111729498D01*
X160803343Y-112086640D01*
X160743820Y-112205688D01*
X160684296Y-112265212D01*
X160565248Y-112324736D01*
X160327153Y-112324736D01*
X160208105Y-112265212D01*
X161517629Y-112324736D02*
X161398581Y-112265212D01*
X161339058Y-112146164D01*
X161339058Y-111074736D01*
X162529534Y-112324736D02*
X162529534Y-111669974D01*
X162470010Y-111550926D01*
X162350962Y-111491402D01*
X162112867Y-111491402D01*
X161993820Y-111550926D01*
X162529534Y-112265212D02*
X162410486Y-112324736D01*
X162112867Y-112324736D01*
X161993820Y-112265212D01*
X161934296Y-112146164D01*
X161934296Y-112027117D01*
X161993820Y-111908069D01*
X162112867Y-111848545D01*
X162410486Y-111848545D01*
X162529534Y-111789021D01*
X163005724Y-111491402D02*
X163303343Y-112324736D01*
X163600962Y-111491402D02*
X163303343Y-112324736D01*
X163184296Y-112622355D01*
X163124772Y-112681879D01*
X163005724Y-112741402D01*
D11*
X135961200Y-63591640D02*
X135389772Y-63591640D01*
X135675486Y-63591640D02*
X135675486Y-62591640D01*
X135580248Y-62734498D01*
X135485010Y-62829736D01*
X135389772Y-62877355D01*
X136342153Y-62686879D02*
X136389772Y-62639260D01*
X136485010Y-62591640D01*
X136723105Y-62591640D01*
X136818343Y-62639260D01*
X136865962Y-62686879D01*
X136913581Y-62782117D01*
X136913581Y-62877355D01*
X136865962Y-63020212D01*
X136294534Y-63591640D01*
X136913581Y-63591640D01*
X137199296Y-62591640D02*
X137532629Y-63591640D01*
X137865962Y-62591640D01*
X138961200Y-63591640D02*
X138961200Y-62591640D01*
X139437391Y-63591640D02*
X139437391Y-62591640D01*
X140008820Y-63591640D01*
X140008820Y-62591640D01*
X140770724Y-63972593D02*
X140723105Y-63924974D01*
X140627867Y-63782117D01*
X140580248Y-63686879D01*
X140532629Y-63544021D01*
X140485010Y-63305926D01*
X140485010Y-63115450D01*
X140532629Y-62877355D01*
X140580248Y-62734498D01*
X140627867Y-62639260D01*
X140723105Y-62496402D01*
X140770724Y-62448783D01*
X141151677Y-63210688D02*
X141913581Y-63210688D01*
X141532629Y-63591640D02*
X141532629Y-62829736D01*
X142294534Y-63972593D02*
X142342153Y-63924974D01*
X142437391Y-63782117D01*
X142485010Y-63686879D01*
X142532629Y-63544021D01*
X142580248Y-63305926D01*
X142580248Y-63115450D01*
X142532629Y-62877355D01*
X142485010Y-62734498D01*
X142437391Y-62639260D01*
X142342153Y-62496402D01*
X142294534Y-62448783D01*
X174347391Y-66704021D02*
X174347391Y-67037355D01*
X174871200Y-67037355D02*
X173871200Y-67037355D01*
X173871200Y-66561164D01*
X174585486Y-66227831D02*
X174585486Y-65751640D01*
X174871200Y-66323069D02*
X173871200Y-65989736D01*
X174871200Y-65656402D01*
X174871200Y-65323069D02*
X173871200Y-65323069D01*
X174871200Y-64751640D01*
X173871200Y-64751640D01*
X173871200Y-63323069D02*
X173871200Y-63132593D01*
X173918820Y-63037355D01*
X174014058Y-62942117D01*
X174204534Y-62894498D01*
X174537867Y-62894498D01*
X174728343Y-62942117D01*
X174823581Y-63037355D01*
X174871200Y-63132593D01*
X174871200Y-63323069D01*
X174823581Y-63418307D01*
X174728343Y-63513545D01*
X174537867Y-63561164D01*
X174204534Y-63561164D01*
X174014058Y-63513545D01*
X173918820Y-63418307D01*
X173871200Y-63323069D01*
X173871200Y-62465926D02*
X174680724Y-62465926D01*
X174775962Y-62418307D01*
X174823581Y-62370688D01*
X174871200Y-62275450D01*
X174871200Y-62084974D01*
X174823581Y-61989736D01*
X174775962Y-61942117D01*
X174680724Y-61894498D01*
X173871200Y-61894498D01*
X173871200Y-61561164D02*
X173871200Y-60989736D01*
X174871200Y-61275450D02*
X173871200Y-61275450D01*
X175252153Y-60370688D02*
X175204534Y-60418307D01*
X175061677Y-60513545D01*
X174966439Y-60561164D01*
X174823581Y-60608783D01*
X174585486Y-60656402D01*
X174395010Y-60656402D01*
X174156915Y-60608783D01*
X174014058Y-60561164D01*
X173918820Y-60513545D01*
X173775962Y-60418307D01*
X173728343Y-60370688D01*
X174490248Y-59989736D02*
X174490248Y-59227831D01*
X174871200Y-59608783D02*
X174109296Y-59608783D01*
X175252153Y-58846879D02*
X175204534Y-58799260D01*
X175061677Y-58704021D01*
X174966439Y-58656402D01*
X174823581Y-58608783D01*
X174585486Y-58561164D01*
X174395010Y-58561164D01*
X174156915Y-58608783D01*
X174014058Y-58656402D01*
X173918820Y-58704021D01*
X173775962Y-58799260D01*
X173728343Y-58846879D01*
D10*
X102829523Y-67743095D02*
X104079523Y-67743095D01*
X103484285Y-67743095D02*
X103484285Y-68457380D01*
X102829523Y-68457380D02*
X104079523Y-68457380D01*
X103484285Y-69052619D02*
X103484285Y-69469285D01*
X102829523Y-69647857D02*
X102829523Y-69052619D01*
X104079523Y-69052619D01*
X104079523Y-69647857D01*
X103186666Y-70124047D02*
X103186666Y-70719285D01*
X102829523Y-70005000D02*
X104079523Y-70421666D01*
X102829523Y-70838333D01*
X104079523Y-71076428D02*
X104079523Y-71790714D01*
X102829523Y-71433571D02*
X104079523Y-71433571D01*
X103484285Y-72207380D02*
X103484285Y-72624047D01*
X102829523Y-72802619D02*
X102829523Y-72207380D01*
X104079523Y-72207380D01*
X104079523Y-72802619D01*
X102829523Y-74052619D02*
X103424761Y-73635952D01*
X102829523Y-73338333D02*
X104079523Y-73338333D01*
X104079523Y-73814523D01*
X104020000Y-73933571D01*
X103960476Y-73993095D01*
X103841428Y-74052619D01*
X103662857Y-74052619D01*
X103543809Y-73993095D01*
X103484285Y-73933571D01*
X103424761Y-73814523D01*
X103424761Y-73338333D01*
X104079523Y-75778809D02*
X104079523Y-76016904D01*
X104020000Y-76135952D01*
X103900952Y-76255000D01*
X103662857Y-76314523D01*
X103246190Y-76314523D01*
X103008095Y-76255000D01*
X102889047Y-76135952D01*
X102829523Y-76016904D01*
X102829523Y-75778809D01*
X102889047Y-75659761D01*
X103008095Y-75540714D01*
X103246190Y-75481190D01*
X103662857Y-75481190D01*
X103900952Y-75540714D01*
X104020000Y-75659761D01*
X104079523Y-75778809D01*
X104079523Y-76850238D02*
X103067619Y-76850238D01*
X102948571Y-76909761D01*
X102889047Y-76969285D01*
X102829523Y-77088333D01*
X102829523Y-77326428D01*
X102889047Y-77445476D01*
X102948571Y-77505000D01*
X103067619Y-77564523D01*
X104079523Y-77564523D01*
X104079523Y-77981190D02*
X104079523Y-78695476D01*
X102829523Y-78338333D02*
X104079523Y-78338333D01*
X103186666Y-110783809D02*
X103186666Y-111379047D01*
X102829523Y-110664761D02*
X104079523Y-111081428D01*
X102829523Y-111498095D01*
X102948571Y-112629047D02*
X102889047Y-112569523D01*
X102829523Y-112390952D01*
X102829523Y-112271904D01*
X102889047Y-112093333D01*
X103008095Y-111974285D01*
X103127142Y-111914761D01*
X103365238Y-111855238D01*
X103543809Y-111855238D01*
X103781904Y-111914761D01*
X103900952Y-111974285D01*
X104020000Y-112093333D01*
X104079523Y-112271904D01*
X104079523Y-112390952D01*
X104020000Y-112569523D01*
X103960476Y-112629047D01*
X102829523Y-114117142D02*
X104079523Y-114117142D01*
X102829523Y-114712380D02*
X104079523Y-114712380D01*
X102829523Y-115426666D01*
X104079523Y-115426666D01*
D12*
X194832391Y-106554974D02*
X195832391Y-106554974D01*
X194975248Y-106554974D02*
X194903820Y-106483545D01*
X194832391Y-106340688D01*
X194832391Y-106126402D01*
X194903820Y-105983545D01*
X195046677Y-105912117D01*
X195832391Y-105912117D01*
X195832391Y-104554974D02*
X195046677Y-104554974D01*
X194903820Y-104626402D01*
X194832391Y-104769260D01*
X194832391Y-105054974D01*
X194903820Y-105197831D01*
X195760962Y-104554974D02*
X195832391Y-104697831D01*
X195832391Y-105054974D01*
X195760962Y-105197831D01*
X195618105Y-105269260D01*
X195475248Y-105269260D01*
X195332391Y-105197831D01*
X195260962Y-105054974D01*
X195260962Y-104697831D01*
X195189534Y-104554974D01*
X194832391Y-103840688D02*
X195832391Y-103840688D01*
X194975248Y-103840688D02*
X194903820Y-103769260D01*
X194832391Y-103626402D01*
X194832391Y-103412117D01*
X194903820Y-103269260D01*
X195046677Y-103197831D01*
X195832391Y-103197831D01*
X195832391Y-102269260D02*
X195760962Y-102412117D01*
X195689534Y-102483545D01*
X195546677Y-102554974D01*
X195118105Y-102554974D01*
X194975248Y-102483545D01*
X194903820Y-102412117D01*
X194832391Y-102269260D01*
X194832391Y-102054974D01*
X194903820Y-101912117D01*
X194975248Y-101840688D01*
X195118105Y-101769260D01*
X195546677Y-101769260D01*
X195689534Y-101840688D01*
X195760962Y-101912117D01*
X195832391Y-102054974D01*
X195832391Y-102269260D01*
X195832391Y-100269260D02*
X195118105Y-100769260D01*
X195832391Y-101126402D02*
X194332391Y-101126402D01*
X194332391Y-100554974D01*
X194403820Y-100412117D01*
X194475248Y-100340688D01*
X194618105Y-100269260D01*
X194832391Y-100269260D01*
X194975248Y-100340688D01*
X195046677Y-100412117D01*
X195118105Y-100554974D01*
X195118105Y-101126402D01*
X195760962Y-99054974D02*
X195832391Y-99197831D01*
X195832391Y-99483545D01*
X195760962Y-99626402D01*
X195618105Y-99697831D01*
X195046677Y-99697831D01*
X194903820Y-99626402D01*
X194832391Y-99483545D01*
X194832391Y-99197831D01*
X194903820Y-99054974D01*
X195046677Y-98983545D01*
X195189534Y-98983545D01*
X195332391Y-99697831D01*
X194832391Y-98554974D02*
X194832391Y-97983545D01*
X195832391Y-98340688D02*
X194546677Y-98340688D01*
X194403820Y-98269260D01*
X194332391Y-98126402D01*
X194332391Y-97983545D01*
X195832391Y-97269260D02*
X195760962Y-97412117D01*
X195618105Y-97483545D01*
X194332391Y-97483545D01*
X195832391Y-96483545D02*
X195760962Y-96626402D01*
X195689534Y-96697831D01*
X195546677Y-96769260D01*
X195118105Y-96769260D01*
X194975248Y-96697831D01*
X194903820Y-96626402D01*
X194832391Y-96483545D01*
X194832391Y-96269260D01*
X194903820Y-96126402D01*
X194975248Y-96054974D01*
X195118105Y-95983545D01*
X195546677Y-95983545D01*
X195689534Y-96054974D01*
X195760962Y-96126402D01*
X195832391Y-96269260D01*
X195832391Y-96483545D01*
X194832391Y-95483545D02*
X195832391Y-95197831D01*
X195118105Y-94912117D01*
X195832391Y-94626402D01*
X194832391Y-94340688D01*
X197382391Y-105626402D02*
X198382391Y-105269260D01*
X197382391Y-104912117D01*
X198382391Y-103554974D02*
X198382391Y-104412117D01*
X198382391Y-103983545D02*
X196882391Y-103983545D01*
X197096677Y-104126402D01*
X197239534Y-104269260D01*
X197310962Y-104412117D01*
X198239534Y-102912117D02*
X198310962Y-102840688D01*
X198382391Y-102912117D01*
X198310962Y-102983545D01*
X198239534Y-102912117D01*
X198382391Y-102912117D01*
X196882391Y-101912117D02*
X196882391Y-101769260D01*
X196953820Y-101626402D01*
X197025248Y-101554974D01*
X197168105Y-101483545D01*
X197453820Y-101412117D01*
X197810962Y-101412117D01*
X198096677Y-101483545D01*
X198239534Y-101554974D01*
X198310962Y-101626402D01*
X198382391Y-101769260D01*
X198382391Y-101912117D01*
X198310962Y-102054974D01*
X198239534Y-102126402D01*
X198096677Y-102197831D01*
X197810962Y-102269260D01*
X197453820Y-102269260D01*
X197168105Y-102197831D01*
X197025248Y-102126402D01*
X196953820Y-102054974D01*
X196882391Y-101912117D01*
X198525248Y-101126402D02*
X198525248Y-99983545D01*
X198382391Y-99626402D02*
X197382391Y-99626402D01*
X197668105Y-99626402D02*
X197525248Y-99554974D01*
X197453820Y-99483545D01*
X197382391Y-99340688D01*
X197382391Y-99197831D01*
X198310962Y-98126402D02*
X198382391Y-98269260D01*
X198382391Y-98554974D01*
X198310962Y-98697831D01*
X198168105Y-98769260D01*
X197596677Y-98769260D01*
X197453820Y-98697831D01*
X197382391Y-98554974D01*
X197382391Y-98269260D01*
X197453820Y-98126402D01*
X197596677Y-98054974D01*
X197739534Y-98054974D01*
X197882391Y-98769260D01*
X197382391Y-97554974D02*
X198382391Y-97197831D01*
X197382391Y-96840688D01*
X196882391Y-96412117D02*
X196882391Y-95483545D01*
X197453820Y-95983545D01*
X197453820Y-95769260D01*
X197525248Y-95626402D01*
X197596677Y-95554974D01*
X197739534Y-95483545D01*
X198096677Y-95483545D01*
X198239534Y-95554974D01*
X198310962Y-95626402D01*
X198382391Y-95769260D01*
X198382391Y-96197831D01*
X198310962Y-96340688D01*
X198239534Y-96412117D01*
D13*
X192408820Y-85239260D02*
X192408820Y-87189260D01*
X192408820Y-85239260D02*
X192408820Y-83289260D01*
X197528820Y-85239260D02*
X197528820Y-87189260D01*
X197528820Y-85239260D02*
X197528820Y-81789260D01*
X194990015Y-61519007D02*
G75*
G02*
X195702820Y-61664260I28805J-1680253D01*
G01*
X196554246Y-62516218D02*
G75*
G02*
X196553820Y-63883260I-1535426J-683042D01*
G01*
X195701862Y-64734686D02*
G75*
G02*
X194334820Y-64734260I-683042J1535426D01*
G01*
X193483394Y-63882302D02*
G75*
G02*
X193483820Y-62515260I1535426J683042D01*
G01*
X194335502Y-61664504D02*
G75*
G02*
X195018820Y-61519260I683318J-1534756D01*
G01*
X191698820Y-63199260D02*
G75*
G03*
X191698820Y-63199260I-1680000J0D01*
G01*
X197578820Y-59099260D02*
X187458820Y-59099260D01*
X197578820Y-60599260D02*
X187458820Y-60599260D01*
X197578820Y-65500260D02*
X187458820Y-65500260D01*
X197578820Y-68460260D02*
X187458820Y-68460260D01*
X197578820Y-58539260D02*
X187458820Y-58539260D01*
X197578820Y-68460260D02*
X197578820Y-58539260D01*
X187458820Y-68460260D02*
X187458820Y-58539260D01*
X188743820Y-64268260D02*
X188790820Y-64222260D01*
X191052820Y-61960260D02*
X191087820Y-61925260D01*
X188948820Y-64474260D02*
X188983820Y-64438260D01*
X191245820Y-62176260D02*
X191292820Y-62130260D01*
X197818820Y-59039260D02*
X197818820Y-58299260D01*
X197818820Y-58299260D02*
X197318820Y-58299260D01*
X191553820Y-79938008D02*
X191553820Y-80460512D01*
X190083820Y-79938008D02*
X190083820Y-80460512D01*
X150908820Y-110020000D02*
X150908820Y-108690000D01*
X152238820Y-110020000D02*
X150908820Y-110020000D01*
X153508820Y-110020000D02*
X153508820Y-107360000D01*
X153508820Y-107360000D02*
X161188820Y-107360000D01*
X153508820Y-110020000D02*
X161188820Y-110020000D01*
X161188820Y-110020000D02*
X161188820Y-107360000D01*
D14*
X119324036Y-79462991D02*
X119107892Y-79571063D01*
X119107892Y-79571063D02*
X118891748Y-79701110D01*
X118891748Y-79701110D02*
X118740447Y-79895279D01*
X118740447Y-79895279D02*
X118632375Y-80090169D01*
X118632375Y-80090169D02*
X118589147Y-80327927D01*
X118589147Y-80327927D02*
X118589147Y-80587300D01*
X118589147Y-80587300D02*
X118632375Y-80825059D01*
X118632375Y-80825059D02*
X118740447Y-81019228D01*
X118740447Y-81019228D02*
X118891748Y-81214118D01*
X118891748Y-81214118D02*
X119107892Y-81343805D01*
X119107892Y-81343805D02*
X119324036Y-81451877D01*
X119324036Y-81451877D02*
X119540180Y-81473491D01*
X119540180Y-81473491D02*
X123637824Y-81754478D01*
X123637824Y-81754478D02*
X123789125Y-81776093D01*
X123789125Y-81776093D02*
X123940426Y-81884165D01*
X123940426Y-81884165D02*
X124048498Y-82013851D01*
X124048498Y-82013851D02*
X124113341Y-82164792D01*
X124113341Y-82164792D02*
X124113341Y-82359682D01*
X124113341Y-82359682D02*
X124048498Y-82510983D01*
X124048498Y-82510983D02*
X123940426Y-82640309D01*
X123940426Y-82640309D02*
X123789125Y-82748741D01*
X123789125Y-82748741D02*
X123637824Y-82769995D01*
X123637824Y-82769995D02*
X119540180Y-83051342D01*
X119540180Y-83051342D02*
X119324036Y-83072957D01*
X119324036Y-83072957D02*
X119107892Y-83159054D01*
X119107892Y-83159054D02*
X118891748Y-83310355D01*
X118891748Y-83310355D02*
X118740447Y-83483630D01*
X118740447Y-83483630D02*
X118632375Y-83699414D01*
X118632375Y-83699414D02*
X118589147Y-83937533D01*
X118589147Y-83937533D02*
X118589147Y-84175291D01*
X118589147Y-84175291D02*
X118632375Y-84391075D01*
X118632375Y-84391075D02*
X118740447Y-84629194D01*
X118740447Y-84629194D02*
X118891748Y-84823363D01*
X118891748Y-84823363D02*
X119107892Y-84953410D01*
X119107892Y-84953410D02*
X119324036Y-85039868D01*
X119324036Y-85039868D02*
X119540180Y-85083097D01*
X119540180Y-85083097D02*
X123637824Y-85342109D01*
X123637824Y-85342109D02*
X123789125Y-85385338D01*
X123789125Y-85385338D02*
X123940426Y-85471796D01*
X123940426Y-85471796D02*
X124048498Y-85601482D01*
X124048498Y-85601482D02*
X124113341Y-85774758D01*
X124113341Y-85774758D02*
X124113341Y-85925698D01*
X124113341Y-85925698D02*
X124048498Y-86120588D01*
X124048498Y-86120588D02*
X123940426Y-86250274D01*
X123940426Y-86250274D02*
X123637824Y-86379601D01*
X123637824Y-86379601D02*
X118567532Y-86682202D01*
X118567532Y-86682202D02*
X118567532Y-92799260D01*
X118567532Y-92799260D02*
X118567532Y-98916317D01*
X118567532Y-98916317D02*
X123637824Y-99218919D01*
X123637824Y-99218919D02*
X123940426Y-99348245D01*
X123940426Y-99348245D02*
X124048498Y-99477932D01*
X124048498Y-99477932D02*
X124113341Y-99672822D01*
X124113341Y-99672822D02*
X124113341Y-99823762D01*
X124113341Y-99823762D02*
X124048498Y-99997038D01*
X124048498Y-99997038D02*
X123940426Y-100126724D01*
X123940426Y-100126724D02*
X123789125Y-100213182D01*
X123789125Y-100213182D02*
X123637824Y-100256411D01*
X123637824Y-100256411D02*
X119540180Y-100515423D01*
X119540180Y-100515423D02*
X119324036Y-100558652D01*
X119324036Y-100558652D02*
X119107892Y-100645110D01*
X119107892Y-100645110D02*
X118891748Y-100775157D01*
X118891748Y-100775157D02*
X118740447Y-100969326D01*
X118740447Y-100969326D02*
X118632375Y-101207445D01*
X118632375Y-101207445D02*
X118589147Y-101423229D01*
X118589147Y-101423229D02*
X118589147Y-101660987D01*
X118589147Y-101660987D02*
X118632375Y-101899106D01*
X118632375Y-101899106D02*
X118740447Y-102114890D01*
X118740447Y-102114890D02*
X118891748Y-102288165D01*
X118891748Y-102288165D02*
X119107892Y-102439466D01*
X119107892Y-102439466D02*
X119324036Y-102525563D01*
X119324036Y-102525563D02*
X119540180Y-102547178D01*
X119540180Y-102547178D02*
X123637824Y-102828525D01*
X123637824Y-102828525D02*
X123789125Y-102849779D01*
X123789125Y-102849779D02*
X123940426Y-102958211D01*
X123940426Y-102958211D02*
X124048498Y-103087537D01*
X124048498Y-103087537D02*
X124113341Y-103238838D01*
X124113341Y-103238838D02*
X124113341Y-103433728D01*
X124113341Y-103433728D02*
X124048498Y-103584668D01*
X124048498Y-103584668D02*
X123940426Y-103714355D01*
X123940426Y-103714355D02*
X123789125Y-103822427D01*
X123789125Y-103822427D02*
X123637824Y-103844042D01*
X123637824Y-103844042D02*
X119540180Y-104125029D01*
X119540180Y-104125029D02*
X119324036Y-104146643D01*
X119324036Y-104146643D02*
X119107892Y-104254715D01*
X119107892Y-104254715D02*
X118891748Y-104384402D01*
X118891748Y-104384402D02*
X118740447Y-104579291D01*
X118740447Y-104579291D02*
X118632375Y-104773461D01*
X118632375Y-104773461D02*
X118589147Y-105011219D01*
X118589147Y-105011219D02*
X118589147Y-105270593D01*
X118589147Y-105270593D02*
X118632375Y-105508351D01*
X118632375Y-105508351D02*
X118740447Y-105703241D01*
X118740447Y-105703241D02*
X118891748Y-105897410D01*
X118891748Y-105897410D02*
X119107892Y-106027457D01*
X119107892Y-106027457D02*
X119324036Y-106135529D01*
X119324036Y-106135529D02*
X119540180Y-106157144D01*
X119540180Y-106157144D02*
X123637824Y-106437771D01*
X123637824Y-106437771D02*
X123789125Y-106459385D01*
X123789125Y-106459385D02*
X123940426Y-106567818D01*
X123940426Y-106567818D02*
X124048498Y-106697504D01*
X124048498Y-106697504D02*
X124113341Y-106848445D01*
X124113341Y-106848445D02*
X124113341Y-107194275D01*
X124113341Y-107194275D02*
X124048498Y-107345936D01*
X124048498Y-107345936D02*
X123940426Y-107475623D01*
X123940426Y-107475623D02*
X123789125Y-107583334D01*
X123789125Y-107583334D02*
X123616210Y-107604949D01*
X123616210Y-107604949D02*
X118567532Y-107604949D01*
X118567532Y-107604949D02*
X116752422Y-107604949D01*
X116752422Y-107604949D02*
X108063430Y-107604949D01*
X108063430Y-107604949D02*
X107890515Y-107583334D01*
X107890515Y-107583334D02*
X107739214Y-107475623D01*
X107739214Y-107475623D02*
X107631142Y-107345936D01*
X107631142Y-107345936D02*
X107566299Y-107194275D01*
X107566299Y-107194275D02*
X107566299Y-106848445D01*
X107566299Y-106848445D02*
X107631142Y-106697504D01*
X107631142Y-106697504D02*
X107739214Y-106567818D01*
X107739214Y-106567818D02*
X107890515Y-106459385D01*
X107890515Y-106459385D02*
X108041816Y-106437771D01*
X108041816Y-106437771D02*
X115779774Y-106157144D01*
X115779774Y-106157144D02*
X115995918Y-106135529D01*
X115995918Y-106135529D02*
X116212062Y-106027457D01*
X116212062Y-106027457D02*
X116428206Y-105897410D01*
X116428206Y-105897410D02*
X116579507Y-105703241D01*
X116579507Y-105703241D02*
X116687579Y-105508351D01*
X116687579Y-105508351D02*
X116730808Y-105270593D01*
X116730808Y-105270593D02*
X116730808Y-105011219D01*
X116730808Y-105011219D02*
X116687579Y-104773461D01*
X116687579Y-104773461D02*
X116579507Y-104579291D01*
X116579507Y-104579291D02*
X116428206Y-104384402D01*
X116428206Y-104384402D02*
X116212062Y-104254715D01*
X116212062Y-104254715D02*
X115995918Y-104146643D01*
X115995918Y-104146643D02*
X115779774Y-104125029D01*
X115779774Y-104125029D02*
X108041816Y-103844042D01*
X108041816Y-103844042D02*
X107890515Y-103822427D01*
X107890515Y-103822427D02*
X107739214Y-103714355D01*
X107739214Y-103714355D02*
X107631142Y-103584668D01*
X107631142Y-103584668D02*
X107566299Y-103433728D01*
X107566299Y-103433728D02*
X107566299Y-103238838D01*
X107566299Y-103238838D02*
X107631142Y-103087537D01*
X107631142Y-103087537D02*
X107739214Y-102958211D01*
X107739214Y-102958211D02*
X107890515Y-102849779D01*
X107890515Y-102849779D02*
X108041816Y-102828525D01*
X108041816Y-102828525D02*
X115779774Y-102547178D01*
X115779774Y-102547178D02*
X115995918Y-102525563D01*
X115995918Y-102525563D02*
X116212062Y-102439466D01*
X116212062Y-102439466D02*
X116428206Y-102288165D01*
X116428206Y-102288165D02*
X116579507Y-102114890D01*
X116579507Y-102114890D02*
X116687579Y-101899106D01*
X116687579Y-101899106D02*
X116730808Y-101660987D01*
X116730808Y-101660987D02*
X116730808Y-101423229D01*
X116730808Y-101423229D02*
X116687579Y-101207445D01*
X116687579Y-101207445D02*
X116579507Y-100969326D01*
X116579507Y-100969326D02*
X116428206Y-100775157D01*
X116428206Y-100775157D02*
X116212062Y-100645110D01*
X116212062Y-100645110D02*
X115995918Y-100558652D01*
X115995918Y-100558652D02*
X115779774Y-100515423D01*
X115779774Y-100515423D02*
X108041816Y-100256411D01*
X108041816Y-100256411D02*
X107890515Y-100213182D01*
X107890515Y-100213182D02*
X107739214Y-100126724D01*
X107739214Y-100126724D02*
X107631142Y-99997038D01*
X107631142Y-99997038D02*
X107566299Y-99823762D01*
X107566299Y-99823762D02*
X107566299Y-99672822D01*
X107566299Y-99672822D02*
X107631142Y-99477932D01*
X107631142Y-99477932D02*
X107739214Y-99348245D01*
X107739214Y-99348245D02*
X108041816Y-99218919D01*
X108041816Y-99218919D02*
X116752422Y-98916317D01*
X116752422Y-98916317D02*
X116752422Y-92799260D01*
X116752422Y-92799260D02*
X116752422Y-86682202D01*
X116752422Y-86682202D02*
X108041816Y-86379601D01*
X108041816Y-86379601D02*
X107739214Y-86250274D01*
X107739214Y-86250274D02*
X107631142Y-86120588D01*
X107631142Y-86120588D02*
X107566299Y-85925698D01*
X107566299Y-85925698D02*
X107566299Y-85774758D01*
X107566299Y-85774758D02*
X107631142Y-85601482D01*
X107631142Y-85601482D02*
X107739214Y-85471796D01*
X107739214Y-85471796D02*
X107890515Y-85385338D01*
X107890515Y-85385338D02*
X108041816Y-85342109D01*
X108041816Y-85342109D02*
X115779774Y-85083097D01*
X115779774Y-85083097D02*
X115995918Y-85039868D01*
X115995918Y-85039868D02*
X116212062Y-84953410D01*
X116212062Y-84953410D02*
X116428206Y-84823363D01*
X116428206Y-84823363D02*
X116579507Y-84629194D01*
X116579507Y-84629194D02*
X116687579Y-84391075D01*
X116687579Y-84391075D02*
X116730808Y-84175291D01*
X116730808Y-84175291D02*
X116730808Y-83937533D01*
X116730808Y-83937533D02*
X116687579Y-83699414D01*
X116687579Y-83699414D02*
X116579507Y-83483630D01*
X116579507Y-83483630D02*
X116428206Y-83310355D01*
X116428206Y-83310355D02*
X116212062Y-83159054D01*
X116212062Y-83159054D02*
X115995918Y-83072957D01*
X115995918Y-83072957D02*
X115779774Y-83051342D01*
X115779774Y-83051342D02*
X108041816Y-82769995D01*
X108041816Y-82769995D02*
X107890515Y-82748741D01*
X107890515Y-82748741D02*
X107739214Y-82640309D01*
X107739214Y-82640309D02*
X107631142Y-82510983D01*
X107631142Y-82510983D02*
X107566299Y-82359682D01*
X107566299Y-82359682D02*
X107566299Y-82164792D01*
X107566299Y-82164792D02*
X107631142Y-82013851D01*
X107631142Y-82013851D02*
X107739214Y-81884165D01*
X107739214Y-81884165D02*
X107890515Y-81776093D01*
X107890515Y-81776093D02*
X108041816Y-81754478D01*
X108041816Y-81754478D02*
X115779774Y-81473491D01*
X115779774Y-81473491D02*
X115995918Y-81451877D01*
X115995918Y-81451877D02*
X116212062Y-81343805D01*
X116212062Y-81343805D02*
X116428206Y-81214118D01*
X116428206Y-81214118D02*
X116579507Y-81019228D01*
X116579507Y-81019228D02*
X116687579Y-80825059D01*
X116687579Y-80825059D02*
X116730808Y-80587300D01*
X116730808Y-80587300D02*
X116730808Y-80327927D01*
X116730808Y-80327927D02*
X116687579Y-80090169D01*
X116687579Y-80090169D02*
X116579507Y-79895279D01*
X116579507Y-79895279D02*
X116428206Y-79701110D01*
X116428206Y-79701110D02*
X116212062Y-79571063D01*
X116212062Y-79571063D02*
X115995918Y-79462991D01*
X115995918Y-79462991D02*
X115779774Y-79441376D01*
X115779774Y-79441376D02*
X108041816Y-79160749D01*
X108041816Y-79160749D02*
X107890515Y-79139135D01*
X107890515Y-79139135D02*
X107739214Y-79030702D01*
X107739214Y-79030702D02*
X107631142Y-78901016D01*
X107631142Y-78901016D02*
X107566299Y-78750075D01*
X107566299Y-78750075D02*
X107566299Y-78404245D01*
X107566299Y-78404245D02*
X107631142Y-78252584D01*
X107631142Y-78252584D02*
X107739214Y-78122897D01*
X107739214Y-78122897D02*
X107890515Y-78015186D01*
X107890515Y-78015186D02*
X108063430Y-77993571D01*
X108063430Y-77993571D02*
X116752422Y-77993571D01*
X116752422Y-77993571D02*
X118567532Y-77993571D01*
X118567532Y-77993571D02*
X123616210Y-77993571D01*
X123616210Y-77993571D02*
X123789125Y-78015186D01*
X123789125Y-78015186D02*
X123940426Y-78122897D01*
X123940426Y-78122897D02*
X124048498Y-78252584D01*
X124048498Y-78252584D02*
X124113341Y-78404245D01*
X124113341Y-78404245D02*
X124113341Y-78750075D01*
X124113341Y-78750075D02*
X124048498Y-78901016D01*
X124048498Y-78901016D02*
X123940426Y-79030702D01*
X123940426Y-79030702D02*
X123789125Y-79139135D01*
X123789125Y-79139135D02*
X123637824Y-79160749D01*
X123637824Y-79160749D02*
X119540180Y-79441376D01*
X119540180Y-79441376D02*
X119324036Y-79462991D01*
D13*
X180298820Y-63199260D02*
G75*
G03*
X180298820Y-63199260I-1680000J0D01*
G01*
X186178820Y-59099260D02*
X176058820Y-59099260D01*
X186178820Y-60599260D02*
X176058820Y-60599260D01*
X186178820Y-65500260D02*
X176058820Y-65500260D01*
X186178820Y-68460260D02*
X176058820Y-68460260D01*
X186178820Y-58539260D02*
X176058820Y-58539260D01*
X186178820Y-68460260D02*
X186178820Y-58539260D01*
X176058820Y-68460260D02*
X176058820Y-58539260D01*
X177343820Y-64268260D02*
X177390820Y-64222260D01*
X179652820Y-61960260D02*
X179687820Y-61925260D01*
X177548820Y-64474260D02*
X177583820Y-64438260D01*
X179845820Y-62176260D02*
X179892820Y-62130260D01*
X186418820Y-59039260D02*
X186418820Y-58299260D01*
X186418820Y-58299260D02*
X185918820Y-58299260D01*
X183590015Y-61519007D02*
G75*
G02*
X184302820Y-61664260I28805J-1680253D01*
G01*
X185154246Y-62516218D02*
G75*
G02*
X185153820Y-63883260I-1535426J-683042D01*
G01*
X184301862Y-64734686D02*
G75*
G02*
X182934820Y-64734260I-683042J1535426D01*
G01*
X182083394Y-63882302D02*
G75*
G02*
X182083820Y-62515260I1535426J683042D01*
G01*
X182935502Y-61664504D02*
G75*
G02*
X183618820Y-61519260I683318J-1534756D01*
G01*
X143928820Y-85059260D02*
X143928820Y-103099260D01*
X187368820Y-85059260D02*
X143928820Y-85059260D01*
X187368820Y-103099260D02*
X187368820Y-85059260D01*
X184698820Y-100429260D02*
X184698820Y-103099260D01*
X149138820Y-100429260D02*
X184698820Y-100429260D01*
X149138820Y-100429260D02*
X149138820Y-103099260D01*
X184698820Y-87729260D02*
X184698820Y-85059260D01*
X146598820Y-87729260D02*
X184698820Y-87729260D01*
X146598820Y-87729260D02*
X146598820Y-85059260D01*
X143928820Y-103099260D02*
X146598820Y-103099260D01*
X149138820Y-103099260D02*
X187368820Y-103099260D01*
X146598820Y-100429260D02*
X146598820Y-103099260D01*
X149138820Y-100429260D02*
X146598820Y-100429260D01*
X176688820Y-71799260D02*
X179098820Y-71799260D01*
X176688820Y-71799260D02*
G75*
G03*
X176688820Y-71799260I-1470000J0D01*
G01*
X123930000Y-88695000D02*
X123915000Y-88695000D01*
X126055000Y-88695000D02*
X126040000Y-88695000D01*
X123930000Y-84155000D02*
X123915000Y-84155000D01*
X126055000Y-84155000D02*
X126040000Y-84155000D01*
X123915000Y-84155000D02*
X123915000Y-88695000D01*
X126055000Y-84155000D02*
X126055000Y-88695000D01*
X131998820Y-94119260D02*
X131998820Y-93789260D01*
X125458820Y-94119260D02*
X131998820Y-94119260D01*
X125458820Y-93789260D02*
X125458820Y-94119260D01*
X131998820Y-91379260D02*
X131998820Y-91709260D01*
X125458820Y-91379260D02*
X131998820Y-91379260D01*
X125458820Y-91709260D02*
X125458820Y-91379260D01*
X123615000Y-103705000D02*
X123945000Y-103705000D01*
X123615000Y-97165000D02*
X123615000Y-103705000D01*
X123945000Y-97165000D02*
X123615000Y-97165000D01*
X126355000Y-103705000D02*
X126025000Y-103705000D01*
X126355000Y-97165000D02*
X126355000Y-103705000D01*
X126025000Y-97165000D02*
X126355000Y-97165000D01*
X136158820Y-92875000D02*
X137808820Y-92875000D01*
X136158820Y-85135000D02*
X136158820Y-92875000D01*
X141458820Y-85135000D02*
X136158820Y-85135000D01*
X141458820Y-92875000D02*
X141458820Y-85135000D01*
X139808820Y-92875000D02*
X141458820Y-92875000D01*
X137808820Y-92875000D02*
G75*
G02*
X139808820Y-92875000I1000000J0D01*
G01*
X141478820Y-95319260D02*
X139828820Y-95319260D01*
X141478820Y-103059260D02*
X141478820Y-95319260D01*
X136178820Y-103059260D02*
X141478820Y-103059260D01*
X136178820Y-95319260D02*
X136178820Y-103059260D01*
X137828820Y-95319260D02*
X136178820Y-95319260D01*
X139828820Y-95319260D02*
G75*
G02*
X137828820Y-95319260I-1000000J0D01*
G01*
X118093820Y-94650260D02*
X116583820Y-94650260D01*
X118093820Y-90949260D02*
X116583820Y-90949260D01*
X116583820Y-87679260D02*
X116583820Y-97919260D01*
X118093820Y-97919260D02*
X113452820Y-97919260D01*
X118093820Y-87679260D02*
X113452820Y-87679260D01*
X113452820Y-87679260D02*
X113452820Y-97919260D01*
X118093820Y-87679260D02*
X118093820Y-97919260D01*
X155931041Y-106184260D02*
X156256599Y-106184260D01*
X155931041Y-105164260D02*
X156256599Y-105164260D01*
X189009820Y-70329260D02*
X189009820Y-71839260D01*
X185308820Y-70329260D02*
X185308820Y-71839260D01*
X182038820Y-71839260D02*
X192278820Y-71839260D01*
X192278820Y-70329260D02*
X192278820Y-74970260D01*
X182038820Y-70329260D02*
X182038820Y-74970260D01*
X182038820Y-74970260D02*
X192278820Y-74970260D01*
X182038820Y-70329260D02*
X192278820Y-70329260D01*
X129530000Y-97165000D02*
X129200000Y-97165000D01*
X129530000Y-103705000D02*
X129530000Y-97165000D01*
X129200000Y-103705000D02*
X129530000Y-103705000D01*
X126790000Y-97165000D02*
X127120000Y-97165000D01*
X126790000Y-103705000D02*
X126790000Y-97165000D01*
X127120000Y-103705000D02*
X126790000Y-103705000D01*
X132705000Y-99705000D02*
X132375000Y-99705000D01*
X132705000Y-106245000D02*
X132705000Y-99705000D01*
X132375000Y-106245000D02*
X132705000Y-106245000D01*
X129965000Y-99705000D02*
X130295000Y-99705000D01*
X129965000Y-106245000D02*
X129965000Y-99705000D01*
X130295000Y-106245000D02*
X129965000Y-106245000D01*
X163470000Y-76950000D02*
G75*
G03*
X163470000Y-76950000I-6100000J0D01*
G01*
X182760242Y-83784260D02*
X183277398Y-83784260D01*
X182760242Y-82364260D02*
X183277398Y-82364260D01*
X176378820Y-77901324D02*
X176378820Y-76697196D01*
X173658820Y-77901324D02*
X173658820Y-76697196D01*
X183420884Y-75839260D02*
X182216756Y-75839260D01*
X183420884Y-78559260D02*
X182216756Y-78559260D01*
X179535000Y-110020000D02*
X179535000Y-108690000D01*
X180865000Y-110020000D02*
X179535000Y-110020000D01*
X182135000Y-110020000D02*
X182135000Y-107360000D01*
X182135000Y-107360000D02*
X192355000Y-107360000D01*
X182135000Y-110020000D02*
X192355000Y-110020000D01*
X192355000Y-110020000D02*
X192355000Y-107360000D01*
X106093820Y-107024260D02*
X106093820Y-107524260D01*
X106833820Y-107024260D02*
X106093820Y-107024260D01*
X109970820Y-113597260D02*
X109924820Y-113550260D01*
X112268820Y-115894260D02*
X112232820Y-115859260D01*
X109754820Y-113790260D02*
X109719820Y-113755260D01*
X112062820Y-116099260D02*
X112016820Y-116052260D01*
X116254820Y-117384260D02*
X106333820Y-117384260D01*
X116254820Y-107264260D02*
X106333820Y-107264260D01*
X106333820Y-107264260D02*
X106333820Y-117384260D01*
X116254820Y-107264260D02*
X116254820Y-117384260D01*
X113294820Y-107264260D02*
X113294820Y-117384260D01*
X108393820Y-107264260D02*
X108393820Y-117384260D01*
X106893820Y-107264260D02*
X106893820Y-117384260D01*
X112673820Y-114824260D02*
G75*
G03*
X112673820Y-114824260I-1680000J0D01*
G01*
X109313567Y-109853065D02*
G75*
G02*
X109458820Y-109140260I1680253J28805D01*
G01*
X110310778Y-108288834D02*
G75*
G02*
X111677820Y-108289260I683042J-1535426D01*
G01*
X112529246Y-109141218D02*
G75*
G02*
X112528820Y-110508260I-1535426J-683042D01*
G01*
X111676862Y-111359686D02*
G75*
G02*
X110309820Y-111359260I-683042J1535426D01*
G01*
X109459064Y-110507578D02*
G75*
G02*
X109313820Y-109824260I1534756J683318D01*
G01*
X106193820Y-68374260D02*
X106193820Y-68874260D01*
X106933820Y-68374260D02*
X106193820Y-68374260D01*
X110070820Y-74947260D02*
X110024820Y-74900260D01*
X112368820Y-77244260D02*
X112332820Y-77209260D01*
X109854820Y-75140260D02*
X109819820Y-75105260D01*
X112162820Y-77449260D02*
X112116820Y-77402260D01*
X116354820Y-78734260D02*
X106433820Y-78734260D01*
X116354820Y-68614260D02*
X106433820Y-68614260D01*
X106433820Y-68614260D02*
X106433820Y-78734260D01*
X116354820Y-68614260D02*
X116354820Y-78734260D01*
X113394820Y-68614260D02*
X113394820Y-78734260D01*
X108493820Y-68614260D02*
X108493820Y-78734260D01*
X106993820Y-68614260D02*
X106993820Y-78734260D01*
X112773820Y-76174260D02*
G75*
G03*
X112773820Y-76174260I-1680000J0D01*
G01*
X109413567Y-71203065D02*
G75*
G02*
X109558820Y-70490260I1680253J28805D01*
G01*
X110410778Y-69638834D02*
G75*
G02*
X111777820Y-69639260I683042J-1535426D01*
G01*
X112629246Y-70491218D02*
G75*
G02*
X112628820Y-71858260I-1535426J-683042D01*
G01*
X111776862Y-72709686D02*
G75*
G02*
X110409820Y-72709260I-683042J1535426D01*
G01*
X109559064Y-71857578D02*
G75*
G02*
X109413820Y-71174260I1534756J683318D01*
G01*
X153518820Y-58299260D02*
X153018820Y-58299260D01*
X153518820Y-59039260D02*
X153518820Y-58299260D01*
X146945820Y-62176260D02*
X146992820Y-62130260D01*
X144648820Y-64474260D02*
X144683820Y-64438260D01*
X146752820Y-61960260D02*
X146787820Y-61925260D01*
X144443820Y-64268260D02*
X144490820Y-64222260D01*
X143158820Y-68460260D02*
X143158820Y-58539260D01*
X153278820Y-68460260D02*
X153278820Y-58539260D01*
X153278820Y-58539260D02*
X143158820Y-58539260D01*
X153278820Y-68460260D02*
X143158820Y-68460260D01*
X153278820Y-65500260D02*
X143158820Y-65500260D01*
X153278820Y-60599260D02*
X143158820Y-60599260D01*
X153278820Y-59099260D02*
X143158820Y-59099260D01*
X147398820Y-63199260D02*
G75*
G03*
X147398820Y-63199260I-1680000J0D01*
G01*
X150690015Y-61519007D02*
G75*
G02*
X151402820Y-61664260I28805J-1680253D01*
G01*
X152254246Y-62516218D02*
G75*
G02*
X152253820Y-63883260I-1535426J-683042D01*
G01*
X151401862Y-64734686D02*
G75*
G02*
X150034820Y-64734260I-683042J1535426D01*
G01*
X149183394Y-63882302D02*
G75*
G02*
X149183820Y-62515260I1535426J683042D01*
G01*
X150035502Y-61664504D02*
G75*
G02*
X150718820Y-61519260I683318J-1534756D01*
G01*
X149175000Y-82715000D02*
X147845000Y-82715000D01*
X149175000Y-81385000D02*
X149175000Y-82715000D01*
X149175000Y-80115000D02*
X146515000Y-80115000D01*
X146515000Y-80115000D02*
X146515000Y-77515000D01*
X149175000Y-80115000D02*
X149175000Y-77515000D01*
X149175000Y-77515000D02*
X146515000Y-77515000D01*
X146635000Y-113830000D02*
X145305000Y-113830000D01*
X146635000Y-112500000D02*
X146635000Y-113830000D01*
X146635000Y-111230000D02*
X143975000Y-111230000D01*
X143975000Y-111230000D02*
X143975000Y-106090000D01*
X146635000Y-111230000D02*
X146635000Y-106090000D01*
X146635000Y-106090000D02*
X143975000Y-106090000D01*
X108163820Y-89389260D02*
X101163820Y-89389260D01*
X101163820Y-89389260D02*
X101163820Y-79639260D01*
X108163820Y-79639260D02*
X101163820Y-79639260D01*
X108163820Y-89389260D02*
X108163820Y-79639260D01*
X107163820Y-80639260D02*
X102163820Y-80639260D01*
X101163820Y-105639260D02*
X101163820Y-104639260D01*
X108163820Y-105639260D02*
X101163820Y-105639260D01*
X108163820Y-105639260D02*
X108163820Y-104639260D01*
X107163820Y-104639260D02*
X102163820Y-104639260D01*
X107163820Y-104639260D02*
X107163820Y-93889260D01*
X102163820Y-104639260D02*
X102163820Y-94139260D01*
X107163820Y-93889260D02*
X107163820Y-82139260D01*
X102163820Y-94139260D02*
X102163820Y-81889260D01*
X107163820Y-82139260D02*
X107163820Y-80639260D01*
X102163820Y-81889260D02*
X102163820Y-80639260D01*
X108163820Y-104639260D02*
X108163820Y-95889260D01*
X101163820Y-104639260D02*
X101163820Y-95889260D01*
X108163820Y-95889260D02*
X101163820Y-95889260D01*
X104663820Y-95889260D02*
X104663820Y-89389260D01*
D11*
X198056915Y-84851640D02*
X198056915Y-85661164D01*
X198104534Y-85756402D01*
X198152153Y-85804021D01*
X198247391Y-85851640D01*
X198437867Y-85851640D01*
X198533105Y-85804021D01*
X198580724Y-85756402D01*
X198628343Y-85661164D01*
X198628343Y-84851640D01*
X199056915Y-84946879D02*
X199104534Y-84899260D01*
X199199772Y-84851640D01*
X199437867Y-84851640D01*
X199533105Y-84899260D01*
X199580724Y-84946879D01*
X199628343Y-85042117D01*
X199628343Y-85137355D01*
X199580724Y-85280212D01*
X199009296Y-85851640D01*
X199628343Y-85851640D01*
X196785486Y-69151640D02*
X196785486Y-69865926D01*
X196737867Y-70008783D01*
X196642629Y-70104021D01*
X196499772Y-70151640D01*
X196404534Y-70151640D01*
X197690248Y-69151640D02*
X197499772Y-69151640D01*
X197404534Y-69199260D01*
X197356915Y-69246879D01*
X197261677Y-69389736D01*
X197214058Y-69580212D01*
X197214058Y-69961164D01*
X197261677Y-70056402D01*
X197309296Y-70104021D01*
X197404534Y-70151640D01*
X197595010Y-70151640D01*
X197690248Y-70104021D01*
X197737867Y-70056402D01*
X197785486Y-69961164D01*
X197785486Y-69723069D01*
X197737867Y-69627831D01*
X197690248Y-69580212D01*
X197595010Y-69532593D01*
X197404534Y-69532593D01*
X197309296Y-69580212D01*
X197261677Y-69627831D01*
X197214058Y-69723069D01*
X192855962Y-80365926D02*
X192903581Y-80413545D01*
X192951200Y-80556402D01*
X192951200Y-80651640D01*
X192903581Y-80794498D01*
X192808343Y-80889736D01*
X192713105Y-80937355D01*
X192522629Y-80984974D01*
X192379772Y-80984974D01*
X192189296Y-80937355D01*
X192094058Y-80889736D01*
X191998820Y-80794498D01*
X191951200Y-80651640D01*
X191951200Y-80556402D01*
X191998820Y-80413545D01*
X192046439Y-80365926D01*
X191951200Y-80032593D02*
X191951200Y-79413545D01*
X192332153Y-79746879D01*
X192332153Y-79604021D01*
X192379772Y-79508783D01*
X192427391Y-79461164D01*
X192522629Y-79413545D01*
X192760724Y-79413545D01*
X192855962Y-79461164D01*
X192903581Y-79508783D01*
X192951200Y-79604021D01*
X192951200Y-79889736D01*
X192903581Y-79984974D01*
X192855962Y-80032593D01*
X162505486Y-108061640D02*
X162505486Y-108775926D01*
X162457867Y-108918783D01*
X162362629Y-109014021D01*
X162219772Y-109061640D01*
X162124534Y-109061640D01*
X163457867Y-108061640D02*
X162981677Y-108061640D01*
X162934058Y-108537831D01*
X162981677Y-108490212D01*
X163076915Y-108442593D01*
X163315010Y-108442593D01*
X163410248Y-108490212D01*
X163457867Y-108537831D01*
X163505486Y-108633069D01*
X163505486Y-108871164D01*
X163457867Y-108966402D01*
X163410248Y-109014021D01*
X163315010Y-109061640D01*
X163076915Y-109061640D01*
X162981677Y-109014021D01*
X162934058Y-108966402D01*
X174385486Y-67851640D02*
X174385486Y-68565926D01*
X174337867Y-68708783D01*
X174242629Y-68804021D01*
X174099772Y-68851640D01*
X174004534Y-68851640D01*
X175290248Y-68184974D02*
X175290248Y-68851640D01*
X175052153Y-67804021D02*
X174814058Y-68518307D01*
X175433105Y-68518307D01*
X150661677Y-93965926D02*
X151137867Y-93965926D01*
X150566439Y-94251640D02*
X150899772Y-93251640D01*
X151233105Y-94251640D01*
X152137867Y-94251640D02*
X151804534Y-93775450D01*
X151566439Y-94251640D02*
X151566439Y-93251640D01*
X151947391Y-93251640D01*
X152042629Y-93299260D01*
X152090248Y-93346879D01*
X152137867Y-93442117D01*
X152137867Y-93584974D01*
X152090248Y-93680212D01*
X152042629Y-93727831D01*
X151947391Y-93775450D01*
X151566439Y-93775450D01*
X152566439Y-94251640D02*
X152566439Y-93251640D01*
X152804534Y-93251640D01*
X152947391Y-93299260D01*
X153042629Y-93394498D01*
X153090248Y-93489736D01*
X153137867Y-93680212D01*
X153137867Y-93823069D01*
X153090248Y-94013545D01*
X153042629Y-94108783D01*
X152947391Y-94204021D01*
X152804534Y-94251640D01*
X152566439Y-94251640D01*
X153566439Y-93251640D02*
X153566439Y-94061164D01*
X153614058Y-94156402D01*
X153661677Y-94204021D01*
X153756915Y-94251640D01*
X153947391Y-94251640D01*
X154042629Y-94204021D01*
X154090248Y-94156402D01*
X154137867Y-94061164D01*
X154137867Y-93251640D01*
X154614058Y-94251640D02*
X154614058Y-93251640D01*
X155090248Y-94251640D02*
X155090248Y-93251640D01*
X155661677Y-94251640D01*
X155661677Y-93251640D01*
X156328343Y-93251640D02*
X156518820Y-93251640D01*
X156614058Y-93299260D01*
X156709296Y-93394498D01*
X156756915Y-93584974D01*
X156756915Y-93918307D01*
X156709296Y-94108783D01*
X156614058Y-94204021D01*
X156518820Y-94251640D01*
X156328343Y-94251640D01*
X156233105Y-94204021D01*
X156137867Y-94108783D01*
X156090248Y-93918307D01*
X156090248Y-93584974D01*
X156137867Y-93394498D01*
X156233105Y-93299260D01*
X156328343Y-93251640D01*
X156947391Y-94346879D02*
X157709296Y-94346879D01*
X157947391Y-94251640D02*
X157947391Y-93251640D01*
X158518820Y-94251640D01*
X158518820Y-93251640D01*
X158947391Y-93965926D02*
X159423581Y-93965926D01*
X158852153Y-94251640D02*
X159185486Y-93251640D01*
X159518820Y-94251640D01*
X159852153Y-94251640D02*
X159852153Y-93251640D01*
X160423581Y-94251640D01*
X160423581Y-93251640D01*
X161090248Y-93251640D02*
X161280724Y-93251640D01*
X161375962Y-93299260D01*
X161471200Y-93394498D01*
X161518820Y-93584974D01*
X161518820Y-93918307D01*
X161471200Y-94108783D01*
X161375962Y-94204021D01*
X161280724Y-94251640D01*
X161090248Y-94251640D01*
X160995010Y-94204021D01*
X160899772Y-94108783D01*
X160852153Y-93918307D01*
X160852153Y-93584974D01*
X160899772Y-93394498D01*
X160995010Y-93299260D01*
X161090248Y-93251640D01*
X161709296Y-94346879D02*
X162471200Y-94346879D01*
X162995010Y-94632593D02*
X162947391Y-94584974D01*
X162852153Y-94442117D01*
X162804534Y-94346879D01*
X162756915Y-94204021D01*
X162709296Y-93965926D01*
X162709296Y-93775450D01*
X162756915Y-93537355D01*
X162804534Y-93394498D01*
X162852153Y-93299260D01*
X162947391Y-93156402D01*
X162995010Y-93108783D01*
X163852153Y-93251640D02*
X163375962Y-93251640D01*
X163328343Y-93727831D01*
X163375962Y-93680212D01*
X163471200Y-93632593D01*
X163709296Y-93632593D01*
X163804534Y-93680212D01*
X163852153Y-93727831D01*
X163899772Y-93823069D01*
X163899772Y-94061164D01*
X163852153Y-94156402D01*
X163804534Y-94204021D01*
X163709296Y-94251640D01*
X163471200Y-94251640D01*
X163375962Y-94204021D01*
X163328343Y-94156402D01*
X164185486Y-93251640D02*
X164518820Y-94251640D01*
X164852153Y-93251640D01*
X165090248Y-94632593D02*
X165137867Y-94584974D01*
X165233105Y-94442117D01*
X165280724Y-94346879D01*
X165328343Y-94204021D01*
X165375962Y-93965926D01*
X165375962Y-93775450D01*
X165328343Y-93537355D01*
X165280724Y-93394498D01*
X165233105Y-93299260D01*
X165137867Y-93156402D01*
X165090248Y-93108783D01*
X166375962Y-94251640D02*
X165804534Y-94251640D01*
X166090248Y-94251640D02*
X166090248Y-93251640D01*
X165995010Y-93394498D01*
X165899772Y-93489736D01*
X165804534Y-93537355D01*
X177470724Y-74621640D02*
X177470724Y-73621640D01*
X177708820Y-73621640D01*
X177851677Y-73669260D01*
X177946915Y-73764498D01*
X177994534Y-73859736D01*
X178042153Y-74050212D01*
X178042153Y-74193069D01*
X177994534Y-74383545D01*
X177946915Y-74478783D01*
X177851677Y-74574021D01*
X177708820Y-74621640D01*
X177470724Y-74621640D01*
X178994534Y-74621640D02*
X178423105Y-74621640D01*
X178708820Y-74621640D02*
X178708820Y-73621640D01*
X178613581Y-73764498D01*
X178518343Y-73859736D01*
X178423105Y-73907355D01*
X125102153Y-82526402D02*
X125054534Y-82574021D01*
X124911677Y-82621640D01*
X124816439Y-82621640D01*
X124673581Y-82574021D01*
X124578343Y-82478783D01*
X124530724Y-82383545D01*
X124483105Y-82193069D01*
X124483105Y-82050212D01*
X124530724Y-81859736D01*
X124578343Y-81764498D01*
X124673581Y-81669260D01*
X124816439Y-81621640D01*
X124911677Y-81621640D01*
X125054534Y-81669260D01*
X125102153Y-81716879D01*
X126054534Y-82621640D02*
X125483105Y-82621640D01*
X125768820Y-82621640D02*
X125768820Y-81621640D01*
X125673581Y-81764498D01*
X125578343Y-81859736D01*
X125483105Y-81907355D01*
X128562153Y-90831640D02*
X128228820Y-90355450D01*
X127990724Y-90831640D02*
X127990724Y-89831640D01*
X128371677Y-89831640D01*
X128466915Y-89879260D01*
X128514534Y-89926879D01*
X128562153Y-90022117D01*
X128562153Y-90164974D01*
X128514534Y-90260212D01*
X128466915Y-90307831D01*
X128371677Y-90355450D01*
X127990724Y-90355450D01*
X129419296Y-90164974D02*
X129419296Y-90831640D01*
X129181200Y-89784021D02*
X128943105Y-90498307D01*
X129562153Y-90498307D01*
X124812153Y-106601640D02*
X124478820Y-106125450D01*
X124240724Y-106601640D02*
X124240724Y-105601640D01*
X124621677Y-105601640D01*
X124716915Y-105649260D01*
X124764534Y-105696879D01*
X124812153Y-105792117D01*
X124812153Y-105934974D01*
X124764534Y-106030212D01*
X124716915Y-106077831D01*
X124621677Y-106125450D01*
X124240724Y-106125450D01*
X125145486Y-105601640D02*
X125764534Y-105601640D01*
X125431200Y-105982593D01*
X125574058Y-105982593D01*
X125669296Y-106030212D01*
X125716915Y-106077831D01*
X125764534Y-106173069D01*
X125764534Y-106411164D01*
X125716915Y-106506402D01*
X125669296Y-106554021D01*
X125574058Y-106601640D01*
X125288343Y-106601640D01*
X125193105Y-106554021D01*
X125145486Y-106506402D01*
X136860735Y-83651640D02*
X136860735Y-84461164D01*
X136908354Y-84556402D01*
X136955973Y-84604021D01*
X137051211Y-84651640D01*
X137241687Y-84651640D01*
X137336925Y-84604021D01*
X137384544Y-84556402D01*
X137432163Y-84461164D01*
X137432163Y-83651640D01*
X138432163Y-84651640D02*
X137860735Y-84651640D01*
X138146449Y-84651640D02*
X138146449Y-83651640D01*
X138051211Y-83794498D01*
X137955973Y-83889736D01*
X137860735Y-83937355D01*
X135971211Y-103575900D02*
X136161687Y-103575900D01*
X136256925Y-103623520D01*
X136352163Y-103718758D01*
X136399782Y-103909234D01*
X136399782Y-104242567D01*
X136352163Y-104433043D01*
X136256925Y-104528281D01*
X136161687Y-104575900D01*
X135971211Y-104575900D01*
X135875973Y-104528281D01*
X135780735Y-104433043D01*
X135733116Y-104242567D01*
X135733116Y-103909234D01*
X135780735Y-103718758D01*
X135875973Y-103623520D01*
X135971211Y-103575900D01*
X136828354Y-104575900D02*
X136828354Y-103575900D01*
X137399782Y-104575900D02*
X136971211Y-104004472D01*
X137399782Y-103575900D02*
X136828354Y-104147329D01*
X138352163Y-104575900D02*
X137780735Y-104575900D01*
X138066449Y-104575900D02*
X138066449Y-103575900D01*
X137971211Y-103718758D01*
X137875973Y-103813996D01*
X137780735Y-103861615D01*
X119121200Y-95077831D02*
X119121200Y-94506402D01*
X120121200Y-94792117D02*
X119121200Y-94792117D01*
X120121200Y-93601640D02*
X119645010Y-93934974D01*
X120121200Y-94173069D02*
X119121200Y-94173069D01*
X119121200Y-93792117D01*
X119168820Y-93696879D01*
X119216439Y-93649260D01*
X119311677Y-93601640D01*
X119454534Y-93601640D01*
X119549772Y-93649260D01*
X119597391Y-93696879D01*
X119645010Y-93792117D01*
X119645010Y-94173069D01*
X120121200Y-93173069D02*
X119121200Y-93173069D01*
X119835486Y-92744498D02*
X119835486Y-92268307D01*
X120121200Y-92839736D02*
X119121200Y-92506402D01*
X120121200Y-92173069D01*
X120025962Y-91268307D02*
X120073581Y-91315926D01*
X120121200Y-91458783D01*
X120121200Y-91554021D01*
X120073581Y-91696879D01*
X119978343Y-91792117D01*
X119883105Y-91839736D01*
X119692629Y-91887355D01*
X119549772Y-91887355D01*
X119359296Y-91839736D01*
X119264058Y-91792117D01*
X119168820Y-91696879D01*
X119121200Y-91554021D01*
X119121200Y-91458783D01*
X119168820Y-91315926D01*
X119216439Y-91268307D01*
X120121200Y-90315926D02*
X120121200Y-90887355D01*
X120121200Y-90601640D02*
X119121200Y-90601640D01*
X119264058Y-90696879D01*
X119359296Y-90792117D01*
X119406915Y-90887355D01*
X155927153Y-104696640D02*
X155593820Y-104220450D01*
X155355724Y-104696640D02*
X155355724Y-103696640D01*
X155736677Y-103696640D01*
X155831915Y-103744260D01*
X155879534Y-103791879D01*
X155927153Y-103887117D01*
X155927153Y-104029974D01*
X155879534Y-104125212D01*
X155831915Y-104172831D01*
X155736677Y-104220450D01*
X155355724Y-104220450D01*
X156831915Y-103696640D02*
X156355724Y-103696640D01*
X156308105Y-104172831D01*
X156355724Y-104125212D01*
X156450962Y-104077593D01*
X156689058Y-104077593D01*
X156784296Y-104125212D01*
X156831915Y-104172831D01*
X156879534Y-104268069D01*
X156879534Y-104506164D01*
X156831915Y-104601402D01*
X156784296Y-104649021D01*
X156689058Y-104696640D01*
X156450962Y-104696640D01*
X156355724Y-104649021D01*
X156308105Y-104601402D01*
X135683616Y-68243360D02*
X135683616Y-68957646D01*
X135635997Y-69100503D01*
X135540759Y-69195741D01*
X135397901Y-69243360D01*
X135302663Y-69243360D01*
X136683616Y-69243360D02*
X136112187Y-69243360D01*
X136397901Y-69243360D02*
X136397901Y-68243360D01*
X136302663Y-68386218D01*
X136207425Y-68481456D01*
X136112187Y-68529075D01*
X137540759Y-68576694D02*
X137540759Y-69243360D01*
X137302663Y-68195741D02*
X137064568Y-68910027D01*
X137683616Y-68910027D01*
X135683616Y-108243360D02*
X135683616Y-108957646D01*
X135635997Y-109100503D01*
X135540759Y-109195741D01*
X135397901Y-109243360D01*
X135302663Y-109243360D01*
X136683616Y-109243360D02*
X136112187Y-109243360D01*
X136397901Y-109243360D02*
X136397901Y-108243360D01*
X136302663Y-108386218D01*
X136207425Y-108481456D01*
X136112187Y-108529075D01*
X137016949Y-108243360D02*
X137635997Y-108243360D01*
X137302663Y-108624313D01*
X137445520Y-108624313D01*
X137540759Y-108671932D01*
X137588378Y-108719551D01*
X137635997Y-108814789D01*
X137635997Y-109052884D01*
X137588378Y-109148122D01*
X137540759Y-109195741D01*
X137445520Y-109243360D01*
X137159806Y-109243360D01*
X137064568Y-109195741D01*
X137016949Y-109148122D01*
X195709296Y-107961640D02*
X195709296Y-108675926D01*
X195661677Y-108818783D01*
X195566439Y-108914021D01*
X195423581Y-108961640D01*
X195328343Y-108961640D01*
X196709296Y-108961640D02*
X196137867Y-108961640D01*
X196423581Y-108961640D02*
X196423581Y-107961640D01*
X196328343Y-108104498D01*
X196233105Y-108199736D01*
X196137867Y-108247355D01*
X197090248Y-108056879D02*
X197137867Y-108009260D01*
X197233105Y-107961640D01*
X197471200Y-107961640D01*
X197566439Y-108009260D01*
X197614058Y-108056879D01*
X197661677Y-108152117D01*
X197661677Y-108247355D01*
X197614058Y-108390212D01*
X197042629Y-108961640D01*
X197661677Y-108961640D01*
X190923581Y-76646879D02*
X190828343Y-76599260D01*
X190733105Y-76504021D01*
X190590248Y-76361164D01*
X190495010Y-76313545D01*
X190399772Y-76313545D01*
X190447391Y-76551640D02*
X190352153Y-76504021D01*
X190256915Y-76408783D01*
X190209296Y-76218307D01*
X190209296Y-75884974D01*
X190256915Y-75694498D01*
X190352153Y-75599260D01*
X190447391Y-75551640D01*
X190637867Y-75551640D01*
X190733105Y-75599260D01*
X190828343Y-75694498D01*
X190875962Y-75884974D01*
X190875962Y-76218307D01*
X190828343Y-76408783D01*
X190733105Y-76504021D01*
X190637867Y-76551640D01*
X190447391Y-76551640D01*
X191828343Y-76551640D02*
X191256915Y-76551640D01*
X191542629Y-76551640D02*
X191542629Y-75551640D01*
X191447391Y-75694498D01*
X191352153Y-75789736D01*
X191256915Y-75837355D01*
X127922153Y-106641640D02*
X127588820Y-106165450D01*
X127350724Y-106641640D02*
X127350724Y-105641640D01*
X127731677Y-105641640D01*
X127826915Y-105689260D01*
X127874534Y-105736879D01*
X127922153Y-105832117D01*
X127922153Y-105974974D01*
X127874534Y-106070212D01*
X127826915Y-106117831D01*
X127731677Y-106165450D01*
X127350724Y-106165450D01*
X128303105Y-105736879D02*
X128350724Y-105689260D01*
X128445962Y-105641640D01*
X128684058Y-105641640D01*
X128779296Y-105689260D01*
X128826915Y-105736879D01*
X128874534Y-105832117D01*
X128874534Y-105927355D01*
X128826915Y-106070212D01*
X128255486Y-106641640D01*
X128874534Y-106641640D01*
X131222153Y-109271640D02*
X130888820Y-108795450D01*
X130650724Y-109271640D02*
X130650724Y-108271640D01*
X131031677Y-108271640D01*
X131126915Y-108319260D01*
X131174534Y-108366879D01*
X131222153Y-108462117D01*
X131222153Y-108604974D01*
X131174534Y-108700212D01*
X131126915Y-108747831D01*
X131031677Y-108795450D01*
X130650724Y-108795450D01*
X132174534Y-109271640D02*
X131603105Y-109271640D01*
X131888820Y-109271640D02*
X131888820Y-108271640D01*
X131793581Y-108414498D01*
X131698343Y-108509736D01*
X131603105Y-108557355D01*
X164327867Y-77177831D02*
X164470724Y-77225450D01*
X164518343Y-77273069D01*
X164565962Y-77368307D01*
X164565962Y-77511164D01*
X164518343Y-77606402D01*
X164470724Y-77654021D01*
X164375486Y-77701640D01*
X163994534Y-77701640D01*
X163994534Y-76701640D01*
X164327867Y-76701640D01*
X164423105Y-76749260D01*
X164470724Y-76796879D01*
X164518343Y-76892117D01*
X164518343Y-76987355D01*
X164470724Y-77082593D01*
X164423105Y-77130212D01*
X164327867Y-77177831D01*
X163994534Y-77177831D01*
X164899296Y-76701640D02*
X165565962Y-76701640D01*
X164899296Y-77701640D01*
X165565962Y-77701640D01*
X166470724Y-77701640D02*
X165899296Y-77701640D01*
X166185010Y-77701640D02*
X166185010Y-76701640D01*
X166089772Y-76844498D01*
X165994534Y-76939736D01*
X165899296Y-76987355D01*
X182852153Y-81781402D02*
X182804534Y-81829021D01*
X182661677Y-81876640D01*
X182566439Y-81876640D01*
X182423581Y-81829021D01*
X182328343Y-81733783D01*
X182280724Y-81638545D01*
X182233105Y-81448069D01*
X182233105Y-81305212D01*
X182280724Y-81114736D01*
X182328343Y-81019498D01*
X182423581Y-80924260D01*
X182566439Y-80876640D01*
X182661677Y-80876640D01*
X182804534Y-80924260D01*
X182852153Y-80971879D01*
X183233105Y-80971879D02*
X183280724Y-80924260D01*
X183375962Y-80876640D01*
X183614058Y-80876640D01*
X183709296Y-80924260D01*
X183756915Y-80971879D01*
X183804534Y-81067117D01*
X183804534Y-81162355D01*
X183756915Y-81305212D01*
X183185486Y-81876640D01*
X183804534Y-81876640D01*
X171792153Y-77721640D02*
X171458820Y-77245450D01*
X171220724Y-77721640D02*
X171220724Y-76721640D01*
X171601677Y-76721640D01*
X171696915Y-76769260D01*
X171744534Y-76816879D01*
X171792153Y-76912117D01*
X171792153Y-77054974D01*
X171744534Y-77150212D01*
X171696915Y-77197831D01*
X171601677Y-77245450D01*
X171220724Y-77245450D01*
X172649296Y-76721640D02*
X172458820Y-76721640D01*
X172363581Y-76769260D01*
X172315962Y-76816879D01*
X172220724Y-76959736D01*
X172173105Y-77150212D01*
X172173105Y-77531164D01*
X172220724Y-77626402D01*
X172268343Y-77674021D01*
X172363581Y-77721640D01*
X172554058Y-77721640D01*
X172649296Y-77674021D01*
X172696915Y-77626402D01*
X172744534Y-77531164D01*
X172744534Y-77293069D01*
X172696915Y-77197831D01*
X172649296Y-77150212D01*
X172554058Y-77102593D01*
X172363581Y-77102593D01*
X172268343Y-77150212D01*
X172220724Y-77197831D01*
X172173105Y-77293069D01*
X186152153Y-77951640D02*
X185818820Y-77475450D01*
X185580724Y-77951640D02*
X185580724Y-76951640D01*
X185961677Y-76951640D01*
X186056915Y-76999260D01*
X186104534Y-77046879D01*
X186152153Y-77142117D01*
X186152153Y-77284974D01*
X186104534Y-77380212D01*
X186056915Y-77427831D01*
X185961677Y-77475450D01*
X185580724Y-77475450D01*
X186485486Y-76951640D02*
X187152153Y-76951640D01*
X186723581Y-77951640D01*
X177555486Y-108181640D02*
X177555486Y-108895926D01*
X177507867Y-109038783D01*
X177412629Y-109134021D01*
X177269772Y-109181640D01*
X177174534Y-109181640D01*
X178079296Y-109181640D02*
X178269772Y-109181640D01*
X178365010Y-109134021D01*
X178412629Y-109086402D01*
X178507867Y-108943545D01*
X178555486Y-108753069D01*
X178555486Y-108372117D01*
X178507867Y-108276879D01*
X178460248Y-108229260D01*
X178365010Y-108181640D01*
X178174534Y-108181640D01*
X178079296Y-108229260D01*
X178031677Y-108276879D01*
X177984058Y-108372117D01*
X177984058Y-108610212D01*
X178031677Y-108705450D01*
X178079296Y-108753069D01*
X178174534Y-108800688D01*
X178365010Y-108800688D01*
X178460248Y-108753069D01*
X178507867Y-108705450D01*
X178555486Y-108610212D01*
X116706200Y-112657593D02*
X117420486Y-112657593D01*
X117563343Y-112705212D01*
X117658581Y-112800450D01*
X117706200Y-112943307D01*
X117706200Y-113038545D01*
X117706200Y-111657593D02*
X117706200Y-112229021D01*
X117706200Y-111943307D02*
X116706200Y-111943307D01*
X116849058Y-112038545D01*
X116944296Y-112133783D01*
X116991915Y-112229021D01*
X116806200Y-74007593D02*
X117520486Y-74007593D01*
X117663343Y-74055212D01*
X117758581Y-74150450D01*
X117806200Y-74293307D01*
X117806200Y-74388545D01*
X116901439Y-73579021D02*
X116853820Y-73531402D01*
X116806200Y-73436164D01*
X116806200Y-73198069D01*
X116853820Y-73102831D01*
X116901439Y-73055212D01*
X116996677Y-73007593D01*
X117091915Y-73007593D01*
X117234772Y-73055212D01*
X117806200Y-73626640D01*
X117806200Y-73007593D01*
X154195486Y-62631640D02*
X154195486Y-63345926D01*
X154147867Y-63488783D01*
X154052629Y-63584021D01*
X153909772Y-63631640D01*
X153814534Y-63631640D01*
X154576439Y-62631640D02*
X155195486Y-62631640D01*
X154862153Y-63012593D01*
X155005010Y-63012593D01*
X155100248Y-63060212D01*
X155147867Y-63107831D01*
X155195486Y-63203069D01*
X155195486Y-63441164D01*
X155147867Y-63536402D01*
X155100248Y-63584021D01*
X155005010Y-63631640D01*
X154719296Y-63631640D01*
X154624058Y-63584021D01*
X154576439Y-63536402D01*
X143785486Y-80791640D02*
X143785486Y-81505926D01*
X143737867Y-81648783D01*
X143642629Y-81744021D01*
X143499772Y-81791640D01*
X143404534Y-81791640D01*
X144261677Y-81791640D02*
X144261677Y-80791640D01*
X144642629Y-80791640D01*
X144737867Y-80839260D01*
X144785486Y-80886879D01*
X144833105Y-80982117D01*
X144833105Y-81124974D01*
X144785486Y-81220212D01*
X144737867Y-81267831D01*
X144642629Y-81315450D01*
X144261677Y-81315450D01*
X145785486Y-81791640D02*
X145214058Y-81791640D01*
X145499772Y-81791640D02*
X145499772Y-80791640D01*
X145404534Y-80934498D01*
X145309296Y-81029736D01*
X145214058Y-81077355D01*
X144495476Y-114282380D02*
X144495476Y-114996666D01*
X144447857Y-115139523D01*
X144352619Y-115234761D01*
X144209761Y-115282380D01*
X144114523Y-115282380D01*
X145495476Y-115282380D02*
X144924047Y-115282380D01*
X145209761Y-115282380D02*
X145209761Y-114282380D01*
X145114523Y-114425238D01*
X145019285Y-114520476D01*
X144924047Y-114568095D01*
X146447857Y-115282380D02*
X145876428Y-115282380D01*
X146162142Y-115282380D02*
X146162142Y-114282380D01*
X146066904Y-114425238D01*
X145971666Y-114520476D01*
X145876428Y-114568095D01*
X108925486Y-88757831D02*
X108592153Y-88757831D01*
X108592153Y-89281640D02*
X108592153Y-88281640D01*
X109068343Y-88281640D01*
X109973105Y-89281640D02*
X109401677Y-89281640D01*
X109687391Y-89281640D02*
X109687391Y-88281640D01*
X109592153Y-88424498D01*
X109496915Y-88519736D01*
X109401677Y-88567355D01*
M02*
