G04 #@! TF.GenerationSoftware,KiCad,Pcbnew,(5.1.8-0-10_14)*
G04 #@! TF.CreationDate,2021-01-11T22:35:15+01:00*
G04 #@! TF.ProjectId,arduino_nano_reflow_TRIAC_v1_0,61726475-696e-46f5-9f6e-616e6f5f7265,1.0*
G04 #@! TF.SameCoordinates,Original*
G04 #@! TF.FileFunction,Soldermask,Bot*
G04 #@! TF.FilePolarity,Negative*
%FSLAX46Y46*%
G04 Gerber Fmt 4.6, Leading zero omitted, Abs format (unit mm)*
G04 Created by KiCad (PCBNEW (5.1.8-0-10_14)) date 2021-01-11 22:35:15*
%MOMM*%
%LPD*%
G01*
G04 APERTURE LIST*
%ADD10C,2.600000*%
%ADD11R,2.600000X2.600000*%
%ADD12O,1.700000X1.700000*%
%ADD13R,1.700000X1.700000*%
%ADD14O,1.600000X1.600000*%
%ADD15R,1.600000X1.600000*%
%ADD16O,1.800000X1.800000*%
%ADD17R,1.800000X1.800000*%
%ADD18C,1.600000*%
%ADD19O,2.000000X1.905000*%
%ADD20R,2.000000X1.905000*%
%ADD21C,6.400000*%
%ADD22O,1.905000X2.000000*%
%ADD23R,1.905000X2.000000*%
%ADD24C,2.000000*%
%ADD25R,2.000000X2.000000*%
%ADD26C,2.350000*%
G04 APERTURE END LIST*
D10*
X190018820Y-63199260D03*
D11*
X195018820Y-63199260D03*
D12*
X159858820Y-108690000D03*
X157318820Y-108690000D03*
X154778820Y-108690000D03*
D13*
X152238820Y-108690000D03*
D10*
X178618820Y-63199260D03*
D11*
X183618820Y-63199260D03*
D14*
X183428820Y-86459260D03*
X183428820Y-101699260D03*
X147868820Y-86459260D03*
X180888820Y-101699260D03*
X150408820Y-86459260D03*
X178348820Y-101699260D03*
X152948820Y-86459260D03*
X175808820Y-101699260D03*
X155488820Y-86459260D03*
X173268820Y-101699260D03*
X158028820Y-86459260D03*
X170728820Y-101699260D03*
X160568820Y-86459260D03*
X168188820Y-101699260D03*
X163108820Y-86459260D03*
X165648820Y-101699260D03*
X165648820Y-86459260D03*
X163108820Y-101699260D03*
X168188820Y-86459260D03*
X160568820Y-101699260D03*
X170728820Y-86459260D03*
X158028820Y-101699260D03*
X173268820Y-86459260D03*
X155488820Y-101699260D03*
X175808820Y-86459260D03*
X152948820Y-101699260D03*
X178348820Y-86459260D03*
X150408820Y-101699260D03*
X180888820Y-86459260D03*
D15*
X147868820Y-101699260D03*
D16*
X180298820Y-71799260D03*
D17*
X175218820Y-71799260D03*
D18*
X124985000Y-88925000D03*
X124985000Y-83925000D03*
D14*
X132538820Y-92749260D03*
D18*
X124918820Y-92749260D03*
D14*
X124985000Y-104245000D03*
D18*
X124985000Y-96625000D03*
D14*
X134998820Y-91545000D03*
X142618820Y-86465000D03*
X134998820Y-89005000D03*
X142618820Y-89005000D03*
X134998820Y-86465000D03*
D15*
X142618820Y-91545000D03*
D14*
X142638820Y-96649260D03*
X135018820Y-101729260D03*
X142638820Y-99189260D03*
X135018820Y-99189260D03*
X142638820Y-101729260D03*
D15*
X135018820Y-96649260D03*
D19*
X114823820Y-95339260D03*
X114823820Y-92799260D03*
D20*
X114823820Y-90259260D03*
D21*
X136493140Y-72990980D03*
X136493140Y-112990980D03*
X196493140Y-112990980D03*
D22*
X189698820Y-73599260D03*
X187158820Y-73599260D03*
D23*
X184618820Y-73599260D03*
D14*
X128160000Y-96625000D03*
D18*
X128160000Y-104245000D03*
D14*
X131335000Y-99165000D03*
D18*
X131335000Y-106785000D03*
D24*
X157370000Y-73150000D03*
D25*
X157370000Y-80750000D03*
D12*
X191025000Y-108690000D03*
X188485000Y-108690000D03*
X185945000Y-108690000D03*
X183405000Y-108690000D03*
D13*
X180865000Y-108690000D03*
D10*
X110993820Y-114824260D03*
D11*
X110993820Y-109824260D03*
D10*
X111093820Y-76174260D03*
D11*
X111093820Y-71174260D03*
D10*
X145718820Y-63199260D03*
D11*
X150718820Y-63199260D03*
D13*
X147845000Y-81385000D03*
D12*
X147845000Y-78845000D03*
D13*
X145305000Y-112500000D03*
D12*
X145305000Y-109960000D03*
X145305000Y-107420000D03*
D26*
X104663820Y-97639260D03*
X104663820Y-102639260D03*
X104663820Y-87639260D03*
X104663820Y-82639260D03*
M02*
