G04 #@! TF.GenerationSoftware,KiCad,Pcbnew,(5.1.6-0-10_14)*
G04 #@! TF.CreationDate,2020-05-23T00:01:56+02:00*
G04 #@! TF.ProjectId,arduino_nano_reflow_TRIAC_v1_0,61726475-696e-46f5-9f6e-616e6f5f7265,1.0*
G04 #@! TF.SameCoordinates,Original*
G04 #@! TF.FileFunction,Legend,Top*
G04 #@! TF.FilePolarity,Positive*
%FSLAX46Y46*%
G04 Gerber Fmt 4.6, Leading zero omitted, Abs format (unit mm)*
G04 Created by KiCad (PCBNEW (5.1.6-0-10_14)) date 2020-05-23 00:01:56*
%MOMM*%
%LPD*%
G01*
G04 APERTURE LIST*
%ADD10C,0.150000*%
%ADD11C,0.200000*%
%ADD12C,0.300000*%
%ADD13C,0.120000*%
%ADD14C,0.191466*%
%ADD15C,0.250000*%
G04 APERTURE END LIST*
D10*
X154519200Y-112783664D02*
X153519200Y-112783664D01*
X153519200Y-112545569D01*
X153566820Y-112402712D01*
X153662058Y-112307474D01*
X153757296Y-112259855D01*
X153947772Y-112212236D01*
X154090629Y-112212236D01*
X154281105Y-112259855D01*
X154376343Y-112307474D01*
X154471581Y-112402712D01*
X154519200Y-112545569D01*
X154519200Y-112783664D01*
X153519200Y-111307474D02*
X153519200Y-111783664D01*
X153995391Y-111831283D01*
X153947772Y-111783664D01*
X153900153Y-111688426D01*
X153900153Y-111450331D01*
X153947772Y-111355093D01*
X153995391Y-111307474D01*
X154090629Y-111259855D01*
X154328724Y-111259855D01*
X154423962Y-111307474D01*
X154471581Y-111355093D01*
X154519200Y-111450331D01*
X154519200Y-111688426D01*
X154471581Y-111783664D01*
X154423962Y-111831283D01*
X151979200Y-112783664D02*
X150979200Y-112783664D01*
X150979200Y-112545569D01*
X151026820Y-112402712D01*
X151122058Y-112307474D01*
X151217296Y-112259855D01*
X151407772Y-112212236D01*
X151550629Y-112212236D01*
X151741105Y-112259855D01*
X151836343Y-112307474D01*
X151931581Y-112402712D01*
X151979200Y-112545569D01*
X151979200Y-112783664D01*
X151312534Y-111355093D02*
X151979200Y-111355093D01*
X150931581Y-111593188D02*
X151645867Y-111831283D01*
X151645867Y-111212236D01*
X148486820Y-112259855D02*
X148439200Y-112355093D01*
X148439200Y-112497950D01*
X148486820Y-112640807D01*
X148582058Y-112736045D01*
X148677296Y-112783664D01*
X148867772Y-112831283D01*
X149010629Y-112831283D01*
X149201105Y-112783664D01*
X149296343Y-112736045D01*
X149391581Y-112640807D01*
X149439200Y-112497950D01*
X149439200Y-112402712D01*
X149391581Y-112259855D01*
X149343962Y-112212236D01*
X149010629Y-112212236D01*
X149010629Y-112402712D01*
X149439200Y-111783664D02*
X148439200Y-111783664D01*
X149439200Y-111212236D01*
X148439200Y-111212236D01*
X149439200Y-110736045D02*
X148439200Y-110736045D01*
X148439200Y-110497950D01*
X148486820Y-110355093D01*
X148582058Y-110259855D01*
X148677296Y-110212236D01*
X148867772Y-110164617D01*
X149010629Y-110164617D01*
X149201105Y-110212236D01*
X149296343Y-110259855D01*
X149391581Y-110355093D01*
X149439200Y-110497950D01*
X149439200Y-110736045D01*
D11*
X102829523Y-70005000D02*
X104079523Y-70005000D01*
X103484285Y-70005000D02*
X103484285Y-70719285D01*
X102829523Y-70719285D02*
X104079523Y-70719285D01*
X103484285Y-71314523D02*
X103484285Y-71731190D01*
X102829523Y-71909761D02*
X102829523Y-71314523D01*
X104079523Y-71314523D01*
X104079523Y-71909761D01*
X103186666Y-72385952D02*
X103186666Y-72981190D01*
X102829523Y-72266904D02*
X104079523Y-72683571D01*
X102829523Y-73100238D01*
X104079523Y-73338333D02*
X104079523Y-74052619D01*
X102829523Y-73695476D02*
X104079523Y-73695476D01*
X103484285Y-74469285D02*
X103484285Y-74885952D01*
X102829523Y-75064523D02*
X102829523Y-74469285D01*
X104079523Y-74469285D01*
X104079523Y-75064523D01*
X102829523Y-76314523D02*
X103424761Y-75897857D01*
X102829523Y-75600238D02*
X104079523Y-75600238D01*
X104079523Y-76076428D01*
X104020000Y-76195476D01*
X103960476Y-76255000D01*
X103841428Y-76314523D01*
X103662857Y-76314523D01*
X103543809Y-76255000D01*
X103484285Y-76195476D01*
X103424761Y-76076428D01*
X103424761Y-75600238D01*
X103186666Y-110783809D02*
X103186666Y-111379047D01*
X102829523Y-110664761D02*
X104079523Y-111081428D01*
X102829523Y-111498095D01*
X102948571Y-112629047D02*
X102889047Y-112569523D01*
X102829523Y-112390952D01*
X102829523Y-112271904D01*
X102889047Y-112093333D01*
X103008095Y-111974285D01*
X103127142Y-111914761D01*
X103365238Y-111855238D01*
X103543809Y-111855238D01*
X103781904Y-111914761D01*
X103900952Y-111974285D01*
X104020000Y-112093333D01*
X104079523Y-112271904D01*
X104079523Y-112390952D01*
X104020000Y-112569523D01*
X103960476Y-112629047D01*
X102829523Y-114117142D02*
X104079523Y-114117142D01*
X102829523Y-114712380D02*
X104079523Y-114712380D01*
X102829523Y-115426666D01*
X104079523Y-115426666D01*
D12*
X197834248Y-108725741D02*
X199167581Y-108725741D01*
X198024724Y-108725741D02*
X197929486Y-108630503D01*
X197834248Y-108440027D01*
X197834248Y-108154313D01*
X197929486Y-107963837D01*
X198119962Y-107868599D01*
X199167581Y-107868599D01*
X199167581Y-106059075D02*
X198119962Y-106059075D01*
X197929486Y-106154313D01*
X197834248Y-106344789D01*
X197834248Y-106725741D01*
X197929486Y-106916218D01*
X199072343Y-106059075D02*
X199167581Y-106249551D01*
X199167581Y-106725741D01*
X199072343Y-106916218D01*
X198881867Y-107011456D01*
X198691391Y-107011456D01*
X198500915Y-106916218D01*
X198405677Y-106725741D01*
X198405677Y-106249551D01*
X198310439Y-106059075D01*
X197834248Y-105106694D02*
X199167581Y-105106694D01*
X198024724Y-105106694D02*
X197929486Y-105011456D01*
X197834248Y-104820980D01*
X197834248Y-104535265D01*
X197929486Y-104344789D01*
X198119962Y-104249551D01*
X199167581Y-104249551D01*
X199167581Y-103011456D02*
X199072343Y-103201932D01*
X198977105Y-103297170D01*
X198786629Y-103392408D01*
X198215200Y-103392408D01*
X198024724Y-103297170D01*
X197929486Y-103201932D01*
X197834248Y-103011456D01*
X197834248Y-102725741D01*
X197929486Y-102535265D01*
X198024724Y-102440027D01*
X198215200Y-102344789D01*
X198786629Y-102344789D01*
X198977105Y-102440027D01*
X199072343Y-102535265D01*
X199167581Y-102725741D01*
X199167581Y-103011456D01*
X199167581Y-100344789D02*
X198215200Y-101011456D01*
X199167581Y-101487646D02*
X197167581Y-101487646D01*
X197167581Y-100725741D01*
X197262820Y-100535265D01*
X197358058Y-100440027D01*
X197548534Y-100344789D01*
X197834248Y-100344789D01*
X198024724Y-100440027D01*
X198119962Y-100535265D01*
X198215200Y-100725741D01*
X198215200Y-101487646D01*
X199072343Y-98725741D02*
X199167581Y-98916218D01*
X199167581Y-99297170D01*
X199072343Y-99487646D01*
X198881867Y-99582884D01*
X198119962Y-99582884D01*
X197929486Y-99487646D01*
X197834248Y-99297170D01*
X197834248Y-98916218D01*
X197929486Y-98725741D01*
X198119962Y-98630503D01*
X198310439Y-98630503D01*
X198500915Y-99582884D01*
X197834248Y-98059075D02*
X197834248Y-97297170D01*
X199167581Y-97773360D02*
X197453296Y-97773360D01*
X197262820Y-97678122D01*
X197167581Y-97487646D01*
X197167581Y-97297170D01*
X199167581Y-96344789D02*
X199072343Y-96535265D01*
X198881867Y-96630503D01*
X197167581Y-96630503D01*
X199167581Y-95297170D02*
X199072343Y-95487646D01*
X198977105Y-95582884D01*
X198786629Y-95678122D01*
X198215200Y-95678122D01*
X198024724Y-95582884D01*
X197929486Y-95487646D01*
X197834248Y-95297170D01*
X197834248Y-95011456D01*
X197929486Y-94820980D01*
X198024724Y-94725741D01*
X198215200Y-94630503D01*
X198786629Y-94630503D01*
X198977105Y-94725741D01*
X199072343Y-94820980D01*
X199167581Y-95011456D01*
X199167581Y-95297170D01*
X197834248Y-93963837D02*
X199167581Y-93582884D01*
X198215200Y-93201932D01*
X199167581Y-92820980D01*
X197834248Y-92440027D01*
X197834248Y-90344789D02*
X199167581Y-89868599D01*
X197834248Y-89392408D01*
X199167581Y-87582884D02*
X199167581Y-88725741D01*
X199167581Y-88154313D02*
X197167581Y-88154313D01*
X197453296Y-88344789D01*
X197643772Y-88535265D01*
X197739010Y-88725741D01*
X198977105Y-86725741D02*
X199072343Y-86630503D01*
X199167581Y-86725741D01*
X199072343Y-86820980D01*
X198977105Y-86725741D01*
X199167581Y-86725741D01*
X197167581Y-85392408D02*
X197167581Y-85201932D01*
X197262820Y-85011456D01*
X197358058Y-84916218D01*
X197548534Y-84820980D01*
X197929486Y-84725741D01*
X198405677Y-84725741D01*
X198786629Y-84820980D01*
X198977105Y-84916218D01*
X199072343Y-85011456D01*
X199167581Y-85201932D01*
X199167581Y-85392408D01*
X199072343Y-85582884D01*
X198977105Y-85678122D01*
X198786629Y-85773360D01*
X198405677Y-85868599D01*
X197929486Y-85868599D01*
X197548534Y-85773360D01*
X197358058Y-85678122D01*
X197262820Y-85582884D01*
X197167581Y-85392408D01*
X199358058Y-84344789D02*
X199358058Y-82820980D01*
X199167581Y-82344789D02*
X197834248Y-82344789D01*
X198215200Y-82344789D02*
X198024724Y-82249551D01*
X197929486Y-82154313D01*
X197834248Y-81963837D01*
X197834248Y-81773360D01*
X199072343Y-80344789D02*
X199167581Y-80535265D01*
X199167581Y-80916218D01*
X199072343Y-81106694D01*
X198881867Y-81201932D01*
X198119962Y-81201932D01*
X197929486Y-81106694D01*
X197834248Y-80916218D01*
X197834248Y-80535265D01*
X197929486Y-80344789D01*
X198119962Y-80249551D01*
X198310439Y-80249551D01*
X198500915Y-81201932D01*
X197834248Y-79582884D02*
X199167581Y-79106694D01*
X197834248Y-78630503D01*
X197358058Y-77963837D02*
X197262820Y-77868599D01*
X197167581Y-77678122D01*
X197167581Y-77201932D01*
X197262820Y-77011456D01*
X197358058Y-76916218D01*
X197548534Y-76820980D01*
X197739010Y-76820980D01*
X198024724Y-76916218D01*
X199167581Y-78059075D01*
X199167581Y-76820980D01*
D13*
X192642820Y-70550000D02*
X192642820Y-80790000D01*
X188001820Y-70550000D02*
X188001820Y-80790000D01*
X192642820Y-70550000D02*
X188001820Y-70550000D01*
X192642820Y-80790000D02*
X188001820Y-80790000D01*
X191132820Y-70550000D02*
X191132820Y-80790000D01*
X192642820Y-73820000D02*
X191132820Y-73820000D01*
X192642820Y-77521000D02*
X191132820Y-77521000D01*
X127120000Y-103705000D02*
X126790000Y-103705000D01*
X126790000Y-103705000D02*
X126790000Y-97165000D01*
X126790000Y-97165000D02*
X127120000Y-97165000D01*
X129200000Y-103705000D02*
X129530000Y-103705000D01*
X129530000Y-103705000D02*
X129530000Y-97165000D01*
X129530000Y-97165000D02*
X129200000Y-97165000D01*
X130295000Y-106245000D02*
X129965000Y-106245000D01*
X129965000Y-106245000D02*
X129965000Y-99705000D01*
X129965000Y-99705000D02*
X130295000Y-99705000D01*
X132375000Y-106245000D02*
X132705000Y-106245000D01*
X132705000Y-106245000D02*
X132705000Y-99705000D01*
X132705000Y-99705000D02*
X132375000Y-99705000D01*
X163470000Y-76950000D02*
G75*
G03*
X163470000Y-76950000I-6100000J0D01*
G01*
X152669562Y-90205980D02*
X153186718Y-90205980D01*
X152669562Y-91625980D02*
X153186718Y-91625980D01*
X173026820Y-77501324D02*
X173026820Y-76297196D01*
X175746820Y-77501324D02*
X175746820Y-76297196D01*
X184585000Y-76272064D02*
X184585000Y-75067936D01*
X187305000Y-76272064D02*
X187305000Y-75067936D01*
X192355000Y-110020000D02*
X192355000Y-107360000D01*
X182135000Y-110020000D02*
X192355000Y-110020000D01*
X182135000Y-107360000D02*
X192355000Y-107360000D01*
X182135000Y-110020000D02*
X182135000Y-107360000D01*
X180865000Y-110020000D02*
X179535000Y-110020000D01*
X179535000Y-110020000D02*
X179535000Y-108690000D01*
X143975000Y-80055000D02*
X143975000Y-82715000D01*
X146575000Y-80055000D02*
X143975000Y-80055000D01*
X146575000Y-82715000D02*
X143975000Y-82715000D01*
X146575000Y-80055000D02*
X146575000Y-82715000D01*
X147845000Y-80055000D02*
X149175000Y-80055000D01*
X149175000Y-80055000D02*
X149175000Y-81385000D01*
X147785000Y-113710000D02*
X147785000Y-116370000D01*
X188485000Y-113710000D02*
X147785000Y-113710000D01*
X188485000Y-116370000D02*
X147785000Y-116370000D01*
X188485000Y-113710000D02*
X188485000Y-116370000D01*
X189755000Y-113710000D02*
X191085000Y-113710000D01*
X191085000Y-113710000D02*
X191085000Y-115040000D01*
X179228820Y-75670000D02*
X181698820Y-75670000D01*
X179766153Y-74781000D02*
X179766153Y-76559000D01*
X179766153Y-75670000D02*
X180951487Y-74781000D01*
X180951487Y-74781000D02*
X180951487Y-76559000D01*
X180951487Y-76559000D02*
X179766153Y-75670000D01*
X179228820Y-75670000D02*
G75*
G03*
X179228820Y-75670000I-1410000J0D01*
G01*
X172035000Y-71920000D02*
X172035000Y-69260000D01*
X166895000Y-71920000D02*
X172035000Y-71920000D01*
X166895000Y-69260000D02*
X172035000Y-69260000D01*
X166895000Y-71920000D02*
X166895000Y-69260000D01*
X165625000Y-71920000D02*
X164295000Y-71920000D01*
X164295000Y-71920000D02*
X164295000Y-70590000D01*
X172035000Y-79540000D02*
X172035000Y-76880000D01*
X166895000Y-79540000D02*
X172035000Y-79540000D01*
X166895000Y-76880000D02*
X172035000Y-76880000D01*
X166895000Y-79540000D02*
X166895000Y-76880000D01*
X165625000Y-79540000D02*
X164295000Y-79540000D01*
X164295000Y-79540000D02*
X164295000Y-78210000D01*
X172035000Y-77000000D02*
X172035000Y-74340000D01*
X166895000Y-77000000D02*
X172035000Y-77000000D01*
X166895000Y-74340000D02*
X172035000Y-74340000D01*
X166895000Y-77000000D02*
X166895000Y-74340000D01*
X165625000Y-77000000D02*
X164295000Y-77000000D01*
X164295000Y-77000000D02*
X164295000Y-75670000D01*
X172035000Y-74460000D02*
X172035000Y-71800000D01*
X166895000Y-74460000D02*
X172035000Y-74460000D01*
X166895000Y-71800000D02*
X172035000Y-71800000D01*
X166895000Y-74460000D02*
X166895000Y-71800000D01*
X165625000Y-74460000D02*
X164295000Y-74460000D01*
X164295000Y-74460000D02*
X164295000Y-73130000D01*
X183336820Y-70641260D02*
X178136820Y-70641260D01*
X183336820Y-70701260D02*
X183336820Y-70641260D01*
X178136820Y-73301260D02*
X178136820Y-70641260D01*
X183336820Y-70701260D02*
X180736820Y-70701260D01*
X180736820Y-70701260D02*
X180736820Y-73301260D01*
X180736820Y-73301260D02*
X178136820Y-73301260D01*
X183336820Y-71971260D02*
X183336820Y-73301260D01*
X183336820Y-73301260D02*
X182006820Y-73301260D01*
X125965000Y-97225000D02*
X126295000Y-97225000D01*
X126295000Y-97225000D02*
X126295000Y-103645000D01*
X126295000Y-103645000D02*
X125965000Y-103645000D01*
X124005000Y-97225000D02*
X123675000Y-97225000D01*
X123675000Y-97225000D02*
X123675000Y-103645000D01*
X123675000Y-103645000D02*
X124005000Y-103645000D01*
X125995000Y-84215000D02*
X125995000Y-88635000D01*
X123975000Y-84215000D02*
X123975000Y-88635000D01*
X125995000Y-84215000D02*
X125981000Y-84215000D01*
X123989000Y-84215000D02*
X123975000Y-84215000D01*
X125995000Y-88635000D02*
X125981000Y-88635000D01*
X123989000Y-88635000D02*
X123975000Y-88635000D01*
X125318820Y-91769260D02*
X125318820Y-91439260D01*
X125318820Y-91439260D02*
X131738820Y-91439260D01*
X131738820Y-91439260D02*
X131738820Y-91769260D01*
X125318820Y-93729260D02*
X125318820Y-94059260D01*
X125318820Y-94059260D02*
X131738820Y-94059260D01*
X131738820Y-94059260D02*
X131738820Y-93729260D01*
X146635000Y-106090000D02*
X143975000Y-106090000D01*
X146635000Y-111230000D02*
X146635000Y-106090000D01*
X143975000Y-111230000D02*
X143975000Y-106090000D01*
X146635000Y-111230000D02*
X143975000Y-111230000D01*
X146635000Y-112500000D02*
X146635000Y-113830000D01*
X146635000Y-113830000D02*
X145305000Y-113830000D01*
X137955000Y-95295000D02*
X136705000Y-95295000D01*
X136705000Y-95295000D02*
X136705000Y-103035000D01*
X136705000Y-103035000D02*
X141205000Y-103035000D01*
X141205000Y-103035000D02*
X141205000Y-95295000D01*
X141205000Y-95295000D02*
X139955000Y-95295000D01*
X139955000Y-95295000D02*
G75*
G02*
X137955000Y-95295000I-1000000J0D01*
G01*
X139955000Y-92875000D02*
X141205000Y-92875000D01*
X141205000Y-92875000D02*
X141205000Y-85135000D01*
X141205000Y-85135000D02*
X136705000Y-85135000D01*
X136705000Y-85135000D02*
X136705000Y-92875000D01*
X136705000Y-92875000D02*
X137955000Y-92875000D01*
X137955000Y-92875000D02*
G75*
G02*
X139955000Y-92875000I1000000J0D01*
G01*
X104663820Y-95889260D02*
X104663820Y-89389260D01*
X108163820Y-95889260D02*
X101163820Y-95889260D01*
X101163820Y-104639260D02*
X101163820Y-95889260D01*
X108163820Y-104639260D02*
X108163820Y-95889260D01*
X102163820Y-81889260D02*
X102163820Y-80639260D01*
X107163820Y-82139260D02*
X107163820Y-80639260D01*
X102163820Y-94139260D02*
X102163820Y-81889260D01*
X107163820Y-93889260D02*
X107163820Y-82139260D01*
X102163820Y-104639260D02*
X102163820Y-94139260D01*
X107163820Y-104639260D02*
X107163820Y-93889260D01*
X107163820Y-104639260D02*
X102163820Y-104639260D01*
X108163820Y-105639260D02*
X108163820Y-104639260D01*
X108163820Y-105639260D02*
X101163820Y-105639260D01*
X101163820Y-105639260D02*
X101163820Y-104639260D01*
X107163820Y-80639260D02*
X102163820Y-80639260D01*
X108163820Y-89389260D02*
X108163820Y-79639260D01*
X108163820Y-79639260D02*
X101163820Y-79639260D01*
X101163820Y-89389260D02*
X101163820Y-79639260D01*
X108163820Y-89389260D02*
X101163820Y-89389260D01*
D10*
X106913820Y-113079260D02*
X106413820Y-113079260D01*
X112913820Y-115579260D02*
G75*
G03*
X112913820Y-115579260I-2000000J0D01*
G01*
X112913820Y-110579260D02*
G75*
G03*
X112913820Y-110579260I-2000000J0D01*
G01*
X108413820Y-108079260D02*
X108413820Y-118079260D01*
X113313820Y-108079260D02*
X113313820Y-118079260D01*
X106913820Y-108079260D02*
X106913820Y-118079260D01*
X106413820Y-108079260D02*
X106413820Y-118079260D01*
X106413820Y-118079260D02*
X116213820Y-118079260D01*
X116213820Y-118079260D02*
X116213820Y-108079260D01*
X116213820Y-108079260D02*
X106413820Y-108079260D01*
X106913820Y-73074260D02*
X106413820Y-73074260D01*
X112913820Y-75574260D02*
G75*
G03*
X112913820Y-75574260I-2000000J0D01*
G01*
X112913820Y-70574260D02*
G75*
G03*
X112913820Y-70574260I-2000000J0D01*
G01*
X108413820Y-68074260D02*
X108413820Y-78074260D01*
X113313820Y-68074260D02*
X113313820Y-78074260D01*
X106913820Y-68074260D02*
X106913820Y-78074260D01*
X106413820Y-68074260D02*
X106413820Y-78074260D01*
X106413820Y-78074260D02*
X116213820Y-78074260D01*
X116213820Y-78074260D02*
X116213820Y-68074260D01*
X116213820Y-68074260D02*
X106413820Y-68074260D01*
X145318820Y-69999260D02*
X145318820Y-69499260D01*
X144818820Y-73999260D02*
G75*
G03*
X144818820Y-73999260I-2000000J0D01*
G01*
X149818820Y-73999260D02*
G75*
G03*
X149818820Y-73999260I-2000000J0D01*
G01*
X150318820Y-71499260D02*
X140318820Y-71499260D01*
X150318820Y-76399260D02*
X140318820Y-76399260D01*
X150318820Y-69999260D02*
X140318820Y-69999260D01*
X150318820Y-69499260D02*
X140318820Y-69499260D01*
X140318820Y-69499260D02*
X140318820Y-79299260D01*
X140318820Y-79299260D02*
X150318820Y-79299260D01*
X150318820Y-79299260D02*
X150318820Y-69499260D01*
D13*
X117443820Y-87679260D02*
X117443820Y-97919260D01*
X112802820Y-87679260D02*
X112802820Y-97919260D01*
X117443820Y-87679260D02*
X112802820Y-87679260D01*
X117443820Y-97919260D02*
X112802820Y-97919260D01*
X115933820Y-87679260D02*
X115933820Y-97919260D01*
X117443820Y-90949260D02*
X115933820Y-90949260D01*
X117443820Y-94650260D02*
X115933820Y-94650260D01*
D14*
X119324036Y-79462991D02*
X119107892Y-79571063D01*
X119107892Y-79571063D02*
X118891748Y-79701110D01*
X118891748Y-79701110D02*
X118740447Y-79895279D01*
X118740447Y-79895279D02*
X118632375Y-80090169D01*
X118632375Y-80090169D02*
X118589147Y-80327927D01*
X118589147Y-80327927D02*
X118589147Y-80587300D01*
X118589147Y-80587300D02*
X118632375Y-80825059D01*
X118632375Y-80825059D02*
X118740447Y-81019228D01*
X118740447Y-81019228D02*
X118891748Y-81214118D01*
X118891748Y-81214118D02*
X119107892Y-81343805D01*
X119107892Y-81343805D02*
X119324036Y-81451877D01*
X119324036Y-81451877D02*
X119540180Y-81473491D01*
X119540180Y-81473491D02*
X123637824Y-81754478D01*
X123637824Y-81754478D02*
X123789125Y-81776093D01*
X123789125Y-81776093D02*
X123940426Y-81884165D01*
X123940426Y-81884165D02*
X124048498Y-82013851D01*
X124048498Y-82013851D02*
X124113341Y-82164792D01*
X124113341Y-82164792D02*
X124113341Y-82359682D01*
X124113341Y-82359682D02*
X124048498Y-82510983D01*
X124048498Y-82510983D02*
X123940426Y-82640309D01*
X123940426Y-82640309D02*
X123789125Y-82748741D01*
X123789125Y-82748741D02*
X123637824Y-82769995D01*
X123637824Y-82769995D02*
X119540180Y-83051342D01*
X119540180Y-83051342D02*
X119324036Y-83072957D01*
X119324036Y-83072957D02*
X119107892Y-83159054D01*
X119107892Y-83159054D02*
X118891748Y-83310355D01*
X118891748Y-83310355D02*
X118740447Y-83483630D01*
X118740447Y-83483630D02*
X118632375Y-83699414D01*
X118632375Y-83699414D02*
X118589147Y-83937533D01*
X118589147Y-83937533D02*
X118589147Y-84175291D01*
X118589147Y-84175291D02*
X118632375Y-84391075D01*
X118632375Y-84391075D02*
X118740447Y-84629194D01*
X118740447Y-84629194D02*
X118891748Y-84823363D01*
X118891748Y-84823363D02*
X119107892Y-84953410D01*
X119107892Y-84953410D02*
X119324036Y-85039868D01*
X119324036Y-85039868D02*
X119540180Y-85083097D01*
X119540180Y-85083097D02*
X123637824Y-85342109D01*
X123637824Y-85342109D02*
X123789125Y-85385338D01*
X123789125Y-85385338D02*
X123940426Y-85471796D01*
X123940426Y-85471796D02*
X124048498Y-85601482D01*
X124048498Y-85601482D02*
X124113341Y-85774758D01*
X124113341Y-85774758D02*
X124113341Y-85925698D01*
X124113341Y-85925698D02*
X124048498Y-86120588D01*
X124048498Y-86120588D02*
X123940426Y-86250274D01*
X123940426Y-86250274D02*
X123637824Y-86379601D01*
X123637824Y-86379601D02*
X118567532Y-86682202D01*
X118567532Y-86682202D02*
X118567532Y-92799260D01*
X118567532Y-92799260D02*
X118567532Y-98916317D01*
X118567532Y-98916317D02*
X123637824Y-99218919D01*
X123637824Y-99218919D02*
X123940426Y-99348245D01*
X123940426Y-99348245D02*
X124048498Y-99477932D01*
X124048498Y-99477932D02*
X124113341Y-99672822D01*
X124113341Y-99672822D02*
X124113341Y-99823762D01*
X124113341Y-99823762D02*
X124048498Y-99997038D01*
X124048498Y-99997038D02*
X123940426Y-100126724D01*
X123940426Y-100126724D02*
X123789125Y-100213182D01*
X123789125Y-100213182D02*
X123637824Y-100256411D01*
X123637824Y-100256411D02*
X119540180Y-100515423D01*
X119540180Y-100515423D02*
X119324036Y-100558652D01*
X119324036Y-100558652D02*
X119107892Y-100645110D01*
X119107892Y-100645110D02*
X118891748Y-100775157D01*
X118891748Y-100775157D02*
X118740447Y-100969326D01*
X118740447Y-100969326D02*
X118632375Y-101207445D01*
X118632375Y-101207445D02*
X118589147Y-101423229D01*
X118589147Y-101423229D02*
X118589147Y-101660987D01*
X118589147Y-101660987D02*
X118632375Y-101899106D01*
X118632375Y-101899106D02*
X118740447Y-102114890D01*
X118740447Y-102114890D02*
X118891748Y-102288165D01*
X118891748Y-102288165D02*
X119107892Y-102439466D01*
X119107892Y-102439466D02*
X119324036Y-102525563D01*
X119324036Y-102525563D02*
X119540180Y-102547178D01*
X119540180Y-102547178D02*
X123637824Y-102828525D01*
X123637824Y-102828525D02*
X123789125Y-102849779D01*
X123789125Y-102849779D02*
X123940426Y-102958211D01*
X123940426Y-102958211D02*
X124048498Y-103087537D01*
X124048498Y-103087537D02*
X124113341Y-103238838D01*
X124113341Y-103238838D02*
X124113341Y-103433728D01*
X124113341Y-103433728D02*
X124048498Y-103584668D01*
X124048498Y-103584668D02*
X123940426Y-103714355D01*
X123940426Y-103714355D02*
X123789125Y-103822427D01*
X123789125Y-103822427D02*
X123637824Y-103844042D01*
X123637824Y-103844042D02*
X119540180Y-104125029D01*
X119540180Y-104125029D02*
X119324036Y-104146643D01*
X119324036Y-104146643D02*
X119107892Y-104254715D01*
X119107892Y-104254715D02*
X118891748Y-104384402D01*
X118891748Y-104384402D02*
X118740447Y-104579291D01*
X118740447Y-104579291D02*
X118632375Y-104773461D01*
X118632375Y-104773461D02*
X118589147Y-105011219D01*
X118589147Y-105011219D02*
X118589147Y-105270593D01*
X118589147Y-105270593D02*
X118632375Y-105508351D01*
X118632375Y-105508351D02*
X118740447Y-105703241D01*
X118740447Y-105703241D02*
X118891748Y-105897410D01*
X118891748Y-105897410D02*
X119107892Y-106027457D01*
X119107892Y-106027457D02*
X119324036Y-106135529D01*
X119324036Y-106135529D02*
X119540180Y-106157144D01*
X119540180Y-106157144D02*
X123637824Y-106437771D01*
X123637824Y-106437771D02*
X123789125Y-106459385D01*
X123789125Y-106459385D02*
X123940426Y-106567818D01*
X123940426Y-106567818D02*
X124048498Y-106697504D01*
X124048498Y-106697504D02*
X124113341Y-106848445D01*
X124113341Y-106848445D02*
X124113341Y-107194275D01*
X124113341Y-107194275D02*
X124048498Y-107345936D01*
X124048498Y-107345936D02*
X123940426Y-107475623D01*
X123940426Y-107475623D02*
X123789125Y-107583334D01*
X123789125Y-107583334D02*
X123616210Y-107604949D01*
X123616210Y-107604949D02*
X118567532Y-107604949D01*
X118567532Y-107604949D02*
X116752422Y-107604949D01*
X116752422Y-107604949D02*
X108063430Y-107604949D01*
X108063430Y-107604949D02*
X107890515Y-107583334D01*
X107890515Y-107583334D02*
X107739214Y-107475623D01*
X107739214Y-107475623D02*
X107631142Y-107345936D01*
X107631142Y-107345936D02*
X107566299Y-107194275D01*
X107566299Y-107194275D02*
X107566299Y-106848445D01*
X107566299Y-106848445D02*
X107631142Y-106697504D01*
X107631142Y-106697504D02*
X107739214Y-106567818D01*
X107739214Y-106567818D02*
X107890515Y-106459385D01*
X107890515Y-106459385D02*
X108041816Y-106437771D01*
X108041816Y-106437771D02*
X115779774Y-106157144D01*
X115779774Y-106157144D02*
X115995918Y-106135529D01*
X115995918Y-106135529D02*
X116212062Y-106027457D01*
X116212062Y-106027457D02*
X116428206Y-105897410D01*
X116428206Y-105897410D02*
X116579507Y-105703241D01*
X116579507Y-105703241D02*
X116687579Y-105508351D01*
X116687579Y-105508351D02*
X116730808Y-105270593D01*
X116730808Y-105270593D02*
X116730808Y-105011219D01*
X116730808Y-105011219D02*
X116687579Y-104773461D01*
X116687579Y-104773461D02*
X116579507Y-104579291D01*
X116579507Y-104579291D02*
X116428206Y-104384402D01*
X116428206Y-104384402D02*
X116212062Y-104254715D01*
X116212062Y-104254715D02*
X115995918Y-104146643D01*
X115995918Y-104146643D02*
X115779774Y-104125029D01*
X115779774Y-104125029D02*
X108041816Y-103844042D01*
X108041816Y-103844042D02*
X107890515Y-103822427D01*
X107890515Y-103822427D02*
X107739214Y-103714355D01*
X107739214Y-103714355D02*
X107631142Y-103584668D01*
X107631142Y-103584668D02*
X107566299Y-103433728D01*
X107566299Y-103433728D02*
X107566299Y-103238838D01*
X107566299Y-103238838D02*
X107631142Y-103087537D01*
X107631142Y-103087537D02*
X107739214Y-102958211D01*
X107739214Y-102958211D02*
X107890515Y-102849779D01*
X107890515Y-102849779D02*
X108041816Y-102828525D01*
X108041816Y-102828525D02*
X115779774Y-102547178D01*
X115779774Y-102547178D02*
X115995918Y-102525563D01*
X115995918Y-102525563D02*
X116212062Y-102439466D01*
X116212062Y-102439466D02*
X116428206Y-102288165D01*
X116428206Y-102288165D02*
X116579507Y-102114890D01*
X116579507Y-102114890D02*
X116687579Y-101899106D01*
X116687579Y-101899106D02*
X116730808Y-101660987D01*
X116730808Y-101660987D02*
X116730808Y-101423229D01*
X116730808Y-101423229D02*
X116687579Y-101207445D01*
X116687579Y-101207445D02*
X116579507Y-100969326D01*
X116579507Y-100969326D02*
X116428206Y-100775157D01*
X116428206Y-100775157D02*
X116212062Y-100645110D01*
X116212062Y-100645110D02*
X115995918Y-100558652D01*
X115995918Y-100558652D02*
X115779774Y-100515423D01*
X115779774Y-100515423D02*
X108041816Y-100256411D01*
X108041816Y-100256411D02*
X107890515Y-100213182D01*
X107890515Y-100213182D02*
X107739214Y-100126724D01*
X107739214Y-100126724D02*
X107631142Y-99997038D01*
X107631142Y-99997038D02*
X107566299Y-99823762D01*
X107566299Y-99823762D02*
X107566299Y-99672822D01*
X107566299Y-99672822D02*
X107631142Y-99477932D01*
X107631142Y-99477932D02*
X107739214Y-99348245D01*
X107739214Y-99348245D02*
X108041816Y-99218919D01*
X108041816Y-99218919D02*
X116752422Y-98916317D01*
X116752422Y-98916317D02*
X116752422Y-92799260D01*
X116752422Y-92799260D02*
X116752422Y-86682202D01*
X116752422Y-86682202D02*
X108041816Y-86379601D01*
X108041816Y-86379601D02*
X107739214Y-86250274D01*
X107739214Y-86250274D02*
X107631142Y-86120588D01*
X107631142Y-86120588D02*
X107566299Y-85925698D01*
X107566299Y-85925698D02*
X107566299Y-85774758D01*
X107566299Y-85774758D02*
X107631142Y-85601482D01*
X107631142Y-85601482D02*
X107739214Y-85471796D01*
X107739214Y-85471796D02*
X107890515Y-85385338D01*
X107890515Y-85385338D02*
X108041816Y-85342109D01*
X108041816Y-85342109D02*
X115779774Y-85083097D01*
X115779774Y-85083097D02*
X115995918Y-85039868D01*
X115995918Y-85039868D02*
X116212062Y-84953410D01*
X116212062Y-84953410D02*
X116428206Y-84823363D01*
X116428206Y-84823363D02*
X116579507Y-84629194D01*
X116579507Y-84629194D02*
X116687579Y-84391075D01*
X116687579Y-84391075D02*
X116730808Y-84175291D01*
X116730808Y-84175291D02*
X116730808Y-83937533D01*
X116730808Y-83937533D02*
X116687579Y-83699414D01*
X116687579Y-83699414D02*
X116579507Y-83483630D01*
X116579507Y-83483630D02*
X116428206Y-83310355D01*
X116428206Y-83310355D02*
X116212062Y-83159054D01*
X116212062Y-83159054D02*
X115995918Y-83072957D01*
X115995918Y-83072957D02*
X115779774Y-83051342D01*
X115779774Y-83051342D02*
X108041816Y-82769995D01*
X108041816Y-82769995D02*
X107890515Y-82748741D01*
X107890515Y-82748741D02*
X107739214Y-82640309D01*
X107739214Y-82640309D02*
X107631142Y-82510983D01*
X107631142Y-82510983D02*
X107566299Y-82359682D01*
X107566299Y-82359682D02*
X107566299Y-82164792D01*
X107566299Y-82164792D02*
X107631142Y-82013851D01*
X107631142Y-82013851D02*
X107739214Y-81884165D01*
X107739214Y-81884165D02*
X107890515Y-81776093D01*
X107890515Y-81776093D02*
X108041816Y-81754478D01*
X108041816Y-81754478D02*
X115779774Y-81473491D01*
X115779774Y-81473491D02*
X115995918Y-81451877D01*
X115995918Y-81451877D02*
X116212062Y-81343805D01*
X116212062Y-81343805D02*
X116428206Y-81214118D01*
X116428206Y-81214118D02*
X116579507Y-81019228D01*
X116579507Y-81019228D02*
X116687579Y-80825059D01*
X116687579Y-80825059D02*
X116730808Y-80587300D01*
X116730808Y-80587300D02*
X116730808Y-80327927D01*
X116730808Y-80327927D02*
X116687579Y-80090169D01*
X116687579Y-80090169D02*
X116579507Y-79895279D01*
X116579507Y-79895279D02*
X116428206Y-79701110D01*
X116428206Y-79701110D02*
X116212062Y-79571063D01*
X116212062Y-79571063D02*
X115995918Y-79462991D01*
X115995918Y-79462991D02*
X115779774Y-79441376D01*
X115779774Y-79441376D02*
X108041816Y-79160749D01*
X108041816Y-79160749D02*
X107890515Y-79139135D01*
X107890515Y-79139135D02*
X107739214Y-79030702D01*
X107739214Y-79030702D02*
X107631142Y-78901016D01*
X107631142Y-78901016D02*
X107566299Y-78750075D01*
X107566299Y-78750075D02*
X107566299Y-78404245D01*
X107566299Y-78404245D02*
X107631142Y-78252584D01*
X107631142Y-78252584D02*
X107739214Y-78122897D01*
X107739214Y-78122897D02*
X107890515Y-78015186D01*
X107890515Y-78015186D02*
X108063430Y-77993571D01*
X108063430Y-77993571D02*
X116752422Y-77993571D01*
X116752422Y-77993571D02*
X118567532Y-77993571D01*
X118567532Y-77993571D02*
X123616210Y-77993571D01*
X123616210Y-77993571D02*
X123789125Y-78015186D01*
X123789125Y-78015186D02*
X123940426Y-78122897D01*
X123940426Y-78122897D02*
X124048498Y-78252584D01*
X124048498Y-78252584D02*
X124113341Y-78404245D01*
X124113341Y-78404245D02*
X124113341Y-78750075D01*
X124113341Y-78750075D02*
X124048498Y-78901016D01*
X124048498Y-78901016D02*
X123940426Y-79030702D01*
X123940426Y-79030702D02*
X123789125Y-79139135D01*
X123789125Y-79139135D02*
X123637824Y-79160749D01*
X123637824Y-79160749D02*
X119540180Y-79441376D01*
X119540180Y-79441376D02*
X119324036Y-79462991D01*
D15*
X185310000Y-102721000D02*
X144035000Y-102721000D01*
X185310000Y-85449000D02*
X144035000Y-85449000D01*
X144035000Y-85449000D02*
X144035000Y-102721000D01*
X185945000Y-90275000D02*
X180230000Y-90275000D01*
X180230000Y-90275000D02*
X180230000Y-97895000D01*
X180230000Y-97895000D02*
X189120000Y-97895000D01*
X189120000Y-97895000D02*
X189120000Y-90275000D01*
X189120000Y-90275000D02*
X185945000Y-90275000D01*
X185310000Y-97895000D02*
X185310000Y-102721000D01*
X185310000Y-85449000D02*
X185310000Y-90275000D01*
D10*
X187850000Y-95355000D02*
X183405000Y-95355000D01*
X183405000Y-95355000D02*
X183405000Y-92815000D01*
X183405000Y-92815000D02*
X187850000Y-92815000D01*
X184675000Y-92180000D02*
X187850000Y-92180000D01*
X187850000Y-92180000D02*
X187850000Y-90910000D01*
X187850000Y-90910000D02*
X184675000Y-90910000D01*
X184675000Y-97260000D02*
X187850000Y-97260000D01*
X187850000Y-97260000D02*
X187850000Y-95990000D01*
X187850000Y-95990000D02*
X184675000Y-95990000D01*
D15*
X144162000Y-92815000D02*
X145432000Y-92815000D01*
X145432000Y-92815000D02*
X145432000Y-95355000D01*
X145432000Y-95355000D02*
X144162000Y-95355000D01*
D13*
X154368820Y-94045980D02*
X155368820Y-94045980D01*
X155368820Y-95405980D02*
X154368820Y-95405980D01*
D10*
X195683616Y-76643360D02*
X195683616Y-77357646D01*
X195635997Y-77500503D01*
X195540759Y-77595741D01*
X195397901Y-77643360D01*
X195302663Y-77643360D01*
X196683616Y-77643360D02*
X196112187Y-77643360D01*
X196397901Y-77643360D02*
X196397901Y-76643360D01*
X196302663Y-76786218D01*
X196207425Y-76881456D01*
X196112187Y-76929075D01*
X197588378Y-76643360D02*
X197112187Y-76643360D01*
X197064568Y-77119551D01*
X197112187Y-77071932D01*
X197207425Y-77024313D01*
X197445520Y-77024313D01*
X197540759Y-77071932D01*
X197588378Y-77119551D01*
X197635997Y-77214789D01*
X197635997Y-77452884D01*
X197588378Y-77548122D01*
X197540759Y-77595741D01*
X197445520Y-77643360D01*
X197207425Y-77643360D01*
X197112187Y-77595741D01*
X197064568Y-77548122D01*
X135683616Y-68243360D02*
X135683616Y-68957646D01*
X135635997Y-69100503D01*
X135540759Y-69195741D01*
X135397901Y-69243360D01*
X135302663Y-69243360D01*
X136683616Y-69243360D02*
X136112187Y-69243360D01*
X136397901Y-69243360D02*
X136397901Y-68243360D01*
X136302663Y-68386218D01*
X136207425Y-68481456D01*
X136112187Y-68529075D01*
X137540759Y-68576694D02*
X137540759Y-69243360D01*
X137302663Y-68195741D02*
X137064568Y-68910027D01*
X137683616Y-68910027D01*
X135683616Y-108243360D02*
X135683616Y-108957646D01*
X135635997Y-109100503D01*
X135540759Y-109195741D01*
X135397901Y-109243360D01*
X135302663Y-109243360D01*
X136683616Y-109243360D02*
X136112187Y-109243360D01*
X136397901Y-109243360D02*
X136397901Y-108243360D01*
X136302663Y-108386218D01*
X136207425Y-108481456D01*
X136112187Y-108529075D01*
X137016949Y-108243360D02*
X137635997Y-108243360D01*
X137302663Y-108624313D01*
X137445520Y-108624313D01*
X137540759Y-108671932D01*
X137588378Y-108719551D01*
X137635997Y-108814789D01*
X137635997Y-109052884D01*
X137588378Y-109148122D01*
X137540759Y-109195741D01*
X137445520Y-109243360D01*
X137159806Y-109243360D01*
X137064568Y-109195741D01*
X137016949Y-109148122D01*
X195683616Y-108243360D02*
X195683616Y-108957646D01*
X195635997Y-109100503D01*
X195540759Y-109195741D01*
X195397901Y-109243360D01*
X195302663Y-109243360D01*
X196683616Y-109243360D02*
X196112187Y-109243360D01*
X196397901Y-109243360D02*
X196397901Y-108243360D01*
X196302663Y-108386218D01*
X196207425Y-108481456D01*
X196112187Y-108529075D01*
X197064568Y-108338599D02*
X197112187Y-108290980D01*
X197207425Y-108243360D01*
X197445520Y-108243360D01*
X197540759Y-108290980D01*
X197588378Y-108338599D01*
X197635997Y-108433837D01*
X197635997Y-108529075D01*
X197588378Y-108671932D01*
X197016949Y-109243360D01*
X197635997Y-109243360D01*
X194190439Y-75765238D02*
X194142820Y-75860476D01*
X194047581Y-75955714D01*
X193904724Y-76098571D01*
X193857105Y-76193809D01*
X193857105Y-76289047D01*
X194095200Y-76241428D02*
X194047581Y-76336666D01*
X193952343Y-76431904D01*
X193761867Y-76479523D01*
X193428534Y-76479523D01*
X193238058Y-76431904D01*
X193142820Y-76336666D01*
X193095200Y-76241428D01*
X193095200Y-76050952D01*
X193142820Y-75955714D01*
X193238058Y-75860476D01*
X193428534Y-75812857D01*
X193761867Y-75812857D01*
X193952343Y-75860476D01*
X194047581Y-75955714D01*
X194095200Y-76050952D01*
X194095200Y-76241428D01*
X194095200Y-74860476D02*
X194095200Y-75431904D01*
X194095200Y-75146190D02*
X193095200Y-75146190D01*
X193238058Y-75241428D01*
X193333296Y-75336666D01*
X193380915Y-75431904D01*
X128621200Y-106615926D02*
X128145010Y-106949260D01*
X128621200Y-107187355D02*
X127621200Y-107187355D01*
X127621200Y-106806402D01*
X127668820Y-106711164D01*
X127716439Y-106663545D01*
X127811677Y-106615926D01*
X127954534Y-106615926D01*
X128049772Y-106663545D01*
X128097391Y-106711164D01*
X128145010Y-106806402D01*
X128145010Y-107187355D01*
X127716439Y-106234974D02*
X127668820Y-106187355D01*
X127621200Y-106092117D01*
X127621200Y-105854021D01*
X127668820Y-105758783D01*
X127716439Y-105711164D01*
X127811677Y-105663545D01*
X127906915Y-105663545D01*
X128049772Y-105711164D01*
X128621200Y-106282593D01*
X128621200Y-105663545D01*
X134121200Y-105515926D02*
X133645010Y-105849260D01*
X134121200Y-106087355D02*
X133121200Y-106087355D01*
X133121200Y-105706402D01*
X133168820Y-105611164D01*
X133216439Y-105563545D01*
X133311677Y-105515926D01*
X133454534Y-105515926D01*
X133549772Y-105563545D01*
X133597391Y-105611164D01*
X133645010Y-105706402D01*
X133645010Y-106087355D01*
X134121200Y-104563545D02*
X134121200Y-105134974D01*
X134121200Y-104849260D02*
X133121200Y-104849260D01*
X133264058Y-104944498D01*
X133359296Y-105039736D01*
X133406915Y-105134974D01*
X157298571Y-77820952D02*
X157346190Y-77678095D01*
X157393809Y-77630476D01*
X157489047Y-77582857D01*
X157631904Y-77582857D01*
X157727142Y-77630476D01*
X157774761Y-77678095D01*
X157822380Y-77773333D01*
X157822380Y-78154285D01*
X156822380Y-78154285D01*
X156822380Y-77820952D01*
X156870000Y-77725714D01*
X156917619Y-77678095D01*
X157012857Y-77630476D01*
X157108095Y-77630476D01*
X157203333Y-77678095D01*
X157250952Y-77725714D01*
X157298571Y-77820952D01*
X157298571Y-78154285D01*
X156822380Y-77249523D02*
X156822380Y-76582857D01*
X157822380Y-77249523D01*
X157822380Y-76582857D01*
X157822380Y-75678095D02*
X157822380Y-76249523D01*
X157822380Y-75963809D02*
X156822380Y-75963809D01*
X156965238Y-76059047D01*
X157060476Y-76154285D01*
X157108095Y-76249523D01*
X152761473Y-89623122D02*
X152713854Y-89670741D01*
X152570997Y-89718360D01*
X152475759Y-89718360D01*
X152332901Y-89670741D01*
X152237663Y-89575503D01*
X152190044Y-89480265D01*
X152142425Y-89289789D01*
X152142425Y-89146932D01*
X152190044Y-88956456D01*
X152237663Y-88861218D01*
X152332901Y-88765980D01*
X152475759Y-88718360D01*
X152570997Y-88718360D01*
X152713854Y-88765980D01*
X152761473Y-88813599D01*
X153142425Y-88813599D02*
X153190044Y-88765980D01*
X153285282Y-88718360D01*
X153523378Y-88718360D01*
X153618616Y-88765980D01*
X153666235Y-88813599D01*
X153713854Y-88908837D01*
X153713854Y-89004075D01*
X153666235Y-89146932D01*
X153094806Y-89718360D01*
X153713854Y-89718360D01*
X172559200Y-77065926D02*
X172083010Y-77399260D01*
X172559200Y-77637355D02*
X171559200Y-77637355D01*
X171559200Y-77256402D01*
X171606820Y-77161164D01*
X171654439Y-77113545D01*
X171749677Y-77065926D01*
X171892534Y-77065926D01*
X171987772Y-77113545D01*
X172035391Y-77161164D01*
X172083010Y-77256402D01*
X172083010Y-77637355D01*
X171559200Y-76208783D02*
X171559200Y-76399260D01*
X171606820Y-76494498D01*
X171654439Y-76542117D01*
X171797296Y-76637355D01*
X171987772Y-76684974D01*
X172368724Y-76684974D01*
X172463962Y-76637355D01*
X172511581Y-76589736D01*
X172559200Y-76494498D01*
X172559200Y-76304021D01*
X172511581Y-76208783D01*
X172463962Y-76161164D01*
X172368724Y-76113545D01*
X172130629Y-76113545D01*
X172035391Y-76161164D01*
X171987772Y-76208783D01*
X171940153Y-76304021D01*
X171940153Y-76494498D01*
X171987772Y-76589736D01*
X172035391Y-76637355D01*
X172130629Y-76684974D01*
X184117380Y-75836666D02*
X183641190Y-76170000D01*
X184117380Y-76408095D02*
X183117380Y-76408095D01*
X183117380Y-76027142D01*
X183165000Y-75931904D01*
X183212619Y-75884285D01*
X183307857Y-75836666D01*
X183450714Y-75836666D01*
X183545952Y-75884285D01*
X183593571Y-75931904D01*
X183641190Y-76027142D01*
X183641190Y-76408095D01*
X183117380Y-75503333D02*
X183117380Y-74836666D01*
X184117380Y-75265238D01*
X193017380Y-109023333D02*
X193731666Y-109023333D01*
X193874523Y-109070952D01*
X193969761Y-109166190D01*
X194017380Y-109309047D01*
X194017380Y-109404285D01*
X194017380Y-108499523D02*
X194017380Y-108309047D01*
X193969761Y-108213809D01*
X193922142Y-108166190D01*
X193779285Y-108070952D01*
X193588809Y-108023333D01*
X193207857Y-108023333D01*
X193112619Y-108070952D01*
X193065000Y-108118571D01*
X193017380Y-108213809D01*
X193017380Y-108404285D01*
X193065000Y-108499523D01*
X193112619Y-108547142D01*
X193207857Y-108594761D01*
X193445952Y-108594761D01*
X193541190Y-108547142D01*
X193588809Y-108499523D01*
X193636428Y-108404285D01*
X193636428Y-108213809D01*
X193588809Y-108118571D01*
X193541190Y-108070952D01*
X193445952Y-108023333D01*
X142217380Y-82218333D02*
X142931666Y-82218333D01*
X143074523Y-82265952D01*
X143169761Y-82361190D01*
X143217380Y-82504047D01*
X143217380Y-82599285D01*
X143217380Y-81742142D02*
X142217380Y-81742142D01*
X142217380Y-81361190D01*
X142265000Y-81265952D01*
X142312619Y-81218333D01*
X142407857Y-81170714D01*
X142550714Y-81170714D01*
X142645952Y-81218333D01*
X142693571Y-81265952D01*
X142741190Y-81361190D01*
X142741190Y-81742142D01*
X143217380Y-80218333D02*
X143217380Y-80789761D01*
X143217380Y-80504047D02*
X142217380Y-80504047D01*
X142360238Y-80599285D01*
X142455476Y-80694523D01*
X142503095Y-80789761D01*
X191537380Y-115849523D02*
X192251666Y-115849523D01*
X192394523Y-115897142D01*
X192489761Y-115992380D01*
X192537380Y-116135238D01*
X192537380Y-116230476D01*
X192537380Y-114849523D02*
X192537380Y-115420952D01*
X192537380Y-115135238D02*
X191537380Y-115135238D01*
X191680238Y-115230476D01*
X191775476Y-115325714D01*
X191823095Y-115420952D01*
X191537380Y-114230476D02*
X191537380Y-114135238D01*
X191585000Y-114040000D01*
X191632619Y-113992380D01*
X191727857Y-113944761D01*
X191918333Y-113897142D01*
X192156428Y-113897142D01*
X192346904Y-113944761D01*
X192442142Y-113992380D01*
X192489761Y-114040000D01*
X192537380Y-114135238D01*
X192537380Y-114230476D01*
X192489761Y-114325714D01*
X192442142Y-114373333D01*
X192346904Y-114420952D01*
X192156428Y-114468571D01*
X191918333Y-114468571D01*
X191727857Y-114420952D01*
X191632619Y-114373333D01*
X191585000Y-114325714D01*
X191537380Y-114230476D01*
X179620724Y-78027380D02*
X179620724Y-77027380D01*
X179858820Y-77027380D01*
X180001677Y-77075000D01*
X180096915Y-77170238D01*
X180144534Y-77265476D01*
X180192153Y-77455952D01*
X180192153Y-77598809D01*
X180144534Y-77789285D01*
X180096915Y-77884523D01*
X180001677Y-77979761D01*
X179858820Y-78027380D01*
X179620724Y-78027380D01*
X181144534Y-78027380D02*
X180573105Y-78027380D01*
X180858820Y-78027380D02*
X180858820Y-77027380D01*
X180763581Y-77170238D01*
X180668343Y-77265476D01*
X180573105Y-77313095D01*
X162747380Y-70923333D02*
X163461666Y-70923333D01*
X163604523Y-70970952D01*
X163699761Y-71066190D01*
X163747380Y-71209047D01*
X163747380Y-71304285D01*
X163175952Y-70304285D02*
X163128333Y-70399523D01*
X163080714Y-70447142D01*
X162985476Y-70494761D01*
X162937857Y-70494761D01*
X162842619Y-70447142D01*
X162795000Y-70399523D01*
X162747380Y-70304285D01*
X162747380Y-70113809D01*
X162795000Y-70018571D01*
X162842619Y-69970952D01*
X162937857Y-69923333D01*
X162985476Y-69923333D01*
X163080714Y-69970952D01*
X163128333Y-70018571D01*
X163175952Y-70113809D01*
X163175952Y-70304285D01*
X163223571Y-70399523D01*
X163271190Y-70447142D01*
X163366428Y-70494761D01*
X163556904Y-70494761D01*
X163652142Y-70447142D01*
X163699761Y-70399523D01*
X163747380Y-70304285D01*
X163747380Y-70113809D01*
X163699761Y-70018571D01*
X163652142Y-69970952D01*
X163556904Y-69923333D01*
X163366428Y-69923333D01*
X163271190Y-69970952D01*
X163223571Y-70018571D01*
X163175952Y-70113809D01*
X162747380Y-78543333D02*
X163461666Y-78543333D01*
X163604523Y-78590952D01*
X163699761Y-78686190D01*
X163747380Y-78829047D01*
X163747380Y-78924285D01*
X162747380Y-77590952D02*
X162747380Y-78067142D01*
X163223571Y-78114761D01*
X163175952Y-78067142D01*
X163128333Y-77971904D01*
X163128333Y-77733809D01*
X163175952Y-77638571D01*
X163223571Y-77590952D01*
X163318809Y-77543333D01*
X163556904Y-77543333D01*
X163652142Y-77590952D01*
X163699761Y-77638571D01*
X163747380Y-77733809D01*
X163747380Y-77971904D01*
X163699761Y-78067142D01*
X163652142Y-78114761D01*
X162747380Y-76003333D02*
X163461666Y-76003333D01*
X163604523Y-76050952D01*
X163699761Y-76146190D01*
X163747380Y-76289047D01*
X163747380Y-76384285D01*
X162747380Y-75098571D02*
X162747380Y-75289047D01*
X162795000Y-75384285D01*
X162842619Y-75431904D01*
X162985476Y-75527142D01*
X163175952Y-75574761D01*
X163556904Y-75574761D01*
X163652142Y-75527142D01*
X163699761Y-75479523D01*
X163747380Y-75384285D01*
X163747380Y-75193809D01*
X163699761Y-75098571D01*
X163652142Y-75050952D01*
X163556904Y-75003333D01*
X163318809Y-75003333D01*
X163223571Y-75050952D01*
X163175952Y-75098571D01*
X163128333Y-75193809D01*
X163128333Y-75384285D01*
X163175952Y-75479523D01*
X163223571Y-75527142D01*
X163318809Y-75574761D01*
X162747380Y-73463333D02*
X163461666Y-73463333D01*
X163604523Y-73510952D01*
X163699761Y-73606190D01*
X163747380Y-73749047D01*
X163747380Y-73844285D01*
X162747380Y-73082380D02*
X162747380Y-72415714D01*
X163747380Y-72844285D01*
X180403486Y-68883640D02*
X180403486Y-69597926D01*
X180355867Y-69740783D01*
X180260629Y-69836021D01*
X180117772Y-69883640D01*
X180022534Y-69883640D01*
X181308248Y-69216974D02*
X181308248Y-69883640D01*
X181070153Y-68836021D02*
X180832058Y-69550307D01*
X181451105Y-69550307D01*
X125571200Y-106665926D02*
X125095010Y-106999260D01*
X125571200Y-107237355D02*
X124571200Y-107237355D01*
X124571200Y-106856402D01*
X124618820Y-106761164D01*
X124666439Y-106713545D01*
X124761677Y-106665926D01*
X124904534Y-106665926D01*
X124999772Y-106713545D01*
X125047391Y-106761164D01*
X125095010Y-106856402D01*
X125095010Y-107237355D01*
X124571200Y-106332593D02*
X124571200Y-105713545D01*
X124952153Y-106046879D01*
X124952153Y-105904021D01*
X124999772Y-105808783D01*
X125047391Y-105761164D01*
X125142629Y-105713545D01*
X125380724Y-105713545D01*
X125475962Y-105761164D01*
X125523581Y-105808783D01*
X125571200Y-105904021D01*
X125571200Y-106189736D01*
X125523581Y-106284974D01*
X125475962Y-106332593D01*
X127352142Y-86591666D02*
X127399761Y-86639285D01*
X127447380Y-86782142D01*
X127447380Y-86877380D01*
X127399761Y-87020238D01*
X127304523Y-87115476D01*
X127209285Y-87163095D01*
X127018809Y-87210714D01*
X126875952Y-87210714D01*
X126685476Y-87163095D01*
X126590238Y-87115476D01*
X126495000Y-87020238D01*
X126447380Y-86877380D01*
X126447380Y-86782142D01*
X126495000Y-86639285D01*
X126542619Y-86591666D01*
X127447380Y-85639285D02*
X127447380Y-86210714D01*
X127447380Y-85925000D02*
X126447380Y-85925000D01*
X126590238Y-86020238D01*
X126685476Y-86115476D01*
X126733095Y-86210714D01*
X128362153Y-90891640D02*
X128028820Y-90415450D01*
X127790724Y-90891640D02*
X127790724Y-89891640D01*
X128171677Y-89891640D01*
X128266915Y-89939260D01*
X128314534Y-89986879D01*
X128362153Y-90082117D01*
X128362153Y-90224974D01*
X128314534Y-90320212D01*
X128266915Y-90367831D01*
X128171677Y-90415450D01*
X127790724Y-90415450D01*
X129219296Y-90224974D02*
X129219296Y-90891640D01*
X128981200Y-89844021D02*
X128743105Y-90558307D01*
X129362153Y-90558307D01*
X144495476Y-114282380D02*
X144495476Y-114996666D01*
X144447857Y-115139523D01*
X144352619Y-115234761D01*
X144209761Y-115282380D01*
X144114523Y-115282380D01*
X145495476Y-115282380D02*
X144924047Y-115282380D01*
X145209761Y-115282380D02*
X145209761Y-114282380D01*
X145114523Y-114425238D01*
X145019285Y-114520476D01*
X144924047Y-114568095D01*
X146447857Y-115282380D02*
X145876428Y-115282380D01*
X146162142Y-115282380D02*
X146162142Y-114282380D01*
X146066904Y-114425238D01*
X145971666Y-114520476D01*
X145876428Y-114568095D01*
X137928571Y-103452380D02*
X138119047Y-103452380D01*
X138214285Y-103500000D01*
X138309523Y-103595238D01*
X138357142Y-103785714D01*
X138357142Y-104119047D01*
X138309523Y-104309523D01*
X138214285Y-104404761D01*
X138119047Y-104452380D01*
X137928571Y-104452380D01*
X137833333Y-104404761D01*
X137738095Y-104309523D01*
X137690476Y-104119047D01*
X137690476Y-103785714D01*
X137738095Y-103595238D01*
X137833333Y-103500000D01*
X137928571Y-103452380D01*
X138785714Y-104452380D02*
X138785714Y-103452380D01*
X139357142Y-104452380D02*
X138928571Y-103880952D01*
X139357142Y-103452380D02*
X138785714Y-104023809D01*
X140309523Y-104452380D02*
X139738095Y-104452380D01*
X140023809Y-104452380D02*
X140023809Y-103452380D01*
X139928571Y-103595238D01*
X139833333Y-103690476D01*
X139738095Y-103738095D01*
X138238095Y-83452380D02*
X138238095Y-84261904D01*
X138285714Y-84357142D01*
X138333333Y-84404761D01*
X138428571Y-84452380D01*
X138619047Y-84452380D01*
X138714285Y-84404761D01*
X138761904Y-84357142D01*
X138809523Y-84261904D01*
X138809523Y-83452380D01*
X139809523Y-84452380D02*
X139238095Y-84452380D01*
X139523809Y-84452380D02*
X139523809Y-83452380D01*
X139428571Y-83595238D01*
X139333333Y-83690476D01*
X139238095Y-83738095D01*
X105227391Y-93132593D02*
X105227391Y-93465926D01*
X105751200Y-93465926D02*
X104751200Y-93465926D01*
X104751200Y-92989736D01*
X105751200Y-92084974D02*
X105751200Y-92656402D01*
X105751200Y-92370688D02*
X104751200Y-92370688D01*
X104894058Y-92465926D01*
X104989296Y-92561164D01*
X105036915Y-92656402D01*
X116816200Y-113198593D02*
X117530486Y-113198593D01*
X117673343Y-113246212D01*
X117768581Y-113341450D01*
X117816200Y-113484307D01*
X117816200Y-113579545D01*
X117816200Y-112198593D02*
X117816200Y-112770021D01*
X117816200Y-112484307D02*
X116816200Y-112484307D01*
X116959058Y-112579545D01*
X117054296Y-112674783D01*
X117101915Y-112770021D01*
X116689200Y-73447593D02*
X117403486Y-73447593D01*
X117546343Y-73495212D01*
X117641581Y-73590450D01*
X117689200Y-73733307D01*
X117689200Y-73828545D01*
X116784439Y-73019021D02*
X116736820Y-72971402D01*
X116689200Y-72876164D01*
X116689200Y-72638069D01*
X116736820Y-72542831D01*
X116784439Y-72495212D01*
X116879677Y-72447593D01*
X116974915Y-72447593D01*
X117117772Y-72495212D01*
X117689200Y-73066640D01*
X117689200Y-72447593D01*
X138468486Y-78123640D02*
X138468486Y-78837926D01*
X138420867Y-78980783D01*
X138325629Y-79076021D01*
X138182772Y-79123640D01*
X138087534Y-79123640D01*
X138849439Y-78123640D02*
X139468486Y-78123640D01*
X139135153Y-78504593D01*
X139278010Y-78504593D01*
X139373248Y-78552212D01*
X139420867Y-78599831D01*
X139468486Y-78695069D01*
X139468486Y-78933164D01*
X139420867Y-79028402D01*
X139373248Y-79076021D01*
X139278010Y-79123640D01*
X138992296Y-79123640D01*
X138897058Y-79076021D01*
X138849439Y-79028402D01*
X111101200Y-99037831D02*
X111101200Y-98466402D01*
X112101200Y-98752117D02*
X111101200Y-98752117D01*
X112101200Y-97561640D02*
X111625010Y-97894974D01*
X112101200Y-98133069D02*
X111101200Y-98133069D01*
X111101200Y-97752117D01*
X111148820Y-97656879D01*
X111196439Y-97609260D01*
X111291677Y-97561640D01*
X111434534Y-97561640D01*
X111529772Y-97609260D01*
X111577391Y-97656879D01*
X111625010Y-97752117D01*
X111625010Y-98133069D01*
X112101200Y-97133069D02*
X111101200Y-97133069D01*
X111815486Y-96704498D02*
X111815486Y-96228307D01*
X112101200Y-96799736D02*
X111101200Y-96466402D01*
X112101200Y-96133069D01*
X112005962Y-95228307D02*
X112053581Y-95275926D01*
X112101200Y-95418783D01*
X112101200Y-95514021D01*
X112053581Y-95656879D01*
X111958343Y-95752117D01*
X111863105Y-95799736D01*
X111672629Y-95847355D01*
X111529772Y-95847355D01*
X111339296Y-95799736D01*
X111244058Y-95752117D01*
X111148820Y-95656879D01*
X111101200Y-95514021D01*
X111101200Y-95418783D01*
X111148820Y-95275926D01*
X111196439Y-95228307D01*
X112101200Y-94275926D02*
X112101200Y-94847355D01*
X112101200Y-94561640D02*
X111101200Y-94561640D01*
X111244058Y-94656879D01*
X111339296Y-94752117D01*
X111386915Y-94847355D01*
X183857380Y-108126285D02*
X182857380Y-108126285D01*
X182857380Y-107888190D01*
X182905000Y-107745333D01*
X183000238Y-107650095D01*
X183095476Y-107602476D01*
X183285952Y-107554857D01*
X183428809Y-107554857D01*
X183619285Y-107602476D01*
X183714523Y-107650095D01*
X183809761Y-107745333D01*
X183857380Y-107888190D01*
X183857380Y-108126285D01*
X183857380Y-106602476D02*
X183857380Y-107173904D01*
X183857380Y-106888190D02*
X182857380Y-106888190D01*
X183000238Y-106983428D01*
X183095476Y-107078666D01*
X183143095Y-107173904D01*
X182952619Y-106221523D02*
X182905000Y-106173904D01*
X182857380Y-106078666D01*
X182857380Y-105840571D01*
X182905000Y-105745333D01*
X182952619Y-105697714D01*
X183047857Y-105650095D01*
X183143095Y-105650095D01*
X183285952Y-105697714D01*
X183857380Y-106269142D01*
X183857380Y-105650095D01*
X181317380Y-108126285D02*
X180317380Y-108126285D01*
X180317380Y-107888190D01*
X180365000Y-107745333D01*
X180460238Y-107650095D01*
X180555476Y-107602476D01*
X180745952Y-107554857D01*
X180888809Y-107554857D01*
X181079285Y-107602476D01*
X181174523Y-107650095D01*
X181269761Y-107745333D01*
X181317380Y-107888190D01*
X181317380Y-108126285D01*
X181317380Y-106602476D02*
X181317380Y-107173904D01*
X181317380Y-106888190D02*
X180317380Y-106888190D01*
X180460238Y-106983428D01*
X180555476Y-107078666D01*
X180603095Y-107173904D01*
X181317380Y-105650095D02*
X181317380Y-106221523D01*
X181317380Y-105935809D02*
X180317380Y-105935809D01*
X180460238Y-106031047D01*
X180555476Y-106126285D01*
X180603095Y-106221523D01*
X178777380Y-108126285D02*
X177777380Y-108126285D01*
X177777380Y-107888190D01*
X177825000Y-107745333D01*
X177920238Y-107650095D01*
X178015476Y-107602476D01*
X178205952Y-107554857D01*
X178348809Y-107554857D01*
X178539285Y-107602476D01*
X178634523Y-107650095D01*
X178729761Y-107745333D01*
X178777380Y-107888190D01*
X178777380Y-108126285D01*
X178777380Y-106602476D02*
X178777380Y-107173904D01*
X178777380Y-106888190D02*
X177777380Y-106888190D01*
X177920238Y-106983428D01*
X178015476Y-107078666D01*
X178063095Y-107173904D01*
X177777380Y-105983428D02*
X177777380Y-105888190D01*
X177825000Y-105792952D01*
X177872619Y-105745333D01*
X177967857Y-105697714D01*
X178158333Y-105650095D01*
X178396428Y-105650095D01*
X178586904Y-105697714D01*
X178682142Y-105745333D01*
X178729761Y-105792952D01*
X178777380Y-105888190D01*
X178777380Y-105983428D01*
X178729761Y-106078666D01*
X178682142Y-106126285D01*
X178586904Y-106173904D01*
X178396428Y-106221523D01*
X178158333Y-106221523D01*
X177967857Y-106173904D01*
X177872619Y-106126285D01*
X177825000Y-106078666D01*
X177777380Y-105983428D01*
X176237380Y-107015095D02*
X175237380Y-107015095D01*
X175237380Y-106777000D01*
X175285000Y-106634142D01*
X175380238Y-106538904D01*
X175475476Y-106491285D01*
X175665952Y-106443666D01*
X175808809Y-106443666D01*
X175999285Y-106491285D01*
X176094523Y-106538904D01*
X176189761Y-106634142D01*
X176237380Y-106777000D01*
X176237380Y-107015095D01*
X176237380Y-105967476D02*
X176237380Y-105777000D01*
X176189761Y-105681761D01*
X176142142Y-105634142D01*
X175999285Y-105538904D01*
X175808809Y-105491285D01*
X175427857Y-105491285D01*
X175332619Y-105538904D01*
X175285000Y-105586523D01*
X175237380Y-105681761D01*
X175237380Y-105872238D01*
X175285000Y-105967476D01*
X175332619Y-106015095D01*
X175427857Y-106062714D01*
X175665952Y-106062714D01*
X175761190Y-106015095D01*
X175808809Y-105967476D01*
X175856428Y-105872238D01*
X175856428Y-105681761D01*
X175808809Y-105586523D01*
X175761190Y-105538904D01*
X175665952Y-105491285D01*
X173697380Y-107015095D02*
X172697380Y-107015095D01*
X172697380Y-106777000D01*
X172745000Y-106634142D01*
X172840238Y-106538904D01*
X172935476Y-106491285D01*
X173125952Y-106443666D01*
X173268809Y-106443666D01*
X173459285Y-106491285D01*
X173554523Y-106538904D01*
X173649761Y-106634142D01*
X173697380Y-106777000D01*
X173697380Y-107015095D01*
X173125952Y-105872238D02*
X173078333Y-105967476D01*
X173030714Y-106015095D01*
X172935476Y-106062714D01*
X172887857Y-106062714D01*
X172792619Y-106015095D01*
X172745000Y-105967476D01*
X172697380Y-105872238D01*
X172697380Y-105681761D01*
X172745000Y-105586523D01*
X172792619Y-105538904D01*
X172887857Y-105491285D01*
X172935476Y-105491285D01*
X173030714Y-105538904D01*
X173078333Y-105586523D01*
X173125952Y-105681761D01*
X173125952Y-105872238D01*
X173173571Y-105967476D01*
X173221190Y-106015095D01*
X173316428Y-106062714D01*
X173506904Y-106062714D01*
X173602142Y-106015095D01*
X173649761Y-105967476D01*
X173697380Y-105872238D01*
X173697380Y-105681761D01*
X173649761Y-105586523D01*
X173602142Y-105538904D01*
X173506904Y-105491285D01*
X173316428Y-105491285D01*
X173221190Y-105538904D01*
X173173571Y-105586523D01*
X173125952Y-105681761D01*
X171157380Y-107015095D02*
X170157380Y-107015095D01*
X170157380Y-106777000D01*
X170205000Y-106634142D01*
X170300238Y-106538904D01*
X170395476Y-106491285D01*
X170585952Y-106443666D01*
X170728809Y-106443666D01*
X170919285Y-106491285D01*
X171014523Y-106538904D01*
X171109761Y-106634142D01*
X171157380Y-106777000D01*
X171157380Y-107015095D01*
X170157380Y-106110333D02*
X170157380Y-105443666D01*
X171157380Y-105872238D01*
X168617380Y-107015095D02*
X167617380Y-107015095D01*
X167617380Y-106777000D01*
X167665000Y-106634142D01*
X167760238Y-106538904D01*
X167855476Y-106491285D01*
X168045952Y-106443666D01*
X168188809Y-106443666D01*
X168379285Y-106491285D01*
X168474523Y-106538904D01*
X168569761Y-106634142D01*
X168617380Y-106777000D01*
X168617380Y-107015095D01*
X167617380Y-105586523D02*
X167617380Y-105777000D01*
X167665000Y-105872238D01*
X167712619Y-105919857D01*
X167855476Y-106015095D01*
X168045952Y-106062714D01*
X168426904Y-106062714D01*
X168522142Y-106015095D01*
X168569761Y-105967476D01*
X168617380Y-105872238D01*
X168617380Y-105681761D01*
X168569761Y-105586523D01*
X168522142Y-105538904D01*
X168426904Y-105491285D01*
X168188809Y-105491285D01*
X168093571Y-105538904D01*
X168045952Y-105586523D01*
X167998333Y-105681761D01*
X167998333Y-105872238D01*
X168045952Y-105967476D01*
X168093571Y-106015095D01*
X168188809Y-106062714D01*
X166077380Y-107015095D02*
X165077380Y-107015095D01*
X165077380Y-106777000D01*
X165125000Y-106634142D01*
X165220238Y-106538904D01*
X165315476Y-106491285D01*
X165505952Y-106443666D01*
X165648809Y-106443666D01*
X165839285Y-106491285D01*
X165934523Y-106538904D01*
X166029761Y-106634142D01*
X166077380Y-106777000D01*
X166077380Y-107015095D01*
X165077380Y-105538904D02*
X165077380Y-106015095D01*
X165553571Y-106062714D01*
X165505952Y-106015095D01*
X165458333Y-105919857D01*
X165458333Y-105681761D01*
X165505952Y-105586523D01*
X165553571Y-105538904D01*
X165648809Y-105491285D01*
X165886904Y-105491285D01*
X165982142Y-105538904D01*
X166029761Y-105586523D01*
X166077380Y-105681761D01*
X166077380Y-105919857D01*
X166029761Y-106015095D01*
X165982142Y-106062714D01*
X163537380Y-107015095D02*
X162537380Y-107015095D01*
X162537380Y-106777000D01*
X162585000Y-106634142D01*
X162680238Y-106538904D01*
X162775476Y-106491285D01*
X162965952Y-106443666D01*
X163108809Y-106443666D01*
X163299285Y-106491285D01*
X163394523Y-106538904D01*
X163489761Y-106634142D01*
X163537380Y-106777000D01*
X163537380Y-107015095D01*
X162870714Y-105586523D02*
X163537380Y-105586523D01*
X162489761Y-105824619D02*
X163204047Y-106062714D01*
X163204047Y-105443666D01*
X160997380Y-107015095D02*
X159997380Y-107015095D01*
X159997380Y-106777000D01*
X160045000Y-106634142D01*
X160140238Y-106538904D01*
X160235476Y-106491285D01*
X160425952Y-106443666D01*
X160568809Y-106443666D01*
X160759285Y-106491285D01*
X160854523Y-106538904D01*
X160949761Y-106634142D01*
X160997380Y-106777000D01*
X160997380Y-107015095D01*
X159997380Y-106110333D02*
X159997380Y-105491285D01*
X160378333Y-105824619D01*
X160378333Y-105681761D01*
X160425952Y-105586523D01*
X160473571Y-105538904D01*
X160568809Y-105491285D01*
X160806904Y-105491285D01*
X160902142Y-105538904D01*
X160949761Y-105586523D01*
X160997380Y-105681761D01*
X160997380Y-105967476D01*
X160949761Y-106062714D01*
X160902142Y-106110333D01*
X158457380Y-107015095D02*
X157457380Y-107015095D01*
X157457380Y-106777000D01*
X157505000Y-106634142D01*
X157600238Y-106538904D01*
X157695476Y-106491285D01*
X157885952Y-106443666D01*
X158028809Y-106443666D01*
X158219285Y-106491285D01*
X158314523Y-106538904D01*
X158409761Y-106634142D01*
X158457380Y-106777000D01*
X158457380Y-107015095D01*
X157552619Y-106062714D02*
X157505000Y-106015095D01*
X157457380Y-105919857D01*
X157457380Y-105681761D01*
X157505000Y-105586523D01*
X157552619Y-105538904D01*
X157647857Y-105491285D01*
X157743095Y-105491285D01*
X157885952Y-105538904D01*
X158457380Y-106110333D01*
X158457380Y-105491285D01*
X154965000Y-107546904D02*
X154917380Y-107642142D01*
X154917380Y-107785000D01*
X154965000Y-107927857D01*
X155060238Y-108023095D01*
X155155476Y-108070714D01*
X155345952Y-108118333D01*
X155488809Y-108118333D01*
X155679285Y-108070714D01*
X155774523Y-108023095D01*
X155869761Y-107927857D01*
X155917380Y-107785000D01*
X155917380Y-107689761D01*
X155869761Y-107546904D01*
X155822142Y-107499285D01*
X155488809Y-107499285D01*
X155488809Y-107689761D01*
X155917380Y-107070714D02*
X154917380Y-107070714D01*
X155917380Y-106499285D01*
X154917380Y-106499285D01*
X155917380Y-106023095D02*
X154917380Y-106023095D01*
X154917380Y-105785000D01*
X154965000Y-105642142D01*
X155060238Y-105546904D01*
X155155476Y-105499285D01*
X155345952Y-105451666D01*
X155488809Y-105451666D01*
X155679285Y-105499285D01*
X155774523Y-105546904D01*
X155869761Y-105642142D01*
X155917380Y-105785000D01*
X155917380Y-106023095D01*
X153377380Y-107332619D02*
X152901190Y-107665952D01*
X153377380Y-107904047D02*
X152377380Y-107904047D01*
X152377380Y-107523095D01*
X152425000Y-107427857D01*
X152472619Y-107380238D01*
X152567857Y-107332619D01*
X152710714Y-107332619D01*
X152805952Y-107380238D01*
X152853571Y-107427857D01*
X152901190Y-107523095D01*
X152901190Y-107904047D01*
X153329761Y-106951666D02*
X153377380Y-106808809D01*
X153377380Y-106570714D01*
X153329761Y-106475476D01*
X153282142Y-106427857D01*
X153186904Y-106380238D01*
X153091666Y-106380238D01*
X152996428Y-106427857D01*
X152948809Y-106475476D01*
X152901190Y-106570714D01*
X152853571Y-106761190D01*
X152805952Y-106856428D01*
X152758333Y-106904047D01*
X152663095Y-106951666D01*
X152567857Y-106951666D01*
X152472619Y-106904047D01*
X152425000Y-106856428D01*
X152377380Y-106761190D01*
X152377380Y-106523095D01*
X152425000Y-106380238D01*
X152377380Y-106094523D02*
X152377380Y-105523095D01*
X153377380Y-105808809D02*
X152377380Y-105808809D01*
X150837380Y-106951666D02*
X150361190Y-107285000D01*
X150837380Y-107523095D02*
X149837380Y-107523095D01*
X149837380Y-107142142D01*
X149885000Y-107046904D01*
X149932619Y-106999285D01*
X150027857Y-106951666D01*
X150170714Y-106951666D01*
X150265952Y-106999285D01*
X150313571Y-107046904D01*
X150361190Y-107142142D01*
X150361190Y-107523095D01*
X149837380Y-106618333D02*
X150837380Y-105951666D01*
X149837380Y-105951666D02*
X150837380Y-106618333D01*
X147297380Y-107546904D02*
X147297380Y-106975476D01*
X148297380Y-107261190D02*
X147297380Y-107261190D01*
X147297380Y-106737380D02*
X148297380Y-106070714D01*
X147297380Y-106070714D02*
X148297380Y-106737380D01*
X183857380Y-82599285D02*
X182857380Y-82599285D01*
X182857380Y-82361190D01*
X182905000Y-82218333D01*
X183000238Y-82123095D01*
X183095476Y-82075476D01*
X183285952Y-82027857D01*
X183428809Y-82027857D01*
X183619285Y-82075476D01*
X183714523Y-82123095D01*
X183809761Y-82218333D01*
X183857380Y-82361190D01*
X183857380Y-82599285D01*
X183857380Y-81075476D02*
X183857380Y-81646904D01*
X183857380Y-81361190D02*
X182857380Y-81361190D01*
X183000238Y-81456428D01*
X183095476Y-81551666D01*
X183143095Y-81646904D01*
X182857380Y-80742142D02*
X182857380Y-80123095D01*
X183238333Y-80456428D01*
X183238333Y-80313571D01*
X183285952Y-80218333D01*
X183333571Y-80170714D01*
X183428809Y-80123095D01*
X183666904Y-80123095D01*
X183762142Y-80170714D01*
X183809761Y-80218333D01*
X183857380Y-80313571D01*
X183857380Y-80599285D01*
X183809761Y-80694523D01*
X183762142Y-80742142D01*
X180317380Y-82623095D02*
X180317380Y-82004047D01*
X180698333Y-82337380D01*
X180698333Y-82194523D01*
X180745952Y-82099285D01*
X180793571Y-82051666D01*
X180888809Y-82004047D01*
X181126904Y-82004047D01*
X181222142Y-82051666D01*
X181269761Y-82099285D01*
X181317380Y-82194523D01*
X181317380Y-82480238D01*
X181269761Y-82575476D01*
X181222142Y-82623095D01*
X180317380Y-81718333D02*
X181317380Y-81385000D01*
X180317380Y-81051666D01*
X180317380Y-80813571D02*
X180317380Y-80194523D01*
X180698333Y-80527857D01*
X180698333Y-80385000D01*
X180745952Y-80289761D01*
X180793571Y-80242142D01*
X180888809Y-80194523D01*
X181126904Y-80194523D01*
X181222142Y-80242142D01*
X181269761Y-80289761D01*
X181317380Y-80385000D01*
X181317380Y-80670714D01*
X181269761Y-80765952D01*
X181222142Y-80813571D01*
X178491666Y-82496047D02*
X178491666Y-82019857D01*
X178777380Y-82591285D02*
X177777380Y-82257952D01*
X178777380Y-81924619D01*
X178777380Y-81019857D02*
X178301190Y-81353190D01*
X178777380Y-81591285D02*
X177777380Y-81591285D01*
X177777380Y-81210333D01*
X177825000Y-81115095D01*
X177872619Y-81067476D01*
X177967857Y-81019857D01*
X178110714Y-81019857D01*
X178205952Y-81067476D01*
X178253571Y-81115095D01*
X178301190Y-81210333D01*
X178301190Y-81591285D01*
X178253571Y-80591285D02*
X178253571Y-80257952D01*
X178777380Y-80115095D02*
X178777380Y-80591285D01*
X177777380Y-80591285D01*
X177777380Y-80115095D01*
X178253571Y-79353190D02*
X178253571Y-79686523D01*
X178777380Y-79686523D02*
X177777380Y-79686523D01*
X177777380Y-79210333D01*
X175951666Y-82607285D02*
X175951666Y-82131095D01*
X176237380Y-82702523D02*
X175237380Y-82369190D01*
X176237380Y-82035857D01*
X175237380Y-81512047D02*
X175237380Y-81416809D01*
X175285000Y-81321571D01*
X175332619Y-81273952D01*
X175427857Y-81226333D01*
X175618333Y-81178714D01*
X175856428Y-81178714D01*
X176046904Y-81226333D01*
X176142142Y-81273952D01*
X176189761Y-81321571D01*
X176237380Y-81416809D01*
X176237380Y-81512047D01*
X176189761Y-81607285D01*
X176142142Y-81654904D01*
X176046904Y-81702523D01*
X175856428Y-81750142D01*
X175618333Y-81750142D01*
X175427857Y-81702523D01*
X175332619Y-81654904D01*
X175285000Y-81607285D01*
X175237380Y-81512047D01*
X173411666Y-82607285D02*
X173411666Y-82131095D01*
X173697380Y-82702523D02*
X172697380Y-82369190D01*
X173697380Y-82035857D01*
X173697380Y-81178714D02*
X173697380Y-81750142D01*
X173697380Y-81464428D02*
X172697380Y-81464428D01*
X172840238Y-81559666D01*
X172935476Y-81654904D01*
X172983095Y-81750142D01*
X170871666Y-82607285D02*
X170871666Y-82131095D01*
X171157380Y-82702523D02*
X170157380Y-82369190D01*
X171157380Y-82035857D01*
X170252619Y-81750142D02*
X170205000Y-81702523D01*
X170157380Y-81607285D01*
X170157380Y-81369190D01*
X170205000Y-81273952D01*
X170252619Y-81226333D01*
X170347857Y-81178714D01*
X170443095Y-81178714D01*
X170585952Y-81226333D01*
X171157380Y-81797761D01*
X171157380Y-81178714D01*
X168331666Y-82607285D02*
X168331666Y-82131095D01*
X168617380Y-82702523D02*
X167617380Y-82369190D01*
X168617380Y-82035857D01*
X167617380Y-81797761D02*
X167617380Y-81178714D01*
X167998333Y-81512047D01*
X167998333Y-81369190D01*
X168045952Y-81273952D01*
X168093571Y-81226333D01*
X168188809Y-81178714D01*
X168426904Y-81178714D01*
X168522142Y-81226333D01*
X168569761Y-81273952D01*
X168617380Y-81369190D01*
X168617380Y-81654904D01*
X168569761Y-81750142D01*
X168522142Y-81797761D01*
X165791666Y-82607285D02*
X165791666Y-82131095D01*
X166077380Y-82702523D02*
X165077380Y-82369190D01*
X166077380Y-82035857D01*
X165410714Y-81273952D02*
X166077380Y-81273952D01*
X165029761Y-81512047D02*
X165744047Y-81750142D01*
X165744047Y-81131095D01*
X163251666Y-82607285D02*
X163251666Y-82131095D01*
X163537380Y-82702523D02*
X162537380Y-82369190D01*
X163537380Y-82035857D01*
X162537380Y-81226333D02*
X162537380Y-81702523D01*
X163013571Y-81750142D01*
X162965952Y-81702523D01*
X162918333Y-81607285D01*
X162918333Y-81369190D01*
X162965952Y-81273952D01*
X163013571Y-81226333D01*
X163108809Y-81178714D01*
X163346904Y-81178714D01*
X163442142Y-81226333D01*
X163489761Y-81273952D01*
X163537380Y-81369190D01*
X163537380Y-81607285D01*
X163489761Y-81702523D01*
X163442142Y-81750142D01*
X160711666Y-82607285D02*
X160711666Y-82131095D01*
X160997380Y-82702523D02*
X159997380Y-82369190D01*
X160997380Y-82035857D01*
X159997380Y-81273952D02*
X159997380Y-81464428D01*
X160045000Y-81559666D01*
X160092619Y-81607285D01*
X160235476Y-81702523D01*
X160425952Y-81750142D01*
X160806904Y-81750142D01*
X160902142Y-81702523D01*
X160949761Y-81654904D01*
X160997380Y-81559666D01*
X160997380Y-81369190D01*
X160949761Y-81273952D01*
X160902142Y-81226333D01*
X160806904Y-81178714D01*
X160568809Y-81178714D01*
X160473571Y-81226333D01*
X160425952Y-81273952D01*
X160378333Y-81369190D01*
X160378333Y-81559666D01*
X160425952Y-81654904D01*
X160473571Y-81702523D01*
X160568809Y-81750142D01*
X158171666Y-82607285D02*
X158171666Y-82131095D01*
X158457380Y-82702523D02*
X157457380Y-82369190D01*
X158457380Y-82035857D01*
X157457380Y-81797761D02*
X157457380Y-81131095D01*
X158457380Y-81559666D01*
X154917380Y-82083476D02*
X154917380Y-82559666D01*
X155393571Y-82607285D01*
X155345952Y-82559666D01*
X155298333Y-82464428D01*
X155298333Y-82226333D01*
X155345952Y-82131095D01*
X155393571Y-82083476D01*
X155488809Y-82035857D01*
X155726904Y-82035857D01*
X155822142Y-82083476D01*
X155869761Y-82131095D01*
X155917380Y-82226333D01*
X155917380Y-82464428D01*
X155869761Y-82559666D01*
X155822142Y-82607285D01*
X154917380Y-81750142D02*
X155917380Y-81416809D01*
X154917380Y-81083476D01*
X153377380Y-82186619D02*
X152901190Y-82519952D01*
X153377380Y-82758047D02*
X152377380Y-82758047D01*
X152377380Y-82377095D01*
X152425000Y-82281857D01*
X152472619Y-82234238D01*
X152567857Y-82186619D01*
X152710714Y-82186619D01*
X152805952Y-82234238D01*
X152853571Y-82281857D01*
X152901190Y-82377095D01*
X152901190Y-82758047D01*
X153329761Y-81805666D02*
X153377380Y-81662809D01*
X153377380Y-81424714D01*
X153329761Y-81329476D01*
X153282142Y-81281857D01*
X153186904Y-81234238D01*
X153091666Y-81234238D01*
X152996428Y-81281857D01*
X152948809Y-81329476D01*
X152901190Y-81424714D01*
X152853571Y-81615190D01*
X152805952Y-81710428D01*
X152758333Y-81758047D01*
X152663095Y-81805666D01*
X152567857Y-81805666D01*
X152472619Y-81758047D01*
X152425000Y-81710428D01*
X152377380Y-81615190D01*
X152377380Y-81377095D01*
X152425000Y-81234238D01*
X152377380Y-80948523D02*
X152377380Y-80377095D01*
X153377380Y-80662809D02*
X152377380Y-80662809D01*
X149885000Y-82146904D02*
X149837380Y-82242142D01*
X149837380Y-82385000D01*
X149885000Y-82527857D01*
X149980238Y-82623095D01*
X150075476Y-82670714D01*
X150265952Y-82718333D01*
X150408809Y-82718333D01*
X150599285Y-82670714D01*
X150694523Y-82623095D01*
X150789761Y-82527857D01*
X150837380Y-82385000D01*
X150837380Y-82289761D01*
X150789761Y-82146904D01*
X150742142Y-82099285D01*
X150408809Y-82099285D01*
X150408809Y-82289761D01*
X150837380Y-81670714D02*
X149837380Y-81670714D01*
X150837380Y-81099285D01*
X149837380Y-81099285D01*
X150837380Y-80623095D02*
X149837380Y-80623095D01*
X149837380Y-80385000D01*
X149885000Y-80242142D01*
X149980238Y-80146904D01*
X150075476Y-80099285D01*
X150265952Y-80051666D01*
X150408809Y-80051666D01*
X150599285Y-80099285D01*
X150694523Y-80146904D01*
X150789761Y-80242142D01*
X150837380Y-80385000D01*
X150837380Y-80623095D01*
X147297380Y-82734238D02*
X148297380Y-82400904D01*
X147297380Y-82067571D01*
X148297380Y-81734238D02*
X147297380Y-81734238D01*
X148297380Y-81258047D02*
X147297380Y-81258047D01*
X148297380Y-80686619D01*
X147297380Y-80686619D01*
X154702153Y-93728360D02*
X154368820Y-93252170D01*
X154130724Y-93728360D02*
X154130724Y-92728360D01*
X154511677Y-92728360D01*
X154606915Y-92775980D01*
X154654534Y-92823599D01*
X154702153Y-92918837D01*
X154702153Y-93061694D01*
X154654534Y-93156932D01*
X154606915Y-93204551D01*
X154511677Y-93252170D01*
X154130724Y-93252170D01*
X155606915Y-92728360D02*
X155130724Y-92728360D01*
X155083105Y-93204551D01*
X155130724Y-93156932D01*
X155225962Y-93109313D01*
X155464058Y-93109313D01*
X155559296Y-93156932D01*
X155606915Y-93204551D01*
X155654534Y-93299789D01*
X155654534Y-93537884D01*
X155606915Y-93633122D01*
X155559296Y-93680741D01*
X155464058Y-93728360D01*
X155225962Y-93728360D01*
X155130724Y-93680741D01*
X155083105Y-93633122D01*
M02*
