M48
; DRILL file {KiCad (5.1.6-0-10_14)} date Saturday, May 23, 2020 at 01:17:41 AM
; FORMAT={-:-/ absolute / metric / decimal}
; #@! TF.CreationDate,2020-05-23T01:17:41+02:00
; #@! TF.GenerationSoftware,Kicad,Pcbnew,(5.1.6-0-10_14)
; #@! TF.FileFunction,Plated,1,2,PTH
FMAT,2
METRIC
T1C0.400
T2C0.800
T3C0.900
T4C1.000
T5C1.100
T6C1.300
T7C1.350
T8C3.200
%
G90
G05
T1
X140.605Y-70.447
X175.785Y-70.59
X188.485Y-82.655
T2
X124.919Y-92.749
X132.539Y-92.749
X134.999Y-86.465
X134.999Y-89.005
X134.999Y-91.545
X142.619Y-86.465
X142.619Y-89.005
X142.619Y-91.545
X124.985Y-96.625
X124.985Y-104.245
X131.335Y-99.165
X131.335Y-106.785
X135.019Y-96.649
X135.019Y-99.189
X135.019Y-101.729
X142.639Y-96.649
X142.639Y-99.189
X142.639Y-101.729
X128.16Y-96.625
X128.16Y-104.245
X124.985Y-83.925
X124.985Y-88.925
T3
X177.819Y-75.67
X182.899Y-75.67
T4
X165.625Y-70.59
X168.165Y-70.59
X170.705Y-70.59
X147.869Y-86.459
X147.869Y-101.699
X150.409Y-86.459
X150.409Y-101.699
X152.949Y-86.459
X152.949Y-101.699
X155.489Y-86.459
X155.489Y-101.699
X158.029Y-86.459
X158.029Y-101.699
X160.569Y-86.459
X160.569Y-101.699
X163.109Y-86.459
X163.109Y-101.699
X165.649Y-86.459
X165.649Y-101.699
X168.189Y-86.459
X168.189Y-101.699
X170.729Y-86.459
X170.729Y-101.699
X173.269Y-86.459
X173.269Y-101.699
X175.809Y-86.459
X175.809Y-101.699
X178.349Y-86.459
X178.349Y-101.699
X180.889Y-86.459
X180.889Y-101.699
X183.429Y-86.459
X183.429Y-101.699
X145.305Y-81.385
X147.845Y-81.385
X165.625Y-75.67
X168.165Y-75.67
X170.705Y-75.67
X149.115Y-115.04
X151.655Y-115.04
X154.195Y-115.04
X156.735Y-115.04
X159.275Y-115.04
X161.815Y-115.04
X164.355Y-115.04
X166.895Y-115.04
X169.435Y-115.04
X171.975Y-115.04
X174.515Y-115.04
X177.055Y-115.04
X179.595Y-115.04
X182.135Y-115.04
X184.675Y-115.04
X187.215Y-115.04
X189.755Y-115.04
X157.37Y-73.15
X157.37Y-80.75
X179.467Y-71.971
X182.007Y-71.971
X165.625Y-73.13
X168.165Y-73.13
X170.705Y-73.13
X145.305Y-107.42
X145.305Y-109.96
X145.305Y-112.5
X165.625Y-78.21
X168.165Y-78.21
X170.705Y-78.21
X180.865Y-108.69
X183.405Y-108.69
X185.945Y-108.69
X188.485Y-108.69
X191.025Y-108.69
T5
X114.824Y-90.259
X114.824Y-92.799
X114.824Y-95.339
X189.373Y-73.13
X189.373Y-75.67
X189.373Y-78.21
T6
X111.094Y-71.174
X111.094Y-76.174
X143.019Y-73.674
X148.019Y-73.674
X110.994Y-109.824
X110.994Y-114.824
T7
X104.664Y-82.639
X104.664Y-87.639
X104.664Y-97.639
X104.664Y-102.639
T8
X136.493Y-112.991
X196.493Y-72.991
X196.493Y-112.991
X136.493Y-72.991
T0
M30
