%FSLAX45Y45*%
G04 Gerber Fmt 4.5, Leading zero omitted, Abs format (unit mm)*
G04 Created by KiCad (PCBNEW (5.1.8-0-10_14)) date 2021-01-11 22:35:17*
%MOMM*%
%LPD*%
G01*
G04 APERTURE LIST*
%TA.AperFunction,Profile*%
%ADD10C,0.150000*%
%TD*%
%ADD11C,0.200000*%
%ADD12C,0.300000*%
G04 APERTURE END LIST*
D10*
X10041882Y-5799926D02*
X10050000Y-7000000D01*
X20041882Y-5799926D02*
X10041882Y-5799926D01*
X20041882Y-11799926D02*
X20041882Y-5799926D01*
X19850000Y-11800000D02*
X20041882Y-11799926D01*
X19850000Y-11800000D02*
X10250000Y-11800000D01*
X10050000Y-11600000D02*
X10250000Y-11800000D01*
X10050000Y-7000000D02*
X10050000Y-11600000D01*
D11*
X14040482Y-7024726D02*
X14080482Y-7064726D01*
X14080482Y-7024726D02*
X14040482Y-7064726D01*
X18828500Y-8245500D02*
X18868500Y-8285500D01*
X18868500Y-8245500D02*
X18828500Y-8285500D01*
X12856000Y-9662500D02*
G75*
G03*
X12856000Y-9662500I-40000J0D01*
G01*
X12856000Y-10424500D02*
G75*
G03*
X12856000Y-10424500I-40000J0D01*
G01*
X13173500Y-9916500D02*
G75*
G03*
X13173500Y-9916500I-40000J0D01*
G01*
X13173500Y-10678500D02*
G75*
G03*
X13173500Y-10678500I-40000J0D01*
G01*
X12538500Y-8392500D02*
G75*
G03*
X12538500Y-8392500I-40000J0D01*
G01*
X12538500Y-8892500D02*
G75*
G03*
X12538500Y-8892500I-40000J0D01*
G01*
X12538500Y-9662500D02*
G75*
G03*
X12538500Y-9662500I-40000J0D01*
G01*
X12538500Y-10424500D02*
G75*
G03*
X12538500Y-10424500I-40000J0D01*
G01*
X13539882Y-8646500D02*
G75*
G03*
X13539882Y-8646500I-40000J0D01*
G01*
X13539882Y-8900500D02*
G75*
G03*
X13539882Y-8900500I-40000J0D01*
G01*
X13539882Y-9154500D02*
G75*
G03*
X13539882Y-9154500I-40000J0D01*
G01*
X14301882Y-8646500D02*
G75*
G03*
X14301882Y-8646500I-40000J0D01*
G01*
X14301882Y-8900500D02*
G75*
G03*
X14301882Y-8900500I-40000J0D01*
G01*
X14301882Y-9154500D02*
G75*
G03*
X14301882Y-9154500I-40000J0D01*
G01*
X13541882Y-9664926D02*
G75*
G03*
X13541882Y-9664926I-40000J0D01*
G01*
X13541882Y-9918926D02*
G75*
G03*
X13541882Y-9918926I-40000J0D01*
G01*
X13541882Y-10172926D02*
G75*
G03*
X13541882Y-10172926I-40000J0D01*
G01*
X14303882Y-9664926D02*
G75*
G03*
X14303882Y-9664926I-40000J0D01*
G01*
X14303882Y-9918926D02*
G75*
G03*
X14303882Y-9918926I-40000J0D01*
G01*
X14303882Y-10172926D02*
G75*
G03*
X14303882Y-10172926I-40000J0D01*
G01*
X12531882Y-9274926D02*
G75*
G03*
X12531882Y-9274926I-40000J0D01*
G01*
X13293882Y-9274926D02*
G75*
G03*
X13293882Y-9274926I-40000J0D01*
G01*
X17521882Y-7134926D02*
X17521882Y-7224926D01*
X17476882Y-7179926D02*
X17566882Y-7179926D01*
X18029882Y-7134926D02*
X18029882Y-7224926D01*
X17984882Y-7179926D02*
X18074882Y-7179926D01*
X15259238Y-10904356D02*
X15259238Y-10833644D01*
X15188526Y-10833644D01*
X15188526Y-10904356D01*
X15259238Y-10904356D01*
X15513238Y-10904356D02*
X15513238Y-10833644D01*
X15442526Y-10833644D01*
X15442526Y-10904356D01*
X15513238Y-10904356D01*
X15767238Y-10904356D02*
X15767238Y-10833644D01*
X15696526Y-10833644D01*
X15696526Y-10904356D01*
X15767238Y-10904356D01*
X16021238Y-10904356D02*
X16021238Y-10833644D01*
X15950526Y-10833644D01*
X15950526Y-10904356D01*
X16021238Y-10904356D01*
X18121856Y-10904356D02*
X18121856Y-10833644D01*
X18051144Y-10833644D01*
X18051144Y-10904356D01*
X18121856Y-10904356D01*
X18375856Y-10904356D02*
X18375856Y-10833644D01*
X18305144Y-10833644D01*
X18305144Y-10904356D01*
X18375856Y-10904356D01*
X18629856Y-10904356D02*
X18629856Y-10833644D01*
X18559144Y-10833644D01*
X18559144Y-10904356D01*
X18629856Y-10904356D01*
X18883856Y-10904356D02*
X18883856Y-10833644D01*
X18813144Y-10833644D01*
X18813144Y-10904356D01*
X18883856Y-10904356D01*
X19137856Y-10904356D02*
X19137856Y-10833644D01*
X19067144Y-10833644D01*
X19067144Y-10904356D01*
X19137856Y-10904356D01*
X15772356Y-7350356D02*
X15772356Y-7279644D01*
X15701644Y-7279644D01*
X15701644Y-7350356D01*
X15772356Y-7350356D01*
X15772356Y-8110356D02*
X15772356Y-8039644D01*
X15701644Y-8039644D01*
X15701644Y-8110356D01*
X15772356Y-8110356D01*
X14565856Y-10777356D02*
X14565856Y-10706644D01*
X14495144Y-10706644D01*
X14495144Y-10777356D01*
X14565856Y-10777356D01*
X14565856Y-11031356D02*
X14565856Y-10960644D01*
X14495144Y-10960644D01*
X14495144Y-11031356D01*
X14565856Y-11031356D01*
X14565856Y-11285356D02*
X14565856Y-11214644D01*
X14495144Y-11214644D01*
X14495144Y-11285356D01*
X14565856Y-11285356D01*
X14822238Y-8681282D02*
X14822238Y-8610570D01*
X14751526Y-8610570D01*
X14751526Y-8681282D01*
X14822238Y-8681282D01*
X14822238Y-10205282D02*
X14822238Y-10134570D01*
X14751526Y-10134570D01*
X14751526Y-10205282D01*
X14822238Y-10205282D01*
X15076238Y-8681282D02*
X15076238Y-8610570D01*
X15005526Y-8610570D01*
X15005526Y-8681282D01*
X15076238Y-8681282D01*
X15076238Y-10205282D02*
X15076238Y-10134570D01*
X15005526Y-10134570D01*
X15005526Y-10205282D01*
X15076238Y-10205282D01*
X15330238Y-8681282D02*
X15330238Y-8610570D01*
X15259526Y-8610570D01*
X15259526Y-8681282D01*
X15330238Y-8681282D01*
X15330238Y-10205282D02*
X15330238Y-10134570D01*
X15259526Y-10134570D01*
X15259526Y-10205282D01*
X15330238Y-10205282D01*
X15584238Y-8681282D02*
X15584238Y-8610570D01*
X15513526Y-8610570D01*
X15513526Y-8681282D01*
X15584238Y-8681282D01*
X15584238Y-10205282D02*
X15584238Y-10134570D01*
X15513526Y-10134570D01*
X15513526Y-10205282D01*
X15584238Y-10205282D01*
X15838238Y-8681282D02*
X15838238Y-8610570D01*
X15767526Y-8610570D01*
X15767526Y-8681282D01*
X15838238Y-8681282D01*
X15838238Y-10205282D02*
X15838238Y-10134570D01*
X15767526Y-10134570D01*
X15767526Y-10205282D01*
X15838238Y-10205282D01*
X16092238Y-8681282D02*
X16092238Y-8610570D01*
X16021526Y-8610570D01*
X16021526Y-8681282D01*
X16092238Y-8681282D01*
X16092238Y-10205282D02*
X16092238Y-10134570D01*
X16021526Y-10134570D01*
X16021526Y-10205282D01*
X16092238Y-10205282D01*
X16346238Y-8681282D02*
X16346238Y-8610570D01*
X16275526Y-8610570D01*
X16275526Y-8681282D01*
X16346238Y-8681282D01*
X16346238Y-10205282D02*
X16346238Y-10134570D01*
X16275526Y-10134570D01*
X16275526Y-10205282D01*
X16346238Y-10205282D01*
X16600238Y-8681282D02*
X16600238Y-8610570D01*
X16529526Y-8610570D01*
X16529526Y-8681282D01*
X16600238Y-8681282D01*
X16600238Y-10205282D02*
X16600238Y-10134570D01*
X16529526Y-10134570D01*
X16529526Y-10205282D01*
X16600238Y-10205282D01*
X16854238Y-8681282D02*
X16854238Y-8610570D01*
X16783526Y-8610570D01*
X16783526Y-8681282D01*
X16854238Y-8681282D01*
X16854238Y-10205282D02*
X16854238Y-10134570D01*
X16783526Y-10134570D01*
X16783526Y-10205282D01*
X16854238Y-10205282D01*
X17108238Y-8681282D02*
X17108238Y-8610570D01*
X17037526Y-8610570D01*
X17037526Y-8681282D01*
X17108238Y-8681282D01*
X17108238Y-10205282D02*
X17108238Y-10134570D01*
X17037526Y-10134570D01*
X17037526Y-10205282D01*
X17108238Y-10205282D01*
X17362238Y-8681282D02*
X17362238Y-8610570D01*
X17291526Y-8610570D01*
X17291526Y-8681282D01*
X17362238Y-8681282D01*
X17362238Y-10205282D02*
X17362238Y-10134570D01*
X17291526Y-10134570D01*
X17291526Y-10205282D01*
X17362238Y-10205282D01*
X17616238Y-8681282D02*
X17616238Y-8610570D01*
X17545526Y-8610570D01*
X17545526Y-8681282D01*
X17616238Y-8681282D01*
X17616238Y-10205282D02*
X17616238Y-10134570D01*
X17545526Y-10134570D01*
X17545526Y-10205282D01*
X17616238Y-10205282D01*
X17870238Y-8681282D02*
X17870238Y-8610570D01*
X17799526Y-8610570D01*
X17799526Y-8681282D01*
X17870238Y-8681282D01*
X17870238Y-10205282D02*
X17870238Y-10134570D01*
X17799526Y-10134570D01*
X17799526Y-10205282D01*
X17870238Y-10205282D01*
X18124238Y-8681282D02*
X18124238Y-8610570D01*
X18053526Y-8610570D01*
X18053526Y-8681282D01*
X18124238Y-8681282D01*
X18124238Y-10205282D02*
X18124238Y-10134570D01*
X18053526Y-10134570D01*
X18053526Y-10205282D01*
X18124238Y-10205282D01*
X18378238Y-8681282D02*
X18378238Y-8610570D01*
X18307526Y-8610570D01*
X18307526Y-8681282D01*
X18378238Y-8681282D01*
X18378238Y-10205282D02*
X18378238Y-10134570D01*
X18307526Y-10134570D01*
X18307526Y-10205282D01*
X18378238Y-10205282D01*
X14819856Y-7919856D02*
X14819856Y-7849144D01*
X14749144Y-7849144D01*
X14749144Y-7919856D01*
X14819856Y-7919856D01*
X14819856Y-8173856D02*
X14819856Y-8103144D01*
X14749144Y-8103144D01*
X14749144Y-8173856D01*
X14819856Y-8173856D01*
X11482382Y-9080926D02*
X11537382Y-9025926D01*
X11482382Y-8970926D01*
X11427382Y-9025926D01*
X11482382Y-9080926D01*
X11482382Y-9334926D02*
X11537382Y-9279926D01*
X11482382Y-9224926D01*
X11427382Y-9279926D01*
X11482382Y-9334926D01*
X11482382Y-9588926D02*
X11537382Y-9533926D01*
X11482382Y-9478926D01*
X11427382Y-9533926D01*
X11482382Y-9588926D01*
X18461882Y-7414926D02*
X18516882Y-7359926D01*
X18461882Y-7304926D01*
X18406882Y-7359926D01*
X18461882Y-7414926D01*
X18715882Y-7414926D02*
X18770882Y-7359926D01*
X18715882Y-7304926D01*
X18660882Y-7359926D01*
X18715882Y-7414926D01*
X18969882Y-7414926D02*
X19024882Y-7359926D01*
X18969882Y-7304926D01*
X18914882Y-7359926D01*
X18969882Y-7414926D01*
X17796882Y-6254926D02*
X17926882Y-6384926D01*
X17926882Y-6254926D02*
X17796882Y-6384926D01*
X17926882Y-6319926D02*
G75*
G03*
X17926882Y-6319926I-65000J0D01*
G01*
X18296882Y-6254926D02*
X18426882Y-6384926D01*
X18426882Y-6254926D02*
X18296882Y-6384926D01*
X18426882Y-6319926D02*
G75*
G03*
X18426882Y-6319926I-65000J0D01*
G01*
X11034382Y-10917426D02*
X11164382Y-11047426D01*
X11164382Y-10917426D02*
X11034382Y-11047426D01*
X11164382Y-10982426D02*
G75*
G03*
X11164382Y-10982426I-65000J0D01*
G01*
X11034382Y-11417426D02*
X11164382Y-11547426D01*
X11164382Y-11417426D02*
X11034382Y-11547426D01*
X11164382Y-11482426D02*
G75*
G03*
X11164382Y-11482426I-65000J0D01*
G01*
X11044382Y-7052426D02*
X11174382Y-7182426D01*
X11174382Y-7052426D02*
X11044382Y-7182426D01*
X11174382Y-7117426D02*
G75*
G03*
X11174382Y-7117426I-65000J0D01*
G01*
X11044382Y-7552426D02*
X11174382Y-7682426D01*
X11174382Y-7552426D02*
X11044382Y-7682426D01*
X11174382Y-7617426D02*
G75*
G03*
X11174382Y-7617426I-65000J0D01*
G01*
X14506882Y-6254926D02*
X14636882Y-6384926D01*
X14636882Y-6254926D02*
X14506882Y-6384926D01*
X14636882Y-6319926D02*
G75*
G03*
X14636882Y-6319926I-65000J0D01*
G01*
X15006882Y-6254926D02*
X15136882Y-6384926D01*
X15136882Y-6254926D02*
X15006882Y-6384926D01*
X15136882Y-6319926D02*
G75*
G03*
X15136882Y-6319926I-65000J0D01*
G01*
X18936882Y-6254926D02*
X19066882Y-6384926D01*
X19066882Y-6254926D02*
X18936882Y-6384926D01*
X19066882Y-6319926D02*
G75*
G03*
X19066882Y-6319926I-65000J0D01*
G01*
X19436882Y-6254926D02*
X19566882Y-6384926D01*
X19566882Y-6254926D02*
X19436882Y-6384926D01*
X19566882Y-6319926D02*
G75*
G03*
X19566882Y-6319926I-65000J0D01*
G01*
X10398882Y-8196426D02*
X10533882Y-8331426D01*
X10533882Y-8196426D02*
X10398882Y-8331426D01*
X10466382Y-8196426D02*
X10466382Y-8331426D01*
X10398882Y-8263926D02*
X10533882Y-8263926D01*
X10398882Y-8696426D02*
X10533882Y-8831426D01*
X10533882Y-8696426D02*
X10398882Y-8831426D01*
X10466382Y-8696426D02*
X10466382Y-8831426D01*
X10398882Y-8763926D02*
X10533882Y-8763926D01*
X10398882Y-9696426D02*
X10533882Y-9831426D01*
X10533882Y-9696426D02*
X10398882Y-9831426D01*
X10466382Y-9696426D02*
X10466382Y-9831426D01*
X10398882Y-9763926D02*
X10533882Y-9763926D01*
X10398882Y-10196426D02*
X10533882Y-10331426D01*
X10533882Y-10196426D02*
X10398882Y-10331426D01*
X10466382Y-10196426D02*
X10466382Y-10331426D01*
X10398882Y-10263926D02*
X10533882Y-10263926D01*
X19489314Y-11139098D02*
X19809314Y-11459098D01*
X19809314Y-11139098D02*
X19489314Y-11459098D01*
X19762452Y-11412236D02*
X19762452Y-11185960D01*
X19536176Y-11185960D01*
X19536176Y-11412236D01*
X19762452Y-11412236D01*
X13489314Y-7139098D02*
X13809314Y-7459098D01*
X13809314Y-7139098D02*
X13489314Y-7459098D01*
X13762452Y-7412236D02*
X13762452Y-7185960D01*
X13536176Y-7185960D01*
X13536176Y-7412236D01*
X13762452Y-7412236D01*
X13489314Y-11139098D02*
X13809314Y-11459098D01*
X13809314Y-11139098D02*
X13489314Y-11459098D01*
X13762452Y-11412236D02*
X13762452Y-11185960D01*
X13536176Y-11185960D01*
X13536176Y-11412236D01*
X13762452Y-11412236D01*
D12*
X10320810Y-12273214D02*
X10320810Y-11973214D01*
X10392239Y-11973214D01*
X10435096Y-11987500D01*
X10463668Y-12016071D01*
X10477953Y-12044643D01*
X10492239Y-12101786D01*
X10492239Y-12144643D01*
X10477953Y-12201786D01*
X10463668Y-12230357D01*
X10435096Y-12258929D01*
X10392239Y-12273214D01*
X10320810Y-12273214D01*
X10620810Y-12273214D02*
X10620810Y-12073214D01*
X10620810Y-12130357D02*
X10635096Y-12101786D01*
X10649382Y-12087500D01*
X10677953Y-12073214D01*
X10706525Y-12073214D01*
X10806525Y-12273214D02*
X10806525Y-12073214D01*
X10806525Y-11973214D02*
X10792239Y-11987500D01*
X10806525Y-12001786D01*
X10820810Y-11987500D01*
X10806525Y-11973214D01*
X10806525Y-12001786D01*
X10992239Y-12273214D02*
X10963668Y-12258929D01*
X10949382Y-12230357D01*
X10949382Y-11973214D01*
X11149382Y-12273214D02*
X11120810Y-12258929D01*
X11106525Y-12230357D01*
X11106525Y-11973214D01*
X11492239Y-12273214D02*
X11492239Y-11973214D01*
X11592239Y-12187500D01*
X11692239Y-11973214D01*
X11692239Y-12273214D01*
X11963668Y-12273214D02*
X11963668Y-12116071D01*
X11949382Y-12087500D01*
X11920810Y-12073214D01*
X11863668Y-12073214D01*
X11835096Y-12087500D01*
X11963668Y-12258929D02*
X11935096Y-12273214D01*
X11863668Y-12273214D01*
X11835096Y-12258929D01*
X11820810Y-12230357D01*
X11820810Y-12201786D01*
X11835096Y-12173214D01*
X11863668Y-12158929D01*
X11935096Y-12158929D01*
X11963668Y-12144643D01*
X12106525Y-12073214D02*
X12106525Y-12373214D01*
X12106525Y-12087500D02*
X12135096Y-12073214D01*
X12192239Y-12073214D01*
X12220810Y-12087500D01*
X12235096Y-12101786D01*
X12249382Y-12130357D01*
X12249382Y-12216071D01*
X12235096Y-12244643D01*
X12220810Y-12258929D01*
X12192239Y-12273214D01*
X12135096Y-12273214D01*
X12106525Y-12258929D01*
X12377953Y-12244643D02*
X12392239Y-12258929D01*
X12377953Y-12273214D01*
X12363668Y-12258929D01*
X12377953Y-12244643D01*
X12377953Y-12273214D01*
X12377953Y-12087500D02*
X12392239Y-12101786D01*
X12377953Y-12116071D01*
X12363668Y-12101786D01*
X12377953Y-12087500D01*
X12377953Y-12116071D01*
X9994382Y-12747500D02*
X10034382Y-12787500D01*
X10034382Y-12747500D02*
X9994382Y-12787500D01*
X10377953Y-12603214D02*
X10406525Y-12603214D01*
X10435096Y-12617500D01*
X10449382Y-12631786D01*
X10463668Y-12660357D01*
X10477953Y-12717500D01*
X10477953Y-12788929D01*
X10463668Y-12846071D01*
X10449382Y-12874643D01*
X10435096Y-12888929D01*
X10406525Y-12903214D01*
X10377953Y-12903214D01*
X10349382Y-12888929D01*
X10335096Y-12874643D01*
X10320810Y-12846071D01*
X10306525Y-12788929D01*
X10306525Y-12717500D01*
X10320810Y-12660357D01*
X10335096Y-12631786D01*
X10349382Y-12617500D01*
X10377953Y-12603214D01*
X10606525Y-12874643D02*
X10620810Y-12888929D01*
X10606525Y-12903214D01*
X10592239Y-12888929D01*
X10606525Y-12874643D01*
X10606525Y-12903214D01*
X10877953Y-12703214D02*
X10877953Y-12903214D01*
X10806525Y-12588929D02*
X10735096Y-12803214D01*
X10920810Y-12803214D01*
X11092239Y-12603214D02*
X11120810Y-12603214D01*
X11149382Y-12617500D01*
X11163668Y-12631786D01*
X11177953Y-12660357D01*
X11192239Y-12717500D01*
X11192239Y-12788929D01*
X11177953Y-12846071D01*
X11163668Y-12874643D01*
X11149382Y-12888929D01*
X11120810Y-12903214D01*
X11092239Y-12903214D01*
X11063668Y-12888929D01*
X11049382Y-12874643D01*
X11035096Y-12846071D01*
X11020810Y-12788929D01*
X11020810Y-12717500D01*
X11035096Y-12660357D01*
X11049382Y-12631786D01*
X11063668Y-12617500D01*
X11092239Y-12603214D01*
X11320810Y-12903214D02*
X11320810Y-12703214D01*
X11320810Y-12731786D02*
X11335096Y-12717500D01*
X11363668Y-12703214D01*
X11406525Y-12703214D01*
X11435096Y-12717500D01*
X11449382Y-12746071D01*
X11449382Y-12903214D01*
X11449382Y-12746071D02*
X11463668Y-12717500D01*
X11492239Y-12703214D01*
X11535096Y-12703214D01*
X11563668Y-12717500D01*
X11577953Y-12746071D01*
X11577953Y-12903214D01*
X11720810Y-12903214D02*
X11720810Y-12703214D01*
X11720810Y-12731786D02*
X11735096Y-12717500D01*
X11763668Y-12703214D01*
X11806525Y-12703214D01*
X11835096Y-12717500D01*
X11849382Y-12746071D01*
X11849382Y-12903214D01*
X11849382Y-12746071D02*
X11863668Y-12717500D01*
X11892239Y-12703214D01*
X11935096Y-12703214D01*
X11963668Y-12717500D01*
X11977953Y-12746071D01*
X11977953Y-12903214D01*
X12563668Y-12588929D02*
X12306525Y-12974643D01*
X12949382Y-12603214D02*
X12977953Y-12603214D01*
X13006525Y-12617500D01*
X13020810Y-12631786D01*
X13035096Y-12660357D01*
X13049382Y-12717500D01*
X13049382Y-12788929D01*
X13035096Y-12846071D01*
X13020810Y-12874643D01*
X13006525Y-12888929D01*
X12977953Y-12903214D01*
X12949382Y-12903214D01*
X12920810Y-12888929D01*
X12906525Y-12874643D01*
X12892239Y-12846071D01*
X12877953Y-12788929D01*
X12877953Y-12717500D01*
X12892239Y-12660357D01*
X12906525Y-12631786D01*
X12920810Y-12617500D01*
X12949382Y-12603214D01*
X13177953Y-12874643D02*
X13192239Y-12888929D01*
X13177953Y-12903214D01*
X13163668Y-12888929D01*
X13177953Y-12874643D01*
X13177953Y-12903214D01*
X13377953Y-12603214D02*
X13406525Y-12603214D01*
X13435096Y-12617500D01*
X13449382Y-12631786D01*
X13463668Y-12660357D01*
X13477953Y-12717500D01*
X13477953Y-12788929D01*
X13463668Y-12846071D01*
X13449382Y-12874643D01*
X13435096Y-12888929D01*
X13406525Y-12903214D01*
X13377953Y-12903214D01*
X13349382Y-12888929D01*
X13335096Y-12874643D01*
X13320810Y-12846071D01*
X13306525Y-12788929D01*
X13306525Y-12717500D01*
X13320810Y-12660357D01*
X13335096Y-12631786D01*
X13349382Y-12617500D01*
X13377953Y-12603214D01*
X13763668Y-12903214D02*
X13592239Y-12903214D01*
X13677953Y-12903214D02*
X13677953Y-12603214D01*
X13649382Y-12646071D01*
X13620810Y-12674643D01*
X13592239Y-12688929D01*
X14020810Y-12603214D02*
X13963668Y-12603214D01*
X13935096Y-12617500D01*
X13920810Y-12631786D01*
X13892239Y-12674643D01*
X13877953Y-12731786D01*
X13877953Y-12846071D01*
X13892239Y-12874643D01*
X13906525Y-12888929D01*
X13935096Y-12903214D01*
X13992239Y-12903214D01*
X14020810Y-12888929D01*
X14035096Y-12874643D01*
X14049382Y-12846071D01*
X14049382Y-12774643D01*
X14035096Y-12746071D01*
X14020810Y-12731786D01*
X13992239Y-12717500D01*
X13935096Y-12717500D01*
X13906525Y-12731786D01*
X13892239Y-12746071D01*
X13877953Y-12774643D01*
X14163668Y-12603214D02*
X14163668Y-12660357D01*
X14277953Y-12603214D02*
X14277953Y-12660357D01*
X14720810Y-13017500D02*
X14706525Y-13003214D01*
X14677953Y-12960357D01*
X14663668Y-12931786D01*
X14649382Y-12888929D01*
X14635096Y-12817500D01*
X14635096Y-12760357D01*
X14649382Y-12688929D01*
X14663668Y-12646071D01*
X14677953Y-12617500D01*
X14706525Y-12574643D01*
X14720810Y-12560357D01*
X14820810Y-12631786D02*
X14835096Y-12617500D01*
X14863668Y-12603214D01*
X14935096Y-12603214D01*
X14963668Y-12617500D01*
X14977953Y-12631786D01*
X14992239Y-12660357D01*
X14992239Y-12688929D01*
X14977953Y-12731786D01*
X14806525Y-12903214D01*
X14992239Y-12903214D01*
X15349382Y-12903214D02*
X15349382Y-12603214D01*
X15477953Y-12903214D02*
X15477953Y-12746071D01*
X15463668Y-12717500D01*
X15435096Y-12703214D01*
X15392239Y-12703214D01*
X15363668Y-12717500D01*
X15349382Y-12731786D01*
X15663668Y-12903214D02*
X15635096Y-12888929D01*
X15620810Y-12874643D01*
X15606525Y-12846071D01*
X15606525Y-12760357D01*
X15620810Y-12731786D01*
X15635096Y-12717500D01*
X15663668Y-12703214D01*
X15706525Y-12703214D01*
X15735096Y-12717500D01*
X15749382Y-12731786D01*
X15763668Y-12760357D01*
X15763668Y-12846071D01*
X15749382Y-12874643D01*
X15735096Y-12888929D01*
X15706525Y-12903214D01*
X15663668Y-12903214D01*
X15935096Y-12903214D02*
X15906525Y-12888929D01*
X15892239Y-12860357D01*
X15892239Y-12603214D01*
X16163668Y-12888929D02*
X16135096Y-12903214D01*
X16077953Y-12903214D01*
X16049382Y-12888929D01*
X16035096Y-12860357D01*
X16035096Y-12746071D01*
X16049382Y-12717500D01*
X16077953Y-12703214D01*
X16135096Y-12703214D01*
X16163668Y-12717500D01*
X16177953Y-12746071D01*
X16177953Y-12774643D01*
X16035096Y-12803214D01*
X16292239Y-12888929D02*
X16320810Y-12903214D01*
X16377953Y-12903214D01*
X16406525Y-12888929D01*
X16420810Y-12860357D01*
X16420810Y-12846071D01*
X16406525Y-12817500D01*
X16377953Y-12803214D01*
X16335096Y-12803214D01*
X16306525Y-12788929D01*
X16292239Y-12760357D01*
X16292239Y-12746071D01*
X16306525Y-12717500D01*
X16335096Y-12703214D01*
X16377953Y-12703214D01*
X16406525Y-12717500D01*
X16520810Y-13017500D02*
X16535096Y-13003214D01*
X16563668Y-12960357D01*
X16577953Y-12931786D01*
X16592239Y-12888929D01*
X16606525Y-12817500D01*
X16606525Y-12760357D01*
X16592239Y-12688929D01*
X16577953Y-12646071D01*
X16563668Y-12617500D01*
X16535096Y-12574643D01*
X16520810Y-12560357D01*
X10034382Y-13163500D02*
G75*
G03*
X10034382Y-13163500I-40000J0D01*
G01*
X10377953Y-12999214D02*
X10406525Y-12999214D01*
X10435096Y-13013500D01*
X10449382Y-13027786D01*
X10463668Y-13056357D01*
X10477953Y-13113500D01*
X10477953Y-13184929D01*
X10463668Y-13242071D01*
X10449382Y-13270643D01*
X10435096Y-13284929D01*
X10406525Y-13299214D01*
X10377953Y-13299214D01*
X10349382Y-13284929D01*
X10335096Y-13270643D01*
X10320810Y-13242071D01*
X10306525Y-13184929D01*
X10306525Y-13113500D01*
X10320810Y-13056357D01*
X10335096Y-13027786D01*
X10349382Y-13013500D01*
X10377953Y-12999214D01*
X10606525Y-13270643D02*
X10620810Y-13284929D01*
X10606525Y-13299214D01*
X10592239Y-13284929D01*
X10606525Y-13270643D01*
X10606525Y-13299214D01*
X10792239Y-13127786D02*
X10763668Y-13113500D01*
X10749382Y-13099214D01*
X10735096Y-13070643D01*
X10735096Y-13056357D01*
X10749382Y-13027786D01*
X10763668Y-13013500D01*
X10792239Y-12999214D01*
X10849382Y-12999214D01*
X10877953Y-13013500D01*
X10892239Y-13027786D01*
X10906525Y-13056357D01*
X10906525Y-13070643D01*
X10892239Y-13099214D01*
X10877953Y-13113500D01*
X10849382Y-13127786D01*
X10792239Y-13127786D01*
X10763668Y-13142071D01*
X10749382Y-13156357D01*
X10735096Y-13184929D01*
X10735096Y-13242071D01*
X10749382Y-13270643D01*
X10763668Y-13284929D01*
X10792239Y-13299214D01*
X10849382Y-13299214D01*
X10877953Y-13284929D01*
X10892239Y-13270643D01*
X10906525Y-13242071D01*
X10906525Y-13184929D01*
X10892239Y-13156357D01*
X10877953Y-13142071D01*
X10849382Y-13127786D01*
X11092239Y-12999214D02*
X11120810Y-12999214D01*
X11149382Y-13013500D01*
X11163668Y-13027786D01*
X11177953Y-13056357D01*
X11192239Y-13113500D01*
X11192239Y-13184929D01*
X11177953Y-13242071D01*
X11163668Y-13270643D01*
X11149382Y-13284929D01*
X11120810Y-13299214D01*
X11092239Y-13299214D01*
X11063668Y-13284929D01*
X11049382Y-13270643D01*
X11035096Y-13242071D01*
X11020810Y-13184929D01*
X11020810Y-13113500D01*
X11035096Y-13056357D01*
X11049382Y-13027786D01*
X11063668Y-13013500D01*
X11092239Y-12999214D01*
X11320810Y-13299214D02*
X11320810Y-13099214D01*
X11320810Y-13127786D02*
X11335096Y-13113500D01*
X11363668Y-13099214D01*
X11406525Y-13099214D01*
X11435096Y-13113500D01*
X11449382Y-13142071D01*
X11449382Y-13299214D01*
X11449382Y-13142071D02*
X11463668Y-13113500D01*
X11492239Y-13099214D01*
X11535096Y-13099214D01*
X11563668Y-13113500D01*
X11577953Y-13142071D01*
X11577953Y-13299214D01*
X11720810Y-13299214D02*
X11720810Y-13099214D01*
X11720810Y-13127786D02*
X11735096Y-13113500D01*
X11763668Y-13099214D01*
X11806525Y-13099214D01*
X11835096Y-13113500D01*
X11849382Y-13142071D01*
X11849382Y-13299214D01*
X11849382Y-13142071D02*
X11863668Y-13113500D01*
X11892239Y-13099214D01*
X11935096Y-13099214D01*
X11963668Y-13113500D01*
X11977953Y-13142071D01*
X11977953Y-13299214D01*
X12563668Y-12984929D02*
X12306525Y-13370643D01*
X12949382Y-12999214D02*
X12977953Y-12999214D01*
X13006525Y-13013500D01*
X13020810Y-13027786D01*
X13035096Y-13056357D01*
X13049382Y-13113500D01*
X13049382Y-13184929D01*
X13035096Y-13242071D01*
X13020810Y-13270643D01*
X13006525Y-13284929D01*
X12977953Y-13299214D01*
X12949382Y-13299214D01*
X12920810Y-13284929D01*
X12906525Y-13270643D01*
X12892239Y-13242071D01*
X12877953Y-13184929D01*
X12877953Y-13113500D01*
X12892239Y-13056357D01*
X12906525Y-13027786D01*
X12920810Y-13013500D01*
X12949382Y-12999214D01*
X13177953Y-13270643D02*
X13192239Y-13284929D01*
X13177953Y-13299214D01*
X13163668Y-13284929D01*
X13177953Y-13270643D01*
X13177953Y-13299214D01*
X13377953Y-12999214D02*
X13406525Y-12999214D01*
X13435096Y-13013500D01*
X13449382Y-13027786D01*
X13463668Y-13056357D01*
X13477953Y-13113500D01*
X13477953Y-13184929D01*
X13463668Y-13242071D01*
X13449382Y-13270643D01*
X13435096Y-13284929D01*
X13406525Y-13299214D01*
X13377953Y-13299214D01*
X13349382Y-13284929D01*
X13335096Y-13270643D01*
X13320810Y-13242071D01*
X13306525Y-13184929D01*
X13306525Y-13113500D01*
X13320810Y-13056357D01*
X13335096Y-13027786D01*
X13349382Y-13013500D01*
X13377953Y-12999214D01*
X13577953Y-12999214D02*
X13763668Y-12999214D01*
X13663668Y-13113500D01*
X13706525Y-13113500D01*
X13735096Y-13127786D01*
X13749382Y-13142071D01*
X13763668Y-13170643D01*
X13763668Y-13242071D01*
X13749382Y-13270643D01*
X13735096Y-13284929D01*
X13706525Y-13299214D01*
X13620810Y-13299214D01*
X13592239Y-13284929D01*
X13577953Y-13270643D01*
X14049382Y-13299214D02*
X13877953Y-13299214D01*
X13963668Y-13299214D02*
X13963668Y-12999214D01*
X13935096Y-13042071D01*
X13906525Y-13070643D01*
X13877953Y-13084929D01*
X14163668Y-12999214D02*
X14163668Y-13056357D01*
X14277953Y-12999214D02*
X14277953Y-13056357D01*
X14720810Y-13413500D02*
X14706525Y-13399214D01*
X14677953Y-13356357D01*
X14663668Y-13327786D01*
X14649382Y-13284929D01*
X14635096Y-13213500D01*
X14635096Y-13156357D01*
X14649382Y-13084929D01*
X14663668Y-13042071D01*
X14677953Y-13013500D01*
X14706525Y-12970643D01*
X14720810Y-12956357D01*
X14820810Y-13027786D02*
X14835096Y-13013500D01*
X14863668Y-12999214D01*
X14935096Y-12999214D01*
X14963668Y-13013500D01*
X14977953Y-13027786D01*
X14992239Y-13056357D01*
X14992239Y-13084929D01*
X14977953Y-13127786D01*
X14806525Y-13299214D01*
X14992239Y-13299214D01*
X15106525Y-13027786D02*
X15120810Y-13013500D01*
X15149382Y-12999214D01*
X15220810Y-12999214D01*
X15249382Y-13013500D01*
X15263668Y-13027786D01*
X15277953Y-13056357D01*
X15277953Y-13084929D01*
X15263668Y-13127786D01*
X15092239Y-13299214D01*
X15277953Y-13299214D01*
X15635096Y-13299214D02*
X15635096Y-12999214D01*
X15763668Y-13299214D02*
X15763668Y-13142071D01*
X15749382Y-13113500D01*
X15720810Y-13099214D01*
X15677953Y-13099214D01*
X15649382Y-13113500D01*
X15635096Y-13127786D01*
X15949382Y-13299214D02*
X15920810Y-13284929D01*
X15906525Y-13270643D01*
X15892239Y-13242071D01*
X15892239Y-13156357D01*
X15906525Y-13127786D01*
X15920810Y-13113500D01*
X15949382Y-13099214D01*
X15992239Y-13099214D01*
X16020810Y-13113500D01*
X16035096Y-13127786D01*
X16049382Y-13156357D01*
X16049382Y-13242071D01*
X16035096Y-13270643D01*
X16020810Y-13284929D01*
X15992239Y-13299214D01*
X15949382Y-13299214D01*
X16220810Y-13299214D02*
X16192239Y-13284929D01*
X16177953Y-13256357D01*
X16177953Y-12999214D01*
X16449382Y-13284929D02*
X16420810Y-13299214D01*
X16363668Y-13299214D01*
X16335096Y-13284929D01*
X16320810Y-13256357D01*
X16320810Y-13142071D01*
X16335096Y-13113500D01*
X16363668Y-13099214D01*
X16420810Y-13099214D01*
X16449382Y-13113500D01*
X16463668Y-13142071D01*
X16463668Y-13170643D01*
X16320810Y-13199214D01*
X16577953Y-13284929D02*
X16606525Y-13299214D01*
X16663668Y-13299214D01*
X16692239Y-13284929D01*
X16706525Y-13256357D01*
X16706525Y-13242071D01*
X16692239Y-13213500D01*
X16663668Y-13199214D01*
X16620810Y-13199214D01*
X16592239Y-13184929D01*
X16577953Y-13156357D01*
X16577953Y-13142071D01*
X16592239Y-13113500D01*
X16620810Y-13099214D01*
X16663668Y-13099214D01*
X16692239Y-13113500D01*
X16806525Y-13413500D02*
X16820810Y-13399214D01*
X16849382Y-13356357D01*
X16863668Y-13327786D01*
X16877953Y-13284929D01*
X16892239Y-13213500D01*
X16892239Y-13156357D01*
X16877953Y-13084929D01*
X16863668Y-13042071D01*
X16849382Y-13013500D01*
X16820810Y-12970643D01*
X16806525Y-12956357D01*
X9989382Y-13514500D02*
X9989382Y-13604500D01*
X9944382Y-13559500D02*
X10034382Y-13559500D01*
X10377953Y-13395214D02*
X10406525Y-13395214D01*
X10435096Y-13409500D01*
X10449382Y-13423786D01*
X10463668Y-13452357D01*
X10477953Y-13509500D01*
X10477953Y-13580929D01*
X10463668Y-13638071D01*
X10449382Y-13666643D01*
X10435096Y-13680929D01*
X10406525Y-13695214D01*
X10377953Y-13695214D01*
X10349382Y-13680929D01*
X10335096Y-13666643D01*
X10320810Y-13638071D01*
X10306525Y-13580929D01*
X10306525Y-13509500D01*
X10320810Y-13452357D01*
X10335096Y-13423786D01*
X10349382Y-13409500D01*
X10377953Y-13395214D01*
X10606525Y-13666643D02*
X10620810Y-13680929D01*
X10606525Y-13695214D01*
X10592239Y-13680929D01*
X10606525Y-13666643D01*
X10606525Y-13695214D01*
X10763668Y-13695214D02*
X10820810Y-13695214D01*
X10849382Y-13680929D01*
X10863668Y-13666643D01*
X10892239Y-13623786D01*
X10906525Y-13566643D01*
X10906525Y-13452357D01*
X10892239Y-13423786D01*
X10877953Y-13409500D01*
X10849382Y-13395214D01*
X10792239Y-13395214D01*
X10763668Y-13409500D01*
X10749382Y-13423786D01*
X10735096Y-13452357D01*
X10735096Y-13523786D01*
X10749382Y-13552357D01*
X10763668Y-13566643D01*
X10792239Y-13580929D01*
X10849382Y-13580929D01*
X10877953Y-13566643D01*
X10892239Y-13552357D01*
X10906525Y-13523786D01*
X11092239Y-13395214D02*
X11120810Y-13395214D01*
X11149382Y-13409500D01*
X11163668Y-13423786D01*
X11177953Y-13452357D01*
X11192239Y-13509500D01*
X11192239Y-13580929D01*
X11177953Y-13638071D01*
X11163668Y-13666643D01*
X11149382Y-13680929D01*
X11120810Y-13695214D01*
X11092239Y-13695214D01*
X11063668Y-13680929D01*
X11049382Y-13666643D01*
X11035096Y-13638071D01*
X11020810Y-13580929D01*
X11020810Y-13509500D01*
X11035096Y-13452357D01*
X11049382Y-13423786D01*
X11063668Y-13409500D01*
X11092239Y-13395214D01*
X11320810Y-13695214D02*
X11320810Y-13495214D01*
X11320810Y-13523786D02*
X11335096Y-13509500D01*
X11363668Y-13495214D01*
X11406525Y-13495214D01*
X11435096Y-13509500D01*
X11449382Y-13538071D01*
X11449382Y-13695214D01*
X11449382Y-13538071D02*
X11463668Y-13509500D01*
X11492239Y-13495214D01*
X11535096Y-13495214D01*
X11563668Y-13509500D01*
X11577953Y-13538071D01*
X11577953Y-13695214D01*
X11720810Y-13695214D02*
X11720810Y-13495214D01*
X11720810Y-13523786D02*
X11735096Y-13509500D01*
X11763668Y-13495214D01*
X11806525Y-13495214D01*
X11835096Y-13509500D01*
X11849382Y-13538071D01*
X11849382Y-13695214D01*
X11849382Y-13538071D02*
X11863668Y-13509500D01*
X11892239Y-13495214D01*
X11935096Y-13495214D01*
X11963668Y-13509500D01*
X11977953Y-13538071D01*
X11977953Y-13695214D01*
X12563668Y-13380929D02*
X12306525Y-13766643D01*
X12949382Y-13395214D02*
X12977953Y-13395214D01*
X13006525Y-13409500D01*
X13020810Y-13423786D01*
X13035096Y-13452357D01*
X13049382Y-13509500D01*
X13049382Y-13580929D01*
X13035096Y-13638071D01*
X13020810Y-13666643D01*
X13006525Y-13680929D01*
X12977953Y-13695214D01*
X12949382Y-13695214D01*
X12920810Y-13680929D01*
X12906525Y-13666643D01*
X12892239Y-13638071D01*
X12877953Y-13580929D01*
X12877953Y-13509500D01*
X12892239Y-13452357D01*
X12906525Y-13423786D01*
X12920810Y-13409500D01*
X12949382Y-13395214D01*
X13177953Y-13666643D02*
X13192239Y-13680929D01*
X13177953Y-13695214D01*
X13163668Y-13680929D01*
X13177953Y-13666643D01*
X13177953Y-13695214D01*
X13377953Y-13395214D02*
X13406525Y-13395214D01*
X13435096Y-13409500D01*
X13449382Y-13423786D01*
X13463668Y-13452357D01*
X13477953Y-13509500D01*
X13477953Y-13580929D01*
X13463668Y-13638071D01*
X13449382Y-13666643D01*
X13435096Y-13680929D01*
X13406525Y-13695214D01*
X13377953Y-13695214D01*
X13349382Y-13680929D01*
X13335096Y-13666643D01*
X13320810Y-13638071D01*
X13306525Y-13580929D01*
X13306525Y-13509500D01*
X13320810Y-13452357D01*
X13335096Y-13423786D01*
X13349382Y-13409500D01*
X13377953Y-13395214D01*
X13577953Y-13395214D02*
X13763668Y-13395214D01*
X13663668Y-13509500D01*
X13706525Y-13509500D01*
X13735096Y-13523786D01*
X13749382Y-13538071D01*
X13763668Y-13566643D01*
X13763668Y-13638071D01*
X13749382Y-13666643D01*
X13735096Y-13680929D01*
X13706525Y-13695214D01*
X13620810Y-13695214D01*
X13592239Y-13680929D01*
X13577953Y-13666643D01*
X14035096Y-13395214D02*
X13892239Y-13395214D01*
X13877953Y-13538071D01*
X13892239Y-13523786D01*
X13920810Y-13509500D01*
X13992239Y-13509500D01*
X14020810Y-13523786D01*
X14035096Y-13538071D01*
X14049382Y-13566643D01*
X14049382Y-13638071D01*
X14035096Y-13666643D01*
X14020810Y-13680929D01*
X13992239Y-13695214D01*
X13920810Y-13695214D01*
X13892239Y-13680929D01*
X13877953Y-13666643D01*
X14163668Y-13395214D02*
X14163668Y-13452357D01*
X14277953Y-13395214D02*
X14277953Y-13452357D01*
X14720810Y-13809500D02*
X14706525Y-13795214D01*
X14677953Y-13752357D01*
X14663668Y-13723786D01*
X14649382Y-13680929D01*
X14635096Y-13609500D01*
X14635096Y-13552357D01*
X14649382Y-13480929D01*
X14663668Y-13438071D01*
X14677953Y-13409500D01*
X14706525Y-13366643D01*
X14720810Y-13352357D01*
X14820810Y-13423786D02*
X14835096Y-13409500D01*
X14863668Y-13395214D01*
X14935096Y-13395214D01*
X14963668Y-13409500D01*
X14977953Y-13423786D01*
X14992239Y-13452357D01*
X14992239Y-13480929D01*
X14977953Y-13523786D01*
X14806525Y-13695214D01*
X14992239Y-13695214D01*
X15349382Y-13695214D02*
X15349382Y-13395214D01*
X15477953Y-13695214D02*
X15477953Y-13538071D01*
X15463668Y-13509500D01*
X15435096Y-13495214D01*
X15392239Y-13495214D01*
X15363668Y-13509500D01*
X15349382Y-13523786D01*
X15663668Y-13695214D02*
X15635096Y-13680929D01*
X15620810Y-13666643D01*
X15606525Y-13638071D01*
X15606525Y-13552357D01*
X15620810Y-13523786D01*
X15635096Y-13509500D01*
X15663668Y-13495214D01*
X15706525Y-13495214D01*
X15735096Y-13509500D01*
X15749382Y-13523786D01*
X15763668Y-13552357D01*
X15763668Y-13638071D01*
X15749382Y-13666643D01*
X15735096Y-13680929D01*
X15706525Y-13695214D01*
X15663668Y-13695214D01*
X15935096Y-13695214D02*
X15906525Y-13680929D01*
X15892239Y-13652357D01*
X15892239Y-13395214D01*
X16163668Y-13680929D02*
X16135096Y-13695214D01*
X16077953Y-13695214D01*
X16049382Y-13680929D01*
X16035096Y-13652357D01*
X16035096Y-13538071D01*
X16049382Y-13509500D01*
X16077953Y-13495214D01*
X16135096Y-13495214D01*
X16163668Y-13509500D01*
X16177953Y-13538071D01*
X16177953Y-13566643D01*
X16035096Y-13595214D01*
X16292239Y-13680929D02*
X16320810Y-13695214D01*
X16377953Y-13695214D01*
X16406525Y-13680929D01*
X16420810Y-13652357D01*
X16420810Y-13638071D01*
X16406525Y-13609500D01*
X16377953Y-13595214D01*
X16335096Y-13595214D01*
X16306525Y-13580929D01*
X16292239Y-13552357D01*
X16292239Y-13538071D01*
X16306525Y-13509500D01*
X16335096Y-13495214D01*
X16377953Y-13495214D01*
X16406525Y-13509500D01*
X16520810Y-13809500D02*
X16535096Y-13795214D01*
X16563668Y-13752357D01*
X16577953Y-13723786D01*
X16592239Y-13680929D01*
X16606525Y-13609500D01*
X16606525Y-13552357D01*
X16592239Y-13480929D01*
X16577953Y-13438071D01*
X16563668Y-13409500D01*
X16535096Y-13366643D01*
X16520810Y-13352357D01*
X10019738Y-13990856D02*
X10019738Y-13920144D01*
X9949026Y-13920144D01*
X9949026Y-13990856D01*
X10019738Y-13990856D01*
X10477953Y-14091214D02*
X10306525Y-14091214D01*
X10392239Y-14091214D02*
X10392239Y-13791214D01*
X10363668Y-13834071D01*
X10335096Y-13862643D01*
X10306525Y-13876929D01*
X10606525Y-14062643D02*
X10620810Y-14076929D01*
X10606525Y-14091214D01*
X10592239Y-14076929D01*
X10606525Y-14062643D01*
X10606525Y-14091214D01*
X10806525Y-13791214D02*
X10835096Y-13791214D01*
X10863668Y-13805500D01*
X10877953Y-13819786D01*
X10892239Y-13848357D01*
X10906525Y-13905500D01*
X10906525Y-13976929D01*
X10892239Y-14034071D01*
X10877953Y-14062643D01*
X10863668Y-14076929D01*
X10835096Y-14091214D01*
X10806525Y-14091214D01*
X10777953Y-14076929D01*
X10763668Y-14062643D01*
X10749382Y-14034071D01*
X10735096Y-13976929D01*
X10735096Y-13905500D01*
X10749382Y-13848357D01*
X10763668Y-13819786D01*
X10777953Y-13805500D01*
X10806525Y-13791214D01*
X11092239Y-13791214D02*
X11120810Y-13791214D01*
X11149382Y-13805500D01*
X11163668Y-13819786D01*
X11177953Y-13848357D01*
X11192239Y-13905500D01*
X11192239Y-13976929D01*
X11177953Y-14034071D01*
X11163668Y-14062643D01*
X11149382Y-14076929D01*
X11120810Y-14091214D01*
X11092239Y-14091214D01*
X11063668Y-14076929D01*
X11049382Y-14062643D01*
X11035096Y-14034071D01*
X11020810Y-13976929D01*
X11020810Y-13905500D01*
X11035096Y-13848357D01*
X11049382Y-13819786D01*
X11063668Y-13805500D01*
X11092239Y-13791214D01*
X11320810Y-14091214D02*
X11320810Y-13891214D01*
X11320810Y-13919786D02*
X11335096Y-13905500D01*
X11363668Y-13891214D01*
X11406525Y-13891214D01*
X11435096Y-13905500D01*
X11449382Y-13934071D01*
X11449382Y-14091214D01*
X11449382Y-13934071D02*
X11463668Y-13905500D01*
X11492239Y-13891214D01*
X11535096Y-13891214D01*
X11563668Y-13905500D01*
X11577953Y-13934071D01*
X11577953Y-14091214D01*
X11720810Y-14091214D02*
X11720810Y-13891214D01*
X11720810Y-13919786D02*
X11735096Y-13905500D01*
X11763668Y-13891214D01*
X11806525Y-13891214D01*
X11835096Y-13905500D01*
X11849382Y-13934071D01*
X11849382Y-14091214D01*
X11849382Y-13934071D02*
X11863668Y-13905500D01*
X11892239Y-13891214D01*
X11935096Y-13891214D01*
X11963668Y-13905500D01*
X11977953Y-13934071D01*
X11977953Y-14091214D01*
X12563668Y-13776929D02*
X12306525Y-14162643D01*
X12949382Y-13791214D02*
X12977953Y-13791214D01*
X13006525Y-13805500D01*
X13020810Y-13819786D01*
X13035096Y-13848357D01*
X13049382Y-13905500D01*
X13049382Y-13976929D01*
X13035096Y-14034071D01*
X13020810Y-14062643D01*
X13006525Y-14076929D01*
X12977953Y-14091214D01*
X12949382Y-14091214D01*
X12920810Y-14076929D01*
X12906525Y-14062643D01*
X12892239Y-14034071D01*
X12877953Y-13976929D01*
X12877953Y-13905500D01*
X12892239Y-13848357D01*
X12906525Y-13819786D01*
X12920810Y-13805500D01*
X12949382Y-13791214D01*
X13177953Y-14062643D02*
X13192239Y-14076929D01*
X13177953Y-14091214D01*
X13163668Y-14076929D01*
X13177953Y-14062643D01*
X13177953Y-14091214D01*
X13377953Y-13791214D02*
X13406525Y-13791214D01*
X13435096Y-13805500D01*
X13449382Y-13819786D01*
X13463668Y-13848357D01*
X13477953Y-13905500D01*
X13477953Y-13976929D01*
X13463668Y-14034071D01*
X13449382Y-14062643D01*
X13435096Y-14076929D01*
X13406525Y-14091214D01*
X13377953Y-14091214D01*
X13349382Y-14076929D01*
X13335096Y-14062643D01*
X13320810Y-14034071D01*
X13306525Y-13976929D01*
X13306525Y-13905500D01*
X13320810Y-13848357D01*
X13335096Y-13819786D01*
X13349382Y-13805500D01*
X13377953Y-13791214D01*
X13577953Y-13791214D02*
X13763668Y-13791214D01*
X13663668Y-13905500D01*
X13706525Y-13905500D01*
X13735096Y-13919786D01*
X13749382Y-13934071D01*
X13763668Y-13962643D01*
X13763668Y-14034071D01*
X13749382Y-14062643D01*
X13735096Y-14076929D01*
X13706525Y-14091214D01*
X13620810Y-14091214D01*
X13592239Y-14076929D01*
X13577953Y-14062643D01*
X13906525Y-14091214D02*
X13963668Y-14091214D01*
X13992239Y-14076929D01*
X14006525Y-14062643D01*
X14035096Y-14019786D01*
X14049382Y-13962643D01*
X14049382Y-13848357D01*
X14035096Y-13819786D01*
X14020810Y-13805500D01*
X13992239Y-13791214D01*
X13935096Y-13791214D01*
X13906525Y-13805500D01*
X13892239Y-13819786D01*
X13877953Y-13848357D01*
X13877953Y-13919786D01*
X13892239Y-13948357D01*
X13906525Y-13962643D01*
X13935096Y-13976929D01*
X13992239Y-13976929D01*
X14020810Y-13962643D01*
X14035096Y-13948357D01*
X14049382Y-13919786D01*
X14163668Y-13791214D02*
X14163668Y-13848357D01*
X14277953Y-13791214D02*
X14277953Y-13848357D01*
X14720810Y-14205500D02*
X14706525Y-14191214D01*
X14677953Y-14148357D01*
X14663668Y-14119786D01*
X14649382Y-14076929D01*
X14635096Y-14005500D01*
X14635096Y-13948357D01*
X14649382Y-13876929D01*
X14663668Y-13834071D01*
X14677953Y-13805500D01*
X14706525Y-13762643D01*
X14720810Y-13748357D01*
X14963668Y-13891214D02*
X14963668Y-14091214D01*
X14892239Y-13776929D02*
X14820810Y-13991214D01*
X15006525Y-13991214D01*
X15249382Y-13791214D02*
X15192239Y-13791214D01*
X15163668Y-13805500D01*
X15149382Y-13819786D01*
X15120810Y-13862643D01*
X15106525Y-13919786D01*
X15106525Y-14034071D01*
X15120810Y-14062643D01*
X15135096Y-14076929D01*
X15163668Y-14091214D01*
X15220810Y-14091214D01*
X15249382Y-14076929D01*
X15263668Y-14062643D01*
X15277953Y-14034071D01*
X15277953Y-13962643D01*
X15263668Y-13934071D01*
X15249382Y-13919786D01*
X15220810Y-13905500D01*
X15163668Y-13905500D01*
X15135096Y-13919786D01*
X15120810Y-13934071D01*
X15106525Y-13962643D01*
X15635096Y-14091214D02*
X15635096Y-13791214D01*
X15763668Y-14091214D02*
X15763668Y-13934071D01*
X15749382Y-13905500D01*
X15720810Y-13891214D01*
X15677953Y-13891214D01*
X15649382Y-13905500D01*
X15635096Y-13919786D01*
X15949382Y-14091214D02*
X15920810Y-14076929D01*
X15906525Y-14062643D01*
X15892239Y-14034071D01*
X15892239Y-13948357D01*
X15906525Y-13919786D01*
X15920810Y-13905500D01*
X15949382Y-13891214D01*
X15992239Y-13891214D01*
X16020810Y-13905500D01*
X16035096Y-13919786D01*
X16049382Y-13948357D01*
X16049382Y-14034071D01*
X16035096Y-14062643D01*
X16020810Y-14076929D01*
X15992239Y-14091214D01*
X15949382Y-14091214D01*
X16220810Y-14091214D02*
X16192239Y-14076929D01*
X16177953Y-14048357D01*
X16177953Y-13791214D01*
X16449382Y-14076929D02*
X16420810Y-14091214D01*
X16363668Y-14091214D01*
X16335096Y-14076929D01*
X16320810Y-14048357D01*
X16320810Y-13934071D01*
X16335096Y-13905500D01*
X16363668Y-13891214D01*
X16420810Y-13891214D01*
X16449382Y-13905500D01*
X16463668Y-13934071D01*
X16463668Y-13962643D01*
X16320810Y-13991214D01*
X16577953Y-14076929D02*
X16606525Y-14091214D01*
X16663668Y-14091214D01*
X16692239Y-14076929D01*
X16706525Y-14048357D01*
X16706525Y-14034071D01*
X16692239Y-14005500D01*
X16663668Y-13991214D01*
X16620810Y-13991214D01*
X16592239Y-13976929D01*
X16577953Y-13948357D01*
X16577953Y-13934071D01*
X16592239Y-13905500D01*
X16620810Y-13891214D01*
X16663668Y-13891214D01*
X16692239Y-13905500D01*
X16806525Y-14205500D02*
X16820810Y-14191214D01*
X16849382Y-14148357D01*
X16863668Y-14119786D01*
X16877953Y-14076929D01*
X16892239Y-14005500D01*
X16892239Y-13948357D01*
X16877953Y-13876929D01*
X16863668Y-13834071D01*
X16849382Y-13805500D01*
X16820810Y-13762643D01*
X16806525Y-13748357D01*
X9979382Y-14406500D02*
X10034382Y-14351500D01*
X9979382Y-14296500D01*
X9924382Y-14351500D01*
X9979382Y-14406500D01*
X10477953Y-14487214D02*
X10306525Y-14487214D01*
X10392239Y-14487214D02*
X10392239Y-14187214D01*
X10363668Y-14230071D01*
X10335096Y-14258643D01*
X10306525Y-14272929D01*
X10606525Y-14458643D02*
X10620810Y-14472929D01*
X10606525Y-14487214D01*
X10592239Y-14472929D01*
X10606525Y-14458643D01*
X10606525Y-14487214D01*
X10906525Y-14487214D02*
X10735096Y-14487214D01*
X10820810Y-14487214D02*
X10820810Y-14187214D01*
X10792239Y-14230071D01*
X10763668Y-14258643D01*
X10735096Y-14272929D01*
X11092239Y-14187214D02*
X11120810Y-14187214D01*
X11149382Y-14201500D01*
X11163668Y-14215786D01*
X11177953Y-14244357D01*
X11192239Y-14301500D01*
X11192239Y-14372929D01*
X11177953Y-14430071D01*
X11163668Y-14458643D01*
X11149382Y-14472929D01*
X11120810Y-14487214D01*
X11092239Y-14487214D01*
X11063668Y-14472929D01*
X11049382Y-14458643D01*
X11035096Y-14430071D01*
X11020810Y-14372929D01*
X11020810Y-14301500D01*
X11035096Y-14244357D01*
X11049382Y-14215786D01*
X11063668Y-14201500D01*
X11092239Y-14187214D01*
X11320810Y-14487214D02*
X11320810Y-14287214D01*
X11320810Y-14315786D02*
X11335096Y-14301500D01*
X11363668Y-14287214D01*
X11406525Y-14287214D01*
X11435096Y-14301500D01*
X11449382Y-14330071D01*
X11449382Y-14487214D01*
X11449382Y-14330071D02*
X11463668Y-14301500D01*
X11492239Y-14287214D01*
X11535096Y-14287214D01*
X11563668Y-14301500D01*
X11577953Y-14330071D01*
X11577953Y-14487214D01*
X11720810Y-14487214D02*
X11720810Y-14287214D01*
X11720810Y-14315786D02*
X11735096Y-14301500D01*
X11763668Y-14287214D01*
X11806525Y-14287214D01*
X11835096Y-14301500D01*
X11849382Y-14330071D01*
X11849382Y-14487214D01*
X11849382Y-14330071D02*
X11863668Y-14301500D01*
X11892239Y-14287214D01*
X11935096Y-14287214D01*
X11963668Y-14301500D01*
X11977953Y-14330071D01*
X11977953Y-14487214D01*
X12563668Y-14172929D02*
X12306525Y-14558643D01*
X12949382Y-14187214D02*
X12977953Y-14187214D01*
X13006525Y-14201500D01*
X13020810Y-14215786D01*
X13035096Y-14244357D01*
X13049382Y-14301500D01*
X13049382Y-14372929D01*
X13035096Y-14430071D01*
X13020810Y-14458643D01*
X13006525Y-14472929D01*
X12977953Y-14487214D01*
X12949382Y-14487214D01*
X12920810Y-14472929D01*
X12906525Y-14458643D01*
X12892239Y-14430071D01*
X12877953Y-14372929D01*
X12877953Y-14301500D01*
X12892239Y-14244357D01*
X12906525Y-14215786D01*
X12920810Y-14201500D01*
X12949382Y-14187214D01*
X13177953Y-14458643D02*
X13192239Y-14472929D01*
X13177953Y-14487214D01*
X13163668Y-14472929D01*
X13177953Y-14458643D01*
X13177953Y-14487214D01*
X13377953Y-14187214D02*
X13406525Y-14187214D01*
X13435096Y-14201500D01*
X13449382Y-14215786D01*
X13463668Y-14244357D01*
X13477953Y-14301500D01*
X13477953Y-14372929D01*
X13463668Y-14430071D01*
X13449382Y-14458643D01*
X13435096Y-14472929D01*
X13406525Y-14487214D01*
X13377953Y-14487214D01*
X13349382Y-14472929D01*
X13335096Y-14458643D01*
X13320810Y-14430071D01*
X13306525Y-14372929D01*
X13306525Y-14301500D01*
X13320810Y-14244357D01*
X13335096Y-14215786D01*
X13349382Y-14201500D01*
X13377953Y-14187214D01*
X13735096Y-14287214D02*
X13735096Y-14487214D01*
X13663668Y-14172929D02*
X13592239Y-14387214D01*
X13777953Y-14387214D01*
X13863668Y-14187214D02*
X14049382Y-14187214D01*
X13949382Y-14301500D01*
X13992239Y-14301500D01*
X14020810Y-14315786D01*
X14035096Y-14330071D01*
X14049382Y-14358643D01*
X14049382Y-14430071D01*
X14035096Y-14458643D01*
X14020810Y-14472929D01*
X13992239Y-14487214D01*
X13906525Y-14487214D01*
X13877953Y-14472929D01*
X13863668Y-14458643D01*
X14163668Y-14187214D02*
X14163668Y-14244357D01*
X14277953Y-14187214D02*
X14277953Y-14244357D01*
X14720810Y-14601500D02*
X14706525Y-14587214D01*
X14677953Y-14544357D01*
X14663668Y-14515786D01*
X14649382Y-14472929D01*
X14635096Y-14401500D01*
X14635096Y-14344357D01*
X14649382Y-14272929D01*
X14663668Y-14230071D01*
X14677953Y-14201500D01*
X14706525Y-14158643D01*
X14720810Y-14144357D01*
X14963668Y-14187214D02*
X14906525Y-14187214D01*
X14877953Y-14201500D01*
X14863668Y-14215786D01*
X14835096Y-14258643D01*
X14820810Y-14315786D01*
X14820810Y-14430071D01*
X14835096Y-14458643D01*
X14849382Y-14472929D01*
X14877953Y-14487214D01*
X14935096Y-14487214D01*
X14963668Y-14472929D01*
X14977953Y-14458643D01*
X14992239Y-14430071D01*
X14992239Y-14358643D01*
X14977953Y-14330071D01*
X14963668Y-14315786D01*
X14935096Y-14301500D01*
X14877953Y-14301500D01*
X14849382Y-14315786D01*
X14835096Y-14330071D01*
X14820810Y-14358643D01*
X15349382Y-14487214D02*
X15349382Y-14187214D01*
X15477953Y-14487214D02*
X15477953Y-14330071D01*
X15463668Y-14301500D01*
X15435096Y-14287214D01*
X15392239Y-14287214D01*
X15363668Y-14301500D01*
X15349382Y-14315786D01*
X15663668Y-14487214D02*
X15635096Y-14472929D01*
X15620810Y-14458643D01*
X15606525Y-14430071D01*
X15606525Y-14344357D01*
X15620810Y-14315786D01*
X15635096Y-14301500D01*
X15663668Y-14287214D01*
X15706525Y-14287214D01*
X15735096Y-14301500D01*
X15749382Y-14315786D01*
X15763668Y-14344357D01*
X15763668Y-14430071D01*
X15749382Y-14458643D01*
X15735096Y-14472929D01*
X15706525Y-14487214D01*
X15663668Y-14487214D01*
X15935096Y-14487214D02*
X15906525Y-14472929D01*
X15892239Y-14444357D01*
X15892239Y-14187214D01*
X16163668Y-14472929D02*
X16135096Y-14487214D01*
X16077953Y-14487214D01*
X16049382Y-14472929D01*
X16035096Y-14444357D01*
X16035096Y-14330071D01*
X16049382Y-14301500D01*
X16077953Y-14287214D01*
X16135096Y-14287214D01*
X16163668Y-14301500D01*
X16177953Y-14330071D01*
X16177953Y-14358643D01*
X16035096Y-14387214D01*
X16292239Y-14472929D02*
X16320810Y-14487214D01*
X16377953Y-14487214D01*
X16406525Y-14472929D01*
X16420810Y-14444357D01*
X16420810Y-14430071D01*
X16406525Y-14401500D01*
X16377953Y-14387214D01*
X16335096Y-14387214D01*
X16306525Y-14372929D01*
X16292239Y-14344357D01*
X16292239Y-14330071D01*
X16306525Y-14301500D01*
X16335096Y-14287214D01*
X16377953Y-14287214D01*
X16406525Y-14301500D01*
X16520810Y-14601500D02*
X16535096Y-14587214D01*
X16563668Y-14544357D01*
X16577953Y-14515786D01*
X16592239Y-14472929D01*
X16606525Y-14401500D01*
X16606525Y-14344357D01*
X16592239Y-14272929D01*
X16577953Y-14230071D01*
X16563668Y-14201500D01*
X16535096Y-14158643D01*
X16520810Y-14144357D01*
X9904382Y-14682500D02*
X10034382Y-14812500D01*
X10034382Y-14682500D02*
X9904382Y-14812500D01*
X10034382Y-14747500D02*
G75*
G03*
X10034382Y-14747500I-65000J0D01*
G01*
X10477953Y-14883214D02*
X10306525Y-14883214D01*
X10392239Y-14883214D02*
X10392239Y-14583214D01*
X10363668Y-14626071D01*
X10335096Y-14654643D01*
X10306525Y-14668929D01*
X10606525Y-14854643D02*
X10620810Y-14868929D01*
X10606525Y-14883214D01*
X10592239Y-14868929D01*
X10606525Y-14854643D01*
X10606525Y-14883214D01*
X10720810Y-14583214D02*
X10906525Y-14583214D01*
X10806525Y-14697500D01*
X10849382Y-14697500D01*
X10877953Y-14711786D01*
X10892239Y-14726071D01*
X10906525Y-14754643D01*
X10906525Y-14826071D01*
X10892239Y-14854643D01*
X10877953Y-14868929D01*
X10849382Y-14883214D01*
X10763668Y-14883214D01*
X10735096Y-14868929D01*
X10720810Y-14854643D01*
X11092239Y-14583214D02*
X11120810Y-14583214D01*
X11149382Y-14597500D01*
X11163668Y-14611786D01*
X11177953Y-14640357D01*
X11192239Y-14697500D01*
X11192239Y-14768929D01*
X11177953Y-14826071D01*
X11163668Y-14854643D01*
X11149382Y-14868929D01*
X11120810Y-14883214D01*
X11092239Y-14883214D01*
X11063668Y-14868929D01*
X11049382Y-14854643D01*
X11035096Y-14826071D01*
X11020810Y-14768929D01*
X11020810Y-14697500D01*
X11035096Y-14640357D01*
X11049382Y-14611786D01*
X11063668Y-14597500D01*
X11092239Y-14583214D01*
X11320810Y-14883214D02*
X11320810Y-14683214D01*
X11320810Y-14711786D02*
X11335096Y-14697500D01*
X11363668Y-14683214D01*
X11406525Y-14683214D01*
X11435096Y-14697500D01*
X11449382Y-14726071D01*
X11449382Y-14883214D01*
X11449382Y-14726071D02*
X11463668Y-14697500D01*
X11492239Y-14683214D01*
X11535096Y-14683214D01*
X11563668Y-14697500D01*
X11577953Y-14726071D01*
X11577953Y-14883214D01*
X11720810Y-14883214D02*
X11720810Y-14683214D01*
X11720810Y-14711786D02*
X11735096Y-14697500D01*
X11763668Y-14683214D01*
X11806525Y-14683214D01*
X11835096Y-14697500D01*
X11849382Y-14726071D01*
X11849382Y-14883214D01*
X11849382Y-14726071D02*
X11863668Y-14697500D01*
X11892239Y-14683214D01*
X11935096Y-14683214D01*
X11963668Y-14697500D01*
X11977953Y-14726071D01*
X11977953Y-14883214D01*
X12563668Y-14568929D02*
X12306525Y-14954643D01*
X12949382Y-14583214D02*
X12977953Y-14583214D01*
X13006525Y-14597500D01*
X13020810Y-14611786D01*
X13035096Y-14640357D01*
X13049382Y-14697500D01*
X13049382Y-14768929D01*
X13035096Y-14826071D01*
X13020810Y-14854643D01*
X13006525Y-14868929D01*
X12977953Y-14883214D01*
X12949382Y-14883214D01*
X12920810Y-14868929D01*
X12906525Y-14854643D01*
X12892239Y-14826071D01*
X12877953Y-14768929D01*
X12877953Y-14697500D01*
X12892239Y-14640357D01*
X12906525Y-14611786D01*
X12920810Y-14597500D01*
X12949382Y-14583214D01*
X13177953Y-14854643D02*
X13192239Y-14868929D01*
X13177953Y-14883214D01*
X13163668Y-14868929D01*
X13177953Y-14854643D01*
X13177953Y-14883214D01*
X13377953Y-14583214D02*
X13406525Y-14583214D01*
X13435096Y-14597500D01*
X13449382Y-14611786D01*
X13463668Y-14640357D01*
X13477953Y-14697500D01*
X13477953Y-14768929D01*
X13463668Y-14826071D01*
X13449382Y-14854643D01*
X13435096Y-14868929D01*
X13406525Y-14883214D01*
X13377953Y-14883214D01*
X13349382Y-14868929D01*
X13335096Y-14854643D01*
X13320810Y-14826071D01*
X13306525Y-14768929D01*
X13306525Y-14697500D01*
X13320810Y-14640357D01*
X13335096Y-14611786D01*
X13349382Y-14597500D01*
X13377953Y-14583214D01*
X13749382Y-14583214D02*
X13606525Y-14583214D01*
X13592239Y-14726071D01*
X13606525Y-14711786D01*
X13635096Y-14697500D01*
X13706525Y-14697500D01*
X13735096Y-14711786D01*
X13749382Y-14726071D01*
X13763668Y-14754643D01*
X13763668Y-14826071D01*
X13749382Y-14854643D01*
X13735096Y-14868929D01*
X13706525Y-14883214D01*
X13635096Y-14883214D01*
X13606525Y-14868929D01*
X13592239Y-14854643D01*
X14049382Y-14883214D02*
X13877953Y-14883214D01*
X13963668Y-14883214D02*
X13963668Y-14583214D01*
X13935096Y-14626071D01*
X13906525Y-14654643D01*
X13877953Y-14668929D01*
X14163668Y-14583214D02*
X14163668Y-14640357D01*
X14277953Y-14583214D02*
X14277953Y-14640357D01*
X14720810Y-14997500D02*
X14706525Y-14983214D01*
X14677953Y-14940357D01*
X14663668Y-14911786D01*
X14649382Y-14868929D01*
X14635096Y-14797500D01*
X14635096Y-14740357D01*
X14649382Y-14668929D01*
X14663668Y-14626071D01*
X14677953Y-14597500D01*
X14706525Y-14554643D01*
X14720810Y-14540357D01*
X14992239Y-14883214D02*
X14820810Y-14883214D01*
X14906525Y-14883214D02*
X14906525Y-14583214D01*
X14877953Y-14626071D01*
X14849382Y-14654643D01*
X14820810Y-14668929D01*
X15177953Y-14583214D02*
X15206525Y-14583214D01*
X15235096Y-14597500D01*
X15249382Y-14611786D01*
X15263668Y-14640357D01*
X15277953Y-14697500D01*
X15277953Y-14768929D01*
X15263668Y-14826071D01*
X15249382Y-14854643D01*
X15235096Y-14868929D01*
X15206525Y-14883214D01*
X15177953Y-14883214D01*
X15149382Y-14868929D01*
X15135096Y-14854643D01*
X15120810Y-14826071D01*
X15106525Y-14768929D01*
X15106525Y-14697500D01*
X15120810Y-14640357D01*
X15135096Y-14611786D01*
X15149382Y-14597500D01*
X15177953Y-14583214D01*
X15635096Y-14883214D02*
X15635096Y-14583214D01*
X15763668Y-14883214D02*
X15763668Y-14726071D01*
X15749382Y-14697500D01*
X15720810Y-14683214D01*
X15677953Y-14683214D01*
X15649382Y-14697500D01*
X15635096Y-14711786D01*
X15949382Y-14883214D02*
X15920810Y-14868929D01*
X15906525Y-14854643D01*
X15892239Y-14826071D01*
X15892239Y-14740357D01*
X15906525Y-14711786D01*
X15920810Y-14697500D01*
X15949382Y-14683214D01*
X15992239Y-14683214D01*
X16020810Y-14697500D01*
X16035096Y-14711786D01*
X16049382Y-14740357D01*
X16049382Y-14826071D01*
X16035096Y-14854643D01*
X16020810Y-14868929D01*
X15992239Y-14883214D01*
X15949382Y-14883214D01*
X16220810Y-14883214D02*
X16192239Y-14868929D01*
X16177953Y-14840357D01*
X16177953Y-14583214D01*
X16449382Y-14868929D02*
X16420810Y-14883214D01*
X16363668Y-14883214D01*
X16335096Y-14868929D01*
X16320810Y-14840357D01*
X16320810Y-14726071D01*
X16335096Y-14697500D01*
X16363668Y-14683214D01*
X16420810Y-14683214D01*
X16449382Y-14697500D01*
X16463668Y-14726071D01*
X16463668Y-14754643D01*
X16320810Y-14783214D01*
X16577953Y-14868929D02*
X16606525Y-14883214D01*
X16663668Y-14883214D01*
X16692239Y-14868929D01*
X16706525Y-14840357D01*
X16706525Y-14826071D01*
X16692239Y-14797500D01*
X16663668Y-14783214D01*
X16620810Y-14783214D01*
X16592239Y-14768929D01*
X16577953Y-14740357D01*
X16577953Y-14726071D01*
X16592239Y-14697500D01*
X16620810Y-14683214D01*
X16663668Y-14683214D01*
X16692239Y-14697500D01*
X16806525Y-14997500D02*
X16820810Y-14983214D01*
X16849382Y-14940357D01*
X16863668Y-14911786D01*
X16877953Y-14868929D01*
X16892239Y-14797500D01*
X16892239Y-14740357D01*
X16877953Y-14668929D01*
X16863668Y-14626071D01*
X16849382Y-14597500D01*
X16820810Y-14554643D01*
X16806525Y-14540357D01*
X9899382Y-15076000D02*
X10034382Y-15211000D01*
X10034382Y-15076000D02*
X9899382Y-15211000D01*
X9966882Y-15076000D02*
X9966882Y-15211000D01*
X9899382Y-15143500D02*
X10034382Y-15143500D01*
X10477953Y-15279214D02*
X10306525Y-15279214D01*
X10392239Y-15279214D02*
X10392239Y-14979214D01*
X10363668Y-15022071D01*
X10335096Y-15050643D01*
X10306525Y-15064929D01*
X10606525Y-15250643D02*
X10620810Y-15264929D01*
X10606525Y-15279214D01*
X10592239Y-15264929D01*
X10606525Y-15250643D01*
X10606525Y-15279214D01*
X10720810Y-14979214D02*
X10906525Y-14979214D01*
X10806525Y-15093500D01*
X10849382Y-15093500D01*
X10877953Y-15107786D01*
X10892239Y-15122071D01*
X10906525Y-15150643D01*
X10906525Y-15222071D01*
X10892239Y-15250643D01*
X10877953Y-15264929D01*
X10849382Y-15279214D01*
X10763668Y-15279214D01*
X10735096Y-15264929D01*
X10720810Y-15250643D01*
X11177953Y-14979214D02*
X11035096Y-14979214D01*
X11020810Y-15122071D01*
X11035096Y-15107786D01*
X11063668Y-15093500D01*
X11135096Y-15093500D01*
X11163668Y-15107786D01*
X11177953Y-15122071D01*
X11192239Y-15150643D01*
X11192239Y-15222071D01*
X11177953Y-15250643D01*
X11163668Y-15264929D01*
X11135096Y-15279214D01*
X11063668Y-15279214D01*
X11035096Y-15264929D01*
X11020810Y-15250643D01*
X11320810Y-15279214D02*
X11320810Y-15079214D01*
X11320810Y-15107786D02*
X11335096Y-15093500D01*
X11363668Y-15079214D01*
X11406525Y-15079214D01*
X11435096Y-15093500D01*
X11449382Y-15122071D01*
X11449382Y-15279214D01*
X11449382Y-15122071D02*
X11463668Y-15093500D01*
X11492239Y-15079214D01*
X11535096Y-15079214D01*
X11563668Y-15093500D01*
X11577953Y-15122071D01*
X11577953Y-15279214D01*
X11720810Y-15279214D02*
X11720810Y-15079214D01*
X11720810Y-15107786D02*
X11735096Y-15093500D01*
X11763668Y-15079214D01*
X11806525Y-15079214D01*
X11835096Y-15093500D01*
X11849382Y-15122071D01*
X11849382Y-15279214D01*
X11849382Y-15122071D02*
X11863668Y-15093500D01*
X11892239Y-15079214D01*
X11935096Y-15079214D01*
X11963668Y-15093500D01*
X11977953Y-15122071D01*
X11977953Y-15279214D01*
X12563668Y-14964929D02*
X12306525Y-15350643D01*
X12949382Y-14979214D02*
X12977953Y-14979214D01*
X13006525Y-14993500D01*
X13020810Y-15007786D01*
X13035096Y-15036357D01*
X13049382Y-15093500D01*
X13049382Y-15164929D01*
X13035096Y-15222071D01*
X13020810Y-15250643D01*
X13006525Y-15264929D01*
X12977953Y-15279214D01*
X12949382Y-15279214D01*
X12920810Y-15264929D01*
X12906525Y-15250643D01*
X12892239Y-15222071D01*
X12877953Y-15164929D01*
X12877953Y-15093500D01*
X12892239Y-15036357D01*
X12906525Y-15007786D01*
X12920810Y-14993500D01*
X12949382Y-14979214D01*
X13177953Y-15250643D02*
X13192239Y-15264929D01*
X13177953Y-15279214D01*
X13163668Y-15264929D01*
X13177953Y-15250643D01*
X13177953Y-15279214D01*
X13377953Y-14979214D02*
X13406525Y-14979214D01*
X13435096Y-14993500D01*
X13449382Y-15007786D01*
X13463668Y-15036357D01*
X13477953Y-15093500D01*
X13477953Y-15164929D01*
X13463668Y-15222071D01*
X13449382Y-15250643D01*
X13435096Y-15264929D01*
X13406525Y-15279214D01*
X13377953Y-15279214D01*
X13349382Y-15264929D01*
X13335096Y-15250643D01*
X13320810Y-15222071D01*
X13306525Y-15164929D01*
X13306525Y-15093500D01*
X13320810Y-15036357D01*
X13335096Y-15007786D01*
X13349382Y-14993500D01*
X13377953Y-14979214D01*
X13749382Y-14979214D02*
X13606525Y-14979214D01*
X13592239Y-15122071D01*
X13606525Y-15107786D01*
X13635096Y-15093500D01*
X13706525Y-15093500D01*
X13735096Y-15107786D01*
X13749382Y-15122071D01*
X13763668Y-15150643D01*
X13763668Y-15222071D01*
X13749382Y-15250643D01*
X13735096Y-15264929D01*
X13706525Y-15279214D01*
X13635096Y-15279214D01*
X13606525Y-15264929D01*
X13592239Y-15250643D01*
X13863668Y-14979214D02*
X14049382Y-14979214D01*
X13949382Y-15093500D01*
X13992239Y-15093500D01*
X14020810Y-15107786D01*
X14035096Y-15122071D01*
X14049382Y-15150643D01*
X14049382Y-15222071D01*
X14035096Y-15250643D01*
X14020810Y-15264929D01*
X13992239Y-15279214D01*
X13906525Y-15279214D01*
X13877953Y-15264929D01*
X13863668Y-15250643D01*
X14163668Y-14979214D02*
X14163668Y-15036357D01*
X14277953Y-14979214D02*
X14277953Y-15036357D01*
X14720810Y-15393500D02*
X14706525Y-15379214D01*
X14677953Y-15336357D01*
X14663668Y-15307786D01*
X14649382Y-15264929D01*
X14635096Y-15193500D01*
X14635096Y-15136357D01*
X14649382Y-15064929D01*
X14663668Y-15022071D01*
X14677953Y-14993500D01*
X14706525Y-14950643D01*
X14720810Y-14936357D01*
X14963668Y-15079214D02*
X14963668Y-15279214D01*
X14892239Y-14964929D02*
X14820810Y-15179214D01*
X15006525Y-15179214D01*
X15349382Y-15279214D02*
X15349382Y-14979214D01*
X15477953Y-15279214D02*
X15477953Y-15122071D01*
X15463668Y-15093500D01*
X15435096Y-15079214D01*
X15392239Y-15079214D01*
X15363668Y-15093500D01*
X15349382Y-15107786D01*
X15663668Y-15279214D02*
X15635096Y-15264929D01*
X15620810Y-15250643D01*
X15606525Y-15222071D01*
X15606525Y-15136357D01*
X15620810Y-15107786D01*
X15635096Y-15093500D01*
X15663668Y-15079214D01*
X15706525Y-15079214D01*
X15735096Y-15093500D01*
X15749382Y-15107786D01*
X15763668Y-15136357D01*
X15763668Y-15222071D01*
X15749382Y-15250643D01*
X15735096Y-15264929D01*
X15706525Y-15279214D01*
X15663668Y-15279214D01*
X15935096Y-15279214D02*
X15906525Y-15264929D01*
X15892239Y-15236357D01*
X15892239Y-14979214D01*
X16163668Y-15264929D02*
X16135096Y-15279214D01*
X16077953Y-15279214D01*
X16049382Y-15264929D01*
X16035096Y-15236357D01*
X16035096Y-15122071D01*
X16049382Y-15093500D01*
X16077953Y-15079214D01*
X16135096Y-15079214D01*
X16163668Y-15093500D01*
X16177953Y-15122071D01*
X16177953Y-15150643D01*
X16035096Y-15179214D01*
X16292239Y-15264929D02*
X16320810Y-15279214D01*
X16377953Y-15279214D01*
X16406525Y-15264929D01*
X16420810Y-15236357D01*
X16420810Y-15222071D01*
X16406525Y-15193500D01*
X16377953Y-15179214D01*
X16335096Y-15179214D01*
X16306525Y-15164929D01*
X16292239Y-15136357D01*
X16292239Y-15122071D01*
X16306525Y-15093500D01*
X16335096Y-15079214D01*
X16377953Y-15079214D01*
X16406525Y-15093500D01*
X16520810Y-15393500D02*
X16535096Y-15379214D01*
X16563668Y-15336357D01*
X16577953Y-15307786D01*
X16592239Y-15264929D01*
X16606525Y-15193500D01*
X16606525Y-15136357D01*
X16592239Y-15064929D01*
X16577953Y-15022071D01*
X16563668Y-14993500D01*
X16535096Y-14950643D01*
X16520810Y-14936357D01*
X9714382Y-15379500D02*
X10034382Y-15699500D01*
X10034382Y-15379500D02*
X9714382Y-15699500D01*
X9987520Y-15652638D02*
X9987520Y-15426362D01*
X9761244Y-15426362D01*
X9761244Y-15652638D01*
X9987520Y-15652638D01*
X10292239Y-15375214D02*
X10477953Y-15375214D01*
X10377953Y-15489500D01*
X10420810Y-15489500D01*
X10449382Y-15503786D01*
X10463668Y-15518071D01*
X10477953Y-15546643D01*
X10477953Y-15618071D01*
X10463668Y-15646643D01*
X10449382Y-15660929D01*
X10420810Y-15675214D01*
X10335096Y-15675214D01*
X10306525Y-15660929D01*
X10292239Y-15646643D01*
X10606525Y-15646643D02*
X10620810Y-15660929D01*
X10606525Y-15675214D01*
X10592239Y-15660929D01*
X10606525Y-15646643D01*
X10606525Y-15675214D01*
X10735096Y-15403786D02*
X10749382Y-15389500D01*
X10777953Y-15375214D01*
X10849382Y-15375214D01*
X10877953Y-15389500D01*
X10892239Y-15403786D01*
X10906525Y-15432357D01*
X10906525Y-15460929D01*
X10892239Y-15503786D01*
X10720810Y-15675214D01*
X10906525Y-15675214D01*
X11092239Y-15375214D02*
X11120810Y-15375214D01*
X11149382Y-15389500D01*
X11163668Y-15403786D01*
X11177953Y-15432357D01*
X11192239Y-15489500D01*
X11192239Y-15560929D01*
X11177953Y-15618071D01*
X11163668Y-15646643D01*
X11149382Y-15660929D01*
X11120810Y-15675214D01*
X11092239Y-15675214D01*
X11063668Y-15660929D01*
X11049382Y-15646643D01*
X11035096Y-15618071D01*
X11020810Y-15560929D01*
X11020810Y-15489500D01*
X11035096Y-15432357D01*
X11049382Y-15403786D01*
X11063668Y-15389500D01*
X11092239Y-15375214D01*
X11320810Y-15675214D02*
X11320810Y-15475214D01*
X11320810Y-15503786D02*
X11335096Y-15489500D01*
X11363668Y-15475214D01*
X11406525Y-15475214D01*
X11435096Y-15489500D01*
X11449382Y-15518071D01*
X11449382Y-15675214D01*
X11449382Y-15518071D02*
X11463668Y-15489500D01*
X11492239Y-15475214D01*
X11535096Y-15475214D01*
X11563668Y-15489500D01*
X11577953Y-15518071D01*
X11577953Y-15675214D01*
X11720810Y-15675214D02*
X11720810Y-15475214D01*
X11720810Y-15503786D02*
X11735096Y-15489500D01*
X11763668Y-15475214D01*
X11806525Y-15475214D01*
X11835096Y-15489500D01*
X11849382Y-15518071D01*
X11849382Y-15675214D01*
X11849382Y-15518071D02*
X11863668Y-15489500D01*
X11892239Y-15475214D01*
X11935096Y-15475214D01*
X11963668Y-15489500D01*
X11977953Y-15518071D01*
X11977953Y-15675214D01*
X12563668Y-15360929D02*
X12306525Y-15746643D01*
X12949382Y-15375214D02*
X12977953Y-15375214D01*
X13006525Y-15389500D01*
X13020810Y-15403786D01*
X13035096Y-15432357D01*
X13049382Y-15489500D01*
X13049382Y-15560929D01*
X13035096Y-15618071D01*
X13020810Y-15646643D01*
X13006525Y-15660929D01*
X12977953Y-15675214D01*
X12949382Y-15675214D01*
X12920810Y-15660929D01*
X12906525Y-15646643D01*
X12892239Y-15618071D01*
X12877953Y-15560929D01*
X12877953Y-15489500D01*
X12892239Y-15432357D01*
X12906525Y-15403786D01*
X12920810Y-15389500D01*
X12949382Y-15375214D01*
X13177953Y-15646643D02*
X13192239Y-15660929D01*
X13177953Y-15675214D01*
X13163668Y-15660929D01*
X13177953Y-15646643D01*
X13177953Y-15675214D01*
X13477953Y-15675214D02*
X13306525Y-15675214D01*
X13392239Y-15675214D02*
X13392239Y-15375214D01*
X13363668Y-15418071D01*
X13335096Y-15446643D01*
X13306525Y-15460929D01*
X13592239Y-15403786D02*
X13606525Y-15389500D01*
X13635096Y-15375214D01*
X13706525Y-15375214D01*
X13735096Y-15389500D01*
X13749382Y-15403786D01*
X13763668Y-15432357D01*
X13763668Y-15460929D01*
X13749382Y-15503786D01*
X13577953Y-15675214D01*
X13763668Y-15675214D01*
X14020810Y-15375214D02*
X13963668Y-15375214D01*
X13935096Y-15389500D01*
X13920810Y-15403786D01*
X13892239Y-15446643D01*
X13877953Y-15503786D01*
X13877953Y-15618071D01*
X13892239Y-15646643D01*
X13906525Y-15660929D01*
X13935096Y-15675214D01*
X13992239Y-15675214D01*
X14020810Y-15660929D01*
X14035096Y-15646643D01*
X14049382Y-15618071D01*
X14049382Y-15546643D01*
X14035096Y-15518071D01*
X14020810Y-15503786D01*
X13992239Y-15489500D01*
X13935096Y-15489500D01*
X13906525Y-15503786D01*
X13892239Y-15518071D01*
X13877953Y-15546643D01*
X14163668Y-15375214D02*
X14163668Y-15432357D01*
X14277953Y-15375214D02*
X14277953Y-15432357D01*
X14720810Y-15789500D02*
X14706525Y-15775214D01*
X14677953Y-15732357D01*
X14663668Y-15703786D01*
X14649382Y-15660929D01*
X14635096Y-15589500D01*
X14635096Y-15532357D01*
X14649382Y-15460929D01*
X14663668Y-15418071D01*
X14677953Y-15389500D01*
X14706525Y-15346643D01*
X14720810Y-15332357D01*
X14806525Y-15375214D02*
X14992239Y-15375214D01*
X14892239Y-15489500D01*
X14935096Y-15489500D01*
X14963668Y-15503786D01*
X14977953Y-15518071D01*
X14992239Y-15546643D01*
X14992239Y-15618071D01*
X14977953Y-15646643D01*
X14963668Y-15660929D01*
X14935096Y-15675214D01*
X14849382Y-15675214D01*
X14820810Y-15660929D01*
X14806525Y-15646643D01*
X15349382Y-15675214D02*
X15349382Y-15375214D01*
X15477953Y-15675214D02*
X15477953Y-15518071D01*
X15463668Y-15489500D01*
X15435096Y-15475214D01*
X15392239Y-15475214D01*
X15363668Y-15489500D01*
X15349382Y-15503786D01*
X15663668Y-15675214D02*
X15635096Y-15660929D01*
X15620810Y-15646643D01*
X15606525Y-15618071D01*
X15606525Y-15532357D01*
X15620810Y-15503786D01*
X15635096Y-15489500D01*
X15663668Y-15475214D01*
X15706525Y-15475214D01*
X15735096Y-15489500D01*
X15749382Y-15503786D01*
X15763668Y-15532357D01*
X15763668Y-15618071D01*
X15749382Y-15646643D01*
X15735096Y-15660929D01*
X15706525Y-15675214D01*
X15663668Y-15675214D01*
X15935096Y-15675214D02*
X15906525Y-15660929D01*
X15892239Y-15632357D01*
X15892239Y-15375214D01*
X16163668Y-15660929D02*
X16135096Y-15675214D01*
X16077953Y-15675214D01*
X16049382Y-15660929D01*
X16035096Y-15632357D01*
X16035096Y-15518071D01*
X16049382Y-15489500D01*
X16077953Y-15475214D01*
X16135096Y-15475214D01*
X16163668Y-15489500D01*
X16177953Y-15518071D01*
X16177953Y-15546643D01*
X16035096Y-15575214D01*
X16292239Y-15660929D02*
X16320810Y-15675214D01*
X16377953Y-15675214D01*
X16406525Y-15660929D01*
X16420810Y-15632357D01*
X16420810Y-15618071D01*
X16406525Y-15589500D01*
X16377953Y-15575214D01*
X16335096Y-15575214D01*
X16306525Y-15560929D01*
X16292239Y-15532357D01*
X16292239Y-15518071D01*
X16306525Y-15489500D01*
X16335096Y-15475214D01*
X16377953Y-15475214D01*
X16406525Y-15489500D01*
X16520810Y-15789500D02*
X16535096Y-15775214D01*
X16563668Y-15732357D01*
X16577953Y-15703786D01*
X16592239Y-15660929D01*
X16606525Y-15589500D01*
X16606525Y-15532357D01*
X16592239Y-15460929D01*
X16577953Y-15418071D01*
X16563668Y-15389500D01*
X16535096Y-15346643D01*
X16520810Y-15332357D01*
M02*
