G04 #@! TF.GenerationSoftware,KiCad,Pcbnew,(5.1.6)-1*
G04 #@! TF.CreationDate,2020-09-17T22:28:53+02:00*
G04 #@! TF.ProjectId,arduino_nano_reflow_TRIAC_v1_0,61726475-696e-46f5-9f6e-616e6f5f7265,1.0*
G04 #@! TF.SameCoordinates,Original*
G04 #@! TF.FileFunction,Paste,Top*
G04 #@! TF.FilePolarity,Positive*
%FSLAX46Y46*%
G04 Gerber Fmt 4.6, Leading zero omitted, Abs format (unit mm)*
G04 Created by KiCad (PCBNEW (5.1.6)-1) date 2020-09-17 22:28:53*
%MOMM*%
%LPD*%
G01*
G04 APERTURE LIST*
G04 APERTURE END LIST*
G36*
G01*
X156443820Y-105930510D02*
X156443820Y-105418010D01*
G75*
G02*
X156662570Y-105199260I218750J0D01*
G01*
X157100070Y-105199260D01*
G75*
G02*
X157318820Y-105418010I0J-218750D01*
G01*
X157318820Y-105930510D01*
G75*
G02*
X157100070Y-106149260I-218750J0D01*
G01*
X156662570Y-106149260D01*
G75*
G02*
X156443820Y-105930510I0J218750D01*
G01*
G37*
G36*
G01*
X154868820Y-105930510D02*
X154868820Y-105418010D01*
G75*
G02*
X155087570Y-105199260I218750J0D01*
G01*
X155525070Y-105199260D01*
G75*
G02*
X155743820Y-105418010I0J-218750D01*
G01*
X155743820Y-105930510D01*
G75*
G02*
X155525070Y-106149260I-218750J0D01*
G01*
X155087570Y-106149260D01*
G75*
G02*
X154868820Y-105930510I0J218750D01*
G01*
G37*
G36*
G01*
X183468820Y-83530510D02*
X183468820Y-82618010D01*
G75*
G02*
X183712570Y-82374260I243750J0D01*
G01*
X184200070Y-82374260D01*
G75*
G02*
X184443820Y-82618010I0J-243750D01*
G01*
X184443820Y-83530510D01*
G75*
G02*
X184200070Y-83774260I-243750J0D01*
G01*
X183712570Y-83774260D01*
G75*
G02*
X183468820Y-83530510I0J243750D01*
G01*
G37*
G36*
G01*
X181593820Y-83530510D02*
X181593820Y-82618010D01*
G75*
G02*
X181837570Y-82374260I243750J0D01*
G01*
X182325070Y-82374260D01*
G75*
G02*
X182568820Y-82618010I0J-243750D01*
G01*
X182568820Y-83530510D01*
G75*
G02*
X182325070Y-83774260I-243750J0D01*
G01*
X181837570Y-83774260D01*
G75*
G02*
X181593820Y-83530510I0J243750D01*
G01*
G37*
G36*
G01*
X176093820Y-76524260D02*
X173943820Y-76524260D01*
G75*
G02*
X173693820Y-76274260I0J250000D01*
G01*
X173693820Y-75524260D01*
G75*
G02*
X173943820Y-75274260I250000J0D01*
G01*
X176093820Y-75274260D01*
G75*
G02*
X176343820Y-75524260I0J-250000D01*
G01*
X176343820Y-76274260D01*
G75*
G02*
X176093820Y-76524260I-250000J0D01*
G01*
G37*
G36*
G01*
X176093820Y-79324260D02*
X173943820Y-79324260D01*
G75*
G02*
X173693820Y-79074260I0J250000D01*
G01*
X173693820Y-78324260D01*
G75*
G02*
X173943820Y-78074260I250000J0D01*
G01*
X176093820Y-78074260D01*
G75*
G02*
X176343820Y-78324260I0J-250000D01*
G01*
X176343820Y-79074260D01*
G75*
G02*
X176093820Y-79324260I-250000J0D01*
G01*
G37*
G36*
G01*
X182043820Y-76124260D02*
X182043820Y-78274260D01*
G75*
G02*
X181793820Y-78524260I-250000J0D01*
G01*
X181043820Y-78524260D01*
G75*
G02*
X180793820Y-78274260I0J250000D01*
G01*
X180793820Y-76124260D01*
G75*
G02*
X181043820Y-75874260I250000J0D01*
G01*
X181793820Y-75874260D01*
G75*
G02*
X182043820Y-76124260I0J-250000D01*
G01*
G37*
G36*
G01*
X184843820Y-76124260D02*
X184843820Y-78274260D01*
G75*
G02*
X184593820Y-78524260I-250000J0D01*
G01*
X183843820Y-78524260D01*
G75*
G02*
X183593820Y-78274260I0J250000D01*
G01*
X183593820Y-76124260D01*
G75*
G02*
X183843820Y-75874260I250000J0D01*
G01*
X184593820Y-75874260D01*
G75*
G02*
X184843820Y-76124260I0J-250000D01*
G01*
G37*
M02*
