G04 #@! TF.GenerationSoftware,KiCad,Pcbnew,(5.1.6-0-10_14)*
G04 #@! TF.CreationDate,2020-05-23T00:01:56+02:00*
G04 #@! TF.ProjectId,arduino_nano_reflow_TRIAC_v1_0,61726475-696e-46f5-9f6e-616e6f5f7265,1.0*
G04 #@! TF.SameCoordinates,Original*
G04 #@! TF.FileFunction,Soldermask,Top*
G04 #@! TF.FilePolarity,Negative*
%FSLAX46Y46*%
G04 Gerber Fmt 4.6, Leading zero omitted, Abs format (unit mm)*
G04 Created by KiCad (PCBNEW (5.1.6-0-10_14)) date 2020-05-23 00:01:56*
%MOMM*%
%LPD*%
G01*
G04 APERTURE LIST*
%ADD10C,6.800000*%
%ADD11O,2.400000X2.305000*%
%ADD12R,2.400000X2.305000*%
%ADD13O,2.000000X2.000000*%
%ADD14C,2.000000*%
%ADD15C,2.400000*%
%ADD16R,2.400000X2.400000*%
%ADD17R,2.100000X2.100000*%
%ADD18O,2.100000X2.100000*%
%ADD19R,2.200000X2.200000*%
%ADD20O,2.200000X2.200000*%
%ADD21R,2.800000X2.000000*%
%ADD22O,2.800000X2.000000*%
%ADD23C,2.750000*%
%ADD24R,6.400000X3.400000*%
%ADD25O,6.400000X3.400000*%
%ADD26R,3.400000X5.400000*%
%ADD27O,3.400000X5.400000*%
%ADD28O,2.600000X2.600000*%
%ADD29R,1.974800X4.900000*%
%ADD30O,2.400000X4.900000*%
%ADD31R,0.900000X1.300000*%
G04 APERTURE END LIST*
D10*
X196493140Y-72990980D03*
X136493140Y-72990980D03*
X136493140Y-112990980D03*
X196493140Y-112990980D03*
D11*
X189372820Y-78210000D03*
X189372820Y-75670000D03*
D12*
X189372820Y-73130000D03*
D13*
X128160000Y-96625000D03*
D14*
X128160000Y-104245000D03*
D13*
X131335000Y-99165000D03*
D14*
X131335000Y-106785000D03*
D15*
X157370000Y-73150000D03*
D16*
X157370000Y-80750000D03*
G36*
G01*
X153178140Y-91472230D02*
X153178140Y-90359730D01*
G75*
G02*
X153521890Y-90015980I343750J0D01*
G01*
X154209390Y-90015980D01*
G75*
G02*
X154553140Y-90359730I0J-343750D01*
G01*
X154553140Y-91472230D01*
G75*
G02*
X154209390Y-91815980I-343750J0D01*
G01*
X153521890Y-91815980D01*
G75*
G02*
X153178140Y-91472230I0J343750D01*
G01*
G37*
G36*
G01*
X151303140Y-91472230D02*
X151303140Y-90359730D01*
G75*
G02*
X151646890Y-90015980I343750J0D01*
G01*
X152334390Y-90015980D01*
G75*
G02*
X152678140Y-90359730I0J-343750D01*
G01*
X152678140Y-91472230D01*
G75*
G02*
X152334390Y-91815980I-343750J0D01*
G01*
X151646890Y-91815980D01*
G75*
G02*
X151303140Y-91472230I0J343750D01*
G01*
G37*
G36*
G01*
X175581820Y-76324260D02*
X173191820Y-76324260D01*
G75*
G02*
X172861820Y-75994260I0J330000D01*
G01*
X172861820Y-75004260D01*
G75*
G02*
X173191820Y-74674260I330000J0D01*
G01*
X175581820Y-74674260D01*
G75*
G02*
X175911820Y-75004260I0J-330000D01*
G01*
X175911820Y-75994260D01*
G75*
G02*
X175581820Y-76324260I-330000J0D01*
G01*
G37*
G36*
G01*
X175581820Y-79124260D02*
X173191820Y-79124260D01*
G75*
G02*
X172861820Y-78794260I0J330000D01*
G01*
X172861820Y-77804260D01*
G75*
G02*
X173191820Y-77474260I330000J0D01*
G01*
X175581820Y-77474260D01*
G75*
G02*
X175911820Y-77804260I0J-330000D01*
G01*
X175911820Y-78794260D01*
G75*
G02*
X175581820Y-79124260I-330000J0D01*
G01*
G37*
G36*
G01*
X187140000Y-75095000D02*
X184750000Y-75095000D01*
G75*
G02*
X184420000Y-74765000I0J330000D01*
G01*
X184420000Y-73775000D01*
G75*
G02*
X184750000Y-73445000I330000J0D01*
G01*
X187140000Y-73445000D01*
G75*
G02*
X187470000Y-73775000I0J-330000D01*
G01*
X187470000Y-74765000D01*
G75*
G02*
X187140000Y-75095000I-330000J0D01*
G01*
G37*
G36*
G01*
X187140000Y-77895000D02*
X184750000Y-77895000D01*
G75*
G02*
X184420000Y-77565000I0J330000D01*
G01*
X184420000Y-76575000D01*
G75*
G02*
X184750000Y-76245000I330000J0D01*
G01*
X187140000Y-76245000D01*
G75*
G02*
X187470000Y-76575000I0J-330000D01*
G01*
X187470000Y-77565000D01*
G75*
G02*
X187140000Y-77895000I-330000J0D01*
G01*
G37*
D17*
X180865000Y-108690000D03*
D18*
X183405000Y-108690000D03*
X185945000Y-108690000D03*
X188485000Y-108690000D03*
X191025000Y-108690000D03*
D17*
X147845000Y-81385000D03*
D18*
X145305000Y-81385000D03*
D17*
X189755000Y-115040000D03*
D18*
X187215000Y-115040000D03*
X184675000Y-115040000D03*
X182135000Y-115040000D03*
X179595000Y-115040000D03*
X177055000Y-115040000D03*
X174515000Y-115040000D03*
X171975000Y-115040000D03*
X169435000Y-115040000D03*
X166895000Y-115040000D03*
X164355000Y-115040000D03*
X161815000Y-115040000D03*
X159275000Y-115040000D03*
X156735000Y-115040000D03*
X154195000Y-115040000D03*
X151655000Y-115040000D03*
X149115000Y-115040000D03*
D19*
X177818820Y-75670000D03*
D20*
X182898820Y-75670000D03*
D17*
X165625000Y-70590000D03*
D18*
X168165000Y-70590000D03*
X170705000Y-70590000D03*
D17*
X165625000Y-78210000D03*
D18*
X168165000Y-78210000D03*
X170705000Y-78210000D03*
D17*
X165625000Y-75670000D03*
D18*
X168165000Y-75670000D03*
X170705000Y-75670000D03*
D17*
X165625000Y-73130000D03*
D18*
X168165000Y-73130000D03*
X170705000Y-73130000D03*
D17*
X182006820Y-71971260D03*
D18*
X179466820Y-71971260D03*
D14*
X124985000Y-96625000D03*
D13*
X124985000Y-104245000D03*
D14*
X124985000Y-83925000D03*
X124985000Y-88925000D03*
X124718820Y-92749260D03*
D13*
X132338820Y-92749260D03*
D17*
X145305000Y-112500000D03*
D18*
X145305000Y-109960000D03*
X145305000Y-107420000D03*
D21*
X135145000Y-96625000D03*
D22*
X142765000Y-101705000D03*
X135145000Y-99165000D03*
X142765000Y-99165000D03*
X135145000Y-101705000D03*
X142765000Y-96625000D03*
D21*
X142765000Y-91545000D03*
D22*
X135145000Y-86465000D03*
X142765000Y-89005000D03*
X135145000Y-89005000D03*
X142765000Y-86465000D03*
X135145000Y-91545000D03*
D23*
X104663820Y-97639260D03*
X104663820Y-102639260D03*
X104663820Y-87639260D03*
X104663820Y-82639260D03*
D24*
X111013820Y-110579260D03*
D25*
X111013820Y-115579260D03*
D24*
X111013820Y-70574260D03*
D25*
X111013820Y-75574260D03*
D26*
X147818820Y-74099260D03*
D27*
X142818820Y-74099260D03*
D16*
X114823820Y-90259260D03*
D28*
X111648820Y-92799260D03*
X114823820Y-95339260D03*
D29*
X147845000Y-102805000D03*
D30*
X150385000Y-102805000D03*
X152925000Y-102805000D03*
X155465000Y-102805000D03*
X158005000Y-102805000D03*
X160545000Y-102805000D03*
X163085000Y-102805000D03*
X165625000Y-102805000D03*
X168165000Y-102805000D03*
X170705000Y-102805000D03*
X173245000Y-102805000D03*
X175785000Y-102805000D03*
X178325000Y-102805000D03*
X180865000Y-102805000D03*
X183405000Y-102805000D03*
X183405000Y-85365000D03*
X180865000Y-85365000D03*
X178325000Y-85365000D03*
X175785000Y-85365000D03*
X173245000Y-85365000D03*
X170705000Y-85365000D03*
X168165000Y-85365000D03*
X165625000Y-85365000D03*
X163085000Y-85365000D03*
X160545000Y-85365000D03*
X158005000Y-85365000D03*
X155465000Y-85365000D03*
X152925000Y-85365000D03*
X150385000Y-85365000D03*
X147845000Y-85365000D03*
D31*
X155618820Y-94725980D03*
X154118820Y-94725980D03*
M02*
