G04 #@! TF.GenerationSoftware,KiCad,Pcbnew,(5.1.6)-1*
G04 #@! TF.CreationDate,2020-09-17T22:28:53+02:00*
G04 #@! TF.ProjectId,arduino_nano_reflow_TRIAC_v1_0,61726475-696e-46f5-9f6e-616e6f5f7265,1.0*
G04 #@! TF.SameCoordinates,Original*
G04 #@! TF.FileFunction,Legend,Top*
G04 #@! TF.FilePolarity,Positive*
%FSLAX46Y46*%
G04 Gerber Fmt 4.6, Leading zero omitted, Abs format (unit mm)*
G04 Created by KiCad (PCBNEW (5.1.6)-1) date 2020-09-17 22:28:53*
%MOMM*%
%LPD*%
G01*
G04 APERTURE LIST*
%ADD10C,0.150000*%
%ADD11C,0.200000*%
%ADD12C,0.300000*%
%ADD13C,0.191466*%
%ADD14C,0.120000*%
G04 APERTURE END LIST*
D10*
X141571200Y-66446879D02*
X141571200Y-67018307D01*
X141571200Y-66732593D02*
X140571200Y-66732593D01*
X140714058Y-66827831D01*
X140809296Y-66923069D01*
X140856915Y-67018307D01*
X140666439Y-66065926D02*
X140618820Y-66018307D01*
X140571200Y-65923069D01*
X140571200Y-65684974D01*
X140618820Y-65589736D01*
X140666439Y-65542117D01*
X140761677Y-65494498D01*
X140856915Y-65494498D01*
X140999772Y-65542117D01*
X141571200Y-66113545D01*
X141571200Y-65494498D01*
X140571200Y-65208783D02*
X141571200Y-64875450D01*
X140571200Y-64542117D01*
X141571200Y-63446879D02*
X140571200Y-63446879D01*
X141571200Y-62970688D02*
X140571200Y-62970688D01*
X141571200Y-62399260D01*
X140571200Y-62399260D01*
X141952153Y-61637355D02*
X141904534Y-61684974D01*
X141761677Y-61780212D01*
X141666439Y-61827831D01*
X141523581Y-61875450D01*
X141285486Y-61923069D01*
X141095010Y-61923069D01*
X140856915Y-61875450D01*
X140714058Y-61827831D01*
X140618820Y-61780212D01*
X140475962Y-61684974D01*
X140428343Y-61637355D01*
X141190248Y-61256402D02*
X141190248Y-60494498D01*
X141571200Y-60875450D02*
X140809296Y-60875450D01*
X141952153Y-60113545D02*
X141904534Y-60065926D01*
X141761677Y-59970688D01*
X141666439Y-59923069D01*
X141523581Y-59875450D01*
X141285486Y-59827831D01*
X141095010Y-59827831D01*
X140856915Y-59875450D01*
X140714058Y-59923069D01*
X140618820Y-59970688D01*
X140475962Y-60065926D01*
X140428343Y-60113545D01*
X173947391Y-67204021D02*
X173947391Y-67537355D01*
X174471200Y-67537355D02*
X173471200Y-67537355D01*
X173471200Y-67061164D01*
X174185486Y-66727831D02*
X174185486Y-66251640D01*
X174471200Y-66823069D02*
X173471200Y-66489736D01*
X174471200Y-66156402D01*
X174471200Y-65823069D02*
X173471200Y-65823069D01*
X174471200Y-65251640D01*
X173471200Y-65251640D01*
X173471200Y-63823069D02*
X173471200Y-63632593D01*
X173518820Y-63537355D01*
X173614058Y-63442117D01*
X173804534Y-63394498D01*
X174137867Y-63394498D01*
X174328343Y-63442117D01*
X174423581Y-63537355D01*
X174471200Y-63632593D01*
X174471200Y-63823069D01*
X174423581Y-63918307D01*
X174328343Y-64013545D01*
X174137867Y-64061164D01*
X173804534Y-64061164D01*
X173614058Y-64013545D01*
X173518820Y-63918307D01*
X173471200Y-63823069D01*
X173471200Y-62965926D02*
X174280724Y-62965926D01*
X174375962Y-62918307D01*
X174423581Y-62870688D01*
X174471200Y-62775450D01*
X174471200Y-62584974D01*
X174423581Y-62489736D01*
X174375962Y-62442117D01*
X174280724Y-62394498D01*
X173471200Y-62394498D01*
X173471200Y-62061164D02*
X173471200Y-61489736D01*
X174471200Y-61775450D02*
X173471200Y-61775450D01*
X174852153Y-60870688D02*
X174804534Y-60918307D01*
X174661677Y-61013545D01*
X174566439Y-61061164D01*
X174423581Y-61108783D01*
X174185486Y-61156402D01*
X173995010Y-61156402D01*
X173756915Y-61108783D01*
X173614058Y-61061164D01*
X173518820Y-61013545D01*
X173375962Y-60918307D01*
X173328343Y-60870688D01*
X174090248Y-60489736D02*
X174090248Y-59727831D01*
X174471200Y-60108783D02*
X173709296Y-60108783D01*
X174852153Y-59346879D02*
X174804534Y-59299260D01*
X174661677Y-59204021D01*
X174566439Y-59156402D01*
X174423581Y-59108783D01*
X174185486Y-59061164D01*
X173995010Y-59061164D01*
X173756915Y-59108783D01*
X173614058Y-59156402D01*
X173518820Y-59204021D01*
X173375962Y-59299260D01*
X173328343Y-59346879D01*
X154519200Y-112783664D02*
X153519200Y-112783664D01*
X153519200Y-112545569D01*
X153566820Y-112402712D01*
X153662058Y-112307474D01*
X153757296Y-112259855D01*
X153947772Y-112212236D01*
X154090629Y-112212236D01*
X154281105Y-112259855D01*
X154376343Y-112307474D01*
X154471581Y-112402712D01*
X154519200Y-112545569D01*
X154519200Y-112783664D01*
X153519200Y-111307474D02*
X153519200Y-111783664D01*
X153995391Y-111831283D01*
X153947772Y-111783664D01*
X153900153Y-111688426D01*
X153900153Y-111450331D01*
X153947772Y-111355093D01*
X153995391Y-111307474D01*
X154090629Y-111259855D01*
X154328724Y-111259855D01*
X154423962Y-111307474D01*
X154471581Y-111355093D01*
X154519200Y-111450331D01*
X154519200Y-111688426D01*
X154471581Y-111783664D01*
X154423962Y-111831283D01*
X151979200Y-112783664D02*
X150979200Y-112783664D01*
X150979200Y-112545569D01*
X151026820Y-112402712D01*
X151122058Y-112307474D01*
X151217296Y-112259855D01*
X151407772Y-112212236D01*
X151550629Y-112212236D01*
X151741105Y-112259855D01*
X151836343Y-112307474D01*
X151931581Y-112402712D01*
X151979200Y-112545569D01*
X151979200Y-112783664D01*
X151312534Y-111355093D02*
X151979200Y-111355093D01*
X150931581Y-111593188D02*
X151645867Y-111831283D01*
X151645867Y-111212236D01*
X148486820Y-112259855D02*
X148439200Y-112355093D01*
X148439200Y-112497950D01*
X148486820Y-112640807D01*
X148582058Y-112736045D01*
X148677296Y-112783664D01*
X148867772Y-112831283D01*
X149010629Y-112831283D01*
X149201105Y-112783664D01*
X149296343Y-112736045D01*
X149391581Y-112640807D01*
X149439200Y-112497950D01*
X149439200Y-112402712D01*
X149391581Y-112259855D01*
X149343962Y-112212236D01*
X149010629Y-112212236D01*
X149010629Y-112402712D01*
X149439200Y-111783664D02*
X148439200Y-111783664D01*
X149439200Y-111212236D01*
X148439200Y-111212236D01*
X149439200Y-110736045D02*
X148439200Y-110736045D01*
X148439200Y-110497950D01*
X148486820Y-110355093D01*
X148582058Y-110259855D01*
X148677296Y-110212236D01*
X148867772Y-110164617D01*
X149010629Y-110164617D01*
X149201105Y-110212236D01*
X149296343Y-110259855D01*
X149391581Y-110355093D01*
X149439200Y-110497950D01*
X149439200Y-110736045D01*
D11*
X102829523Y-67743095D02*
X104079523Y-67743095D01*
X103484285Y-67743095D02*
X103484285Y-68457380D01*
X102829523Y-68457380D02*
X104079523Y-68457380D01*
X103484285Y-69052619D02*
X103484285Y-69469285D01*
X102829523Y-69647857D02*
X102829523Y-69052619D01*
X104079523Y-69052619D01*
X104079523Y-69647857D01*
X103186666Y-70124047D02*
X103186666Y-70719285D01*
X102829523Y-70005000D02*
X104079523Y-70421666D01*
X102829523Y-70838333D01*
X104079523Y-71076428D02*
X104079523Y-71790714D01*
X102829523Y-71433571D02*
X104079523Y-71433571D01*
X103484285Y-72207380D02*
X103484285Y-72624047D01*
X102829523Y-72802619D02*
X102829523Y-72207380D01*
X104079523Y-72207380D01*
X104079523Y-72802619D01*
X102829523Y-74052619D02*
X103424761Y-73635952D01*
X102829523Y-73338333D02*
X104079523Y-73338333D01*
X104079523Y-73814523D01*
X104020000Y-73933571D01*
X103960476Y-73993095D01*
X103841428Y-74052619D01*
X103662857Y-74052619D01*
X103543809Y-73993095D01*
X103484285Y-73933571D01*
X103424761Y-73814523D01*
X103424761Y-73338333D01*
X104079523Y-75778809D02*
X104079523Y-76016904D01*
X104020000Y-76135952D01*
X103900952Y-76255000D01*
X103662857Y-76314523D01*
X103246190Y-76314523D01*
X103008095Y-76255000D01*
X102889047Y-76135952D01*
X102829523Y-76016904D01*
X102829523Y-75778809D01*
X102889047Y-75659761D01*
X103008095Y-75540714D01*
X103246190Y-75481190D01*
X103662857Y-75481190D01*
X103900952Y-75540714D01*
X104020000Y-75659761D01*
X104079523Y-75778809D01*
X104079523Y-76850238D02*
X103067619Y-76850238D01*
X102948571Y-76909761D01*
X102889047Y-76969285D01*
X102829523Y-77088333D01*
X102829523Y-77326428D01*
X102889047Y-77445476D01*
X102948571Y-77505000D01*
X103067619Y-77564523D01*
X104079523Y-77564523D01*
X104079523Y-77981190D02*
X104079523Y-78695476D01*
X102829523Y-78338333D02*
X104079523Y-78338333D01*
X103186666Y-110783809D02*
X103186666Y-111379047D01*
X102829523Y-110664761D02*
X104079523Y-111081428D01*
X102829523Y-111498095D01*
X102948571Y-112629047D02*
X102889047Y-112569523D01*
X102829523Y-112390952D01*
X102829523Y-112271904D01*
X102889047Y-112093333D01*
X103008095Y-111974285D01*
X103127142Y-111914761D01*
X103365238Y-111855238D01*
X103543809Y-111855238D01*
X103781904Y-111914761D01*
X103900952Y-111974285D01*
X104020000Y-112093333D01*
X104079523Y-112271904D01*
X104079523Y-112390952D01*
X104020000Y-112569523D01*
X103960476Y-112629047D01*
X102829523Y-114117142D02*
X104079523Y-114117142D01*
X102829523Y-114712380D02*
X104079523Y-114712380D01*
X102829523Y-115426666D01*
X104079523Y-115426666D01*
D12*
X193222391Y-99734974D02*
X194222391Y-99734974D01*
X193365248Y-99734974D02*
X193293820Y-99663545D01*
X193222391Y-99520688D01*
X193222391Y-99306402D01*
X193293820Y-99163545D01*
X193436677Y-99092117D01*
X194222391Y-99092117D01*
X194222391Y-97734974D02*
X193436677Y-97734974D01*
X193293820Y-97806402D01*
X193222391Y-97949260D01*
X193222391Y-98234974D01*
X193293820Y-98377831D01*
X194150962Y-97734974D02*
X194222391Y-97877831D01*
X194222391Y-98234974D01*
X194150962Y-98377831D01*
X194008105Y-98449260D01*
X193865248Y-98449260D01*
X193722391Y-98377831D01*
X193650962Y-98234974D01*
X193650962Y-97877831D01*
X193579534Y-97734974D01*
X193222391Y-97020688D02*
X194222391Y-97020688D01*
X193365248Y-97020688D02*
X193293820Y-96949260D01*
X193222391Y-96806402D01*
X193222391Y-96592117D01*
X193293820Y-96449260D01*
X193436677Y-96377831D01*
X194222391Y-96377831D01*
X194222391Y-95449260D02*
X194150962Y-95592117D01*
X194079534Y-95663545D01*
X193936677Y-95734974D01*
X193508105Y-95734974D01*
X193365248Y-95663545D01*
X193293820Y-95592117D01*
X193222391Y-95449260D01*
X193222391Y-95234974D01*
X193293820Y-95092117D01*
X193365248Y-95020688D01*
X193508105Y-94949260D01*
X193936677Y-94949260D01*
X194079534Y-95020688D01*
X194150962Y-95092117D01*
X194222391Y-95234974D01*
X194222391Y-95449260D01*
X194222391Y-93449260D02*
X193508105Y-93949260D01*
X194222391Y-94306402D02*
X192722391Y-94306402D01*
X192722391Y-93734974D01*
X192793820Y-93592117D01*
X192865248Y-93520688D01*
X193008105Y-93449260D01*
X193222391Y-93449260D01*
X193365248Y-93520688D01*
X193436677Y-93592117D01*
X193508105Y-93734974D01*
X193508105Y-94306402D01*
X194150962Y-92234974D02*
X194222391Y-92377831D01*
X194222391Y-92663545D01*
X194150962Y-92806402D01*
X194008105Y-92877831D01*
X193436677Y-92877831D01*
X193293820Y-92806402D01*
X193222391Y-92663545D01*
X193222391Y-92377831D01*
X193293820Y-92234974D01*
X193436677Y-92163545D01*
X193579534Y-92163545D01*
X193722391Y-92877831D01*
X193222391Y-91734974D02*
X193222391Y-91163545D01*
X194222391Y-91520688D02*
X192936677Y-91520688D01*
X192793820Y-91449260D01*
X192722391Y-91306402D01*
X192722391Y-91163545D01*
X194222391Y-90449260D02*
X194150962Y-90592117D01*
X194008105Y-90663545D01*
X192722391Y-90663545D01*
X194222391Y-89663545D02*
X194150962Y-89806402D01*
X194079534Y-89877831D01*
X193936677Y-89949260D01*
X193508105Y-89949260D01*
X193365248Y-89877831D01*
X193293820Y-89806402D01*
X193222391Y-89663545D01*
X193222391Y-89449260D01*
X193293820Y-89306402D01*
X193365248Y-89234974D01*
X193508105Y-89163545D01*
X193936677Y-89163545D01*
X194079534Y-89234974D01*
X194150962Y-89306402D01*
X194222391Y-89449260D01*
X194222391Y-89663545D01*
X193222391Y-88663545D02*
X194222391Y-88377831D01*
X193508105Y-88092117D01*
X194222391Y-87806402D01*
X193222391Y-87520688D01*
X195772391Y-98806402D02*
X196772391Y-98449260D01*
X195772391Y-98092117D01*
X196772391Y-96734974D02*
X196772391Y-97592117D01*
X196772391Y-97163545D02*
X195272391Y-97163545D01*
X195486677Y-97306402D01*
X195629534Y-97449260D01*
X195700962Y-97592117D01*
X196629534Y-96092117D02*
X196700962Y-96020688D01*
X196772391Y-96092117D01*
X196700962Y-96163545D01*
X196629534Y-96092117D01*
X196772391Y-96092117D01*
X195272391Y-95092117D02*
X195272391Y-94949260D01*
X195343820Y-94806402D01*
X195415248Y-94734974D01*
X195558105Y-94663545D01*
X195843820Y-94592117D01*
X196200962Y-94592117D01*
X196486677Y-94663545D01*
X196629534Y-94734974D01*
X196700962Y-94806402D01*
X196772391Y-94949260D01*
X196772391Y-95092117D01*
X196700962Y-95234974D01*
X196629534Y-95306402D01*
X196486677Y-95377831D01*
X196200962Y-95449260D01*
X195843820Y-95449260D01*
X195558105Y-95377831D01*
X195415248Y-95306402D01*
X195343820Y-95234974D01*
X195272391Y-95092117D01*
X196915248Y-94306402D02*
X196915248Y-93163545D01*
X196772391Y-92806402D02*
X195772391Y-92806402D01*
X196058105Y-92806402D02*
X195915248Y-92734974D01*
X195843820Y-92663545D01*
X195772391Y-92520688D01*
X195772391Y-92377831D01*
X196700962Y-91306402D02*
X196772391Y-91449260D01*
X196772391Y-91734974D01*
X196700962Y-91877831D01*
X196558105Y-91949260D01*
X195986677Y-91949260D01*
X195843820Y-91877831D01*
X195772391Y-91734974D01*
X195772391Y-91449260D01*
X195843820Y-91306402D01*
X195986677Y-91234974D01*
X196129534Y-91234974D01*
X196272391Y-91949260D01*
X195772391Y-90734974D02*
X196772391Y-90377831D01*
X195772391Y-90020688D01*
X195272391Y-89592117D02*
X195272391Y-88663545D01*
X195843820Y-89163545D01*
X195843820Y-88949260D01*
X195915248Y-88806402D01*
X195986677Y-88734974D01*
X196129534Y-88663545D01*
X196486677Y-88663545D01*
X196629534Y-88734974D01*
X196700962Y-88806402D01*
X196772391Y-88949260D01*
X196772391Y-89377831D01*
X196700962Y-89520688D01*
X196629534Y-89592117D01*
D13*
X119540180Y-79441376D02*
X119324036Y-79462991D01*
X123637824Y-79160749D02*
X119540180Y-79441376D01*
X123789125Y-79139135D02*
X123637824Y-79160749D01*
X123940426Y-79030702D02*
X123789125Y-79139135D01*
X124048498Y-78901016D02*
X123940426Y-79030702D01*
X124113341Y-78750075D02*
X124048498Y-78901016D01*
X124113341Y-78404245D02*
X124113341Y-78750075D01*
X124048498Y-78252584D02*
X124113341Y-78404245D01*
X123940426Y-78122897D02*
X124048498Y-78252584D01*
X123789125Y-78015186D02*
X123940426Y-78122897D01*
X123616210Y-77993571D02*
X123789125Y-78015186D01*
X118567532Y-77993571D02*
X123616210Y-77993571D01*
X116752422Y-77993571D02*
X118567532Y-77993571D01*
X108063430Y-77993571D02*
X116752422Y-77993571D01*
X107890515Y-78015186D02*
X108063430Y-77993571D01*
X107739214Y-78122897D02*
X107890515Y-78015186D01*
X107631142Y-78252584D02*
X107739214Y-78122897D01*
X107566299Y-78404245D02*
X107631142Y-78252584D01*
X107566299Y-78750075D02*
X107566299Y-78404245D01*
X107631142Y-78901016D02*
X107566299Y-78750075D01*
X107739214Y-79030702D02*
X107631142Y-78901016D01*
X107890515Y-79139135D02*
X107739214Y-79030702D01*
X108041816Y-79160749D02*
X107890515Y-79139135D01*
X115779774Y-79441376D02*
X108041816Y-79160749D01*
X115995918Y-79462991D02*
X115779774Y-79441376D01*
X116212062Y-79571063D02*
X115995918Y-79462991D01*
X116428206Y-79701110D02*
X116212062Y-79571063D01*
X116579507Y-79895279D02*
X116428206Y-79701110D01*
X116687579Y-80090169D02*
X116579507Y-79895279D01*
X116730808Y-80327927D02*
X116687579Y-80090169D01*
X116730808Y-80587300D02*
X116730808Y-80327927D01*
X116687579Y-80825059D02*
X116730808Y-80587300D01*
X116579507Y-81019228D02*
X116687579Y-80825059D01*
X116428206Y-81214118D02*
X116579507Y-81019228D01*
X116212062Y-81343805D02*
X116428206Y-81214118D01*
X115995918Y-81451877D02*
X116212062Y-81343805D01*
X115779774Y-81473491D02*
X115995918Y-81451877D01*
X108041816Y-81754478D02*
X115779774Y-81473491D01*
X107890515Y-81776093D02*
X108041816Y-81754478D01*
X107739214Y-81884165D02*
X107890515Y-81776093D01*
X107631142Y-82013851D02*
X107739214Y-81884165D01*
X107566299Y-82164792D02*
X107631142Y-82013851D01*
X107566299Y-82359682D02*
X107566299Y-82164792D01*
X107631142Y-82510983D02*
X107566299Y-82359682D01*
X107739214Y-82640309D02*
X107631142Y-82510983D01*
X107890515Y-82748741D02*
X107739214Y-82640309D01*
X108041816Y-82769995D02*
X107890515Y-82748741D01*
X115779774Y-83051342D02*
X108041816Y-82769995D01*
X115995918Y-83072957D02*
X115779774Y-83051342D01*
X116212062Y-83159054D02*
X115995918Y-83072957D01*
X116428206Y-83310355D02*
X116212062Y-83159054D01*
X116579507Y-83483630D02*
X116428206Y-83310355D01*
X116687579Y-83699414D02*
X116579507Y-83483630D01*
X116730808Y-83937533D02*
X116687579Y-83699414D01*
X116730808Y-84175291D02*
X116730808Y-83937533D01*
X116687579Y-84391075D02*
X116730808Y-84175291D01*
X116579507Y-84629194D02*
X116687579Y-84391075D01*
X116428206Y-84823363D02*
X116579507Y-84629194D01*
X116212062Y-84953410D02*
X116428206Y-84823363D01*
X115995918Y-85039868D02*
X116212062Y-84953410D01*
X115779774Y-85083097D02*
X115995918Y-85039868D01*
X108041816Y-85342109D02*
X115779774Y-85083097D01*
X107890515Y-85385338D02*
X108041816Y-85342109D01*
X107739214Y-85471796D02*
X107890515Y-85385338D01*
X107631142Y-85601482D02*
X107739214Y-85471796D01*
X107566299Y-85774758D02*
X107631142Y-85601482D01*
X107566299Y-85925698D02*
X107566299Y-85774758D01*
X107631142Y-86120588D02*
X107566299Y-85925698D01*
X107739214Y-86250274D02*
X107631142Y-86120588D01*
X108041816Y-86379601D02*
X107739214Y-86250274D01*
X116752422Y-86682202D02*
X108041816Y-86379601D01*
X116752422Y-92799260D02*
X116752422Y-86682202D01*
X116752422Y-98916317D02*
X116752422Y-92799260D01*
X108041816Y-99218919D02*
X116752422Y-98916317D01*
X107739214Y-99348245D02*
X108041816Y-99218919D01*
X107631142Y-99477932D02*
X107739214Y-99348245D01*
X107566299Y-99672822D02*
X107631142Y-99477932D01*
X107566299Y-99823762D02*
X107566299Y-99672822D01*
X107631142Y-99997038D02*
X107566299Y-99823762D01*
X107739214Y-100126724D02*
X107631142Y-99997038D01*
X107890515Y-100213182D02*
X107739214Y-100126724D01*
X108041816Y-100256411D02*
X107890515Y-100213182D01*
X115779774Y-100515423D02*
X108041816Y-100256411D01*
X115995918Y-100558652D02*
X115779774Y-100515423D01*
X116212062Y-100645110D02*
X115995918Y-100558652D01*
X116428206Y-100775157D02*
X116212062Y-100645110D01*
X116579507Y-100969326D02*
X116428206Y-100775157D01*
X116687579Y-101207445D02*
X116579507Y-100969326D01*
X116730808Y-101423229D02*
X116687579Y-101207445D01*
X116730808Y-101660987D02*
X116730808Y-101423229D01*
X116687579Y-101899106D02*
X116730808Y-101660987D01*
X116579507Y-102114890D02*
X116687579Y-101899106D01*
X116428206Y-102288165D02*
X116579507Y-102114890D01*
X116212062Y-102439466D02*
X116428206Y-102288165D01*
X115995918Y-102525563D02*
X116212062Y-102439466D01*
X115779774Y-102547178D02*
X115995918Y-102525563D01*
X108041816Y-102828525D02*
X115779774Y-102547178D01*
X107890515Y-102849779D02*
X108041816Y-102828525D01*
X107739214Y-102958211D02*
X107890515Y-102849779D01*
X107631142Y-103087537D02*
X107739214Y-102958211D01*
X107566299Y-103238838D02*
X107631142Y-103087537D01*
X107566299Y-103433728D02*
X107566299Y-103238838D01*
X107631142Y-103584668D02*
X107566299Y-103433728D01*
X107739214Y-103714355D02*
X107631142Y-103584668D01*
X107890515Y-103822427D02*
X107739214Y-103714355D01*
X108041816Y-103844042D02*
X107890515Y-103822427D01*
X115779774Y-104125029D02*
X108041816Y-103844042D01*
X115995918Y-104146643D02*
X115779774Y-104125029D01*
X116212062Y-104254715D02*
X115995918Y-104146643D01*
X116428206Y-104384402D02*
X116212062Y-104254715D01*
X116579507Y-104579291D02*
X116428206Y-104384402D01*
X116687579Y-104773461D02*
X116579507Y-104579291D01*
X116730808Y-105011219D02*
X116687579Y-104773461D01*
X116730808Y-105270593D02*
X116730808Y-105011219D01*
X116687579Y-105508351D02*
X116730808Y-105270593D01*
X116579507Y-105703241D02*
X116687579Y-105508351D01*
X116428206Y-105897410D02*
X116579507Y-105703241D01*
X116212062Y-106027457D02*
X116428206Y-105897410D01*
X115995918Y-106135529D02*
X116212062Y-106027457D01*
X115779774Y-106157144D02*
X115995918Y-106135529D01*
X108041816Y-106437771D02*
X115779774Y-106157144D01*
X107890515Y-106459385D02*
X108041816Y-106437771D01*
X107739214Y-106567818D02*
X107890515Y-106459385D01*
X107631142Y-106697504D02*
X107739214Y-106567818D01*
X107566299Y-106848445D02*
X107631142Y-106697504D01*
X107566299Y-107194275D02*
X107566299Y-106848445D01*
X107631142Y-107345936D02*
X107566299Y-107194275D01*
X107739214Y-107475623D02*
X107631142Y-107345936D01*
X107890515Y-107583334D02*
X107739214Y-107475623D01*
X108063430Y-107604949D02*
X107890515Y-107583334D01*
X116752422Y-107604949D02*
X108063430Y-107604949D01*
X118567532Y-107604949D02*
X116752422Y-107604949D01*
X123616210Y-107604949D02*
X118567532Y-107604949D01*
X123789125Y-107583334D02*
X123616210Y-107604949D01*
X123940426Y-107475623D02*
X123789125Y-107583334D01*
X124048498Y-107345936D02*
X123940426Y-107475623D01*
X124113341Y-107194275D02*
X124048498Y-107345936D01*
X124113341Y-106848445D02*
X124113341Y-107194275D01*
X124048498Y-106697504D02*
X124113341Y-106848445D01*
X123940426Y-106567818D02*
X124048498Y-106697504D01*
X123789125Y-106459385D02*
X123940426Y-106567818D01*
X123637824Y-106437771D02*
X123789125Y-106459385D01*
X119540180Y-106157144D02*
X123637824Y-106437771D01*
X119324036Y-106135529D02*
X119540180Y-106157144D01*
X119107892Y-106027457D02*
X119324036Y-106135529D01*
X118891748Y-105897410D02*
X119107892Y-106027457D01*
X118740447Y-105703241D02*
X118891748Y-105897410D01*
X118632375Y-105508351D02*
X118740447Y-105703241D01*
X118589147Y-105270593D02*
X118632375Y-105508351D01*
X118589147Y-105011219D02*
X118589147Y-105270593D01*
X118632375Y-104773461D02*
X118589147Y-105011219D01*
X118740447Y-104579291D02*
X118632375Y-104773461D01*
X118891748Y-104384402D02*
X118740447Y-104579291D01*
X119107892Y-104254715D02*
X118891748Y-104384402D01*
X119324036Y-104146643D02*
X119107892Y-104254715D01*
X119540180Y-104125029D02*
X119324036Y-104146643D01*
X123637824Y-103844042D02*
X119540180Y-104125029D01*
X123789125Y-103822427D02*
X123637824Y-103844042D01*
X123940426Y-103714355D02*
X123789125Y-103822427D01*
X124048498Y-103584668D02*
X123940426Y-103714355D01*
X124113341Y-103433728D02*
X124048498Y-103584668D01*
X124113341Y-103238838D02*
X124113341Y-103433728D01*
X124048498Y-103087537D02*
X124113341Y-103238838D01*
X123940426Y-102958211D02*
X124048498Y-103087537D01*
X123789125Y-102849779D02*
X123940426Y-102958211D01*
X123637824Y-102828525D02*
X123789125Y-102849779D01*
X119540180Y-102547178D02*
X123637824Y-102828525D01*
X119324036Y-102525563D02*
X119540180Y-102547178D01*
X119107892Y-102439466D02*
X119324036Y-102525563D01*
X118891748Y-102288165D02*
X119107892Y-102439466D01*
X118740447Y-102114890D02*
X118891748Y-102288165D01*
X118632375Y-101899106D02*
X118740447Y-102114890D01*
X118589147Y-101660987D02*
X118632375Y-101899106D01*
X118589147Y-101423229D02*
X118589147Y-101660987D01*
X118632375Y-101207445D02*
X118589147Y-101423229D01*
X118740447Y-100969326D02*
X118632375Y-101207445D01*
X118891748Y-100775157D02*
X118740447Y-100969326D01*
X119107892Y-100645110D02*
X118891748Y-100775157D01*
X119324036Y-100558652D02*
X119107892Y-100645110D01*
X119540180Y-100515423D02*
X119324036Y-100558652D01*
X123637824Y-100256411D02*
X119540180Y-100515423D01*
X123789125Y-100213182D02*
X123637824Y-100256411D01*
X123940426Y-100126724D02*
X123789125Y-100213182D01*
X124048498Y-99997038D02*
X123940426Y-100126724D01*
X124113341Y-99823762D02*
X124048498Y-99997038D01*
X124113341Y-99672822D02*
X124113341Y-99823762D01*
X124048498Y-99477932D02*
X124113341Y-99672822D01*
X123940426Y-99348245D02*
X124048498Y-99477932D01*
X123637824Y-99218919D02*
X123940426Y-99348245D01*
X118567532Y-98916317D02*
X123637824Y-99218919D01*
X118567532Y-92799260D02*
X118567532Y-98916317D01*
X118567532Y-86682202D02*
X118567532Y-92799260D01*
X123637824Y-86379601D02*
X118567532Y-86682202D01*
X123940426Y-86250274D02*
X123637824Y-86379601D01*
X124048498Y-86120588D02*
X123940426Y-86250274D01*
X124113341Y-85925698D02*
X124048498Y-86120588D01*
X124113341Y-85774758D02*
X124113341Y-85925698D01*
X124048498Y-85601482D02*
X124113341Y-85774758D01*
X123940426Y-85471796D02*
X124048498Y-85601482D01*
X123789125Y-85385338D02*
X123940426Y-85471796D01*
X123637824Y-85342109D02*
X123789125Y-85385338D01*
X119540180Y-85083097D02*
X123637824Y-85342109D01*
X119324036Y-85039868D02*
X119540180Y-85083097D01*
X119107892Y-84953410D02*
X119324036Y-85039868D01*
X118891748Y-84823363D02*
X119107892Y-84953410D01*
X118740447Y-84629194D02*
X118891748Y-84823363D01*
X118632375Y-84391075D02*
X118740447Y-84629194D01*
X118589147Y-84175291D02*
X118632375Y-84391075D01*
X118589147Y-83937533D02*
X118589147Y-84175291D01*
X118632375Y-83699414D02*
X118589147Y-83937533D01*
X118740447Y-83483630D02*
X118632375Y-83699414D01*
X118891748Y-83310355D02*
X118740447Y-83483630D01*
X119107892Y-83159054D02*
X118891748Y-83310355D01*
X119324036Y-83072957D02*
X119107892Y-83159054D01*
X119540180Y-83051342D02*
X119324036Y-83072957D01*
X123637824Y-82769995D02*
X119540180Y-83051342D01*
X123789125Y-82748741D02*
X123637824Y-82769995D01*
X123940426Y-82640309D02*
X123789125Y-82748741D01*
X124048498Y-82510983D02*
X123940426Y-82640309D01*
X124113341Y-82359682D02*
X124048498Y-82510983D01*
X124113341Y-82164792D02*
X124113341Y-82359682D01*
X124048498Y-82013851D02*
X124113341Y-82164792D01*
X123940426Y-81884165D02*
X124048498Y-82013851D01*
X123789125Y-81776093D02*
X123940426Y-81884165D01*
X123637824Y-81754478D02*
X123789125Y-81776093D01*
X119540180Y-81473491D02*
X123637824Y-81754478D01*
X119324036Y-81451877D02*
X119540180Y-81473491D01*
X119107892Y-81343805D02*
X119324036Y-81451877D01*
X118891748Y-81214118D02*
X119107892Y-81343805D01*
X118740447Y-81019228D02*
X118891748Y-81214118D01*
X118632375Y-80825059D02*
X118740447Y-81019228D01*
X118589147Y-80587300D02*
X118632375Y-80825059D01*
X118589147Y-80327927D02*
X118589147Y-80587300D01*
X118632375Y-80090169D02*
X118589147Y-80327927D01*
X118740447Y-79895279D02*
X118632375Y-80090169D01*
X118891748Y-79701110D02*
X118740447Y-79895279D01*
X119107892Y-79571063D02*
X118891748Y-79701110D01*
X119324036Y-79462991D02*
X119107892Y-79571063D01*
D14*
X180298820Y-63199260D02*
G75*
G03*
X180298820Y-63199260I-1680000J0D01*
G01*
X186178820Y-59099260D02*
X176058820Y-59099260D01*
X186178820Y-60599260D02*
X176058820Y-60599260D01*
X186178820Y-65500260D02*
X176058820Y-65500260D01*
X186178820Y-68460260D02*
X176058820Y-68460260D01*
X186178820Y-58539260D02*
X176058820Y-58539260D01*
X186178820Y-68460260D02*
X186178820Y-58539260D01*
X176058820Y-68460260D02*
X176058820Y-58539260D01*
X177343820Y-64268260D02*
X177390820Y-64222260D01*
X179652820Y-61960260D02*
X179687820Y-61925260D01*
X177548820Y-64474260D02*
X177583820Y-64438260D01*
X179845820Y-62176260D02*
X179892820Y-62130260D01*
X186418820Y-59039260D02*
X186418820Y-58299260D01*
X186418820Y-58299260D02*
X185918820Y-58299260D01*
X183590015Y-61519007D02*
G75*
G02*
X184302820Y-61664260I28805J-1680253D01*
G01*
X185154246Y-62516218D02*
G75*
G02*
X185153820Y-63883260I-1535426J-683042D01*
G01*
X184301862Y-64734686D02*
G75*
G02*
X182934820Y-64734260I-683042J1535426D01*
G01*
X182083394Y-63882302D02*
G75*
G02*
X182083820Y-62515260I1535426J683042D01*
G01*
X182935502Y-61664504D02*
G75*
G02*
X183618820Y-61519260I683318J-1534756D01*
G01*
X143928820Y-85059260D02*
X143928820Y-103099260D01*
X187368820Y-85059260D02*
X143928820Y-85059260D01*
X187368820Y-103099260D02*
X187368820Y-85059260D01*
X184698820Y-100429260D02*
X184698820Y-103099260D01*
X149138820Y-100429260D02*
X184698820Y-100429260D01*
X149138820Y-100429260D02*
X149138820Y-103099260D01*
X184698820Y-87729260D02*
X184698820Y-85059260D01*
X146598820Y-87729260D02*
X184698820Y-87729260D01*
X146598820Y-87729260D02*
X146598820Y-85059260D01*
X143928820Y-103099260D02*
X146598820Y-103099260D01*
X149138820Y-103099260D02*
X187368820Y-103099260D01*
X146598820Y-100429260D02*
X146598820Y-103099260D01*
X149138820Y-100429260D02*
X146598820Y-100429260D01*
X176688820Y-71799260D02*
X179098820Y-71799260D01*
X176688820Y-71799260D02*
G75*
G03*
X176688820Y-71799260I-1470000J0D01*
G01*
X123930000Y-88695000D02*
X123915000Y-88695000D01*
X126055000Y-88695000D02*
X126040000Y-88695000D01*
X123930000Y-84155000D02*
X123915000Y-84155000D01*
X126055000Y-84155000D02*
X126040000Y-84155000D01*
X123915000Y-84155000D02*
X123915000Y-88695000D01*
X126055000Y-84155000D02*
X126055000Y-88695000D01*
X131998820Y-94119260D02*
X131998820Y-93789260D01*
X125458820Y-94119260D02*
X131998820Y-94119260D01*
X125458820Y-93789260D02*
X125458820Y-94119260D01*
X131998820Y-91379260D02*
X131998820Y-91709260D01*
X125458820Y-91379260D02*
X131998820Y-91379260D01*
X125458820Y-91709260D02*
X125458820Y-91379260D01*
X123615000Y-103705000D02*
X123945000Y-103705000D01*
X123615000Y-97165000D02*
X123615000Y-103705000D01*
X123945000Y-97165000D02*
X123615000Y-97165000D01*
X126355000Y-103705000D02*
X126025000Y-103705000D01*
X126355000Y-97165000D02*
X126355000Y-103705000D01*
X126025000Y-97165000D02*
X126355000Y-97165000D01*
X136158820Y-92875000D02*
X137808820Y-92875000D01*
X136158820Y-85135000D02*
X136158820Y-92875000D01*
X141458820Y-85135000D02*
X136158820Y-85135000D01*
X141458820Y-92875000D02*
X141458820Y-85135000D01*
X139808820Y-92875000D02*
X141458820Y-92875000D01*
X137808820Y-92875000D02*
G75*
G02*
X139808820Y-92875000I1000000J0D01*
G01*
X141478820Y-95319260D02*
X139828820Y-95319260D01*
X141478820Y-103059260D02*
X141478820Y-95319260D01*
X136178820Y-103059260D02*
X141478820Y-103059260D01*
X136178820Y-95319260D02*
X136178820Y-103059260D01*
X137828820Y-95319260D02*
X136178820Y-95319260D01*
X139828820Y-95319260D02*
G75*
G02*
X137828820Y-95319260I-1000000J0D01*
G01*
X118093820Y-94650260D02*
X116583820Y-94650260D01*
X118093820Y-90949260D02*
X116583820Y-90949260D01*
X116583820Y-87679260D02*
X116583820Y-97919260D01*
X118093820Y-97919260D02*
X113452820Y-97919260D01*
X118093820Y-87679260D02*
X113452820Y-87679260D01*
X113452820Y-87679260D02*
X113452820Y-97919260D01*
X118093820Y-87679260D02*
X118093820Y-97919260D01*
X155931041Y-106184260D02*
X156256599Y-106184260D01*
X155931041Y-105164260D02*
X156256599Y-105164260D01*
X189009820Y-70329260D02*
X189009820Y-71839260D01*
X185308820Y-70329260D02*
X185308820Y-71839260D01*
X182038820Y-71839260D02*
X192278820Y-71839260D01*
X192278820Y-70329260D02*
X192278820Y-74970260D01*
X182038820Y-70329260D02*
X182038820Y-74970260D01*
X182038820Y-74970260D02*
X192278820Y-74970260D01*
X182038820Y-70329260D02*
X192278820Y-70329260D01*
X129530000Y-97165000D02*
X129200000Y-97165000D01*
X129530000Y-103705000D02*
X129530000Y-97165000D01*
X129200000Y-103705000D02*
X129530000Y-103705000D01*
X126790000Y-97165000D02*
X127120000Y-97165000D01*
X126790000Y-103705000D02*
X126790000Y-97165000D01*
X127120000Y-103705000D02*
X126790000Y-103705000D01*
X132705000Y-99705000D02*
X132375000Y-99705000D01*
X132705000Y-106245000D02*
X132705000Y-99705000D01*
X132375000Y-106245000D02*
X132705000Y-106245000D01*
X129965000Y-99705000D02*
X130295000Y-99705000D01*
X129965000Y-106245000D02*
X129965000Y-99705000D01*
X130295000Y-106245000D02*
X129965000Y-106245000D01*
X163470000Y-76950000D02*
G75*
G03*
X163470000Y-76950000I-6100000J0D01*
G01*
X182760242Y-83784260D02*
X183277398Y-83784260D01*
X182760242Y-82364260D02*
X183277398Y-82364260D01*
X176378820Y-77901324D02*
X176378820Y-76697196D01*
X173658820Y-77901324D02*
X173658820Y-76697196D01*
X183420884Y-75839260D02*
X182216756Y-75839260D01*
X183420884Y-78559260D02*
X182216756Y-78559260D01*
X179535000Y-110020000D02*
X179535000Y-108690000D01*
X180865000Y-110020000D02*
X179535000Y-110020000D01*
X182135000Y-110020000D02*
X182135000Y-107360000D01*
X182135000Y-107360000D02*
X192355000Y-107360000D01*
X182135000Y-110020000D02*
X192355000Y-110020000D01*
X192355000Y-110020000D02*
X192355000Y-107360000D01*
X191085000Y-113710000D02*
X191085000Y-115040000D01*
X189755000Y-113710000D02*
X191085000Y-113710000D01*
X188485000Y-113710000D02*
X188485000Y-116370000D01*
X188485000Y-116370000D02*
X147785000Y-116370000D01*
X188485000Y-113710000D02*
X147785000Y-113710000D01*
X147785000Y-113710000D02*
X147785000Y-116370000D01*
X106093820Y-107024260D02*
X106093820Y-107524260D01*
X106833820Y-107024260D02*
X106093820Y-107024260D01*
X109970820Y-113597260D02*
X109924820Y-113550260D01*
X112268820Y-115894260D02*
X112232820Y-115859260D01*
X109754820Y-113790260D02*
X109719820Y-113755260D01*
X112062820Y-116099260D02*
X112016820Y-116052260D01*
X116254820Y-117384260D02*
X106333820Y-117384260D01*
X116254820Y-107264260D02*
X106333820Y-107264260D01*
X106333820Y-107264260D02*
X106333820Y-117384260D01*
X116254820Y-107264260D02*
X116254820Y-117384260D01*
X113294820Y-107264260D02*
X113294820Y-117384260D01*
X108393820Y-107264260D02*
X108393820Y-117384260D01*
X106893820Y-107264260D02*
X106893820Y-117384260D01*
X112673820Y-114824260D02*
G75*
G03*
X112673820Y-114824260I-1680000J0D01*
G01*
X109313567Y-109853065D02*
G75*
G02*
X109458820Y-109140260I1680253J28805D01*
G01*
X110310778Y-108288834D02*
G75*
G02*
X111677820Y-108289260I683042J-1535426D01*
G01*
X112529246Y-109141218D02*
G75*
G02*
X112528820Y-110508260I-1535426J-683042D01*
G01*
X111676862Y-111359686D02*
G75*
G02*
X110309820Y-111359260I-683042J1535426D01*
G01*
X109459064Y-110507578D02*
G75*
G02*
X109313820Y-109824260I1534756J683318D01*
G01*
X106193820Y-68374260D02*
X106193820Y-68874260D01*
X106933820Y-68374260D02*
X106193820Y-68374260D01*
X110070820Y-74947260D02*
X110024820Y-74900260D01*
X112368820Y-77244260D02*
X112332820Y-77209260D01*
X109854820Y-75140260D02*
X109819820Y-75105260D01*
X112162820Y-77449260D02*
X112116820Y-77402260D01*
X116354820Y-78734260D02*
X106433820Y-78734260D01*
X116354820Y-68614260D02*
X106433820Y-68614260D01*
X106433820Y-68614260D02*
X106433820Y-78734260D01*
X116354820Y-68614260D02*
X116354820Y-78734260D01*
X113394820Y-68614260D02*
X113394820Y-78734260D01*
X108493820Y-68614260D02*
X108493820Y-78734260D01*
X106993820Y-68614260D02*
X106993820Y-78734260D01*
X112773820Y-76174260D02*
G75*
G03*
X112773820Y-76174260I-1680000J0D01*
G01*
X109413567Y-71203065D02*
G75*
G02*
X109558820Y-70490260I1680253J28805D01*
G01*
X110410778Y-69638834D02*
G75*
G02*
X111777820Y-69639260I683042J-1535426D01*
G01*
X112629246Y-70491218D02*
G75*
G02*
X112628820Y-71858260I-1535426J-683042D01*
G01*
X111776862Y-72709686D02*
G75*
G02*
X110409820Y-72709260I-683042J1535426D01*
G01*
X109559064Y-71857578D02*
G75*
G02*
X109413820Y-71174260I1534756J683318D01*
G01*
X153518820Y-58299260D02*
X153018820Y-58299260D01*
X153518820Y-59039260D02*
X153518820Y-58299260D01*
X146945820Y-62176260D02*
X146992820Y-62130260D01*
X144648820Y-64474260D02*
X144683820Y-64438260D01*
X146752820Y-61960260D02*
X146787820Y-61925260D01*
X144443820Y-64268260D02*
X144490820Y-64222260D01*
X143158820Y-68460260D02*
X143158820Y-58539260D01*
X153278820Y-68460260D02*
X153278820Y-58539260D01*
X153278820Y-58539260D02*
X143158820Y-58539260D01*
X153278820Y-68460260D02*
X143158820Y-68460260D01*
X153278820Y-65500260D02*
X143158820Y-65500260D01*
X153278820Y-60599260D02*
X143158820Y-60599260D01*
X153278820Y-59099260D02*
X143158820Y-59099260D01*
X147398820Y-63199260D02*
G75*
G03*
X147398820Y-63199260I-1680000J0D01*
G01*
X150690015Y-61519007D02*
G75*
G02*
X151402820Y-61664260I28805J-1680253D01*
G01*
X152254246Y-62516218D02*
G75*
G02*
X152253820Y-63883260I-1535426J-683042D01*
G01*
X151401862Y-64734686D02*
G75*
G02*
X150034820Y-64734260I-683042J1535426D01*
G01*
X149183394Y-63882302D02*
G75*
G02*
X149183820Y-62515260I1535426J683042D01*
G01*
X150035502Y-61664504D02*
G75*
G02*
X150718820Y-61519260I683318J-1534756D01*
G01*
X149175000Y-82715000D02*
X147845000Y-82715000D01*
X149175000Y-81385000D02*
X149175000Y-82715000D01*
X149175000Y-80115000D02*
X146515000Y-80115000D01*
X146515000Y-80115000D02*
X146515000Y-77515000D01*
X149175000Y-80115000D02*
X149175000Y-77515000D01*
X149175000Y-77515000D02*
X146515000Y-77515000D01*
X146635000Y-113830000D02*
X145305000Y-113830000D01*
X146635000Y-112500000D02*
X146635000Y-113830000D01*
X146635000Y-111230000D02*
X143975000Y-111230000D01*
X143975000Y-111230000D02*
X143975000Y-106090000D01*
X146635000Y-111230000D02*
X146635000Y-106090000D01*
X146635000Y-106090000D02*
X143975000Y-106090000D01*
X108163820Y-89389260D02*
X101163820Y-89389260D01*
X101163820Y-89389260D02*
X101163820Y-79639260D01*
X108163820Y-79639260D02*
X101163820Y-79639260D01*
X108163820Y-89389260D02*
X108163820Y-79639260D01*
X107163820Y-80639260D02*
X102163820Y-80639260D01*
X101163820Y-105639260D02*
X101163820Y-104639260D01*
X108163820Y-105639260D02*
X101163820Y-105639260D01*
X108163820Y-105639260D02*
X108163820Y-104639260D01*
X107163820Y-104639260D02*
X102163820Y-104639260D01*
X107163820Y-104639260D02*
X107163820Y-93889260D01*
X102163820Y-104639260D02*
X102163820Y-94139260D01*
X107163820Y-93889260D02*
X107163820Y-82139260D01*
X102163820Y-94139260D02*
X102163820Y-81889260D01*
X107163820Y-82139260D02*
X107163820Y-80639260D01*
X102163820Y-81889260D02*
X102163820Y-80639260D01*
X108163820Y-104639260D02*
X108163820Y-95889260D01*
X101163820Y-104639260D02*
X101163820Y-95889260D01*
X108163820Y-95889260D02*
X101163820Y-95889260D01*
X104663820Y-95889260D02*
X104663820Y-89389260D01*
D10*
X180785486Y-68911640D02*
X180785486Y-69625926D01*
X180737867Y-69768783D01*
X180642629Y-69864021D01*
X180499772Y-69911640D01*
X180404534Y-69911640D01*
X181690248Y-69244974D02*
X181690248Y-69911640D01*
X181452153Y-68864021D02*
X181214058Y-69578307D01*
X181833105Y-69578307D01*
X150661677Y-93965926D02*
X151137867Y-93965926D01*
X150566439Y-94251640D02*
X150899772Y-93251640D01*
X151233105Y-94251640D01*
X152137867Y-94251640D02*
X151804534Y-93775450D01*
X151566439Y-94251640D02*
X151566439Y-93251640D01*
X151947391Y-93251640D01*
X152042629Y-93299260D01*
X152090248Y-93346879D01*
X152137867Y-93442117D01*
X152137867Y-93584974D01*
X152090248Y-93680212D01*
X152042629Y-93727831D01*
X151947391Y-93775450D01*
X151566439Y-93775450D01*
X152566439Y-94251640D02*
X152566439Y-93251640D01*
X152804534Y-93251640D01*
X152947391Y-93299260D01*
X153042629Y-93394498D01*
X153090248Y-93489736D01*
X153137867Y-93680212D01*
X153137867Y-93823069D01*
X153090248Y-94013545D01*
X153042629Y-94108783D01*
X152947391Y-94204021D01*
X152804534Y-94251640D01*
X152566439Y-94251640D01*
X153566439Y-93251640D02*
X153566439Y-94061164D01*
X153614058Y-94156402D01*
X153661677Y-94204021D01*
X153756915Y-94251640D01*
X153947391Y-94251640D01*
X154042629Y-94204021D01*
X154090248Y-94156402D01*
X154137867Y-94061164D01*
X154137867Y-93251640D01*
X154614058Y-94251640D02*
X154614058Y-93251640D01*
X155090248Y-94251640D02*
X155090248Y-93251640D01*
X155661677Y-94251640D01*
X155661677Y-93251640D01*
X156328343Y-93251640D02*
X156518820Y-93251640D01*
X156614058Y-93299260D01*
X156709296Y-93394498D01*
X156756915Y-93584974D01*
X156756915Y-93918307D01*
X156709296Y-94108783D01*
X156614058Y-94204021D01*
X156518820Y-94251640D01*
X156328343Y-94251640D01*
X156233105Y-94204021D01*
X156137867Y-94108783D01*
X156090248Y-93918307D01*
X156090248Y-93584974D01*
X156137867Y-93394498D01*
X156233105Y-93299260D01*
X156328343Y-93251640D01*
X156947391Y-94346879D02*
X157709296Y-94346879D01*
X157947391Y-94251640D02*
X157947391Y-93251640D01*
X158518820Y-94251640D01*
X158518820Y-93251640D01*
X158947391Y-93965926D02*
X159423581Y-93965926D01*
X158852153Y-94251640D02*
X159185486Y-93251640D01*
X159518820Y-94251640D01*
X159852153Y-94251640D02*
X159852153Y-93251640D01*
X160423581Y-94251640D01*
X160423581Y-93251640D01*
X161090248Y-93251640D02*
X161280724Y-93251640D01*
X161375962Y-93299260D01*
X161471200Y-93394498D01*
X161518820Y-93584974D01*
X161518820Y-93918307D01*
X161471200Y-94108783D01*
X161375962Y-94204021D01*
X161280724Y-94251640D01*
X161090248Y-94251640D01*
X160995010Y-94204021D01*
X160899772Y-94108783D01*
X160852153Y-93918307D01*
X160852153Y-93584974D01*
X160899772Y-93394498D01*
X160995010Y-93299260D01*
X161090248Y-93251640D01*
X161709296Y-94346879D02*
X162471200Y-94346879D01*
X162995010Y-94632593D02*
X162947391Y-94584974D01*
X162852153Y-94442117D01*
X162804534Y-94346879D01*
X162756915Y-94204021D01*
X162709296Y-93965926D01*
X162709296Y-93775450D01*
X162756915Y-93537355D01*
X162804534Y-93394498D01*
X162852153Y-93299260D01*
X162947391Y-93156402D01*
X162995010Y-93108783D01*
X163852153Y-93251640D02*
X163375962Y-93251640D01*
X163328343Y-93727831D01*
X163375962Y-93680212D01*
X163471200Y-93632593D01*
X163709296Y-93632593D01*
X163804534Y-93680212D01*
X163852153Y-93727831D01*
X163899772Y-93823069D01*
X163899772Y-94061164D01*
X163852153Y-94156402D01*
X163804534Y-94204021D01*
X163709296Y-94251640D01*
X163471200Y-94251640D01*
X163375962Y-94204021D01*
X163328343Y-94156402D01*
X164185486Y-93251640D02*
X164518820Y-94251640D01*
X164852153Y-93251640D01*
X165090248Y-94632593D02*
X165137867Y-94584974D01*
X165233105Y-94442117D01*
X165280724Y-94346879D01*
X165328343Y-94204021D01*
X165375962Y-93965926D01*
X165375962Y-93775450D01*
X165328343Y-93537355D01*
X165280724Y-93394498D01*
X165233105Y-93299260D01*
X165137867Y-93156402D01*
X165090248Y-93108783D01*
X166375962Y-94251640D02*
X165804534Y-94251640D01*
X166090248Y-94251640D02*
X166090248Y-93251640D01*
X165995010Y-93394498D01*
X165899772Y-93489736D01*
X165804534Y-93537355D01*
X177271724Y-74648900D02*
X177271724Y-73648900D01*
X177509820Y-73648900D01*
X177652677Y-73696520D01*
X177747915Y-73791758D01*
X177795534Y-73886996D01*
X177843153Y-74077472D01*
X177843153Y-74220329D01*
X177795534Y-74410805D01*
X177747915Y-74506043D01*
X177652677Y-74601281D01*
X177509820Y-74648900D01*
X177271724Y-74648900D01*
X178795534Y-74648900D02*
X178224105Y-74648900D01*
X178509820Y-74648900D02*
X178509820Y-73648900D01*
X178414581Y-73791758D01*
X178319343Y-73886996D01*
X178224105Y-73934615D01*
X127542142Y-86591666D02*
X127589761Y-86639285D01*
X127637380Y-86782142D01*
X127637380Y-86877380D01*
X127589761Y-87020238D01*
X127494523Y-87115476D01*
X127399285Y-87163095D01*
X127208809Y-87210714D01*
X127065952Y-87210714D01*
X126875476Y-87163095D01*
X126780238Y-87115476D01*
X126685000Y-87020238D01*
X126637380Y-86877380D01*
X126637380Y-86782142D01*
X126685000Y-86639285D01*
X126732619Y-86591666D01*
X127637380Y-85639285D02*
X127637380Y-86210714D01*
X127637380Y-85925000D02*
X126637380Y-85925000D01*
X126780238Y-86020238D01*
X126875476Y-86115476D01*
X126923095Y-86210714D01*
X128562153Y-90831640D02*
X128228820Y-90355450D01*
X127990724Y-90831640D02*
X127990724Y-89831640D01*
X128371677Y-89831640D01*
X128466915Y-89879260D01*
X128514534Y-89926879D01*
X128562153Y-90022117D01*
X128562153Y-90164974D01*
X128514534Y-90260212D01*
X128466915Y-90307831D01*
X128371677Y-90355450D01*
X127990724Y-90355450D01*
X129419296Y-90164974D02*
X129419296Y-90831640D01*
X129181200Y-89784021D02*
X128943105Y-90498307D01*
X129562153Y-90498307D01*
X125821200Y-106715926D02*
X125345010Y-107049260D01*
X125821200Y-107287355D02*
X124821200Y-107287355D01*
X124821200Y-106906402D01*
X124868820Y-106811164D01*
X124916439Y-106763545D01*
X125011677Y-106715926D01*
X125154534Y-106715926D01*
X125249772Y-106763545D01*
X125297391Y-106811164D01*
X125345010Y-106906402D01*
X125345010Y-107287355D01*
X124821200Y-106382593D02*
X124821200Y-105763545D01*
X125202153Y-106096879D01*
X125202153Y-105954021D01*
X125249772Y-105858783D01*
X125297391Y-105811164D01*
X125392629Y-105763545D01*
X125630724Y-105763545D01*
X125725962Y-105811164D01*
X125773581Y-105858783D01*
X125821200Y-105954021D01*
X125821200Y-106239736D01*
X125773581Y-106334974D01*
X125725962Y-106382593D01*
X136860735Y-83651640D02*
X136860735Y-84461164D01*
X136908354Y-84556402D01*
X136955973Y-84604021D01*
X137051211Y-84651640D01*
X137241687Y-84651640D01*
X137336925Y-84604021D01*
X137384544Y-84556402D01*
X137432163Y-84461164D01*
X137432163Y-83651640D01*
X138432163Y-84651640D02*
X137860735Y-84651640D01*
X138146449Y-84651640D02*
X138146449Y-83651640D01*
X138051211Y-83794498D01*
X137955973Y-83889736D01*
X137860735Y-83937355D01*
X135971211Y-103575900D02*
X136161687Y-103575900D01*
X136256925Y-103623520D01*
X136352163Y-103718758D01*
X136399782Y-103909234D01*
X136399782Y-104242567D01*
X136352163Y-104433043D01*
X136256925Y-104528281D01*
X136161687Y-104575900D01*
X135971211Y-104575900D01*
X135875973Y-104528281D01*
X135780735Y-104433043D01*
X135733116Y-104242567D01*
X135733116Y-103909234D01*
X135780735Y-103718758D01*
X135875973Y-103623520D01*
X135971211Y-103575900D01*
X136828354Y-104575900D02*
X136828354Y-103575900D01*
X137399782Y-104575900D02*
X136971211Y-104004472D01*
X137399782Y-103575900D02*
X136828354Y-104147329D01*
X138352163Y-104575900D02*
X137780735Y-104575900D01*
X138066449Y-104575900D02*
X138066449Y-103575900D01*
X137971211Y-103718758D01*
X137875973Y-103813996D01*
X137780735Y-103861615D01*
X119121200Y-95077831D02*
X119121200Y-94506402D01*
X120121200Y-94792117D02*
X119121200Y-94792117D01*
X120121200Y-93601640D02*
X119645010Y-93934974D01*
X120121200Y-94173069D02*
X119121200Y-94173069D01*
X119121200Y-93792117D01*
X119168820Y-93696879D01*
X119216439Y-93649260D01*
X119311677Y-93601640D01*
X119454534Y-93601640D01*
X119549772Y-93649260D01*
X119597391Y-93696879D01*
X119645010Y-93792117D01*
X119645010Y-94173069D01*
X120121200Y-93173069D02*
X119121200Y-93173069D01*
X119835486Y-92744498D02*
X119835486Y-92268307D01*
X120121200Y-92839736D02*
X119121200Y-92506402D01*
X120121200Y-92173069D01*
X120025962Y-91268307D02*
X120073581Y-91315926D01*
X120121200Y-91458783D01*
X120121200Y-91554021D01*
X120073581Y-91696879D01*
X119978343Y-91792117D01*
X119883105Y-91839736D01*
X119692629Y-91887355D01*
X119549772Y-91887355D01*
X119359296Y-91839736D01*
X119264058Y-91792117D01*
X119168820Y-91696879D01*
X119121200Y-91554021D01*
X119121200Y-91458783D01*
X119168820Y-91315926D01*
X119216439Y-91268307D01*
X120121200Y-90315926D02*
X120121200Y-90887355D01*
X120121200Y-90601640D02*
X119121200Y-90601640D01*
X119264058Y-90696879D01*
X119359296Y-90792117D01*
X119406915Y-90887355D01*
X155927153Y-104696640D02*
X155593820Y-104220450D01*
X155355724Y-104696640D02*
X155355724Y-103696640D01*
X155736677Y-103696640D01*
X155831915Y-103744260D01*
X155879534Y-103791879D01*
X155927153Y-103887117D01*
X155927153Y-104029974D01*
X155879534Y-104125212D01*
X155831915Y-104172831D01*
X155736677Y-104220450D01*
X155355724Y-104220450D01*
X156831915Y-103696640D02*
X156355724Y-103696640D01*
X156308105Y-104172831D01*
X156355724Y-104125212D01*
X156450962Y-104077593D01*
X156689058Y-104077593D01*
X156784296Y-104125212D01*
X156831915Y-104172831D01*
X156879534Y-104268069D01*
X156879534Y-104506164D01*
X156831915Y-104601402D01*
X156784296Y-104649021D01*
X156689058Y-104696640D01*
X156450962Y-104696640D01*
X156355724Y-104649021D01*
X156308105Y-104601402D01*
X195683616Y-76643360D02*
X195683616Y-77357646D01*
X195635997Y-77500503D01*
X195540759Y-77595741D01*
X195397901Y-77643360D01*
X195302663Y-77643360D01*
X196683616Y-77643360D02*
X196112187Y-77643360D01*
X196397901Y-77643360D02*
X196397901Y-76643360D01*
X196302663Y-76786218D01*
X196207425Y-76881456D01*
X196112187Y-76929075D01*
X197588378Y-76643360D02*
X197112187Y-76643360D01*
X197064568Y-77119551D01*
X197112187Y-77071932D01*
X197207425Y-77024313D01*
X197445520Y-77024313D01*
X197540759Y-77071932D01*
X197588378Y-77119551D01*
X197635997Y-77214789D01*
X197635997Y-77452884D01*
X197588378Y-77548122D01*
X197540759Y-77595741D01*
X197445520Y-77643360D01*
X197207425Y-77643360D01*
X197112187Y-77595741D01*
X197064568Y-77548122D01*
X135683616Y-68243360D02*
X135683616Y-68957646D01*
X135635997Y-69100503D01*
X135540759Y-69195741D01*
X135397901Y-69243360D01*
X135302663Y-69243360D01*
X136683616Y-69243360D02*
X136112187Y-69243360D01*
X136397901Y-69243360D02*
X136397901Y-68243360D01*
X136302663Y-68386218D01*
X136207425Y-68481456D01*
X136112187Y-68529075D01*
X137540759Y-68576694D02*
X137540759Y-69243360D01*
X137302663Y-68195741D02*
X137064568Y-68910027D01*
X137683616Y-68910027D01*
X135683616Y-108243360D02*
X135683616Y-108957646D01*
X135635997Y-109100503D01*
X135540759Y-109195741D01*
X135397901Y-109243360D01*
X135302663Y-109243360D01*
X136683616Y-109243360D02*
X136112187Y-109243360D01*
X136397901Y-109243360D02*
X136397901Y-108243360D01*
X136302663Y-108386218D01*
X136207425Y-108481456D01*
X136112187Y-108529075D01*
X137016949Y-108243360D02*
X137635997Y-108243360D01*
X137302663Y-108624313D01*
X137445520Y-108624313D01*
X137540759Y-108671932D01*
X137588378Y-108719551D01*
X137635997Y-108814789D01*
X137635997Y-109052884D01*
X137588378Y-109148122D01*
X137540759Y-109195741D01*
X137445520Y-109243360D01*
X137159806Y-109243360D01*
X137064568Y-109195741D01*
X137016949Y-109148122D01*
X195059296Y-108101640D02*
X195059296Y-108815926D01*
X195011677Y-108958783D01*
X194916439Y-109054021D01*
X194773581Y-109101640D01*
X194678343Y-109101640D01*
X196059296Y-109101640D02*
X195487867Y-109101640D01*
X195773581Y-109101640D02*
X195773581Y-108101640D01*
X195678343Y-108244498D01*
X195583105Y-108339736D01*
X195487867Y-108387355D01*
X196440248Y-108196879D02*
X196487867Y-108149260D01*
X196583105Y-108101640D01*
X196821200Y-108101640D01*
X196916439Y-108149260D01*
X196964058Y-108196879D01*
X197011677Y-108292117D01*
X197011677Y-108387355D01*
X196964058Y-108530212D01*
X196392629Y-109101640D01*
X197011677Y-109101640D01*
X190923581Y-76646879D02*
X190828343Y-76599260D01*
X190733105Y-76504021D01*
X190590248Y-76361164D01*
X190495010Y-76313545D01*
X190399772Y-76313545D01*
X190447391Y-76551640D02*
X190352153Y-76504021D01*
X190256915Y-76408783D01*
X190209296Y-76218307D01*
X190209296Y-75884974D01*
X190256915Y-75694498D01*
X190352153Y-75599260D01*
X190447391Y-75551640D01*
X190637867Y-75551640D01*
X190733105Y-75599260D01*
X190828343Y-75694498D01*
X190875962Y-75884974D01*
X190875962Y-76218307D01*
X190828343Y-76408783D01*
X190733105Y-76504021D01*
X190637867Y-76551640D01*
X190447391Y-76551640D01*
X191828343Y-76551640D02*
X191256915Y-76551640D01*
X191542629Y-76551640D02*
X191542629Y-75551640D01*
X191447391Y-75694498D01*
X191352153Y-75789736D01*
X191256915Y-75837355D01*
X128621200Y-106615926D02*
X128145010Y-106949260D01*
X128621200Y-107187355D02*
X127621200Y-107187355D01*
X127621200Y-106806402D01*
X127668820Y-106711164D01*
X127716439Y-106663545D01*
X127811677Y-106615926D01*
X127954534Y-106615926D01*
X128049772Y-106663545D01*
X128097391Y-106711164D01*
X128145010Y-106806402D01*
X128145010Y-107187355D01*
X127716439Y-106234974D02*
X127668820Y-106187355D01*
X127621200Y-106092117D01*
X127621200Y-105854021D01*
X127668820Y-105758783D01*
X127716439Y-105711164D01*
X127811677Y-105663545D01*
X127906915Y-105663545D01*
X128049772Y-105711164D01*
X128621200Y-106282593D01*
X128621200Y-105663545D01*
X132171200Y-109065926D02*
X131695010Y-109399260D01*
X132171200Y-109637355D02*
X131171200Y-109637355D01*
X131171200Y-109256402D01*
X131218820Y-109161164D01*
X131266439Y-109113545D01*
X131361677Y-109065926D01*
X131504534Y-109065926D01*
X131599772Y-109113545D01*
X131647391Y-109161164D01*
X131695010Y-109256402D01*
X131695010Y-109637355D01*
X132171200Y-108113545D02*
X132171200Y-108684974D01*
X132171200Y-108399260D02*
X131171200Y-108399260D01*
X131314058Y-108494498D01*
X131409296Y-108589736D01*
X131456915Y-108684974D01*
X157298571Y-77820952D02*
X157346190Y-77678095D01*
X157393809Y-77630476D01*
X157489047Y-77582857D01*
X157631904Y-77582857D01*
X157727142Y-77630476D01*
X157774761Y-77678095D01*
X157822380Y-77773333D01*
X157822380Y-78154285D01*
X156822380Y-78154285D01*
X156822380Y-77820952D01*
X156870000Y-77725714D01*
X156917619Y-77678095D01*
X157012857Y-77630476D01*
X157108095Y-77630476D01*
X157203333Y-77678095D01*
X157250952Y-77725714D01*
X157298571Y-77820952D01*
X157298571Y-78154285D01*
X156822380Y-77249523D02*
X156822380Y-76582857D01*
X157822380Y-77249523D01*
X157822380Y-76582857D01*
X157822380Y-75678095D02*
X157822380Y-76249523D01*
X157822380Y-75963809D02*
X156822380Y-75963809D01*
X156965238Y-76059047D01*
X157060476Y-76154285D01*
X157108095Y-76249523D01*
X182852153Y-81781402D02*
X182804534Y-81829021D01*
X182661677Y-81876640D01*
X182566439Y-81876640D01*
X182423581Y-81829021D01*
X182328343Y-81733783D01*
X182280724Y-81638545D01*
X182233105Y-81448069D01*
X182233105Y-81305212D01*
X182280724Y-81114736D01*
X182328343Y-81019498D01*
X182423581Y-80924260D01*
X182566439Y-80876640D01*
X182661677Y-80876640D01*
X182804534Y-80924260D01*
X182852153Y-80971879D01*
X183233105Y-80971879D02*
X183280724Y-80924260D01*
X183375962Y-80876640D01*
X183614058Y-80876640D01*
X183709296Y-80924260D01*
X183756915Y-80971879D01*
X183804534Y-81067117D01*
X183804534Y-81162355D01*
X183756915Y-81305212D01*
X183185486Y-81876640D01*
X183804534Y-81876640D01*
X178071200Y-77465926D02*
X177595010Y-77799260D01*
X178071200Y-78037355D02*
X177071200Y-78037355D01*
X177071200Y-77656402D01*
X177118820Y-77561164D01*
X177166439Y-77513545D01*
X177261677Y-77465926D01*
X177404534Y-77465926D01*
X177499772Y-77513545D01*
X177547391Y-77561164D01*
X177595010Y-77656402D01*
X177595010Y-78037355D01*
X177071200Y-76608783D02*
X177071200Y-76799260D01*
X177118820Y-76894498D01*
X177166439Y-76942117D01*
X177309296Y-77037355D01*
X177499772Y-77084974D01*
X177880724Y-77084974D01*
X177975962Y-77037355D01*
X178023581Y-76989736D01*
X178071200Y-76894498D01*
X178071200Y-76704021D01*
X178023581Y-76608783D01*
X177975962Y-76561164D01*
X177880724Y-76513545D01*
X177642629Y-76513545D01*
X177547391Y-76561164D01*
X177499772Y-76608783D01*
X177452153Y-76704021D01*
X177452153Y-76894498D01*
X177499772Y-76989736D01*
X177547391Y-77037355D01*
X177642629Y-77084974D01*
X186152153Y-77951640D02*
X185818820Y-77475450D01*
X185580724Y-77951640D02*
X185580724Y-76951640D01*
X185961677Y-76951640D01*
X186056915Y-76999260D01*
X186104534Y-77046879D01*
X186152153Y-77142117D01*
X186152153Y-77284974D01*
X186104534Y-77380212D01*
X186056915Y-77427831D01*
X185961677Y-77475450D01*
X185580724Y-77475450D01*
X186485486Y-76951640D02*
X187152153Y-76951640D01*
X186723581Y-77951640D01*
X177721200Y-110032593D02*
X178435486Y-110032593D01*
X178578343Y-110080212D01*
X178673581Y-110175450D01*
X178721200Y-110318307D01*
X178721200Y-110413545D01*
X178721200Y-109508783D02*
X178721200Y-109318307D01*
X178673581Y-109223069D01*
X178625962Y-109175450D01*
X178483105Y-109080212D01*
X178292629Y-109032593D01*
X177911677Y-109032593D01*
X177816439Y-109080212D01*
X177768820Y-109127831D01*
X177721200Y-109223069D01*
X177721200Y-109413545D01*
X177768820Y-109508783D01*
X177816439Y-109556402D01*
X177911677Y-109604021D01*
X178149772Y-109604021D01*
X178245010Y-109556402D01*
X178292629Y-109508783D01*
X178340248Y-109413545D01*
X178340248Y-109223069D01*
X178292629Y-109127831D01*
X178245010Y-109080212D01*
X178149772Y-109032593D01*
X191771200Y-116108783D02*
X192485486Y-116108783D01*
X192628343Y-116156402D01*
X192723581Y-116251640D01*
X192771200Y-116394498D01*
X192771200Y-116489736D01*
X192771200Y-115108783D02*
X192771200Y-115680212D01*
X192771200Y-115394498D02*
X191771200Y-115394498D01*
X191914058Y-115489736D01*
X192009296Y-115584974D01*
X192056915Y-115680212D01*
X191771200Y-114489736D02*
X191771200Y-114394498D01*
X191818820Y-114299260D01*
X191866439Y-114251640D01*
X191961677Y-114204021D01*
X192152153Y-114156402D01*
X192390248Y-114156402D01*
X192580724Y-114204021D01*
X192675962Y-114251640D01*
X192723581Y-114299260D01*
X192771200Y-114394498D01*
X192771200Y-114489736D01*
X192723581Y-114584974D01*
X192675962Y-114632593D01*
X192580724Y-114680212D01*
X192390248Y-114727831D01*
X192152153Y-114727831D01*
X191961677Y-114680212D01*
X191866439Y-114632593D01*
X191818820Y-114584974D01*
X191771200Y-114489736D01*
X116706200Y-112657593D02*
X117420486Y-112657593D01*
X117563343Y-112705212D01*
X117658581Y-112800450D01*
X117706200Y-112943307D01*
X117706200Y-113038545D01*
X117706200Y-111657593D02*
X117706200Y-112229021D01*
X117706200Y-111943307D02*
X116706200Y-111943307D01*
X116849058Y-112038545D01*
X116944296Y-112133783D01*
X116991915Y-112229021D01*
X116806200Y-74007593D02*
X117520486Y-74007593D01*
X117663343Y-74055212D01*
X117758581Y-74150450D01*
X117806200Y-74293307D01*
X117806200Y-74388545D01*
X116901439Y-73579021D02*
X116853820Y-73531402D01*
X116806200Y-73436164D01*
X116806200Y-73198069D01*
X116853820Y-73102831D01*
X116901439Y-73055212D01*
X116996677Y-73007593D01*
X117091915Y-73007593D01*
X117234772Y-73055212D01*
X117806200Y-73626640D01*
X117806200Y-73007593D01*
X142835486Y-69076640D02*
X142835486Y-69790926D01*
X142787867Y-69933783D01*
X142692629Y-70029021D01*
X142549772Y-70076640D01*
X142454534Y-70076640D01*
X143216439Y-69076640D02*
X143835486Y-69076640D01*
X143502153Y-69457593D01*
X143645010Y-69457593D01*
X143740248Y-69505212D01*
X143787867Y-69552831D01*
X143835486Y-69648069D01*
X143835486Y-69886164D01*
X143787867Y-69981402D01*
X143740248Y-70029021D01*
X143645010Y-70076640D01*
X143359296Y-70076640D01*
X143264058Y-70029021D01*
X143216439Y-69981402D01*
X147011666Y-75757380D02*
X147011666Y-76471666D01*
X146964047Y-76614523D01*
X146868809Y-76709761D01*
X146725952Y-76757380D01*
X146630714Y-76757380D01*
X147487857Y-76757380D02*
X147487857Y-75757380D01*
X147868809Y-75757380D01*
X147964047Y-75805000D01*
X148011666Y-75852619D01*
X148059285Y-75947857D01*
X148059285Y-76090714D01*
X148011666Y-76185952D01*
X147964047Y-76233571D01*
X147868809Y-76281190D01*
X147487857Y-76281190D01*
X149011666Y-76757380D02*
X148440238Y-76757380D01*
X148725952Y-76757380D02*
X148725952Y-75757380D01*
X148630714Y-75900238D01*
X148535476Y-75995476D01*
X148440238Y-76043095D01*
X144495476Y-114282380D02*
X144495476Y-114996666D01*
X144447857Y-115139523D01*
X144352619Y-115234761D01*
X144209761Y-115282380D01*
X144114523Y-115282380D01*
X145495476Y-115282380D02*
X144924047Y-115282380D01*
X145209761Y-115282380D02*
X145209761Y-114282380D01*
X145114523Y-114425238D01*
X145019285Y-114520476D01*
X144924047Y-114568095D01*
X146447857Y-115282380D02*
X145876428Y-115282380D01*
X146162142Y-115282380D02*
X146162142Y-114282380D01*
X146066904Y-114425238D01*
X145971666Y-114520476D01*
X145876428Y-114568095D01*
X105227391Y-93132593D02*
X105227391Y-93465926D01*
X105751200Y-93465926D02*
X104751200Y-93465926D01*
X104751200Y-92989736D01*
X105751200Y-92084974D02*
X105751200Y-92656402D01*
X105751200Y-92370688D02*
X104751200Y-92370688D01*
X104894058Y-92465926D01*
X104989296Y-92561164D01*
X105036915Y-92656402D01*
M02*
