G04 #@! TF.GenerationSoftware,KiCad,Pcbnew,(5.1.6-0-10_14)*
G04 #@! TF.CreationDate,2020-05-23T01:17:40+02:00*
G04 #@! TF.ProjectId,arduino_nano_reflow_TRIAC_v1_0,61726475-696e-46f5-9f6e-616e6f5f7265,1.0*
G04 #@! TF.SameCoordinates,Original*
G04 #@! TF.FileFunction,Copper,L2,Bot*
G04 #@! TF.FilePolarity,Positive*
%FSLAX46Y46*%
G04 Gerber Fmt 4.6, Leading zero omitted, Abs format (unit mm)*
G04 Created by KiCad (PCBNEW (5.1.6-0-10_14)) date 2020-05-23 01:17:40*
%MOMM*%
%LPD*%
G01*
G04 APERTURE LIST*
G04 #@! TA.AperFunction,ComponentPad*
%ADD10O,1.600000X1.600000*%
G04 #@! TD*
G04 #@! TA.AperFunction,ComponentPad*
%ADD11R,1.600000X1.600000*%
G04 #@! TD*
G04 #@! TA.AperFunction,ComponentPad*
%ADD12O,1.800000X1.800000*%
G04 #@! TD*
G04 #@! TA.AperFunction,ComponentPad*
%ADD13R,1.800000X1.800000*%
G04 #@! TD*
G04 #@! TA.AperFunction,ComponentPad*
%ADD14C,1.600000*%
G04 #@! TD*
G04 #@! TA.AperFunction,ComponentPad*
%ADD15O,2.000000X1.905000*%
G04 #@! TD*
G04 #@! TA.AperFunction,ComponentPad*
%ADD16R,2.000000X1.905000*%
G04 #@! TD*
G04 #@! TA.AperFunction,ComponentPad*
%ADD17C,6.400000*%
G04 #@! TD*
G04 #@! TA.AperFunction,ComponentPad*
%ADD18C,2.000000*%
G04 #@! TD*
G04 #@! TA.AperFunction,ComponentPad*
%ADD19R,2.000000X2.000000*%
G04 #@! TD*
G04 #@! TA.AperFunction,ComponentPad*
%ADD20O,1.700000X1.700000*%
G04 #@! TD*
G04 #@! TA.AperFunction,ComponentPad*
%ADD21R,1.700000X1.700000*%
G04 #@! TD*
G04 #@! TA.AperFunction,ComponentPad*
%ADD22C,2.600000*%
G04 #@! TD*
G04 #@! TA.AperFunction,ComponentPad*
%ADD23R,2.600000X2.600000*%
G04 #@! TD*
G04 #@! TA.AperFunction,ComponentPad*
%ADD24C,2.350000*%
G04 #@! TD*
G04 #@! TA.AperFunction,ViaPad*
%ADD25C,0.600000*%
G04 #@! TD*
G04 #@! TA.AperFunction,Conductor*
%ADD26C,0.500000*%
G04 #@! TD*
G04 #@! TA.AperFunction,Conductor*
%ADD27C,0.750000*%
G04 #@! TD*
G04 #@! TA.AperFunction,Conductor*
%ADD28C,1.000000*%
G04 #@! TD*
G04 #@! TA.AperFunction,Conductor*
%ADD29C,2.000000*%
G04 #@! TD*
G04 #@! TA.AperFunction,Conductor*
%ADD30C,0.200000*%
G04 #@! TD*
G04 APERTURE END LIST*
D10*
X183428820Y-86459260D03*
X183428820Y-101699260D03*
X147868820Y-86459260D03*
X180888820Y-101699260D03*
X150408820Y-86459260D03*
X178348820Y-101699260D03*
X152948820Y-86459260D03*
X175808820Y-101699260D03*
X155488820Y-86459260D03*
X173268820Y-101699260D03*
X158028820Y-86459260D03*
X170728820Y-101699260D03*
X160568820Y-86459260D03*
X168188820Y-101699260D03*
X163108820Y-86459260D03*
X165648820Y-101699260D03*
X165648820Y-86459260D03*
X163108820Y-101699260D03*
X168188820Y-86459260D03*
X160568820Y-101699260D03*
X170728820Y-86459260D03*
X158028820Y-101699260D03*
X173268820Y-86459260D03*
X155488820Y-101699260D03*
X175808820Y-86459260D03*
X152948820Y-101699260D03*
X178348820Y-86459260D03*
X150408820Y-101699260D03*
X180888820Y-86459260D03*
D11*
X147868820Y-101699260D03*
D12*
X182898820Y-75670000D03*
D13*
X177818820Y-75670000D03*
D14*
X124985000Y-88925000D03*
X124985000Y-83925000D03*
D10*
X132538820Y-92749260D03*
D14*
X124918820Y-92749260D03*
D10*
X124985000Y-104245000D03*
D14*
X124985000Y-96625000D03*
D10*
X134998820Y-91545000D03*
X142618820Y-86465000D03*
X134998820Y-89005000D03*
X142618820Y-89005000D03*
X134998820Y-86465000D03*
D11*
X142618820Y-91545000D03*
D10*
X142638820Y-96649260D03*
X135018820Y-101729260D03*
X142638820Y-99189260D03*
X135018820Y-99189260D03*
X142638820Y-101729260D03*
D11*
X135018820Y-96649260D03*
D15*
X114823820Y-95339260D03*
X114823820Y-92799260D03*
D16*
X114823820Y-90259260D03*
D17*
X196493140Y-72990980D03*
X136493140Y-72990980D03*
X136493140Y-112990980D03*
X196493140Y-112990980D03*
D15*
X189372820Y-78210000D03*
X189372820Y-75670000D03*
D16*
X189372820Y-73130000D03*
D10*
X128160000Y-96625000D03*
D14*
X128160000Y-104245000D03*
D10*
X131335000Y-99165000D03*
D14*
X131335000Y-106785000D03*
D18*
X157370000Y-73150000D03*
D19*
X157370000Y-80750000D03*
D20*
X191025000Y-108690000D03*
X188485000Y-108690000D03*
X185945000Y-108690000D03*
X183405000Y-108690000D03*
D21*
X180865000Y-108690000D03*
D20*
X149115000Y-115040000D03*
X151655000Y-115040000D03*
X154195000Y-115040000D03*
X156735000Y-115040000D03*
X159275000Y-115040000D03*
X161815000Y-115040000D03*
X164355000Y-115040000D03*
X166895000Y-115040000D03*
X169435000Y-115040000D03*
X171975000Y-115040000D03*
X174515000Y-115040000D03*
X177055000Y-115040000D03*
X179595000Y-115040000D03*
X182135000Y-115040000D03*
X184675000Y-115040000D03*
X187215000Y-115040000D03*
D21*
X189755000Y-115040000D03*
D22*
X110993820Y-114824260D03*
D23*
X110993820Y-109824260D03*
D22*
X111093820Y-76174260D03*
D23*
X111093820Y-71174260D03*
D22*
X143018820Y-73674260D03*
D23*
X148018820Y-73674260D03*
D21*
X147845000Y-81385000D03*
D20*
X145305000Y-81385000D03*
D21*
X165625000Y-70590000D03*
D20*
X168165000Y-70590000D03*
X170705000Y-70590000D03*
D21*
X165625000Y-78210000D03*
D20*
X168165000Y-78210000D03*
X170705000Y-78210000D03*
D21*
X165625000Y-75670000D03*
D20*
X168165000Y-75670000D03*
X170705000Y-75670000D03*
D21*
X165625000Y-73130000D03*
D20*
X168165000Y-73130000D03*
X170705000Y-73130000D03*
D21*
X182006820Y-71971260D03*
D20*
X179466820Y-71971260D03*
D21*
X145305000Y-112500000D03*
D20*
X145305000Y-109960000D03*
X145305000Y-107420000D03*
D24*
X104663820Y-97639260D03*
X104663820Y-102639260D03*
X104663820Y-87639260D03*
X104663820Y-82639260D03*
D25*
X140604820Y-70447260D03*
X188485000Y-82655000D03*
X175785000Y-70590000D03*
D26*
X178405000Y-105005000D02*
X166975000Y-112625000D01*
X173255000Y-104930000D02*
X161825000Y-112550000D01*
D27*
X144814020Y-112990980D02*
X145305000Y-112500000D01*
X136493140Y-112990980D02*
X144814020Y-112990980D01*
D26*
X171975000Y-115040000D02*
X169435000Y-115040000D01*
X171975000Y-111230000D02*
X171975000Y-115040000D01*
X180865000Y-101705000D02*
X180865000Y-104880000D01*
X180865000Y-104880000D02*
X171975000Y-111230000D01*
X150385000Y-101705000D02*
X150385000Y-107420000D01*
X150385000Y-107420000D02*
X147845000Y-109960000D01*
X147845000Y-109960000D02*
X145305000Y-109960000D01*
X147845000Y-105515000D02*
X145940000Y-107420000D01*
X147845000Y-101705000D02*
X147845000Y-105515000D01*
X158005000Y-99800000D02*
X158005000Y-101705000D01*
X142765000Y-99165000D02*
X144780000Y-99060000D01*
X144780000Y-99060000D02*
X145940000Y-97260000D01*
X145940000Y-97260000D02*
X155465000Y-97260000D01*
X155465000Y-97260000D02*
X158005000Y-99800000D01*
X159275000Y-112500000D02*
X159275000Y-115040000D01*
X170705000Y-101705000D02*
X170705000Y-104880000D01*
X170705000Y-104880000D02*
X159275000Y-112500000D01*
X173268820Y-104916180D02*
X173255000Y-104930000D01*
X173268820Y-101699260D02*
X173268820Y-104916180D01*
X161825000Y-115030000D02*
X161815000Y-115040000D01*
X161825000Y-112550000D02*
X161825000Y-115030000D01*
X164355000Y-112500000D02*
X164355000Y-115040000D01*
X175785000Y-101705000D02*
X175785000Y-104880000D01*
X175785000Y-104880000D02*
X164355000Y-112500000D01*
X178348820Y-104948820D02*
X178405000Y-105005000D01*
X178348820Y-101699260D02*
X178348820Y-104948820D01*
X166975000Y-114960000D02*
X166895000Y-115040000D01*
X166975000Y-112625000D02*
X166975000Y-114960000D01*
X180865000Y-108690000D02*
X178960000Y-108690000D01*
X174515000Y-111865000D02*
X174515000Y-115040000D01*
X178960000Y-108690000D02*
X174515000Y-111865000D01*
X183405000Y-104880000D02*
X180865000Y-106785000D01*
X180865000Y-106785000D02*
X180865000Y-108690000D01*
X174515000Y-113930000D02*
X174515000Y-115040000D01*
X183405000Y-101705000D02*
X183405000Y-104880000D01*
D27*
X155465000Y-86465000D02*
X155465000Y-83290000D01*
X155465000Y-83290000D02*
X153560000Y-82020000D01*
X153560000Y-82020000D02*
X153560000Y-78845000D01*
X153560000Y-78845000D02*
X156735000Y-75670000D01*
X176049584Y-80115000D02*
X171975000Y-75670000D01*
X176049584Y-80115000D02*
X185945000Y-80115000D01*
X188485000Y-82655000D02*
X185945000Y-80115000D01*
X171975000Y-75670000D02*
X171340000Y-75670000D01*
X171340000Y-75670000D02*
X170705000Y-75670000D01*
X170705000Y-75670000D02*
X168165000Y-75670000D01*
X168165000Y-75670000D02*
X165625000Y-75670000D01*
X156735000Y-75670000D02*
X165625000Y-75670000D01*
X188485000Y-82655000D02*
X188485000Y-103610000D01*
X188485000Y-103610000D02*
X188485000Y-108690000D01*
X188485000Y-108690000D02*
X188485000Y-111230000D01*
X184675000Y-113770000D02*
X184675000Y-115040000D01*
X186580000Y-111865000D02*
X184675000Y-113770000D01*
X187850000Y-111865000D02*
X186580000Y-111865000D01*
X188485000Y-111230000D02*
X187850000Y-111865000D01*
D28*
X182135000Y-115040000D02*
X184675000Y-115040000D01*
D27*
X170705000Y-70590000D02*
X171975000Y-70590000D01*
X171975000Y-70590000D02*
X174515000Y-73130000D01*
X174515000Y-73130000D02*
X178325000Y-73130000D01*
X170705000Y-70590000D02*
X168165000Y-70590000D01*
X168165000Y-70590000D02*
X165625000Y-70590000D01*
X178325000Y-75670000D02*
X178325000Y-73130000D01*
X178325000Y-73130000D02*
X179595000Y-72495000D01*
X142845000Y-74400000D02*
X142765000Y-79480000D01*
X142765000Y-79480000D02*
X144670000Y-81385000D01*
X163069260Y-69939260D02*
X163720000Y-70590000D01*
X144685740Y-69939260D02*
X163069260Y-69939260D01*
X163720000Y-70590000D02*
X165625000Y-70590000D01*
X142765000Y-71860000D02*
X144685740Y-69939260D01*
X142800000Y-74375000D02*
X142765000Y-71860000D01*
D26*
X185310000Y-99800000D02*
X185310000Y-105515000D01*
X183405000Y-106785000D02*
X185310000Y-105515000D01*
X173245000Y-87735000D02*
X173245000Y-86465000D01*
X183405000Y-108690000D02*
X183405000Y-106785000D01*
X173245000Y-87735000D02*
X185310000Y-99800000D01*
X185945000Y-108690000D02*
X185945000Y-106785000D01*
X185945000Y-106785000D02*
X186580000Y-106150000D01*
X186580000Y-106150000D02*
X186580000Y-98530000D01*
X180865000Y-111865000D02*
X179595000Y-113135000D01*
X179595000Y-113135000D02*
X179595000Y-115040000D01*
X179595000Y-115040000D02*
X177055000Y-115040000D01*
X185945000Y-108690000D02*
X185945000Y-109960000D01*
X185945000Y-109960000D02*
X184040000Y-111865000D01*
X183405000Y-95355000D02*
X183405000Y-86465000D01*
X186580000Y-98530000D02*
X183405000Y-95355000D01*
X180865000Y-111865000D02*
X184040000Y-111865000D01*
D27*
X182898820Y-75670000D02*
X189372820Y-75670000D01*
X147845000Y-86465000D02*
X147845000Y-81385000D01*
D26*
X151655000Y-113135000D02*
X151655000Y-115040000D01*
X151655000Y-112500000D02*
X151655000Y-113135000D01*
X163085000Y-101705000D02*
X163085000Y-104880000D01*
X163085000Y-104880000D02*
X151655000Y-112500000D01*
X154195000Y-113135000D02*
X154195000Y-115040000D01*
X154195000Y-112500000D02*
X154195000Y-113135000D01*
X165625000Y-101705000D02*
X165625000Y-104880000D01*
X165625000Y-104880000D02*
X154195000Y-112500000D01*
X156735000Y-112500000D02*
X156735000Y-113135000D01*
X168165000Y-101705000D02*
X168165000Y-104880000D01*
X156735000Y-113135000D02*
X156735000Y-115040000D01*
X168165000Y-104880000D02*
X156735000Y-112500000D01*
D27*
X135145000Y-86465000D02*
X122443199Y-86450009D01*
X122443199Y-86450009D02*
X119903820Y-89511689D01*
X119903820Y-89511689D02*
X119903820Y-92799260D01*
X119903820Y-92799260D02*
X117363820Y-95339260D01*
X117363820Y-95339260D02*
X114823820Y-95339260D01*
D28*
X133794560Y-92749260D02*
X134998820Y-91545000D01*
X132538820Y-92749260D02*
X133794560Y-92749260D01*
X124985000Y-92683080D02*
X124918820Y-92749260D01*
X124985000Y-88925000D02*
X124985000Y-92683080D01*
X124918820Y-96558820D02*
X124985000Y-96625000D01*
X124918820Y-92749260D02*
X124918820Y-96558820D01*
D27*
X135145000Y-96625000D02*
X128795000Y-96625000D01*
D28*
X134994560Y-99165000D02*
X135018820Y-99189260D01*
X131335000Y-99165000D02*
X134994560Y-99165000D01*
D26*
X170705000Y-86465000D02*
X170705000Y-83925000D01*
X170705000Y-83925000D02*
X170705000Y-78210000D01*
X168165000Y-83290000D02*
X168165000Y-78210000D01*
X168165000Y-86465000D02*
X168165000Y-83290000D01*
X165625000Y-78845000D02*
X165625000Y-78210000D01*
X165625000Y-86465000D02*
X165625000Y-78845000D01*
X157370000Y-80750000D02*
X161815000Y-80750000D01*
X163085000Y-82020000D02*
X161815000Y-80750000D01*
X163085000Y-82020000D02*
X163085000Y-86465000D01*
D29*
X114823820Y-87084260D02*
X114823820Y-90259260D01*
X117998820Y-83909260D02*
X114823820Y-87084260D01*
X118038820Y-83909260D02*
X117998820Y-83909260D01*
X118038820Y-83909260D02*
X118002362Y-73767362D01*
X118038820Y-83909260D02*
X118038820Y-83274260D01*
X118038820Y-83274260D02*
X118038820Y-83909260D01*
D27*
X124985000Y-83925000D02*
X117998820Y-83909260D01*
D29*
X115409260Y-71174260D02*
X118002362Y-73767362D01*
X111093820Y-71174260D02*
X115409260Y-71174260D01*
D27*
X128160000Y-104245000D02*
X124985000Y-104245000D01*
X124985000Y-104245000D02*
X109745000Y-104245000D01*
D29*
X109745000Y-108575440D02*
X110993820Y-109824260D01*
X109745000Y-104245000D02*
X109745000Y-108575440D01*
X114823820Y-92799260D02*
X112518820Y-92799260D01*
X109745000Y-95573080D02*
X109745000Y-104245000D01*
X112518820Y-92799260D02*
X109745000Y-95573080D01*
D26*
X189215000Y-73670000D02*
X189755000Y-73130000D01*
X187980000Y-69955000D02*
X189755000Y-71730000D01*
X176420000Y-69955000D02*
X187980000Y-69955000D01*
X189755000Y-71730000D02*
X189755000Y-73130000D01*
X175785000Y-70590000D02*
X176420000Y-69955000D01*
D29*
X104792000Y-113516000D02*
X104792000Y-102324260D01*
X104792000Y-102324260D02*
X104792000Y-97990980D01*
X106100260Y-114824260D02*
X104792000Y-113516000D01*
X110993820Y-114824260D02*
X106100260Y-114824260D01*
D28*
X123295740Y-114824260D02*
X131335000Y-106785000D01*
X110993820Y-114824260D02*
X123295740Y-114824260D01*
D29*
X104663820Y-87719260D02*
X104663820Y-82639260D01*
X104663820Y-82639260D02*
X104663820Y-78194260D01*
X106683820Y-76174260D02*
X104663820Y-78194260D01*
X111093820Y-76174260D02*
X106683820Y-76174260D01*
D30*
G36*
X141765977Y-70773059D02*
G01*
X141702490Y-70826657D01*
X141618293Y-70932214D01*
X141532650Y-71036570D01*
X141527769Y-71045702D01*
X141521311Y-71053798D01*
X141459340Y-71173722D01*
X141395685Y-71292812D01*
X141392678Y-71302726D01*
X141387926Y-71311921D01*
X141350553Y-71441593D01*
X141311343Y-71570850D01*
X141310328Y-71581160D01*
X141307461Y-71591106D01*
X141296099Y-71725634D01*
X141282865Y-71860000D01*
X141291008Y-71942681D01*
X141291904Y-72007063D01*
X141154618Y-72144349D01*
X140891967Y-72537434D01*
X140711050Y-72974206D01*
X140618820Y-73437881D01*
X140618820Y-73910639D01*
X140711050Y-74374314D01*
X140891967Y-74811086D01*
X141154618Y-75204171D01*
X141354013Y-75403566D01*
X141291141Y-79395966D01*
X141282865Y-79480000D01*
X141295968Y-79613046D01*
X141306971Y-79746224D01*
X141310194Y-79757485D01*
X141311343Y-79769150D01*
X141350151Y-79897084D01*
X141386924Y-80025557D01*
X141392284Y-80035976D01*
X141395685Y-80047188D01*
X141458673Y-80165030D01*
X141519836Y-80283924D01*
X141527130Y-80293102D01*
X141532650Y-80303430D01*
X141617432Y-80406738D01*
X141700600Y-80511395D01*
X141765016Y-80565980D01*
X143678248Y-82479213D01*
X143706229Y-82502176D01*
X143790336Y-82628052D01*
X144061948Y-82899664D01*
X144381329Y-83113067D01*
X144736206Y-83260062D01*
X145112942Y-83335000D01*
X145497058Y-83335000D01*
X145873794Y-83260062D01*
X146228671Y-83113067D01*
X146285069Y-83075383D01*
X146370001Y-83145084D01*
X146370000Y-85282494D01*
X146185062Y-85559273D01*
X146041836Y-85905051D01*
X145968820Y-86272126D01*
X145968820Y-86646394D01*
X146041836Y-87013469D01*
X146185062Y-87359247D01*
X146392994Y-87670439D01*
X146657641Y-87935086D01*
X146968833Y-88143018D01*
X147314611Y-88286244D01*
X147681686Y-88359260D01*
X148055954Y-88359260D01*
X148423029Y-88286244D01*
X148768807Y-88143018D01*
X149079999Y-87935086D01*
X149344646Y-87670439D01*
X149520389Y-87407422D01*
X149524907Y-87412522D01*
X149727863Y-87566648D01*
X149956988Y-87678218D01*
X150107289Y-87723807D01*
X150308820Y-87629997D01*
X150308820Y-86559260D01*
X150288820Y-86559260D01*
X150288820Y-86359260D01*
X150308820Y-86359260D01*
X150308820Y-85288523D01*
X150107289Y-85194713D01*
X149956988Y-85240302D01*
X149727863Y-85351872D01*
X149524907Y-85505998D01*
X149520389Y-85511098D01*
X149344646Y-85248081D01*
X149320000Y-85223435D01*
X149320000Y-83145083D01*
X149476581Y-83016581D01*
X149614042Y-82849084D01*
X149716184Y-82657988D01*
X149779084Y-82450638D01*
X149800322Y-82235000D01*
X149800322Y-80535000D01*
X149779084Y-80319362D01*
X149716184Y-80112012D01*
X149614042Y-79920916D01*
X149476581Y-79753419D01*
X149309084Y-79615958D01*
X149117988Y-79513816D01*
X148910638Y-79450916D01*
X148695000Y-79429678D01*
X146995000Y-79429678D01*
X146779362Y-79450916D01*
X146572012Y-79513816D01*
X146380916Y-79615958D01*
X146285069Y-79694617D01*
X146228671Y-79656933D01*
X145873794Y-79509938D01*
X145497058Y-79435000D01*
X145112942Y-79435000D01*
X144856896Y-79485931D01*
X144249652Y-78878688D01*
X144299632Y-75704904D01*
X144548731Y-75538462D01*
X144883022Y-75204171D01*
X145036643Y-74974260D01*
X146216401Y-74974260D01*
X146226055Y-75072277D01*
X146254645Y-75166527D01*
X146301074Y-75253389D01*
X146363556Y-75329524D01*
X146439691Y-75392006D01*
X146526553Y-75438435D01*
X146620803Y-75467025D01*
X146718820Y-75476679D01*
X147793820Y-75474260D01*
X147918820Y-75349260D01*
X147918820Y-73774260D01*
X148118820Y-73774260D01*
X148118820Y-75349260D01*
X148243820Y-75474260D01*
X149318820Y-75476679D01*
X149416837Y-75467025D01*
X149511087Y-75438435D01*
X149597949Y-75392006D01*
X149674084Y-75329524D01*
X149736566Y-75253389D01*
X149782995Y-75166527D01*
X149811585Y-75072277D01*
X149821239Y-74974260D01*
X149818820Y-73899260D01*
X149693820Y-73774260D01*
X148118820Y-73774260D01*
X147918820Y-73774260D01*
X146343820Y-73774260D01*
X146218820Y-73899260D01*
X146216401Y-74974260D01*
X145036643Y-74974260D01*
X145145673Y-74811086D01*
X145326590Y-74374314D01*
X145418820Y-73910639D01*
X145418820Y-73437881D01*
X145326590Y-72974206D01*
X145145673Y-72537434D01*
X145036644Y-72374260D01*
X146216401Y-72374260D01*
X146218820Y-73449260D01*
X146343820Y-73574260D01*
X147918820Y-73574260D01*
X147918820Y-71999260D01*
X148118820Y-71999260D01*
X148118820Y-73574260D01*
X149693820Y-73574260D01*
X149818820Y-73449260D01*
X149819401Y-73190879D01*
X155863297Y-73190879D01*
X155900223Y-73484037D01*
X155993631Y-73764358D01*
X156094511Y-73953091D01*
X156324446Y-74054132D01*
X157228579Y-73150000D01*
X156324446Y-72245868D01*
X156094511Y-72346909D01*
X155962344Y-72611176D01*
X155884272Y-72896150D01*
X155863297Y-73190879D01*
X149819401Y-73190879D01*
X149821239Y-72374260D01*
X149811585Y-72276243D01*
X149782995Y-72181993D01*
X149741546Y-72104446D01*
X156465868Y-72104446D01*
X157370000Y-73008579D01*
X158274132Y-72104446D01*
X158173091Y-71874511D01*
X157908824Y-71742344D01*
X157623850Y-71664272D01*
X157329121Y-71643297D01*
X157035963Y-71680223D01*
X156755642Y-71773631D01*
X156566909Y-71874511D01*
X156465868Y-72104446D01*
X149741546Y-72104446D01*
X149736566Y-72095131D01*
X149674084Y-72018996D01*
X149597949Y-71956514D01*
X149511087Y-71910085D01*
X149416837Y-71881495D01*
X149318820Y-71871841D01*
X148243820Y-71874260D01*
X148118820Y-71999260D01*
X147918820Y-71999260D01*
X147793820Y-71874260D01*
X146718820Y-71871841D01*
X146620803Y-71881495D01*
X146526553Y-71910085D01*
X146439691Y-71956514D01*
X146363556Y-72018996D01*
X146301074Y-72095131D01*
X146254645Y-72181993D01*
X146226055Y-72276243D01*
X146216401Y-72374260D01*
X145036644Y-72374260D01*
X144883022Y-72144349D01*
X144724819Y-71986146D01*
X145296705Y-71414260D01*
X162458296Y-71414260D01*
X162625784Y-71581748D01*
X162671972Y-71638028D01*
X162896569Y-71822351D01*
X163152811Y-71959315D01*
X163366137Y-72024027D01*
X163430849Y-72043657D01*
X163461279Y-72046654D01*
X163647548Y-72065000D01*
X163647554Y-72065000D01*
X163719999Y-72072135D01*
X163792444Y-72065000D01*
X163864917Y-72065000D01*
X163993419Y-72221581D01*
X164160916Y-72359042D01*
X164273119Y-72419015D01*
X164275000Y-72905000D01*
X164400000Y-73030000D01*
X165525000Y-73030000D01*
X165525000Y-73010000D01*
X165725000Y-73010000D01*
X165725000Y-73030000D01*
X166850000Y-73030000D01*
X166914932Y-72965068D01*
X166943705Y-73030000D01*
X168065000Y-73030000D01*
X168065000Y-73010000D01*
X168265000Y-73010000D01*
X168265000Y-73030000D01*
X169386295Y-73030000D01*
X169435000Y-72920089D01*
X169483705Y-73030000D01*
X170605000Y-73030000D01*
X170605000Y-73010000D01*
X170805000Y-73010000D01*
X170805000Y-73030000D01*
X171926295Y-73030000D01*
X172019076Y-72820624D01*
X171966832Y-72667796D01*
X173420788Y-74121753D01*
X173466972Y-74178028D01*
X173523247Y-74224212D01*
X173523248Y-74224213D01*
X173613326Y-74298138D01*
X173691569Y-74362351D01*
X173947811Y-74499315D01*
X174129277Y-74554362D01*
X174225849Y-74583657D01*
X174256279Y-74586654D01*
X174442548Y-74605000D01*
X174442554Y-74605000D01*
X174514999Y-74612135D01*
X174587444Y-74605000D01*
X175829749Y-74605000D01*
X175813498Y-74770000D01*
X175813498Y-76570000D01*
X175834736Y-76785638D01*
X175897636Y-76992988D01*
X175999778Y-77184084D01*
X176137239Y-77351581D01*
X176304736Y-77489042D01*
X176495832Y-77591184D01*
X176703182Y-77654084D01*
X176918820Y-77675322D01*
X178718820Y-77675322D01*
X178934458Y-77654084D01*
X179141808Y-77591184D01*
X179332904Y-77489042D01*
X179500401Y-77351581D01*
X179637862Y-77184084D01*
X179740004Y-76992988D01*
X179802904Y-76785638D01*
X179824142Y-76570000D01*
X179824142Y-74770000D01*
X179802904Y-74554362D01*
X179800000Y-74544789D01*
X179800000Y-74041599D01*
X180319442Y-73781878D01*
X180474478Y-73684284D01*
X180542736Y-73740302D01*
X180733832Y-73842444D01*
X180941182Y-73905344D01*
X181156820Y-73926582D01*
X181908125Y-73926582D01*
X181623894Y-74116499D01*
X181345319Y-74395074D01*
X181126443Y-74722645D01*
X180975679Y-75086622D01*
X180898820Y-75473017D01*
X180898820Y-75866983D01*
X180975679Y-76253378D01*
X181126443Y-76617355D01*
X181345319Y-76944926D01*
X181623894Y-77223501D01*
X181951465Y-77442377D01*
X182315442Y-77593141D01*
X182701837Y-77670000D01*
X183095803Y-77670000D01*
X183482198Y-77593141D01*
X183846175Y-77442377D01*
X184173746Y-77223501D01*
X184252247Y-77145000D01*
X187887238Y-77145000D01*
X188151874Y-77362181D01*
X188120825Y-77399777D01*
X187985902Y-77650331D01*
X187909750Y-77884549D01*
X188001592Y-78110000D01*
X189272820Y-78110000D01*
X189272820Y-78090000D01*
X189472820Y-78090000D01*
X189472820Y-78110000D01*
X190744048Y-78110000D01*
X190835890Y-77884549D01*
X190759738Y-77650331D01*
X190624815Y-77399777D01*
X190593766Y-77362181D01*
X190878679Y-77128359D01*
X191135169Y-76815825D01*
X191325758Y-76459258D01*
X191443122Y-76072360D01*
X191482751Y-75670000D01*
X191475982Y-75601272D01*
X194024269Y-75601272D01*
X194389504Y-76056518D01*
X195027982Y-76408013D01*
X195722764Y-76628194D01*
X196447152Y-76708599D01*
X197173307Y-76646137D01*
X197873323Y-76443211D01*
X198520301Y-76107617D01*
X198596776Y-76056518D01*
X198962011Y-75601272D01*
X196493140Y-73132401D01*
X194024269Y-75601272D01*
X191475982Y-75601272D01*
X191443122Y-75267640D01*
X191325758Y-74880742D01*
X191252779Y-74744207D01*
X191291862Y-74696584D01*
X191394004Y-74505488D01*
X191456904Y-74298138D01*
X191478142Y-74082500D01*
X191478142Y-72944992D01*
X192775521Y-72944992D01*
X192837983Y-73671147D01*
X193040909Y-74371163D01*
X193376503Y-75018141D01*
X193427602Y-75094616D01*
X193882848Y-75459851D01*
X196351719Y-72990980D01*
X193882848Y-70522109D01*
X193427602Y-70887344D01*
X193076107Y-71525822D01*
X192855926Y-72220604D01*
X192775521Y-72944992D01*
X191478142Y-72944992D01*
X191478142Y-72177500D01*
X191456904Y-71961862D01*
X191394004Y-71754512D01*
X191291862Y-71563416D01*
X191154401Y-71395919D01*
X191034572Y-71297578D01*
X191008272Y-71210878D01*
X190939875Y-71082915D01*
X190882915Y-70976350D01*
X190756490Y-70822301D01*
X190756483Y-70822294D01*
X190714212Y-70770787D01*
X190662706Y-70728517D01*
X190314877Y-70380688D01*
X194024269Y-70380688D01*
X196493140Y-72849559D01*
X198962011Y-70380688D01*
X198596776Y-69925442D01*
X197958298Y-69573947D01*
X197263516Y-69353766D01*
X196539128Y-69273361D01*
X195812973Y-69335823D01*
X195112957Y-69538749D01*
X194465979Y-69874343D01*
X194389504Y-69925442D01*
X194024269Y-70380688D01*
X190314877Y-70380688D01*
X189109188Y-69175000D01*
X198013300Y-69175000D01*
X199325001Y-70486702D01*
X199325001Y-70699869D01*
X199103432Y-70522109D01*
X196634561Y-72990980D01*
X199103432Y-75459851D01*
X199325001Y-75282091D01*
X199325000Y-110699869D01*
X199103432Y-110522109D01*
X196634561Y-112990980D01*
X199103432Y-115459851D01*
X199325000Y-115282091D01*
X199325000Y-115513299D01*
X198013300Y-116825000D01*
X185461223Y-116825000D01*
X185598671Y-116768067D01*
X185918052Y-116554664D01*
X186189664Y-116283052D01*
X186338152Y-116060823D01*
X186504570Y-116187954D01*
X186742175Y-116304494D01*
X186905625Y-116354072D01*
X187115000Y-116260912D01*
X187115000Y-115140000D01*
X187315000Y-115140000D01*
X187315000Y-116260912D01*
X187524375Y-116354072D01*
X187687825Y-116304494D01*
X187925430Y-116187954D01*
X188135734Y-116027298D01*
X188310655Y-115828701D01*
X188403437Y-115668791D01*
X188402581Y-115890000D01*
X188412235Y-115988017D01*
X188440825Y-116082267D01*
X188487254Y-116169129D01*
X188549736Y-116245264D01*
X188625871Y-116307746D01*
X188712733Y-116354175D01*
X188806983Y-116382765D01*
X188905000Y-116392419D01*
X189530000Y-116390000D01*
X189655000Y-116265000D01*
X189655000Y-115140000D01*
X189855000Y-115140000D01*
X189855000Y-116265000D01*
X189980000Y-116390000D01*
X190605000Y-116392419D01*
X190703017Y-116382765D01*
X190797267Y-116354175D01*
X190884129Y-116307746D01*
X190960264Y-116245264D01*
X191022746Y-116169129D01*
X191069175Y-116082267D01*
X191097765Y-115988017D01*
X191107419Y-115890000D01*
X191106302Y-115601272D01*
X194024269Y-115601272D01*
X194389504Y-116056518D01*
X195027982Y-116408013D01*
X195722764Y-116628194D01*
X196447152Y-116708599D01*
X197173307Y-116646137D01*
X197873323Y-116443211D01*
X198520301Y-116107617D01*
X198596776Y-116056518D01*
X198962011Y-115601272D01*
X196493140Y-113132401D01*
X194024269Y-115601272D01*
X191106302Y-115601272D01*
X191105000Y-115265000D01*
X190980000Y-115140000D01*
X189855000Y-115140000D01*
X189655000Y-115140000D01*
X188530000Y-115140000D01*
X188465068Y-115204932D01*
X188436295Y-115140000D01*
X187315000Y-115140000D01*
X187115000Y-115140000D01*
X187095000Y-115140000D01*
X187095000Y-114940000D01*
X187115000Y-114940000D01*
X187115000Y-113819088D01*
X187315000Y-113819088D01*
X187315000Y-114940000D01*
X188436295Y-114940000D01*
X188465068Y-114875068D01*
X188530000Y-114940000D01*
X189655000Y-114940000D01*
X189655000Y-113815000D01*
X189855000Y-113815000D01*
X189855000Y-114940000D01*
X190980000Y-114940000D01*
X191105000Y-114815000D01*
X191107419Y-114190000D01*
X191097765Y-114091983D01*
X191069175Y-113997733D01*
X191022746Y-113910871D01*
X190960264Y-113834736D01*
X190884129Y-113772254D01*
X190797267Y-113725825D01*
X190703017Y-113697235D01*
X190605000Y-113687581D01*
X189980000Y-113690000D01*
X189855000Y-113815000D01*
X189655000Y-113815000D01*
X189530000Y-113690000D01*
X188905000Y-113687581D01*
X188806983Y-113697235D01*
X188712733Y-113725825D01*
X188625871Y-113772254D01*
X188549736Y-113834736D01*
X188487254Y-113910871D01*
X188440825Y-113997733D01*
X188412235Y-114091983D01*
X188402581Y-114190000D01*
X188403437Y-114411209D01*
X188310655Y-114251299D01*
X188135734Y-114052702D01*
X187925430Y-113892046D01*
X187687825Y-113775506D01*
X187524375Y-113725928D01*
X187315000Y-113819088D01*
X187115000Y-113819088D01*
X186905625Y-113725928D01*
X186761242Y-113769723D01*
X187190965Y-113340000D01*
X187777555Y-113340000D01*
X187850000Y-113347135D01*
X187922445Y-113340000D01*
X187922452Y-113340000D01*
X188139150Y-113318657D01*
X188417189Y-113234315D01*
X188673431Y-113097351D01*
X188859079Y-112944992D01*
X192775521Y-112944992D01*
X192837983Y-113671147D01*
X193040909Y-114371163D01*
X193376503Y-115018141D01*
X193427602Y-115094616D01*
X193882848Y-115459851D01*
X196351719Y-112990980D01*
X193882848Y-110522109D01*
X193427602Y-110887344D01*
X193076107Y-111525822D01*
X192855926Y-112220604D01*
X192775521Y-112944992D01*
X188859079Y-112944992D01*
X188898028Y-112913028D01*
X188944216Y-112856748D01*
X189476748Y-112324216D01*
X189533028Y-112278028D01*
X189717351Y-112053431D01*
X189854315Y-111797189D01*
X189938657Y-111519150D01*
X189960000Y-111302452D01*
X189960000Y-111302445D01*
X189967135Y-111230000D01*
X189960000Y-111157555D01*
X189960000Y-110380688D01*
X194024269Y-110380688D01*
X196493140Y-112849559D01*
X198962011Y-110380688D01*
X198596776Y-109925442D01*
X197958298Y-109573947D01*
X197263516Y-109353766D01*
X196539128Y-109273361D01*
X195812973Y-109335823D01*
X195112957Y-109538749D01*
X194465979Y-109874343D01*
X194389504Y-109925442D01*
X194024269Y-110380688D01*
X189960000Y-110380688D01*
X189960000Y-109972716D01*
X189999664Y-109933052D01*
X190148152Y-109710823D01*
X190314570Y-109837954D01*
X190552175Y-109954494D01*
X190715625Y-110004072D01*
X190925000Y-109910912D01*
X190925000Y-108790000D01*
X191125000Y-108790000D01*
X191125000Y-109910912D01*
X191334375Y-110004072D01*
X191497825Y-109954494D01*
X191735430Y-109837954D01*
X191945734Y-109677298D01*
X192120655Y-109478701D01*
X192253470Y-109249795D01*
X192339076Y-108999376D01*
X192246295Y-108790000D01*
X191125000Y-108790000D01*
X190925000Y-108790000D01*
X190905000Y-108790000D01*
X190905000Y-108590000D01*
X190925000Y-108590000D01*
X190925000Y-107469088D01*
X191125000Y-107469088D01*
X191125000Y-108590000D01*
X192246295Y-108590000D01*
X192339076Y-108380624D01*
X192253470Y-108130205D01*
X192120655Y-107901299D01*
X191945734Y-107702702D01*
X191735430Y-107542046D01*
X191497825Y-107425506D01*
X191334375Y-107375928D01*
X191125000Y-107469088D01*
X190925000Y-107469088D01*
X190715625Y-107375928D01*
X190552175Y-107425506D01*
X190314570Y-107542046D01*
X190148152Y-107669177D01*
X189999664Y-107446948D01*
X189960000Y-107407284D01*
X189960000Y-82727444D01*
X189967135Y-82654999D01*
X189960000Y-82582554D01*
X189960000Y-82582548D01*
X189938657Y-82365850D01*
X189938122Y-82364084D01*
X189913072Y-82281507D01*
X189854315Y-82087811D01*
X189717351Y-81831569D01*
X189654803Y-81755355D01*
X189579213Y-81663248D01*
X189579208Y-81663243D01*
X189533027Y-81606972D01*
X189476758Y-81560793D01*
X187039216Y-79123252D01*
X186993028Y-79066972D01*
X186768431Y-78882649D01*
X186512189Y-78745685D01*
X186234150Y-78661343D01*
X186017452Y-78640000D01*
X186017445Y-78640000D01*
X185945000Y-78632865D01*
X185872555Y-78640000D01*
X176698438Y-78640000D01*
X176602602Y-78535451D01*
X187909750Y-78535451D01*
X187985902Y-78769669D01*
X188120825Y-79020223D01*
X188302036Y-79239640D01*
X188522571Y-79419489D01*
X188773955Y-79552858D01*
X189046528Y-79634621D01*
X189272820Y-79535694D01*
X189272820Y-78310000D01*
X189472820Y-78310000D01*
X189472820Y-79535694D01*
X189699112Y-79634621D01*
X189971685Y-79552858D01*
X190223069Y-79419489D01*
X190443604Y-79239640D01*
X190624815Y-79020223D01*
X190759738Y-78769669D01*
X190835890Y-78535451D01*
X190744048Y-78310000D01*
X189472820Y-78310000D01*
X189272820Y-78310000D01*
X188001592Y-78310000D01*
X187909750Y-78535451D01*
X176602602Y-78535451D01*
X173089573Y-74703057D01*
X173023028Y-74621972D01*
X172935499Y-74550138D01*
X172851183Y-74474580D01*
X172823396Y-74458137D01*
X172798431Y-74437649D01*
X172698559Y-74384266D01*
X172601132Y-74326615D01*
X172570672Y-74315910D01*
X172542189Y-74300685D01*
X172433827Y-74267814D01*
X172327019Y-74230275D01*
X172295053Y-74225717D01*
X172264150Y-74216343D01*
X172151454Y-74205243D01*
X172039379Y-74189264D01*
X171984961Y-74192245D01*
X171948052Y-74155336D01*
X171724056Y-74005667D01*
X171800655Y-73918701D01*
X171933470Y-73689795D01*
X172019076Y-73439376D01*
X171926295Y-73230000D01*
X170805000Y-73230000D01*
X170805000Y-73250000D01*
X170605000Y-73250000D01*
X170605000Y-73230000D01*
X169483705Y-73230000D01*
X169435000Y-73339911D01*
X169386295Y-73230000D01*
X168265000Y-73230000D01*
X168265000Y-73250000D01*
X168065000Y-73250000D01*
X168065000Y-73230000D01*
X166943705Y-73230000D01*
X166914932Y-73294932D01*
X166850000Y-73230000D01*
X165725000Y-73230000D01*
X165725000Y-73250000D01*
X165525000Y-73250000D01*
X165525000Y-73230000D01*
X164400000Y-73230000D01*
X164275000Y-73355000D01*
X164273119Y-73840985D01*
X164160916Y-73900958D01*
X163993419Y-74038419D01*
X163864917Y-74195000D01*
X158455900Y-74195000D01*
X158506162Y-74144738D01*
X158415555Y-74054131D01*
X158645489Y-73953091D01*
X158777656Y-73688824D01*
X158855728Y-73403850D01*
X158876703Y-73109121D01*
X158839777Y-72815963D01*
X158746369Y-72535642D01*
X158645489Y-72346909D01*
X158415554Y-72245868D01*
X157511421Y-73150000D01*
X157525564Y-73164142D01*
X157384142Y-73305564D01*
X157370000Y-73291421D01*
X156465868Y-74195554D01*
X156473794Y-74213591D01*
X156445849Y-74216343D01*
X156308805Y-74257915D01*
X156167811Y-74300685D01*
X155911569Y-74437649D01*
X155686972Y-74621972D01*
X155640788Y-74678247D01*
X152568248Y-77750788D01*
X152511973Y-77796972D01*
X152327650Y-78021569D01*
X152290351Y-78091351D01*
X152190685Y-78277812D01*
X152106343Y-78555850D01*
X152077865Y-78845000D01*
X152085001Y-78917455D01*
X152085000Y-81948323D01*
X152077865Y-82021550D01*
X152092145Y-82164991D01*
X152106343Y-82309149D01*
X152106570Y-82309898D01*
X152106647Y-82310670D01*
X152148667Y-82448672D01*
X152190685Y-82587188D01*
X152191052Y-82587875D01*
X152191279Y-82588620D01*
X152259577Y-82716076D01*
X152327649Y-82843430D01*
X152328143Y-82844031D01*
X152328511Y-82844719D01*
X152420590Y-82956679D01*
X152511972Y-83068027D01*
X152512571Y-83068519D01*
X152513069Y-83069124D01*
X152624962Y-83160757D01*
X152736569Y-83252351D01*
X152801462Y-83287037D01*
X153990001Y-84079397D01*
X153990001Y-84869845D01*
X153848807Y-84775502D01*
X153503029Y-84632276D01*
X153135954Y-84559260D01*
X152761686Y-84559260D01*
X152394611Y-84632276D01*
X152048833Y-84775502D01*
X151737641Y-84983434D01*
X151472994Y-85248081D01*
X151297251Y-85511098D01*
X151292733Y-85505998D01*
X151089777Y-85351872D01*
X150860652Y-85240302D01*
X150710351Y-85194713D01*
X150508820Y-85288523D01*
X150508820Y-86359260D01*
X150528820Y-86359260D01*
X150528820Y-86559260D01*
X150508820Y-86559260D01*
X150508820Y-87629997D01*
X150710351Y-87723807D01*
X150860652Y-87678218D01*
X151089777Y-87566648D01*
X151292733Y-87412522D01*
X151297251Y-87407422D01*
X151472994Y-87670439D01*
X151737641Y-87935086D01*
X152048833Y-88143018D01*
X152394611Y-88286244D01*
X152761686Y-88359260D01*
X153135954Y-88359260D01*
X153503029Y-88286244D01*
X153848807Y-88143018D01*
X154159999Y-87935086D01*
X154218820Y-87876265D01*
X154277641Y-87935086D01*
X154588833Y-88143018D01*
X154934611Y-88286244D01*
X155301686Y-88359260D01*
X155675954Y-88359260D01*
X156043029Y-88286244D01*
X156388807Y-88143018D01*
X156699999Y-87935086D01*
X156758820Y-87876265D01*
X156817641Y-87935086D01*
X157128833Y-88143018D01*
X157474611Y-88286244D01*
X157841686Y-88359260D01*
X158215954Y-88359260D01*
X158583029Y-88286244D01*
X158928807Y-88143018D01*
X159239999Y-87935086D01*
X159298820Y-87876265D01*
X159357641Y-87935086D01*
X159668833Y-88143018D01*
X160014611Y-88286244D01*
X160381686Y-88359260D01*
X160755954Y-88359260D01*
X161123029Y-88286244D01*
X161468807Y-88143018D01*
X161779999Y-87935086D01*
X161838820Y-87876265D01*
X161897641Y-87935086D01*
X162208833Y-88143018D01*
X162554611Y-88286244D01*
X162921686Y-88359260D01*
X163295954Y-88359260D01*
X163663029Y-88286244D01*
X164008807Y-88143018D01*
X164319999Y-87935086D01*
X164378820Y-87876265D01*
X164437641Y-87935086D01*
X164748833Y-88143018D01*
X165094611Y-88286244D01*
X165461686Y-88359260D01*
X165835954Y-88359260D01*
X166203029Y-88286244D01*
X166548807Y-88143018D01*
X166859999Y-87935086D01*
X166918820Y-87876265D01*
X166977641Y-87935086D01*
X167288833Y-88143018D01*
X167634611Y-88286244D01*
X168001686Y-88359260D01*
X168375954Y-88359260D01*
X168743029Y-88286244D01*
X169088807Y-88143018D01*
X169399999Y-87935086D01*
X169458820Y-87876265D01*
X169517641Y-87935086D01*
X169828833Y-88143018D01*
X170174611Y-88286244D01*
X170541686Y-88359260D01*
X170915954Y-88359260D01*
X171283029Y-88286244D01*
X171628807Y-88143018D01*
X171910140Y-87955037D01*
X171914533Y-87999645D01*
X171991728Y-88254121D01*
X171991729Y-88254122D01*
X172117085Y-88488649D01*
X172243510Y-88642698D01*
X172243513Y-88642701D01*
X172285787Y-88694212D01*
X172337299Y-88736487D01*
X183400072Y-99799260D01*
X183241686Y-99799260D01*
X182874611Y-99872276D01*
X182528833Y-100015502D01*
X182217641Y-100223434D01*
X182158820Y-100282255D01*
X182099999Y-100223434D01*
X181788807Y-100015502D01*
X181443029Y-99872276D01*
X181075954Y-99799260D01*
X180701686Y-99799260D01*
X180334611Y-99872276D01*
X179988833Y-100015502D01*
X179677641Y-100223434D01*
X179618820Y-100282255D01*
X179559999Y-100223434D01*
X179248807Y-100015502D01*
X178903029Y-99872276D01*
X178535954Y-99799260D01*
X178161686Y-99799260D01*
X177794611Y-99872276D01*
X177448833Y-100015502D01*
X177137641Y-100223434D01*
X177078820Y-100282255D01*
X177019999Y-100223434D01*
X176708807Y-100015502D01*
X176363029Y-99872276D01*
X175995954Y-99799260D01*
X175621686Y-99799260D01*
X175254611Y-99872276D01*
X174908833Y-100015502D01*
X174597641Y-100223434D01*
X174538820Y-100282255D01*
X174479999Y-100223434D01*
X174168807Y-100015502D01*
X173823029Y-99872276D01*
X173455954Y-99799260D01*
X173081686Y-99799260D01*
X172714611Y-99872276D01*
X172368833Y-100015502D01*
X172057641Y-100223434D01*
X171998820Y-100282255D01*
X171939999Y-100223434D01*
X171628807Y-100015502D01*
X171283029Y-99872276D01*
X170915954Y-99799260D01*
X170541686Y-99799260D01*
X170174611Y-99872276D01*
X169828833Y-100015502D01*
X169517641Y-100223434D01*
X169458820Y-100282255D01*
X169399999Y-100223434D01*
X169088807Y-100015502D01*
X168743029Y-99872276D01*
X168375954Y-99799260D01*
X168001686Y-99799260D01*
X167634611Y-99872276D01*
X167288833Y-100015502D01*
X166977641Y-100223434D01*
X166918820Y-100282255D01*
X166859999Y-100223434D01*
X166548807Y-100015502D01*
X166203029Y-99872276D01*
X165835954Y-99799260D01*
X165461686Y-99799260D01*
X165094611Y-99872276D01*
X164748833Y-100015502D01*
X164437641Y-100223434D01*
X164378820Y-100282255D01*
X164319999Y-100223434D01*
X164008807Y-100015502D01*
X163663029Y-99872276D01*
X163295954Y-99799260D01*
X162921686Y-99799260D01*
X162554611Y-99872276D01*
X162208833Y-100015502D01*
X161897641Y-100223434D01*
X161838820Y-100282255D01*
X161779999Y-100223434D01*
X161468807Y-100015502D01*
X161123029Y-99872276D01*
X160755954Y-99799260D01*
X160381686Y-99799260D01*
X160014611Y-99872276D01*
X159668833Y-100015502D01*
X159357641Y-100223434D01*
X159355000Y-100226075D01*
X159355000Y-99866310D01*
X159361531Y-99799999D01*
X159355000Y-99733688D01*
X159355000Y-99733679D01*
X159335467Y-99535354D01*
X159258272Y-99280878D01*
X159132915Y-99046351D01*
X158964212Y-98840787D01*
X158912701Y-98798513D01*
X156466491Y-96352303D01*
X156424213Y-96300787D01*
X156218649Y-96132085D01*
X155984122Y-96006728D01*
X155729646Y-95929533D01*
X155531321Y-95910000D01*
X155531319Y-95910000D01*
X155465000Y-95903468D01*
X155398681Y-95910000D01*
X145995091Y-95910000D01*
X145917497Y-95903655D01*
X145796567Y-95917595D01*
X145675354Y-95929533D01*
X145664539Y-95932814D01*
X145653320Y-95934107D01*
X145537421Y-95971375D01*
X145420878Y-96006728D01*
X145410915Y-96012053D01*
X145400159Y-96015512D01*
X145293751Y-96074679D01*
X145186351Y-96132085D01*
X145177615Y-96139254D01*
X145167744Y-96144743D01*
X145074912Y-96223540D01*
X144980787Y-96300787D01*
X144973622Y-96309518D01*
X144965006Y-96316831D01*
X144889333Y-96412224D01*
X144812085Y-96506351D01*
X144775379Y-96575023D01*
X144508407Y-96989290D01*
X144538820Y-96836394D01*
X144538820Y-96462126D01*
X144465804Y-96095051D01*
X144322578Y-95749273D01*
X144114646Y-95438081D01*
X143849999Y-95173434D01*
X143538807Y-94965502D01*
X143193029Y-94822276D01*
X142825954Y-94749260D01*
X142451686Y-94749260D01*
X142084611Y-94822276D01*
X141738833Y-94965502D01*
X141427641Y-95173434D01*
X141162994Y-95438081D01*
X140955062Y-95749273D01*
X140811836Y-96095051D01*
X140738820Y-96462126D01*
X140738820Y-96836394D01*
X140811836Y-97203469D01*
X140955062Y-97549247D01*
X141162994Y-97860439D01*
X141221815Y-97919260D01*
X141162994Y-97978081D01*
X140955062Y-98289273D01*
X140811836Y-98635051D01*
X140738820Y-99002126D01*
X140738820Y-99376394D01*
X140811836Y-99743469D01*
X140955062Y-100089247D01*
X141162994Y-100400439D01*
X141427641Y-100665086D01*
X141690658Y-100840829D01*
X141685558Y-100845347D01*
X141531432Y-101048303D01*
X141419862Y-101277428D01*
X141374273Y-101427729D01*
X141468083Y-101629260D01*
X142538820Y-101629260D01*
X142538820Y-101609260D01*
X142738820Y-101609260D01*
X142738820Y-101629260D01*
X143809557Y-101629260D01*
X143903367Y-101427729D01*
X143857778Y-101277428D01*
X143746208Y-101048303D01*
X143592082Y-100845347D01*
X143586982Y-100840829D01*
X143849999Y-100665086D01*
X144066050Y-100449035D01*
X144760026Y-100412872D01*
X144802502Y-100416345D01*
X144892533Y-100405967D01*
X144916483Y-100404719D01*
X144958382Y-100398377D01*
X145066679Y-100385893D01*
X145089655Y-100378505D01*
X145113523Y-100374892D01*
X145216062Y-100337858D01*
X145319840Y-100304488D01*
X145340937Y-100292758D01*
X145363637Y-100284559D01*
X145456967Y-100228241D01*
X145552255Y-100175258D01*
X145570659Y-100159636D01*
X145591323Y-100147167D01*
X145671880Y-100073717D01*
X145754992Y-100003169D01*
X145769992Y-99984261D01*
X145787829Y-99967997D01*
X145852510Y-99880240D01*
X145878844Y-99847044D01*
X145891836Y-99826883D01*
X145945605Y-99753932D01*
X145963711Y-99715354D01*
X146676050Y-98610000D01*
X154905812Y-98610000D01*
X156655000Y-100359188D01*
X156655000Y-100386075D01*
X156552994Y-100488081D01*
X156377251Y-100751098D01*
X156372733Y-100745998D01*
X156169777Y-100591872D01*
X155940652Y-100480302D01*
X155790351Y-100434713D01*
X155588820Y-100528523D01*
X155588820Y-101599260D01*
X155608820Y-101599260D01*
X155608820Y-101799260D01*
X155588820Y-101799260D01*
X155588820Y-102869997D01*
X155790351Y-102963807D01*
X155940652Y-102918218D01*
X156169777Y-102806648D01*
X156372733Y-102652522D01*
X156377251Y-102647422D01*
X156552994Y-102910439D01*
X156817641Y-103175086D01*
X157128833Y-103383018D01*
X157474611Y-103526244D01*
X157841686Y-103599260D01*
X158215954Y-103599260D01*
X158583029Y-103526244D01*
X158928807Y-103383018D01*
X159239999Y-103175086D01*
X159298820Y-103116265D01*
X159357641Y-103175086D01*
X159668833Y-103383018D01*
X160014611Y-103526244D01*
X160381686Y-103599260D01*
X160755954Y-103599260D01*
X161123029Y-103526244D01*
X161468807Y-103383018D01*
X161735000Y-103205153D01*
X161735001Y-104157502D01*
X150960755Y-111340333D01*
X150901351Y-111372085D01*
X150798979Y-111456100D01*
X150696791Y-111539784D01*
X150696335Y-111540338D01*
X150695787Y-111540788D01*
X150611947Y-111642947D01*
X150527875Y-111745172D01*
X150527539Y-111745798D01*
X150527085Y-111746352D01*
X150464570Y-111863310D01*
X150402272Y-111979568D01*
X150402065Y-111980249D01*
X150401728Y-111980879D01*
X150363269Y-112107662D01*
X150324811Y-112233963D01*
X150324741Y-112234671D01*
X150324533Y-112235355D01*
X150311559Y-112367088D01*
X150298469Y-112498581D01*
X150305000Y-112565609D01*
X150305000Y-113632284D01*
X150140336Y-113796948D01*
X149991848Y-114019177D01*
X149825430Y-113892046D01*
X149587825Y-113775506D01*
X149424375Y-113725928D01*
X149215000Y-113819088D01*
X149215000Y-114940000D01*
X149235000Y-114940000D01*
X149235000Y-115140000D01*
X149215000Y-115140000D01*
X149215000Y-116260912D01*
X149424375Y-116354072D01*
X149587825Y-116304494D01*
X149825430Y-116187954D01*
X149991848Y-116060823D01*
X150140336Y-116283052D01*
X150411948Y-116554664D01*
X150731329Y-116768067D01*
X150868777Y-116825000D01*
X138926820Y-116825000D01*
X138926820Y-115645136D01*
X138962011Y-115601272D01*
X138926820Y-115566081D01*
X138926820Y-115283239D01*
X139103432Y-115459851D01*
X139241133Y-115349376D01*
X147800924Y-115349376D01*
X147886530Y-115599795D01*
X148019345Y-115828701D01*
X148194266Y-116027298D01*
X148404570Y-116187954D01*
X148642175Y-116304494D01*
X148805625Y-116354072D01*
X149015000Y-116260912D01*
X149015000Y-115140000D01*
X147893705Y-115140000D01*
X147800924Y-115349376D01*
X139241133Y-115349376D01*
X139558678Y-115094616D01*
X139759062Y-114730624D01*
X147800924Y-114730624D01*
X147893705Y-114940000D01*
X149015000Y-114940000D01*
X149015000Y-113819088D01*
X148805625Y-113725928D01*
X148642175Y-113775506D01*
X148404570Y-113892046D01*
X148194266Y-114052702D01*
X148019345Y-114251299D01*
X147886530Y-114480205D01*
X147800924Y-114730624D01*
X139759062Y-114730624D01*
X139910173Y-114456138D01*
X140130354Y-113761356D01*
X140176013Y-113350000D01*
X143952581Y-113350000D01*
X143962235Y-113448017D01*
X143990825Y-113542267D01*
X144037254Y-113629129D01*
X144099736Y-113705264D01*
X144175871Y-113767746D01*
X144262733Y-113814175D01*
X144356983Y-113842765D01*
X144455000Y-113852419D01*
X145080000Y-113850000D01*
X145205000Y-113725000D01*
X145205000Y-112600000D01*
X145405000Y-112600000D01*
X145405000Y-113725000D01*
X145530000Y-113850000D01*
X146155000Y-113852419D01*
X146253017Y-113842765D01*
X146347267Y-113814175D01*
X146434129Y-113767746D01*
X146510264Y-113705264D01*
X146572746Y-113629129D01*
X146619175Y-113542267D01*
X146647765Y-113448017D01*
X146657419Y-113350000D01*
X146655000Y-112725000D01*
X146530000Y-112600000D01*
X145405000Y-112600000D01*
X145205000Y-112600000D01*
X144080000Y-112600000D01*
X143955000Y-112725000D01*
X143952581Y-113350000D01*
X140176013Y-113350000D01*
X140210759Y-113036968D01*
X140148297Y-112310813D01*
X139945371Y-111610797D01*
X139609777Y-110963819D01*
X139558678Y-110887344D01*
X139103432Y-110522109D01*
X138926820Y-110698721D01*
X138926820Y-110415879D01*
X138962011Y-110380688D01*
X138926820Y-110336824D01*
X138926820Y-107227942D01*
X143355000Y-107227942D01*
X143355000Y-107612058D01*
X143429938Y-107988794D01*
X143576933Y-108343671D01*
X143790336Y-108663052D01*
X143817284Y-108690000D01*
X143790336Y-108716948D01*
X143576933Y-109036329D01*
X143429938Y-109391206D01*
X143355000Y-109767942D01*
X143355000Y-110152058D01*
X143429938Y-110528794D01*
X143576933Y-110883671D01*
X143790336Y-111203052D01*
X144009702Y-111422418D01*
X143990825Y-111457733D01*
X143962235Y-111551983D01*
X143952581Y-111650000D01*
X143955000Y-112275000D01*
X144080000Y-112400000D01*
X145205000Y-112400000D01*
X145205000Y-112380000D01*
X145405000Y-112380000D01*
X145405000Y-112400000D01*
X146530000Y-112400000D01*
X146655000Y-112275000D01*
X146657419Y-111650000D01*
X146647765Y-111551983D01*
X146619175Y-111457733D01*
X146600298Y-111422418D01*
X146712716Y-111310000D01*
X147778681Y-111310000D01*
X147845000Y-111316532D01*
X147911319Y-111310000D01*
X147911321Y-111310000D01*
X148109646Y-111290467D01*
X148364122Y-111213272D01*
X148598649Y-111087915D01*
X148804213Y-110919213D01*
X148846491Y-110867697D01*
X151292698Y-108421490D01*
X151344213Y-108379213D01*
X151512915Y-108173649D01*
X151638272Y-107939122D01*
X151715467Y-107684646D01*
X151735000Y-107486321D01*
X151735000Y-107486312D01*
X151741531Y-107420001D01*
X151735000Y-107353690D01*
X151735000Y-103172445D01*
X151737641Y-103175086D01*
X152048833Y-103383018D01*
X152394611Y-103526244D01*
X152761686Y-103599260D01*
X153135954Y-103599260D01*
X153503029Y-103526244D01*
X153848807Y-103383018D01*
X154159999Y-103175086D01*
X154424646Y-102910439D01*
X154600389Y-102647422D01*
X154604907Y-102652522D01*
X154807863Y-102806648D01*
X155036988Y-102918218D01*
X155187289Y-102963807D01*
X155388820Y-102869997D01*
X155388820Y-101799260D01*
X155368820Y-101799260D01*
X155368820Y-101599260D01*
X155388820Y-101599260D01*
X155388820Y-100528523D01*
X155187289Y-100434713D01*
X155036988Y-100480302D01*
X154807863Y-100591872D01*
X154604907Y-100745998D01*
X154600389Y-100751098D01*
X154424646Y-100488081D01*
X154159999Y-100223434D01*
X153848807Y-100015502D01*
X153503029Y-99872276D01*
X153135954Y-99799260D01*
X152761686Y-99799260D01*
X152394611Y-99872276D01*
X152048833Y-100015502D01*
X151737641Y-100223434D01*
X151678820Y-100282255D01*
X151619999Y-100223434D01*
X151308807Y-100015502D01*
X150963029Y-99872276D01*
X150595954Y-99799260D01*
X150221686Y-99799260D01*
X149854611Y-99872276D01*
X149508833Y-100015502D01*
X149407997Y-100082879D01*
X149282904Y-99980218D01*
X149091808Y-99878076D01*
X148884458Y-99815176D01*
X148668820Y-99793938D01*
X147068820Y-99793938D01*
X146853182Y-99815176D01*
X146645832Y-99878076D01*
X146454736Y-99980218D01*
X146287239Y-100117679D01*
X146149778Y-100285176D01*
X146047636Y-100476272D01*
X145984736Y-100683622D01*
X145963498Y-100899260D01*
X145963498Y-102499260D01*
X145984736Y-102714898D01*
X146047636Y-102922248D01*
X146149778Y-103113344D01*
X146287239Y-103280841D01*
X146454736Y-103418302D01*
X146495000Y-103439824D01*
X146495001Y-104955810D01*
X145896478Y-105554334D01*
X145873794Y-105544938D01*
X145497058Y-105470000D01*
X145112942Y-105470000D01*
X144736206Y-105544938D01*
X144381329Y-105691933D01*
X144061948Y-105905336D01*
X143790336Y-106176948D01*
X143576933Y-106496329D01*
X143429938Y-106851206D01*
X143355000Y-107227942D01*
X138926820Y-107227942D01*
X138926820Y-102030791D01*
X141374273Y-102030791D01*
X141419862Y-102181092D01*
X141531432Y-102410217D01*
X141685558Y-102613173D01*
X141876318Y-102782161D01*
X142096380Y-102910687D01*
X142337288Y-102993811D01*
X142538820Y-102900412D01*
X142538820Y-101829260D01*
X142738820Y-101829260D01*
X142738820Y-102900412D01*
X142940352Y-102993811D01*
X143181260Y-102910687D01*
X143401322Y-102782161D01*
X143592082Y-102613173D01*
X143746208Y-102410217D01*
X143857778Y-102181092D01*
X143903367Y-102030791D01*
X143809557Y-101829260D01*
X142738820Y-101829260D01*
X142538820Y-101829260D01*
X141468083Y-101829260D01*
X141374273Y-102030791D01*
X138926820Y-102030791D01*
X138926820Y-90745000D01*
X140713498Y-90745000D01*
X140713498Y-92345000D01*
X140734736Y-92560638D01*
X140797636Y-92767988D01*
X140899778Y-92959084D01*
X141037239Y-93126581D01*
X141204736Y-93264042D01*
X141395832Y-93366184D01*
X141603182Y-93429084D01*
X141818820Y-93450322D01*
X143418820Y-93450322D01*
X143634458Y-93429084D01*
X143841808Y-93366184D01*
X144032904Y-93264042D01*
X144200401Y-93126581D01*
X144337862Y-92959084D01*
X144440004Y-92767988D01*
X144502904Y-92560638D01*
X144524142Y-92345000D01*
X144524142Y-90745000D01*
X144502904Y-90529362D01*
X144440004Y-90322012D01*
X144337862Y-90130916D01*
X144200401Y-89963419D01*
X144032904Y-89825958D01*
X143841808Y-89723816D01*
X143724485Y-89688226D01*
X143726208Y-89685957D01*
X143837778Y-89456832D01*
X143883367Y-89306531D01*
X143789557Y-89105000D01*
X142718820Y-89105000D01*
X142718820Y-89125000D01*
X142518820Y-89125000D01*
X142518820Y-89105000D01*
X141448083Y-89105000D01*
X141354273Y-89306531D01*
X141399862Y-89456832D01*
X141511432Y-89685957D01*
X141513155Y-89688226D01*
X141395832Y-89723816D01*
X141204736Y-89825958D01*
X141037239Y-89963419D01*
X140899778Y-90130916D01*
X140797636Y-90322012D01*
X140734736Y-90529362D01*
X140713498Y-90745000D01*
X138926820Y-90745000D01*
X138926820Y-86277866D01*
X140718820Y-86277866D01*
X140718820Y-86652134D01*
X140791836Y-87019209D01*
X140935062Y-87364987D01*
X141142994Y-87676179D01*
X141407641Y-87940826D01*
X141670658Y-88116569D01*
X141665558Y-88121087D01*
X141511432Y-88324043D01*
X141399862Y-88553168D01*
X141354273Y-88703469D01*
X141448083Y-88905000D01*
X142518820Y-88905000D01*
X142518820Y-88885000D01*
X142718820Y-88885000D01*
X142718820Y-88905000D01*
X143789557Y-88905000D01*
X143883367Y-88703469D01*
X143837778Y-88553168D01*
X143726208Y-88324043D01*
X143572082Y-88121087D01*
X143566982Y-88116569D01*
X143829999Y-87940826D01*
X144094646Y-87676179D01*
X144302578Y-87364987D01*
X144445804Y-87019209D01*
X144518820Y-86652134D01*
X144518820Y-86277866D01*
X144445804Y-85910791D01*
X144302578Y-85565013D01*
X144094646Y-85253821D01*
X143829999Y-84989174D01*
X143518807Y-84781242D01*
X143173029Y-84638016D01*
X142805954Y-84565000D01*
X142431686Y-84565000D01*
X142064611Y-84638016D01*
X141718833Y-84781242D01*
X141407641Y-84989174D01*
X141142994Y-85253821D01*
X140935062Y-85565013D01*
X140791836Y-85910791D01*
X140718820Y-86277866D01*
X138926820Y-86277866D01*
X138926820Y-75645136D01*
X138962011Y-75601272D01*
X138926820Y-75566081D01*
X138926820Y-75283239D01*
X139103432Y-75459851D01*
X139558678Y-75094616D01*
X139910173Y-74456138D01*
X140130354Y-73761356D01*
X140210759Y-73036968D01*
X140148297Y-72310813D01*
X139945371Y-71610797D01*
X139609777Y-70963819D01*
X139558678Y-70887344D01*
X139103432Y-70522109D01*
X138926820Y-70698721D01*
X138926820Y-70415879D01*
X138962011Y-70380688D01*
X138926820Y-70336824D01*
X138926820Y-69175000D01*
X143364035Y-69175000D01*
X141765977Y-70773059D01*
G37*
X141765977Y-70773059D02*
X141702490Y-70826657D01*
X141618293Y-70932214D01*
X141532650Y-71036570D01*
X141527769Y-71045702D01*
X141521311Y-71053798D01*
X141459340Y-71173722D01*
X141395685Y-71292812D01*
X141392678Y-71302726D01*
X141387926Y-71311921D01*
X141350553Y-71441593D01*
X141311343Y-71570850D01*
X141310328Y-71581160D01*
X141307461Y-71591106D01*
X141296099Y-71725634D01*
X141282865Y-71860000D01*
X141291008Y-71942681D01*
X141291904Y-72007063D01*
X141154618Y-72144349D01*
X140891967Y-72537434D01*
X140711050Y-72974206D01*
X140618820Y-73437881D01*
X140618820Y-73910639D01*
X140711050Y-74374314D01*
X140891967Y-74811086D01*
X141154618Y-75204171D01*
X141354013Y-75403566D01*
X141291141Y-79395966D01*
X141282865Y-79480000D01*
X141295968Y-79613046D01*
X141306971Y-79746224D01*
X141310194Y-79757485D01*
X141311343Y-79769150D01*
X141350151Y-79897084D01*
X141386924Y-80025557D01*
X141392284Y-80035976D01*
X141395685Y-80047188D01*
X141458673Y-80165030D01*
X141519836Y-80283924D01*
X141527130Y-80293102D01*
X141532650Y-80303430D01*
X141617432Y-80406738D01*
X141700600Y-80511395D01*
X141765016Y-80565980D01*
X143678248Y-82479213D01*
X143706229Y-82502176D01*
X143790336Y-82628052D01*
X144061948Y-82899664D01*
X144381329Y-83113067D01*
X144736206Y-83260062D01*
X145112942Y-83335000D01*
X145497058Y-83335000D01*
X145873794Y-83260062D01*
X146228671Y-83113067D01*
X146285069Y-83075383D01*
X146370001Y-83145084D01*
X146370000Y-85282494D01*
X146185062Y-85559273D01*
X146041836Y-85905051D01*
X145968820Y-86272126D01*
X145968820Y-86646394D01*
X146041836Y-87013469D01*
X146185062Y-87359247D01*
X146392994Y-87670439D01*
X146657641Y-87935086D01*
X146968833Y-88143018D01*
X147314611Y-88286244D01*
X147681686Y-88359260D01*
X148055954Y-88359260D01*
X148423029Y-88286244D01*
X148768807Y-88143018D01*
X149079999Y-87935086D01*
X149344646Y-87670439D01*
X149520389Y-87407422D01*
X149524907Y-87412522D01*
X149727863Y-87566648D01*
X149956988Y-87678218D01*
X150107289Y-87723807D01*
X150308820Y-87629997D01*
X150308820Y-86559260D01*
X150288820Y-86559260D01*
X150288820Y-86359260D01*
X150308820Y-86359260D01*
X150308820Y-85288523D01*
X150107289Y-85194713D01*
X149956988Y-85240302D01*
X149727863Y-85351872D01*
X149524907Y-85505998D01*
X149520389Y-85511098D01*
X149344646Y-85248081D01*
X149320000Y-85223435D01*
X149320000Y-83145083D01*
X149476581Y-83016581D01*
X149614042Y-82849084D01*
X149716184Y-82657988D01*
X149779084Y-82450638D01*
X149800322Y-82235000D01*
X149800322Y-80535000D01*
X149779084Y-80319362D01*
X149716184Y-80112012D01*
X149614042Y-79920916D01*
X149476581Y-79753419D01*
X149309084Y-79615958D01*
X149117988Y-79513816D01*
X148910638Y-79450916D01*
X148695000Y-79429678D01*
X146995000Y-79429678D01*
X146779362Y-79450916D01*
X146572012Y-79513816D01*
X146380916Y-79615958D01*
X146285069Y-79694617D01*
X146228671Y-79656933D01*
X145873794Y-79509938D01*
X145497058Y-79435000D01*
X145112942Y-79435000D01*
X144856896Y-79485931D01*
X144249652Y-78878688D01*
X144299632Y-75704904D01*
X144548731Y-75538462D01*
X144883022Y-75204171D01*
X145036643Y-74974260D01*
X146216401Y-74974260D01*
X146226055Y-75072277D01*
X146254645Y-75166527D01*
X146301074Y-75253389D01*
X146363556Y-75329524D01*
X146439691Y-75392006D01*
X146526553Y-75438435D01*
X146620803Y-75467025D01*
X146718820Y-75476679D01*
X147793820Y-75474260D01*
X147918820Y-75349260D01*
X147918820Y-73774260D01*
X148118820Y-73774260D01*
X148118820Y-75349260D01*
X148243820Y-75474260D01*
X149318820Y-75476679D01*
X149416837Y-75467025D01*
X149511087Y-75438435D01*
X149597949Y-75392006D01*
X149674084Y-75329524D01*
X149736566Y-75253389D01*
X149782995Y-75166527D01*
X149811585Y-75072277D01*
X149821239Y-74974260D01*
X149818820Y-73899260D01*
X149693820Y-73774260D01*
X148118820Y-73774260D01*
X147918820Y-73774260D01*
X146343820Y-73774260D01*
X146218820Y-73899260D01*
X146216401Y-74974260D01*
X145036643Y-74974260D01*
X145145673Y-74811086D01*
X145326590Y-74374314D01*
X145418820Y-73910639D01*
X145418820Y-73437881D01*
X145326590Y-72974206D01*
X145145673Y-72537434D01*
X145036644Y-72374260D01*
X146216401Y-72374260D01*
X146218820Y-73449260D01*
X146343820Y-73574260D01*
X147918820Y-73574260D01*
X147918820Y-71999260D01*
X148118820Y-71999260D01*
X148118820Y-73574260D01*
X149693820Y-73574260D01*
X149818820Y-73449260D01*
X149819401Y-73190879D01*
X155863297Y-73190879D01*
X155900223Y-73484037D01*
X155993631Y-73764358D01*
X156094511Y-73953091D01*
X156324446Y-74054132D01*
X157228579Y-73150000D01*
X156324446Y-72245868D01*
X156094511Y-72346909D01*
X155962344Y-72611176D01*
X155884272Y-72896150D01*
X155863297Y-73190879D01*
X149819401Y-73190879D01*
X149821239Y-72374260D01*
X149811585Y-72276243D01*
X149782995Y-72181993D01*
X149741546Y-72104446D01*
X156465868Y-72104446D01*
X157370000Y-73008579D01*
X158274132Y-72104446D01*
X158173091Y-71874511D01*
X157908824Y-71742344D01*
X157623850Y-71664272D01*
X157329121Y-71643297D01*
X157035963Y-71680223D01*
X156755642Y-71773631D01*
X156566909Y-71874511D01*
X156465868Y-72104446D01*
X149741546Y-72104446D01*
X149736566Y-72095131D01*
X149674084Y-72018996D01*
X149597949Y-71956514D01*
X149511087Y-71910085D01*
X149416837Y-71881495D01*
X149318820Y-71871841D01*
X148243820Y-71874260D01*
X148118820Y-71999260D01*
X147918820Y-71999260D01*
X147793820Y-71874260D01*
X146718820Y-71871841D01*
X146620803Y-71881495D01*
X146526553Y-71910085D01*
X146439691Y-71956514D01*
X146363556Y-72018996D01*
X146301074Y-72095131D01*
X146254645Y-72181993D01*
X146226055Y-72276243D01*
X146216401Y-72374260D01*
X145036644Y-72374260D01*
X144883022Y-72144349D01*
X144724819Y-71986146D01*
X145296705Y-71414260D01*
X162458296Y-71414260D01*
X162625784Y-71581748D01*
X162671972Y-71638028D01*
X162896569Y-71822351D01*
X163152811Y-71959315D01*
X163366137Y-72024027D01*
X163430849Y-72043657D01*
X163461279Y-72046654D01*
X163647548Y-72065000D01*
X163647554Y-72065000D01*
X163719999Y-72072135D01*
X163792444Y-72065000D01*
X163864917Y-72065000D01*
X163993419Y-72221581D01*
X164160916Y-72359042D01*
X164273119Y-72419015D01*
X164275000Y-72905000D01*
X164400000Y-73030000D01*
X165525000Y-73030000D01*
X165525000Y-73010000D01*
X165725000Y-73010000D01*
X165725000Y-73030000D01*
X166850000Y-73030000D01*
X166914932Y-72965068D01*
X166943705Y-73030000D01*
X168065000Y-73030000D01*
X168065000Y-73010000D01*
X168265000Y-73010000D01*
X168265000Y-73030000D01*
X169386295Y-73030000D01*
X169435000Y-72920089D01*
X169483705Y-73030000D01*
X170605000Y-73030000D01*
X170605000Y-73010000D01*
X170805000Y-73010000D01*
X170805000Y-73030000D01*
X171926295Y-73030000D01*
X172019076Y-72820624D01*
X171966832Y-72667796D01*
X173420788Y-74121753D01*
X173466972Y-74178028D01*
X173523247Y-74224212D01*
X173523248Y-74224213D01*
X173613326Y-74298138D01*
X173691569Y-74362351D01*
X173947811Y-74499315D01*
X174129277Y-74554362D01*
X174225849Y-74583657D01*
X174256279Y-74586654D01*
X174442548Y-74605000D01*
X174442554Y-74605000D01*
X174514999Y-74612135D01*
X174587444Y-74605000D01*
X175829749Y-74605000D01*
X175813498Y-74770000D01*
X175813498Y-76570000D01*
X175834736Y-76785638D01*
X175897636Y-76992988D01*
X175999778Y-77184084D01*
X176137239Y-77351581D01*
X176304736Y-77489042D01*
X176495832Y-77591184D01*
X176703182Y-77654084D01*
X176918820Y-77675322D01*
X178718820Y-77675322D01*
X178934458Y-77654084D01*
X179141808Y-77591184D01*
X179332904Y-77489042D01*
X179500401Y-77351581D01*
X179637862Y-77184084D01*
X179740004Y-76992988D01*
X179802904Y-76785638D01*
X179824142Y-76570000D01*
X179824142Y-74770000D01*
X179802904Y-74554362D01*
X179800000Y-74544789D01*
X179800000Y-74041599D01*
X180319442Y-73781878D01*
X180474478Y-73684284D01*
X180542736Y-73740302D01*
X180733832Y-73842444D01*
X180941182Y-73905344D01*
X181156820Y-73926582D01*
X181908125Y-73926582D01*
X181623894Y-74116499D01*
X181345319Y-74395074D01*
X181126443Y-74722645D01*
X180975679Y-75086622D01*
X180898820Y-75473017D01*
X180898820Y-75866983D01*
X180975679Y-76253378D01*
X181126443Y-76617355D01*
X181345319Y-76944926D01*
X181623894Y-77223501D01*
X181951465Y-77442377D01*
X182315442Y-77593141D01*
X182701837Y-77670000D01*
X183095803Y-77670000D01*
X183482198Y-77593141D01*
X183846175Y-77442377D01*
X184173746Y-77223501D01*
X184252247Y-77145000D01*
X187887238Y-77145000D01*
X188151874Y-77362181D01*
X188120825Y-77399777D01*
X187985902Y-77650331D01*
X187909750Y-77884549D01*
X188001592Y-78110000D01*
X189272820Y-78110000D01*
X189272820Y-78090000D01*
X189472820Y-78090000D01*
X189472820Y-78110000D01*
X190744048Y-78110000D01*
X190835890Y-77884549D01*
X190759738Y-77650331D01*
X190624815Y-77399777D01*
X190593766Y-77362181D01*
X190878679Y-77128359D01*
X191135169Y-76815825D01*
X191325758Y-76459258D01*
X191443122Y-76072360D01*
X191482751Y-75670000D01*
X191475982Y-75601272D01*
X194024269Y-75601272D01*
X194389504Y-76056518D01*
X195027982Y-76408013D01*
X195722764Y-76628194D01*
X196447152Y-76708599D01*
X197173307Y-76646137D01*
X197873323Y-76443211D01*
X198520301Y-76107617D01*
X198596776Y-76056518D01*
X198962011Y-75601272D01*
X196493140Y-73132401D01*
X194024269Y-75601272D01*
X191475982Y-75601272D01*
X191443122Y-75267640D01*
X191325758Y-74880742D01*
X191252779Y-74744207D01*
X191291862Y-74696584D01*
X191394004Y-74505488D01*
X191456904Y-74298138D01*
X191478142Y-74082500D01*
X191478142Y-72944992D01*
X192775521Y-72944992D01*
X192837983Y-73671147D01*
X193040909Y-74371163D01*
X193376503Y-75018141D01*
X193427602Y-75094616D01*
X193882848Y-75459851D01*
X196351719Y-72990980D01*
X193882848Y-70522109D01*
X193427602Y-70887344D01*
X193076107Y-71525822D01*
X192855926Y-72220604D01*
X192775521Y-72944992D01*
X191478142Y-72944992D01*
X191478142Y-72177500D01*
X191456904Y-71961862D01*
X191394004Y-71754512D01*
X191291862Y-71563416D01*
X191154401Y-71395919D01*
X191034572Y-71297578D01*
X191008272Y-71210878D01*
X190939875Y-71082915D01*
X190882915Y-70976350D01*
X190756490Y-70822301D01*
X190756483Y-70822294D01*
X190714212Y-70770787D01*
X190662706Y-70728517D01*
X190314877Y-70380688D01*
X194024269Y-70380688D01*
X196493140Y-72849559D01*
X198962011Y-70380688D01*
X198596776Y-69925442D01*
X197958298Y-69573947D01*
X197263516Y-69353766D01*
X196539128Y-69273361D01*
X195812973Y-69335823D01*
X195112957Y-69538749D01*
X194465979Y-69874343D01*
X194389504Y-69925442D01*
X194024269Y-70380688D01*
X190314877Y-70380688D01*
X189109188Y-69175000D01*
X198013300Y-69175000D01*
X199325001Y-70486702D01*
X199325001Y-70699869D01*
X199103432Y-70522109D01*
X196634561Y-72990980D01*
X199103432Y-75459851D01*
X199325001Y-75282091D01*
X199325000Y-110699869D01*
X199103432Y-110522109D01*
X196634561Y-112990980D01*
X199103432Y-115459851D01*
X199325000Y-115282091D01*
X199325000Y-115513299D01*
X198013300Y-116825000D01*
X185461223Y-116825000D01*
X185598671Y-116768067D01*
X185918052Y-116554664D01*
X186189664Y-116283052D01*
X186338152Y-116060823D01*
X186504570Y-116187954D01*
X186742175Y-116304494D01*
X186905625Y-116354072D01*
X187115000Y-116260912D01*
X187115000Y-115140000D01*
X187315000Y-115140000D01*
X187315000Y-116260912D01*
X187524375Y-116354072D01*
X187687825Y-116304494D01*
X187925430Y-116187954D01*
X188135734Y-116027298D01*
X188310655Y-115828701D01*
X188403437Y-115668791D01*
X188402581Y-115890000D01*
X188412235Y-115988017D01*
X188440825Y-116082267D01*
X188487254Y-116169129D01*
X188549736Y-116245264D01*
X188625871Y-116307746D01*
X188712733Y-116354175D01*
X188806983Y-116382765D01*
X188905000Y-116392419D01*
X189530000Y-116390000D01*
X189655000Y-116265000D01*
X189655000Y-115140000D01*
X189855000Y-115140000D01*
X189855000Y-116265000D01*
X189980000Y-116390000D01*
X190605000Y-116392419D01*
X190703017Y-116382765D01*
X190797267Y-116354175D01*
X190884129Y-116307746D01*
X190960264Y-116245264D01*
X191022746Y-116169129D01*
X191069175Y-116082267D01*
X191097765Y-115988017D01*
X191107419Y-115890000D01*
X191106302Y-115601272D01*
X194024269Y-115601272D01*
X194389504Y-116056518D01*
X195027982Y-116408013D01*
X195722764Y-116628194D01*
X196447152Y-116708599D01*
X197173307Y-116646137D01*
X197873323Y-116443211D01*
X198520301Y-116107617D01*
X198596776Y-116056518D01*
X198962011Y-115601272D01*
X196493140Y-113132401D01*
X194024269Y-115601272D01*
X191106302Y-115601272D01*
X191105000Y-115265000D01*
X190980000Y-115140000D01*
X189855000Y-115140000D01*
X189655000Y-115140000D01*
X188530000Y-115140000D01*
X188465068Y-115204932D01*
X188436295Y-115140000D01*
X187315000Y-115140000D01*
X187115000Y-115140000D01*
X187095000Y-115140000D01*
X187095000Y-114940000D01*
X187115000Y-114940000D01*
X187115000Y-113819088D01*
X187315000Y-113819088D01*
X187315000Y-114940000D01*
X188436295Y-114940000D01*
X188465068Y-114875068D01*
X188530000Y-114940000D01*
X189655000Y-114940000D01*
X189655000Y-113815000D01*
X189855000Y-113815000D01*
X189855000Y-114940000D01*
X190980000Y-114940000D01*
X191105000Y-114815000D01*
X191107419Y-114190000D01*
X191097765Y-114091983D01*
X191069175Y-113997733D01*
X191022746Y-113910871D01*
X190960264Y-113834736D01*
X190884129Y-113772254D01*
X190797267Y-113725825D01*
X190703017Y-113697235D01*
X190605000Y-113687581D01*
X189980000Y-113690000D01*
X189855000Y-113815000D01*
X189655000Y-113815000D01*
X189530000Y-113690000D01*
X188905000Y-113687581D01*
X188806983Y-113697235D01*
X188712733Y-113725825D01*
X188625871Y-113772254D01*
X188549736Y-113834736D01*
X188487254Y-113910871D01*
X188440825Y-113997733D01*
X188412235Y-114091983D01*
X188402581Y-114190000D01*
X188403437Y-114411209D01*
X188310655Y-114251299D01*
X188135734Y-114052702D01*
X187925430Y-113892046D01*
X187687825Y-113775506D01*
X187524375Y-113725928D01*
X187315000Y-113819088D01*
X187115000Y-113819088D01*
X186905625Y-113725928D01*
X186761242Y-113769723D01*
X187190965Y-113340000D01*
X187777555Y-113340000D01*
X187850000Y-113347135D01*
X187922445Y-113340000D01*
X187922452Y-113340000D01*
X188139150Y-113318657D01*
X188417189Y-113234315D01*
X188673431Y-113097351D01*
X188859079Y-112944992D01*
X192775521Y-112944992D01*
X192837983Y-113671147D01*
X193040909Y-114371163D01*
X193376503Y-115018141D01*
X193427602Y-115094616D01*
X193882848Y-115459851D01*
X196351719Y-112990980D01*
X193882848Y-110522109D01*
X193427602Y-110887344D01*
X193076107Y-111525822D01*
X192855926Y-112220604D01*
X192775521Y-112944992D01*
X188859079Y-112944992D01*
X188898028Y-112913028D01*
X188944216Y-112856748D01*
X189476748Y-112324216D01*
X189533028Y-112278028D01*
X189717351Y-112053431D01*
X189854315Y-111797189D01*
X189938657Y-111519150D01*
X189960000Y-111302452D01*
X189960000Y-111302445D01*
X189967135Y-111230000D01*
X189960000Y-111157555D01*
X189960000Y-110380688D01*
X194024269Y-110380688D01*
X196493140Y-112849559D01*
X198962011Y-110380688D01*
X198596776Y-109925442D01*
X197958298Y-109573947D01*
X197263516Y-109353766D01*
X196539128Y-109273361D01*
X195812973Y-109335823D01*
X195112957Y-109538749D01*
X194465979Y-109874343D01*
X194389504Y-109925442D01*
X194024269Y-110380688D01*
X189960000Y-110380688D01*
X189960000Y-109972716D01*
X189999664Y-109933052D01*
X190148152Y-109710823D01*
X190314570Y-109837954D01*
X190552175Y-109954494D01*
X190715625Y-110004072D01*
X190925000Y-109910912D01*
X190925000Y-108790000D01*
X191125000Y-108790000D01*
X191125000Y-109910912D01*
X191334375Y-110004072D01*
X191497825Y-109954494D01*
X191735430Y-109837954D01*
X191945734Y-109677298D01*
X192120655Y-109478701D01*
X192253470Y-109249795D01*
X192339076Y-108999376D01*
X192246295Y-108790000D01*
X191125000Y-108790000D01*
X190925000Y-108790000D01*
X190905000Y-108790000D01*
X190905000Y-108590000D01*
X190925000Y-108590000D01*
X190925000Y-107469088D01*
X191125000Y-107469088D01*
X191125000Y-108590000D01*
X192246295Y-108590000D01*
X192339076Y-108380624D01*
X192253470Y-108130205D01*
X192120655Y-107901299D01*
X191945734Y-107702702D01*
X191735430Y-107542046D01*
X191497825Y-107425506D01*
X191334375Y-107375928D01*
X191125000Y-107469088D01*
X190925000Y-107469088D01*
X190715625Y-107375928D01*
X190552175Y-107425506D01*
X190314570Y-107542046D01*
X190148152Y-107669177D01*
X189999664Y-107446948D01*
X189960000Y-107407284D01*
X189960000Y-82727444D01*
X189967135Y-82654999D01*
X189960000Y-82582554D01*
X189960000Y-82582548D01*
X189938657Y-82365850D01*
X189938122Y-82364084D01*
X189913072Y-82281507D01*
X189854315Y-82087811D01*
X189717351Y-81831569D01*
X189654803Y-81755355D01*
X189579213Y-81663248D01*
X189579208Y-81663243D01*
X189533027Y-81606972D01*
X189476758Y-81560793D01*
X187039216Y-79123252D01*
X186993028Y-79066972D01*
X186768431Y-78882649D01*
X186512189Y-78745685D01*
X186234150Y-78661343D01*
X186017452Y-78640000D01*
X186017445Y-78640000D01*
X185945000Y-78632865D01*
X185872555Y-78640000D01*
X176698438Y-78640000D01*
X176602602Y-78535451D01*
X187909750Y-78535451D01*
X187985902Y-78769669D01*
X188120825Y-79020223D01*
X188302036Y-79239640D01*
X188522571Y-79419489D01*
X188773955Y-79552858D01*
X189046528Y-79634621D01*
X189272820Y-79535694D01*
X189272820Y-78310000D01*
X189472820Y-78310000D01*
X189472820Y-79535694D01*
X189699112Y-79634621D01*
X189971685Y-79552858D01*
X190223069Y-79419489D01*
X190443604Y-79239640D01*
X190624815Y-79020223D01*
X190759738Y-78769669D01*
X190835890Y-78535451D01*
X190744048Y-78310000D01*
X189472820Y-78310000D01*
X189272820Y-78310000D01*
X188001592Y-78310000D01*
X187909750Y-78535451D01*
X176602602Y-78535451D01*
X173089573Y-74703057D01*
X173023028Y-74621972D01*
X172935499Y-74550138D01*
X172851183Y-74474580D01*
X172823396Y-74458137D01*
X172798431Y-74437649D01*
X172698559Y-74384266D01*
X172601132Y-74326615D01*
X172570672Y-74315910D01*
X172542189Y-74300685D01*
X172433827Y-74267814D01*
X172327019Y-74230275D01*
X172295053Y-74225717D01*
X172264150Y-74216343D01*
X172151454Y-74205243D01*
X172039379Y-74189264D01*
X171984961Y-74192245D01*
X171948052Y-74155336D01*
X171724056Y-74005667D01*
X171800655Y-73918701D01*
X171933470Y-73689795D01*
X172019076Y-73439376D01*
X171926295Y-73230000D01*
X170805000Y-73230000D01*
X170805000Y-73250000D01*
X170605000Y-73250000D01*
X170605000Y-73230000D01*
X169483705Y-73230000D01*
X169435000Y-73339911D01*
X169386295Y-73230000D01*
X168265000Y-73230000D01*
X168265000Y-73250000D01*
X168065000Y-73250000D01*
X168065000Y-73230000D01*
X166943705Y-73230000D01*
X166914932Y-73294932D01*
X166850000Y-73230000D01*
X165725000Y-73230000D01*
X165725000Y-73250000D01*
X165525000Y-73250000D01*
X165525000Y-73230000D01*
X164400000Y-73230000D01*
X164275000Y-73355000D01*
X164273119Y-73840985D01*
X164160916Y-73900958D01*
X163993419Y-74038419D01*
X163864917Y-74195000D01*
X158455900Y-74195000D01*
X158506162Y-74144738D01*
X158415555Y-74054131D01*
X158645489Y-73953091D01*
X158777656Y-73688824D01*
X158855728Y-73403850D01*
X158876703Y-73109121D01*
X158839777Y-72815963D01*
X158746369Y-72535642D01*
X158645489Y-72346909D01*
X158415554Y-72245868D01*
X157511421Y-73150000D01*
X157525564Y-73164142D01*
X157384142Y-73305564D01*
X157370000Y-73291421D01*
X156465868Y-74195554D01*
X156473794Y-74213591D01*
X156445849Y-74216343D01*
X156308805Y-74257915D01*
X156167811Y-74300685D01*
X155911569Y-74437649D01*
X155686972Y-74621972D01*
X155640788Y-74678247D01*
X152568248Y-77750788D01*
X152511973Y-77796972D01*
X152327650Y-78021569D01*
X152290351Y-78091351D01*
X152190685Y-78277812D01*
X152106343Y-78555850D01*
X152077865Y-78845000D01*
X152085001Y-78917455D01*
X152085000Y-81948323D01*
X152077865Y-82021550D01*
X152092145Y-82164991D01*
X152106343Y-82309149D01*
X152106570Y-82309898D01*
X152106647Y-82310670D01*
X152148667Y-82448672D01*
X152190685Y-82587188D01*
X152191052Y-82587875D01*
X152191279Y-82588620D01*
X152259577Y-82716076D01*
X152327649Y-82843430D01*
X152328143Y-82844031D01*
X152328511Y-82844719D01*
X152420590Y-82956679D01*
X152511972Y-83068027D01*
X152512571Y-83068519D01*
X152513069Y-83069124D01*
X152624962Y-83160757D01*
X152736569Y-83252351D01*
X152801462Y-83287037D01*
X153990001Y-84079397D01*
X153990001Y-84869845D01*
X153848807Y-84775502D01*
X153503029Y-84632276D01*
X153135954Y-84559260D01*
X152761686Y-84559260D01*
X152394611Y-84632276D01*
X152048833Y-84775502D01*
X151737641Y-84983434D01*
X151472994Y-85248081D01*
X151297251Y-85511098D01*
X151292733Y-85505998D01*
X151089777Y-85351872D01*
X150860652Y-85240302D01*
X150710351Y-85194713D01*
X150508820Y-85288523D01*
X150508820Y-86359260D01*
X150528820Y-86359260D01*
X150528820Y-86559260D01*
X150508820Y-86559260D01*
X150508820Y-87629997D01*
X150710351Y-87723807D01*
X150860652Y-87678218D01*
X151089777Y-87566648D01*
X151292733Y-87412522D01*
X151297251Y-87407422D01*
X151472994Y-87670439D01*
X151737641Y-87935086D01*
X152048833Y-88143018D01*
X152394611Y-88286244D01*
X152761686Y-88359260D01*
X153135954Y-88359260D01*
X153503029Y-88286244D01*
X153848807Y-88143018D01*
X154159999Y-87935086D01*
X154218820Y-87876265D01*
X154277641Y-87935086D01*
X154588833Y-88143018D01*
X154934611Y-88286244D01*
X155301686Y-88359260D01*
X155675954Y-88359260D01*
X156043029Y-88286244D01*
X156388807Y-88143018D01*
X156699999Y-87935086D01*
X156758820Y-87876265D01*
X156817641Y-87935086D01*
X157128833Y-88143018D01*
X157474611Y-88286244D01*
X157841686Y-88359260D01*
X158215954Y-88359260D01*
X158583029Y-88286244D01*
X158928807Y-88143018D01*
X159239999Y-87935086D01*
X159298820Y-87876265D01*
X159357641Y-87935086D01*
X159668833Y-88143018D01*
X160014611Y-88286244D01*
X160381686Y-88359260D01*
X160755954Y-88359260D01*
X161123029Y-88286244D01*
X161468807Y-88143018D01*
X161779999Y-87935086D01*
X161838820Y-87876265D01*
X161897641Y-87935086D01*
X162208833Y-88143018D01*
X162554611Y-88286244D01*
X162921686Y-88359260D01*
X163295954Y-88359260D01*
X163663029Y-88286244D01*
X164008807Y-88143018D01*
X164319999Y-87935086D01*
X164378820Y-87876265D01*
X164437641Y-87935086D01*
X164748833Y-88143018D01*
X165094611Y-88286244D01*
X165461686Y-88359260D01*
X165835954Y-88359260D01*
X166203029Y-88286244D01*
X166548807Y-88143018D01*
X166859999Y-87935086D01*
X166918820Y-87876265D01*
X166977641Y-87935086D01*
X167288833Y-88143018D01*
X167634611Y-88286244D01*
X168001686Y-88359260D01*
X168375954Y-88359260D01*
X168743029Y-88286244D01*
X169088807Y-88143018D01*
X169399999Y-87935086D01*
X169458820Y-87876265D01*
X169517641Y-87935086D01*
X169828833Y-88143018D01*
X170174611Y-88286244D01*
X170541686Y-88359260D01*
X170915954Y-88359260D01*
X171283029Y-88286244D01*
X171628807Y-88143018D01*
X171910140Y-87955037D01*
X171914533Y-87999645D01*
X171991728Y-88254121D01*
X171991729Y-88254122D01*
X172117085Y-88488649D01*
X172243510Y-88642698D01*
X172243513Y-88642701D01*
X172285787Y-88694212D01*
X172337299Y-88736487D01*
X183400072Y-99799260D01*
X183241686Y-99799260D01*
X182874611Y-99872276D01*
X182528833Y-100015502D01*
X182217641Y-100223434D01*
X182158820Y-100282255D01*
X182099999Y-100223434D01*
X181788807Y-100015502D01*
X181443029Y-99872276D01*
X181075954Y-99799260D01*
X180701686Y-99799260D01*
X180334611Y-99872276D01*
X179988833Y-100015502D01*
X179677641Y-100223434D01*
X179618820Y-100282255D01*
X179559999Y-100223434D01*
X179248807Y-100015502D01*
X178903029Y-99872276D01*
X178535954Y-99799260D01*
X178161686Y-99799260D01*
X177794611Y-99872276D01*
X177448833Y-100015502D01*
X177137641Y-100223434D01*
X177078820Y-100282255D01*
X177019999Y-100223434D01*
X176708807Y-100015502D01*
X176363029Y-99872276D01*
X175995954Y-99799260D01*
X175621686Y-99799260D01*
X175254611Y-99872276D01*
X174908833Y-100015502D01*
X174597641Y-100223434D01*
X174538820Y-100282255D01*
X174479999Y-100223434D01*
X174168807Y-100015502D01*
X173823029Y-99872276D01*
X173455954Y-99799260D01*
X173081686Y-99799260D01*
X172714611Y-99872276D01*
X172368833Y-100015502D01*
X172057641Y-100223434D01*
X171998820Y-100282255D01*
X171939999Y-100223434D01*
X171628807Y-100015502D01*
X171283029Y-99872276D01*
X170915954Y-99799260D01*
X170541686Y-99799260D01*
X170174611Y-99872276D01*
X169828833Y-100015502D01*
X169517641Y-100223434D01*
X169458820Y-100282255D01*
X169399999Y-100223434D01*
X169088807Y-100015502D01*
X168743029Y-99872276D01*
X168375954Y-99799260D01*
X168001686Y-99799260D01*
X167634611Y-99872276D01*
X167288833Y-100015502D01*
X166977641Y-100223434D01*
X166918820Y-100282255D01*
X166859999Y-100223434D01*
X166548807Y-100015502D01*
X166203029Y-99872276D01*
X165835954Y-99799260D01*
X165461686Y-99799260D01*
X165094611Y-99872276D01*
X164748833Y-100015502D01*
X164437641Y-100223434D01*
X164378820Y-100282255D01*
X164319999Y-100223434D01*
X164008807Y-100015502D01*
X163663029Y-99872276D01*
X163295954Y-99799260D01*
X162921686Y-99799260D01*
X162554611Y-99872276D01*
X162208833Y-100015502D01*
X161897641Y-100223434D01*
X161838820Y-100282255D01*
X161779999Y-100223434D01*
X161468807Y-100015502D01*
X161123029Y-99872276D01*
X160755954Y-99799260D01*
X160381686Y-99799260D01*
X160014611Y-99872276D01*
X159668833Y-100015502D01*
X159357641Y-100223434D01*
X159355000Y-100226075D01*
X159355000Y-99866310D01*
X159361531Y-99799999D01*
X159355000Y-99733688D01*
X159355000Y-99733679D01*
X159335467Y-99535354D01*
X159258272Y-99280878D01*
X159132915Y-99046351D01*
X158964212Y-98840787D01*
X158912701Y-98798513D01*
X156466491Y-96352303D01*
X156424213Y-96300787D01*
X156218649Y-96132085D01*
X155984122Y-96006728D01*
X155729646Y-95929533D01*
X155531321Y-95910000D01*
X155531319Y-95910000D01*
X155465000Y-95903468D01*
X155398681Y-95910000D01*
X145995091Y-95910000D01*
X145917497Y-95903655D01*
X145796567Y-95917595D01*
X145675354Y-95929533D01*
X145664539Y-95932814D01*
X145653320Y-95934107D01*
X145537421Y-95971375D01*
X145420878Y-96006728D01*
X145410915Y-96012053D01*
X145400159Y-96015512D01*
X145293751Y-96074679D01*
X145186351Y-96132085D01*
X145177615Y-96139254D01*
X145167744Y-96144743D01*
X145074912Y-96223540D01*
X144980787Y-96300787D01*
X144973622Y-96309518D01*
X144965006Y-96316831D01*
X144889333Y-96412224D01*
X144812085Y-96506351D01*
X144775379Y-96575023D01*
X144508407Y-96989290D01*
X144538820Y-96836394D01*
X144538820Y-96462126D01*
X144465804Y-96095051D01*
X144322578Y-95749273D01*
X144114646Y-95438081D01*
X143849999Y-95173434D01*
X143538807Y-94965502D01*
X143193029Y-94822276D01*
X142825954Y-94749260D01*
X142451686Y-94749260D01*
X142084611Y-94822276D01*
X141738833Y-94965502D01*
X141427641Y-95173434D01*
X141162994Y-95438081D01*
X140955062Y-95749273D01*
X140811836Y-96095051D01*
X140738820Y-96462126D01*
X140738820Y-96836394D01*
X140811836Y-97203469D01*
X140955062Y-97549247D01*
X141162994Y-97860439D01*
X141221815Y-97919260D01*
X141162994Y-97978081D01*
X140955062Y-98289273D01*
X140811836Y-98635051D01*
X140738820Y-99002126D01*
X140738820Y-99376394D01*
X140811836Y-99743469D01*
X140955062Y-100089247D01*
X141162994Y-100400439D01*
X141427641Y-100665086D01*
X141690658Y-100840829D01*
X141685558Y-100845347D01*
X141531432Y-101048303D01*
X141419862Y-101277428D01*
X141374273Y-101427729D01*
X141468083Y-101629260D01*
X142538820Y-101629260D01*
X142538820Y-101609260D01*
X142738820Y-101609260D01*
X142738820Y-101629260D01*
X143809557Y-101629260D01*
X143903367Y-101427729D01*
X143857778Y-101277428D01*
X143746208Y-101048303D01*
X143592082Y-100845347D01*
X143586982Y-100840829D01*
X143849999Y-100665086D01*
X144066050Y-100449035D01*
X144760026Y-100412872D01*
X144802502Y-100416345D01*
X144892533Y-100405967D01*
X144916483Y-100404719D01*
X144958382Y-100398377D01*
X145066679Y-100385893D01*
X145089655Y-100378505D01*
X145113523Y-100374892D01*
X145216062Y-100337858D01*
X145319840Y-100304488D01*
X145340937Y-100292758D01*
X145363637Y-100284559D01*
X145456967Y-100228241D01*
X145552255Y-100175258D01*
X145570659Y-100159636D01*
X145591323Y-100147167D01*
X145671880Y-100073717D01*
X145754992Y-100003169D01*
X145769992Y-99984261D01*
X145787829Y-99967997D01*
X145852510Y-99880240D01*
X145878844Y-99847044D01*
X145891836Y-99826883D01*
X145945605Y-99753932D01*
X145963711Y-99715354D01*
X146676050Y-98610000D01*
X154905812Y-98610000D01*
X156655000Y-100359188D01*
X156655000Y-100386075D01*
X156552994Y-100488081D01*
X156377251Y-100751098D01*
X156372733Y-100745998D01*
X156169777Y-100591872D01*
X155940652Y-100480302D01*
X155790351Y-100434713D01*
X155588820Y-100528523D01*
X155588820Y-101599260D01*
X155608820Y-101599260D01*
X155608820Y-101799260D01*
X155588820Y-101799260D01*
X155588820Y-102869997D01*
X155790351Y-102963807D01*
X155940652Y-102918218D01*
X156169777Y-102806648D01*
X156372733Y-102652522D01*
X156377251Y-102647422D01*
X156552994Y-102910439D01*
X156817641Y-103175086D01*
X157128833Y-103383018D01*
X157474611Y-103526244D01*
X157841686Y-103599260D01*
X158215954Y-103599260D01*
X158583029Y-103526244D01*
X158928807Y-103383018D01*
X159239999Y-103175086D01*
X159298820Y-103116265D01*
X159357641Y-103175086D01*
X159668833Y-103383018D01*
X160014611Y-103526244D01*
X160381686Y-103599260D01*
X160755954Y-103599260D01*
X161123029Y-103526244D01*
X161468807Y-103383018D01*
X161735000Y-103205153D01*
X161735001Y-104157502D01*
X150960755Y-111340333D01*
X150901351Y-111372085D01*
X150798979Y-111456100D01*
X150696791Y-111539784D01*
X150696335Y-111540338D01*
X150695787Y-111540788D01*
X150611947Y-111642947D01*
X150527875Y-111745172D01*
X150527539Y-111745798D01*
X150527085Y-111746352D01*
X150464570Y-111863310D01*
X150402272Y-111979568D01*
X150402065Y-111980249D01*
X150401728Y-111980879D01*
X150363269Y-112107662D01*
X150324811Y-112233963D01*
X150324741Y-112234671D01*
X150324533Y-112235355D01*
X150311559Y-112367088D01*
X150298469Y-112498581D01*
X150305000Y-112565609D01*
X150305000Y-113632284D01*
X150140336Y-113796948D01*
X149991848Y-114019177D01*
X149825430Y-113892046D01*
X149587825Y-113775506D01*
X149424375Y-113725928D01*
X149215000Y-113819088D01*
X149215000Y-114940000D01*
X149235000Y-114940000D01*
X149235000Y-115140000D01*
X149215000Y-115140000D01*
X149215000Y-116260912D01*
X149424375Y-116354072D01*
X149587825Y-116304494D01*
X149825430Y-116187954D01*
X149991848Y-116060823D01*
X150140336Y-116283052D01*
X150411948Y-116554664D01*
X150731329Y-116768067D01*
X150868777Y-116825000D01*
X138926820Y-116825000D01*
X138926820Y-115645136D01*
X138962011Y-115601272D01*
X138926820Y-115566081D01*
X138926820Y-115283239D01*
X139103432Y-115459851D01*
X139241133Y-115349376D01*
X147800924Y-115349376D01*
X147886530Y-115599795D01*
X148019345Y-115828701D01*
X148194266Y-116027298D01*
X148404570Y-116187954D01*
X148642175Y-116304494D01*
X148805625Y-116354072D01*
X149015000Y-116260912D01*
X149015000Y-115140000D01*
X147893705Y-115140000D01*
X147800924Y-115349376D01*
X139241133Y-115349376D01*
X139558678Y-115094616D01*
X139759062Y-114730624D01*
X147800924Y-114730624D01*
X147893705Y-114940000D01*
X149015000Y-114940000D01*
X149015000Y-113819088D01*
X148805625Y-113725928D01*
X148642175Y-113775506D01*
X148404570Y-113892046D01*
X148194266Y-114052702D01*
X148019345Y-114251299D01*
X147886530Y-114480205D01*
X147800924Y-114730624D01*
X139759062Y-114730624D01*
X139910173Y-114456138D01*
X140130354Y-113761356D01*
X140176013Y-113350000D01*
X143952581Y-113350000D01*
X143962235Y-113448017D01*
X143990825Y-113542267D01*
X144037254Y-113629129D01*
X144099736Y-113705264D01*
X144175871Y-113767746D01*
X144262733Y-113814175D01*
X144356983Y-113842765D01*
X144455000Y-113852419D01*
X145080000Y-113850000D01*
X145205000Y-113725000D01*
X145205000Y-112600000D01*
X145405000Y-112600000D01*
X145405000Y-113725000D01*
X145530000Y-113850000D01*
X146155000Y-113852419D01*
X146253017Y-113842765D01*
X146347267Y-113814175D01*
X146434129Y-113767746D01*
X146510264Y-113705264D01*
X146572746Y-113629129D01*
X146619175Y-113542267D01*
X146647765Y-113448017D01*
X146657419Y-113350000D01*
X146655000Y-112725000D01*
X146530000Y-112600000D01*
X145405000Y-112600000D01*
X145205000Y-112600000D01*
X144080000Y-112600000D01*
X143955000Y-112725000D01*
X143952581Y-113350000D01*
X140176013Y-113350000D01*
X140210759Y-113036968D01*
X140148297Y-112310813D01*
X139945371Y-111610797D01*
X139609777Y-110963819D01*
X139558678Y-110887344D01*
X139103432Y-110522109D01*
X138926820Y-110698721D01*
X138926820Y-110415879D01*
X138962011Y-110380688D01*
X138926820Y-110336824D01*
X138926820Y-107227942D01*
X143355000Y-107227942D01*
X143355000Y-107612058D01*
X143429938Y-107988794D01*
X143576933Y-108343671D01*
X143790336Y-108663052D01*
X143817284Y-108690000D01*
X143790336Y-108716948D01*
X143576933Y-109036329D01*
X143429938Y-109391206D01*
X143355000Y-109767942D01*
X143355000Y-110152058D01*
X143429938Y-110528794D01*
X143576933Y-110883671D01*
X143790336Y-111203052D01*
X144009702Y-111422418D01*
X143990825Y-111457733D01*
X143962235Y-111551983D01*
X143952581Y-111650000D01*
X143955000Y-112275000D01*
X144080000Y-112400000D01*
X145205000Y-112400000D01*
X145205000Y-112380000D01*
X145405000Y-112380000D01*
X145405000Y-112400000D01*
X146530000Y-112400000D01*
X146655000Y-112275000D01*
X146657419Y-111650000D01*
X146647765Y-111551983D01*
X146619175Y-111457733D01*
X146600298Y-111422418D01*
X146712716Y-111310000D01*
X147778681Y-111310000D01*
X147845000Y-111316532D01*
X147911319Y-111310000D01*
X147911321Y-111310000D01*
X148109646Y-111290467D01*
X148364122Y-111213272D01*
X148598649Y-111087915D01*
X148804213Y-110919213D01*
X148846491Y-110867697D01*
X151292698Y-108421490D01*
X151344213Y-108379213D01*
X151512915Y-108173649D01*
X151638272Y-107939122D01*
X151715467Y-107684646D01*
X151735000Y-107486321D01*
X151735000Y-107486312D01*
X151741531Y-107420001D01*
X151735000Y-107353690D01*
X151735000Y-103172445D01*
X151737641Y-103175086D01*
X152048833Y-103383018D01*
X152394611Y-103526244D01*
X152761686Y-103599260D01*
X153135954Y-103599260D01*
X153503029Y-103526244D01*
X153848807Y-103383018D01*
X154159999Y-103175086D01*
X154424646Y-102910439D01*
X154600389Y-102647422D01*
X154604907Y-102652522D01*
X154807863Y-102806648D01*
X155036988Y-102918218D01*
X155187289Y-102963807D01*
X155388820Y-102869997D01*
X155388820Y-101799260D01*
X155368820Y-101799260D01*
X155368820Y-101599260D01*
X155388820Y-101599260D01*
X155388820Y-100528523D01*
X155187289Y-100434713D01*
X155036988Y-100480302D01*
X154807863Y-100591872D01*
X154604907Y-100745998D01*
X154600389Y-100751098D01*
X154424646Y-100488081D01*
X154159999Y-100223434D01*
X153848807Y-100015502D01*
X153503029Y-99872276D01*
X153135954Y-99799260D01*
X152761686Y-99799260D01*
X152394611Y-99872276D01*
X152048833Y-100015502D01*
X151737641Y-100223434D01*
X151678820Y-100282255D01*
X151619999Y-100223434D01*
X151308807Y-100015502D01*
X150963029Y-99872276D01*
X150595954Y-99799260D01*
X150221686Y-99799260D01*
X149854611Y-99872276D01*
X149508833Y-100015502D01*
X149407997Y-100082879D01*
X149282904Y-99980218D01*
X149091808Y-99878076D01*
X148884458Y-99815176D01*
X148668820Y-99793938D01*
X147068820Y-99793938D01*
X146853182Y-99815176D01*
X146645832Y-99878076D01*
X146454736Y-99980218D01*
X146287239Y-100117679D01*
X146149778Y-100285176D01*
X146047636Y-100476272D01*
X145984736Y-100683622D01*
X145963498Y-100899260D01*
X145963498Y-102499260D01*
X145984736Y-102714898D01*
X146047636Y-102922248D01*
X146149778Y-103113344D01*
X146287239Y-103280841D01*
X146454736Y-103418302D01*
X146495000Y-103439824D01*
X146495001Y-104955810D01*
X145896478Y-105554334D01*
X145873794Y-105544938D01*
X145497058Y-105470000D01*
X145112942Y-105470000D01*
X144736206Y-105544938D01*
X144381329Y-105691933D01*
X144061948Y-105905336D01*
X143790336Y-106176948D01*
X143576933Y-106496329D01*
X143429938Y-106851206D01*
X143355000Y-107227942D01*
X138926820Y-107227942D01*
X138926820Y-102030791D01*
X141374273Y-102030791D01*
X141419862Y-102181092D01*
X141531432Y-102410217D01*
X141685558Y-102613173D01*
X141876318Y-102782161D01*
X142096380Y-102910687D01*
X142337288Y-102993811D01*
X142538820Y-102900412D01*
X142538820Y-101829260D01*
X142738820Y-101829260D01*
X142738820Y-102900412D01*
X142940352Y-102993811D01*
X143181260Y-102910687D01*
X143401322Y-102782161D01*
X143592082Y-102613173D01*
X143746208Y-102410217D01*
X143857778Y-102181092D01*
X143903367Y-102030791D01*
X143809557Y-101829260D01*
X142738820Y-101829260D01*
X142538820Y-101829260D01*
X141468083Y-101829260D01*
X141374273Y-102030791D01*
X138926820Y-102030791D01*
X138926820Y-90745000D01*
X140713498Y-90745000D01*
X140713498Y-92345000D01*
X140734736Y-92560638D01*
X140797636Y-92767988D01*
X140899778Y-92959084D01*
X141037239Y-93126581D01*
X141204736Y-93264042D01*
X141395832Y-93366184D01*
X141603182Y-93429084D01*
X141818820Y-93450322D01*
X143418820Y-93450322D01*
X143634458Y-93429084D01*
X143841808Y-93366184D01*
X144032904Y-93264042D01*
X144200401Y-93126581D01*
X144337862Y-92959084D01*
X144440004Y-92767988D01*
X144502904Y-92560638D01*
X144524142Y-92345000D01*
X144524142Y-90745000D01*
X144502904Y-90529362D01*
X144440004Y-90322012D01*
X144337862Y-90130916D01*
X144200401Y-89963419D01*
X144032904Y-89825958D01*
X143841808Y-89723816D01*
X143724485Y-89688226D01*
X143726208Y-89685957D01*
X143837778Y-89456832D01*
X143883367Y-89306531D01*
X143789557Y-89105000D01*
X142718820Y-89105000D01*
X142718820Y-89125000D01*
X142518820Y-89125000D01*
X142518820Y-89105000D01*
X141448083Y-89105000D01*
X141354273Y-89306531D01*
X141399862Y-89456832D01*
X141511432Y-89685957D01*
X141513155Y-89688226D01*
X141395832Y-89723816D01*
X141204736Y-89825958D01*
X141037239Y-89963419D01*
X140899778Y-90130916D01*
X140797636Y-90322012D01*
X140734736Y-90529362D01*
X140713498Y-90745000D01*
X138926820Y-90745000D01*
X138926820Y-86277866D01*
X140718820Y-86277866D01*
X140718820Y-86652134D01*
X140791836Y-87019209D01*
X140935062Y-87364987D01*
X141142994Y-87676179D01*
X141407641Y-87940826D01*
X141670658Y-88116569D01*
X141665558Y-88121087D01*
X141511432Y-88324043D01*
X141399862Y-88553168D01*
X141354273Y-88703469D01*
X141448083Y-88905000D01*
X142518820Y-88905000D01*
X142518820Y-88885000D01*
X142718820Y-88885000D01*
X142718820Y-88905000D01*
X143789557Y-88905000D01*
X143883367Y-88703469D01*
X143837778Y-88553168D01*
X143726208Y-88324043D01*
X143572082Y-88121087D01*
X143566982Y-88116569D01*
X143829999Y-87940826D01*
X144094646Y-87676179D01*
X144302578Y-87364987D01*
X144445804Y-87019209D01*
X144518820Y-86652134D01*
X144518820Y-86277866D01*
X144445804Y-85910791D01*
X144302578Y-85565013D01*
X144094646Y-85253821D01*
X143829999Y-84989174D01*
X143518807Y-84781242D01*
X143173029Y-84638016D01*
X142805954Y-84565000D01*
X142431686Y-84565000D01*
X142064611Y-84638016D01*
X141718833Y-84781242D01*
X141407641Y-84989174D01*
X141142994Y-85253821D01*
X140935062Y-85565013D01*
X140791836Y-85910791D01*
X140718820Y-86277866D01*
X138926820Y-86277866D01*
X138926820Y-75645136D01*
X138962011Y-75601272D01*
X138926820Y-75566081D01*
X138926820Y-75283239D01*
X139103432Y-75459851D01*
X139558678Y-75094616D01*
X139910173Y-74456138D01*
X140130354Y-73761356D01*
X140210759Y-73036968D01*
X140148297Y-72310813D01*
X139945371Y-71610797D01*
X139609777Y-70963819D01*
X139558678Y-70887344D01*
X139103432Y-70522109D01*
X138926820Y-70698721D01*
X138926820Y-70415879D01*
X138962011Y-70380688D01*
X138926820Y-70336824D01*
X138926820Y-69175000D01*
X143364035Y-69175000D01*
X141765977Y-70773059D01*
M02*
