M48
; DRILL file {KiCad (5.1.8-0-10_14)} date Monday, January 11, 2021 at 10:35:16 PM
; FORMAT={-:-/ absolute / metric / decimal}
; #@! TF.CreationDate,2021-01-11T22:35:16+01:00
; #@! TF.GenerationSoftware,Kicad,Pcbnew,(5.1.8-0-10_14)
; #@! TF.FileFunction,Plated,1,2,PTH
FMAT,2
METRIC
T1C0.400
T2C0.800
T3C0.900
T4C1.000
T5C1.100
T6C1.300
T7C1.350
T8C3.200
%
G90
G05
T1
X140.605Y-70.447
X188.485Y-82.655
T2
X128.16Y-96.625
X128.16Y-104.245
X131.335Y-99.165
X131.335Y-106.785
X124.985Y-83.925
X124.985Y-88.925
X124.985Y-96.625
X124.985Y-104.245
X134.999Y-86.465
X134.999Y-89.005
X134.999Y-91.545
X142.619Y-86.465
X142.619Y-89.005
X142.619Y-91.545
X135.019Y-96.649
X135.019Y-99.189
X135.019Y-101.729
X142.639Y-96.649
X142.639Y-99.189
X142.639Y-101.729
X124.919Y-92.749
X132.539Y-92.749
T3
X175.219Y-71.799
X180.299Y-71.799
T4
X152.239Y-108.69
X154.779Y-108.69
X157.319Y-108.69
X159.859Y-108.69
X180.865Y-108.69
X183.405Y-108.69
X185.945Y-108.69
X188.485Y-108.69
X191.025Y-108.69
X157.37Y-73.15
X157.37Y-80.75
X145.305Y-107.42
X145.305Y-109.96
X145.305Y-112.5
X147.869Y-86.459
X147.869Y-101.699
X150.409Y-86.459
X150.409Y-101.699
X152.949Y-86.459
X152.949Y-101.699
X155.489Y-86.459
X155.489Y-101.699
X158.029Y-86.459
X158.029Y-101.699
X160.569Y-86.459
X160.569Y-101.699
X163.109Y-86.459
X163.109Y-101.699
X165.649Y-86.459
X165.649Y-101.699
X168.189Y-86.459
X168.189Y-101.699
X170.729Y-86.459
X170.729Y-101.699
X173.269Y-86.459
X173.269Y-101.699
X175.809Y-86.459
X175.809Y-101.699
X178.349Y-86.459
X178.349Y-101.699
X180.889Y-86.459
X180.889Y-101.699
X183.429Y-86.459
X183.429Y-101.699
X147.845Y-78.845
X147.845Y-81.385
T5
X114.824Y-90.259
X114.824Y-92.799
X114.824Y-95.339
X184.619Y-73.599
X187.159Y-73.599
X189.699Y-73.599
T6
X178.619Y-63.199
X183.619Y-63.199
X110.994Y-109.824
X110.994Y-114.824
X111.094Y-71.174
X111.094Y-76.174
X145.719Y-63.199
X150.719Y-63.199
X190.019Y-63.199
X195.019Y-63.199
T7
X104.664Y-82.639
X104.664Y-87.639
X104.664Y-97.639
X104.664Y-102.639
T8
X196.493Y-112.991
X136.493Y-72.991
X136.493Y-112.991
T0
M30
