M48
; DRILL file {KiCad (5.1.6)-1} date 09/17/20 22:28:55
; FORMAT={-:-/ absolute / inch / decimal}
; #@! TF.CreationDate,2020-09-17T22:28:55+02:00
; #@! TF.GenerationSoftware,Kicad,Pcbnew,(5.1.6)-1
; #@! TF.FileFunction,Plated,1,2,PTH
FMAT,2
INCH
T1C0.0157
T2C0.0315
T3C0.0354
T4C0.0394
T5C0.0433
T6C0.0512
T7C0.0531
T8C0.1260
%
G90
G05
T1
X5.5356Y-2.7735
X7.4207Y-3.2541
T2
X5.0457Y-3.8041
X5.0457Y-4.1041
X4.9181Y-3.6515
X5.2181Y-3.6515
X4.9207Y-3.8041
X4.9207Y-4.1041
X5.1707Y-3.9041
X5.1707Y-4.2041
X5.3157Y-3.8051
X5.3157Y-3.9051
X5.3157Y-4.0051
X5.6157Y-3.8051
X5.6157Y-3.9051
X5.6157Y-4.0051
X5.3149Y-3.4041
X5.3149Y-3.5041
X5.3149Y-3.6041
X5.6149Y-3.4041
X5.6149Y-3.5041
X5.6149Y-3.6041
X4.9207Y-3.3041
X4.9207Y-3.501
T3
X6.8984Y-2.8267
X7.0984Y-2.8267
T4
X5.8216Y-3.4039
X5.8216Y-4.0039
X5.9216Y-3.4039
X5.9216Y-4.0039
X6.0216Y-3.4039
X6.0216Y-4.0039
X6.1216Y-3.4039
X6.1216Y-4.0039
X6.2216Y-3.4039
X6.2216Y-4.0039
X6.3216Y-3.4039
X6.3216Y-4.0039
X6.4216Y-3.4039
X6.4216Y-4.0039
X6.5216Y-3.4039
X6.5216Y-4.0039
X6.6216Y-3.4039
X6.6216Y-4.0039
X6.7216Y-3.4039
X6.7216Y-4.0039
X6.8216Y-3.4039
X6.8216Y-4.0039
X6.9216Y-3.4039
X6.9216Y-4.0039
X7.0216Y-3.4039
X7.0216Y-4.0039
X7.1216Y-3.4039
X7.1216Y-4.0039
X7.2216Y-3.4039
X7.2216Y-4.0039
X6.1957Y-2.8799
X6.1957Y-3.1791
X5.7207Y-4.2291
X5.7207Y-4.3291
X5.7207Y-4.4291
X5.8207Y-3.1041
X5.8207Y-3.2041
X5.8707Y-4.5291
X5.9707Y-4.5291
X6.0707Y-4.5291
X6.1707Y-4.5291
X6.2707Y-4.5291
X6.3707Y-4.5291
X6.4707Y-4.5291
X6.5707Y-4.5291
X6.6707Y-4.5291
X6.7707Y-4.5291
X6.8707Y-4.5291
X6.9707Y-4.5291
X7.0707Y-4.5291
X7.1707Y-4.5291
X7.2707Y-4.5291
X7.3707Y-4.5291
X7.4707Y-4.5291
X7.1207Y-4.2791
X7.2207Y-4.2791
X7.3207Y-4.2791
X7.4207Y-4.2791
X7.5207Y-4.2791
T5
X7.2685Y-2.8976
X7.3685Y-2.8976
X7.4685Y-2.8976
X4.5206Y-3.5535
X4.5206Y-3.6535
X4.5206Y-3.7535
T6
X4.3738Y-2.8021
X4.3738Y-2.999
X4.3698Y-4.3238
X4.3698Y-4.5206
X7.0322Y-2.4882
X7.2291Y-2.4882
X5.737Y-2.4882
X5.9338Y-2.4882
T7
X4.1206Y-3.2535
X4.1206Y-3.4504
X4.1206Y-3.8441
X4.1206Y-4.0409
T8
X5.3737Y-4.4485
X7.736Y-4.4485
X5.3737Y-2.8737
X7.736Y-2.8737
T0
M30
