G04 #@! TF.GenerationSoftware,KiCad,Pcbnew,(5.1.6-0-10_14)*
G04 #@! TF.CreationDate,2020-05-23T00:01:56+02:00*
G04 #@! TF.ProjectId,arduino_nano_reflow_TRIAC_v1_0,61726475-696e-46f5-9f6e-616e6f5f7265,1.0*
G04 #@! TF.SameCoordinates,Original*
G04 #@! TF.FileFunction,Copper,L1,Top*
G04 #@! TF.FilePolarity,Positive*
%FSLAX46Y46*%
G04 Gerber Fmt 4.6, Leading zero omitted, Abs format (unit mm)*
G04 Created by KiCad (PCBNEW (5.1.6-0-10_14)) date 2020-05-23 00:01:56*
%MOMM*%
%LPD*%
G01*
G04 APERTURE LIST*
G04 #@! TA.AperFunction,ComponentPad*
%ADD10C,6.400000*%
G04 #@! TD*
G04 #@! TA.AperFunction,ComponentPad*
%ADD11O,2.000000X1.905000*%
G04 #@! TD*
G04 #@! TA.AperFunction,ComponentPad*
%ADD12R,2.000000X1.905000*%
G04 #@! TD*
G04 #@! TA.AperFunction,ComponentPad*
%ADD13O,1.600000X1.600000*%
G04 #@! TD*
G04 #@! TA.AperFunction,ComponentPad*
%ADD14C,1.600000*%
G04 #@! TD*
G04 #@! TA.AperFunction,ComponentPad*
%ADD15C,2.000000*%
G04 #@! TD*
G04 #@! TA.AperFunction,ComponentPad*
%ADD16R,2.000000X2.000000*%
G04 #@! TD*
G04 #@! TA.AperFunction,ComponentPad*
%ADD17R,1.700000X1.700000*%
G04 #@! TD*
G04 #@! TA.AperFunction,ComponentPad*
%ADD18O,1.700000X1.700000*%
G04 #@! TD*
G04 #@! TA.AperFunction,ComponentPad*
%ADD19R,1.800000X1.800000*%
G04 #@! TD*
G04 #@! TA.AperFunction,ComponentPad*
%ADD20O,1.800000X1.800000*%
G04 #@! TD*
G04 #@! TA.AperFunction,ComponentPad*
%ADD21R,2.400000X1.600000*%
G04 #@! TD*
G04 #@! TA.AperFunction,ComponentPad*
%ADD22O,2.400000X1.600000*%
G04 #@! TD*
G04 #@! TA.AperFunction,ComponentPad*
%ADD23C,2.350000*%
G04 #@! TD*
G04 #@! TA.AperFunction,ComponentPad*
%ADD24R,6.000000X3.000000*%
G04 #@! TD*
G04 #@! TA.AperFunction,ComponentPad*
%ADD25O,6.000000X3.000000*%
G04 #@! TD*
G04 #@! TA.AperFunction,ComponentPad*
%ADD26R,3.000000X5.000000*%
G04 #@! TD*
G04 #@! TA.AperFunction,ComponentPad*
%ADD27O,3.000000X5.000000*%
G04 #@! TD*
G04 #@! TA.AperFunction,ComponentPad*
%ADD28O,2.200000X2.200000*%
G04 #@! TD*
G04 #@! TA.AperFunction,ComponentPad*
%ADD29R,1.574800X4.500000*%
G04 #@! TD*
G04 #@! TA.AperFunction,ComponentPad*
%ADD30O,2.000000X4.500000*%
G04 #@! TD*
G04 #@! TA.AperFunction,SMDPad,CuDef*
%ADD31R,0.500000X0.900000*%
G04 #@! TD*
G04 #@! TA.AperFunction,ViaPad*
%ADD32C,0.600000*%
G04 #@! TD*
G04 #@! TA.AperFunction,Conductor*
%ADD33C,0.750000*%
G04 #@! TD*
G04 #@! TA.AperFunction,Conductor*
%ADD34C,0.500000*%
G04 #@! TD*
G04 #@! TA.AperFunction,Conductor*
%ADD35C,1.000000*%
G04 #@! TD*
G04 #@! TA.AperFunction,Conductor*
%ADD36C,0.200000*%
G04 #@! TD*
G04 APERTURE END LIST*
D10*
X196493140Y-72990980D03*
X136493140Y-72990980D03*
X136493140Y-112990980D03*
X196493140Y-112990980D03*
D11*
X189372820Y-78210000D03*
X189372820Y-75670000D03*
D12*
X189372820Y-73130000D03*
D13*
X128160000Y-96625000D03*
D14*
X128160000Y-104245000D03*
D13*
X131335000Y-99165000D03*
D14*
X131335000Y-106785000D03*
D15*
X157370000Y-73150000D03*
D16*
X157370000Y-80750000D03*
G04 #@! TA.AperFunction,SMDPad,CuDef*
G36*
G01*
X153378140Y-91372230D02*
X153378140Y-90459730D01*
G75*
G02*
X153621890Y-90215980I243750J0D01*
G01*
X154109390Y-90215980D01*
G75*
G02*
X154353140Y-90459730I0J-243750D01*
G01*
X154353140Y-91372230D01*
G75*
G02*
X154109390Y-91615980I-243750J0D01*
G01*
X153621890Y-91615980D01*
G75*
G02*
X153378140Y-91372230I0J243750D01*
G01*
G37*
G04 #@! TD.AperFunction*
G04 #@! TA.AperFunction,SMDPad,CuDef*
G36*
G01*
X151503140Y-91372230D02*
X151503140Y-90459730D01*
G75*
G02*
X151746890Y-90215980I243750J0D01*
G01*
X152234390Y-90215980D01*
G75*
G02*
X152478140Y-90459730I0J-243750D01*
G01*
X152478140Y-91372230D01*
G75*
G02*
X152234390Y-91615980I-243750J0D01*
G01*
X151746890Y-91615980D01*
G75*
G02*
X151503140Y-91372230I0J243750D01*
G01*
G37*
G04 #@! TD.AperFunction*
G04 #@! TA.AperFunction,SMDPad,CuDef*
G36*
G01*
X175461820Y-76124260D02*
X173311820Y-76124260D01*
G75*
G02*
X173061820Y-75874260I0J250000D01*
G01*
X173061820Y-75124260D01*
G75*
G02*
X173311820Y-74874260I250000J0D01*
G01*
X175461820Y-74874260D01*
G75*
G02*
X175711820Y-75124260I0J-250000D01*
G01*
X175711820Y-75874260D01*
G75*
G02*
X175461820Y-76124260I-250000J0D01*
G01*
G37*
G04 #@! TD.AperFunction*
G04 #@! TA.AperFunction,SMDPad,CuDef*
G36*
G01*
X175461820Y-78924260D02*
X173311820Y-78924260D01*
G75*
G02*
X173061820Y-78674260I0J250000D01*
G01*
X173061820Y-77924260D01*
G75*
G02*
X173311820Y-77674260I250000J0D01*
G01*
X175461820Y-77674260D01*
G75*
G02*
X175711820Y-77924260I0J-250000D01*
G01*
X175711820Y-78674260D01*
G75*
G02*
X175461820Y-78924260I-250000J0D01*
G01*
G37*
G04 #@! TD.AperFunction*
G04 #@! TA.AperFunction,SMDPad,CuDef*
G36*
G01*
X187020000Y-74895000D02*
X184870000Y-74895000D01*
G75*
G02*
X184620000Y-74645000I0J250000D01*
G01*
X184620000Y-73895000D01*
G75*
G02*
X184870000Y-73645000I250000J0D01*
G01*
X187020000Y-73645000D01*
G75*
G02*
X187270000Y-73895000I0J-250000D01*
G01*
X187270000Y-74645000D01*
G75*
G02*
X187020000Y-74895000I-250000J0D01*
G01*
G37*
G04 #@! TD.AperFunction*
G04 #@! TA.AperFunction,SMDPad,CuDef*
G36*
G01*
X187020000Y-77695000D02*
X184870000Y-77695000D01*
G75*
G02*
X184620000Y-77445000I0J250000D01*
G01*
X184620000Y-76695000D01*
G75*
G02*
X184870000Y-76445000I250000J0D01*
G01*
X187020000Y-76445000D01*
G75*
G02*
X187270000Y-76695000I0J-250000D01*
G01*
X187270000Y-77445000D01*
G75*
G02*
X187020000Y-77695000I-250000J0D01*
G01*
G37*
G04 #@! TD.AperFunction*
D17*
X180865000Y-108690000D03*
D18*
X183405000Y-108690000D03*
X185945000Y-108690000D03*
X188485000Y-108690000D03*
X191025000Y-108690000D03*
D17*
X147845000Y-81385000D03*
D18*
X145305000Y-81385000D03*
D17*
X189755000Y-115040000D03*
D18*
X187215000Y-115040000D03*
X184675000Y-115040000D03*
X182135000Y-115040000D03*
X179595000Y-115040000D03*
X177055000Y-115040000D03*
X174515000Y-115040000D03*
X171975000Y-115040000D03*
X169435000Y-115040000D03*
X166895000Y-115040000D03*
X164355000Y-115040000D03*
X161815000Y-115040000D03*
X159275000Y-115040000D03*
X156735000Y-115040000D03*
X154195000Y-115040000D03*
X151655000Y-115040000D03*
X149115000Y-115040000D03*
D19*
X177818820Y-75670000D03*
D20*
X182898820Y-75670000D03*
D17*
X165625000Y-70590000D03*
D18*
X168165000Y-70590000D03*
X170705000Y-70590000D03*
D17*
X165625000Y-78210000D03*
D18*
X168165000Y-78210000D03*
X170705000Y-78210000D03*
D17*
X165625000Y-75670000D03*
D18*
X168165000Y-75670000D03*
X170705000Y-75670000D03*
D17*
X165625000Y-73130000D03*
D18*
X168165000Y-73130000D03*
X170705000Y-73130000D03*
D17*
X182006820Y-71971260D03*
D18*
X179466820Y-71971260D03*
D14*
X124985000Y-96625000D03*
D13*
X124985000Y-104245000D03*
D14*
X124985000Y-83925000D03*
X124985000Y-88925000D03*
X124718820Y-92749260D03*
D13*
X132338820Y-92749260D03*
D17*
X145305000Y-112500000D03*
D18*
X145305000Y-109960000D03*
X145305000Y-107420000D03*
D21*
X135145000Y-96625000D03*
D22*
X142765000Y-101705000D03*
X135145000Y-99165000D03*
X142765000Y-99165000D03*
X135145000Y-101705000D03*
X142765000Y-96625000D03*
D21*
X142765000Y-91545000D03*
D22*
X135145000Y-86465000D03*
X142765000Y-89005000D03*
X135145000Y-89005000D03*
X142765000Y-86465000D03*
X135145000Y-91545000D03*
D23*
X104663820Y-97639260D03*
X104663820Y-102639260D03*
X104663820Y-87639260D03*
X104663820Y-82639260D03*
D24*
X111013820Y-110579260D03*
D25*
X111013820Y-115579260D03*
D24*
X111013820Y-70574260D03*
D25*
X111013820Y-75574260D03*
D26*
X147818820Y-74099260D03*
D27*
X142818820Y-74099260D03*
D16*
X114823820Y-90259260D03*
D28*
X111648820Y-92799260D03*
X114823820Y-95339260D03*
D29*
X147845000Y-102805000D03*
D30*
X150385000Y-102805000D03*
X152925000Y-102805000D03*
X155465000Y-102805000D03*
X158005000Y-102805000D03*
X160545000Y-102805000D03*
X163085000Y-102805000D03*
X165625000Y-102805000D03*
X168165000Y-102805000D03*
X170705000Y-102805000D03*
X173245000Y-102805000D03*
X175785000Y-102805000D03*
X178325000Y-102805000D03*
X180865000Y-102805000D03*
X183405000Y-102805000D03*
X183405000Y-85365000D03*
X180865000Y-85365000D03*
X178325000Y-85365000D03*
X175785000Y-85365000D03*
X173245000Y-85365000D03*
X170705000Y-85365000D03*
X168165000Y-85365000D03*
X165625000Y-85365000D03*
X163085000Y-85365000D03*
X160545000Y-85365000D03*
X158005000Y-85365000D03*
X155465000Y-85365000D03*
X152925000Y-85365000D03*
X150385000Y-85365000D03*
X147845000Y-85365000D03*
D31*
X155618820Y-94725980D03*
X154118820Y-94725980D03*
D32*
X140604820Y-70447260D03*
X152833140Y-94725980D03*
X175785000Y-70590000D03*
D33*
X138061100Y-72990980D02*
X140604820Y-70447260D01*
X136493140Y-72990980D02*
X138061100Y-72990980D01*
X185945000Y-77070000D02*
X185945000Y-78195440D01*
X185959560Y-78210000D02*
X189372820Y-78210000D01*
X185945000Y-78195440D02*
X185959560Y-78210000D01*
X154833140Y-90915980D02*
X155468140Y-90280980D01*
X153928140Y-90915980D02*
X154833140Y-90915980D01*
X155465000Y-90277840D02*
X155468140Y-90280980D01*
X155465000Y-86465000D02*
X155465000Y-90277840D01*
D34*
X175785000Y-86465000D02*
X175785000Y-82565440D01*
X174818820Y-81599260D02*
X174818820Y-78349260D01*
X175785000Y-82565440D02*
X174818820Y-81599260D01*
D33*
X182006820Y-74778000D02*
X182898820Y-75670000D01*
X182006820Y-71971260D02*
X182006820Y-74778000D01*
D35*
X133940740Y-92749260D02*
X135145000Y-91545000D01*
X132338820Y-92749260D02*
X133940740Y-92749260D01*
D34*
X160545000Y-101705000D02*
X160545000Y-97125440D01*
X158145540Y-94725980D02*
X155618820Y-94725980D01*
X160545000Y-97125440D02*
X158145540Y-94725980D01*
D35*
X124985000Y-92483080D02*
X124718820Y-92749260D01*
X124985000Y-88925000D02*
X124985000Y-92483080D01*
X124985000Y-93015440D02*
X124718820Y-92749260D01*
X124985000Y-96625000D02*
X124985000Y-93015440D01*
X131335000Y-99165000D02*
X135145000Y-99165000D01*
D34*
X154118820Y-94725980D02*
X152833140Y-94725980D01*
X189215000Y-73670000D02*
X189755000Y-73130000D01*
X174818820Y-71556180D02*
X175785000Y-70590000D01*
X174818820Y-75449260D02*
X174818820Y-71556180D01*
X187035000Y-73130000D02*
X185945000Y-74220000D01*
X189755000Y-73130000D02*
X187035000Y-73130000D01*
D35*
X122540740Y-115579260D02*
X131335000Y-106785000D01*
X111013820Y-115579260D02*
X122540740Y-115579260D01*
D36*
G36*
X163753816Y-69317012D02*
G01*
X163690916Y-69524362D01*
X163669678Y-69740000D01*
X163669678Y-71440000D01*
X163690916Y-71655638D01*
X163753816Y-71862988D01*
X163855958Y-72054084D01*
X163993419Y-72221581D01*
X164160916Y-72359042D01*
X164273119Y-72419015D01*
X164275000Y-72905000D01*
X164400000Y-73030000D01*
X165525000Y-73030000D01*
X165525000Y-73010000D01*
X165725000Y-73010000D01*
X165725000Y-73030000D01*
X166850000Y-73030000D01*
X166914932Y-72965068D01*
X166943705Y-73030000D01*
X168065000Y-73030000D01*
X168065000Y-73010000D01*
X168265000Y-73010000D01*
X168265000Y-73030000D01*
X169386295Y-73030000D01*
X169435000Y-72920089D01*
X169483705Y-73030000D01*
X170605000Y-73030000D01*
X170605000Y-73010000D01*
X170805000Y-73010000D01*
X170805000Y-73030000D01*
X171926295Y-73030000D01*
X172019076Y-72820624D01*
X171933470Y-72570205D01*
X171800655Y-72341299D01*
X171724056Y-72254333D01*
X171948052Y-72104664D01*
X172219664Y-71833052D01*
X172433067Y-71513671D01*
X172580062Y-71158794D01*
X172655000Y-70782058D01*
X172655000Y-70397942D01*
X172580062Y-70021206D01*
X172433067Y-69666329D01*
X172219664Y-69346948D01*
X172047716Y-69175000D01*
X198013300Y-69175000D01*
X199325001Y-70486702D01*
X199325001Y-70699869D01*
X199103432Y-70522109D01*
X196634561Y-72990980D01*
X199103432Y-75459851D01*
X199325001Y-75282091D01*
X199325000Y-110699869D01*
X199103432Y-110522109D01*
X196634561Y-112990980D01*
X199103432Y-115459851D01*
X199325000Y-115282091D01*
X199325000Y-115513299D01*
X198013300Y-116825000D01*
X185461223Y-116825000D01*
X185598671Y-116768067D01*
X185918052Y-116554664D01*
X186189664Y-116283052D01*
X186338152Y-116060823D01*
X186504570Y-116187954D01*
X186742175Y-116304494D01*
X186905625Y-116354072D01*
X187115000Y-116260912D01*
X187115000Y-115140000D01*
X187315000Y-115140000D01*
X187315000Y-116260912D01*
X187524375Y-116354072D01*
X187687825Y-116304494D01*
X187925430Y-116187954D01*
X188135734Y-116027298D01*
X188310655Y-115828701D01*
X188403437Y-115668791D01*
X188402581Y-115890000D01*
X188412235Y-115988017D01*
X188440825Y-116082267D01*
X188487254Y-116169129D01*
X188549736Y-116245264D01*
X188625871Y-116307746D01*
X188712733Y-116354175D01*
X188806983Y-116382765D01*
X188905000Y-116392419D01*
X189530000Y-116390000D01*
X189655000Y-116265000D01*
X189655000Y-115140000D01*
X189855000Y-115140000D01*
X189855000Y-116265000D01*
X189980000Y-116390000D01*
X190605000Y-116392419D01*
X190703017Y-116382765D01*
X190797267Y-116354175D01*
X190884129Y-116307746D01*
X190960264Y-116245264D01*
X191022746Y-116169129D01*
X191069175Y-116082267D01*
X191097765Y-115988017D01*
X191107419Y-115890000D01*
X191106302Y-115601272D01*
X194024269Y-115601272D01*
X194389504Y-116056518D01*
X195027982Y-116408013D01*
X195722764Y-116628194D01*
X196447152Y-116708599D01*
X197173307Y-116646137D01*
X197873323Y-116443211D01*
X198520301Y-116107617D01*
X198596776Y-116056518D01*
X198962011Y-115601272D01*
X196493140Y-113132401D01*
X194024269Y-115601272D01*
X191106302Y-115601272D01*
X191105000Y-115265000D01*
X190980000Y-115140000D01*
X189855000Y-115140000D01*
X189655000Y-115140000D01*
X188530000Y-115140000D01*
X188465068Y-115204932D01*
X188436295Y-115140000D01*
X187315000Y-115140000D01*
X187115000Y-115140000D01*
X187095000Y-115140000D01*
X187095000Y-114940000D01*
X187115000Y-114940000D01*
X187115000Y-113819088D01*
X187315000Y-113819088D01*
X187315000Y-114940000D01*
X188436295Y-114940000D01*
X188465068Y-114875068D01*
X188530000Y-114940000D01*
X189655000Y-114940000D01*
X189655000Y-113815000D01*
X189855000Y-113815000D01*
X189855000Y-114940000D01*
X190980000Y-114940000D01*
X191105000Y-114815000D01*
X191107419Y-114190000D01*
X191097765Y-114091983D01*
X191069175Y-113997733D01*
X191022746Y-113910871D01*
X190960264Y-113834736D01*
X190884129Y-113772254D01*
X190797267Y-113725825D01*
X190703017Y-113697235D01*
X190605000Y-113687581D01*
X189980000Y-113690000D01*
X189855000Y-113815000D01*
X189655000Y-113815000D01*
X189530000Y-113690000D01*
X188905000Y-113687581D01*
X188806983Y-113697235D01*
X188712733Y-113725825D01*
X188625871Y-113772254D01*
X188549736Y-113834736D01*
X188487254Y-113910871D01*
X188440825Y-113997733D01*
X188412235Y-114091983D01*
X188402581Y-114190000D01*
X188403437Y-114411209D01*
X188310655Y-114251299D01*
X188135734Y-114052702D01*
X187925430Y-113892046D01*
X187687825Y-113775506D01*
X187524375Y-113725928D01*
X187315000Y-113819088D01*
X187115000Y-113819088D01*
X186905625Y-113725928D01*
X186742175Y-113775506D01*
X186504570Y-113892046D01*
X186338152Y-114019177D01*
X186189664Y-113796948D01*
X185918052Y-113525336D01*
X185598671Y-113311933D01*
X185243794Y-113164938D01*
X184867058Y-113090000D01*
X184482942Y-113090000D01*
X184106206Y-113164938D01*
X183751329Y-113311933D01*
X183431948Y-113525336D01*
X183405000Y-113552284D01*
X183378052Y-113525336D01*
X183058671Y-113311933D01*
X182703794Y-113164938D01*
X182327058Y-113090000D01*
X181942942Y-113090000D01*
X181566206Y-113164938D01*
X181211329Y-113311933D01*
X180891948Y-113525336D01*
X180865000Y-113552284D01*
X180838052Y-113525336D01*
X180518671Y-113311933D01*
X180163794Y-113164938D01*
X179787058Y-113090000D01*
X179402942Y-113090000D01*
X179026206Y-113164938D01*
X178671329Y-113311933D01*
X178351948Y-113525336D01*
X178325000Y-113552284D01*
X178298052Y-113525336D01*
X177978671Y-113311933D01*
X177623794Y-113164938D01*
X177247058Y-113090000D01*
X176862942Y-113090000D01*
X176486206Y-113164938D01*
X176131329Y-113311933D01*
X175811948Y-113525336D01*
X175785000Y-113552284D01*
X175758052Y-113525336D01*
X175438671Y-113311933D01*
X175083794Y-113164938D01*
X174707058Y-113090000D01*
X174322942Y-113090000D01*
X173946206Y-113164938D01*
X173591329Y-113311933D01*
X173271948Y-113525336D01*
X173245000Y-113552284D01*
X173218052Y-113525336D01*
X172898671Y-113311933D01*
X172543794Y-113164938D01*
X172167058Y-113090000D01*
X171782942Y-113090000D01*
X171406206Y-113164938D01*
X171051329Y-113311933D01*
X170731948Y-113525336D01*
X170705000Y-113552284D01*
X170678052Y-113525336D01*
X170358671Y-113311933D01*
X170003794Y-113164938D01*
X169627058Y-113090000D01*
X169242942Y-113090000D01*
X168866206Y-113164938D01*
X168511329Y-113311933D01*
X168191948Y-113525336D01*
X168165000Y-113552284D01*
X168138052Y-113525336D01*
X167818671Y-113311933D01*
X167463794Y-113164938D01*
X167087058Y-113090000D01*
X166702942Y-113090000D01*
X166326206Y-113164938D01*
X165971329Y-113311933D01*
X165651948Y-113525336D01*
X165625000Y-113552284D01*
X165598052Y-113525336D01*
X165278671Y-113311933D01*
X164923794Y-113164938D01*
X164547058Y-113090000D01*
X164162942Y-113090000D01*
X163786206Y-113164938D01*
X163431329Y-113311933D01*
X163111948Y-113525336D01*
X163085000Y-113552284D01*
X163058052Y-113525336D01*
X162738671Y-113311933D01*
X162383794Y-113164938D01*
X162007058Y-113090000D01*
X161622942Y-113090000D01*
X161246206Y-113164938D01*
X160891329Y-113311933D01*
X160571948Y-113525336D01*
X160545000Y-113552284D01*
X160518052Y-113525336D01*
X160198671Y-113311933D01*
X159843794Y-113164938D01*
X159467058Y-113090000D01*
X159082942Y-113090000D01*
X158706206Y-113164938D01*
X158351329Y-113311933D01*
X158031948Y-113525336D01*
X158005000Y-113552284D01*
X157978052Y-113525336D01*
X157658671Y-113311933D01*
X157303794Y-113164938D01*
X156927058Y-113090000D01*
X156542942Y-113090000D01*
X156166206Y-113164938D01*
X155811329Y-113311933D01*
X155491948Y-113525336D01*
X155465000Y-113552284D01*
X155438052Y-113525336D01*
X155118671Y-113311933D01*
X154763794Y-113164938D01*
X154387058Y-113090000D01*
X154002942Y-113090000D01*
X153626206Y-113164938D01*
X153271329Y-113311933D01*
X152951948Y-113525336D01*
X152925000Y-113552284D01*
X152898052Y-113525336D01*
X152578671Y-113311933D01*
X152223794Y-113164938D01*
X151847058Y-113090000D01*
X151462942Y-113090000D01*
X151086206Y-113164938D01*
X150731329Y-113311933D01*
X150411948Y-113525336D01*
X150140336Y-113796948D01*
X149991848Y-114019177D01*
X149825430Y-113892046D01*
X149587825Y-113775506D01*
X149424375Y-113725928D01*
X149215000Y-113819088D01*
X149215000Y-114940000D01*
X149235000Y-114940000D01*
X149235000Y-115140000D01*
X149215000Y-115140000D01*
X149215000Y-116260912D01*
X149424375Y-116354072D01*
X149587825Y-116304494D01*
X149825430Y-116187954D01*
X149991848Y-116060823D01*
X150140336Y-116283052D01*
X150411948Y-116554664D01*
X150731329Y-116768067D01*
X150868777Y-116825000D01*
X138926820Y-116825000D01*
X138926820Y-115645136D01*
X138962011Y-115601272D01*
X138926820Y-115566081D01*
X138926820Y-115283239D01*
X139103432Y-115459851D01*
X139241133Y-115349376D01*
X147800924Y-115349376D01*
X147886530Y-115599795D01*
X148019345Y-115828701D01*
X148194266Y-116027298D01*
X148404570Y-116187954D01*
X148642175Y-116304494D01*
X148805625Y-116354072D01*
X149015000Y-116260912D01*
X149015000Y-115140000D01*
X147893705Y-115140000D01*
X147800924Y-115349376D01*
X139241133Y-115349376D01*
X139558678Y-115094616D01*
X139759062Y-114730624D01*
X147800924Y-114730624D01*
X147893705Y-114940000D01*
X149015000Y-114940000D01*
X149015000Y-113819088D01*
X148805625Y-113725928D01*
X148642175Y-113775506D01*
X148404570Y-113892046D01*
X148194266Y-114052702D01*
X148019345Y-114251299D01*
X147886530Y-114480205D01*
X147800924Y-114730624D01*
X139759062Y-114730624D01*
X139910173Y-114456138D01*
X140130354Y-113761356D01*
X140176013Y-113350000D01*
X143952581Y-113350000D01*
X143962235Y-113448017D01*
X143990825Y-113542267D01*
X144037254Y-113629129D01*
X144099736Y-113705264D01*
X144175871Y-113767746D01*
X144262733Y-113814175D01*
X144356983Y-113842765D01*
X144455000Y-113852419D01*
X145080000Y-113850000D01*
X145205000Y-113725000D01*
X145205000Y-112600000D01*
X145405000Y-112600000D01*
X145405000Y-113725000D01*
X145530000Y-113850000D01*
X146155000Y-113852419D01*
X146253017Y-113842765D01*
X146347267Y-113814175D01*
X146434129Y-113767746D01*
X146510264Y-113705264D01*
X146572746Y-113629129D01*
X146619175Y-113542267D01*
X146647765Y-113448017D01*
X146657419Y-113350000D01*
X146655852Y-112944992D01*
X192775521Y-112944992D01*
X192837983Y-113671147D01*
X193040909Y-114371163D01*
X193376503Y-115018141D01*
X193427602Y-115094616D01*
X193882848Y-115459851D01*
X196351719Y-112990980D01*
X193882848Y-110522109D01*
X193427602Y-110887344D01*
X193076107Y-111525822D01*
X192855926Y-112220604D01*
X192775521Y-112944992D01*
X146655852Y-112944992D01*
X146655000Y-112725000D01*
X146530000Y-112600000D01*
X145405000Y-112600000D01*
X145205000Y-112600000D01*
X144080000Y-112600000D01*
X143955000Y-112725000D01*
X143952581Y-113350000D01*
X140176013Y-113350000D01*
X140210759Y-113036968D01*
X140148297Y-112310813D01*
X139945371Y-111610797D01*
X139609777Y-110963819D01*
X139558678Y-110887344D01*
X139103432Y-110522109D01*
X138926820Y-110698721D01*
X138926820Y-110415879D01*
X138962011Y-110380688D01*
X138926820Y-110336824D01*
X138926820Y-107227942D01*
X143355000Y-107227942D01*
X143355000Y-107612058D01*
X143429938Y-107988794D01*
X143576933Y-108343671D01*
X143790336Y-108663052D01*
X143817284Y-108690000D01*
X143790336Y-108716948D01*
X143576933Y-109036329D01*
X143429938Y-109391206D01*
X143355000Y-109767942D01*
X143355000Y-110152058D01*
X143429938Y-110528794D01*
X143576933Y-110883671D01*
X143790336Y-111203052D01*
X144009702Y-111422418D01*
X143990825Y-111457733D01*
X143962235Y-111551983D01*
X143952581Y-111650000D01*
X143955000Y-112275000D01*
X144080000Y-112400000D01*
X145205000Y-112400000D01*
X145205000Y-112380000D01*
X145405000Y-112380000D01*
X145405000Y-112400000D01*
X146530000Y-112400000D01*
X146655000Y-112275000D01*
X146657419Y-111650000D01*
X146647765Y-111551983D01*
X146619175Y-111457733D01*
X146600298Y-111422418D01*
X146819664Y-111203052D01*
X147033067Y-110883671D01*
X147180062Y-110528794D01*
X147255000Y-110152058D01*
X147255000Y-109767942D01*
X147180062Y-109391206D01*
X147033067Y-109036329D01*
X146819664Y-108716948D01*
X146792716Y-108690000D01*
X146819664Y-108663052D01*
X147033067Y-108343671D01*
X147180062Y-107988794D01*
X147209659Y-107840000D01*
X178909678Y-107840000D01*
X178909678Y-109540000D01*
X178930916Y-109755638D01*
X178993816Y-109962988D01*
X179095958Y-110154084D01*
X179233419Y-110321581D01*
X179400916Y-110459042D01*
X179592012Y-110561184D01*
X179799362Y-110624084D01*
X180015000Y-110645322D01*
X181715000Y-110645322D01*
X181930638Y-110624084D01*
X182137988Y-110561184D01*
X182329084Y-110459042D01*
X182424931Y-110380383D01*
X182481329Y-110418067D01*
X182836206Y-110565062D01*
X183212942Y-110640000D01*
X183597058Y-110640000D01*
X183973794Y-110565062D01*
X184328671Y-110418067D01*
X184648052Y-110204664D01*
X184675000Y-110177716D01*
X184701948Y-110204664D01*
X185021329Y-110418067D01*
X185376206Y-110565062D01*
X185752942Y-110640000D01*
X186137058Y-110640000D01*
X186513794Y-110565062D01*
X186868671Y-110418067D01*
X187188052Y-110204664D01*
X187215000Y-110177716D01*
X187241948Y-110204664D01*
X187561329Y-110418067D01*
X187916206Y-110565062D01*
X188292942Y-110640000D01*
X188677058Y-110640000D01*
X189053794Y-110565062D01*
X189408671Y-110418067D01*
X189464612Y-110380688D01*
X194024269Y-110380688D01*
X196493140Y-112849559D01*
X198962011Y-110380688D01*
X198596776Y-109925442D01*
X197958298Y-109573947D01*
X197263516Y-109353766D01*
X196539128Y-109273361D01*
X195812973Y-109335823D01*
X195112957Y-109538749D01*
X194465979Y-109874343D01*
X194389504Y-109925442D01*
X194024269Y-110380688D01*
X189464612Y-110380688D01*
X189728052Y-110204664D01*
X189999664Y-109933052D01*
X190148152Y-109710823D01*
X190314570Y-109837954D01*
X190552175Y-109954494D01*
X190715625Y-110004072D01*
X190925000Y-109910912D01*
X190925000Y-108790000D01*
X191125000Y-108790000D01*
X191125000Y-109910912D01*
X191334375Y-110004072D01*
X191497825Y-109954494D01*
X191735430Y-109837954D01*
X191945734Y-109677298D01*
X192120655Y-109478701D01*
X192253470Y-109249795D01*
X192339076Y-108999376D01*
X192246295Y-108790000D01*
X191125000Y-108790000D01*
X190925000Y-108790000D01*
X190905000Y-108790000D01*
X190905000Y-108590000D01*
X190925000Y-108590000D01*
X190925000Y-107469088D01*
X191125000Y-107469088D01*
X191125000Y-108590000D01*
X192246295Y-108590000D01*
X192339076Y-108380624D01*
X192253470Y-108130205D01*
X192120655Y-107901299D01*
X191945734Y-107702702D01*
X191735430Y-107542046D01*
X191497825Y-107425506D01*
X191334375Y-107375928D01*
X191125000Y-107469088D01*
X190925000Y-107469088D01*
X190715625Y-107375928D01*
X190552175Y-107425506D01*
X190314570Y-107542046D01*
X190148152Y-107669177D01*
X189999664Y-107446948D01*
X189728052Y-107175336D01*
X189408671Y-106961933D01*
X189053794Y-106814938D01*
X188677058Y-106740000D01*
X188292942Y-106740000D01*
X187916206Y-106814938D01*
X187561329Y-106961933D01*
X187241948Y-107175336D01*
X187215000Y-107202284D01*
X187188052Y-107175336D01*
X186868671Y-106961933D01*
X186513794Y-106814938D01*
X186137058Y-106740000D01*
X185752942Y-106740000D01*
X185376206Y-106814938D01*
X185021329Y-106961933D01*
X184701948Y-107175336D01*
X184675000Y-107202284D01*
X184648052Y-107175336D01*
X184328671Y-106961933D01*
X183973794Y-106814938D01*
X183597058Y-106740000D01*
X183212942Y-106740000D01*
X182836206Y-106814938D01*
X182481329Y-106961933D01*
X182424931Y-106999617D01*
X182329084Y-106920958D01*
X182137988Y-106818816D01*
X181930638Y-106755916D01*
X181715000Y-106734678D01*
X180015000Y-106734678D01*
X179799362Y-106755916D01*
X179592012Y-106818816D01*
X179400916Y-106920958D01*
X179233419Y-107058419D01*
X179095958Y-107225916D01*
X178993816Y-107417012D01*
X178930916Y-107624362D01*
X178909678Y-107840000D01*
X147209659Y-107840000D01*
X147255000Y-107612058D01*
X147255000Y-107227942D01*
X147180062Y-106851206D01*
X147033067Y-106496329D01*
X146819664Y-106176948D01*
X146755603Y-106112887D01*
X146841962Y-106139084D01*
X147057600Y-106160322D01*
X148632400Y-106160322D01*
X148848038Y-106139084D01*
X149055388Y-106076184D01*
X149246484Y-105974042D01*
X149354533Y-105885369D01*
X149577477Y-106004535D01*
X149973329Y-106124615D01*
X150385000Y-106165161D01*
X150796672Y-106124615D01*
X151192524Y-106004535D01*
X151557343Y-105809535D01*
X151655001Y-105729389D01*
X151752658Y-105809535D01*
X152117477Y-106004535D01*
X152513329Y-106124615D01*
X152925000Y-106165161D01*
X153336672Y-106124615D01*
X153732524Y-106004535D01*
X154097343Y-105809535D01*
X154417109Y-105547109D01*
X154625116Y-105293652D01*
X154714792Y-105357761D01*
X154983363Y-105479087D01*
X155132101Y-105517593D01*
X155365000Y-105426359D01*
X155365000Y-102905000D01*
X155345000Y-102905000D01*
X155345000Y-102705000D01*
X155365000Y-102705000D01*
X155365000Y-100183641D01*
X155132101Y-100092407D01*
X154983363Y-100130913D01*
X154714792Y-100252239D01*
X154625116Y-100316348D01*
X154417109Y-100062891D01*
X154097343Y-99800465D01*
X153732523Y-99605465D01*
X153336671Y-99485385D01*
X152925000Y-99444839D01*
X152513328Y-99485385D01*
X152117476Y-99605465D01*
X151752657Y-99800465D01*
X151655000Y-99880610D01*
X151557343Y-99800465D01*
X151192523Y-99605465D01*
X150796671Y-99485385D01*
X150385000Y-99444839D01*
X149973328Y-99485385D01*
X149577476Y-99605465D01*
X149354532Y-99724631D01*
X149246484Y-99635958D01*
X149055388Y-99533816D01*
X148848038Y-99470916D01*
X148632400Y-99449678D01*
X147057600Y-99449678D01*
X146841962Y-99470916D01*
X146634612Y-99533816D01*
X146443516Y-99635958D01*
X146276019Y-99773419D01*
X146138558Y-99940916D01*
X146036416Y-100132012D01*
X145973516Y-100339362D01*
X145952278Y-100555000D01*
X145952278Y-105055000D01*
X145973516Y-105270638D01*
X146036416Y-105477988D01*
X146128620Y-105650490D01*
X145873794Y-105544938D01*
X145497058Y-105470000D01*
X145112942Y-105470000D01*
X144736206Y-105544938D01*
X144381329Y-105691933D01*
X144061948Y-105905336D01*
X143790336Y-106176948D01*
X143576933Y-106496329D01*
X143429938Y-106851206D01*
X143355000Y-107227942D01*
X138926820Y-107227942D01*
X138926820Y-102006531D01*
X141100453Y-102006531D01*
X141125688Y-102110100D01*
X141228532Y-102344094D01*
X141375050Y-102553528D01*
X141559611Y-102730353D01*
X141775123Y-102867775D01*
X142013304Y-102960512D01*
X142265000Y-103005000D01*
X142665000Y-103005000D01*
X142665000Y-101805000D01*
X142865000Y-101805000D01*
X142865000Y-103005000D01*
X143265000Y-103005000D01*
X143516696Y-102960512D01*
X143754877Y-102867775D01*
X143970389Y-102730353D01*
X144154950Y-102553528D01*
X144301468Y-102344094D01*
X144404312Y-102110100D01*
X144429547Y-102006531D01*
X144335737Y-101805000D01*
X142865000Y-101805000D01*
X142665000Y-101805000D01*
X141194263Y-101805000D01*
X141100453Y-102006531D01*
X138926820Y-102006531D01*
X138926820Y-96625000D01*
X140455807Y-96625000D01*
X140492492Y-96997465D01*
X140601136Y-97355617D01*
X140777564Y-97685691D01*
X140949340Y-97895000D01*
X140777564Y-98104309D01*
X140601136Y-98434383D01*
X140492492Y-98792535D01*
X140455807Y-99165000D01*
X140492492Y-99537465D01*
X140601136Y-99895617D01*
X140777564Y-100225691D01*
X141014997Y-100515003D01*
X141304309Y-100752436D01*
X141419419Y-100813963D01*
X141375050Y-100856472D01*
X141228532Y-101065906D01*
X141125688Y-101299900D01*
X141100453Y-101403469D01*
X141194263Y-101605000D01*
X142665000Y-101605000D01*
X142665000Y-101585000D01*
X142865000Y-101585000D01*
X142865000Y-101605000D01*
X144335737Y-101605000D01*
X144429547Y-101403469D01*
X144404312Y-101299900D01*
X144301468Y-101065906D01*
X144154950Y-100856472D01*
X144110581Y-100813963D01*
X144225691Y-100752436D01*
X144515003Y-100515003D01*
X144752436Y-100225691D01*
X144928864Y-99895617D01*
X145037508Y-99537465D01*
X145074193Y-99165000D01*
X145037508Y-98792535D01*
X144928864Y-98434383D01*
X144752436Y-98104309D01*
X144580660Y-97895000D01*
X144752436Y-97685691D01*
X144928864Y-97355617D01*
X145037508Y-96997465D01*
X145074193Y-96625000D01*
X145037508Y-96252535D01*
X144928864Y-95894383D01*
X144752436Y-95564309D01*
X144515003Y-95274997D01*
X144225691Y-95037564D01*
X143895617Y-94861136D01*
X143537465Y-94752492D01*
X143258337Y-94725000D01*
X142271663Y-94725000D01*
X141992535Y-94752492D01*
X141634383Y-94861136D01*
X141304309Y-95037564D01*
X141014997Y-95274997D01*
X140777564Y-95564309D01*
X140601136Y-95894383D01*
X140492492Y-96252535D01*
X140455807Y-96625000D01*
X138926820Y-96625000D01*
X138926820Y-94588092D01*
X151433140Y-94588092D01*
X151433140Y-94863868D01*
X151486941Y-95134345D01*
X151592476Y-95389129D01*
X151745689Y-95618428D01*
X151940692Y-95813431D01*
X152169991Y-95966644D01*
X152424775Y-96072179D01*
X152695252Y-96125980D01*
X152971028Y-96125980D01*
X153222396Y-96075980D01*
X153231533Y-96075980D01*
X153254736Y-96095022D01*
X153445832Y-96197164D01*
X153653182Y-96260064D01*
X153868820Y-96281302D01*
X154368820Y-96281302D01*
X154584458Y-96260064D01*
X154791808Y-96197164D01*
X154868820Y-96156001D01*
X154945832Y-96197164D01*
X155153182Y-96260064D01*
X155368820Y-96281302D01*
X155868820Y-96281302D01*
X156084458Y-96260064D01*
X156291808Y-96197164D01*
X156482904Y-96095022D01*
X156506107Y-96075980D01*
X157586352Y-96075980D01*
X159195001Y-97684630D01*
X159195000Y-99814956D01*
X159177343Y-99800465D01*
X158812523Y-99605465D01*
X158416671Y-99485385D01*
X158005000Y-99444839D01*
X157593328Y-99485385D01*
X157197476Y-99605465D01*
X156832657Y-99800465D01*
X156512891Y-100062891D01*
X156304884Y-100316348D01*
X156215208Y-100252239D01*
X155946637Y-100130913D01*
X155797899Y-100092407D01*
X155565000Y-100183641D01*
X155565000Y-102705000D01*
X155585000Y-102705000D01*
X155585000Y-102905000D01*
X155565000Y-102905000D01*
X155565000Y-105426359D01*
X155797899Y-105517593D01*
X155946637Y-105479087D01*
X156215208Y-105357761D01*
X156304884Y-105293651D01*
X156512892Y-105547109D01*
X156832658Y-105809535D01*
X157197477Y-106004535D01*
X157593329Y-106124615D01*
X158005000Y-106165161D01*
X158416672Y-106124615D01*
X158812524Y-106004535D01*
X159177343Y-105809535D01*
X159275001Y-105729389D01*
X159372658Y-105809535D01*
X159737477Y-106004535D01*
X160133329Y-106124615D01*
X160545000Y-106165161D01*
X160956672Y-106124615D01*
X161352524Y-106004535D01*
X161717343Y-105809535D01*
X161815001Y-105729389D01*
X161912658Y-105809535D01*
X162277477Y-106004535D01*
X162673329Y-106124615D01*
X163085000Y-106165161D01*
X163496672Y-106124615D01*
X163892524Y-106004535D01*
X164257343Y-105809535D01*
X164355001Y-105729389D01*
X164452658Y-105809535D01*
X164817477Y-106004535D01*
X165213329Y-106124615D01*
X165625000Y-106165161D01*
X166036672Y-106124615D01*
X166432524Y-106004535D01*
X166797343Y-105809535D01*
X166895001Y-105729389D01*
X166992658Y-105809535D01*
X167357477Y-106004535D01*
X167753329Y-106124615D01*
X168165000Y-106165161D01*
X168576672Y-106124615D01*
X168972524Y-106004535D01*
X169337343Y-105809535D01*
X169435001Y-105729389D01*
X169532658Y-105809535D01*
X169897477Y-106004535D01*
X170293329Y-106124615D01*
X170705000Y-106165161D01*
X171116672Y-106124615D01*
X171512524Y-106004535D01*
X171877343Y-105809535D01*
X171975001Y-105729389D01*
X172072658Y-105809535D01*
X172437477Y-106004535D01*
X172833329Y-106124615D01*
X173245000Y-106165161D01*
X173656672Y-106124615D01*
X174052524Y-106004535D01*
X174417343Y-105809535D01*
X174515001Y-105729389D01*
X174612658Y-105809535D01*
X174977477Y-106004535D01*
X175373329Y-106124615D01*
X175785000Y-106165161D01*
X176196672Y-106124615D01*
X176592524Y-106004535D01*
X176957343Y-105809535D01*
X177055001Y-105729389D01*
X177152658Y-105809535D01*
X177517477Y-106004535D01*
X177913329Y-106124615D01*
X178325000Y-106165161D01*
X178736672Y-106124615D01*
X179132524Y-106004535D01*
X179497343Y-105809535D01*
X179595001Y-105729389D01*
X179692658Y-105809535D01*
X180057477Y-106004535D01*
X180453329Y-106124615D01*
X180865000Y-106165161D01*
X181276672Y-106124615D01*
X181672524Y-106004535D01*
X182037343Y-105809535D01*
X182135001Y-105729389D01*
X182232658Y-105809535D01*
X182597477Y-106004535D01*
X182993329Y-106124615D01*
X183405000Y-106165161D01*
X183816672Y-106124615D01*
X184212524Y-106004535D01*
X184577343Y-105809535D01*
X184897109Y-105547109D01*
X185159535Y-105227343D01*
X185354535Y-104862524D01*
X185474615Y-104466672D01*
X185505000Y-104158167D01*
X185505000Y-101451833D01*
X185474615Y-101143328D01*
X185354535Y-100747476D01*
X185159535Y-100382657D01*
X184897109Y-100062891D01*
X184577343Y-99800465D01*
X184212523Y-99605465D01*
X183816671Y-99485385D01*
X183405000Y-99444839D01*
X182993328Y-99485385D01*
X182597476Y-99605465D01*
X182232657Y-99800465D01*
X182135000Y-99880610D01*
X182037343Y-99800465D01*
X181672523Y-99605465D01*
X181276671Y-99485385D01*
X180865000Y-99444839D01*
X180453328Y-99485385D01*
X180057476Y-99605465D01*
X179692657Y-99800465D01*
X179595000Y-99880610D01*
X179497343Y-99800465D01*
X179132523Y-99605465D01*
X178736671Y-99485385D01*
X178325000Y-99444839D01*
X177913328Y-99485385D01*
X177517476Y-99605465D01*
X177152657Y-99800465D01*
X177055000Y-99880610D01*
X176957343Y-99800465D01*
X176592523Y-99605465D01*
X176196671Y-99485385D01*
X175785000Y-99444839D01*
X175373328Y-99485385D01*
X174977476Y-99605465D01*
X174612657Y-99800465D01*
X174515000Y-99880610D01*
X174417343Y-99800465D01*
X174052523Y-99605465D01*
X173656671Y-99485385D01*
X173245000Y-99444839D01*
X172833328Y-99485385D01*
X172437476Y-99605465D01*
X172072657Y-99800465D01*
X171975000Y-99880610D01*
X171877343Y-99800465D01*
X171512523Y-99605465D01*
X171116671Y-99485385D01*
X170705000Y-99444839D01*
X170293328Y-99485385D01*
X169897476Y-99605465D01*
X169532657Y-99800465D01*
X169435000Y-99880610D01*
X169337343Y-99800465D01*
X168972523Y-99605465D01*
X168576671Y-99485385D01*
X168165000Y-99444839D01*
X167753328Y-99485385D01*
X167357476Y-99605465D01*
X166992657Y-99800465D01*
X166895000Y-99880610D01*
X166797343Y-99800465D01*
X166432523Y-99605465D01*
X166036671Y-99485385D01*
X165625000Y-99444839D01*
X165213328Y-99485385D01*
X164817476Y-99605465D01*
X164452657Y-99800465D01*
X164355000Y-99880610D01*
X164257343Y-99800465D01*
X163892523Y-99605465D01*
X163496671Y-99485385D01*
X163085000Y-99444839D01*
X162673328Y-99485385D01*
X162277476Y-99605465D01*
X161912657Y-99800465D01*
X161895000Y-99814956D01*
X161895000Y-97191759D01*
X161901532Y-97125440D01*
X161895000Y-97059119D01*
X161875467Y-96860794D01*
X161798272Y-96606318D01*
X161739919Y-96497147D01*
X161672915Y-96371790D01*
X161546490Y-96217741D01*
X161546487Y-96217738D01*
X161504213Y-96166227D01*
X161452702Y-96123953D01*
X159147031Y-93818283D01*
X159104753Y-93766767D01*
X158899189Y-93598065D01*
X158664662Y-93472708D01*
X158410186Y-93395513D01*
X158211861Y-93375980D01*
X158211859Y-93375980D01*
X158145540Y-93369448D01*
X158079221Y-93375980D01*
X156506107Y-93375980D01*
X156482904Y-93356938D01*
X156291808Y-93254796D01*
X156084458Y-93191896D01*
X155868820Y-93170658D01*
X155368820Y-93170658D01*
X155153182Y-93191896D01*
X154945832Y-93254796D01*
X154868820Y-93295959D01*
X154791808Y-93254796D01*
X154584458Y-93191896D01*
X154368820Y-93170658D01*
X153868820Y-93170658D01*
X153653182Y-93191896D01*
X153445832Y-93254796D01*
X153254736Y-93356938D01*
X153231533Y-93375980D01*
X153222396Y-93375980D01*
X152971028Y-93325980D01*
X152695252Y-93325980D01*
X152424775Y-93379781D01*
X152169991Y-93485316D01*
X151940692Y-93638529D01*
X151745689Y-93833532D01*
X151592476Y-94062831D01*
X151486941Y-94317615D01*
X151433140Y-94588092D01*
X138926820Y-94588092D01*
X138926820Y-90745000D01*
X140459678Y-90745000D01*
X140459678Y-92345000D01*
X140480916Y-92560638D01*
X140543816Y-92767988D01*
X140645958Y-92959084D01*
X140783419Y-93126581D01*
X140950916Y-93264042D01*
X141142012Y-93366184D01*
X141349362Y-93429084D01*
X141565000Y-93450322D01*
X143965000Y-93450322D01*
X144180638Y-93429084D01*
X144387988Y-93366184D01*
X144579084Y-93264042D01*
X144746581Y-93126581D01*
X144884042Y-92959084D01*
X144986184Y-92767988D01*
X145049084Y-92560638D01*
X145070322Y-92345000D01*
X145070322Y-91615980D01*
X151000721Y-91615980D01*
X151010375Y-91713997D01*
X151038965Y-91808247D01*
X151085394Y-91895109D01*
X151147876Y-91971244D01*
X151224011Y-92033726D01*
X151310873Y-92080155D01*
X151405123Y-92108745D01*
X151503140Y-92118399D01*
X151765640Y-92115980D01*
X151890640Y-91990980D01*
X151890640Y-91015980D01*
X151128140Y-91015980D01*
X151003140Y-91140980D01*
X151000721Y-91615980D01*
X145070322Y-91615980D01*
X145070322Y-90745000D01*
X145049084Y-90529362D01*
X144986184Y-90322012D01*
X144929510Y-90215980D01*
X151000721Y-90215980D01*
X151003140Y-90690980D01*
X151128140Y-90815980D01*
X151890640Y-90815980D01*
X151890640Y-89840980D01*
X151765640Y-89715980D01*
X151503140Y-89713561D01*
X151405123Y-89723215D01*
X151310873Y-89751805D01*
X151224011Y-89798234D01*
X151147876Y-89860716D01*
X151085394Y-89936851D01*
X151038965Y-90023713D01*
X151010375Y-90117963D01*
X151000721Y-90215980D01*
X144929510Y-90215980D01*
X144884042Y-90130916D01*
X144746581Y-89963419D01*
X144579084Y-89825958D01*
X144387988Y-89723816D01*
X144270606Y-89688208D01*
X144301468Y-89644094D01*
X144404312Y-89410100D01*
X144429547Y-89306531D01*
X144335737Y-89105000D01*
X142865000Y-89105000D01*
X142865000Y-89125000D01*
X142665000Y-89125000D01*
X142665000Y-89105000D01*
X141194263Y-89105000D01*
X141100453Y-89306531D01*
X141125688Y-89410100D01*
X141228532Y-89644094D01*
X141259394Y-89688208D01*
X141142012Y-89723816D01*
X140950916Y-89825958D01*
X140783419Y-89963419D01*
X140645958Y-90130916D01*
X140543816Y-90322012D01*
X140480916Y-90529362D01*
X140459678Y-90745000D01*
X138926820Y-90745000D01*
X138926820Y-86465000D01*
X140455807Y-86465000D01*
X140492492Y-86837465D01*
X140601136Y-87195617D01*
X140777564Y-87525691D01*
X141014997Y-87815003D01*
X141304309Y-88052436D01*
X141419419Y-88113963D01*
X141375050Y-88156472D01*
X141228532Y-88365906D01*
X141125688Y-88599900D01*
X141100453Y-88703469D01*
X141194263Y-88905000D01*
X142665000Y-88905000D01*
X142665000Y-88885000D01*
X142865000Y-88885000D01*
X142865000Y-88905000D01*
X144335737Y-88905000D01*
X144429547Y-88703469D01*
X144404312Y-88599900D01*
X144301468Y-88365906D01*
X144154950Y-88156472D01*
X144110581Y-88113963D01*
X144225691Y-88052436D01*
X144515003Y-87815003D01*
X144752436Y-87525691D01*
X144928864Y-87195617D01*
X145037508Y-86837465D01*
X145074193Y-86465000D01*
X145037508Y-86092535D01*
X144928864Y-85734383D01*
X144752436Y-85404309D01*
X144515003Y-85114997D01*
X144225691Y-84877564D01*
X143895617Y-84701136D01*
X143537465Y-84592492D01*
X143258337Y-84565000D01*
X142271663Y-84565000D01*
X141992535Y-84592492D01*
X141634383Y-84701136D01*
X141304309Y-84877564D01*
X141014997Y-85114997D01*
X140777564Y-85404309D01*
X140601136Y-85734383D01*
X140492492Y-86092535D01*
X140455807Y-86465000D01*
X138926820Y-86465000D01*
X138926820Y-81192942D01*
X143355000Y-81192942D01*
X143355000Y-81577058D01*
X143429938Y-81953794D01*
X143576933Y-82308671D01*
X143790336Y-82628052D01*
X144061948Y-82899664D01*
X144381329Y-83113067D01*
X144736206Y-83260062D01*
X145112942Y-83335000D01*
X145497058Y-83335000D01*
X145873794Y-83260062D01*
X145934178Y-83235050D01*
X145895465Y-83307477D01*
X145775385Y-83703329D01*
X145745000Y-84011834D01*
X145745000Y-86718167D01*
X145775386Y-87026672D01*
X145895466Y-87422524D01*
X146090466Y-87787343D01*
X146352892Y-88107109D01*
X146672658Y-88369535D01*
X147037477Y-88564535D01*
X147433329Y-88684615D01*
X147845000Y-88725161D01*
X148256672Y-88684615D01*
X148652524Y-88564535D01*
X149017343Y-88369535D01*
X149337109Y-88107109D01*
X149545116Y-87853652D01*
X149634792Y-87917761D01*
X149903363Y-88039087D01*
X150052101Y-88077593D01*
X150285000Y-87986359D01*
X150285000Y-85465000D01*
X150265000Y-85465000D01*
X150265000Y-85265000D01*
X150285000Y-85265000D01*
X150285000Y-82743641D01*
X150485000Y-82743641D01*
X150485000Y-85265000D01*
X150505000Y-85265000D01*
X150505000Y-85465000D01*
X150485000Y-85465000D01*
X150485000Y-87986359D01*
X150717899Y-88077593D01*
X150866637Y-88039087D01*
X151135208Y-87917761D01*
X151224884Y-87853651D01*
X151432892Y-88107109D01*
X151752658Y-88369535D01*
X152117477Y-88564535D01*
X152513329Y-88684615D01*
X152925000Y-88725161D01*
X153336672Y-88684615D01*
X153732524Y-88564535D01*
X153990001Y-88426911D01*
X153990001Y-89110658D01*
X153621890Y-89110658D01*
X153358699Y-89136580D01*
X153105622Y-89213350D01*
X152872386Y-89338018D01*
X152667952Y-89505792D01*
X152500178Y-89710226D01*
X152497382Y-89715456D01*
X152478140Y-89713561D01*
X152215640Y-89715980D01*
X152090640Y-89840980D01*
X152090640Y-90815980D01*
X152110640Y-90815980D01*
X152110640Y-91015980D01*
X152090640Y-91015980D01*
X152090640Y-91990980D01*
X152215640Y-92115980D01*
X152478140Y-92118399D01*
X152497382Y-92116504D01*
X152500178Y-92121734D01*
X152667952Y-92326168D01*
X152872386Y-92493942D01*
X153105622Y-92618610D01*
X153358699Y-92695380D01*
X153621890Y-92721302D01*
X154109390Y-92721302D01*
X154372581Y-92695380D01*
X154625658Y-92618610D01*
X154858894Y-92493942D01*
X154995096Y-92382165D01*
X155122290Y-92369637D01*
X155400329Y-92285295D01*
X155656571Y-92148331D01*
X155881168Y-91964008D01*
X155927356Y-91907728D01*
X156459890Y-91375194D01*
X156516168Y-91329008D01*
X156700490Y-91104411D01*
X156801209Y-90915980D01*
X156837455Y-90848169D01*
X156921797Y-90570130D01*
X156950275Y-90280980D01*
X156940000Y-90176653D01*
X156940000Y-88426911D01*
X157197477Y-88564535D01*
X157593329Y-88684615D01*
X158005000Y-88725161D01*
X158416672Y-88684615D01*
X158812524Y-88564535D01*
X159177343Y-88369535D01*
X159275000Y-88289389D01*
X159372658Y-88369535D01*
X159737477Y-88564535D01*
X160133329Y-88684615D01*
X160545000Y-88725161D01*
X160956672Y-88684615D01*
X161352524Y-88564535D01*
X161717343Y-88369535D01*
X161815000Y-88289389D01*
X161912658Y-88369535D01*
X162277477Y-88564535D01*
X162673329Y-88684615D01*
X163085000Y-88725161D01*
X163496672Y-88684615D01*
X163892524Y-88564535D01*
X164257343Y-88369535D01*
X164355000Y-88289389D01*
X164452658Y-88369535D01*
X164817477Y-88564535D01*
X165213329Y-88684615D01*
X165625000Y-88725161D01*
X166036672Y-88684615D01*
X166432524Y-88564535D01*
X166797343Y-88369535D01*
X166895000Y-88289389D01*
X166992658Y-88369535D01*
X167357477Y-88564535D01*
X167753329Y-88684615D01*
X168165000Y-88725161D01*
X168576672Y-88684615D01*
X168972524Y-88564535D01*
X169337343Y-88369535D01*
X169435000Y-88289389D01*
X169532658Y-88369535D01*
X169897477Y-88564535D01*
X170293329Y-88684615D01*
X170705000Y-88725161D01*
X171116672Y-88684615D01*
X171512524Y-88564535D01*
X171877343Y-88369535D01*
X171975000Y-88289389D01*
X172072658Y-88369535D01*
X172437477Y-88564535D01*
X172833329Y-88684615D01*
X173245000Y-88725161D01*
X173656672Y-88684615D01*
X174052524Y-88564535D01*
X174417343Y-88369535D01*
X174515000Y-88289389D01*
X174612658Y-88369535D01*
X174977477Y-88564535D01*
X175373329Y-88684615D01*
X175785000Y-88725161D01*
X176196672Y-88684615D01*
X176592524Y-88564535D01*
X176957343Y-88369535D01*
X177055000Y-88289389D01*
X177152658Y-88369535D01*
X177517477Y-88564535D01*
X177913329Y-88684615D01*
X178325000Y-88725161D01*
X178736672Y-88684615D01*
X179132524Y-88564535D01*
X179497343Y-88369535D01*
X179595000Y-88289389D01*
X179692658Y-88369535D01*
X180057477Y-88564535D01*
X180453329Y-88684615D01*
X180865000Y-88725161D01*
X181276672Y-88684615D01*
X181672524Y-88564535D01*
X182037343Y-88369535D01*
X182135000Y-88289389D01*
X182232658Y-88369535D01*
X182597477Y-88564535D01*
X182993329Y-88684615D01*
X183405000Y-88725161D01*
X183816672Y-88684615D01*
X184212524Y-88564535D01*
X184577343Y-88369535D01*
X184897109Y-88107109D01*
X185159535Y-87787343D01*
X185354535Y-87422524D01*
X185474615Y-87026672D01*
X185505000Y-86718167D01*
X185505000Y-84011833D01*
X185474615Y-83703328D01*
X185354535Y-83307476D01*
X185159535Y-82942657D01*
X184897109Y-82622891D01*
X184577343Y-82360465D01*
X184212523Y-82165465D01*
X183816671Y-82045385D01*
X183405000Y-82004839D01*
X182993328Y-82045385D01*
X182597476Y-82165465D01*
X182232657Y-82360465D01*
X182135000Y-82440610D01*
X182037343Y-82360465D01*
X181672523Y-82165465D01*
X181276671Y-82045385D01*
X180865000Y-82004839D01*
X180453328Y-82045385D01*
X180057476Y-82165465D01*
X179692657Y-82360465D01*
X179595000Y-82440610D01*
X179497343Y-82360465D01*
X179132523Y-82165465D01*
X178736671Y-82045385D01*
X178325000Y-82004839D01*
X177913328Y-82045385D01*
X177517476Y-82165465D01*
X177152657Y-82360465D01*
X177123685Y-82384242D01*
X177121700Y-82364084D01*
X177115467Y-82300794D01*
X177038272Y-82046318D01*
X176940771Y-81863906D01*
X176912915Y-81811790D01*
X176786490Y-81657741D01*
X176786487Y-81657738D01*
X176744213Y-81606227D01*
X176692702Y-81563953D01*
X176168820Y-81040072D01*
X176168820Y-79825744D01*
X176214797Y-79801169D01*
X176420177Y-79632617D01*
X176588729Y-79427237D01*
X176713974Y-79192919D01*
X176791100Y-78938670D01*
X176817142Y-78674260D01*
X176817142Y-78535451D01*
X187909750Y-78535451D01*
X187985902Y-78769669D01*
X188120825Y-79020223D01*
X188302036Y-79239640D01*
X188522571Y-79419489D01*
X188773955Y-79552858D01*
X189046528Y-79634621D01*
X189272820Y-79535694D01*
X189272820Y-78310000D01*
X189472820Y-78310000D01*
X189472820Y-79535694D01*
X189699112Y-79634621D01*
X189971685Y-79552858D01*
X190223069Y-79419489D01*
X190443604Y-79239640D01*
X190624815Y-79020223D01*
X190759738Y-78769669D01*
X190835890Y-78535451D01*
X190744048Y-78310000D01*
X189472820Y-78310000D01*
X189272820Y-78310000D01*
X188001592Y-78310000D01*
X187909750Y-78535451D01*
X176817142Y-78535451D01*
X176817142Y-77924260D01*
X176791388Y-77662771D01*
X176918820Y-77675322D01*
X178718820Y-77675322D01*
X178934458Y-77654084D01*
X179141808Y-77591184D01*
X179332904Y-77489042D01*
X179500401Y-77351581D01*
X179637862Y-77184084D01*
X179740004Y-76992988D01*
X179802904Y-76785638D01*
X179824142Y-76570000D01*
X179824142Y-74770000D01*
X179802904Y-74554362D01*
X179740004Y-74347012D01*
X179637862Y-74155916D01*
X179500401Y-73988419D01*
X179418567Y-73921260D01*
X179658878Y-73921260D01*
X180035614Y-73846322D01*
X180390491Y-73699327D01*
X180446889Y-73661643D01*
X180531821Y-73731344D01*
X180531821Y-74705545D01*
X180524685Y-74778000D01*
X180553163Y-75067150D01*
X180637505Y-75345188D01*
X180698794Y-75459851D01*
X180774470Y-75601431D01*
X180898820Y-75752951D01*
X180898820Y-75866983D01*
X180975679Y-76253378D01*
X181126443Y-76617355D01*
X181345319Y-76944926D01*
X181623894Y-77223501D01*
X181951465Y-77442377D01*
X182315442Y-77593141D01*
X182701837Y-77670000D01*
X183095803Y-77670000D01*
X183482198Y-77593141D01*
X183846175Y-77442377D01*
X184173746Y-77223501D01*
X184227245Y-77170002D01*
X184244998Y-77170002D01*
X184120000Y-77295000D01*
X184117581Y-77695000D01*
X184127235Y-77793017D01*
X184155825Y-77887267D01*
X184202254Y-77974129D01*
X184264736Y-78050264D01*
X184340871Y-78112746D01*
X184427733Y-78159175D01*
X184521983Y-78187765D01*
X184620000Y-78197419D01*
X185720000Y-78195000D01*
X185845000Y-78070000D01*
X185845000Y-77170000D01*
X186045000Y-77170000D01*
X186045000Y-78070000D01*
X186170000Y-78195000D01*
X187270000Y-78197419D01*
X187368017Y-78187765D01*
X187462267Y-78159175D01*
X187549129Y-78112746D01*
X187625264Y-78050264D01*
X187687746Y-77974129D01*
X187734175Y-77887267D01*
X187762765Y-77793017D01*
X187772419Y-77695000D01*
X187770000Y-77295000D01*
X187645000Y-77170000D01*
X186045000Y-77170000D01*
X185845000Y-77170000D01*
X185825000Y-77170000D01*
X185825000Y-76970000D01*
X185845000Y-76970000D01*
X185845000Y-76950000D01*
X186045000Y-76950000D01*
X186045000Y-76970000D01*
X187645000Y-76970000D01*
X187695530Y-76919470D01*
X187866961Y-77128359D01*
X188151874Y-77362181D01*
X188120825Y-77399777D01*
X187985902Y-77650331D01*
X187909750Y-77884549D01*
X188001592Y-78110000D01*
X189272820Y-78110000D01*
X189272820Y-78090000D01*
X189472820Y-78090000D01*
X189472820Y-78110000D01*
X190744048Y-78110000D01*
X190835890Y-77884549D01*
X190759738Y-77650331D01*
X190624815Y-77399777D01*
X190593766Y-77362181D01*
X190878679Y-77128359D01*
X191135169Y-76815825D01*
X191325758Y-76459258D01*
X191443122Y-76072360D01*
X191482751Y-75670000D01*
X191475982Y-75601272D01*
X194024269Y-75601272D01*
X194389504Y-76056518D01*
X195027982Y-76408013D01*
X195722764Y-76628194D01*
X196447152Y-76708599D01*
X197173307Y-76646137D01*
X197873323Y-76443211D01*
X198520301Y-76107617D01*
X198596776Y-76056518D01*
X198962011Y-75601272D01*
X196493140Y-73132401D01*
X194024269Y-75601272D01*
X191475982Y-75601272D01*
X191443122Y-75267640D01*
X191325758Y-74880742D01*
X191252779Y-74744207D01*
X191291862Y-74696584D01*
X191394004Y-74505488D01*
X191456904Y-74298138D01*
X191478142Y-74082500D01*
X191478142Y-72944992D01*
X192775521Y-72944992D01*
X192837983Y-73671147D01*
X193040909Y-74371163D01*
X193376503Y-75018141D01*
X193427602Y-75094616D01*
X193882848Y-75459851D01*
X196351719Y-72990980D01*
X193882848Y-70522109D01*
X193427602Y-70887344D01*
X193076107Y-71525822D01*
X192855926Y-72220604D01*
X192775521Y-72944992D01*
X191478142Y-72944992D01*
X191478142Y-72177500D01*
X191456904Y-71961862D01*
X191394004Y-71754512D01*
X191291862Y-71563416D01*
X191154401Y-71395919D01*
X190986904Y-71258458D01*
X190795808Y-71156316D01*
X190588458Y-71093416D01*
X190372820Y-71072178D01*
X188372820Y-71072178D01*
X188157182Y-71093416D01*
X187949832Y-71156316D01*
X187758736Y-71258458D01*
X187591239Y-71395919D01*
X187453778Y-71563416D01*
X187351636Y-71754512D01*
X187343904Y-71780000D01*
X187101319Y-71780000D01*
X187035000Y-71773468D01*
X186968681Y-71780000D01*
X186968679Y-71780000D01*
X186770354Y-71799533D01*
X186515878Y-71876728D01*
X186462985Y-71905000D01*
X186281350Y-72002085D01*
X186164813Y-72097725D01*
X186075787Y-72170787D01*
X186033509Y-72222303D01*
X185716134Y-72539678D01*
X184870000Y-72539678D01*
X184605590Y-72565720D01*
X184351341Y-72642846D01*
X184117023Y-72768091D01*
X183954219Y-72901701D01*
X183962142Y-72821260D01*
X183962142Y-71121260D01*
X183940904Y-70905622D01*
X183878004Y-70698272D01*
X183775862Y-70507176D01*
X183672057Y-70380688D01*
X194024269Y-70380688D01*
X196493140Y-72849559D01*
X198962011Y-70380688D01*
X198596776Y-69925442D01*
X197958298Y-69573947D01*
X197263516Y-69353766D01*
X196539128Y-69273361D01*
X195812973Y-69335823D01*
X195112957Y-69538749D01*
X194465979Y-69874343D01*
X194389504Y-69925442D01*
X194024269Y-70380688D01*
X183672057Y-70380688D01*
X183638401Y-70339679D01*
X183470904Y-70202218D01*
X183279808Y-70100076D01*
X183072458Y-70037176D01*
X182856820Y-70015938D01*
X181156820Y-70015938D01*
X180941182Y-70037176D01*
X180733832Y-70100076D01*
X180542736Y-70202218D01*
X180446889Y-70280877D01*
X180390491Y-70243193D01*
X180035614Y-70096198D01*
X179658878Y-70021260D01*
X179274762Y-70021260D01*
X178898026Y-70096198D01*
X178543149Y-70243193D01*
X178223768Y-70456596D01*
X177952156Y-70728208D01*
X177738753Y-71047589D01*
X177591758Y-71402466D01*
X177516820Y-71779202D01*
X177516820Y-72163318D01*
X177591758Y-72540054D01*
X177738753Y-72894931D01*
X177952156Y-73214312D01*
X178223768Y-73485924D01*
X178491293Y-73664678D01*
X176918820Y-73664678D01*
X176703182Y-73685916D01*
X176495832Y-73748816D01*
X176304736Y-73850958D01*
X176168820Y-73962501D01*
X176168820Y-72115368D01*
X176464350Y-71819839D01*
X176677448Y-71677451D01*
X176872451Y-71482448D01*
X177025664Y-71253149D01*
X177131199Y-70998365D01*
X177185000Y-70727888D01*
X177185000Y-70452112D01*
X177131199Y-70181635D01*
X177025664Y-69926851D01*
X176872451Y-69697552D01*
X176677448Y-69502549D01*
X176448149Y-69349336D01*
X176193365Y-69243801D01*
X175922888Y-69190000D01*
X175647112Y-69190000D01*
X175376635Y-69243801D01*
X175121851Y-69349336D01*
X174892552Y-69502549D01*
X174697549Y-69697552D01*
X174555161Y-69910650D01*
X173911118Y-70554694D01*
X173859608Y-70596967D01*
X173817334Y-70648478D01*
X173817330Y-70648482D01*
X173690905Y-70802531D01*
X173565549Y-71037058D01*
X173488354Y-71291534D01*
X173462288Y-71556180D01*
X173468821Y-71622509D01*
X173468820Y-73768938D01*
X173311820Y-73768938D01*
X173047410Y-73794980D01*
X172793161Y-73872106D01*
X172558843Y-73997351D01*
X172353463Y-74165903D01*
X172184911Y-74371283D01*
X172177627Y-74384911D01*
X171948052Y-74155336D01*
X171724056Y-74005667D01*
X171800655Y-73918701D01*
X171933470Y-73689795D01*
X172019076Y-73439376D01*
X171926295Y-73230000D01*
X170805000Y-73230000D01*
X170805000Y-73250000D01*
X170605000Y-73250000D01*
X170605000Y-73230000D01*
X169483705Y-73230000D01*
X169435000Y-73339911D01*
X169386295Y-73230000D01*
X168265000Y-73230000D01*
X168265000Y-73250000D01*
X168065000Y-73250000D01*
X168065000Y-73230000D01*
X166943705Y-73230000D01*
X166914932Y-73294932D01*
X166850000Y-73230000D01*
X165725000Y-73230000D01*
X165725000Y-73250000D01*
X165525000Y-73250000D01*
X165525000Y-73230000D01*
X164400000Y-73230000D01*
X164275000Y-73355000D01*
X164273119Y-73840985D01*
X164160916Y-73900958D01*
X163993419Y-74038419D01*
X163855958Y-74205916D01*
X163753816Y-74397012D01*
X163690916Y-74604362D01*
X163669678Y-74820000D01*
X163669678Y-76520000D01*
X163690916Y-76735638D01*
X163752910Y-76940000D01*
X163690916Y-77144362D01*
X163669678Y-77360000D01*
X163669678Y-79060000D01*
X163690916Y-79275638D01*
X163753816Y-79482988D01*
X163855958Y-79674084D01*
X163993419Y-79841581D01*
X164160916Y-79979042D01*
X164352012Y-80081184D01*
X164559362Y-80144084D01*
X164775000Y-80165322D01*
X166475000Y-80165322D01*
X166690638Y-80144084D01*
X166897988Y-80081184D01*
X167089084Y-79979042D01*
X167184931Y-79900383D01*
X167241329Y-79938067D01*
X167596206Y-80085062D01*
X167972942Y-80160000D01*
X168357058Y-80160000D01*
X168733794Y-80085062D01*
X169088671Y-79938067D01*
X169408052Y-79724664D01*
X169435000Y-79697716D01*
X169461948Y-79724664D01*
X169781329Y-79938067D01*
X170136206Y-80085062D01*
X170512942Y-80160000D01*
X170897058Y-80160000D01*
X171273794Y-80085062D01*
X171628671Y-79938067D01*
X171948052Y-79724664D01*
X172212212Y-79460504D01*
X172353463Y-79632617D01*
X172558843Y-79801169D01*
X172793161Y-79926414D01*
X173047410Y-80003540D01*
X173311820Y-80029582D01*
X173468820Y-80029582D01*
X173468820Y-81532941D01*
X173462288Y-81599260D01*
X173468820Y-81665579D01*
X173468820Y-81665580D01*
X173488353Y-81863905D01*
X173539916Y-82033886D01*
X173245000Y-82004839D01*
X172833328Y-82045385D01*
X172437476Y-82165465D01*
X172072657Y-82360465D01*
X171975000Y-82440610D01*
X171877343Y-82360465D01*
X171512523Y-82165465D01*
X171116671Y-82045385D01*
X170705000Y-82004839D01*
X170293328Y-82045385D01*
X169897476Y-82165465D01*
X169532657Y-82360465D01*
X169435000Y-82440610D01*
X169337343Y-82360465D01*
X168972523Y-82165465D01*
X168576671Y-82045385D01*
X168165000Y-82004839D01*
X167753328Y-82045385D01*
X167357476Y-82165465D01*
X166992657Y-82360465D01*
X166895000Y-82440610D01*
X166797343Y-82360465D01*
X166432523Y-82165465D01*
X166036671Y-82045385D01*
X165625000Y-82004839D01*
X165213328Y-82045385D01*
X164817476Y-82165465D01*
X164452657Y-82360465D01*
X164355000Y-82440610D01*
X164257343Y-82360465D01*
X163892523Y-82165465D01*
X163496671Y-82045385D01*
X163085000Y-82004839D01*
X162673328Y-82045385D01*
X162277476Y-82165465D01*
X161912657Y-82360465D01*
X161815000Y-82440610D01*
X161717343Y-82360465D01*
X161352523Y-82165465D01*
X160956671Y-82045385D01*
X160545000Y-82004839D01*
X160133328Y-82045385D01*
X159737476Y-82165465D01*
X159372657Y-82360465D01*
X159275000Y-82440610D01*
X159245863Y-82416698D01*
X159289042Y-82364084D01*
X159391184Y-82172988D01*
X159454084Y-81965638D01*
X159475322Y-81750000D01*
X159475322Y-79750000D01*
X159454084Y-79534362D01*
X159391184Y-79327012D01*
X159289042Y-79135916D01*
X159151581Y-78968419D01*
X158984084Y-78830958D01*
X158792988Y-78728816D01*
X158585638Y-78665916D01*
X158370000Y-78644678D01*
X156370000Y-78644678D01*
X156154362Y-78665916D01*
X155947012Y-78728816D01*
X155755916Y-78830958D01*
X155588419Y-78968419D01*
X155450958Y-79135916D01*
X155348816Y-79327012D01*
X155285916Y-79534362D01*
X155264678Y-79750000D01*
X155264678Y-81750000D01*
X155285916Y-81965638D01*
X155302658Y-82020828D01*
X155053328Y-82045385D01*
X154657476Y-82165465D01*
X154292657Y-82360465D01*
X154195000Y-82440610D01*
X154097343Y-82360465D01*
X153732523Y-82165465D01*
X153336671Y-82045385D01*
X152925000Y-82004839D01*
X152513328Y-82045385D01*
X152117476Y-82165465D01*
X151752657Y-82360465D01*
X151432891Y-82622891D01*
X151224884Y-82876348D01*
X151135208Y-82812239D01*
X150866637Y-82690913D01*
X150717899Y-82652407D01*
X150485000Y-82743641D01*
X150285000Y-82743641D01*
X150052101Y-82652407D01*
X149903363Y-82690913D01*
X149634792Y-82812239D01*
X149633083Y-82813461D01*
X149716184Y-82657988D01*
X149779084Y-82450638D01*
X149800322Y-82235000D01*
X149800322Y-80535000D01*
X149779084Y-80319362D01*
X149716184Y-80112012D01*
X149614042Y-79920916D01*
X149476581Y-79753419D01*
X149309084Y-79615958D01*
X149117988Y-79513816D01*
X148910638Y-79450916D01*
X148695000Y-79429678D01*
X146995000Y-79429678D01*
X146779362Y-79450916D01*
X146572012Y-79513816D01*
X146380916Y-79615958D01*
X146285069Y-79694617D01*
X146228671Y-79656933D01*
X145873794Y-79509938D01*
X145497058Y-79435000D01*
X145112942Y-79435000D01*
X144736206Y-79509938D01*
X144381329Y-79656933D01*
X144061948Y-79870336D01*
X143790336Y-80141948D01*
X143576933Y-80461329D01*
X143429938Y-80816206D01*
X143355000Y-81192942D01*
X138926820Y-81192942D01*
X138926820Y-75645136D01*
X138962011Y-75601272D01*
X138926820Y-75566081D01*
X138926820Y-75283239D01*
X139103432Y-75459851D01*
X139558678Y-75094616D01*
X139910173Y-74456138D01*
X140130354Y-73761356D01*
X140210759Y-73036968D01*
X140205131Y-72971533D01*
X140218820Y-72971533D01*
X140218820Y-75226986D01*
X140256440Y-75608948D01*
X140405111Y-76099050D01*
X140646539Y-76550731D01*
X140971447Y-76946633D01*
X141367348Y-77271541D01*
X141819029Y-77512969D01*
X142309131Y-77661640D01*
X142818820Y-77711840D01*
X143328508Y-77661640D01*
X143818610Y-77512969D01*
X144270291Y-77271541D01*
X144666193Y-76946633D01*
X144951275Y-76599260D01*
X145816401Y-76599260D01*
X145826055Y-76697277D01*
X145854645Y-76791527D01*
X145901074Y-76878389D01*
X145963556Y-76954524D01*
X146039691Y-77017006D01*
X146126553Y-77063435D01*
X146220803Y-77092025D01*
X146318820Y-77101679D01*
X147593820Y-77099260D01*
X147718820Y-76974260D01*
X147718820Y-74199260D01*
X147918820Y-74199260D01*
X147918820Y-76974260D01*
X148043820Y-77099260D01*
X149318820Y-77101679D01*
X149416837Y-77092025D01*
X149511087Y-77063435D01*
X149597949Y-77017006D01*
X149674084Y-76954524D01*
X149736566Y-76878389D01*
X149782995Y-76791527D01*
X149811585Y-76697277D01*
X149821239Y-76599260D01*
X149818820Y-74324260D01*
X149693820Y-74199260D01*
X147918820Y-74199260D01*
X147718820Y-74199260D01*
X145943820Y-74199260D01*
X145818820Y-74324260D01*
X145816401Y-76599260D01*
X144951275Y-76599260D01*
X144991101Y-76550732D01*
X145232529Y-76099051D01*
X145381200Y-75608949D01*
X145418820Y-75226987D01*
X145418820Y-74195554D01*
X156465868Y-74195554D01*
X156566909Y-74425489D01*
X156831176Y-74557656D01*
X157116150Y-74635728D01*
X157410879Y-74656703D01*
X157704037Y-74619777D01*
X157984358Y-74526369D01*
X158173091Y-74425489D01*
X158274132Y-74195554D01*
X157370000Y-73291421D01*
X156465868Y-74195554D01*
X145418820Y-74195554D01*
X145418820Y-72971533D01*
X145381200Y-72589571D01*
X145232529Y-72099469D01*
X144991101Y-71647788D01*
X144951276Y-71599260D01*
X145816401Y-71599260D01*
X145818820Y-73874260D01*
X145943820Y-73999260D01*
X147718820Y-73999260D01*
X147718820Y-71224260D01*
X147918820Y-71224260D01*
X147918820Y-73999260D01*
X149693820Y-73999260D01*
X149818820Y-73874260D01*
X149819546Y-73190879D01*
X155863297Y-73190879D01*
X155900223Y-73484037D01*
X155993631Y-73764358D01*
X156094511Y-73953091D01*
X156324446Y-74054132D01*
X157228579Y-73150000D01*
X157511421Y-73150000D01*
X158415554Y-74054132D01*
X158645489Y-73953091D01*
X158777656Y-73688824D01*
X158855728Y-73403850D01*
X158876703Y-73109121D01*
X158839777Y-72815963D01*
X158746369Y-72535642D01*
X158645489Y-72346909D01*
X158415554Y-72245868D01*
X157511421Y-73150000D01*
X157228579Y-73150000D01*
X156324446Y-72245868D01*
X156094511Y-72346909D01*
X155962344Y-72611176D01*
X155884272Y-72896150D01*
X155863297Y-73190879D01*
X149819546Y-73190879D01*
X149820701Y-72104446D01*
X156465868Y-72104446D01*
X157370000Y-73008579D01*
X158274132Y-72104446D01*
X158173091Y-71874511D01*
X157908824Y-71742344D01*
X157623850Y-71664272D01*
X157329121Y-71643297D01*
X157035963Y-71680223D01*
X156755642Y-71773631D01*
X156566909Y-71874511D01*
X156465868Y-72104446D01*
X149820701Y-72104446D01*
X149821239Y-71599260D01*
X149811585Y-71501243D01*
X149782995Y-71406993D01*
X149736566Y-71320131D01*
X149674084Y-71243996D01*
X149597949Y-71181514D01*
X149511087Y-71135085D01*
X149416837Y-71106495D01*
X149318820Y-71096841D01*
X148043820Y-71099260D01*
X147918820Y-71224260D01*
X147718820Y-71224260D01*
X147593820Y-71099260D01*
X146318820Y-71096841D01*
X146220803Y-71106495D01*
X146126553Y-71135085D01*
X146039691Y-71181514D01*
X145963556Y-71243996D01*
X145901074Y-71320131D01*
X145854645Y-71406993D01*
X145826055Y-71501243D01*
X145816401Y-71599260D01*
X144951276Y-71599260D01*
X144666193Y-71251887D01*
X144270292Y-70926979D01*
X143818611Y-70685551D01*
X143328509Y-70536880D01*
X142818820Y-70486680D01*
X142309132Y-70536880D01*
X141819030Y-70685551D01*
X141367349Y-70926979D01*
X140971448Y-71251887D01*
X140646539Y-71647788D01*
X140405111Y-72099469D01*
X140256440Y-72589571D01*
X140218820Y-72971533D01*
X140205131Y-72971533D01*
X140148297Y-72310813D01*
X139945371Y-71610797D01*
X139609777Y-70963819D01*
X139558678Y-70887344D01*
X139103432Y-70522109D01*
X138926820Y-70698721D01*
X138926820Y-70415879D01*
X138962011Y-70380688D01*
X138926820Y-70336824D01*
X138926820Y-69175000D01*
X163829722Y-69175000D01*
X163753816Y-69317012D01*
G37*
X163753816Y-69317012D02*
X163690916Y-69524362D01*
X163669678Y-69740000D01*
X163669678Y-71440000D01*
X163690916Y-71655638D01*
X163753816Y-71862988D01*
X163855958Y-72054084D01*
X163993419Y-72221581D01*
X164160916Y-72359042D01*
X164273119Y-72419015D01*
X164275000Y-72905000D01*
X164400000Y-73030000D01*
X165525000Y-73030000D01*
X165525000Y-73010000D01*
X165725000Y-73010000D01*
X165725000Y-73030000D01*
X166850000Y-73030000D01*
X166914932Y-72965068D01*
X166943705Y-73030000D01*
X168065000Y-73030000D01*
X168065000Y-73010000D01*
X168265000Y-73010000D01*
X168265000Y-73030000D01*
X169386295Y-73030000D01*
X169435000Y-72920089D01*
X169483705Y-73030000D01*
X170605000Y-73030000D01*
X170605000Y-73010000D01*
X170805000Y-73010000D01*
X170805000Y-73030000D01*
X171926295Y-73030000D01*
X172019076Y-72820624D01*
X171933470Y-72570205D01*
X171800655Y-72341299D01*
X171724056Y-72254333D01*
X171948052Y-72104664D01*
X172219664Y-71833052D01*
X172433067Y-71513671D01*
X172580062Y-71158794D01*
X172655000Y-70782058D01*
X172655000Y-70397942D01*
X172580062Y-70021206D01*
X172433067Y-69666329D01*
X172219664Y-69346948D01*
X172047716Y-69175000D01*
X198013300Y-69175000D01*
X199325001Y-70486702D01*
X199325001Y-70699869D01*
X199103432Y-70522109D01*
X196634561Y-72990980D01*
X199103432Y-75459851D01*
X199325001Y-75282091D01*
X199325000Y-110699869D01*
X199103432Y-110522109D01*
X196634561Y-112990980D01*
X199103432Y-115459851D01*
X199325000Y-115282091D01*
X199325000Y-115513299D01*
X198013300Y-116825000D01*
X185461223Y-116825000D01*
X185598671Y-116768067D01*
X185918052Y-116554664D01*
X186189664Y-116283052D01*
X186338152Y-116060823D01*
X186504570Y-116187954D01*
X186742175Y-116304494D01*
X186905625Y-116354072D01*
X187115000Y-116260912D01*
X187115000Y-115140000D01*
X187315000Y-115140000D01*
X187315000Y-116260912D01*
X187524375Y-116354072D01*
X187687825Y-116304494D01*
X187925430Y-116187954D01*
X188135734Y-116027298D01*
X188310655Y-115828701D01*
X188403437Y-115668791D01*
X188402581Y-115890000D01*
X188412235Y-115988017D01*
X188440825Y-116082267D01*
X188487254Y-116169129D01*
X188549736Y-116245264D01*
X188625871Y-116307746D01*
X188712733Y-116354175D01*
X188806983Y-116382765D01*
X188905000Y-116392419D01*
X189530000Y-116390000D01*
X189655000Y-116265000D01*
X189655000Y-115140000D01*
X189855000Y-115140000D01*
X189855000Y-116265000D01*
X189980000Y-116390000D01*
X190605000Y-116392419D01*
X190703017Y-116382765D01*
X190797267Y-116354175D01*
X190884129Y-116307746D01*
X190960264Y-116245264D01*
X191022746Y-116169129D01*
X191069175Y-116082267D01*
X191097765Y-115988017D01*
X191107419Y-115890000D01*
X191106302Y-115601272D01*
X194024269Y-115601272D01*
X194389504Y-116056518D01*
X195027982Y-116408013D01*
X195722764Y-116628194D01*
X196447152Y-116708599D01*
X197173307Y-116646137D01*
X197873323Y-116443211D01*
X198520301Y-116107617D01*
X198596776Y-116056518D01*
X198962011Y-115601272D01*
X196493140Y-113132401D01*
X194024269Y-115601272D01*
X191106302Y-115601272D01*
X191105000Y-115265000D01*
X190980000Y-115140000D01*
X189855000Y-115140000D01*
X189655000Y-115140000D01*
X188530000Y-115140000D01*
X188465068Y-115204932D01*
X188436295Y-115140000D01*
X187315000Y-115140000D01*
X187115000Y-115140000D01*
X187095000Y-115140000D01*
X187095000Y-114940000D01*
X187115000Y-114940000D01*
X187115000Y-113819088D01*
X187315000Y-113819088D01*
X187315000Y-114940000D01*
X188436295Y-114940000D01*
X188465068Y-114875068D01*
X188530000Y-114940000D01*
X189655000Y-114940000D01*
X189655000Y-113815000D01*
X189855000Y-113815000D01*
X189855000Y-114940000D01*
X190980000Y-114940000D01*
X191105000Y-114815000D01*
X191107419Y-114190000D01*
X191097765Y-114091983D01*
X191069175Y-113997733D01*
X191022746Y-113910871D01*
X190960264Y-113834736D01*
X190884129Y-113772254D01*
X190797267Y-113725825D01*
X190703017Y-113697235D01*
X190605000Y-113687581D01*
X189980000Y-113690000D01*
X189855000Y-113815000D01*
X189655000Y-113815000D01*
X189530000Y-113690000D01*
X188905000Y-113687581D01*
X188806983Y-113697235D01*
X188712733Y-113725825D01*
X188625871Y-113772254D01*
X188549736Y-113834736D01*
X188487254Y-113910871D01*
X188440825Y-113997733D01*
X188412235Y-114091983D01*
X188402581Y-114190000D01*
X188403437Y-114411209D01*
X188310655Y-114251299D01*
X188135734Y-114052702D01*
X187925430Y-113892046D01*
X187687825Y-113775506D01*
X187524375Y-113725928D01*
X187315000Y-113819088D01*
X187115000Y-113819088D01*
X186905625Y-113725928D01*
X186742175Y-113775506D01*
X186504570Y-113892046D01*
X186338152Y-114019177D01*
X186189664Y-113796948D01*
X185918052Y-113525336D01*
X185598671Y-113311933D01*
X185243794Y-113164938D01*
X184867058Y-113090000D01*
X184482942Y-113090000D01*
X184106206Y-113164938D01*
X183751329Y-113311933D01*
X183431948Y-113525336D01*
X183405000Y-113552284D01*
X183378052Y-113525336D01*
X183058671Y-113311933D01*
X182703794Y-113164938D01*
X182327058Y-113090000D01*
X181942942Y-113090000D01*
X181566206Y-113164938D01*
X181211329Y-113311933D01*
X180891948Y-113525336D01*
X180865000Y-113552284D01*
X180838052Y-113525336D01*
X180518671Y-113311933D01*
X180163794Y-113164938D01*
X179787058Y-113090000D01*
X179402942Y-113090000D01*
X179026206Y-113164938D01*
X178671329Y-113311933D01*
X178351948Y-113525336D01*
X178325000Y-113552284D01*
X178298052Y-113525336D01*
X177978671Y-113311933D01*
X177623794Y-113164938D01*
X177247058Y-113090000D01*
X176862942Y-113090000D01*
X176486206Y-113164938D01*
X176131329Y-113311933D01*
X175811948Y-113525336D01*
X175785000Y-113552284D01*
X175758052Y-113525336D01*
X175438671Y-113311933D01*
X175083794Y-113164938D01*
X174707058Y-113090000D01*
X174322942Y-113090000D01*
X173946206Y-113164938D01*
X173591329Y-113311933D01*
X173271948Y-113525336D01*
X173245000Y-113552284D01*
X173218052Y-113525336D01*
X172898671Y-113311933D01*
X172543794Y-113164938D01*
X172167058Y-113090000D01*
X171782942Y-113090000D01*
X171406206Y-113164938D01*
X171051329Y-113311933D01*
X170731948Y-113525336D01*
X170705000Y-113552284D01*
X170678052Y-113525336D01*
X170358671Y-113311933D01*
X170003794Y-113164938D01*
X169627058Y-113090000D01*
X169242942Y-113090000D01*
X168866206Y-113164938D01*
X168511329Y-113311933D01*
X168191948Y-113525336D01*
X168165000Y-113552284D01*
X168138052Y-113525336D01*
X167818671Y-113311933D01*
X167463794Y-113164938D01*
X167087058Y-113090000D01*
X166702942Y-113090000D01*
X166326206Y-113164938D01*
X165971329Y-113311933D01*
X165651948Y-113525336D01*
X165625000Y-113552284D01*
X165598052Y-113525336D01*
X165278671Y-113311933D01*
X164923794Y-113164938D01*
X164547058Y-113090000D01*
X164162942Y-113090000D01*
X163786206Y-113164938D01*
X163431329Y-113311933D01*
X163111948Y-113525336D01*
X163085000Y-113552284D01*
X163058052Y-113525336D01*
X162738671Y-113311933D01*
X162383794Y-113164938D01*
X162007058Y-113090000D01*
X161622942Y-113090000D01*
X161246206Y-113164938D01*
X160891329Y-113311933D01*
X160571948Y-113525336D01*
X160545000Y-113552284D01*
X160518052Y-113525336D01*
X160198671Y-113311933D01*
X159843794Y-113164938D01*
X159467058Y-113090000D01*
X159082942Y-113090000D01*
X158706206Y-113164938D01*
X158351329Y-113311933D01*
X158031948Y-113525336D01*
X158005000Y-113552284D01*
X157978052Y-113525336D01*
X157658671Y-113311933D01*
X157303794Y-113164938D01*
X156927058Y-113090000D01*
X156542942Y-113090000D01*
X156166206Y-113164938D01*
X155811329Y-113311933D01*
X155491948Y-113525336D01*
X155465000Y-113552284D01*
X155438052Y-113525336D01*
X155118671Y-113311933D01*
X154763794Y-113164938D01*
X154387058Y-113090000D01*
X154002942Y-113090000D01*
X153626206Y-113164938D01*
X153271329Y-113311933D01*
X152951948Y-113525336D01*
X152925000Y-113552284D01*
X152898052Y-113525336D01*
X152578671Y-113311933D01*
X152223794Y-113164938D01*
X151847058Y-113090000D01*
X151462942Y-113090000D01*
X151086206Y-113164938D01*
X150731329Y-113311933D01*
X150411948Y-113525336D01*
X150140336Y-113796948D01*
X149991848Y-114019177D01*
X149825430Y-113892046D01*
X149587825Y-113775506D01*
X149424375Y-113725928D01*
X149215000Y-113819088D01*
X149215000Y-114940000D01*
X149235000Y-114940000D01*
X149235000Y-115140000D01*
X149215000Y-115140000D01*
X149215000Y-116260912D01*
X149424375Y-116354072D01*
X149587825Y-116304494D01*
X149825430Y-116187954D01*
X149991848Y-116060823D01*
X150140336Y-116283052D01*
X150411948Y-116554664D01*
X150731329Y-116768067D01*
X150868777Y-116825000D01*
X138926820Y-116825000D01*
X138926820Y-115645136D01*
X138962011Y-115601272D01*
X138926820Y-115566081D01*
X138926820Y-115283239D01*
X139103432Y-115459851D01*
X139241133Y-115349376D01*
X147800924Y-115349376D01*
X147886530Y-115599795D01*
X148019345Y-115828701D01*
X148194266Y-116027298D01*
X148404570Y-116187954D01*
X148642175Y-116304494D01*
X148805625Y-116354072D01*
X149015000Y-116260912D01*
X149015000Y-115140000D01*
X147893705Y-115140000D01*
X147800924Y-115349376D01*
X139241133Y-115349376D01*
X139558678Y-115094616D01*
X139759062Y-114730624D01*
X147800924Y-114730624D01*
X147893705Y-114940000D01*
X149015000Y-114940000D01*
X149015000Y-113819088D01*
X148805625Y-113725928D01*
X148642175Y-113775506D01*
X148404570Y-113892046D01*
X148194266Y-114052702D01*
X148019345Y-114251299D01*
X147886530Y-114480205D01*
X147800924Y-114730624D01*
X139759062Y-114730624D01*
X139910173Y-114456138D01*
X140130354Y-113761356D01*
X140176013Y-113350000D01*
X143952581Y-113350000D01*
X143962235Y-113448017D01*
X143990825Y-113542267D01*
X144037254Y-113629129D01*
X144099736Y-113705264D01*
X144175871Y-113767746D01*
X144262733Y-113814175D01*
X144356983Y-113842765D01*
X144455000Y-113852419D01*
X145080000Y-113850000D01*
X145205000Y-113725000D01*
X145205000Y-112600000D01*
X145405000Y-112600000D01*
X145405000Y-113725000D01*
X145530000Y-113850000D01*
X146155000Y-113852419D01*
X146253017Y-113842765D01*
X146347267Y-113814175D01*
X146434129Y-113767746D01*
X146510264Y-113705264D01*
X146572746Y-113629129D01*
X146619175Y-113542267D01*
X146647765Y-113448017D01*
X146657419Y-113350000D01*
X146655852Y-112944992D01*
X192775521Y-112944992D01*
X192837983Y-113671147D01*
X193040909Y-114371163D01*
X193376503Y-115018141D01*
X193427602Y-115094616D01*
X193882848Y-115459851D01*
X196351719Y-112990980D01*
X193882848Y-110522109D01*
X193427602Y-110887344D01*
X193076107Y-111525822D01*
X192855926Y-112220604D01*
X192775521Y-112944992D01*
X146655852Y-112944992D01*
X146655000Y-112725000D01*
X146530000Y-112600000D01*
X145405000Y-112600000D01*
X145205000Y-112600000D01*
X144080000Y-112600000D01*
X143955000Y-112725000D01*
X143952581Y-113350000D01*
X140176013Y-113350000D01*
X140210759Y-113036968D01*
X140148297Y-112310813D01*
X139945371Y-111610797D01*
X139609777Y-110963819D01*
X139558678Y-110887344D01*
X139103432Y-110522109D01*
X138926820Y-110698721D01*
X138926820Y-110415879D01*
X138962011Y-110380688D01*
X138926820Y-110336824D01*
X138926820Y-107227942D01*
X143355000Y-107227942D01*
X143355000Y-107612058D01*
X143429938Y-107988794D01*
X143576933Y-108343671D01*
X143790336Y-108663052D01*
X143817284Y-108690000D01*
X143790336Y-108716948D01*
X143576933Y-109036329D01*
X143429938Y-109391206D01*
X143355000Y-109767942D01*
X143355000Y-110152058D01*
X143429938Y-110528794D01*
X143576933Y-110883671D01*
X143790336Y-111203052D01*
X144009702Y-111422418D01*
X143990825Y-111457733D01*
X143962235Y-111551983D01*
X143952581Y-111650000D01*
X143955000Y-112275000D01*
X144080000Y-112400000D01*
X145205000Y-112400000D01*
X145205000Y-112380000D01*
X145405000Y-112380000D01*
X145405000Y-112400000D01*
X146530000Y-112400000D01*
X146655000Y-112275000D01*
X146657419Y-111650000D01*
X146647765Y-111551983D01*
X146619175Y-111457733D01*
X146600298Y-111422418D01*
X146819664Y-111203052D01*
X147033067Y-110883671D01*
X147180062Y-110528794D01*
X147255000Y-110152058D01*
X147255000Y-109767942D01*
X147180062Y-109391206D01*
X147033067Y-109036329D01*
X146819664Y-108716948D01*
X146792716Y-108690000D01*
X146819664Y-108663052D01*
X147033067Y-108343671D01*
X147180062Y-107988794D01*
X147209659Y-107840000D01*
X178909678Y-107840000D01*
X178909678Y-109540000D01*
X178930916Y-109755638D01*
X178993816Y-109962988D01*
X179095958Y-110154084D01*
X179233419Y-110321581D01*
X179400916Y-110459042D01*
X179592012Y-110561184D01*
X179799362Y-110624084D01*
X180015000Y-110645322D01*
X181715000Y-110645322D01*
X181930638Y-110624084D01*
X182137988Y-110561184D01*
X182329084Y-110459042D01*
X182424931Y-110380383D01*
X182481329Y-110418067D01*
X182836206Y-110565062D01*
X183212942Y-110640000D01*
X183597058Y-110640000D01*
X183973794Y-110565062D01*
X184328671Y-110418067D01*
X184648052Y-110204664D01*
X184675000Y-110177716D01*
X184701948Y-110204664D01*
X185021329Y-110418067D01*
X185376206Y-110565062D01*
X185752942Y-110640000D01*
X186137058Y-110640000D01*
X186513794Y-110565062D01*
X186868671Y-110418067D01*
X187188052Y-110204664D01*
X187215000Y-110177716D01*
X187241948Y-110204664D01*
X187561329Y-110418067D01*
X187916206Y-110565062D01*
X188292942Y-110640000D01*
X188677058Y-110640000D01*
X189053794Y-110565062D01*
X189408671Y-110418067D01*
X189464612Y-110380688D01*
X194024269Y-110380688D01*
X196493140Y-112849559D01*
X198962011Y-110380688D01*
X198596776Y-109925442D01*
X197958298Y-109573947D01*
X197263516Y-109353766D01*
X196539128Y-109273361D01*
X195812973Y-109335823D01*
X195112957Y-109538749D01*
X194465979Y-109874343D01*
X194389504Y-109925442D01*
X194024269Y-110380688D01*
X189464612Y-110380688D01*
X189728052Y-110204664D01*
X189999664Y-109933052D01*
X190148152Y-109710823D01*
X190314570Y-109837954D01*
X190552175Y-109954494D01*
X190715625Y-110004072D01*
X190925000Y-109910912D01*
X190925000Y-108790000D01*
X191125000Y-108790000D01*
X191125000Y-109910912D01*
X191334375Y-110004072D01*
X191497825Y-109954494D01*
X191735430Y-109837954D01*
X191945734Y-109677298D01*
X192120655Y-109478701D01*
X192253470Y-109249795D01*
X192339076Y-108999376D01*
X192246295Y-108790000D01*
X191125000Y-108790000D01*
X190925000Y-108790000D01*
X190905000Y-108790000D01*
X190905000Y-108590000D01*
X190925000Y-108590000D01*
X190925000Y-107469088D01*
X191125000Y-107469088D01*
X191125000Y-108590000D01*
X192246295Y-108590000D01*
X192339076Y-108380624D01*
X192253470Y-108130205D01*
X192120655Y-107901299D01*
X191945734Y-107702702D01*
X191735430Y-107542046D01*
X191497825Y-107425506D01*
X191334375Y-107375928D01*
X191125000Y-107469088D01*
X190925000Y-107469088D01*
X190715625Y-107375928D01*
X190552175Y-107425506D01*
X190314570Y-107542046D01*
X190148152Y-107669177D01*
X189999664Y-107446948D01*
X189728052Y-107175336D01*
X189408671Y-106961933D01*
X189053794Y-106814938D01*
X188677058Y-106740000D01*
X188292942Y-106740000D01*
X187916206Y-106814938D01*
X187561329Y-106961933D01*
X187241948Y-107175336D01*
X187215000Y-107202284D01*
X187188052Y-107175336D01*
X186868671Y-106961933D01*
X186513794Y-106814938D01*
X186137058Y-106740000D01*
X185752942Y-106740000D01*
X185376206Y-106814938D01*
X185021329Y-106961933D01*
X184701948Y-107175336D01*
X184675000Y-107202284D01*
X184648052Y-107175336D01*
X184328671Y-106961933D01*
X183973794Y-106814938D01*
X183597058Y-106740000D01*
X183212942Y-106740000D01*
X182836206Y-106814938D01*
X182481329Y-106961933D01*
X182424931Y-106999617D01*
X182329084Y-106920958D01*
X182137988Y-106818816D01*
X181930638Y-106755916D01*
X181715000Y-106734678D01*
X180015000Y-106734678D01*
X179799362Y-106755916D01*
X179592012Y-106818816D01*
X179400916Y-106920958D01*
X179233419Y-107058419D01*
X179095958Y-107225916D01*
X178993816Y-107417012D01*
X178930916Y-107624362D01*
X178909678Y-107840000D01*
X147209659Y-107840000D01*
X147255000Y-107612058D01*
X147255000Y-107227942D01*
X147180062Y-106851206D01*
X147033067Y-106496329D01*
X146819664Y-106176948D01*
X146755603Y-106112887D01*
X146841962Y-106139084D01*
X147057600Y-106160322D01*
X148632400Y-106160322D01*
X148848038Y-106139084D01*
X149055388Y-106076184D01*
X149246484Y-105974042D01*
X149354533Y-105885369D01*
X149577477Y-106004535D01*
X149973329Y-106124615D01*
X150385000Y-106165161D01*
X150796672Y-106124615D01*
X151192524Y-106004535D01*
X151557343Y-105809535D01*
X151655001Y-105729389D01*
X151752658Y-105809535D01*
X152117477Y-106004535D01*
X152513329Y-106124615D01*
X152925000Y-106165161D01*
X153336672Y-106124615D01*
X153732524Y-106004535D01*
X154097343Y-105809535D01*
X154417109Y-105547109D01*
X154625116Y-105293652D01*
X154714792Y-105357761D01*
X154983363Y-105479087D01*
X155132101Y-105517593D01*
X155365000Y-105426359D01*
X155365000Y-102905000D01*
X155345000Y-102905000D01*
X155345000Y-102705000D01*
X155365000Y-102705000D01*
X155365000Y-100183641D01*
X155132101Y-100092407D01*
X154983363Y-100130913D01*
X154714792Y-100252239D01*
X154625116Y-100316348D01*
X154417109Y-100062891D01*
X154097343Y-99800465D01*
X153732523Y-99605465D01*
X153336671Y-99485385D01*
X152925000Y-99444839D01*
X152513328Y-99485385D01*
X152117476Y-99605465D01*
X151752657Y-99800465D01*
X151655000Y-99880610D01*
X151557343Y-99800465D01*
X151192523Y-99605465D01*
X150796671Y-99485385D01*
X150385000Y-99444839D01*
X149973328Y-99485385D01*
X149577476Y-99605465D01*
X149354532Y-99724631D01*
X149246484Y-99635958D01*
X149055388Y-99533816D01*
X148848038Y-99470916D01*
X148632400Y-99449678D01*
X147057600Y-99449678D01*
X146841962Y-99470916D01*
X146634612Y-99533816D01*
X146443516Y-99635958D01*
X146276019Y-99773419D01*
X146138558Y-99940916D01*
X146036416Y-100132012D01*
X145973516Y-100339362D01*
X145952278Y-100555000D01*
X145952278Y-105055000D01*
X145973516Y-105270638D01*
X146036416Y-105477988D01*
X146128620Y-105650490D01*
X145873794Y-105544938D01*
X145497058Y-105470000D01*
X145112942Y-105470000D01*
X144736206Y-105544938D01*
X144381329Y-105691933D01*
X144061948Y-105905336D01*
X143790336Y-106176948D01*
X143576933Y-106496329D01*
X143429938Y-106851206D01*
X143355000Y-107227942D01*
X138926820Y-107227942D01*
X138926820Y-102006531D01*
X141100453Y-102006531D01*
X141125688Y-102110100D01*
X141228532Y-102344094D01*
X141375050Y-102553528D01*
X141559611Y-102730353D01*
X141775123Y-102867775D01*
X142013304Y-102960512D01*
X142265000Y-103005000D01*
X142665000Y-103005000D01*
X142665000Y-101805000D01*
X142865000Y-101805000D01*
X142865000Y-103005000D01*
X143265000Y-103005000D01*
X143516696Y-102960512D01*
X143754877Y-102867775D01*
X143970389Y-102730353D01*
X144154950Y-102553528D01*
X144301468Y-102344094D01*
X144404312Y-102110100D01*
X144429547Y-102006531D01*
X144335737Y-101805000D01*
X142865000Y-101805000D01*
X142665000Y-101805000D01*
X141194263Y-101805000D01*
X141100453Y-102006531D01*
X138926820Y-102006531D01*
X138926820Y-96625000D01*
X140455807Y-96625000D01*
X140492492Y-96997465D01*
X140601136Y-97355617D01*
X140777564Y-97685691D01*
X140949340Y-97895000D01*
X140777564Y-98104309D01*
X140601136Y-98434383D01*
X140492492Y-98792535D01*
X140455807Y-99165000D01*
X140492492Y-99537465D01*
X140601136Y-99895617D01*
X140777564Y-100225691D01*
X141014997Y-100515003D01*
X141304309Y-100752436D01*
X141419419Y-100813963D01*
X141375050Y-100856472D01*
X141228532Y-101065906D01*
X141125688Y-101299900D01*
X141100453Y-101403469D01*
X141194263Y-101605000D01*
X142665000Y-101605000D01*
X142665000Y-101585000D01*
X142865000Y-101585000D01*
X142865000Y-101605000D01*
X144335737Y-101605000D01*
X144429547Y-101403469D01*
X144404312Y-101299900D01*
X144301468Y-101065906D01*
X144154950Y-100856472D01*
X144110581Y-100813963D01*
X144225691Y-100752436D01*
X144515003Y-100515003D01*
X144752436Y-100225691D01*
X144928864Y-99895617D01*
X145037508Y-99537465D01*
X145074193Y-99165000D01*
X145037508Y-98792535D01*
X144928864Y-98434383D01*
X144752436Y-98104309D01*
X144580660Y-97895000D01*
X144752436Y-97685691D01*
X144928864Y-97355617D01*
X145037508Y-96997465D01*
X145074193Y-96625000D01*
X145037508Y-96252535D01*
X144928864Y-95894383D01*
X144752436Y-95564309D01*
X144515003Y-95274997D01*
X144225691Y-95037564D01*
X143895617Y-94861136D01*
X143537465Y-94752492D01*
X143258337Y-94725000D01*
X142271663Y-94725000D01*
X141992535Y-94752492D01*
X141634383Y-94861136D01*
X141304309Y-95037564D01*
X141014997Y-95274997D01*
X140777564Y-95564309D01*
X140601136Y-95894383D01*
X140492492Y-96252535D01*
X140455807Y-96625000D01*
X138926820Y-96625000D01*
X138926820Y-94588092D01*
X151433140Y-94588092D01*
X151433140Y-94863868D01*
X151486941Y-95134345D01*
X151592476Y-95389129D01*
X151745689Y-95618428D01*
X151940692Y-95813431D01*
X152169991Y-95966644D01*
X152424775Y-96072179D01*
X152695252Y-96125980D01*
X152971028Y-96125980D01*
X153222396Y-96075980D01*
X153231533Y-96075980D01*
X153254736Y-96095022D01*
X153445832Y-96197164D01*
X153653182Y-96260064D01*
X153868820Y-96281302D01*
X154368820Y-96281302D01*
X154584458Y-96260064D01*
X154791808Y-96197164D01*
X154868820Y-96156001D01*
X154945832Y-96197164D01*
X155153182Y-96260064D01*
X155368820Y-96281302D01*
X155868820Y-96281302D01*
X156084458Y-96260064D01*
X156291808Y-96197164D01*
X156482904Y-96095022D01*
X156506107Y-96075980D01*
X157586352Y-96075980D01*
X159195001Y-97684630D01*
X159195000Y-99814956D01*
X159177343Y-99800465D01*
X158812523Y-99605465D01*
X158416671Y-99485385D01*
X158005000Y-99444839D01*
X157593328Y-99485385D01*
X157197476Y-99605465D01*
X156832657Y-99800465D01*
X156512891Y-100062891D01*
X156304884Y-100316348D01*
X156215208Y-100252239D01*
X155946637Y-100130913D01*
X155797899Y-100092407D01*
X155565000Y-100183641D01*
X155565000Y-102705000D01*
X155585000Y-102705000D01*
X155585000Y-102905000D01*
X155565000Y-102905000D01*
X155565000Y-105426359D01*
X155797899Y-105517593D01*
X155946637Y-105479087D01*
X156215208Y-105357761D01*
X156304884Y-105293651D01*
X156512892Y-105547109D01*
X156832658Y-105809535D01*
X157197477Y-106004535D01*
X157593329Y-106124615D01*
X158005000Y-106165161D01*
X158416672Y-106124615D01*
X158812524Y-106004535D01*
X159177343Y-105809535D01*
X159275001Y-105729389D01*
X159372658Y-105809535D01*
X159737477Y-106004535D01*
X160133329Y-106124615D01*
X160545000Y-106165161D01*
X160956672Y-106124615D01*
X161352524Y-106004535D01*
X161717343Y-105809535D01*
X161815001Y-105729389D01*
X161912658Y-105809535D01*
X162277477Y-106004535D01*
X162673329Y-106124615D01*
X163085000Y-106165161D01*
X163496672Y-106124615D01*
X163892524Y-106004535D01*
X164257343Y-105809535D01*
X164355001Y-105729389D01*
X164452658Y-105809535D01*
X164817477Y-106004535D01*
X165213329Y-106124615D01*
X165625000Y-106165161D01*
X166036672Y-106124615D01*
X166432524Y-106004535D01*
X166797343Y-105809535D01*
X166895001Y-105729389D01*
X166992658Y-105809535D01*
X167357477Y-106004535D01*
X167753329Y-106124615D01*
X168165000Y-106165161D01*
X168576672Y-106124615D01*
X168972524Y-106004535D01*
X169337343Y-105809535D01*
X169435001Y-105729389D01*
X169532658Y-105809535D01*
X169897477Y-106004535D01*
X170293329Y-106124615D01*
X170705000Y-106165161D01*
X171116672Y-106124615D01*
X171512524Y-106004535D01*
X171877343Y-105809535D01*
X171975001Y-105729389D01*
X172072658Y-105809535D01*
X172437477Y-106004535D01*
X172833329Y-106124615D01*
X173245000Y-106165161D01*
X173656672Y-106124615D01*
X174052524Y-106004535D01*
X174417343Y-105809535D01*
X174515001Y-105729389D01*
X174612658Y-105809535D01*
X174977477Y-106004535D01*
X175373329Y-106124615D01*
X175785000Y-106165161D01*
X176196672Y-106124615D01*
X176592524Y-106004535D01*
X176957343Y-105809535D01*
X177055001Y-105729389D01*
X177152658Y-105809535D01*
X177517477Y-106004535D01*
X177913329Y-106124615D01*
X178325000Y-106165161D01*
X178736672Y-106124615D01*
X179132524Y-106004535D01*
X179497343Y-105809535D01*
X179595001Y-105729389D01*
X179692658Y-105809535D01*
X180057477Y-106004535D01*
X180453329Y-106124615D01*
X180865000Y-106165161D01*
X181276672Y-106124615D01*
X181672524Y-106004535D01*
X182037343Y-105809535D01*
X182135001Y-105729389D01*
X182232658Y-105809535D01*
X182597477Y-106004535D01*
X182993329Y-106124615D01*
X183405000Y-106165161D01*
X183816672Y-106124615D01*
X184212524Y-106004535D01*
X184577343Y-105809535D01*
X184897109Y-105547109D01*
X185159535Y-105227343D01*
X185354535Y-104862524D01*
X185474615Y-104466672D01*
X185505000Y-104158167D01*
X185505000Y-101451833D01*
X185474615Y-101143328D01*
X185354535Y-100747476D01*
X185159535Y-100382657D01*
X184897109Y-100062891D01*
X184577343Y-99800465D01*
X184212523Y-99605465D01*
X183816671Y-99485385D01*
X183405000Y-99444839D01*
X182993328Y-99485385D01*
X182597476Y-99605465D01*
X182232657Y-99800465D01*
X182135000Y-99880610D01*
X182037343Y-99800465D01*
X181672523Y-99605465D01*
X181276671Y-99485385D01*
X180865000Y-99444839D01*
X180453328Y-99485385D01*
X180057476Y-99605465D01*
X179692657Y-99800465D01*
X179595000Y-99880610D01*
X179497343Y-99800465D01*
X179132523Y-99605465D01*
X178736671Y-99485385D01*
X178325000Y-99444839D01*
X177913328Y-99485385D01*
X177517476Y-99605465D01*
X177152657Y-99800465D01*
X177055000Y-99880610D01*
X176957343Y-99800465D01*
X176592523Y-99605465D01*
X176196671Y-99485385D01*
X175785000Y-99444839D01*
X175373328Y-99485385D01*
X174977476Y-99605465D01*
X174612657Y-99800465D01*
X174515000Y-99880610D01*
X174417343Y-99800465D01*
X174052523Y-99605465D01*
X173656671Y-99485385D01*
X173245000Y-99444839D01*
X172833328Y-99485385D01*
X172437476Y-99605465D01*
X172072657Y-99800465D01*
X171975000Y-99880610D01*
X171877343Y-99800465D01*
X171512523Y-99605465D01*
X171116671Y-99485385D01*
X170705000Y-99444839D01*
X170293328Y-99485385D01*
X169897476Y-99605465D01*
X169532657Y-99800465D01*
X169435000Y-99880610D01*
X169337343Y-99800465D01*
X168972523Y-99605465D01*
X168576671Y-99485385D01*
X168165000Y-99444839D01*
X167753328Y-99485385D01*
X167357476Y-99605465D01*
X166992657Y-99800465D01*
X166895000Y-99880610D01*
X166797343Y-99800465D01*
X166432523Y-99605465D01*
X166036671Y-99485385D01*
X165625000Y-99444839D01*
X165213328Y-99485385D01*
X164817476Y-99605465D01*
X164452657Y-99800465D01*
X164355000Y-99880610D01*
X164257343Y-99800465D01*
X163892523Y-99605465D01*
X163496671Y-99485385D01*
X163085000Y-99444839D01*
X162673328Y-99485385D01*
X162277476Y-99605465D01*
X161912657Y-99800465D01*
X161895000Y-99814956D01*
X161895000Y-97191759D01*
X161901532Y-97125440D01*
X161895000Y-97059119D01*
X161875467Y-96860794D01*
X161798272Y-96606318D01*
X161739919Y-96497147D01*
X161672915Y-96371790D01*
X161546490Y-96217741D01*
X161546487Y-96217738D01*
X161504213Y-96166227D01*
X161452702Y-96123953D01*
X159147031Y-93818283D01*
X159104753Y-93766767D01*
X158899189Y-93598065D01*
X158664662Y-93472708D01*
X158410186Y-93395513D01*
X158211861Y-93375980D01*
X158211859Y-93375980D01*
X158145540Y-93369448D01*
X158079221Y-93375980D01*
X156506107Y-93375980D01*
X156482904Y-93356938D01*
X156291808Y-93254796D01*
X156084458Y-93191896D01*
X155868820Y-93170658D01*
X155368820Y-93170658D01*
X155153182Y-93191896D01*
X154945832Y-93254796D01*
X154868820Y-93295959D01*
X154791808Y-93254796D01*
X154584458Y-93191896D01*
X154368820Y-93170658D01*
X153868820Y-93170658D01*
X153653182Y-93191896D01*
X153445832Y-93254796D01*
X153254736Y-93356938D01*
X153231533Y-93375980D01*
X153222396Y-93375980D01*
X152971028Y-93325980D01*
X152695252Y-93325980D01*
X152424775Y-93379781D01*
X152169991Y-93485316D01*
X151940692Y-93638529D01*
X151745689Y-93833532D01*
X151592476Y-94062831D01*
X151486941Y-94317615D01*
X151433140Y-94588092D01*
X138926820Y-94588092D01*
X138926820Y-90745000D01*
X140459678Y-90745000D01*
X140459678Y-92345000D01*
X140480916Y-92560638D01*
X140543816Y-92767988D01*
X140645958Y-92959084D01*
X140783419Y-93126581D01*
X140950916Y-93264042D01*
X141142012Y-93366184D01*
X141349362Y-93429084D01*
X141565000Y-93450322D01*
X143965000Y-93450322D01*
X144180638Y-93429084D01*
X144387988Y-93366184D01*
X144579084Y-93264042D01*
X144746581Y-93126581D01*
X144884042Y-92959084D01*
X144986184Y-92767988D01*
X145049084Y-92560638D01*
X145070322Y-92345000D01*
X145070322Y-91615980D01*
X151000721Y-91615980D01*
X151010375Y-91713997D01*
X151038965Y-91808247D01*
X151085394Y-91895109D01*
X151147876Y-91971244D01*
X151224011Y-92033726D01*
X151310873Y-92080155D01*
X151405123Y-92108745D01*
X151503140Y-92118399D01*
X151765640Y-92115980D01*
X151890640Y-91990980D01*
X151890640Y-91015980D01*
X151128140Y-91015980D01*
X151003140Y-91140980D01*
X151000721Y-91615980D01*
X145070322Y-91615980D01*
X145070322Y-90745000D01*
X145049084Y-90529362D01*
X144986184Y-90322012D01*
X144929510Y-90215980D01*
X151000721Y-90215980D01*
X151003140Y-90690980D01*
X151128140Y-90815980D01*
X151890640Y-90815980D01*
X151890640Y-89840980D01*
X151765640Y-89715980D01*
X151503140Y-89713561D01*
X151405123Y-89723215D01*
X151310873Y-89751805D01*
X151224011Y-89798234D01*
X151147876Y-89860716D01*
X151085394Y-89936851D01*
X151038965Y-90023713D01*
X151010375Y-90117963D01*
X151000721Y-90215980D01*
X144929510Y-90215980D01*
X144884042Y-90130916D01*
X144746581Y-89963419D01*
X144579084Y-89825958D01*
X144387988Y-89723816D01*
X144270606Y-89688208D01*
X144301468Y-89644094D01*
X144404312Y-89410100D01*
X144429547Y-89306531D01*
X144335737Y-89105000D01*
X142865000Y-89105000D01*
X142865000Y-89125000D01*
X142665000Y-89125000D01*
X142665000Y-89105000D01*
X141194263Y-89105000D01*
X141100453Y-89306531D01*
X141125688Y-89410100D01*
X141228532Y-89644094D01*
X141259394Y-89688208D01*
X141142012Y-89723816D01*
X140950916Y-89825958D01*
X140783419Y-89963419D01*
X140645958Y-90130916D01*
X140543816Y-90322012D01*
X140480916Y-90529362D01*
X140459678Y-90745000D01*
X138926820Y-90745000D01*
X138926820Y-86465000D01*
X140455807Y-86465000D01*
X140492492Y-86837465D01*
X140601136Y-87195617D01*
X140777564Y-87525691D01*
X141014997Y-87815003D01*
X141304309Y-88052436D01*
X141419419Y-88113963D01*
X141375050Y-88156472D01*
X141228532Y-88365906D01*
X141125688Y-88599900D01*
X141100453Y-88703469D01*
X141194263Y-88905000D01*
X142665000Y-88905000D01*
X142665000Y-88885000D01*
X142865000Y-88885000D01*
X142865000Y-88905000D01*
X144335737Y-88905000D01*
X144429547Y-88703469D01*
X144404312Y-88599900D01*
X144301468Y-88365906D01*
X144154950Y-88156472D01*
X144110581Y-88113963D01*
X144225691Y-88052436D01*
X144515003Y-87815003D01*
X144752436Y-87525691D01*
X144928864Y-87195617D01*
X145037508Y-86837465D01*
X145074193Y-86465000D01*
X145037508Y-86092535D01*
X144928864Y-85734383D01*
X144752436Y-85404309D01*
X144515003Y-85114997D01*
X144225691Y-84877564D01*
X143895617Y-84701136D01*
X143537465Y-84592492D01*
X143258337Y-84565000D01*
X142271663Y-84565000D01*
X141992535Y-84592492D01*
X141634383Y-84701136D01*
X141304309Y-84877564D01*
X141014997Y-85114997D01*
X140777564Y-85404309D01*
X140601136Y-85734383D01*
X140492492Y-86092535D01*
X140455807Y-86465000D01*
X138926820Y-86465000D01*
X138926820Y-81192942D01*
X143355000Y-81192942D01*
X143355000Y-81577058D01*
X143429938Y-81953794D01*
X143576933Y-82308671D01*
X143790336Y-82628052D01*
X144061948Y-82899664D01*
X144381329Y-83113067D01*
X144736206Y-83260062D01*
X145112942Y-83335000D01*
X145497058Y-83335000D01*
X145873794Y-83260062D01*
X145934178Y-83235050D01*
X145895465Y-83307477D01*
X145775385Y-83703329D01*
X145745000Y-84011834D01*
X145745000Y-86718167D01*
X145775386Y-87026672D01*
X145895466Y-87422524D01*
X146090466Y-87787343D01*
X146352892Y-88107109D01*
X146672658Y-88369535D01*
X147037477Y-88564535D01*
X147433329Y-88684615D01*
X147845000Y-88725161D01*
X148256672Y-88684615D01*
X148652524Y-88564535D01*
X149017343Y-88369535D01*
X149337109Y-88107109D01*
X149545116Y-87853652D01*
X149634792Y-87917761D01*
X149903363Y-88039087D01*
X150052101Y-88077593D01*
X150285000Y-87986359D01*
X150285000Y-85465000D01*
X150265000Y-85465000D01*
X150265000Y-85265000D01*
X150285000Y-85265000D01*
X150285000Y-82743641D01*
X150485000Y-82743641D01*
X150485000Y-85265000D01*
X150505000Y-85265000D01*
X150505000Y-85465000D01*
X150485000Y-85465000D01*
X150485000Y-87986359D01*
X150717899Y-88077593D01*
X150866637Y-88039087D01*
X151135208Y-87917761D01*
X151224884Y-87853651D01*
X151432892Y-88107109D01*
X151752658Y-88369535D01*
X152117477Y-88564535D01*
X152513329Y-88684615D01*
X152925000Y-88725161D01*
X153336672Y-88684615D01*
X153732524Y-88564535D01*
X153990001Y-88426911D01*
X153990001Y-89110658D01*
X153621890Y-89110658D01*
X153358699Y-89136580D01*
X153105622Y-89213350D01*
X152872386Y-89338018D01*
X152667952Y-89505792D01*
X152500178Y-89710226D01*
X152497382Y-89715456D01*
X152478140Y-89713561D01*
X152215640Y-89715980D01*
X152090640Y-89840980D01*
X152090640Y-90815980D01*
X152110640Y-90815980D01*
X152110640Y-91015980D01*
X152090640Y-91015980D01*
X152090640Y-91990980D01*
X152215640Y-92115980D01*
X152478140Y-92118399D01*
X152497382Y-92116504D01*
X152500178Y-92121734D01*
X152667952Y-92326168D01*
X152872386Y-92493942D01*
X153105622Y-92618610D01*
X153358699Y-92695380D01*
X153621890Y-92721302D01*
X154109390Y-92721302D01*
X154372581Y-92695380D01*
X154625658Y-92618610D01*
X154858894Y-92493942D01*
X154995096Y-92382165D01*
X155122290Y-92369637D01*
X155400329Y-92285295D01*
X155656571Y-92148331D01*
X155881168Y-91964008D01*
X155927356Y-91907728D01*
X156459890Y-91375194D01*
X156516168Y-91329008D01*
X156700490Y-91104411D01*
X156801209Y-90915980D01*
X156837455Y-90848169D01*
X156921797Y-90570130D01*
X156950275Y-90280980D01*
X156940000Y-90176653D01*
X156940000Y-88426911D01*
X157197477Y-88564535D01*
X157593329Y-88684615D01*
X158005000Y-88725161D01*
X158416672Y-88684615D01*
X158812524Y-88564535D01*
X159177343Y-88369535D01*
X159275000Y-88289389D01*
X159372658Y-88369535D01*
X159737477Y-88564535D01*
X160133329Y-88684615D01*
X160545000Y-88725161D01*
X160956672Y-88684615D01*
X161352524Y-88564535D01*
X161717343Y-88369535D01*
X161815000Y-88289389D01*
X161912658Y-88369535D01*
X162277477Y-88564535D01*
X162673329Y-88684615D01*
X163085000Y-88725161D01*
X163496672Y-88684615D01*
X163892524Y-88564535D01*
X164257343Y-88369535D01*
X164355000Y-88289389D01*
X164452658Y-88369535D01*
X164817477Y-88564535D01*
X165213329Y-88684615D01*
X165625000Y-88725161D01*
X166036672Y-88684615D01*
X166432524Y-88564535D01*
X166797343Y-88369535D01*
X166895000Y-88289389D01*
X166992658Y-88369535D01*
X167357477Y-88564535D01*
X167753329Y-88684615D01*
X168165000Y-88725161D01*
X168576672Y-88684615D01*
X168972524Y-88564535D01*
X169337343Y-88369535D01*
X169435000Y-88289389D01*
X169532658Y-88369535D01*
X169897477Y-88564535D01*
X170293329Y-88684615D01*
X170705000Y-88725161D01*
X171116672Y-88684615D01*
X171512524Y-88564535D01*
X171877343Y-88369535D01*
X171975000Y-88289389D01*
X172072658Y-88369535D01*
X172437477Y-88564535D01*
X172833329Y-88684615D01*
X173245000Y-88725161D01*
X173656672Y-88684615D01*
X174052524Y-88564535D01*
X174417343Y-88369535D01*
X174515000Y-88289389D01*
X174612658Y-88369535D01*
X174977477Y-88564535D01*
X175373329Y-88684615D01*
X175785000Y-88725161D01*
X176196672Y-88684615D01*
X176592524Y-88564535D01*
X176957343Y-88369535D01*
X177055000Y-88289389D01*
X177152658Y-88369535D01*
X177517477Y-88564535D01*
X177913329Y-88684615D01*
X178325000Y-88725161D01*
X178736672Y-88684615D01*
X179132524Y-88564535D01*
X179497343Y-88369535D01*
X179595000Y-88289389D01*
X179692658Y-88369535D01*
X180057477Y-88564535D01*
X180453329Y-88684615D01*
X180865000Y-88725161D01*
X181276672Y-88684615D01*
X181672524Y-88564535D01*
X182037343Y-88369535D01*
X182135000Y-88289389D01*
X182232658Y-88369535D01*
X182597477Y-88564535D01*
X182993329Y-88684615D01*
X183405000Y-88725161D01*
X183816672Y-88684615D01*
X184212524Y-88564535D01*
X184577343Y-88369535D01*
X184897109Y-88107109D01*
X185159535Y-87787343D01*
X185354535Y-87422524D01*
X185474615Y-87026672D01*
X185505000Y-86718167D01*
X185505000Y-84011833D01*
X185474615Y-83703328D01*
X185354535Y-83307476D01*
X185159535Y-82942657D01*
X184897109Y-82622891D01*
X184577343Y-82360465D01*
X184212523Y-82165465D01*
X183816671Y-82045385D01*
X183405000Y-82004839D01*
X182993328Y-82045385D01*
X182597476Y-82165465D01*
X182232657Y-82360465D01*
X182135000Y-82440610D01*
X182037343Y-82360465D01*
X181672523Y-82165465D01*
X181276671Y-82045385D01*
X180865000Y-82004839D01*
X180453328Y-82045385D01*
X180057476Y-82165465D01*
X179692657Y-82360465D01*
X179595000Y-82440610D01*
X179497343Y-82360465D01*
X179132523Y-82165465D01*
X178736671Y-82045385D01*
X178325000Y-82004839D01*
X177913328Y-82045385D01*
X177517476Y-82165465D01*
X177152657Y-82360465D01*
X177123685Y-82384242D01*
X177121700Y-82364084D01*
X177115467Y-82300794D01*
X177038272Y-82046318D01*
X176940771Y-81863906D01*
X176912915Y-81811790D01*
X176786490Y-81657741D01*
X176786487Y-81657738D01*
X176744213Y-81606227D01*
X176692702Y-81563953D01*
X176168820Y-81040072D01*
X176168820Y-79825744D01*
X176214797Y-79801169D01*
X176420177Y-79632617D01*
X176588729Y-79427237D01*
X176713974Y-79192919D01*
X176791100Y-78938670D01*
X176817142Y-78674260D01*
X176817142Y-78535451D01*
X187909750Y-78535451D01*
X187985902Y-78769669D01*
X188120825Y-79020223D01*
X188302036Y-79239640D01*
X188522571Y-79419489D01*
X188773955Y-79552858D01*
X189046528Y-79634621D01*
X189272820Y-79535694D01*
X189272820Y-78310000D01*
X189472820Y-78310000D01*
X189472820Y-79535694D01*
X189699112Y-79634621D01*
X189971685Y-79552858D01*
X190223069Y-79419489D01*
X190443604Y-79239640D01*
X190624815Y-79020223D01*
X190759738Y-78769669D01*
X190835890Y-78535451D01*
X190744048Y-78310000D01*
X189472820Y-78310000D01*
X189272820Y-78310000D01*
X188001592Y-78310000D01*
X187909750Y-78535451D01*
X176817142Y-78535451D01*
X176817142Y-77924260D01*
X176791388Y-77662771D01*
X176918820Y-77675322D01*
X178718820Y-77675322D01*
X178934458Y-77654084D01*
X179141808Y-77591184D01*
X179332904Y-77489042D01*
X179500401Y-77351581D01*
X179637862Y-77184084D01*
X179740004Y-76992988D01*
X179802904Y-76785638D01*
X179824142Y-76570000D01*
X179824142Y-74770000D01*
X179802904Y-74554362D01*
X179740004Y-74347012D01*
X179637862Y-74155916D01*
X179500401Y-73988419D01*
X179418567Y-73921260D01*
X179658878Y-73921260D01*
X180035614Y-73846322D01*
X180390491Y-73699327D01*
X180446889Y-73661643D01*
X180531821Y-73731344D01*
X180531821Y-74705545D01*
X180524685Y-74778000D01*
X180553163Y-75067150D01*
X180637505Y-75345188D01*
X180698794Y-75459851D01*
X180774470Y-75601431D01*
X180898820Y-75752951D01*
X180898820Y-75866983D01*
X180975679Y-76253378D01*
X181126443Y-76617355D01*
X181345319Y-76944926D01*
X181623894Y-77223501D01*
X181951465Y-77442377D01*
X182315442Y-77593141D01*
X182701837Y-77670000D01*
X183095803Y-77670000D01*
X183482198Y-77593141D01*
X183846175Y-77442377D01*
X184173746Y-77223501D01*
X184227245Y-77170002D01*
X184244998Y-77170002D01*
X184120000Y-77295000D01*
X184117581Y-77695000D01*
X184127235Y-77793017D01*
X184155825Y-77887267D01*
X184202254Y-77974129D01*
X184264736Y-78050264D01*
X184340871Y-78112746D01*
X184427733Y-78159175D01*
X184521983Y-78187765D01*
X184620000Y-78197419D01*
X185720000Y-78195000D01*
X185845000Y-78070000D01*
X185845000Y-77170000D01*
X186045000Y-77170000D01*
X186045000Y-78070000D01*
X186170000Y-78195000D01*
X187270000Y-78197419D01*
X187368017Y-78187765D01*
X187462267Y-78159175D01*
X187549129Y-78112746D01*
X187625264Y-78050264D01*
X187687746Y-77974129D01*
X187734175Y-77887267D01*
X187762765Y-77793017D01*
X187772419Y-77695000D01*
X187770000Y-77295000D01*
X187645000Y-77170000D01*
X186045000Y-77170000D01*
X185845000Y-77170000D01*
X185825000Y-77170000D01*
X185825000Y-76970000D01*
X185845000Y-76970000D01*
X185845000Y-76950000D01*
X186045000Y-76950000D01*
X186045000Y-76970000D01*
X187645000Y-76970000D01*
X187695530Y-76919470D01*
X187866961Y-77128359D01*
X188151874Y-77362181D01*
X188120825Y-77399777D01*
X187985902Y-77650331D01*
X187909750Y-77884549D01*
X188001592Y-78110000D01*
X189272820Y-78110000D01*
X189272820Y-78090000D01*
X189472820Y-78090000D01*
X189472820Y-78110000D01*
X190744048Y-78110000D01*
X190835890Y-77884549D01*
X190759738Y-77650331D01*
X190624815Y-77399777D01*
X190593766Y-77362181D01*
X190878679Y-77128359D01*
X191135169Y-76815825D01*
X191325758Y-76459258D01*
X191443122Y-76072360D01*
X191482751Y-75670000D01*
X191475982Y-75601272D01*
X194024269Y-75601272D01*
X194389504Y-76056518D01*
X195027982Y-76408013D01*
X195722764Y-76628194D01*
X196447152Y-76708599D01*
X197173307Y-76646137D01*
X197873323Y-76443211D01*
X198520301Y-76107617D01*
X198596776Y-76056518D01*
X198962011Y-75601272D01*
X196493140Y-73132401D01*
X194024269Y-75601272D01*
X191475982Y-75601272D01*
X191443122Y-75267640D01*
X191325758Y-74880742D01*
X191252779Y-74744207D01*
X191291862Y-74696584D01*
X191394004Y-74505488D01*
X191456904Y-74298138D01*
X191478142Y-74082500D01*
X191478142Y-72944992D01*
X192775521Y-72944992D01*
X192837983Y-73671147D01*
X193040909Y-74371163D01*
X193376503Y-75018141D01*
X193427602Y-75094616D01*
X193882848Y-75459851D01*
X196351719Y-72990980D01*
X193882848Y-70522109D01*
X193427602Y-70887344D01*
X193076107Y-71525822D01*
X192855926Y-72220604D01*
X192775521Y-72944992D01*
X191478142Y-72944992D01*
X191478142Y-72177500D01*
X191456904Y-71961862D01*
X191394004Y-71754512D01*
X191291862Y-71563416D01*
X191154401Y-71395919D01*
X190986904Y-71258458D01*
X190795808Y-71156316D01*
X190588458Y-71093416D01*
X190372820Y-71072178D01*
X188372820Y-71072178D01*
X188157182Y-71093416D01*
X187949832Y-71156316D01*
X187758736Y-71258458D01*
X187591239Y-71395919D01*
X187453778Y-71563416D01*
X187351636Y-71754512D01*
X187343904Y-71780000D01*
X187101319Y-71780000D01*
X187035000Y-71773468D01*
X186968681Y-71780000D01*
X186968679Y-71780000D01*
X186770354Y-71799533D01*
X186515878Y-71876728D01*
X186462985Y-71905000D01*
X186281350Y-72002085D01*
X186164813Y-72097725D01*
X186075787Y-72170787D01*
X186033509Y-72222303D01*
X185716134Y-72539678D01*
X184870000Y-72539678D01*
X184605590Y-72565720D01*
X184351341Y-72642846D01*
X184117023Y-72768091D01*
X183954219Y-72901701D01*
X183962142Y-72821260D01*
X183962142Y-71121260D01*
X183940904Y-70905622D01*
X183878004Y-70698272D01*
X183775862Y-70507176D01*
X183672057Y-70380688D01*
X194024269Y-70380688D01*
X196493140Y-72849559D01*
X198962011Y-70380688D01*
X198596776Y-69925442D01*
X197958298Y-69573947D01*
X197263516Y-69353766D01*
X196539128Y-69273361D01*
X195812973Y-69335823D01*
X195112957Y-69538749D01*
X194465979Y-69874343D01*
X194389504Y-69925442D01*
X194024269Y-70380688D01*
X183672057Y-70380688D01*
X183638401Y-70339679D01*
X183470904Y-70202218D01*
X183279808Y-70100076D01*
X183072458Y-70037176D01*
X182856820Y-70015938D01*
X181156820Y-70015938D01*
X180941182Y-70037176D01*
X180733832Y-70100076D01*
X180542736Y-70202218D01*
X180446889Y-70280877D01*
X180390491Y-70243193D01*
X180035614Y-70096198D01*
X179658878Y-70021260D01*
X179274762Y-70021260D01*
X178898026Y-70096198D01*
X178543149Y-70243193D01*
X178223768Y-70456596D01*
X177952156Y-70728208D01*
X177738753Y-71047589D01*
X177591758Y-71402466D01*
X177516820Y-71779202D01*
X177516820Y-72163318D01*
X177591758Y-72540054D01*
X177738753Y-72894931D01*
X177952156Y-73214312D01*
X178223768Y-73485924D01*
X178491293Y-73664678D01*
X176918820Y-73664678D01*
X176703182Y-73685916D01*
X176495832Y-73748816D01*
X176304736Y-73850958D01*
X176168820Y-73962501D01*
X176168820Y-72115368D01*
X176464350Y-71819839D01*
X176677448Y-71677451D01*
X176872451Y-71482448D01*
X177025664Y-71253149D01*
X177131199Y-70998365D01*
X177185000Y-70727888D01*
X177185000Y-70452112D01*
X177131199Y-70181635D01*
X177025664Y-69926851D01*
X176872451Y-69697552D01*
X176677448Y-69502549D01*
X176448149Y-69349336D01*
X176193365Y-69243801D01*
X175922888Y-69190000D01*
X175647112Y-69190000D01*
X175376635Y-69243801D01*
X175121851Y-69349336D01*
X174892552Y-69502549D01*
X174697549Y-69697552D01*
X174555161Y-69910650D01*
X173911118Y-70554694D01*
X173859608Y-70596967D01*
X173817334Y-70648478D01*
X173817330Y-70648482D01*
X173690905Y-70802531D01*
X173565549Y-71037058D01*
X173488354Y-71291534D01*
X173462288Y-71556180D01*
X173468821Y-71622509D01*
X173468820Y-73768938D01*
X173311820Y-73768938D01*
X173047410Y-73794980D01*
X172793161Y-73872106D01*
X172558843Y-73997351D01*
X172353463Y-74165903D01*
X172184911Y-74371283D01*
X172177627Y-74384911D01*
X171948052Y-74155336D01*
X171724056Y-74005667D01*
X171800655Y-73918701D01*
X171933470Y-73689795D01*
X172019076Y-73439376D01*
X171926295Y-73230000D01*
X170805000Y-73230000D01*
X170805000Y-73250000D01*
X170605000Y-73250000D01*
X170605000Y-73230000D01*
X169483705Y-73230000D01*
X169435000Y-73339911D01*
X169386295Y-73230000D01*
X168265000Y-73230000D01*
X168265000Y-73250000D01*
X168065000Y-73250000D01*
X168065000Y-73230000D01*
X166943705Y-73230000D01*
X166914932Y-73294932D01*
X166850000Y-73230000D01*
X165725000Y-73230000D01*
X165725000Y-73250000D01*
X165525000Y-73250000D01*
X165525000Y-73230000D01*
X164400000Y-73230000D01*
X164275000Y-73355000D01*
X164273119Y-73840985D01*
X164160916Y-73900958D01*
X163993419Y-74038419D01*
X163855958Y-74205916D01*
X163753816Y-74397012D01*
X163690916Y-74604362D01*
X163669678Y-74820000D01*
X163669678Y-76520000D01*
X163690916Y-76735638D01*
X163752910Y-76940000D01*
X163690916Y-77144362D01*
X163669678Y-77360000D01*
X163669678Y-79060000D01*
X163690916Y-79275638D01*
X163753816Y-79482988D01*
X163855958Y-79674084D01*
X163993419Y-79841581D01*
X164160916Y-79979042D01*
X164352012Y-80081184D01*
X164559362Y-80144084D01*
X164775000Y-80165322D01*
X166475000Y-80165322D01*
X166690638Y-80144084D01*
X166897988Y-80081184D01*
X167089084Y-79979042D01*
X167184931Y-79900383D01*
X167241329Y-79938067D01*
X167596206Y-80085062D01*
X167972942Y-80160000D01*
X168357058Y-80160000D01*
X168733794Y-80085062D01*
X169088671Y-79938067D01*
X169408052Y-79724664D01*
X169435000Y-79697716D01*
X169461948Y-79724664D01*
X169781329Y-79938067D01*
X170136206Y-80085062D01*
X170512942Y-80160000D01*
X170897058Y-80160000D01*
X171273794Y-80085062D01*
X171628671Y-79938067D01*
X171948052Y-79724664D01*
X172212212Y-79460504D01*
X172353463Y-79632617D01*
X172558843Y-79801169D01*
X172793161Y-79926414D01*
X173047410Y-80003540D01*
X173311820Y-80029582D01*
X173468820Y-80029582D01*
X173468820Y-81532941D01*
X173462288Y-81599260D01*
X173468820Y-81665579D01*
X173468820Y-81665580D01*
X173488353Y-81863905D01*
X173539916Y-82033886D01*
X173245000Y-82004839D01*
X172833328Y-82045385D01*
X172437476Y-82165465D01*
X172072657Y-82360465D01*
X171975000Y-82440610D01*
X171877343Y-82360465D01*
X171512523Y-82165465D01*
X171116671Y-82045385D01*
X170705000Y-82004839D01*
X170293328Y-82045385D01*
X169897476Y-82165465D01*
X169532657Y-82360465D01*
X169435000Y-82440610D01*
X169337343Y-82360465D01*
X168972523Y-82165465D01*
X168576671Y-82045385D01*
X168165000Y-82004839D01*
X167753328Y-82045385D01*
X167357476Y-82165465D01*
X166992657Y-82360465D01*
X166895000Y-82440610D01*
X166797343Y-82360465D01*
X166432523Y-82165465D01*
X166036671Y-82045385D01*
X165625000Y-82004839D01*
X165213328Y-82045385D01*
X164817476Y-82165465D01*
X164452657Y-82360465D01*
X164355000Y-82440610D01*
X164257343Y-82360465D01*
X163892523Y-82165465D01*
X163496671Y-82045385D01*
X163085000Y-82004839D01*
X162673328Y-82045385D01*
X162277476Y-82165465D01*
X161912657Y-82360465D01*
X161815000Y-82440610D01*
X161717343Y-82360465D01*
X161352523Y-82165465D01*
X160956671Y-82045385D01*
X160545000Y-82004839D01*
X160133328Y-82045385D01*
X159737476Y-82165465D01*
X159372657Y-82360465D01*
X159275000Y-82440610D01*
X159245863Y-82416698D01*
X159289042Y-82364084D01*
X159391184Y-82172988D01*
X159454084Y-81965638D01*
X159475322Y-81750000D01*
X159475322Y-79750000D01*
X159454084Y-79534362D01*
X159391184Y-79327012D01*
X159289042Y-79135916D01*
X159151581Y-78968419D01*
X158984084Y-78830958D01*
X158792988Y-78728816D01*
X158585638Y-78665916D01*
X158370000Y-78644678D01*
X156370000Y-78644678D01*
X156154362Y-78665916D01*
X155947012Y-78728816D01*
X155755916Y-78830958D01*
X155588419Y-78968419D01*
X155450958Y-79135916D01*
X155348816Y-79327012D01*
X155285916Y-79534362D01*
X155264678Y-79750000D01*
X155264678Y-81750000D01*
X155285916Y-81965638D01*
X155302658Y-82020828D01*
X155053328Y-82045385D01*
X154657476Y-82165465D01*
X154292657Y-82360465D01*
X154195000Y-82440610D01*
X154097343Y-82360465D01*
X153732523Y-82165465D01*
X153336671Y-82045385D01*
X152925000Y-82004839D01*
X152513328Y-82045385D01*
X152117476Y-82165465D01*
X151752657Y-82360465D01*
X151432891Y-82622891D01*
X151224884Y-82876348D01*
X151135208Y-82812239D01*
X150866637Y-82690913D01*
X150717899Y-82652407D01*
X150485000Y-82743641D01*
X150285000Y-82743641D01*
X150052101Y-82652407D01*
X149903363Y-82690913D01*
X149634792Y-82812239D01*
X149633083Y-82813461D01*
X149716184Y-82657988D01*
X149779084Y-82450638D01*
X149800322Y-82235000D01*
X149800322Y-80535000D01*
X149779084Y-80319362D01*
X149716184Y-80112012D01*
X149614042Y-79920916D01*
X149476581Y-79753419D01*
X149309084Y-79615958D01*
X149117988Y-79513816D01*
X148910638Y-79450916D01*
X148695000Y-79429678D01*
X146995000Y-79429678D01*
X146779362Y-79450916D01*
X146572012Y-79513816D01*
X146380916Y-79615958D01*
X146285069Y-79694617D01*
X146228671Y-79656933D01*
X145873794Y-79509938D01*
X145497058Y-79435000D01*
X145112942Y-79435000D01*
X144736206Y-79509938D01*
X144381329Y-79656933D01*
X144061948Y-79870336D01*
X143790336Y-80141948D01*
X143576933Y-80461329D01*
X143429938Y-80816206D01*
X143355000Y-81192942D01*
X138926820Y-81192942D01*
X138926820Y-75645136D01*
X138962011Y-75601272D01*
X138926820Y-75566081D01*
X138926820Y-75283239D01*
X139103432Y-75459851D01*
X139558678Y-75094616D01*
X139910173Y-74456138D01*
X140130354Y-73761356D01*
X140210759Y-73036968D01*
X140205131Y-72971533D01*
X140218820Y-72971533D01*
X140218820Y-75226986D01*
X140256440Y-75608948D01*
X140405111Y-76099050D01*
X140646539Y-76550731D01*
X140971447Y-76946633D01*
X141367348Y-77271541D01*
X141819029Y-77512969D01*
X142309131Y-77661640D01*
X142818820Y-77711840D01*
X143328508Y-77661640D01*
X143818610Y-77512969D01*
X144270291Y-77271541D01*
X144666193Y-76946633D01*
X144951275Y-76599260D01*
X145816401Y-76599260D01*
X145826055Y-76697277D01*
X145854645Y-76791527D01*
X145901074Y-76878389D01*
X145963556Y-76954524D01*
X146039691Y-77017006D01*
X146126553Y-77063435D01*
X146220803Y-77092025D01*
X146318820Y-77101679D01*
X147593820Y-77099260D01*
X147718820Y-76974260D01*
X147718820Y-74199260D01*
X147918820Y-74199260D01*
X147918820Y-76974260D01*
X148043820Y-77099260D01*
X149318820Y-77101679D01*
X149416837Y-77092025D01*
X149511087Y-77063435D01*
X149597949Y-77017006D01*
X149674084Y-76954524D01*
X149736566Y-76878389D01*
X149782995Y-76791527D01*
X149811585Y-76697277D01*
X149821239Y-76599260D01*
X149818820Y-74324260D01*
X149693820Y-74199260D01*
X147918820Y-74199260D01*
X147718820Y-74199260D01*
X145943820Y-74199260D01*
X145818820Y-74324260D01*
X145816401Y-76599260D01*
X144951275Y-76599260D01*
X144991101Y-76550732D01*
X145232529Y-76099051D01*
X145381200Y-75608949D01*
X145418820Y-75226987D01*
X145418820Y-74195554D01*
X156465868Y-74195554D01*
X156566909Y-74425489D01*
X156831176Y-74557656D01*
X157116150Y-74635728D01*
X157410879Y-74656703D01*
X157704037Y-74619777D01*
X157984358Y-74526369D01*
X158173091Y-74425489D01*
X158274132Y-74195554D01*
X157370000Y-73291421D01*
X156465868Y-74195554D01*
X145418820Y-74195554D01*
X145418820Y-72971533D01*
X145381200Y-72589571D01*
X145232529Y-72099469D01*
X144991101Y-71647788D01*
X144951276Y-71599260D01*
X145816401Y-71599260D01*
X145818820Y-73874260D01*
X145943820Y-73999260D01*
X147718820Y-73999260D01*
X147718820Y-71224260D01*
X147918820Y-71224260D01*
X147918820Y-73999260D01*
X149693820Y-73999260D01*
X149818820Y-73874260D01*
X149819546Y-73190879D01*
X155863297Y-73190879D01*
X155900223Y-73484037D01*
X155993631Y-73764358D01*
X156094511Y-73953091D01*
X156324446Y-74054132D01*
X157228579Y-73150000D01*
X157511421Y-73150000D01*
X158415554Y-74054132D01*
X158645489Y-73953091D01*
X158777656Y-73688824D01*
X158855728Y-73403850D01*
X158876703Y-73109121D01*
X158839777Y-72815963D01*
X158746369Y-72535642D01*
X158645489Y-72346909D01*
X158415554Y-72245868D01*
X157511421Y-73150000D01*
X157228579Y-73150000D01*
X156324446Y-72245868D01*
X156094511Y-72346909D01*
X155962344Y-72611176D01*
X155884272Y-72896150D01*
X155863297Y-73190879D01*
X149819546Y-73190879D01*
X149820701Y-72104446D01*
X156465868Y-72104446D01*
X157370000Y-73008579D01*
X158274132Y-72104446D01*
X158173091Y-71874511D01*
X157908824Y-71742344D01*
X157623850Y-71664272D01*
X157329121Y-71643297D01*
X157035963Y-71680223D01*
X156755642Y-71773631D01*
X156566909Y-71874511D01*
X156465868Y-72104446D01*
X149820701Y-72104446D01*
X149821239Y-71599260D01*
X149811585Y-71501243D01*
X149782995Y-71406993D01*
X149736566Y-71320131D01*
X149674084Y-71243996D01*
X149597949Y-71181514D01*
X149511087Y-71135085D01*
X149416837Y-71106495D01*
X149318820Y-71096841D01*
X148043820Y-71099260D01*
X147918820Y-71224260D01*
X147718820Y-71224260D01*
X147593820Y-71099260D01*
X146318820Y-71096841D01*
X146220803Y-71106495D01*
X146126553Y-71135085D01*
X146039691Y-71181514D01*
X145963556Y-71243996D01*
X145901074Y-71320131D01*
X145854645Y-71406993D01*
X145826055Y-71501243D01*
X145816401Y-71599260D01*
X144951276Y-71599260D01*
X144666193Y-71251887D01*
X144270292Y-70926979D01*
X143818611Y-70685551D01*
X143328509Y-70536880D01*
X142818820Y-70486680D01*
X142309132Y-70536880D01*
X141819030Y-70685551D01*
X141367349Y-70926979D01*
X140971448Y-71251887D01*
X140646539Y-71647788D01*
X140405111Y-72099469D01*
X140256440Y-72589571D01*
X140218820Y-72971533D01*
X140205131Y-72971533D01*
X140148297Y-72310813D01*
X139945371Y-71610797D01*
X139609777Y-70963819D01*
X139558678Y-70887344D01*
X139103432Y-70522109D01*
X138926820Y-70698721D01*
X138926820Y-70415879D01*
X138962011Y-70380688D01*
X138926820Y-70336824D01*
X138926820Y-69175000D01*
X163829722Y-69175000D01*
X163753816Y-69317012D01*
M02*
