M48
; DRILL file {KiCad (5.1.6-0-10_14)} date Saturday, May 23, 2020 at 12:01:58 AM
; FORMAT={-:-/ absolute / metric / decimal}
; #@! TF.CreationDate,2020-05-23T00:01:58+02:00
; #@! TF.GenerationSoftware,Kicad,Pcbnew,(5.1.6-0-10_14)
; #@! TF.FileFunction,Plated,1,2,PTH
FMAT,2
METRIC
T1C0.400
T2C0.750
T3C0.800
T4C0.900
T5C1.000
T6C1.100
T7C1.300
T8C1.350
T9C3.200
%
G90
G05
T1
X140.605Y-70.447
X152.833Y-94.726
X175.785Y-70.59
T2
X111.649Y-92.799
X114.824Y-90.259
X114.824Y-95.339
T3
X124.985Y-96.625
X124.985Y-104.245
X128.16Y-96.625
X128.16Y-104.245
X124.985Y-83.925
X124.985Y-88.925
X131.335Y-99.165
X131.335Y-106.785
X135.145Y-96.625
X135.145Y-99.165
X135.145Y-101.705
X142.765Y-96.625
X142.765Y-99.165
X142.765Y-101.705
X124.719Y-92.749
X132.339Y-92.749
X135.145Y-86.465
X135.145Y-89.005
X135.145Y-91.545
X142.765Y-86.465
X142.765Y-89.005
X142.765Y-91.545
T4
X177.819Y-75.67
X182.899Y-75.67
T5
X145.305Y-107.42
X145.305Y-109.96
X145.305Y-112.5
X165.625Y-75.67
X168.165Y-75.67
X170.705Y-75.67
X165.625Y-78.21
X168.165Y-78.21
X170.705Y-78.21
X145.305Y-81.385
X147.845Y-81.385
X179.467Y-71.971
X182.007Y-71.971
X147.845Y-86.465
X147.845Y-101.705
X150.385Y-86.465
X150.385Y-101.705
X152.925Y-86.465
X152.925Y-101.705
X155.465Y-86.465
X155.465Y-101.705
X158.005Y-86.465
X158.005Y-101.705
X160.545Y-86.465
X160.545Y-101.705
X163.085Y-86.465
X163.085Y-101.705
X165.625Y-86.465
X165.625Y-101.705
X168.165Y-86.465
X168.165Y-101.705
X170.705Y-86.465
X170.705Y-101.705
X173.245Y-86.465
X173.245Y-101.705
X175.785Y-86.465
X175.785Y-101.705
X178.325Y-86.465
X178.325Y-101.705
X180.865Y-86.465
X180.865Y-101.705
X183.405Y-86.465
X183.405Y-101.705
X180.865Y-108.69
X183.405Y-108.69
X185.945Y-108.69
X188.485Y-108.69
X191.025Y-108.69
X165.625Y-73.13
X168.165Y-73.13
X170.705Y-73.13
X157.37Y-73.15
X157.37Y-80.75
X165.625Y-70.59
X168.165Y-70.59
X170.705Y-70.59
X149.115Y-115.04
X151.655Y-115.04
X154.195Y-115.04
X156.735Y-115.04
X159.275Y-115.04
X161.815Y-115.04
X164.355Y-115.04
X166.895Y-115.04
X169.435Y-115.04
X171.975Y-115.04
X174.515Y-115.04
X177.055Y-115.04
X179.595Y-115.04
X182.135Y-115.04
X184.675Y-115.04
X187.215Y-115.04
X189.755Y-115.04
T6
X189.373Y-73.13
X189.373Y-75.67
X189.373Y-78.21
T7
X142.819Y-74.099
X147.819Y-74.099
X111.014Y-70.574
X111.014Y-75.574
X111.014Y-110.579
X111.014Y-115.579
T8
X104.664Y-82.639
X104.664Y-87.639
X104.664Y-97.639
X104.664Y-102.639
T9
X196.493Y-72.991
X136.493Y-112.991
X136.493Y-72.991
X196.493Y-112.991
T0
M30
