G04 #@! TF.GenerationSoftware,KiCad,Pcbnew,(5.1.6-0-10_14)*
G04 #@! TF.CreationDate,2020-05-23T01:17:40+02:00*
G04 #@! TF.ProjectId,arduino_nano_reflow_TRIAC_v1_0,61726475-696e-46f5-9f6e-616e6f5f7265,1.0*
G04 #@! TF.SameCoordinates,Original*
G04 #@! TF.FileFunction,Legend,Top*
G04 #@! TF.FilePolarity,Positive*
%FSLAX46Y46*%
G04 Gerber Fmt 4.6, Leading zero omitted, Abs format (unit mm)*
G04 Created by KiCad (PCBNEW (5.1.6-0-10_14)) date 2020-05-23 01:17:40*
%MOMM*%
%LPD*%
G01*
G04 APERTURE LIST*
%ADD10C,0.150000*%
%ADD11C,0.200000*%
%ADD12C,0.300000*%
%ADD13C,0.120000*%
%ADD14C,0.191466*%
G04 APERTURE END LIST*
D10*
X154519200Y-112783664D02*
X153519200Y-112783664D01*
X153519200Y-112545569D01*
X153566820Y-112402712D01*
X153662058Y-112307474D01*
X153757296Y-112259855D01*
X153947772Y-112212236D01*
X154090629Y-112212236D01*
X154281105Y-112259855D01*
X154376343Y-112307474D01*
X154471581Y-112402712D01*
X154519200Y-112545569D01*
X154519200Y-112783664D01*
X153519200Y-111307474D02*
X153519200Y-111783664D01*
X153995391Y-111831283D01*
X153947772Y-111783664D01*
X153900153Y-111688426D01*
X153900153Y-111450331D01*
X153947772Y-111355093D01*
X153995391Y-111307474D01*
X154090629Y-111259855D01*
X154328724Y-111259855D01*
X154423962Y-111307474D01*
X154471581Y-111355093D01*
X154519200Y-111450331D01*
X154519200Y-111688426D01*
X154471581Y-111783664D01*
X154423962Y-111831283D01*
X151979200Y-112783664D02*
X150979200Y-112783664D01*
X150979200Y-112545569D01*
X151026820Y-112402712D01*
X151122058Y-112307474D01*
X151217296Y-112259855D01*
X151407772Y-112212236D01*
X151550629Y-112212236D01*
X151741105Y-112259855D01*
X151836343Y-112307474D01*
X151931581Y-112402712D01*
X151979200Y-112545569D01*
X151979200Y-112783664D01*
X151312534Y-111355093D02*
X151979200Y-111355093D01*
X150931581Y-111593188D02*
X151645867Y-111831283D01*
X151645867Y-111212236D01*
X148486820Y-112259855D02*
X148439200Y-112355093D01*
X148439200Y-112497950D01*
X148486820Y-112640807D01*
X148582058Y-112736045D01*
X148677296Y-112783664D01*
X148867772Y-112831283D01*
X149010629Y-112831283D01*
X149201105Y-112783664D01*
X149296343Y-112736045D01*
X149391581Y-112640807D01*
X149439200Y-112497950D01*
X149439200Y-112402712D01*
X149391581Y-112259855D01*
X149343962Y-112212236D01*
X149010629Y-112212236D01*
X149010629Y-112402712D01*
X149439200Y-111783664D02*
X148439200Y-111783664D01*
X149439200Y-111212236D01*
X148439200Y-111212236D01*
X149439200Y-110736045D02*
X148439200Y-110736045D01*
X148439200Y-110497950D01*
X148486820Y-110355093D01*
X148582058Y-110259855D01*
X148677296Y-110212236D01*
X148867772Y-110164617D01*
X149010629Y-110164617D01*
X149201105Y-110212236D01*
X149296343Y-110259855D01*
X149391581Y-110355093D01*
X149439200Y-110497950D01*
X149439200Y-110736045D01*
D11*
X102829523Y-70005000D02*
X104079523Y-70005000D01*
X103484285Y-70005000D02*
X103484285Y-70719285D01*
X102829523Y-70719285D02*
X104079523Y-70719285D01*
X103484285Y-71314523D02*
X103484285Y-71731190D01*
X102829523Y-71909761D02*
X102829523Y-71314523D01*
X104079523Y-71314523D01*
X104079523Y-71909761D01*
X103186666Y-72385952D02*
X103186666Y-72981190D01*
X102829523Y-72266904D02*
X104079523Y-72683571D01*
X102829523Y-73100238D01*
X104079523Y-73338333D02*
X104079523Y-74052619D01*
X102829523Y-73695476D02*
X104079523Y-73695476D01*
X103484285Y-74469285D02*
X103484285Y-74885952D01*
X102829523Y-75064523D02*
X102829523Y-74469285D01*
X104079523Y-74469285D01*
X104079523Y-75064523D01*
X102829523Y-76314523D02*
X103424761Y-75897857D01*
X102829523Y-75600238D02*
X104079523Y-75600238D01*
X104079523Y-76076428D01*
X104020000Y-76195476D01*
X103960476Y-76255000D01*
X103841428Y-76314523D01*
X103662857Y-76314523D01*
X103543809Y-76255000D01*
X103484285Y-76195476D01*
X103424761Y-76076428D01*
X103424761Y-75600238D01*
X103186666Y-110783809D02*
X103186666Y-111379047D01*
X102829523Y-110664761D02*
X104079523Y-111081428D01*
X102829523Y-111498095D01*
X102948571Y-112629047D02*
X102889047Y-112569523D01*
X102829523Y-112390952D01*
X102829523Y-112271904D01*
X102889047Y-112093333D01*
X103008095Y-111974285D01*
X103127142Y-111914761D01*
X103365238Y-111855238D01*
X103543809Y-111855238D01*
X103781904Y-111914761D01*
X103900952Y-111974285D01*
X104020000Y-112093333D01*
X104079523Y-112271904D01*
X104079523Y-112390952D01*
X104020000Y-112569523D01*
X103960476Y-112629047D01*
X102829523Y-114117142D02*
X104079523Y-114117142D01*
X102829523Y-114712380D02*
X104079523Y-114712380D01*
X102829523Y-115426666D01*
X104079523Y-115426666D01*
D12*
X197834248Y-108725741D02*
X199167581Y-108725741D01*
X198024724Y-108725741D02*
X197929486Y-108630503D01*
X197834248Y-108440027D01*
X197834248Y-108154313D01*
X197929486Y-107963837D01*
X198119962Y-107868599D01*
X199167581Y-107868599D01*
X199167581Y-106059075D02*
X198119962Y-106059075D01*
X197929486Y-106154313D01*
X197834248Y-106344789D01*
X197834248Y-106725741D01*
X197929486Y-106916218D01*
X199072343Y-106059075D02*
X199167581Y-106249551D01*
X199167581Y-106725741D01*
X199072343Y-106916218D01*
X198881867Y-107011456D01*
X198691391Y-107011456D01*
X198500915Y-106916218D01*
X198405677Y-106725741D01*
X198405677Y-106249551D01*
X198310439Y-106059075D01*
X197834248Y-105106694D02*
X199167581Y-105106694D01*
X198024724Y-105106694D02*
X197929486Y-105011456D01*
X197834248Y-104820980D01*
X197834248Y-104535265D01*
X197929486Y-104344789D01*
X198119962Y-104249551D01*
X199167581Y-104249551D01*
X199167581Y-103011456D02*
X199072343Y-103201932D01*
X198977105Y-103297170D01*
X198786629Y-103392408D01*
X198215200Y-103392408D01*
X198024724Y-103297170D01*
X197929486Y-103201932D01*
X197834248Y-103011456D01*
X197834248Y-102725741D01*
X197929486Y-102535265D01*
X198024724Y-102440027D01*
X198215200Y-102344789D01*
X198786629Y-102344789D01*
X198977105Y-102440027D01*
X199072343Y-102535265D01*
X199167581Y-102725741D01*
X199167581Y-103011456D01*
X199167581Y-100344789D02*
X198215200Y-101011456D01*
X199167581Y-101487646D02*
X197167581Y-101487646D01*
X197167581Y-100725741D01*
X197262820Y-100535265D01*
X197358058Y-100440027D01*
X197548534Y-100344789D01*
X197834248Y-100344789D01*
X198024724Y-100440027D01*
X198119962Y-100535265D01*
X198215200Y-100725741D01*
X198215200Y-101487646D01*
X199072343Y-98725741D02*
X199167581Y-98916218D01*
X199167581Y-99297170D01*
X199072343Y-99487646D01*
X198881867Y-99582884D01*
X198119962Y-99582884D01*
X197929486Y-99487646D01*
X197834248Y-99297170D01*
X197834248Y-98916218D01*
X197929486Y-98725741D01*
X198119962Y-98630503D01*
X198310439Y-98630503D01*
X198500915Y-99582884D01*
X197834248Y-98059075D02*
X197834248Y-97297170D01*
X199167581Y-97773360D02*
X197453296Y-97773360D01*
X197262820Y-97678122D01*
X197167581Y-97487646D01*
X197167581Y-97297170D01*
X199167581Y-96344789D02*
X199072343Y-96535265D01*
X198881867Y-96630503D01*
X197167581Y-96630503D01*
X199167581Y-95297170D02*
X199072343Y-95487646D01*
X198977105Y-95582884D01*
X198786629Y-95678122D01*
X198215200Y-95678122D01*
X198024724Y-95582884D01*
X197929486Y-95487646D01*
X197834248Y-95297170D01*
X197834248Y-95011456D01*
X197929486Y-94820980D01*
X198024724Y-94725741D01*
X198215200Y-94630503D01*
X198786629Y-94630503D01*
X198977105Y-94725741D01*
X199072343Y-94820980D01*
X199167581Y-95011456D01*
X199167581Y-95297170D01*
X197834248Y-93963837D02*
X199167581Y-93582884D01*
X198215200Y-93201932D01*
X199167581Y-92820980D01*
X197834248Y-92440027D01*
X197834248Y-90344789D02*
X199167581Y-89868599D01*
X197834248Y-89392408D01*
X199167581Y-87582884D02*
X199167581Y-88725741D01*
X199167581Y-88154313D02*
X197167581Y-88154313D01*
X197453296Y-88344789D01*
X197643772Y-88535265D01*
X197739010Y-88725741D01*
X198977105Y-86725741D02*
X199072343Y-86630503D01*
X199167581Y-86725741D01*
X199072343Y-86820980D01*
X198977105Y-86725741D01*
X199167581Y-86725741D01*
X197167581Y-85392408D02*
X197167581Y-85201932D01*
X197262820Y-85011456D01*
X197358058Y-84916218D01*
X197548534Y-84820980D01*
X197929486Y-84725741D01*
X198405677Y-84725741D01*
X198786629Y-84820980D01*
X198977105Y-84916218D01*
X199072343Y-85011456D01*
X199167581Y-85201932D01*
X199167581Y-85392408D01*
X199072343Y-85582884D01*
X198977105Y-85678122D01*
X198786629Y-85773360D01*
X198405677Y-85868599D01*
X197929486Y-85868599D01*
X197548534Y-85773360D01*
X197358058Y-85678122D01*
X197262820Y-85582884D01*
X197167581Y-85392408D01*
X199358058Y-84344789D02*
X199358058Y-82820980D01*
X199167581Y-82344789D02*
X197834248Y-82344789D01*
X198215200Y-82344789D02*
X198024724Y-82249551D01*
X197929486Y-82154313D01*
X197834248Y-81963837D01*
X197834248Y-81773360D01*
X199072343Y-80344789D02*
X199167581Y-80535265D01*
X199167581Y-80916218D01*
X199072343Y-81106694D01*
X198881867Y-81201932D01*
X198119962Y-81201932D01*
X197929486Y-81106694D01*
X197834248Y-80916218D01*
X197834248Y-80535265D01*
X197929486Y-80344789D01*
X198119962Y-80249551D01*
X198310439Y-80249551D01*
X198500915Y-81201932D01*
X197834248Y-79582884D02*
X199167581Y-79106694D01*
X197834248Y-78630503D01*
X197358058Y-77963837D02*
X197262820Y-77868599D01*
X197167581Y-77678122D01*
X197167581Y-77201932D01*
X197262820Y-77011456D01*
X197358058Y-76916218D01*
X197548534Y-76820980D01*
X197739010Y-76820980D01*
X198024724Y-76916218D01*
X199167581Y-78059075D01*
X199167581Y-76820980D01*
D13*
X149138820Y-100429260D02*
X146598820Y-100429260D01*
X146598820Y-100429260D02*
X146598820Y-103099260D01*
X149138820Y-103099260D02*
X187368820Y-103099260D01*
X143928820Y-103099260D02*
X146598820Y-103099260D01*
X146598820Y-87729260D02*
X146598820Y-85059260D01*
X146598820Y-87729260D02*
X184698820Y-87729260D01*
X184698820Y-87729260D02*
X184698820Y-85059260D01*
X149138820Y-100429260D02*
X149138820Y-103099260D01*
X149138820Y-100429260D02*
X184698820Y-100429260D01*
X184698820Y-100429260D02*
X184698820Y-103099260D01*
X187368820Y-103099260D02*
X187368820Y-85059260D01*
X187368820Y-85059260D02*
X143928820Y-85059260D01*
X143928820Y-85059260D02*
X143928820Y-103099260D01*
X179288820Y-75670000D02*
G75*
G03*
X179288820Y-75670000I-1470000J0D01*
G01*
X179288820Y-75670000D02*
X181698820Y-75670000D01*
X126055000Y-84155000D02*
X126055000Y-88695000D01*
X123915000Y-84155000D02*
X123915000Y-88695000D01*
X126055000Y-84155000D02*
X126040000Y-84155000D01*
X123930000Y-84155000D02*
X123915000Y-84155000D01*
X126055000Y-88695000D02*
X126040000Y-88695000D01*
X123930000Y-88695000D02*
X123915000Y-88695000D01*
X125458820Y-91709260D02*
X125458820Y-91379260D01*
X125458820Y-91379260D02*
X131998820Y-91379260D01*
X131998820Y-91379260D02*
X131998820Y-91709260D01*
X125458820Y-93789260D02*
X125458820Y-94119260D01*
X125458820Y-94119260D02*
X131998820Y-94119260D01*
X131998820Y-94119260D02*
X131998820Y-93789260D01*
X126025000Y-97165000D02*
X126355000Y-97165000D01*
X126355000Y-97165000D02*
X126355000Y-103705000D01*
X126355000Y-103705000D02*
X126025000Y-103705000D01*
X123945000Y-97165000D02*
X123615000Y-97165000D01*
X123615000Y-97165000D02*
X123615000Y-103705000D01*
X123615000Y-103705000D02*
X123945000Y-103705000D01*
X137808820Y-92875000D02*
G75*
G02*
X139808820Y-92875000I1000000J0D01*
G01*
X139808820Y-92875000D02*
X141458820Y-92875000D01*
X141458820Y-92875000D02*
X141458820Y-85135000D01*
X141458820Y-85135000D02*
X136158820Y-85135000D01*
X136158820Y-85135000D02*
X136158820Y-92875000D01*
X136158820Y-92875000D02*
X137808820Y-92875000D01*
X139828820Y-95319260D02*
G75*
G02*
X137828820Y-95319260I-1000000J0D01*
G01*
X137828820Y-95319260D02*
X136178820Y-95319260D01*
X136178820Y-95319260D02*
X136178820Y-103059260D01*
X136178820Y-103059260D02*
X141478820Y-103059260D01*
X141478820Y-103059260D02*
X141478820Y-95319260D01*
X141478820Y-95319260D02*
X139828820Y-95319260D01*
X118093820Y-87679260D02*
X118093820Y-97919260D01*
X113452820Y-87679260D02*
X113452820Y-97919260D01*
X118093820Y-87679260D02*
X113452820Y-87679260D01*
X118093820Y-97919260D02*
X113452820Y-97919260D01*
X116583820Y-87679260D02*
X116583820Y-97919260D01*
X118093820Y-90949260D02*
X116583820Y-90949260D01*
X118093820Y-94650260D02*
X116583820Y-94650260D01*
X155931041Y-105164260D02*
X156256599Y-105164260D01*
X155931041Y-106184260D02*
X156256599Y-106184260D01*
X192642820Y-70550000D02*
X192642820Y-80790000D01*
X188001820Y-70550000D02*
X188001820Y-80790000D01*
X192642820Y-70550000D02*
X188001820Y-70550000D01*
X192642820Y-80790000D02*
X188001820Y-80790000D01*
X191132820Y-70550000D02*
X191132820Y-80790000D01*
X192642820Y-73820000D02*
X191132820Y-73820000D01*
X192642820Y-77521000D02*
X191132820Y-77521000D01*
X127120000Y-103705000D02*
X126790000Y-103705000D01*
X126790000Y-103705000D02*
X126790000Y-97165000D01*
X126790000Y-97165000D02*
X127120000Y-97165000D01*
X129200000Y-103705000D02*
X129530000Y-103705000D01*
X129530000Y-103705000D02*
X129530000Y-97165000D01*
X129530000Y-97165000D02*
X129200000Y-97165000D01*
X130295000Y-106245000D02*
X129965000Y-106245000D01*
X129965000Y-106245000D02*
X129965000Y-99705000D01*
X129965000Y-99705000D02*
X130295000Y-99705000D01*
X132375000Y-106245000D02*
X132705000Y-106245000D01*
X132705000Y-106245000D02*
X132705000Y-99705000D01*
X132705000Y-99705000D02*
X132375000Y-99705000D01*
X163470000Y-76950000D02*
G75*
G03*
X163470000Y-76950000I-6100000J0D01*
G01*
X182760242Y-82364260D02*
X183277398Y-82364260D01*
X182760242Y-83784260D02*
X183277398Y-83784260D01*
X173026820Y-77501324D02*
X173026820Y-76297196D01*
X175746820Y-77501324D02*
X175746820Y-76297196D01*
X184585000Y-76272064D02*
X184585000Y-75067936D01*
X187305000Y-76272064D02*
X187305000Y-75067936D01*
X192355000Y-110020000D02*
X192355000Y-107360000D01*
X182135000Y-110020000D02*
X192355000Y-110020000D01*
X182135000Y-107360000D02*
X192355000Y-107360000D01*
X182135000Y-110020000D02*
X182135000Y-107360000D01*
X180865000Y-110020000D02*
X179535000Y-110020000D01*
X179535000Y-110020000D02*
X179535000Y-108690000D01*
X147785000Y-113710000D02*
X147785000Y-116370000D01*
X188485000Y-113710000D02*
X147785000Y-113710000D01*
X188485000Y-116370000D02*
X147785000Y-116370000D01*
X188485000Y-113710000D02*
X188485000Y-116370000D01*
X189755000Y-113710000D02*
X191085000Y-113710000D01*
X191085000Y-113710000D02*
X191085000Y-115040000D01*
X109313567Y-109853065D02*
G75*
G02*
X109458820Y-109140260I1680253J28805D01*
G01*
X110310778Y-108288834D02*
G75*
G02*
X111677820Y-108289260I683042J-1535426D01*
G01*
X112529246Y-109141218D02*
G75*
G02*
X112528820Y-110508260I-1535426J-683042D01*
G01*
X111676862Y-111359686D02*
G75*
G02*
X110309820Y-111359260I-683042J1535426D01*
G01*
X109459064Y-110507578D02*
G75*
G02*
X109313820Y-109824260I1534756J683318D01*
G01*
X112673820Y-114824260D02*
G75*
G03*
X112673820Y-114824260I-1680000J0D01*
G01*
X106893820Y-107264260D02*
X106893820Y-117384260D01*
X108393820Y-107264260D02*
X108393820Y-117384260D01*
X113294820Y-107264260D02*
X113294820Y-117384260D01*
X116254820Y-107264260D02*
X116254820Y-117384260D01*
X106333820Y-107264260D02*
X106333820Y-117384260D01*
X116254820Y-107264260D02*
X106333820Y-107264260D01*
X116254820Y-117384260D02*
X106333820Y-117384260D01*
X112062820Y-116099260D02*
X112016820Y-116052260D01*
X109754820Y-113790260D02*
X109719820Y-113755260D01*
X112268820Y-115894260D02*
X112232820Y-115859260D01*
X109970820Y-113597260D02*
X109924820Y-113550260D01*
X106833820Y-107024260D02*
X106093820Y-107024260D01*
X106093820Y-107024260D02*
X106093820Y-107524260D01*
X109413567Y-71203065D02*
G75*
G02*
X109558820Y-70490260I1680253J28805D01*
G01*
X110410778Y-69638834D02*
G75*
G02*
X111777820Y-69639260I683042J-1535426D01*
G01*
X112629246Y-70491218D02*
G75*
G02*
X112628820Y-71858260I-1535426J-683042D01*
G01*
X111776862Y-72709686D02*
G75*
G02*
X110409820Y-72709260I-683042J1535426D01*
G01*
X109559064Y-71857578D02*
G75*
G02*
X109413820Y-71174260I1534756J683318D01*
G01*
X112773820Y-76174260D02*
G75*
G03*
X112773820Y-76174260I-1680000J0D01*
G01*
X106993820Y-68614260D02*
X106993820Y-78734260D01*
X108493820Y-68614260D02*
X108493820Y-78734260D01*
X113394820Y-68614260D02*
X113394820Y-78734260D01*
X116354820Y-68614260D02*
X116354820Y-78734260D01*
X106433820Y-68614260D02*
X106433820Y-78734260D01*
X116354820Y-68614260D02*
X106433820Y-68614260D01*
X116354820Y-78734260D02*
X106433820Y-78734260D01*
X112162820Y-77449260D02*
X112116820Y-77402260D01*
X109854820Y-75140260D02*
X109819820Y-75105260D01*
X112368820Y-77244260D02*
X112332820Y-77209260D01*
X110070820Y-74947260D02*
X110024820Y-74900260D01*
X106933820Y-68374260D02*
X106193820Y-68374260D01*
X106193820Y-68374260D02*
X106193820Y-68874260D01*
X147990015Y-71994007D02*
G75*
G02*
X148702820Y-72139260I28805J-1680253D01*
G01*
X149554246Y-72991218D02*
G75*
G02*
X149553820Y-74358260I-1535426J-683042D01*
G01*
X148701862Y-75209686D02*
G75*
G02*
X147334820Y-75209260I-683042J1535426D01*
G01*
X146483394Y-74357302D02*
G75*
G02*
X146483820Y-72990260I1535426J683042D01*
G01*
X147335502Y-72139504D02*
G75*
G02*
X148018820Y-71994260I683318J-1534756D01*
G01*
X144698820Y-73674260D02*
G75*
G03*
X144698820Y-73674260I-1680000J0D01*
G01*
X150578820Y-69574260D02*
X140458820Y-69574260D01*
X150578820Y-71074260D02*
X140458820Y-71074260D01*
X150578820Y-75975260D02*
X140458820Y-75975260D01*
X150578820Y-78935260D02*
X140458820Y-78935260D01*
X150578820Y-69014260D02*
X140458820Y-69014260D01*
X150578820Y-78935260D02*
X150578820Y-69014260D01*
X140458820Y-78935260D02*
X140458820Y-69014260D01*
X141743820Y-74743260D02*
X141790820Y-74697260D01*
X144052820Y-72435260D02*
X144087820Y-72400260D01*
X141948820Y-74949260D02*
X141983820Y-74913260D01*
X144245820Y-72651260D02*
X144292820Y-72605260D01*
X150818820Y-69514260D02*
X150818820Y-68774260D01*
X150818820Y-68774260D02*
X150318820Y-68774260D01*
X143975000Y-80055000D02*
X143975000Y-82715000D01*
X146575000Y-80055000D02*
X143975000Y-80055000D01*
X146575000Y-82715000D02*
X143975000Y-82715000D01*
X146575000Y-80055000D02*
X146575000Y-82715000D01*
X147845000Y-80055000D02*
X149175000Y-80055000D01*
X149175000Y-80055000D02*
X149175000Y-81385000D01*
X172035000Y-71920000D02*
X172035000Y-69260000D01*
X166895000Y-71920000D02*
X172035000Y-71920000D01*
X166895000Y-69260000D02*
X172035000Y-69260000D01*
X166895000Y-71920000D02*
X166895000Y-69260000D01*
X165625000Y-71920000D02*
X164295000Y-71920000D01*
X164295000Y-71920000D02*
X164295000Y-70590000D01*
X172035000Y-79540000D02*
X172035000Y-76880000D01*
X166895000Y-79540000D02*
X172035000Y-79540000D01*
X166895000Y-76880000D02*
X172035000Y-76880000D01*
X166895000Y-79540000D02*
X166895000Y-76880000D01*
X165625000Y-79540000D02*
X164295000Y-79540000D01*
X164295000Y-79540000D02*
X164295000Y-78210000D01*
X172035000Y-77000000D02*
X172035000Y-74340000D01*
X166895000Y-77000000D02*
X172035000Y-77000000D01*
X166895000Y-74340000D02*
X172035000Y-74340000D01*
X166895000Y-77000000D02*
X166895000Y-74340000D01*
X165625000Y-77000000D02*
X164295000Y-77000000D01*
X164295000Y-77000000D02*
X164295000Y-75670000D01*
X172035000Y-74460000D02*
X172035000Y-71800000D01*
X166895000Y-74460000D02*
X172035000Y-74460000D01*
X166895000Y-71800000D02*
X172035000Y-71800000D01*
X166895000Y-74460000D02*
X166895000Y-71800000D01*
X165625000Y-74460000D02*
X164295000Y-74460000D01*
X164295000Y-74460000D02*
X164295000Y-73130000D01*
X183336820Y-70641260D02*
X178136820Y-70641260D01*
X183336820Y-70701260D02*
X183336820Y-70641260D01*
X178136820Y-73301260D02*
X178136820Y-70641260D01*
X183336820Y-70701260D02*
X180736820Y-70701260D01*
X180736820Y-70701260D02*
X180736820Y-73301260D01*
X180736820Y-73301260D02*
X178136820Y-73301260D01*
X183336820Y-71971260D02*
X183336820Y-73301260D01*
X183336820Y-73301260D02*
X182006820Y-73301260D01*
X146635000Y-106090000D02*
X143975000Y-106090000D01*
X146635000Y-111230000D02*
X146635000Y-106090000D01*
X143975000Y-111230000D02*
X143975000Y-106090000D01*
X146635000Y-111230000D02*
X143975000Y-111230000D01*
X146635000Y-112500000D02*
X146635000Y-113830000D01*
X146635000Y-113830000D02*
X145305000Y-113830000D01*
X104663820Y-95889260D02*
X104663820Y-89389260D01*
X108163820Y-95889260D02*
X101163820Y-95889260D01*
X101163820Y-104639260D02*
X101163820Y-95889260D01*
X108163820Y-104639260D02*
X108163820Y-95889260D01*
X102163820Y-81889260D02*
X102163820Y-80639260D01*
X107163820Y-82139260D02*
X107163820Y-80639260D01*
X102163820Y-94139260D02*
X102163820Y-81889260D01*
X107163820Y-93889260D02*
X107163820Y-82139260D01*
X102163820Y-104639260D02*
X102163820Y-94139260D01*
X107163820Y-104639260D02*
X107163820Y-93889260D01*
X107163820Y-104639260D02*
X102163820Y-104639260D01*
X108163820Y-105639260D02*
X108163820Y-104639260D01*
X108163820Y-105639260D02*
X101163820Y-105639260D01*
X101163820Y-105639260D02*
X101163820Y-104639260D01*
X107163820Y-80639260D02*
X102163820Y-80639260D01*
X108163820Y-89389260D02*
X108163820Y-79639260D01*
X108163820Y-79639260D02*
X101163820Y-79639260D01*
X101163820Y-89389260D02*
X101163820Y-79639260D01*
X108163820Y-89389260D02*
X101163820Y-89389260D01*
D14*
X119324036Y-79462991D02*
X119107892Y-79571063D01*
X119107892Y-79571063D02*
X118891748Y-79701110D01*
X118891748Y-79701110D02*
X118740447Y-79895279D01*
X118740447Y-79895279D02*
X118632375Y-80090169D01*
X118632375Y-80090169D02*
X118589147Y-80327927D01*
X118589147Y-80327927D02*
X118589147Y-80587300D01*
X118589147Y-80587300D02*
X118632375Y-80825059D01*
X118632375Y-80825059D02*
X118740447Y-81019228D01*
X118740447Y-81019228D02*
X118891748Y-81214118D01*
X118891748Y-81214118D02*
X119107892Y-81343805D01*
X119107892Y-81343805D02*
X119324036Y-81451877D01*
X119324036Y-81451877D02*
X119540180Y-81473491D01*
X119540180Y-81473491D02*
X123637824Y-81754478D01*
X123637824Y-81754478D02*
X123789125Y-81776093D01*
X123789125Y-81776093D02*
X123940426Y-81884165D01*
X123940426Y-81884165D02*
X124048498Y-82013851D01*
X124048498Y-82013851D02*
X124113341Y-82164792D01*
X124113341Y-82164792D02*
X124113341Y-82359682D01*
X124113341Y-82359682D02*
X124048498Y-82510983D01*
X124048498Y-82510983D02*
X123940426Y-82640309D01*
X123940426Y-82640309D02*
X123789125Y-82748741D01*
X123789125Y-82748741D02*
X123637824Y-82769995D01*
X123637824Y-82769995D02*
X119540180Y-83051342D01*
X119540180Y-83051342D02*
X119324036Y-83072957D01*
X119324036Y-83072957D02*
X119107892Y-83159054D01*
X119107892Y-83159054D02*
X118891748Y-83310355D01*
X118891748Y-83310355D02*
X118740447Y-83483630D01*
X118740447Y-83483630D02*
X118632375Y-83699414D01*
X118632375Y-83699414D02*
X118589147Y-83937533D01*
X118589147Y-83937533D02*
X118589147Y-84175291D01*
X118589147Y-84175291D02*
X118632375Y-84391075D01*
X118632375Y-84391075D02*
X118740447Y-84629194D01*
X118740447Y-84629194D02*
X118891748Y-84823363D01*
X118891748Y-84823363D02*
X119107892Y-84953410D01*
X119107892Y-84953410D02*
X119324036Y-85039868D01*
X119324036Y-85039868D02*
X119540180Y-85083097D01*
X119540180Y-85083097D02*
X123637824Y-85342109D01*
X123637824Y-85342109D02*
X123789125Y-85385338D01*
X123789125Y-85385338D02*
X123940426Y-85471796D01*
X123940426Y-85471796D02*
X124048498Y-85601482D01*
X124048498Y-85601482D02*
X124113341Y-85774758D01*
X124113341Y-85774758D02*
X124113341Y-85925698D01*
X124113341Y-85925698D02*
X124048498Y-86120588D01*
X124048498Y-86120588D02*
X123940426Y-86250274D01*
X123940426Y-86250274D02*
X123637824Y-86379601D01*
X123637824Y-86379601D02*
X118567532Y-86682202D01*
X118567532Y-86682202D02*
X118567532Y-92799260D01*
X118567532Y-92799260D02*
X118567532Y-98916317D01*
X118567532Y-98916317D02*
X123637824Y-99218919D01*
X123637824Y-99218919D02*
X123940426Y-99348245D01*
X123940426Y-99348245D02*
X124048498Y-99477932D01*
X124048498Y-99477932D02*
X124113341Y-99672822D01*
X124113341Y-99672822D02*
X124113341Y-99823762D01*
X124113341Y-99823762D02*
X124048498Y-99997038D01*
X124048498Y-99997038D02*
X123940426Y-100126724D01*
X123940426Y-100126724D02*
X123789125Y-100213182D01*
X123789125Y-100213182D02*
X123637824Y-100256411D01*
X123637824Y-100256411D02*
X119540180Y-100515423D01*
X119540180Y-100515423D02*
X119324036Y-100558652D01*
X119324036Y-100558652D02*
X119107892Y-100645110D01*
X119107892Y-100645110D02*
X118891748Y-100775157D01*
X118891748Y-100775157D02*
X118740447Y-100969326D01*
X118740447Y-100969326D02*
X118632375Y-101207445D01*
X118632375Y-101207445D02*
X118589147Y-101423229D01*
X118589147Y-101423229D02*
X118589147Y-101660987D01*
X118589147Y-101660987D02*
X118632375Y-101899106D01*
X118632375Y-101899106D02*
X118740447Y-102114890D01*
X118740447Y-102114890D02*
X118891748Y-102288165D01*
X118891748Y-102288165D02*
X119107892Y-102439466D01*
X119107892Y-102439466D02*
X119324036Y-102525563D01*
X119324036Y-102525563D02*
X119540180Y-102547178D01*
X119540180Y-102547178D02*
X123637824Y-102828525D01*
X123637824Y-102828525D02*
X123789125Y-102849779D01*
X123789125Y-102849779D02*
X123940426Y-102958211D01*
X123940426Y-102958211D02*
X124048498Y-103087537D01*
X124048498Y-103087537D02*
X124113341Y-103238838D01*
X124113341Y-103238838D02*
X124113341Y-103433728D01*
X124113341Y-103433728D02*
X124048498Y-103584668D01*
X124048498Y-103584668D02*
X123940426Y-103714355D01*
X123940426Y-103714355D02*
X123789125Y-103822427D01*
X123789125Y-103822427D02*
X123637824Y-103844042D01*
X123637824Y-103844042D02*
X119540180Y-104125029D01*
X119540180Y-104125029D02*
X119324036Y-104146643D01*
X119324036Y-104146643D02*
X119107892Y-104254715D01*
X119107892Y-104254715D02*
X118891748Y-104384402D01*
X118891748Y-104384402D02*
X118740447Y-104579291D01*
X118740447Y-104579291D02*
X118632375Y-104773461D01*
X118632375Y-104773461D02*
X118589147Y-105011219D01*
X118589147Y-105011219D02*
X118589147Y-105270593D01*
X118589147Y-105270593D02*
X118632375Y-105508351D01*
X118632375Y-105508351D02*
X118740447Y-105703241D01*
X118740447Y-105703241D02*
X118891748Y-105897410D01*
X118891748Y-105897410D02*
X119107892Y-106027457D01*
X119107892Y-106027457D02*
X119324036Y-106135529D01*
X119324036Y-106135529D02*
X119540180Y-106157144D01*
X119540180Y-106157144D02*
X123637824Y-106437771D01*
X123637824Y-106437771D02*
X123789125Y-106459385D01*
X123789125Y-106459385D02*
X123940426Y-106567818D01*
X123940426Y-106567818D02*
X124048498Y-106697504D01*
X124048498Y-106697504D02*
X124113341Y-106848445D01*
X124113341Y-106848445D02*
X124113341Y-107194275D01*
X124113341Y-107194275D02*
X124048498Y-107345936D01*
X124048498Y-107345936D02*
X123940426Y-107475623D01*
X123940426Y-107475623D02*
X123789125Y-107583334D01*
X123789125Y-107583334D02*
X123616210Y-107604949D01*
X123616210Y-107604949D02*
X118567532Y-107604949D01*
X118567532Y-107604949D02*
X116752422Y-107604949D01*
X116752422Y-107604949D02*
X108063430Y-107604949D01*
X108063430Y-107604949D02*
X107890515Y-107583334D01*
X107890515Y-107583334D02*
X107739214Y-107475623D01*
X107739214Y-107475623D02*
X107631142Y-107345936D01*
X107631142Y-107345936D02*
X107566299Y-107194275D01*
X107566299Y-107194275D02*
X107566299Y-106848445D01*
X107566299Y-106848445D02*
X107631142Y-106697504D01*
X107631142Y-106697504D02*
X107739214Y-106567818D01*
X107739214Y-106567818D02*
X107890515Y-106459385D01*
X107890515Y-106459385D02*
X108041816Y-106437771D01*
X108041816Y-106437771D02*
X115779774Y-106157144D01*
X115779774Y-106157144D02*
X115995918Y-106135529D01*
X115995918Y-106135529D02*
X116212062Y-106027457D01*
X116212062Y-106027457D02*
X116428206Y-105897410D01*
X116428206Y-105897410D02*
X116579507Y-105703241D01*
X116579507Y-105703241D02*
X116687579Y-105508351D01*
X116687579Y-105508351D02*
X116730808Y-105270593D01*
X116730808Y-105270593D02*
X116730808Y-105011219D01*
X116730808Y-105011219D02*
X116687579Y-104773461D01*
X116687579Y-104773461D02*
X116579507Y-104579291D01*
X116579507Y-104579291D02*
X116428206Y-104384402D01*
X116428206Y-104384402D02*
X116212062Y-104254715D01*
X116212062Y-104254715D02*
X115995918Y-104146643D01*
X115995918Y-104146643D02*
X115779774Y-104125029D01*
X115779774Y-104125029D02*
X108041816Y-103844042D01*
X108041816Y-103844042D02*
X107890515Y-103822427D01*
X107890515Y-103822427D02*
X107739214Y-103714355D01*
X107739214Y-103714355D02*
X107631142Y-103584668D01*
X107631142Y-103584668D02*
X107566299Y-103433728D01*
X107566299Y-103433728D02*
X107566299Y-103238838D01*
X107566299Y-103238838D02*
X107631142Y-103087537D01*
X107631142Y-103087537D02*
X107739214Y-102958211D01*
X107739214Y-102958211D02*
X107890515Y-102849779D01*
X107890515Y-102849779D02*
X108041816Y-102828525D01*
X108041816Y-102828525D02*
X115779774Y-102547178D01*
X115779774Y-102547178D02*
X115995918Y-102525563D01*
X115995918Y-102525563D02*
X116212062Y-102439466D01*
X116212062Y-102439466D02*
X116428206Y-102288165D01*
X116428206Y-102288165D02*
X116579507Y-102114890D01*
X116579507Y-102114890D02*
X116687579Y-101899106D01*
X116687579Y-101899106D02*
X116730808Y-101660987D01*
X116730808Y-101660987D02*
X116730808Y-101423229D01*
X116730808Y-101423229D02*
X116687579Y-101207445D01*
X116687579Y-101207445D02*
X116579507Y-100969326D01*
X116579507Y-100969326D02*
X116428206Y-100775157D01*
X116428206Y-100775157D02*
X116212062Y-100645110D01*
X116212062Y-100645110D02*
X115995918Y-100558652D01*
X115995918Y-100558652D02*
X115779774Y-100515423D01*
X115779774Y-100515423D02*
X108041816Y-100256411D01*
X108041816Y-100256411D02*
X107890515Y-100213182D01*
X107890515Y-100213182D02*
X107739214Y-100126724D01*
X107739214Y-100126724D02*
X107631142Y-99997038D01*
X107631142Y-99997038D02*
X107566299Y-99823762D01*
X107566299Y-99823762D02*
X107566299Y-99672822D01*
X107566299Y-99672822D02*
X107631142Y-99477932D01*
X107631142Y-99477932D02*
X107739214Y-99348245D01*
X107739214Y-99348245D02*
X108041816Y-99218919D01*
X108041816Y-99218919D02*
X116752422Y-98916317D01*
X116752422Y-98916317D02*
X116752422Y-92799260D01*
X116752422Y-92799260D02*
X116752422Y-86682202D01*
X116752422Y-86682202D02*
X108041816Y-86379601D01*
X108041816Y-86379601D02*
X107739214Y-86250274D01*
X107739214Y-86250274D02*
X107631142Y-86120588D01*
X107631142Y-86120588D02*
X107566299Y-85925698D01*
X107566299Y-85925698D02*
X107566299Y-85774758D01*
X107566299Y-85774758D02*
X107631142Y-85601482D01*
X107631142Y-85601482D02*
X107739214Y-85471796D01*
X107739214Y-85471796D02*
X107890515Y-85385338D01*
X107890515Y-85385338D02*
X108041816Y-85342109D01*
X108041816Y-85342109D02*
X115779774Y-85083097D01*
X115779774Y-85083097D02*
X115995918Y-85039868D01*
X115995918Y-85039868D02*
X116212062Y-84953410D01*
X116212062Y-84953410D02*
X116428206Y-84823363D01*
X116428206Y-84823363D02*
X116579507Y-84629194D01*
X116579507Y-84629194D02*
X116687579Y-84391075D01*
X116687579Y-84391075D02*
X116730808Y-84175291D01*
X116730808Y-84175291D02*
X116730808Y-83937533D01*
X116730808Y-83937533D02*
X116687579Y-83699414D01*
X116687579Y-83699414D02*
X116579507Y-83483630D01*
X116579507Y-83483630D02*
X116428206Y-83310355D01*
X116428206Y-83310355D02*
X116212062Y-83159054D01*
X116212062Y-83159054D02*
X115995918Y-83072957D01*
X115995918Y-83072957D02*
X115779774Y-83051342D01*
X115779774Y-83051342D02*
X108041816Y-82769995D01*
X108041816Y-82769995D02*
X107890515Y-82748741D01*
X107890515Y-82748741D02*
X107739214Y-82640309D01*
X107739214Y-82640309D02*
X107631142Y-82510983D01*
X107631142Y-82510983D02*
X107566299Y-82359682D01*
X107566299Y-82359682D02*
X107566299Y-82164792D01*
X107566299Y-82164792D02*
X107631142Y-82013851D01*
X107631142Y-82013851D02*
X107739214Y-81884165D01*
X107739214Y-81884165D02*
X107890515Y-81776093D01*
X107890515Y-81776093D02*
X108041816Y-81754478D01*
X108041816Y-81754478D02*
X115779774Y-81473491D01*
X115779774Y-81473491D02*
X115995918Y-81451877D01*
X115995918Y-81451877D02*
X116212062Y-81343805D01*
X116212062Y-81343805D02*
X116428206Y-81214118D01*
X116428206Y-81214118D02*
X116579507Y-81019228D01*
X116579507Y-81019228D02*
X116687579Y-80825059D01*
X116687579Y-80825059D02*
X116730808Y-80587300D01*
X116730808Y-80587300D02*
X116730808Y-80327927D01*
X116730808Y-80327927D02*
X116687579Y-80090169D01*
X116687579Y-80090169D02*
X116579507Y-79895279D01*
X116579507Y-79895279D02*
X116428206Y-79701110D01*
X116428206Y-79701110D02*
X116212062Y-79571063D01*
X116212062Y-79571063D02*
X115995918Y-79462991D01*
X115995918Y-79462991D02*
X115779774Y-79441376D01*
X115779774Y-79441376D02*
X108041816Y-79160749D01*
X108041816Y-79160749D02*
X107890515Y-79139135D01*
X107890515Y-79139135D02*
X107739214Y-79030702D01*
X107739214Y-79030702D02*
X107631142Y-78901016D01*
X107631142Y-78901016D02*
X107566299Y-78750075D01*
X107566299Y-78750075D02*
X107566299Y-78404245D01*
X107566299Y-78404245D02*
X107631142Y-78252584D01*
X107631142Y-78252584D02*
X107739214Y-78122897D01*
X107739214Y-78122897D02*
X107890515Y-78015186D01*
X107890515Y-78015186D02*
X108063430Y-77993571D01*
X108063430Y-77993571D02*
X116752422Y-77993571D01*
X116752422Y-77993571D02*
X118567532Y-77993571D01*
X118567532Y-77993571D02*
X123616210Y-77993571D01*
X123616210Y-77993571D02*
X123789125Y-78015186D01*
X123789125Y-78015186D02*
X123940426Y-78122897D01*
X123940426Y-78122897D02*
X124048498Y-78252584D01*
X124048498Y-78252584D02*
X124113341Y-78404245D01*
X124113341Y-78404245D02*
X124113341Y-78750075D01*
X124113341Y-78750075D02*
X124048498Y-78901016D01*
X124048498Y-78901016D02*
X123940426Y-79030702D01*
X123940426Y-79030702D02*
X123789125Y-79139135D01*
X123789125Y-79139135D02*
X123637824Y-79160749D01*
X123637824Y-79160749D02*
X119540180Y-79441376D01*
X119540180Y-79441376D02*
X119324036Y-79462991D01*
D10*
X142955486Y-99984021D02*
X142955486Y-99507831D01*
X143241200Y-100079260D02*
X142241200Y-99745926D01*
X143241200Y-99412593D01*
X143241200Y-98507831D02*
X142765010Y-98841164D01*
X143241200Y-99079260D02*
X142241200Y-99079260D01*
X142241200Y-98698307D01*
X142288820Y-98603069D01*
X142336439Y-98555450D01*
X142431677Y-98507831D01*
X142574534Y-98507831D01*
X142669772Y-98555450D01*
X142717391Y-98603069D01*
X142765010Y-98698307D01*
X142765010Y-99079260D01*
X143241200Y-98079260D02*
X142241200Y-98079260D01*
X142241200Y-97841164D01*
X142288820Y-97698307D01*
X142384058Y-97603069D01*
X142479296Y-97555450D01*
X142669772Y-97507831D01*
X142812629Y-97507831D01*
X143003105Y-97555450D01*
X143098343Y-97603069D01*
X143193581Y-97698307D01*
X143241200Y-97841164D01*
X143241200Y-98079260D01*
X142241200Y-97079260D02*
X143050724Y-97079260D01*
X143145962Y-97031640D01*
X143193581Y-96984021D01*
X143241200Y-96888783D01*
X143241200Y-96698307D01*
X143193581Y-96603069D01*
X143145962Y-96555450D01*
X143050724Y-96507831D01*
X142241200Y-96507831D01*
X143241200Y-96031640D02*
X142241200Y-96031640D01*
X143241200Y-95555450D02*
X142241200Y-95555450D01*
X143241200Y-94984021D01*
X142241200Y-94984021D01*
X142241200Y-94317355D02*
X142241200Y-94126879D01*
X142288820Y-94031640D01*
X142384058Y-93936402D01*
X142574534Y-93888783D01*
X142907867Y-93888783D01*
X143098343Y-93936402D01*
X143193581Y-94031640D01*
X143241200Y-94126879D01*
X143241200Y-94317355D01*
X143193581Y-94412593D01*
X143098343Y-94507831D01*
X142907867Y-94555450D01*
X142574534Y-94555450D01*
X142384058Y-94507831D01*
X142288820Y-94412593D01*
X142241200Y-94317355D01*
X143336439Y-93698307D02*
X143336439Y-92936402D01*
X143241200Y-92698307D02*
X142241200Y-92698307D01*
X143241200Y-92126879D01*
X142241200Y-92126879D01*
X142955486Y-91698307D02*
X142955486Y-91222117D01*
X143241200Y-91793545D02*
X142241200Y-91460212D01*
X143241200Y-91126879D01*
X143241200Y-90793545D02*
X142241200Y-90793545D01*
X143241200Y-90222117D01*
X142241200Y-90222117D01*
X142241200Y-89555450D02*
X142241200Y-89364974D01*
X142288820Y-89269736D01*
X142384058Y-89174498D01*
X142574534Y-89126879D01*
X142907867Y-89126879D01*
X143098343Y-89174498D01*
X143193581Y-89269736D01*
X143241200Y-89364974D01*
X143241200Y-89555450D01*
X143193581Y-89650688D01*
X143098343Y-89745926D01*
X142907867Y-89793545D01*
X142574534Y-89793545D01*
X142384058Y-89745926D01*
X142288820Y-89650688D01*
X142241200Y-89555450D01*
X143241200Y-88174498D02*
X143241200Y-88745926D01*
X143241200Y-88460212D02*
X142241200Y-88460212D01*
X142384058Y-88555450D01*
X142479296Y-88650688D01*
X142526915Y-88745926D01*
X179620724Y-73652380D02*
X179620724Y-72652380D01*
X179858820Y-72652380D01*
X180001677Y-72700000D01*
X180096915Y-72795238D01*
X180144534Y-72890476D01*
X180192153Y-73080952D01*
X180192153Y-73223809D01*
X180144534Y-73414285D01*
X180096915Y-73509523D01*
X180001677Y-73604761D01*
X179858820Y-73652380D01*
X179620724Y-73652380D01*
X181144534Y-73652380D02*
X180573105Y-73652380D01*
X180858820Y-73652380D02*
X180858820Y-72652380D01*
X180763581Y-72795238D01*
X180668343Y-72890476D01*
X180573105Y-72938095D01*
X127542142Y-86591666D02*
X127589761Y-86639285D01*
X127637380Y-86782142D01*
X127637380Y-86877380D01*
X127589761Y-87020238D01*
X127494523Y-87115476D01*
X127399285Y-87163095D01*
X127208809Y-87210714D01*
X127065952Y-87210714D01*
X126875476Y-87163095D01*
X126780238Y-87115476D01*
X126685000Y-87020238D01*
X126637380Y-86877380D01*
X126637380Y-86782142D01*
X126685000Y-86639285D01*
X126732619Y-86591666D01*
X127637380Y-85639285D02*
X127637380Y-86210714D01*
X127637380Y-85925000D02*
X126637380Y-85925000D01*
X126780238Y-86020238D01*
X126875476Y-86115476D01*
X126923095Y-86210714D01*
X128562153Y-90831640D02*
X128228820Y-90355450D01*
X127990724Y-90831640D02*
X127990724Y-89831640D01*
X128371677Y-89831640D01*
X128466915Y-89879260D01*
X128514534Y-89926879D01*
X128562153Y-90022117D01*
X128562153Y-90164974D01*
X128514534Y-90260212D01*
X128466915Y-90307831D01*
X128371677Y-90355450D01*
X127990724Y-90355450D01*
X129419296Y-90164974D02*
X129419296Y-90831640D01*
X129181200Y-89784021D02*
X128943105Y-90498307D01*
X129562153Y-90498307D01*
X125821200Y-106715926D02*
X125345010Y-107049260D01*
X125821200Y-107287355D02*
X124821200Y-107287355D01*
X124821200Y-106906402D01*
X124868820Y-106811164D01*
X124916439Y-106763545D01*
X125011677Y-106715926D01*
X125154534Y-106715926D01*
X125249772Y-106763545D01*
X125297391Y-106811164D01*
X125345010Y-106906402D01*
X125345010Y-107287355D01*
X124821200Y-106382593D02*
X124821200Y-105763545D01*
X125202153Y-106096879D01*
X125202153Y-105954021D01*
X125249772Y-105858783D01*
X125297391Y-105811164D01*
X125392629Y-105763545D01*
X125630724Y-105763545D01*
X125725962Y-105811164D01*
X125773581Y-105858783D01*
X125821200Y-105954021D01*
X125821200Y-106239736D01*
X125773581Y-106334974D01*
X125725962Y-106382593D01*
X136860735Y-83651640D02*
X136860735Y-84461164D01*
X136908354Y-84556402D01*
X136955973Y-84604021D01*
X137051211Y-84651640D01*
X137241687Y-84651640D01*
X137336925Y-84604021D01*
X137384544Y-84556402D01*
X137432163Y-84461164D01*
X137432163Y-83651640D01*
X138432163Y-84651640D02*
X137860735Y-84651640D01*
X138146449Y-84651640D02*
X138146449Y-83651640D01*
X138051211Y-83794498D01*
X137955973Y-83889736D01*
X137860735Y-83937355D01*
X135971211Y-103575900D02*
X136161687Y-103575900D01*
X136256925Y-103623520D01*
X136352163Y-103718758D01*
X136399782Y-103909234D01*
X136399782Y-104242567D01*
X136352163Y-104433043D01*
X136256925Y-104528281D01*
X136161687Y-104575900D01*
X135971211Y-104575900D01*
X135875973Y-104528281D01*
X135780735Y-104433043D01*
X135733116Y-104242567D01*
X135733116Y-103909234D01*
X135780735Y-103718758D01*
X135875973Y-103623520D01*
X135971211Y-103575900D01*
X136828354Y-104575900D02*
X136828354Y-103575900D01*
X137399782Y-104575900D02*
X136971211Y-104004472D01*
X137399782Y-103575900D02*
X136828354Y-104147329D01*
X138352163Y-104575900D02*
X137780735Y-104575900D01*
X138066449Y-104575900D02*
X138066449Y-103575900D01*
X137971211Y-103718758D01*
X137875973Y-103813996D01*
X137780735Y-103861615D01*
X119121200Y-95077831D02*
X119121200Y-94506402D01*
X120121200Y-94792117D02*
X119121200Y-94792117D01*
X120121200Y-93601640D02*
X119645010Y-93934974D01*
X120121200Y-94173069D02*
X119121200Y-94173069D01*
X119121200Y-93792117D01*
X119168820Y-93696879D01*
X119216439Y-93649260D01*
X119311677Y-93601640D01*
X119454534Y-93601640D01*
X119549772Y-93649260D01*
X119597391Y-93696879D01*
X119645010Y-93792117D01*
X119645010Y-94173069D01*
X120121200Y-93173069D02*
X119121200Y-93173069D01*
X119835486Y-92744498D02*
X119835486Y-92268307D01*
X120121200Y-92839736D02*
X119121200Y-92506402D01*
X120121200Y-92173069D01*
X120025962Y-91268307D02*
X120073581Y-91315926D01*
X120121200Y-91458783D01*
X120121200Y-91554021D01*
X120073581Y-91696879D01*
X119978343Y-91792117D01*
X119883105Y-91839736D01*
X119692629Y-91887355D01*
X119549772Y-91887355D01*
X119359296Y-91839736D01*
X119264058Y-91792117D01*
X119168820Y-91696879D01*
X119121200Y-91554021D01*
X119121200Y-91458783D01*
X119168820Y-91315926D01*
X119216439Y-91268307D01*
X120121200Y-90315926D02*
X120121200Y-90887355D01*
X120121200Y-90601640D02*
X119121200Y-90601640D01*
X119264058Y-90696879D01*
X119359296Y-90792117D01*
X119406915Y-90887355D01*
X155927153Y-104696640D02*
X155593820Y-104220450D01*
X155355724Y-104696640D02*
X155355724Y-103696640D01*
X155736677Y-103696640D01*
X155831915Y-103744260D01*
X155879534Y-103791879D01*
X155927153Y-103887117D01*
X155927153Y-104029974D01*
X155879534Y-104125212D01*
X155831915Y-104172831D01*
X155736677Y-104220450D01*
X155355724Y-104220450D01*
X156831915Y-103696640D02*
X156355724Y-103696640D01*
X156308105Y-104172831D01*
X156355724Y-104125212D01*
X156450962Y-104077593D01*
X156689058Y-104077593D01*
X156784296Y-104125212D01*
X156831915Y-104172831D01*
X156879534Y-104268069D01*
X156879534Y-104506164D01*
X156831915Y-104601402D01*
X156784296Y-104649021D01*
X156689058Y-104696640D01*
X156450962Y-104696640D01*
X156355724Y-104649021D01*
X156308105Y-104601402D01*
X195683616Y-76643360D02*
X195683616Y-77357646D01*
X195635997Y-77500503D01*
X195540759Y-77595741D01*
X195397901Y-77643360D01*
X195302663Y-77643360D01*
X196683616Y-77643360D02*
X196112187Y-77643360D01*
X196397901Y-77643360D02*
X196397901Y-76643360D01*
X196302663Y-76786218D01*
X196207425Y-76881456D01*
X196112187Y-76929075D01*
X197588378Y-76643360D02*
X197112187Y-76643360D01*
X197064568Y-77119551D01*
X197112187Y-77071932D01*
X197207425Y-77024313D01*
X197445520Y-77024313D01*
X197540759Y-77071932D01*
X197588378Y-77119551D01*
X197635997Y-77214789D01*
X197635997Y-77452884D01*
X197588378Y-77548122D01*
X197540759Y-77595741D01*
X197445520Y-77643360D01*
X197207425Y-77643360D01*
X197112187Y-77595741D01*
X197064568Y-77548122D01*
X135683616Y-68243360D02*
X135683616Y-68957646D01*
X135635997Y-69100503D01*
X135540759Y-69195741D01*
X135397901Y-69243360D01*
X135302663Y-69243360D01*
X136683616Y-69243360D02*
X136112187Y-69243360D01*
X136397901Y-69243360D02*
X136397901Y-68243360D01*
X136302663Y-68386218D01*
X136207425Y-68481456D01*
X136112187Y-68529075D01*
X137540759Y-68576694D02*
X137540759Y-69243360D01*
X137302663Y-68195741D02*
X137064568Y-68910027D01*
X137683616Y-68910027D01*
X135683616Y-108243360D02*
X135683616Y-108957646D01*
X135635997Y-109100503D01*
X135540759Y-109195741D01*
X135397901Y-109243360D01*
X135302663Y-109243360D01*
X136683616Y-109243360D02*
X136112187Y-109243360D01*
X136397901Y-109243360D02*
X136397901Y-108243360D01*
X136302663Y-108386218D01*
X136207425Y-108481456D01*
X136112187Y-108529075D01*
X137016949Y-108243360D02*
X137635997Y-108243360D01*
X137302663Y-108624313D01*
X137445520Y-108624313D01*
X137540759Y-108671932D01*
X137588378Y-108719551D01*
X137635997Y-108814789D01*
X137635997Y-109052884D01*
X137588378Y-109148122D01*
X137540759Y-109195741D01*
X137445520Y-109243360D01*
X137159806Y-109243360D01*
X137064568Y-109195741D01*
X137016949Y-109148122D01*
X195059296Y-108101640D02*
X195059296Y-108815926D01*
X195011677Y-108958783D01*
X194916439Y-109054021D01*
X194773581Y-109101640D01*
X194678343Y-109101640D01*
X196059296Y-109101640D02*
X195487867Y-109101640D01*
X195773581Y-109101640D02*
X195773581Y-108101640D01*
X195678343Y-108244498D01*
X195583105Y-108339736D01*
X195487867Y-108387355D01*
X196440248Y-108196879D02*
X196487867Y-108149260D01*
X196583105Y-108101640D01*
X196821200Y-108101640D01*
X196916439Y-108149260D01*
X196964058Y-108196879D01*
X197011677Y-108292117D01*
X197011677Y-108387355D01*
X196964058Y-108530212D01*
X196392629Y-109101640D01*
X197011677Y-109101640D01*
X194190439Y-75765238D02*
X194142820Y-75860476D01*
X194047581Y-75955714D01*
X193904724Y-76098571D01*
X193857105Y-76193809D01*
X193857105Y-76289047D01*
X194095200Y-76241428D02*
X194047581Y-76336666D01*
X193952343Y-76431904D01*
X193761867Y-76479523D01*
X193428534Y-76479523D01*
X193238058Y-76431904D01*
X193142820Y-76336666D01*
X193095200Y-76241428D01*
X193095200Y-76050952D01*
X193142820Y-75955714D01*
X193238058Y-75860476D01*
X193428534Y-75812857D01*
X193761867Y-75812857D01*
X193952343Y-75860476D01*
X194047581Y-75955714D01*
X194095200Y-76050952D01*
X194095200Y-76241428D01*
X194095200Y-74860476D02*
X194095200Y-75431904D01*
X194095200Y-75146190D02*
X193095200Y-75146190D01*
X193238058Y-75241428D01*
X193333296Y-75336666D01*
X193380915Y-75431904D01*
X128621200Y-106615926D02*
X128145010Y-106949260D01*
X128621200Y-107187355D02*
X127621200Y-107187355D01*
X127621200Y-106806402D01*
X127668820Y-106711164D01*
X127716439Y-106663545D01*
X127811677Y-106615926D01*
X127954534Y-106615926D01*
X128049772Y-106663545D01*
X128097391Y-106711164D01*
X128145010Y-106806402D01*
X128145010Y-107187355D01*
X127716439Y-106234974D02*
X127668820Y-106187355D01*
X127621200Y-106092117D01*
X127621200Y-105854021D01*
X127668820Y-105758783D01*
X127716439Y-105711164D01*
X127811677Y-105663545D01*
X127906915Y-105663545D01*
X128049772Y-105711164D01*
X128621200Y-106282593D01*
X128621200Y-105663545D01*
X132171200Y-109065926D02*
X131695010Y-109399260D01*
X132171200Y-109637355D02*
X131171200Y-109637355D01*
X131171200Y-109256402D01*
X131218820Y-109161164D01*
X131266439Y-109113545D01*
X131361677Y-109065926D01*
X131504534Y-109065926D01*
X131599772Y-109113545D01*
X131647391Y-109161164D01*
X131695010Y-109256402D01*
X131695010Y-109637355D01*
X132171200Y-108113545D02*
X132171200Y-108684974D01*
X132171200Y-108399260D02*
X131171200Y-108399260D01*
X131314058Y-108494498D01*
X131409296Y-108589736D01*
X131456915Y-108684974D01*
X157298571Y-77820952D02*
X157346190Y-77678095D01*
X157393809Y-77630476D01*
X157489047Y-77582857D01*
X157631904Y-77582857D01*
X157727142Y-77630476D01*
X157774761Y-77678095D01*
X157822380Y-77773333D01*
X157822380Y-78154285D01*
X156822380Y-78154285D01*
X156822380Y-77820952D01*
X156870000Y-77725714D01*
X156917619Y-77678095D01*
X157012857Y-77630476D01*
X157108095Y-77630476D01*
X157203333Y-77678095D01*
X157250952Y-77725714D01*
X157298571Y-77820952D01*
X157298571Y-78154285D01*
X156822380Y-77249523D02*
X156822380Y-76582857D01*
X157822380Y-77249523D01*
X157822380Y-76582857D01*
X157822380Y-75678095D02*
X157822380Y-76249523D01*
X157822380Y-75963809D02*
X156822380Y-75963809D01*
X156965238Y-76059047D01*
X157060476Y-76154285D01*
X157108095Y-76249523D01*
X182852153Y-81781402D02*
X182804534Y-81829021D01*
X182661677Y-81876640D01*
X182566439Y-81876640D01*
X182423581Y-81829021D01*
X182328343Y-81733783D01*
X182280724Y-81638545D01*
X182233105Y-81448069D01*
X182233105Y-81305212D01*
X182280724Y-81114736D01*
X182328343Y-81019498D01*
X182423581Y-80924260D01*
X182566439Y-80876640D01*
X182661677Y-80876640D01*
X182804534Y-80924260D01*
X182852153Y-80971879D01*
X183233105Y-80971879D02*
X183280724Y-80924260D01*
X183375962Y-80876640D01*
X183614058Y-80876640D01*
X183709296Y-80924260D01*
X183756915Y-80971879D01*
X183804534Y-81067117D01*
X183804534Y-81162355D01*
X183756915Y-81305212D01*
X183185486Y-81876640D01*
X183804534Y-81876640D01*
X172559200Y-77065926D02*
X172083010Y-77399260D01*
X172559200Y-77637355D02*
X171559200Y-77637355D01*
X171559200Y-77256402D01*
X171606820Y-77161164D01*
X171654439Y-77113545D01*
X171749677Y-77065926D01*
X171892534Y-77065926D01*
X171987772Y-77113545D01*
X172035391Y-77161164D01*
X172083010Y-77256402D01*
X172083010Y-77637355D01*
X171559200Y-76208783D02*
X171559200Y-76399260D01*
X171606820Y-76494498D01*
X171654439Y-76542117D01*
X171797296Y-76637355D01*
X171987772Y-76684974D01*
X172368724Y-76684974D01*
X172463962Y-76637355D01*
X172511581Y-76589736D01*
X172559200Y-76494498D01*
X172559200Y-76304021D01*
X172511581Y-76208783D01*
X172463962Y-76161164D01*
X172368724Y-76113545D01*
X172130629Y-76113545D01*
X172035391Y-76161164D01*
X171987772Y-76208783D01*
X171940153Y-76304021D01*
X171940153Y-76494498D01*
X171987772Y-76589736D01*
X172035391Y-76637355D01*
X172130629Y-76684974D01*
X184117380Y-75836666D02*
X183641190Y-76170000D01*
X184117380Y-76408095D02*
X183117380Y-76408095D01*
X183117380Y-76027142D01*
X183165000Y-75931904D01*
X183212619Y-75884285D01*
X183307857Y-75836666D01*
X183450714Y-75836666D01*
X183545952Y-75884285D01*
X183593571Y-75931904D01*
X183641190Y-76027142D01*
X183641190Y-76408095D01*
X183117380Y-75503333D02*
X183117380Y-74836666D01*
X184117380Y-75265238D01*
X177721200Y-110032593D02*
X178435486Y-110032593D01*
X178578343Y-110080212D01*
X178673581Y-110175450D01*
X178721200Y-110318307D01*
X178721200Y-110413545D01*
X178721200Y-109508783D02*
X178721200Y-109318307D01*
X178673581Y-109223069D01*
X178625962Y-109175450D01*
X178483105Y-109080212D01*
X178292629Y-109032593D01*
X177911677Y-109032593D01*
X177816439Y-109080212D01*
X177768820Y-109127831D01*
X177721200Y-109223069D01*
X177721200Y-109413545D01*
X177768820Y-109508783D01*
X177816439Y-109556402D01*
X177911677Y-109604021D01*
X178149772Y-109604021D01*
X178245010Y-109556402D01*
X178292629Y-109508783D01*
X178340248Y-109413545D01*
X178340248Y-109223069D01*
X178292629Y-109127831D01*
X178245010Y-109080212D01*
X178149772Y-109032593D01*
X191771200Y-116108783D02*
X192485486Y-116108783D01*
X192628343Y-116156402D01*
X192723581Y-116251640D01*
X192771200Y-116394498D01*
X192771200Y-116489736D01*
X192771200Y-115108783D02*
X192771200Y-115680212D01*
X192771200Y-115394498D02*
X191771200Y-115394498D01*
X191914058Y-115489736D01*
X192009296Y-115584974D01*
X192056915Y-115680212D01*
X191771200Y-114489736D02*
X191771200Y-114394498D01*
X191818820Y-114299260D01*
X191866439Y-114251640D01*
X191961677Y-114204021D01*
X192152153Y-114156402D01*
X192390248Y-114156402D01*
X192580724Y-114204021D01*
X192675962Y-114251640D01*
X192723581Y-114299260D01*
X192771200Y-114394498D01*
X192771200Y-114489736D01*
X192723581Y-114584974D01*
X192675962Y-114632593D01*
X192580724Y-114680212D01*
X192390248Y-114727831D01*
X192152153Y-114727831D01*
X191961677Y-114680212D01*
X191866439Y-114632593D01*
X191818820Y-114584974D01*
X191771200Y-114489736D01*
X116706200Y-112657593D02*
X117420486Y-112657593D01*
X117563343Y-112705212D01*
X117658581Y-112800450D01*
X117706200Y-112943307D01*
X117706200Y-113038545D01*
X117706200Y-111657593D02*
X117706200Y-112229021D01*
X117706200Y-111943307D02*
X116706200Y-111943307D01*
X116849058Y-112038545D01*
X116944296Y-112133783D01*
X116991915Y-112229021D01*
X116806200Y-74007593D02*
X117520486Y-74007593D01*
X117663343Y-74055212D01*
X117758581Y-74150450D01*
X117806200Y-74293307D01*
X117806200Y-74388545D01*
X116901439Y-73579021D02*
X116853820Y-73531402D01*
X116806200Y-73436164D01*
X116806200Y-73198069D01*
X116853820Y-73102831D01*
X116901439Y-73055212D01*
X116996677Y-73007593D01*
X117091915Y-73007593D01*
X117234772Y-73055212D01*
X117806200Y-73626640D01*
X117806200Y-73007593D01*
X140135486Y-79551640D02*
X140135486Y-80265926D01*
X140087867Y-80408783D01*
X139992629Y-80504021D01*
X139849772Y-80551640D01*
X139754534Y-80551640D01*
X140516439Y-79551640D02*
X141135486Y-79551640D01*
X140802153Y-79932593D01*
X140945010Y-79932593D01*
X141040248Y-79980212D01*
X141087867Y-80027831D01*
X141135486Y-80123069D01*
X141135486Y-80361164D01*
X141087867Y-80456402D01*
X141040248Y-80504021D01*
X140945010Y-80551640D01*
X140659296Y-80551640D01*
X140564058Y-80504021D01*
X140516439Y-80456402D01*
X142217380Y-82218333D02*
X142931666Y-82218333D01*
X143074523Y-82265952D01*
X143169761Y-82361190D01*
X143217380Y-82504047D01*
X143217380Y-82599285D01*
X143217380Y-81742142D02*
X142217380Y-81742142D01*
X142217380Y-81361190D01*
X142265000Y-81265952D01*
X142312619Y-81218333D01*
X142407857Y-81170714D01*
X142550714Y-81170714D01*
X142645952Y-81218333D01*
X142693571Y-81265952D01*
X142741190Y-81361190D01*
X142741190Y-81742142D01*
X143217380Y-80218333D02*
X143217380Y-80789761D01*
X143217380Y-80504047D02*
X142217380Y-80504047D01*
X142360238Y-80599285D01*
X142455476Y-80694523D01*
X142503095Y-80789761D01*
X162747380Y-70923333D02*
X163461666Y-70923333D01*
X163604523Y-70970952D01*
X163699761Y-71066190D01*
X163747380Y-71209047D01*
X163747380Y-71304285D01*
X163175952Y-70304285D02*
X163128333Y-70399523D01*
X163080714Y-70447142D01*
X162985476Y-70494761D01*
X162937857Y-70494761D01*
X162842619Y-70447142D01*
X162795000Y-70399523D01*
X162747380Y-70304285D01*
X162747380Y-70113809D01*
X162795000Y-70018571D01*
X162842619Y-69970952D01*
X162937857Y-69923333D01*
X162985476Y-69923333D01*
X163080714Y-69970952D01*
X163128333Y-70018571D01*
X163175952Y-70113809D01*
X163175952Y-70304285D01*
X163223571Y-70399523D01*
X163271190Y-70447142D01*
X163366428Y-70494761D01*
X163556904Y-70494761D01*
X163652142Y-70447142D01*
X163699761Y-70399523D01*
X163747380Y-70304285D01*
X163747380Y-70113809D01*
X163699761Y-70018571D01*
X163652142Y-69970952D01*
X163556904Y-69923333D01*
X163366428Y-69923333D01*
X163271190Y-69970952D01*
X163223571Y-70018571D01*
X163175952Y-70113809D01*
X162747380Y-78543333D02*
X163461666Y-78543333D01*
X163604523Y-78590952D01*
X163699761Y-78686190D01*
X163747380Y-78829047D01*
X163747380Y-78924285D01*
X162747380Y-77590952D02*
X162747380Y-78067142D01*
X163223571Y-78114761D01*
X163175952Y-78067142D01*
X163128333Y-77971904D01*
X163128333Y-77733809D01*
X163175952Y-77638571D01*
X163223571Y-77590952D01*
X163318809Y-77543333D01*
X163556904Y-77543333D01*
X163652142Y-77590952D01*
X163699761Y-77638571D01*
X163747380Y-77733809D01*
X163747380Y-77971904D01*
X163699761Y-78067142D01*
X163652142Y-78114761D01*
X162747380Y-76003333D02*
X163461666Y-76003333D01*
X163604523Y-76050952D01*
X163699761Y-76146190D01*
X163747380Y-76289047D01*
X163747380Y-76384285D01*
X162747380Y-75098571D02*
X162747380Y-75289047D01*
X162795000Y-75384285D01*
X162842619Y-75431904D01*
X162985476Y-75527142D01*
X163175952Y-75574761D01*
X163556904Y-75574761D01*
X163652142Y-75527142D01*
X163699761Y-75479523D01*
X163747380Y-75384285D01*
X163747380Y-75193809D01*
X163699761Y-75098571D01*
X163652142Y-75050952D01*
X163556904Y-75003333D01*
X163318809Y-75003333D01*
X163223571Y-75050952D01*
X163175952Y-75098571D01*
X163128333Y-75193809D01*
X163128333Y-75384285D01*
X163175952Y-75479523D01*
X163223571Y-75527142D01*
X163318809Y-75574761D01*
X162747380Y-73463333D02*
X163461666Y-73463333D01*
X163604523Y-73510952D01*
X163699761Y-73606190D01*
X163747380Y-73749047D01*
X163747380Y-73844285D01*
X162747380Y-73082380D02*
X162747380Y-72415714D01*
X163747380Y-72844285D01*
X180403486Y-68883640D02*
X180403486Y-69597926D01*
X180355867Y-69740783D01*
X180260629Y-69836021D01*
X180117772Y-69883640D01*
X180022534Y-69883640D01*
X181308248Y-69216974D02*
X181308248Y-69883640D01*
X181070153Y-68836021D02*
X180832058Y-69550307D01*
X181451105Y-69550307D01*
X144495476Y-114282380D02*
X144495476Y-114996666D01*
X144447857Y-115139523D01*
X144352619Y-115234761D01*
X144209761Y-115282380D01*
X144114523Y-115282380D01*
X145495476Y-115282380D02*
X144924047Y-115282380D01*
X145209761Y-115282380D02*
X145209761Y-114282380D01*
X145114523Y-114425238D01*
X145019285Y-114520476D01*
X144924047Y-114568095D01*
X146447857Y-115282380D02*
X145876428Y-115282380D01*
X146162142Y-115282380D02*
X146162142Y-114282380D01*
X146066904Y-114425238D01*
X145971666Y-114520476D01*
X145876428Y-114568095D01*
X105227391Y-93132593D02*
X105227391Y-93465926D01*
X105751200Y-93465926D02*
X104751200Y-93465926D01*
X104751200Y-92989736D01*
X105751200Y-92084974D02*
X105751200Y-92656402D01*
X105751200Y-92370688D02*
X104751200Y-92370688D01*
X104894058Y-92465926D01*
X104989296Y-92561164D01*
X105036915Y-92656402D01*
M02*
