G04 #@! TF.GenerationSoftware,KiCad,Pcbnew,(5.1.6-0-10_14)*
G04 #@! TF.CreationDate,2020-05-23T00:01:56+02:00*
G04 #@! TF.ProjectId,arduino_nano_reflow_TRIAC_v1_0,61726475-696e-46f5-9f6e-616e6f5f7265,1.0*
G04 #@! TF.SameCoordinates,Original*
G04 #@! TF.FileFunction,Copper,L2,Bot*
G04 #@! TF.FilePolarity,Positive*
%FSLAX46Y46*%
G04 Gerber Fmt 4.6, Leading zero omitted, Abs format (unit mm)*
G04 Created by KiCad (PCBNEW (5.1.6-0-10_14)) date 2020-05-23 00:01:56*
%MOMM*%
%LPD*%
G01*
G04 APERTURE LIST*
G04 #@! TA.AperFunction,ComponentPad*
%ADD10C,6.400000*%
G04 #@! TD*
G04 #@! TA.AperFunction,ComponentPad*
%ADD11O,2.000000X1.905000*%
G04 #@! TD*
G04 #@! TA.AperFunction,ComponentPad*
%ADD12R,2.000000X1.905000*%
G04 #@! TD*
G04 #@! TA.AperFunction,ComponentPad*
%ADD13O,1.600000X1.600000*%
G04 #@! TD*
G04 #@! TA.AperFunction,ComponentPad*
%ADD14C,1.600000*%
G04 #@! TD*
G04 #@! TA.AperFunction,ComponentPad*
%ADD15C,2.000000*%
G04 #@! TD*
G04 #@! TA.AperFunction,ComponentPad*
%ADD16R,2.000000X2.000000*%
G04 #@! TD*
G04 #@! TA.AperFunction,ComponentPad*
%ADD17R,1.700000X1.700000*%
G04 #@! TD*
G04 #@! TA.AperFunction,ComponentPad*
%ADD18O,1.700000X1.700000*%
G04 #@! TD*
G04 #@! TA.AperFunction,ComponentPad*
%ADD19R,1.800000X1.800000*%
G04 #@! TD*
G04 #@! TA.AperFunction,ComponentPad*
%ADD20O,1.800000X1.800000*%
G04 #@! TD*
G04 #@! TA.AperFunction,ComponentPad*
%ADD21R,2.400000X1.600000*%
G04 #@! TD*
G04 #@! TA.AperFunction,ComponentPad*
%ADD22O,2.400000X1.600000*%
G04 #@! TD*
G04 #@! TA.AperFunction,ComponentPad*
%ADD23C,2.350000*%
G04 #@! TD*
G04 #@! TA.AperFunction,ComponentPad*
%ADD24R,6.000000X3.000000*%
G04 #@! TD*
G04 #@! TA.AperFunction,ComponentPad*
%ADD25O,6.000000X3.000000*%
G04 #@! TD*
G04 #@! TA.AperFunction,ComponentPad*
%ADD26R,3.000000X5.000000*%
G04 #@! TD*
G04 #@! TA.AperFunction,ComponentPad*
%ADD27O,3.000000X5.000000*%
G04 #@! TD*
G04 #@! TA.AperFunction,ComponentPad*
%ADD28O,2.200000X2.200000*%
G04 #@! TD*
G04 #@! TA.AperFunction,ComponentPad*
%ADD29R,1.574800X4.500000*%
G04 #@! TD*
G04 #@! TA.AperFunction,ComponentPad*
%ADD30O,2.000000X4.500000*%
G04 #@! TD*
G04 #@! TA.AperFunction,ViaPad*
%ADD31C,0.600000*%
G04 #@! TD*
G04 #@! TA.AperFunction,Conductor*
%ADD32C,0.750000*%
G04 #@! TD*
G04 #@! TA.AperFunction,Conductor*
%ADD33C,0.500000*%
G04 #@! TD*
G04 #@! TA.AperFunction,Conductor*
%ADD34C,2.000000*%
G04 #@! TD*
G04 #@! TA.AperFunction,Conductor*
%ADD35C,0.200000*%
G04 #@! TD*
G04 APERTURE END LIST*
D10*
X196493140Y-72990980D03*
X136493140Y-72990980D03*
X136493140Y-112990980D03*
X196493140Y-112990980D03*
D11*
X189372820Y-78210000D03*
X189372820Y-75670000D03*
D12*
X189372820Y-73130000D03*
D13*
X128160000Y-96625000D03*
D14*
X128160000Y-104245000D03*
D13*
X131335000Y-99165000D03*
D14*
X131335000Y-106785000D03*
D15*
X157370000Y-73150000D03*
D16*
X157370000Y-80750000D03*
D17*
X180865000Y-108690000D03*
D18*
X183405000Y-108690000D03*
X185945000Y-108690000D03*
X188485000Y-108690000D03*
X191025000Y-108690000D03*
D17*
X147845000Y-81385000D03*
D18*
X145305000Y-81385000D03*
D17*
X189755000Y-115040000D03*
D18*
X187215000Y-115040000D03*
X184675000Y-115040000D03*
X182135000Y-115040000D03*
X179595000Y-115040000D03*
X177055000Y-115040000D03*
X174515000Y-115040000D03*
X171975000Y-115040000D03*
X169435000Y-115040000D03*
X166895000Y-115040000D03*
X164355000Y-115040000D03*
X161815000Y-115040000D03*
X159275000Y-115040000D03*
X156735000Y-115040000D03*
X154195000Y-115040000D03*
X151655000Y-115040000D03*
X149115000Y-115040000D03*
D19*
X177818820Y-75670000D03*
D20*
X182898820Y-75670000D03*
D17*
X165625000Y-70590000D03*
D18*
X168165000Y-70590000D03*
X170705000Y-70590000D03*
D17*
X165625000Y-78210000D03*
D18*
X168165000Y-78210000D03*
X170705000Y-78210000D03*
D17*
X165625000Y-75670000D03*
D18*
X168165000Y-75670000D03*
X170705000Y-75670000D03*
D17*
X165625000Y-73130000D03*
D18*
X168165000Y-73130000D03*
X170705000Y-73130000D03*
D17*
X182006820Y-71971260D03*
D18*
X179466820Y-71971260D03*
D14*
X124985000Y-96625000D03*
D13*
X124985000Y-104245000D03*
D14*
X124985000Y-83925000D03*
X124985000Y-88925000D03*
X124718820Y-92749260D03*
D13*
X132338820Y-92749260D03*
D17*
X145305000Y-112500000D03*
D18*
X145305000Y-109960000D03*
X145305000Y-107420000D03*
D21*
X135145000Y-96625000D03*
D22*
X142765000Y-101705000D03*
X135145000Y-99165000D03*
X142765000Y-99165000D03*
X135145000Y-101705000D03*
X142765000Y-96625000D03*
D21*
X142765000Y-91545000D03*
D22*
X135145000Y-86465000D03*
X142765000Y-89005000D03*
X135145000Y-89005000D03*
X142765000Y-86465000D03*
X135145000Y-91545000D03*
D23*
X104663820Y-97639260D03*
X104663820Y-102639260D03*
X104663820Y-87639260D03*
X104663820Y-82639260D03*
D24*
X111013820Y-110579260D03*
D25*
X111013820Y-115579260D03*
D24*
X111013820Y-70574260D03*
D25*
X111013820Y-75574260D03*
D26*
X147818820Y-74099260D03*
D27*
X142818820Y-74099260D03*
D16*
X114823820Y-90259260D03*
D28*
X111648820Y-92799260D03*
X114823820Y-95339260D03*
D29*
X147845000Y-102805000D03*
D30*
X150385000Y-102805000D03*
X152925000Y-102805000D03*
X155465000Y-102805000D03*
X158005000Y-102805000D03*
X160545000Y-102805000D03*
X163085000Y-102805000D03*
X165625000Y-102805000D03*
X168165000Y-102805000D03*
X170705000Y-102805000D03*
X173245000Y-102805000D03*
X175785000Y-102805000D03*
X178325000Y-102805000D03*
X180865000Y-102805000D03*
X183405000Y-102805000D03*
X183405000Y-85365000D03*
X180865000Y-85365000D03*
X178325000Y-85365000D03*
X175785000Y-85365000D03*
X173245000Y-85365000D03*
X170705000Y-85365000D03*
X168165000Y-85365000D03*
X165625000Y-85365000D03*
X163085000Y-85365000D03*
X160545000Y-85365000D03*
X158005000Y-85365000D03*
X155465000Y-85365000D03*
X152925000Y-85365000D03*
X150385000Y-85365000D03*
X147845000Y-85365000D03*
D31*
X140604820Y-70447260D03*
X152833140Y-94725980D03*
X175785000Y-70590000D03*
D32*
X144814020Y-112990980D02*
X145305000Y-112500000D01*
X136493140Y-112990980D02*
X144814020Y-112990980D01*
D33*
X171975000Y-115040000D02*
X169435000Y-115040000D01*
X171975000Y-111230000D02*
X171975000Y-115040000D01*
X180865000Y-101705000D02*
X180865000Y-104880000D01*
X180865000Y-104880000D02*
X171975000Y-111230000D01*
X150385000Y-101705000D02*
X150385000Y-107420000D01*
X150385000Y-107420000D02*
X147845000Y-109960000D01*
X147845000Y-109960000D02*
X145305000Y-109960000D01*
X147845000Y-105515000D02*
X145940000Y-107420000D01*
X147845000Y-101705000D02*
X147845000Y-105515000D01*
X158005000Y-99800000D02*
X158005000Y-101705000D01*
X142765000Y-99165000D02*
X144780000Y-99060000D01*
X144780000Y-99060000D02*
X145940000Y-97260000D01*
X145940000Y-97260000D02*
X155465000Y-97260000D01*
X155465000Y-97260000D02*
X158005000Y-99800000D01*
X159275000Y-112500000D02*
X159275000Y-115040000D01*
X170705000Y-101705000D02*
X170705000Y-104880000D01*
X170705000Y-104880000D02*
X159275000Y-112500000D01*
X161815000Y-112500000D02*
X161815000Y-115040000D01*
X173245000Y-101705000D02*
X173245000Y-104880000D01*
X173245000Y-104880000D02*
X161815000Y-112500000D01*
X164355000Y-112500000D02*
X164355000Y-115040000D01*
X175785000Y-101705000D02*
X175785000Y-104880000D01*
X175785000Y-104880000D02*
X164355000Y-112500000D01*
X178325000Y-101705000D02*
X178325000Y-104880000D01*
X178325000Y-104880000D02*
X166895000Y-112500000D01*
X166895000Y-112500000D02*
X166895000Y-115040000D01*
X180865000Y-108690000D02*
X178960000Y-108690000D01*
X174515000Y-111865000D02*
X174515000Y-115040000D01*
X178960000Y-108690000D02*
X174515000Y-111865000D01*
X183405000Y-104880000D02*
X180865000Y-106785000D01*
X180865000Y-106785000D02*
X180865000Y-108690000D01*
X174515000Y-113930000D02*
X174515000Y-115040000D01*
X183405000Y-101705000D02*
X183405000Y-104880000D01*
D32*
X155465000Y-86465000D02*
X155465000Y-83290000D01*
X155465000Y-83290000D02*
X153560000Y-82020000D01*
X153560000Y-82020000D02*
X153560000Y-78845000D01*
X153560000Y-78845000D02*
X156735000Y-75670000D01*
X176049584Y-80115000D02*
X171975000Y-75670000D01*
X176049584Y-80115000D02*
X185945000Y-80115000D01*
X188485000Y-82655000D02*
X185945000Y-80115000D01*
X171975000Y-75670000D02*
X171340000Y-75670000D01*
X171340000Y-75670000D02*
X170705000Y-75670000D01*
X170705000Y-75670000D02*
X168165000Y-75670000D01*
X168165000Y-75670000D02*
X165625000Y-75670000D01*
X156735000Y-75670000D02*
X165625000Y-75670000D01*
X188485000Y-82655000D02*
X188485000Y-103610000D01*
X188485000Y-103610000D02*
X188485000Y-108690000D01*
X188485000Y-108690000D02*
X188485000Y-111230000D01*
X184675000Y-113770000D02*
X184675000Y-115040000D01*
X186580000Y-111865000D02*
X184675000Y-113770000D01*
X187850000Y-111865000D02*
X186580000Y-111865000D01*
X188485000Y-111230000D02*
X187850000Y-111865000D01*
X184675000Y-115040000D02*
X182135000Y-115040000D01*
X170705000Y-70590000D02*
X171975000Y-70590000D01*
X171975000Y-70590000D02*
X174515000Y-73130000D01*
X174515000Y-73130000D02*
X178325000Y-73130000D01*
X170705000Y-70590000D02*
X168165000Y-70590000D01*
X168165000Y-70590000D02*
X165625000Y-70590000D01*
X178325000Y-75670000D02*
X178325000Y-73130000D01*
X178325000Y-73130000D02*
X179595000Y-72495000D01*
X142845000Y-74400000D02*
X142765000Y-79480000D01*
X142765000Y-79480000D02*
X144670000Y-81385000D01*
X163069260Y-69939260D02*
X163720000Y-70590000D01*
X144685740Y-69939260D02*
X163069260Y-69939260D01*
X163720000Y-70590000D02*
X165625000Y-70590000D01*
X142765000Y-71860000D02*
X144685740Y-69939260D01*
X142800000Y-74375000D02*
X142765000Y-71860000D01*
D33*
X185310000Y-99800000D02*
X173245000Y-87735000D01*
X185310000Y-99800000D02*
X185310000Y-105515000D01*
X183405000Y-106785000D02*
X185310000Y-105515000D01*
X173245000Y-87735000D02*
X173245000Y-86465000D01*
X183405000Y-108690000D02*
X183405000Y-106785000D01*
X185945000Y-108690000D02*
X185945000Y-106785000D01*
X185945000Y-106785000D02*
X186580000Y-106150000D01*
X186580000Y-106150000D02*
X186580000Y-98530000D01*
X180865000Y-111865000D02*
X179595000Y-113135000D01*
X179595000Y-113135000D02*
X179595000Y-115040000D01*
X179595000Y-115040000D02*
X177055000Y-115040000D01*
X184040000Y-111865000D02*
X180865000Y-111865000D01*
X185945000Y-108690000D02*
X185945000Y-109960000D01*
X185945000Y-109960000D02*
X184040000Y-111865000D01*
X183405000Y-95355000D02*
X183405000Y-86465000D01*
X186580000Y-98530000D02*
X183405000Y-95355000D01*
X175785000Y-86465000D02*
X175785000Y-83290000D01*
D32*
X182898820Y-75670000D02*
X189372820Y-75670000D01*
X147845000Y-86465000D02*
X147845000Y-81385000D01*
D33*
X151655000Y-112500000D02*
X151655000Y-113135000D01*
X163085000Y-104880000D02*
X151655000Y-112500000D01*
X163085000Y-101705000D02*
X163085000Y-104880000D01*
X151655000Y-113135000D02*
X151655000Y-115040000D01*
X154195000Y-112500000D02*
X154195000Y-113135000D01*
X165625000Y-104880000D02*
X154195000Y-112500000D01*
X165625000Y-101705000D02*
X165625000Y-104880000D01*
X154195000Y-113135000D02*
X154195000Y-115040000D01*
X156735000Y-112500000D02*
X156735000Y-113135000D01*
X168165000Y-104880000D02*
X156735000Y-112500000D01*
X168165000Y-101705000D02*
X168165000Y-104880000D01*
X156735000Y-113135000D02*
X156735000Y-115040000D01*
D32*
X135145000Y-86465000D02*
X122443199Y-86450009D01*
X122443199Y-86450009D02*
X119903820Y-89511689D01*
X119903820Y-89511689D02*
X119903820Y-92799260D01*
X119903820Y-92799260D02*
X117363820Y-95339260D01*
X117363820Y-95339260D02*
X114823820Y-95339260D01*
X135145000Y-96625000D02*
X128795000Y-96625000D01*
D33*
X142765000Y-91545000D02*
X145943140Y-94725980D01*
X145943140Y-94725980D02*
X152833140Y-94725980D01*
X170705000Y-86465000D02*
X170705000Y-83925000D01*
X170705000Y-83925000D02*
X170705000Y-78210000D01*
X168165000Y-83290000D02*
X168165000Y-78210000D01*
X168165000Y-86465000D02*
X168165000Y-83290000D01*
X165625000Y-78845000D02*
X165625000Y-78210000D01*
X165625000Y-86465000D02*
X165625000Y-78845000D01*
X157370000Y-80750000D02*
X161815000Y-80750000D01*
X163085000Y-82020000D02*
X161815000Y-80750000D01*
X163085000Y-82020000D02*
X163085000Y-86465000D01*
D34*
X114823820Y-87084260D02*
X114823820Y-90259260D01*
X114825000Y-70590000D02*
X111013820Y-70574260D01*
X117998820Y-83909260D02*
X114823820Y-87084260D01*
X118038820Y-83909260D02*
X117998820Y-83909260D01*
X118038820Y-83909260D02*
X118002362Y-73767362D01*
X114825000Y-70590000D02*
X118002362Y-73767362D01*
X118038820Y-83909260D02*
X118038820Y-83274260D01*
X118038820Y-83274260D02*
X118038820Y-83909260D01*
D32*
X124985000Y-83925000D02*
X117998820Y-83909260D01*
D34*
X109745000Y-104245000D02*
X109743820Y-92799260D01*
X109743820Y-92799260D02*
X111648820Y-92799260D01*
D32*
X128160000Y-104245000D02*
X124985000Y-104245000D01*
X124985000Y-104245000D02*
X109745000Y-104245000D01*
D34*
X109745000Y-104245000D02*
X109743820Y-109944260D01*
X109743820Y-109944260D02*
X109872000Y-109833000D01*
D33*
X189215000Y-73670000D02*
X189755000Y-73130000D01*
X187980000Y-69955000D02*
X189755000Y-71730000D01*
X176420000Y-69955000D02*
X187980000Y-69955000D01*
X189755000Y-71730000D02*
X189755000Y-73130000D01*
X175785000Y-70590000D02*
X176420000Y-69955000D01*
D34*
X106568820Y-115659260D02*
X111013820Y-115659260D01*
X104792000Y-113516000D02*
X104792000Y-102324260D01*
X104792000Y-102324260D02*
X104792000Y-97990980D01*
X104792000Y-113516000D02*
X106568820Y-115659260D01*
X104663820Y-87719260D02*
X104663820Y-82639260D01*
X104663820Y-82639260D02*
X104663820Y-78194260D01*
X104663820Y-78194260D02*
X106570000Y-75670000D01*
X106570000Y-75670000D02*
X110378820Y-75654260D01*
D35*
G36*
X141868488Y-70670548D02*
G01*
X141819030Y-70685551D01*
X141367349Y-70926979D01*
X140971448Y-71251887D01*
X140646539Y-71647788D01*
X140405111Y-72099469D01*
X140256440Y-72589571D01*
X140218820Y-72971533D01*
X140218820Y-75226986D01*
X140256440Y-75608948D01*
X140405111Y-76099050D01*
X140646539Y-76550731D01*
X140971447Y-76946633D01*
X141325142Y-77236903D01*
X141291141Y-79395966D01*
X141282865Y-79480000D01*
X141295968Y-79613046D01*
X141306971Y-79746224D01*
X141310194Y-79757485D01*
X141311343Y-79769150D01*
X141350151Y-79897084D01*
X141386924Y-80025557D01*
X141392284Y-80035976D01*
X141395685Y-80047188D01*
X141458673Y-80165030D01*
X141519836Y-80283924D01*
X141527130Y-80293102D01*
X141532650Y-80303430D01*
X141617432Y-80406738D01*
X141700600Y-80511395D01*
X141765016Y-80565980D01*
X143678248Y-82479213D01*
X143706229Y-82502176D01*
X143790336Y-82628052D01*
X144061948Y-82899664D01*
X144381329Y-83113067D01*
X144736206Y-83260062D01*
X145112942Y-83335000D01*
X145497058Y-83335000D01*
X145873794Y-83260062D01*
X145934178Y-83235050D01*
X145895465Y-83307477D01*
X145775385Y-83703329D01*
X145745000Y-84011834D01*
X145745000Y-86718167D01*
X145775386Y-87026672D01*
X145895466Y-87422524D01*
X146090466Y-87787343D01*
X146352892Y-88107109D01*
X146672658Y-88369535D01*
X147037477Y-88564535D01*
X147433329Y-88684615D01*
X147845000Y-88725161D01*
X148256672Y-88684615D01*
X148652524Y-88564535D01*
X149017343Y-88369535D01*
X149337109Y-88107109D01*
X149545116Y-87853652D01*
X149634792Y-87917761D01*
X149903363Y-88039087D01*
X150052101Y-88077593D01*
X150285000Y-87986359D01*
X150285000Y-85465000D01*
X150265000Y-85465000D01*
X150265000Y-85265000D01*
X150285000Y-85265000D01*
X150285000Y-82743641D01*
X150052101Y-82652407D01*
X149903363Y-82690913D01*
X149634792Y-82812239D01*
X149633083Y-82813461D01*
X149716184Y-82657988D01*
X149779084Y-82450638D01*
X149800322Y-82235000D01*
X149800322Y-80535000D01*
X149779084Y-80319362D01*
X149716184Y-80112012D01*
X149614042Y-79920916D01*
X149476581Y-79753419D01*
X149309084Y-79615958D01*
X149117988Y-79513816D01*
X148910638Y-79450916D01*
X148695000Y-79429678D01*
X146995000Y-79429678D01*
X146779362Y-79450916D01*
X146572012Y-79513816D01*
X146380916Y-79615958D01*
X146285069Y-79694617D01*
X146228671Y-79656933D01*
X145873794Y-79509938D01*
X145497058Y-79435000D01*
X145112942Y-79435000D01*
X144856896Y-79485931D01*
X144249652Y-78878688D01*
X144275022Y-77267658D01*
X144666193Y-76946633D01*
X144951275Y-76599260D01*
X145816401Y-76599260D01*
X145826055Y-76697277D01*
X145854645Y-76791527D01*
X145901074Y-76878389D01*
X145963556Y-76954524D01*
X146039691Y-77017006D01*
X146126553Y-77063435D01*
X146220803Y-77092025D01*
X146318820Y-77101679D01*
X147593820Y-77099260D01*
X147718820Y-76974260D01*
X147718820Y-74199260D01*
X147918820Y-74199260D01*
X147918820Y-76974260D01*
X148043820Y-77099260D01*
X149318820Y-77101679D01*
X149416837Y-77092025D01*
X149511087Y-77063435D01*
X149597949Y-77017006D01*
X149674084Y-76954524D01*
X149736566Y-76878389D01*
X149782995Y-76791527D01*
X149811585Y-76697277D01*
X149821239Y-76599260D01*
X149818820Y-74324260D01*
X149693820Y-74199260D01*
X147918820Y-74199260D01*
X147718820Y-74199260D01*
X145943820Y-74199260D01*
X145818820Y-74324260D01*
X145816401Y-76599260D01*
X144951275Y-76599260D01*
X144991101Y-76550732D01*
X145232529Y-76099051D01*
X145381200Y-75608949D01*
X145418820Y-75226987D01*
X145418820Y-72971533D01*
X145381200Y-72589571D01*
X145232529Y-72099469D01*
X145016207Y-71694758D01*
X145296705Y-71414260D01*
X145852441Y-71414260D01*
X145826055Y-71501243D01*
X145816401Y-71599260D01*
X145818820Y-73874260D01*
X145943820Y-73999260D01*
X147718820Y-73999260D01*
X147718820Y-73979260D01*
X147918820Y-73979260D01*
X147918820Y-73999260D01*
X149693820Y-73999260D01*
X149818820Y-73874260D01*
X149819546Y-73190879D01*
X155863297Y-73190879D01*
X155900223Y-73484037D01*
X155993631Y-73764358D01*
X156094511Y-73953091D01*
X156324446Y-74054132D01*
X157228579Y-73150000D01*
X156324446Y-72245868D01*
X156094511Y-72346909D01*
X155962344Y-72611176D01*
X155884272Y-72896150D01*
X155863297Y-73190879D01*
X149819546Y-73190879D01*
X149820701Y-72104446D01*
X156465868Y-72104446D01*
X157370000Y-73008579D01*
X158274132Y-72104446D01*
X158173091Y-71874511D01*
X157908824Y-71742344D01*
X157623850Y-71664272D01*
X157329121Y-71643297D01*
X157035963Y-71680223D01*
X156755642Y-71773631D01*
X156566909Y-71874511D01*
X156465868Y-72104446D01*
X149820701Y-72104446D01*
X149821239Y-71599260D01*
X149811585Y-71501243D01*
X149785199Y-71414260D01*
X162458296Y-71414260D01*
X162625784Y-71581748D01*
X162671972Y-71638028D01*
X162896569Y-71822351D01*
X163152811Y-71959315D01*
X163366137Y-72024027D01*
X163430849Y-72043657D01*
X163461279Y-72046654D01*
X163647548Y-72065000D01*
X163647554Y-72065000D01*
X163719999Y-72072135D01*
X163792444Y-72065000D01*
X163864917Y-72065000D01*
X163993419Y-72221581D01*
X164160916Y-72359042D01*
X164273119Y-72419015D01*
X164275000Y-72905000D01*
X164400000Y-73030000D01*
X165525000Y-73030000D01*
X165525000Y-73010000D01*
X165725000Y-73010000D01*
X165725000Y-73030000D01*
X166850000Y-73030000D01*
X166914932Y-72965068D01*
X166943705Y-73030000D01*
X168065000Y-73030000D01*
X168065000Y-73010000D01*
X168265000Y-73010000D01*
X168265000Y-73030000D01*
X169386295Y-73030000D01*
X169435000Y-72920089D01*
X169483705Y-73030000D01*
X170605000Y-73030000D01*
X170605000Y-73010000D01*
X170805000Y-73010000D01*
X170805000Y-73030000D01*
X171926295Y-73030000D01*
X172019076Y-72820624D01*
X171966832Y-72667796D01*
X173420788Y-74121753D01*
X173466972Y-74178028D01*
X173523247Y-74224212D01*
X173523248Y-74224213D01*
X173613326Y-74298138D01*
X173691569Y-74362351D01*
X173947811Y-74499315D01*
X174129277Y-74554362D01*
X174225849Y-74583657D01*
X174256279Y-74586654D01*
X174442548Y-74605000D01*
X174442554Y-74605000D01*
X174514999Y-74612135D01*
X174587444Y-74605000D01*
X175829749Y-74605000D01*
X175813498Y-74770000D01*
X175813498Y-76570000D01*
X175834736Y-76785638D01*
X175897636Y-76992988D01*
X175999778Y-77184084D01*
X176137239Y-77351581D01*
X176304736Y-77489042D01*
X176495832Y-77591184D01*
X176703182Y-77654084D01*
X176918820Y-77675322D01*
X178718820Y-77675322D01*
X178934458Y-77654084D01*
X179141808Y-77591184D01*
X179332904Y-77489042D01*
X179500401Y-77351581D01*
X179637862Y-77184084D01*
X179740004Y-76992988D01*
X179802904Y-76785638D01*
X179824142Y-76570000D01*
X179824142Y-74770000D01*
X179802904Y-74554362D01*
X179800000Y-74544789D01*
X179800000Y-74041599D01*
X180319442Y-73781878D01*
X180474478Y-73684284D01*
X180542736Y-73740302D01*
X180733832Y-73842444D01*
X180941182Y-73905344D01*
X181156820Y-73926582D01*
X181908125Y-73926582D01*
X181623894Y-74116499D01*
X181345319Y-74395074D01*
X181126443Y-74722645D01*
X180975679Y-75086622D01*
X180898820Y-75473017D01*
X180898820Y-75866983D01*
X180975679Y-76253378D01*
X181126443Y-76617355D01*
X181345319Y-76944926D01*
X181623894Y-77223501D01*
X181951465Y-77442377D01*
X182315442Y-77593141D01*
X182701837Y-77670000D01*
X183095803Y-77670000D01*
X183482198Y-77593141D01*
X183846175Y-77442377D01*
X184173746Y-77223501D01*
X184252247Y-77145000D01*
X187887238Y-77145000D01*
X188151874Y-77362181D01*
X188120825Y-77399777D01*
X187985902Y-77650331D01*
X187909750Y-77884549D01*
X188001592Y-78110000D01*
X189272820Y-78110000D01*
X189272820Y-78090000D01*
X189472820Y-78090000D01*
X189472820Y-78110000D01*
X190744048Y-78110000D01*
X190835890Y-77884549D01*
X190759738Y-77650331D01*
X190624815Y-77399777D01*
X190593766Y-77362181D01*
X190878679Y-77128359D01*
X191135169Y-76815825D01*
X191325758Y-76459258D01*
X191443122Y-76072360D01*
X191482751Y-75670000D01*
X191475982Y-75601272D01*
X194024269Y-75601272D01*
X194389504Y-76056518D01*
X195027982Y-76408013D01*
X195722764Y-76628194D01*
X196447152Y-76708599D01*
X197173307Y-76646137D01*
X197873323Y-76443211D01*
X198520301Y-76107617D01*
X198596776Y-76056518D01*
X198962011Y-75601272D01*
X196493140Y-73132401D01*
X194024269Y-75601272D01*
X191475982Y-75601272D01*
X191443122Y-75267640D01*
X191325758Y-74880742D01*
X191252779Y-74744207D01*
X191291862Y-74696584D01*
X191394004Y-74505488D01*
X191456904Y-74298138D01*
X191478142Y-74082500D01*
X191478142Y-72944992D01*
X192775521Y-72944992D01*
X192837983Y-73671147D01*
X193040909Y-74371163D01*
X193376503Y-75018141D01*
X193427602Y-75094616D01*
X193882848Y-75459851D01*
X196351719Y-72990980D01*
X193882848Y-70522109D01*
X193427602Y-70887344D01*
X193076107Y-71525822D01*
X192855926Y-72220604D01*
X192775521Y-72944992D01*
X191478142Y-72944992D01*
X191478142Y-72177500D01*
X191456904Y-71961862D01*
X191394004Y-71754512D01*
X191291862Y-71563416D01*
X191154401Y-71395919D01*
X191034572Y-71297578D01*
X191008272Y-71210878D01*
X190939875Y-71082915D01*
X190882915Y-70976350D01*
X190756490Y-70822301D01*
X190756483Y-70822294D01*
X190714212Y-70770787D01*
X190662706Y-70728517D01*
X190314877Y-70380688D01*
X194024269Y-70380688D01*
X196493140Y-72849559D01*
X198962011Y-70380688D01*
X198596776Y-69925442D01*
X197958298Y-69573947D01*
X197263516Y-69353766D01*
X196539128Y-69273361D01*
X195812973Y-69335823D01*
X195112957Y-69538749D01*
X194465979Y-69874343D01*
X194389504Y-69925442D01*
X194024269Y-70380688D01*
X190314877Y-70380688D01*
X189109188Y-69175000D01*
X198013300Y-69175000D01*
X199325001Y-70486702D01*
X199325001Y-70699869D01*
X199103432Y-70522109D01*
X196634561Y-72990980D01*
X199103432Y-75459851D01*
X199325001Y-75282091D01*
X199325000Y-110699869D01*
X199103432Y-110522109D01*
X196634561Y-112990980D01*
X199103432Y-115459851D01*
X199325000Y-115282091D01*
X199325000Y-115513299D01*
X198013300Y-116825000D01*
X185461223Y-116825000D01*
X185598671Y-116768067D01*
X185918052Y-116554664D01*
X186189664Y-116283052D01*
X186338152Y-116060823D01*
X186504570Y-116187954D01*
X186742175Y-116304494D01*
X186905625Y-116354072D01*
X187115000Y-116260912D01*
X187115000Y-115140000D01*
X187315000Y-115140000D01*
X187315000Y-116260912D01*
X187524375Y-116354072D01*
X187687825Y-116304494D01*
X187925430Y-116187954D01*
X188135734Y-116027298D01*
X188310655Y-115828701D01*
X188403437Y-115668791D01*
X188402581Y-115890000D01*
X188412235Y-115988017D01*
X188440825Y-116082267D01*
X188487254Y-116169129D01*
X188549736Y-116245264D01*
X188625871Y-116307746D01*
X188712733Y-116354175D01*
X188806983Y-116382765D01*
X188905000Y-116392419D01*
X189530000Y-116390000D01*
X189655000Y-116265000D01*
X189655000Y-115140000D01*
X189855000Y-115140000D01*
X189855000Y-116265000D01*
X189980000Y-116390000D01*
X190605000Y-116392419D01*
X190703017Y-116382765D01*
X190797267Y-116354175D01*
X190884129Y-116307746D01*
X190960264Y-116245264D01*
X191022746Y-116169129D01*
X191069175Y-116082267D01*
X191097765Y-115988017D01*
X191107419Y-115890000D01*
X191106302Y-115601272D01*
X194024269Y-115601272D01*
X194389504Y-116056518D01*
X195027982Y-116408013D01*
X195722764Y-116628194D01*
X196447152Y-116708599D01*
X197173307Y-116646137D01*
X197873323Y-116443211D01*
X198520301Y-116107617D01*
X198596776Y-116056518D01*
X198962011Y-115601272D01*
X196493140Y-113132401D01*
X194024269Y-115601272D01*
X191106302Y-115601272D01*
X191105000Y-115265000D01*
X190980000Y-115140000D01*
X189855000Y-115140000D01*
X189655000Y-115140000D01*
X188530000Y-115140000D01*
X188465068Y-115204932D01*
X188436295Y-115140000D01*
X187315000Y-115140000D01*
X187115000Y-115140000D01*
X187095000Y-115140000D01*
X187095000Y-114940000D01*
X187115000Y-114940000D01*
X187115000Y-113819088D01*
X187315000Y-113819088D01*
X187315000Y-114940000D01*
X188436295Y-114940000D01*
X188465068Y-114875068D01*
X188530000Y-114940000D01*
X189655000Y-114940000D01*
X189655000Y-113815000D01*
X189855000Y-113815000D01*
X189855000Y-114940000D01*
X190980000Y-114940000D01*
X191105000Y-114815000D01*
X191107419Y-114190000D01*
X191097765Y-114091983D01*
X191069175Y-113997733D01*
X191022746Y-113910871D01*
X190960264Y-113834736D01*
X190884129Y-113772254D01*
X190797267Y-113725825D01*
X190703017Y-113697235D01*
X190605000Y-113687581D01*
X189980000Y-113690000D01*
X189855000Y-113815000D01*
X189655000Y-113815000D01*
X189530000Y-113690000D01*
X188905000Y-113687581D01*
X188806983Y-113697235D01*
X188712733Y-113725825D01*
X188625871Y-113772254D01*
X188549736Y-113834736D01*
X188487254Y-113910871D01*
X188440825Y-113997733D01*
X188412235Y-114091983D01*
X188402581Y-114190000D01*
X188403437Y-114411209D01*
X188310655Y-114251299D01*
X188135734Y-114052702D01*
X187925430Y-113892046D01*
X187687825Y-113775506D01*
X187524375Y-113725928D01*
X187315000Y-113819088D01*
X187115000Y-113819088D01*
X186905625Y-113725928D01*
X186761242Y-113769723D01*
X187190965Y-113340000D01*
X187777555Y-113340000D01*
X187850000Y-113347135D01*
X187922445Y-113340000D01*
X187922452Y-113340000D01*
X188139150Y-113318657D01*
X188417189Y-113234315D01*
X188673431Y-113097351D01*
X188859079Y-112944992D01*
X192775521Y-112944992D01*
X192837983Y-113671147D01*
X193040909Y-114371163D01*
X193376503Y-115018141D01*
X193427602Y-115094616D01*
X193882848Y-115459851D01*
X196351719Y-112990980D01*
X193882848Y-110522109D01*
X193427602Y-110887344D01*
X193076107Y-111525822D01*
X192855926Y-112220604D01*
X192775521Y-112944992D01*
X188859079Y-112944992D01*
X188898028Y-112913028D01*
X188944216Y-112856748D01*
X189476748Y-112324216D01*
X189533028Y-112278028D01*
X189717351Y-112053431D01*
X189854315Y-111797189D01*
X189938657Y-111519150D01*
X189960000Y-111302452D01*
X189960000Y-111302445D01*
X189967135Y-111230000D01*
X189960000Y-111157555D01*
X189960000Y-110380688D01*
X194024269Y-110380688D01*
X196493140Y-112849559D01*
X198962011Y-110380688D01*
X198596776Y-109925442D01*
X197958298Y-109573947D01*
X197263516Y-109353766D01*
X196539128Y-109273361D01*
X195812973Y-109335823D01*
X195112957Y-109538749D01*
X194465979Y-109874343D01*
X194389504Y-109925442D01*
X194024269Y-110380688D01*
X189960000Y-110380688D01*
X189960000Y-109972716D01*
X189999664Y-109933052D01*
X190148152Y-109710823D01*
X190314570Y-109837954D01*
X190552175Y-109954494D01*
X190715625Y-110004072D01*
X190925000Y-109910912D01*
X190925000Y-108790000D01*
X191125000Y-108790000D01*
X191125000Y-109910912D01*
X191334375Y-110004072D01*
X191497825Y-109954494D01*
X191735430Y-109837954D01*
X191945734Y-109677298D01*
X192120655Y-109478701D01*
X192253470Y-109249795D01*
X192339076Y-108999376D01*
X192246295Y-108790000D01*
X191125000Y-108790000D01*
X190925000Y-108790000D01*
X190905000Y-108790000D01*
X190905000Y-108590000D01*
X190925000Y-108590000D01*
X190925000Y-107469088D01*
X191125000Y-107469088D01*
X191125000Y-108590000D01*
X192246295Y-108590000D01*
X192339076Y-108380624D01*
X192253470Y-108130205D01*
X192120655Y-107901299D01*
X191945734Y-107702702D01*
X191735430Y-107542046D01*
X191497825Y-107425506D01*
X191334375Y-107375928D01*
X191125000Y-107469088D01*
X190925000Y-107469088D01*
X190715625Y-107375928D01*
X190552175Y-107425506D01*
X190314570Y-107542046D01*
X190148152Y-107669177D01*
X189999664Y-107446948D01*
X189960000Y-107407284D01*
X189960000Y-82727444D01*
X189967135Y-82654999D01*
X189960000Y-82582554D01*
X189960000Y-82582548D01*
X189938657Y-82365850D01*
X189938122Y-82364084D01*
X189877871Y-82165465D01*
X189854315Y-82087811D01*
X189717351Y-81831569D01*
X189654803Y-81755355D01*
X189579213Y-81663248D01*
X189579208Y-81663243D01*
X189533027Y-81606972D01*
X189476758Y-81560793D01*
X187039216Y-79123252D01*
X186993028Y-79066972D01*
X186768431Y-78882649D01*
X186512189Y-78745685D01*
X186234150Y-78661343D01*
X186017452Y-78640000D01*
X186017445Y-78640000D01*
X185945000Y-78632865D01*
X185872555Y-78640000D01*
X176698438Y-78640000D01*
X176602602Y-78535451D01*
X187909750Y-78535451D01*
X187985902Y-78769669D01*
X188120825Y-79020223D01*
X188302036Y-79239640D01*
X188522571Y-79419489D01*
X188773955Y-79552858D01*
X189046528Y-79634621D01*
X189272820Y-79535694D01*
X189272820Y-78310000D01*
X189472820Y-78310000D01*
X189472820Y-79535694D01*
X189699112Y-79634621D01*
X189971685Y-79552858D01*
X190223069Y-79419489D01*
X190443604Y-79239640D01*
X190624815Y-79020223D01*
X190759738Y-78769669D01*
X190835890Y-78535451D01*
X190744048Y-78310000D01*
X189472820Y-78310000D01*
X189272820Y-78310000D01*
X188001592Y-78310000D01*
X187909750Y-78535451D01*
X176602602Y-78535451D01*
X173089573Y-74703057D01*
X173023028Y-74621972D01*
X172935499Y-74550138D01*
X172851183Y-74474580D01*
X172823396Y-74458137D01*
X172798431Y-74437649D01*
X172698559Y-74384266D01*
X172601132Y-74326615D01*
X172570672Y-74315910D01*
X172542189Y-74300685D01*
X172433827Y-74267814D01*
X172327019Y-74230275D01*
X172295053Y-74225717D01*
X172264150Y-74216343D01*
X172151454Y-74205243D01*
X172039379Y-74189264D01*
X171984961Y-74192245D01*
X171948052Y-74155336D01*
X171724056Y-74005667D01*
X171800655Y-73918701D01*
X171933470Y-73689795D01*
X172019076Y-73439376D01*
X171926295Y-73230000D01*
X170805000Y-73230000D01*
X170805000Y-73250000D01*
X170605000Y-73250000D01*
X170605000Y-73230000D01*
X169483705Y-73230000D01*
X169435000Y-73339911D01*
X169386295Y-73230000D01*
X168265000Y-73230000D01*
X168265000Y-73250000D01*
X168065000Y-73250000D01*
X168065000Y-73230000D01*
X166943705Y-73230000D01*
X166914932Y-73294932D01*
X166850000Y-73230000D01*
X165725000Y-73230000D01*
X165725000Y-73250000D01*
X165525000Y-73250000D01*
X165525000Y-73230000D01*
X164400000Y-73230000D01*
X164275000Y-73355000D01*
X164273119Y-73840985D01*
X164160916Y-73900958D01*
X163993419Y-74038419D01*
X163864917Y-74195000D01*
X158455900Y-74195000D01*
X158506162Y-74144738D01*
X158415555Y-74054131D01*
X158645489Y-73953091D01*
X158777656Y-73688824D01*
X158855728Y-73403850D01*
X158876703Y-73109121D01*
X158839777Y-72815963D01*
X158746369Y-72535642D01*
X158645489Y-72346909D01*
X158415554Y-72245868D01*
X157511421Y-73150000D01*
X157525564Y-73164142D01*
X157384142Y-73305564D01*
X157370000Y-73291421D01*
X156465868Y-74195554D01*
X156473794Y-74213591D01*
X156445849Y-74216343D01*
X156308805Y-74257915D01*
X156167811Y-74300685D01*
X155911569Y-74437649D01*
X155686972Y-74621972D01*
X155640788Y-74678247D01*
X152568248Y-77750788D01*
X152511973Y-77796972D01*
X152327650Y-78021569D01*
X152290351Y-78091351D01*
X152190685Y-78277812D01*
X152106343Y-78555850D01*
X152077865Y-78845000D01*
X152085001Y-78917455D01*
X152085000Y-81948323D01*
X152077865Y-82021550D01*
X152092145Y-82164991D01*
X152093456Y-82178304D01*
X151752657Y-82360465D01*
X151432891Y-82622891D01*
X151224884Y-82876348D01*
X151135208Y-82812239D01*
X150866637Y-82690913D01*
X150717899Y-82652407D01*
X150485000Y-82743641D01*
X150485000Y-85265000D01*
X150505000Y-85265000D01*
X150505000Y-85465000D01*
X150485000Y-85465000D01*
X150485000Y-87986359D01*
X150717899Y-88077593D01*
X150866637Y-88039087D01*
X151135208Y-87917761D01*
X151224884Y-87853651D01*
X151432892Y-88107109D01*
X151752658Y-88369535D01*
X152117477Y-88564535D01*
X152513329Y-88684615D01*
X152925000Y-88725161D01*
X153336672Y-88684615D01*
X153732524Y-88564535D01*
X154097343Y-88369535D01*
X154195000Y-88289389D01*
X154292658Y-88369535D01*
X154657477Y-88564535D01*
X155053329Y-88684615D01*
X155465000Y-88725161D01*
X155876672Y-88684615D01*
X156272524Y-88564535D01*
X156637343Y-88369535D01*
X156735000Y-88289389D01*
X156832658Y-88369535D01*
X157197477Y-88564535D01*
X157593329Y-88684615D01*
X158005000Y-88725161D01*
X158416672Y-88684615D01*
X158812524Y-88564535D01*
X159177343Y-88369535D01*
X159275000Y-88289389D01*
X159372658Y-88369535D01*
X159737477Y-88564535D01*
X160133329Y-88684615D01*
X160545000Y-88725161D01*
X160956672Y-88684615D01*
X161352524Y-88564535D01*
X161717343Y-88369535D01*
X161815000Y-88289389D01*
X161912658Y-88369535D01*
X162277477Y-88564535D01*
X162673329Y-88684615D01*
X163085000Y-88725161D01*
X163496672Y-88684615D01*
X163892524Y-88564535D01*
X164257343Y-88369535D01*
X164355000Y-88289389D01*
X164452658Y-88369535D01*
X164817477Y-88564535D01*
X165213329Y-88684615D01*
X165625000Y-88725161D01*
X166036672Y-88684615D01*
X166432524Y-88564535D01*
X166797343Y-88369535D01*
X166895000Y-88289389D01*
X166992658Y-88369535D01*
X167357477Y-88564535D01*
X167753329Y-88684615D01*
X168165000Y-88725161D01*
X168576672Y-88684615D01*
X168972524Y-88564535D01*
X169337343Y-88369535D01*
X169435000Y-88289389D01*
X169532658Y-88369535D01*
X169897477Y-88564535D01*
X170293329Y-88684615D01*
X170705000Y-88725161D01*
X171116672Y-88684615D01*
X171512524Y-88564535D01*
X171877343Y-88369535D01*
X171975000Y-88289389D01*
X172038383Y-88341406D01*
X172117085Y-88488649D01*
X172243510Y-88642698D01*
X172243513Y-88642701D01*
X172285787Y-88694212D01*
X172337299Y-88736487D01*
X183077870Y-99477058D01*
X182993328Y-99485385D01*
X182597476Y-99605465D01*
X182232657Y-99800465D01*
X182135000Y-99880610D01*
X182037343Y-99800465D01*
X181672523Y-99605465D01*
X181276671Y-99485385D01*
X180865000Y-99444839D01*
X180453328Y-99485385D01*
X180057476Y-99605465D01*
X179692657Y-99800465D01*
X179595000Y-99880610D01*
X179497343Y-99800465D01*
X179132523Y-99605465D01*
X178736671Y-99485385D01*
X178325000Y-99444839D01*
X177913328Y-99485385D01*
X177517476Y-99605465D01*
X177152657Y-99800465D01*
X177055000Y-99880610D01*
X176957343Y-99800465D01*
X176592523Y-99605465D01*
X176196671Y-99485385D01*
X175785000Y-99444839D01*
X175373328Y-99485385D01*
X174977476Y-99605465D01*
X174612657Y-99800465D01*
X174515000Y-99880610D01*
X174417343Y-99800465D01*
X174052523Y-99605465D01*
X173656671Y-99485385D01*
X173245000Y-99444839D01*
X172833328Y-99485385D01*
X172437476Y-99605465D01*
X172072657Y-99800465D01*
X171975000Y-99880610D01*
X171877343Y-99800465D01*
X171512523Y-99605465D01*
X171116671Y-99485385D01*
X170705000Y-99444839D01*
X170293328Y-99485385D01*
X169897476Y-99605465D01*
X169532657Y-99800465D01*
X169435000Y-99880610D01*
X169337343Y-99800465D01*
X168972523Y-99605465D01*
X168576671Y-99485385D01*
X168165000Y-99444839D01*
X167753328Y-99485385D01*
X167357476Y-99605465D01*
X166992657Y-99800465D01*
X166895000Y-99880610D01*
X166797343Y-99800465D01*
X166432523Y-99605465D01*
X166036671Y-99485385D01*
X165625000Y-99444839D01*
X165213328Y-99485385D01*
X164817476Y-99605465D01*
X164452657Y-99800465D01*
X164355000Y-99880610D01*
X164257343Y-99800465D01*
X163892523Y-99605465D01*
X163496671Y-99485385D01*
X163085000Y-99444839D01*
X162673328Y-99485385D01*
X162277476Y-99605465D01*
X161912657Y-99800465D01*
X161815000Y-99880610D01*
X161717343Y-99800465D01*
X161352523Y-99605465D01*
X160956671Y-99485385D01*
X160545000Y-99444839D01*
X160133328Y-99485385D01*
X159737476Y-99605465D01*
X159372657Y-99800465D01*
X159360503Y-99810440D01*
X159361531Y-99799999D01*
X159355000Y-99733688D01*
X159355000Y-99733679D01*
X159335467Y-99535354D01*
X159258272Y-99280878D01*
X159132915Y-99046351D01*
X158964212Y-98840787D01*
X158912701Y-98798513D01*
X156466491Y-96352303D01*
X156424213Y-96300787D01*
X156218649Y-96132085D01*
X155984122Y-96006728D01*
X155729646Y-95929533D01*
X155531321Y-95910000D01*
X155531319Y-95910000D01*
X155465000Y-95903468D01*
X155398681Y-95910000D01*
X153581063Y-95910000D01*
X153725588Y-95813431D01*
X153920591Y-95618428D01*
X154073804Y-95389129D01*
X154179339Y-95134345D01*
X154233140Y-94863868D01*
X154233140Y-94588092D01*
X154179339Y-94317615D01*
X154073804Y-94062831D01*
X153920591Y-93833532D01*
X153725588Y-93638529D01*
X153496289Y-93485316D01*
X153241505Y-93379781D01*
X152971028Y-93325980D01*
X152695252Y-93325980D01*
X152443884Y-93375980D01*
X146502681Y-93375980D01*
X145070322Y-91942341D01*
X145070322Y-90745000D01*
X145049084Y-90529362D01*
X144986184Y-90322012D01*
X144884042Y-90130916D01*
X144746581Y-89963419D01*
X144579084Y-89825958D01*
X144387988Y-89723816D01*
X144270606Y-89688208D01*
X144301468Y-89644094D01*
X144404312Y-89410100D01*
X144429547Y-89306531D01*
X144335737Y-89105000D01*
X142865000Y-89105000D01*
X142865000Y-89125000D01*
X142665000Y-89125000D01*
X142665000Y-89105000D01*
X141194263Y-89105000D01*
X141100453Y-89306531D01*
X141125688Y-89410100D01*
X141228532Y-89644094D01*
X141259394Y-89688208D01*
X141142012Y-89723816D01*
X140950916Y-89825958D01*
X140783419Y-89963419D01*
X140645958Y-90130916D01*
X140543816Y-90322012D01*
X140480916Y-90529362D01*
X140459678Y-90745000D01*
X140459678Y-92345000D01*
X140480916Y-92560638D01*
X140543816Y-92767988D01*
X140645958Y-92959084D01*
X140783419Y-93126581D01*
X140950916Y-93264042D01*
X141142012Y-93366184D01*
X141349362Y-93429084D01*
X141565000Y-93450322D01*
X142760286Y-93450322D01*
X144941458Y-95633444D01*
X144983927Y-95685193D01*
X145086217Y-95769141D01*
X145188986Y-95853558D01*
X145189257Y-95853703D01*
X145189491Y-95853895D01*
X145306407Y-95916388D01*
X145423457Y-95979019D01*
X145423747Y-95979107D01*
X145424018Y-95979252D01*
X145467736Y-95992514D01*
X145420878Y-96006728D01*
X145410915Y-96012053D01*
X145400159Y-96015512D01*
X145293751Y-96074679D01*
X145186351Y-96132085D01*
X145177615Y-96139254D01*
X145167744Y-96144743D01*
X145074912Y-96223540D01*
X145037663Y-96254110D01*
X145037508Y-96252535D01*
X144928864Y-95894383D01*
X144752436Y-95564309D01*
X144515003Y-95274997D01*
X144225691Y-95037564D01*
X143895617Y-94861136D01*
X143537465Y-94752492D01*
X143258337Y-94725000D01*
X142271663Y-94725000D01*
X141992535Y-94752492D01*
X141634383Y-94861136D01*
X141304309Y-95037564D01*
X141014997Y-95274997D01*
X140777564Y-95564309D01*
X140601136Y-95894383D01*
X140492492Y-96252535D01*
X140455807Y-96625000D01*
X140492492Y-96997465D01*
X140601136Y-97355617D01*
X140777564Y-97685691D01*
X140949340Y-97895000D01*
X140777564Y-98104309D01*
X140601136Y-98434383D01*
X140492492Y-98792535D01*
X140455807Y-99165000D01*
X140492492Y-99537465D01*
X140601136Y-99895617D01*
X140777564Y-100225691D01*
X141014997Y-100515003D01*
X141304309Y-100752436D01*
X141419419Y-100813963D01*
X141375050Y-100856472D01*
X141228532Y-101065906D01*
X141125688Y-101299900D01*
X141100453Y-101403469D01*
X141194263Y-101605000D01*
X142665000Y-101605000D01*
X142665000Y-101585000D01*
X142865000Y-101585000D01*
X142865000Y-101605000D01*
X144335737Y-101605000D01*
X144429547Y-101403469D01*
X144404312Y-101299900D01*
X144301468Y-101065906D01*
X144154950Y-100856472D01*
X144110581Y-100813963D01*
X144225691Y-100752436D01*
X144515003Y-100515003D01*
X144591618Y-100421648D01*
X144760026Y-100412872D01*
X144802502Y-100416345D01*
X144892533Y-100405967D01*
X144916483Y-100404719D01*
X144958382Y-100398377D01*
X145066679Y-100385893D01*
X145089655Y-100378505D01*
X145113523Y-100374892D01*
X145216062Y-100337858D01*
X145319840Y-100304488D01*
X145340937Y-100292758D01*
X145363637Y-100284559D01*
X145456967Y-100228241D01*
X145552255Y-100175258D01*
X145570659Y-100159636D01*
X145591323Y-100147167D01*
X145671880Y-100073717D01*
X145754992Y-100003169D01*
X145769992Y-99984261D01*
X145787829Y-99967997D01*
X145852510Y-99880240D01*
X145878844Y-99847044D01*
X145891836Y-99826883D01*
X145945605Y-99753932D01*
X145963711Y-99715354D01*
X146676050Y-98610000D01*
X154905812Y-98610000D01*
X156443390Y-100147578D01*
X156304884Y-100316348D01*
X156215208Y-100252239D01*
X155946637Y-100130913D01*
X155797899Y-100092407D01*
X155565000Y-100183641D01*
X155565000Y-102705000D01*
X155585000Y-102705000D01*
X155585000Y-102905000D01*
X155565000Y-102905000D01*
X155565000Y-105426359D01*
X155797899Y-105517593D01*
X155946637Y-105479087D01*
X156215208Y-105357761D01*
X156304884Y-105293651D01*
X156512892Y-105547109D01*
X156832658Y-105809535D01*
X157197477Y-106004535D01*
X157593329Y-106124615D01*
X158005000Y-106165161D01*
X158416672Y-106124615D01*
X158812524Y-106004535D01*
X159177343Y-105809535D01*
X159275001Y-105729389D01*
X159320795Y-105766972D01*
X150960755Y-111340333D01*
X150901351Y-111372085D01*
X150798979Y-111456100D01*
X150696791Y-111539784D01*
X150696335Y-111540338D01*
X150695787Y-111540788D01*
X150611947Y-111642947D01*
X150527875Y-111745172D01*
X150527539Y-111745798D01*
X150527085Y-111746352D01*
X150464570Y-111863310D01*
X150402272Y-111979568D01*
X150402065Y-111980249D01*
X150401728Y-111980879D01*
X150363269Y-112107662D01*
X150324811Y-112233963D01*
X150324741Y-112234671D01*
X150324533Y-112235355D01*
X150311559Y-112367088D01*
X150298469Y-112498581D01*
X150305000Y-112565609D01*
X150305000Y-113632284D01*
X150140336Y-113796948D01*
X149991848Y-114019177D01*
X149825430Y-113892046D01*
X149587825Y-113775506D01*
X149424375Y-113725928D01*
X149215000Y-113819088D01*
X149215000Y-114940000D01*
X149235000Y-114940000D01*
X149235000Y-115140000D01*
X149215000Y-115140000D01*
X149215000Y-116260912D01*
X149424375Y-116354072D01*
X149587825Y-116304494D01*
X149825430Y-116187954D01*
X149991848Y-116060823D01*
X150140336Y-116283052D01*
X150411948Y-116554664D01*
X150731329Y-116768067D01*
X150868777Y-116825000D01*
X138926820Y-116825000D01*
X138926820Y-115645136D01*
X138962011Y-115601272D01*
X138926820Y-115566081D01*
X138926820Y-115283239D01*
X139103432Y-115459851D01*
X139241133Y-115349376D01*
X147800924Y-115349376D01*
X147886530Y-115599795D01*
X148019345Y-115828701D01*
X148194266Y-116027298D01*
X148404570Y-116187954D01*
X148642175Y-116304494D01*
X148805625Y-116354072D01*
X149015000Y-116260912D01*
X149015000Y-115140000D01*
X147893705Y-115140000D01*
X147800924Y-115349376D01*
X139241133Y-115349376D01*
X139558678Y-115094616D01*
X139759062Y-114730624D01*
X147800924Y-114730624D01*
X147893705Y-114940000D01*
X149015000Y-114940000D01*
X149015000Y-113819088D01*
X148805625Y-113725928D01*
X148642175Y-113775506D01*
X148404570Y-113892046D01*
X148194266Y-114052702D01*
X148019345Y-114251299D01*
X147886530Y-114480205D01*
X147800924Y-114730624D01*
X139759062Y-114730624D01*
X139910173Y-114456138D01*
X140130354Y-113761356D01*
X140176013Y-113350000D01*
X143952581Y-113350000D01*
X143962235Y-113448017D01*
X143990825Y-113542267D01*
X144037254Y-113629129D01*
X144099736Y-113705264D01*
X144175871Y-113767746D01*
X144262733Y-113814175D01*
X144356983Y-113842765D01*
X144455000Y-113852419D01*
X145080000Y-113850000D01*
X145205000Y-113725000D01*
X145205000Y-112600000D01*
X145405000Y-112600000D01*
X145405000Y-113725000D01*
X145530000Y-113850000D01*
X146155000Y-113852419D01*
X146253017Y-113842765D01*
X146347267Y-113814175D01*
X146434129Y-113767746D01*
X146510264Y-113705264D01*
X146572746Y-113629129D01*
X146619175Y-113542267D01*
X146647765Y-113448017D01*
X146657419Y-113350000D01*
X146655000Y-112725000D01*
X146530000Y-112600000D01*
X145405000Y-112600000D01*
X145205000Y-112600000D01*
X144080000Y-112600000D01*
X143955000Y-112725000D01*
X143952581Y-113350000D01*
X140176013Y-113350000D01*
X140210759Y-113036968D01*
X140148297Y-112310813D01*
X139945371Y-111610797D01*
X139609777Y-110963819D01*
X139558678Y-110887344D01*
X139103432Y-110522109D01*
X138926820Y-110698721D01*
X138926820Y-110415879D01*
X138962011Y-110380688D01*
X138926820Y-110336824D01*
X138926820Y-107227942D01*
X143355000Y-107227942D01*
X143355000Y-107612058D01*
X143429938Y-107988794D01*
X143576933Y-108343671D01*
X143790336Y-108663052D01*
X143817284Y-108690000D01*
X143790336Y-108716948D01*
X143576933Y-109036329D01*
X143429938Y-109391206D01*
X143355000Y-109767942D01*
X143355000Y-110152058D01*
X143429938Y-110528794D01*
X143576933Y-110883671D01*
X143790336Y-111203052D01*
X144009702Y-111422418D01*
X143990825Y-111457733D01*
X143962235Y-111551983D01*
X143952581Y-111650000D01*
X143955000Y-112275000D01*
X144080000Y-112400000D01*
X145205000Y-112400000D01*
X145205000Y-112380000D01*
X145405000Y-112380000D01*
X145405000Y-112400000D01*
X146530000Y-112400000D01*
X146655000Y-112275000D01*
X146657419Y-111650000D01*
X146647765Y-111551983D01*
X146619175Y-111457733D01*
X146600298Y-111422418D01*
X146712716Y-111310000D01*
X147778681Y-111310000D01*
X147845000Y-111316532D01*
X147911319Y-111310000D01*
X147911321Y-111310000D01*
X148109646Y-111290467D01*
X148364122Y-111213272D01*
X148598649Y-111087915D01*
X148804213Y-110919213D01*
X148846491Y-110867697D01*
X151292698Y-108421490D01*
X151344213Y-108379213D01*
X151512915Y-108173649D01*
X151638272Y-107939122D01*
X151715467Y-107684646D01*
X151735000Y-107486321D01*
X151735000Y-107486312D01*
X151741531Y-107420001D01*
X151735000Y-107353690D01*
X151735000Y-105795043D01*
X151752658Y-105809535D01*
X152117477Y-106004535D01*
X152513329Y-106124615D01*
X152925000Y-106165161D01*
X153336672Y-106124615D01*
X153732524Y-106004535D01*
X154097343Y-105809535D01*
X154417109Y-105547109D01*
X154625116Y-105293652D01*
X154714792Y-105357761D01*
X154983363Y-105479087D01*
X155132101Y-105517593D01*
X155365000Y-105426359D01*
X155365000Y-102905000D01*
X155345000Y-102905000D01*
X155345000Y-102705000D01*
X155365000Y-102705000D01*
X155365000Y-100183641D01*
X155132101Y-100092407D01*
X154983363Y-100130913D01*
X154714792Y-100252239D01*
X154625116Y-100316348D01*
X154417109Y-100062891D01*
X154097343Y-99800465D01*
X153732523Y-99605465D01*
X153336671Y-99485385D01*
X152925000Y-99444839D01*
X152513328Y-99485385D01*
X152117476Y-99605465D01*
X151752657Y-99800465D01*
X151655000Y-99880610D01*
X151557343Y-99800465D01*
X151192523Y-99605465D01*
X150796671Y-99485385D01*
X150385000Y-99444839D01*
X149973328Y-99485385D01*
X149577476Y-99605465D01*
X149354532Y-99724631D01*
X149246484Y-99635958D01*
X149055388Y-99533816D01*
X148848038Y-99470916D01*
X148632400Y-99449678D01*
X147057600Y-99449678D01*
X146841962Y-99470916D01*
X146634612Y-99533816D01*
X146443516Y-99635958D01*
X146276019Y-99773419D01*
X146138558Y-99940916D01*
X146036416Y-100132012D01*
X145973516Y-100339362D01*
X145952278Y-100555000D01*
X145952278Y-105055000D01*
X145973516Y-105270638D01*
X146021615Y-105429196D01*
X145896478Y-105554334D01*
X145873794Y-105544938D01*
X145497058Y-105470000D01*
X145112942Y-105470000D01*
X144736206Y-105544938D01*
X144381329Y-105691933D01*
X144061948Y-105905336D01*
X143790336Y-106176948D01*
X143576933Y-106496329D01*
X143429938Y-106851206D01*
X143355000Y-107227942D01*
X138926820Y-107227942D01*
X138926820Y-102006531D01*
X141100453Y-102006531D01*
X141125688Y-102110100D01*
X141228532Y-102344094D01*
X141375050Y-102553528D01*
X141559611Y-102730353D01*
X141775123Y-102867775D01*
X142013304Y-102960512D01*
X142265000Y-103005000D01*
X142665000Y-103005000D01*
X142665000Y-101805000D01*
X142865000Y-101805000D01*
X142865000Y-103005000D01*
X143265000Y-103005000D01*
X143516696Y-102960512D01*
X143754877Y-102867775D01*
X143970389Y-102730353D01*
X144154950Y-102553528D01*
X144301468Y-102344094D01*
X144404312Y-102110100D01*
X144429547Y-102006531D01*
X144335737Y-101805000D01*
X142865000Y-101805000D01*
X142665000Y-101805000D01*
X141194263Y-101805000D01*
X141100453Y-102006531D01*
X138926820Y-102006531D01*
X138926820Y-86465000D01*
X140455807Y-86465000D01*
X140492492Y-86837465D01*
X140601136Y-87195617D01*
X140777564Y-87525691D01*
X141014997Y-87815003D01*
X141304309Y-88052436D01*
X141419419Y-88113963D01*
X141375050Y-88156472D01*
X141228532Y-88365906D01*
X141125688Y-88599900D01*
X141100453Y-88703469D01*
X141194263Y-88905000D01*
X142665000Y-88905000D01*
X142665000Y-88885000D01*
X142865000Y-88885000D01*
X142865000Y-88905000D01*
X144335737Y-88905000D01*
X144429547Y-88703469D01*
X144404312Y-88599900D01*
X144301468Y-88365906D01*
X144154950Y-88156472D01*
X144110581Y-88113963D01*
X144225691Y-88052436D01*
X144515003Y-87815003D01*
X144752436Y-87525691D01*
X144928864Y-87195617D01*
X145037508Y-86837465D01*
X145074193Y-86465000D01*
X145037508Y-86092535D01*
X144928864Y-85734383D01*
X144752436Y-85404309D01*
X144515003Y-85114997D01*
X144225691Y-84877564D01*
X143895617Y-84701136D01*
X143537465Y-84592492D01*
X143258337Y-84565000D01*
X142271663Y-84565000D01*
X141992535Y-84592492D01*
X141634383Y-84701136D01*
X141304309Y-84877564D01*
X141014997Y-85114997D01*
X140777564Y-85404309D01*
X140601136Y-85734383D01*
X140492492Y-86092535D01*
X140455807Y-86465000D01*
X138926820Y-86465000D01*
X138926820Y-75645136D01*
X138962011Y-75601272D01*
X138926820Y-75566081D01*
X138926820Y-75283239D01*
X139103432Y-75459851D01*
X139558678Y-75094616D01*
X139910173Y-74456138D01*
X140130354Y-73761356D01*
X140210759Y-73036968D01*
X140148297Y-72310813D01*
X139945371Y-71610797D01*
X139609777Y-70963819D01*
X139558678Y-70887344D01*
X139103432Y-70522109D01*
X138926820Y-70698721D01*
X138926820Y-70415879D01*
X138962011Y-70380688D01*
X138926820Y-70336824D01*
X138926820Y-69175000D01*
X143364035Y-69175000D01*
X141868488Y-70670548D01*
G37*
X141868488Y-70670548D02*
X141819030Y-70685551D01*
X141367349Y-70926979D01*
X140971448Y-71251887D01*
X140646539Y-71647788D01*
X140405111Y-72099469D01*
X140256440Y-72589571D01*
X140218820Y-72971533D01*
X140218820Y-75226986D01*
X140256440Y-75608948D01*
X140405111Y-76099050D01*
X140646539Y-76550731D01*
X140971447Y-76946633D01*
X141325142Y-77236903D01*
X141291141Y-79395966D01*
X141282865Y-79480000D01*
X141295968Y-79613046D01*
X141306971Y-79746224D01*
X141310194Y-79757485D01*
X141311343Y-79769150D01*
X141350151Y-79897084D01*
X141386924Y-80025557D01*
X141392284Y-80035976D01*
X141395685Y-80047188D01*
X141458673Y-80165030D01*
X141519836Y-80283924D01*
X141527130Y-80293102D01*
X141532650Y-80303430D01*
X141617432Y-80406738D01*
X141700600Y-80511395D01*
X141765016Y-80565980D01*
X143678248Y-82479213D01*
X143706229Y-82502176D01*
X143790336Y-82628052D01*
X144061948Y-82899664D01*
X144381329Y-83113067D01*
X144736206Y-83260062D01*
X145112942Y-83335000D01*
X145497058Y-83335000D01*
X145873794Y-83260062D01*
X145934178Y-83235050D01*
X145895465Y-83307477D01*
X145775385Y-83703329D01*
X145745000Y-84011834D01*
X145745000Y-86718167D01*
X145775386Y-87026672D01*
X145895466Y-87422524D01*
X146090466Y-87787343D01*
X146352892Y-88107109D01*
X146672658Y-88369535D01*
X147037477Y-88564535D01*
X147433329Y-88684615D01*
X147845000Y-88725161D01*
X148256672Y-88684615D01*
X148652524Y-88564535D01*
X149017343Y-88369535D01*
X149337109Y-88107109D01*
X149545116Y-87853652D01*
X149634792Y-87917761D01*
X149903363Y-88039087D01*
X150052101Y-88077593D01*
X150285000Y-87986359D01*
X150285000Y-85465000D01*
X150265000Y-85465000D01*
X150265000Y-85265000D01*
X150285000Y-85265000D01*
X150285000Y-82743641D01*
X150052101Y-82652407D01*
X149903363Y-82690913D01*
X149634792Y-82812239D01*
X149633083Y-82813461D01*
X149716184Y-82657988D01*
X149779084Y-82450638D01*
X149800322Y-82235000D01*
X149800322Y-80535000D01*
X149779084Y-80319362D01*
X149716184Y-80112012D01*
X149614042Y-79920916D01*
X149476581Y-79753419D01*
X149309084Y-79615958D01*
X149117988Y-79513816D01*
X148910638Y-79450916D01*
X148695000Y-79429678D01*
X146995000Y-79429678D01*
X146779362Y-79450916D01*
X146572012Y-79513816D01*
X146380916Y-79615958D01*
X146285069Y-79694617D01*
X146228671Y-79656933D01*
X145873794Y-79509938D01*
X145497058Y-79435000D01*
X145112942Y-79435000D01*
X144856896Y-79485931D01*
X144249652Y-78878688D01*
X144275022Y-77267658D01*
X144666193Y-76946633D01*
X144951275Y-76599260D01*
X145816401Y-76599260D01*
X145826055Y-76697277D01*
X145854645Y-76791527D01*
X145901074Y-76878389D01*
X145963556Y-76954524D01*
X146039691Y-77017006D01*
X146126553Y-77063435D01*
X146220803Y-77092025D01*
X146318820Y-77101679D01*
X147593820Y-77099260D01*
X147718820Y-76974260D01*
X147718820Y-74199260D01*
X147918820Y-74199260D01*
X147918820Y-76974260D01*
X148043820Y-77099260D01*
X149318820Y-77101679D01*
X149416837Y-77092025D01*
X149511087Y-77063435D01*
X149597949Y-77017006D01*
X149674084Y-76954524D01*
X149736566Y-76878389D01*
X149782995Y-76791527D01*
X149811585Y-76697277D01*
X149821239Y-76599260D01*
X149818820Y-74324260D01*
X149693820Y-74199260D01*
X147918820Y-74199260D01*
X147718820Y-74199260D01*
X145943820Y-74199260D01*
X145818820Y-74324260D01*
X145816401Y-76599260D01*
X144951275Y-76599260D01*
X144991101Y-76550732D01*
X145232529Y-76099051D01*
X145381200Y-75608949D01*
X145418820Y-75226987D01*
X145418820Y-72971533D01*
X145381200Y-72589571D01*
X145232529Y-72099469D01*
X145016207Y-71694758D01*
X145296705Y-71414260D01*
X145852441Y-71414260D01*
X145826055Y-71501243D01*
X145816401Y-71599260D01*
X145818820Y-73874260D01*
X145943820Y-73999260D01*
X147718820Y-73999260D01*
X147718820Y-73979260D01*
X147918820Y-73979260D01*
X147918820Y-73999260D01*
X149693820Y-73999260D01*
X149818820Y-73874260D01*
X149819546Y-73190879D01*
X155863297Y-73190879D01*
X155900223Y-73484037D01*
X155993631Y-73764358D01*
X156094511Y-73953091D01*
X156324446Y-74054132D01*
X157228579Y-73150000D01*
X156324446Y-72245868D01*
X156094511Y-72346909D01*
X155962344Y-72611176D01*
X155884272Y-72896150D01*
X155863297Y-73190879D01*
X149819546Y-73190879D01*
X149820701Y-72104446D01*
X156465868Y-72104446D01*
X157370000Y-73008579D01*
X158274132Y-72104446D01*
X158173091Y-71874511D01*
X157908824Y-71742344D01*
X157623850Y-71664272D01*
X157329121Y-71643297D01*
X157035963Y-71680223D01*
X156755642Y-71773631D01*
X156566909Y-71874511D01*
X156465868Y-72104446D01*
X149820701Y-72104446D01*
X149821239Y-71599260D01*
X149811585Y-71501243D01*
X149785199Y-71414260D01*
X162458296Y-71414260D01*
X162625784Y-71581748D01*
X162671972Y-71638028D01*
X162896569Y-71822351D01*
X163152811Y-71959315D01*
X163366137Y-72024027D01*
X163430849Y-72043657D01*
X163461279Y-72046654D01*
X163647548Y-72065000D01*
X163647554Y-72065000D01*
X163719999Y-72072135D01*
X163792444Y-72065000D01*
X163864917Y-72065000D01*
X163993419Y-72221581D01*
X164160916Y-72359042D01*
X164273119Y-72419015D01*
X164275000Y-72905000D01*
X164400000Y-73030000D01*
X165525000Y-73030000D01*
X165525000Y-73010000D01*
X165725000Y-73010000D01*
X165725000Y-73030000D01*
X166850000Y-73030000D01*
X166914932Y-72965068D01*
X166943705Y-73030000D01*
X168065000Y-73030000D01*
X168065000Y-73010000D01*
X168265000Y-73010000D01*
X168265000Y-73030000D01*
X169386295Y-73030000D01*
X169435000Y-72920089D01*
X169483705Y-73030000D01*
X170605000Y-73030000D01*
X170605000Y-73010000D01*
X170805000Y-73010000D01*
X170805000Y-73030000D01*
X171926295Y-73030000D01*
X172019076Y-72820624D01*
X171966832Y-72667796D01*
X173420788Y-74121753D01*
X173466972Y-74178028D01*
X173523247Y-74224212D01*
X173523248Y-74224213D01*
X173613326Y-74298138D01*
X173691569Y-74362351D01*
X173947811Y-74499315D01*
X174129277Y-74554362D01*
X174225849Y-74583657D01*
X174256279Y-74586654D01*
X174442548Y-74605000D01*
X174442554Y-74605000D01*
X174514999Y-74612135D01*
X174587444Y-74605000D01*
X175829749Y-74605000D01*
X175813498Y-74770000D01*
X175813498Y-76570000D01*
X175834736Y-76785638D01*
X175897636Y-76992988D01*
X175999778Y-77184084D01*
X176137239Y-77351581D01*
X176304736Y-77489042D01*
X176495832Y-77591184D01*
X176703182Y-77654084D01*
X176918820Y-77675322D01*
X178718820Y-77675322D01*
X178934458Y-77654084D01*
X179141808Y-77591184D01*
X179332904Y-77489042D01*
X179500401Y-77351581D01*
X179637862Y-77184084D01*
X179740004Y-76992988D01*
X179802904Y-76785638D01*
X179824142Y-76570000D01*
X179824142Y-74770000D01*
X179802904Y-74554362D01*
X179800000Y-74544789D01*
X179800000Y-74041599D01*
X180319442Y-73781878D01*
X180474478Y-73684284D01*
X180542736Y-73740302D01*
X180733832Y-73842444D01*
X180941182Y-73905344D01*
X181156820Y-73926582D01*
X181908125Y-73926582D01*
X181623894Y-74116499D01*
X181345319Y-74395074D01*
X181126443Y-74722645D01*
X180975679Y-75086622D01*
X180898820Y-75473017D01*
X180898820Y-75866983D01*
X180975679Y-76253378D01*
X181126443Y-76617355D01*
X181345319Y-76944926D01*
X181623894Y-77223501D01*
X181951465Y-77442377D01*
X182315442Y-77593141D01*
X182701837Y-77670000D01*
X183095803Y-77670000D01*
X183482198Y-77593141D01*
X183846175Y-77442377D01*
X184173746Y-77223501D01*
X184252247Y-77145000D01*
X187887238Y-77145000D01*
X188151874Y-77362181D01*
X188120825Y-77399777D01*
X187985902Y-77650331D01*
X187909750Y-77884549D01*
X188001592Y-78110000D01*
X189272820Y-78110000D01*
X189272820Y-78090000D01*
X189472820Y-78090000D01*
X189472820Y-78110000D01*
X190744048Y-78110000D01*
X190835890Y-77884549D01*
X190759738Y-77650331D01*
X190624815Y-77399777D01*
X190593766Y-77362181D01*
X190878679Y-77128359D01*
X191135169Y-76815825D01*
X191325758Y-76459258D01*
X191443122Y-76072360D01*
X191482751Y-75670000D01*
X191475982Y-75601272D01*
X194024269Y-75601272D01*
X194389504Y-76056518D01*
X195027982Y-76408013D01*
X195722764Y-76628194D01*
X196447152Y-76708599D01*
X197173307Y-76646137D01*
X197873323Y-76443211D01*
X198520301Y-76107617D01*
X198596776Y-76056518D01*
X198962011Y-75601272D01*
X196493140Y-73132401D01*
X194024269Y-75601272D01*
X191475982Y-75601272D01*
X191443122Y-75267640D01*
X191325758Y-74880742D01*
X191252779Y-74744207D01*
X191291862Y-74696584D01*
X191394004Y-74505488D01*
X191456904Y-74298138D01*
X191478142Y-74082500D01*
X191478142Y-72944992D01*
X192775521Y-72944992D01*
X192837983Y-73671147D01*
X193040909Y-74371163D01*
X193376503Y-75018141D01*
X193427602Y-75094616D01*
X193882848Y-75459851D01*
X196351719Y-72990980D01*
X193882848Y-70522109D01*
X193427602Y-70887344D01*
X193076107Y-71525822D01*
X192855926Y-72220604D01*
X192775521Y-72944992D01*
X191478142Y-72944992D01*
X191478142Y-72177500D01*
X191456904Y-71961862D01*
X191394004Y-71754512D01*
X191291862Y-71563416D01*
X191154401Y-71395919D01*
X191034572Y-71297578D01*
X191008272Y-71210878D01*
X190939875Y-71082915D01*
X190882915Y-70976350D01*
X190756490Y-70822301D01*
X190756483Y-70822294D01*
X190714212Y-70770787D01*
X190662706Y-70728517D01*
X190314877Y-70380688D01*
X194024269Y-70380688D01*
X196493140Y-72849559D01*
X198962011Y-70380688D01*
X198596776Y-69925442D01*
X197958298Y-69573947D01*
X197263516Y-69353766D01*
X196539128Y-69273361D01*
X195812973Y-69335823D01*
X195112957Y-69538749D01*
X194465979Y-69874343D01*
X194389504Y-69925442D01*
X194024269Y-70380688D01*
X190314877Y-70380688D01*
X189109188Y-69175000D01*
X198013300Y-69175000D01*
X199325001Y-70486702D01*
X199325001Y-70699869D01*
X199103432Y-70522109D01*
X196634561Y-72990980D01*
X199103432Y-75459851D01*
X199325001Y-75282091D01*
X199325000Y-110699869D01*
X199103432Y-110522109D01*
X196634561Y-112990980D01*
X199103432Y-115459851D01*
X199325000Y-115282091D01*
X199325000Y-115513299D01*
X198013300Y-116825000D01*
X185461223Y-116825000D01*
X185598671Y-116768067D01*
X185918052Y-116554664D01*
X186189664Y-116283052D01*
X186338152Y-116060823D01*
X186504570Y-116187954D01*
X186742175Y-116304494D01*
X186905625Y-116354072D01*
X187115000Y-116260912D01*
X187115000Y-115140000D01*
X187315000Y-115140000D01*
X187315000Y-116260912D01*
X187524375Y-116354072D01*
X187687825Y-116304494D01*
X187925430Y-116187954D01*
X188135734Y-116027298D01*
X188310655Y-115828701D01*
X188403437Y-115668791D01*
X188402581Y-115890000D01*
X188412235Y-115988017D01*
X188440825Y-116082267D01*
X188487254Y-116169129D01*
X188549736Y-116245264D01*
X188625871Y-116307746D01*
X188712733Y-116354175D01*
X188806983Y-116382765D01*
X188905000Y-116392419D01*
X189530000Y-116390000D01*
X189655000Y-116265000D01*
X189655000Y-115140000D01*
X189855000Y-115140000D01*
X189855000Y-116265000D01*
X189980000Y-116390000D01*
X190605000Y-116392419D01*
X190703017Y-116382765D01*
X190797267Y-116354175D01*
X190884129Y-116307746D01*
X190960264Y-116245264D01*
X191022746Y-116169129D01*
X191069175Y-116082267D01*
X191097765Y-115988017D01*
X191107419Y-115890000D01*
X191106302Y-115601272D01*
X194024269Y-115601272D01*
X194389504Y-116056518D01*
X195027982Y-116408013D01*
X195722764Y-116628194D01*
X196447152Y-116708599D01*
X197173307Y-116646137D01*
X197873323Y-116443211D01*
X198520301Y-116107617D01*
X198596776Y-116056518D01*
X198962011Y-115601272D01*
X196493140Y-113132401D01*
X194024269Y-115601272D01*
X191106302Y-115601272D01*
X191105000Y-115265000D01*
X190980000Y-115140000D01*
X189855000Y-115140000D01*
X189655000Y-115140000D01*
X188530000Y-115140000D01*
X188465068Y-115204932D01*
X188436295Y-115140000D01*
X187315000Y-115140000D01*
X187115000Y-115140000D01*
X187095000Y-115140000D01*
X187095000Y-114940000D01*
X187115000Y-114940000D01*
X187115000Y-113819088D01*
X187315000Y-113819088D01*
X187315000Y-114940000D01*
X188436295Y-114940000D01*
X188465068Y-114875068D01*
X188530000Y-114940000D01*
X189655000Y-114940000D01*
X189655000Y-113815000D01*
X189855000Y-113815000D01*
X189855000Y-114940000D01*
X190980000Y-114940000D01*
X191105000Y-114815000D01*
X191107419Y-114190000D01*
X191097765Y-114091983D01*
X191069175Y-113997733D01*
X191022746Y-113910871D01*
X190960264Y-113834736D01*
X190884129Y-113772254D01*
X190797267Y-113725825D01*
X190703017Y-113697235D01*
X190605000Y-113687581D01*
X189980000Y-113690000D01*
X189855000Y-113815000D01*
X189655000Y-113815000D01*
X189530000Y-113690000D01*
X188905000Y-113687581D01*
X188806983Y-113697235D01*
X188712733Y-113725825D01*
X188625871Y-113772254D01*
X188549736Y-113834736D01*
X188487254Y-113910871D01*
X188440825Y-113997733D01*
X188412235Y-114091983D01*
X188402581Y-114190000D01*
X188403437Y-114411209D01*
X188310655Y-114251299D01*
X188135734Y-114052702D01*
X187925430Y-113892046D01*
X187687825Y-113775506D01*
X187524375Y-113725928D01*
X187315000Y-113819088D01*
X187115000Y-113819088D01*
X186905625Y-113725928D01*
X186761242Y-113769723D01*
X187190965Y-113340000D01*
X187777555Y-113340000D01*
X187850000Y-113347135D01*
X187922445Y-113340000D01*
X187922452Y-113340000D01*
X188139150Y-113318657D01*
X188417189Y-113234315D01*
X188673431Y-113097351D01*
X188859079Y-112944992D01*
X192775521Y-112944992D01*
X192837983Y-113671147D01*
X193040909Y-114371163D01*
X193376503Y-115018141D01*
X193427602Y-115094616D01*
X193882848Y-115459851D01*
X196351719Y-112990980D01*
X193882848Y-110522109D01*
X193427602Y-110887344D01*
X193076107Y-111525822D01*
X192855926Y-112220604D01*
X192775521Y-112944992D01*
X188859079Y-112944992D01*
X188898028Y-112913028D01*
X188944216Y-112856748D01*
X189476748Y-112324216D01*
X189533028Y-112278028D01*
X189717351Y-112053431D01*
X189854315Y-111797189D01*
X189938657Y-111519150D01*
X189960000Y-111302452D01*
X189960000Y-111302445D01*
X189967135Y-111230000D01*
X189960000Y-111157555D01*
X189960000Y-110380688D01*
X194024269Y-110380688D01*
X196493140Y-112849559D01*
X198962011Y-110380688D01*
X198596776Y-109925442D01*
X197958298Y-109573947D01*
X197263516Y-109353766D01*
X196539128Y-109273361D01*
X195812973Y-109335823D01*
X195112957Y-109538749D01*
X194465979Y-109874343D01*
X194389504Y-109925442D01*
X194024269Y-110380688D01*
X189960000Y-110380688D01*
X189960000Y-109972716D01*
X189999664Y-109933052D01*
X190148152Y-109710823D01*
X190314570Y-109837954D01*
X190552175Y-109954494D01*
X190715625Y-110004072D01*
X190925000Y-109910912D01*
X190925000Y-108790000D01*
X191125000Y-108790000D01*
X191125000Y-109910912D01*
X191334375Y-110004072D01*
X191497825Y-109954494D01*
X191735430Y-109837954D01*
X191945734Y-109677298D01*
X192120655Y-109478701D01*
X192253470Y-109249795D01*
X192339076Y-108999376D01*
X192246295Y-108790000D01*
X191125000Y-108790000D01*
X190925000Y-108790000D01*
X190905000Y-108790000D01*
X190905000Y-108590000D01*
X190925000Y-108590000D01*
X190925000Y-107469088D01*
X191125000Y-107469088D01*
X191125000Y-108590000D01*
X192246295Y-108590000D01*
X192339076Y-108380624D01*
X192253470Y-108130205D01*
X192120655Y-107901299D01*
X191945734Y-107702702D01*
X191735430Y-107542046D01*
X191497825Y-107425506D01*
X191334375Y-107375928D01*
X191125000Y-107469088D01*
X190925000Y-107469088D01*
X190715625Y-107375928D01*
X190552175Y-107425506D01*
X190314570Y-107542046D01*
X190148152Y-107669177D01*
X189999664Y-107446948D01*
X189960000Y-107407284D01*
X189960000Y-82727444D01*
X189967135Y-82654999D01*
X189960000Y-82582554D01*
X189960000Y-82582548D01*
X189938657Y-82365850D01*
X189938122Y-82364084D01*
X189877871Y-82165465D01*
X189854315Y-82087811D01*
X189717351Y-81831569D01*
X189654803Y-81755355D01*
X189579213Y-81663248D01*
X189579208Y-81663243D01*
X189533027Y-81606972D01*
X189476758Y-81560793D01*
X187039216Y-79123252D01*
X186993028Y-79066972D01*
X186768431Y-78882649D01*
X186512189Y-78745685D01*
X186234150Y-78661343D01*
X186017452Y-78640000D01*
X186017445Y-78640000D01*
X185945000Y-78632865D01*
X185872555Y-78640000D01*
X176698438Y-78640000D01*
X176602602Y-78535451D01*
X187909750Y-78535451D01*
X187985902Y-78769669D01*
X188120825Y-79020223D01*
X188302036Y-79239640D01*
X188522571Y-79419489D01*
X188773955Y-79552858D01*
X189046528Y-79634621D01*
X189272820Y-79535694D01*
X189272820Y-78310000D01*
X189472820Y-78310000D01*
X189472820Y-79535694D01*
X189699112Y-79634621D01*
X189971685Y-79552858D01*
X190223069Y-79419489D01*
X190443604Y-79239640D01*
X190624815Y-79020223D01*
X190759738Y-78769669D01*
X190835890Y-78535451D01*
X190744048Y-78310000D01*
X189472820Y-78310000D01*
X189272820Y-78310000D01*
X188001592Y-78310000D01*
X187909750Y-78535451D01*
X176602602Y-78535451D01*
X173089573Y-74703057D01*
X173023028Y-74621972D01*
X172935499Y-74550138D01*
X172851183Y-74474580D01*
X172823396Y-74458137D01*
X172798431Y-74437649D01*
X172698559Y-74384266D01*
X172601132Y-74326615D01*
X172570672Y-74315910D01*
X172542189Y-74300685D01*
X172433827Y-74267814D01*
X172327019Y-74230275D01*
X172295053Y-74225717D01*
X172264150Y-74216343D01*
X172151454Y-74205243D01*
X172039379Y-74189264D01*
X171984961Y-74192245D01*
X171948052Y-74155336D01*
X171724056Y-74005667D01*
X171800655Y-73918701D01*
X171933470Y-73689795D01*
X172019076Y-73439376D01*
X171926295Y-73230000D01*
X170805000Y-73230000D01*
X170805000Y-73250000D01*
X170605000Y-73250000D01*
X170605000Y-73230000D01*
X169483705Y-73230000D01*
X169435000Y-73339911D01*
X169386295Y-73230000D01*
X168265000Y-73230000D01*
X168265000Y-73250000D01*
X168065000Y-73250000D01*
X168065000Y-73230000D01*
X166943705Y-73230000D01*
X166914932Y-73294932D01*
X166850000Y-73230000D01*
X165725000Y-73230000D01*
X165725000Y-73250000D01*
X165525000Y-73250000D01*
X165525000Y-73230000D01*
X164400000Y-73230000D01*
X164275000Y-73355000D01*
X164273119Y-73840985D01*
X164160916Y-73900958D01*
X163993419Y-74038419D01*
X163864917Y-74195000D01*
X158455900Y-74195000D01*
X158506162Y-74144738D01*
X158415555Y-74054131D01*
X158645489Y-73953091D01*
X158777656Y-73688824D01*
X158855728Y-73403850D01*
X158876703Y-73109121D01*
X158839777Y-72815963D01*
X158746369Y-72535642D01*
X158645489Y-72346909D01*
X158415554Y-72245868D01*
X157511421Y-73150000D01*
X157525564Y-73164142D01*
X157384142Y-73305564D01*
X157370000Y-73291421D01*
X156465868Y-74195554D01*
X156473794Y-74213591D01*
X156445849Y-74216343D01*
X156308805Y-74257915D01*
X156167811Y-74300685D01*
X155911569Y-74437649D01*
X155686972Y-74621972D01*
X155640788Y-74678247D01*
X152568248Y-77750788D01*
X152511973Y-77796972D01*
X152327650Y-78021569D01*
X152290351Y-78091351D01*
X152190685Y-78277812D01*
X152106343Y-78555850D01*
X152077865Y-78845000D01*
X152085001Y-78917455D01*
X152085000Y-81948323D01*
X152077865Y-82021550D01*
X152092145Y-82164991D01*
X152093456Y-82178304D01*
X151752657Y-82360465D01*
X151432891Y-82622891D01*
X151224884Y-82876348D01*
X151135208Y-82812239D01*
X150866637Y-82690913D01*
X150717899Y-82652407D01*
X150485000Y-82743641D01*
X150485000Y-85265000D01*
X150505000Y-85265000D01*
X150505000Y-85465000D01*
X150485000Y-85465000D01*
X150485000Y-87986359D01*
X150717899Y-88077593D01*
X150866637Y-88039087D01*
X151135208Y-87917761D01*
X151224884Y-87853651D01*
X151432892Y-88107109D01*
X151752658Y-88369535D01*
X152117477Y-88564535D01*
X152513329Y-88684615D01*
X152925000Y-88725161D01*
X153336672Y-88684615D01*
X153732524Y-88564535D01*
X154097343Y-88369535D01*
X154195000Y-88289389D01*
X154292658Y-88369535D01*
X154657477Y-88564535D01*
X155053329Y-88684615D01*
X155465000Y-88725161D01*
X155876672Y-88684615D01*
X156272524Y-88564535D01*
X156637343Y-88369535D01*
X156735000Y-88289389D01*
X156832658Y-88369535D01*
X157197477Y-88564535D01*
X157593329Y-88684615D01*
X158005000Y-88725161D01*
X158416672Y-88684615D01*
X158812524Y-88564535D01*
X159177343Y-88369535D01*
X159275000Y-88289389D01*
X159372658Y-88369535D01*
X159737477Y-88564535D01*
X160133329Y-88684615D01*
X160545000Y-88725161D01*
X160956672Y-88684615D01*
X161352524Y-88564535D01*
X161717343Y-88369535D01*
X161815000Y-88289389D01*
X161912658Y-88369535D01*
X162277477Y-88564535D01*
X162673329Y-88684615D01*
X163085000Y-88725161D01*
X163496672Y-88684615D01*
X163892524Y-88564535D01*
X164257343Y-88369535D01*
X164355000Y-88289389D01*
X164452658Y-88369535D01*
X164817477Y-88564535D01*
X165213329Y-88684615D01*
X165625000Y-88725161D01*
X166036672Y-88684615D01*
X166432524Y-88564535D01*
X166797343Y-88369535D01*
X166895000Y-88289389D01*
X166992658Y-88369535D01*
X167357477Y-88564535D01*
X167753329Y-88684615D01*
X168165000Y-88725161D01*
X168576672Y-88684615D01*
X168972524Y-88564535D01*
X169337343Y-88369535D01*
X169435000Y-88289389D01*
X169532658Y-88369535D01*
X169897477Y-88564535D01*
X170293329Y-88684615D01*
X170705000Y-88725161D01*
X171116672Y-88684615D01*
X171512524Y-88564535D01*
X171877343Y-88369535D01*
X171975000Y-88289389D01*
X172038383Y-88341406D01*
X172117085Y-88488649D01*
X172243510Y-88642698D01*
X172243513Y-88642701D01*
X172285787Y-88694212D01*
X172337299Y-88736487D01*
X183077870Y-99477058D01*
X182993328Y-99485385D01*
X182597476Y-99605465D01*
X182232657Y-99800465D01*
X182135000Y-99880610D01*
X182037343Y-99800465D01*
X181672523Y-99605465D01*
X181276671Y-99485385D01*
X180865000Y-99444839D01*
X180453328Y-99485385D01*
X180057476Y-99605465D01*
X179692657Y-99800465D01*
X179595000Y-99880610D01*
X179497343Y-99800465D01*
X179132523Y-99605465D01*
X178736671Y-99485385D01*
X178325000Y-99444839D01*
X177913328Y-99485385D01*
X177517476Y-99605465D01*
X177152657Y-99800465D01*
X177055000Y-99880610D01*
X176957343Y-99800465D01*
X176592523Y-99605465D01*
X176196671Y-99485385D01*
X175785000Y-99444839D01*
X175373328Y-99485385D01*
X174977476Y-99605465D01*
X174612657Y-99800465D01*
X174515000Y-99880610D01*
X174417343Y-99800465D01*
X174052523Y-99605465D01*
X173656671Y-99485385D01*
X173245000Y-99444839D01*
X172833328Y-99485385D01*
X172437476Y-99605465D01*
X172072657Y-99800465D01*
X171975000Y-99880610D01*
X171877343Y-99800465D01*
X171512523Y-99605465D01*
X171116671Y-99485385D01*
X170705000Y-99444839D01*
X170293328Y-99485385D01*
X169897476Y-99605465D01*
X169532657Y-99800465D01*
X169435000Y-99880610D01*
X169337343Y-99800465D01*
X168972523Y-99605465D01*
X168576671Y-99485385D01*
X168165000Y-99444839D01*
X167753328Y-99485385D01*
X167357476Y-99605465D01*
X166992657Y-99800465D01*
X166895000Y-99880610D01*
X166797343Y-99800465D01*
X166432523Y-99605465D01*
X166036671Y-99485385D01*
X165625000Y-99444839D01*
X165213328Y-99485385D01*
X164817476Y-99605465D01*
X164452657Y-99800465D01*
X164355000Y-99880610D01*
X164257343Y-99800465D01*
X163892523Y-99605465D01*
X163496671Y-99485385D01*
X163085000Y-99444839D01*
X162673328Y-99485385D01*
X162277476Y-99605465D01*
X161912657Y-99800465D01*
X161815000Y-99880610D01*
X161717343Y-99800465D01*
X161352523Y-99605465D01*
X160956671Y-99485385D01*
X160545000Y-99444839D01*
X160133328Y-99485385D01*
X159737476Y-99605465D01*
X159372657Y-99800465D01*
X159360503Y-99810440D01*
X159361531Y-99799999D01*
X159355000Y-99733688D01*
X159355000Y-99733679D01*
X159335467Y-99535354D01*
X159258272Y-99280878D01*
X159132915Y-99046351D01*
X158964212Y-98840787D01*
X158912701Y-98798513D01*
X156466491Y-96352303D01*
X156424213Y-96300787D01*
X156218649Y-96132085D01*
X155984122Y-96006728D01*
X155729646Y-95929533D01*
X155531321Y-95910000D01*
X155531319Y-95910000D01*
X155465000Y-95903468D01*
X155398681Y-95910000D01*
X153581063Y-95910000D01*
X153725588Y-95813431D01*
X153920591Y-95618428D01*
X154073804Y-95389129D01*
X154179339Y-95134345D01*
X154233140Y-94863868D01*
X154233140Y-94588092D01*
X154179339Y-94317615D01*
X154073804Y-94062831D01*
X153920591Y-93833532D01*
X153725588Y-93638529D01*
X153496289Y-93485316D01*
X153241505Y-93379781D01*
X152971028Y-93325980D01*
X152695252Y-93325980D01*
X152443884Y-93375980D01*
X146502681Y-93375980D01*
X145070322Y-91942341D01*
X145070322Y-90745000D01*
X145049084Y-90529362D01*
X144986184Y-90322012D01*
X144884042Y-90130916D01*
X144746581Y-89963419D01*
X144579084Y-89825958D01*
X144387988Y-89723816D01*
X144270606Y-89688208D01*
X144301468Y-89644094D01*
X144404312Y-89410100D01*
X144429547Y-89306531D01*
X144335737Y-89105000D01*
X142865000Y-89105000D01*
X142865000Y-89125000D01*
X142665000Y-89125000D01*
X142665000Y-89105000D01*
X141194263Y-89105000D01*
X141100453Y-89306531D01*
X141125688Y-89410100D01*
X141228532Y-89644094D01*
X141259394Y-89688208D01*
X141142012Y-89723816D01*
X140950916Y-89825958D01*
X140783419Y-89963419D01*
X140645958Y-90130916D01*
X140543816Y-90322012D01*
X140480916Y-90529362D01*
X140459678Y-90745000D01*
X140459678Y-92345000D01*
X140480916Y-92560638D01*
X140543816Y-92767988D01*
X140645958Y-92959084D01*
X140783419Y-93126581D01*
X140950916Y-93264042D01*
X141142012Y-93366184D01*
X141349362Y-93429084D01*
X141565000Y-93450322D01*
X142760286Y-93450322D01*
X144941458Y-95633444D01*
X144983927Y-95685193D01*
X145086217Y-95769141D01*
X145188986Y-95853558D01*
X145189257Y-95853703D01*
X145189491Y-95853895D01*
X145306407Y-95916388D01*
X145423457Y-95979019D01*
X145423747Y-95979107D01*
X145424018Y-95979252D01*
X145467736Y-95992514D01*
X145420878Y-96006728D01*
X145410915Y-96012053D01*
X145400159Y-96015512D01*
X145293751Y-96074679D01*
X145186351Y-96132085D01*
X145177615Y-96139254D01*
X145167744Y-96144743D01*
X145074912Y-96223540D01*
X145037663Y-96254110D01*
X145037508Y-96252535D01*
X144928864Y-95894383D01*
X144752436Y-95564309D01*
X144515003Y-95274997D01*
X144225691Y-95037564D01*
X143895617Y-94861136D01*
X143537465Y-94752492D01*
X143258337Y-94725000D01*
X142271663Y-94725000D01*
X141992535Y-94752492D01*
X141634383Y-94861136D01*
X141304309Y-95037564D01*
X141014997Y-95274997D01*
X140777564Y-95564309D01*
X140601136Y-95894383D01*
X140492492Y-96252535D01*
X140455807Y-96625000D01*
X140492492Y-96997465D01*
X140601136Y-97355617D01*
X140777564Y-97685691D01*
X140949340Y-97895000D01*
X140777564Y-98104309D01*
X140601136Y-98434383D01*
X140492492Y-98792535D01*
X140455807Y-99165000D01*
X140492492Y-99537465D01*
X140601136Y-99895617D01*
X140777564Y-100225691D01*
X141014997Y-100515003D01*
X141304309Y-100752436D01*
X141419419Y-100813963D01*
X141375050Y-100856472D01*
X141228532Y-101065906D01*
X141125688Y-101299900D01*
X141100453Y-101403469D01*
X141194263Y-101605000D01*
X142665000Y-101605000D01*
X142665000Y-101585000D01*
X142865000Y-101585000D01*
X142865000Y-101605000D01*
X144335737Y-101605000D01*
X144429547Y-101403469D01*
X144404312Y-101299900D01*
X144301468Y-101065906D01*
X144154950Y-100856472D01*
X144110581Y-100813963D01*
X144225691Y-100752436D01*
X144515003Y-100515003D01*
X144591618Y-100421648D01*
X144760026Y-100412872D01*
X144802502Y-100416345D01*
X144892533Y-100405967D01*
X144916483Y-100404719D01*
X144958382Y-100398377D01*
X145066679Y-100385893D01*
X145089655Y-100378505D01*
X145113523Y-100374892D01*
X145216062Y-100337858D01*
X145319840Y-100304488D01*
X145340937Y-100292758D01*
X145363637Y-100284559D01*
X145456967Y-100228241D01*
X145552255Y-100175258D01*
X145570659Y-100159636D01*
X145591323Y-100147167D01*
X145671880Y-100073717D01*
X145754992Y-100003169D01*
X145769992Y-99984261D01*
X145787829Y-99967997D01*
X145852510Y-99880240D01*
X145878844Y-99847044D01*
X145891836Y-99826883D01*
X145945605Y-99753932D01*
X145963711Y-99715354D01*
X146676050Y-98610000D01*
X154905812Y-98610000D01*
X156443390Y-100147578D01*
X156304884Y-100316348D01*
X156215208Y-100252239D01*
X155946637Y-100130913D01*
X155797899Y-100092407D01*
X155565000Y-100183641D01*
X155565000Y-102705000D01*
X155585000Y-102705000D01*
X155585000Y-102905000D01*
X155565000Y-102905000D01*
X155565000Y-105426359D01*
X155797899Y-105517593D01*
X155946637Y-105479087D01*
X156215208Y-105357761D01*
X156304884Y-105293651D01*
X156512892Y-105547109D01*
X156832658Y-105809535D01*
X157197477Y-106004535D01*
X157593329Y-106124615D01*
X158005000Y-106165161D01*
X158416672Y-106124615D01*
X158812524Y-106004535D01*
X159177343Y-105809535D01*
X159275001Y-105729389D01*
X159320795Y-105766972D01*
X150960755Y-111340333D01*
X150901351Y-111372085D01*
X150798979Y-111456100D01*
X150696791Y-111539784D01*
X150696335Y-111540338D01*
X150695787Y-111540788D01*
X150611947Y-111642947D01*
X150527875Y-111745172D01*
X150527539Y-111745798D01*
X150527085Y-111746352D01*
X150464570Y-111863310D01*
X150402272Y-111979568D01*
X150402065Y-111980249D01*
X150401728Y-111980879D01*
X150363269Y-112107662D01*
X150324811Y-112233963D01*
X150324741Y-112234671D01*
X150324533Y-112235355D01*
X150311559Y-112367088D01*
X150298469Y-112498581D01*
X150305000Y-112565609D01*
X150305000Y-113632284D01*
X150140336Y-113796948D01*
X149991848Y-114019177D01*
X149825430Y-113892046D01*
X149587825Y-113775506D01*
X149424375Y-113725928D01*
X149215000Y-113819088D01*
X149215000Y-114940000D01*
X149235000Y-114940000D01*
X149235000Y-115140000D01*
X149215000Y-115140000D01*
X149215000Y-116260912D01*
X149424375Y-116354072D01*
X149587825Y-116304494D01*
X149825430Y-116187954D01*
X149991848Y-116060823D01*
X150140336Y-116283052D01*
X150411948Y-116554664D01*
X150731329Y-116768067D01*
X150868777Y-116825000D01*
X138926820Y-116825000D01*
X138926820Y-115645136D01*
X138962011Y-115601272D01*
X138926820Y-115566081D01*
X138926820Y-115283239D01*
X139103432Y-115459851D01*
X139241133Y-115349376D01*
X147800924Y-115349376D01*
X147886530Y-115599795D01*
X148019345Y-115828701D01*
X148194266Y-116027298D01*
X148404570Y-116187954D01*
X148642175Y-116304494D01*
X148805625Y-116354072D01*
X149015000Y-116260912D01*
X149015000Y-115140000D01*
X147893705Y-115140000D01*
X147800924Y-115349376D01*
X139241133Y-115349376D01*
X139558678Y-115094616D01*
X139759062Y-114730624D01*
X147800924Y-114730624D01*
X147893705Y-114940000D01*
X149015000Y-114940000D01*
X149015000Y-113819088D01*
X148805625Y-113725928D01*
X148642175Y-113775506D01*
X148404570Y-113892046D01*
X148194266Y-114052702D01*
X148019345Y-114251299D01*
X147886530Y-114480205D01*
X147800924Y-114730624D01*
X139759062Y-114730624D01*
X139910173Y-114456138D01*
X140130354Y-113761356D01*
X140176013Y-113350000D01*
X143952581Y-113350000D01*
X143962235Y-113448017D01*
X143990825Y-113542267D01*
X144037254Y-113629129D01*
X144099736Y-113705264D01*
X144175871Y-113767746D01*
X144262733Y-113814175D01*
X144356983Y-113842765D01*
X144455000Y-113852419D01*
X145080000Y-113850000D01*
X145205000Y-113725000D01*
X145205000Y-112600000D01*
X145405000Y-112600000D01*
X145405000Y-113725000D01*
X145530000Y-113850000D01*
X146155000Y-113852419D01*
X146253017Y-113842765D01*
X146347267Y-113814175D01*
X146434129Y-113767746D01*
X146510264Y-113705264D01*
X146572746Y-113629129D01*
X146619175Y-113542267D01*
X146647765Y-113448017D01*
X146657419Y-113350000D01*
X146655000Y-112725000D01*
X146530000Y-112600000D01*
X145405000Y-112600000D01*
X145205000Y-112600000D01*
X144080000Y-112600000D01*
X143955000Y-112725000D01*
X143952581Y-113350000D01*
X140176013Y-113350000D01*
X140210759Y-113036968D01*
X140148297Y-112310813D01*
X139945371Y-111610797D01*
X139609777Y-110963819D01*
X139558678Y-110887344D01*
X139103432Y-110522109D01*
X138926820Y-110698721D01*
X138926820Y-110415879D01*
X138962011Y-110380688D01*
X138926820Y-110336824D01*
X138926820Y-107227942D01*
X143355000Y-107227942D01*
X143355000Y-107612058D01*
X143429938Y-107988794D01*
X143576933Y-108343671D01*
X143790336Y-108663052D01*
X143817284Y-108690000D01*
X143790336Y-108716948D01*
X143576933Y-109036329D01*
X143429938Y-109391206D01*
X143355000Y-109767942D01*
X143355000Y-110152058D01*
X143429938Y-110528794D01*
X143576933Y-110883671D01*
X143790336Y-111203052D01*
X144009702Y-111422418D01*
X143990825Y-111457733D01*
X143962235Y-111551983D01*
X143952581Y-111650000D01*
X143955000Y-112275000D01*
X144080000Y-112400000D01*
X145205000Y-112400000D01*
X145205000Y-112380000D01*
X145405000Y-112380000D01*
X145405000Y-112400000D01*
X146530000Y-112400000D01*
X146655000Y-112275000D01*
X146657419Y-111650000D01*
X146647765Y-111551983D01*
X146619175Y-111457733D01*
X146600298Y-111422418D01*
X146712716Y-111310000D01*
X147778681Y-111310000D01*
X147845000Y-111316532D01*
X147911319Y-111310000D01*
X147911321Y-111310000D01*
X148109646Y-111290467D01*
X148364122Y-111213272D01*
X148598649Y-111087915D01*
X148804213Y-110919213D01*
X148846491Y-110867697D01*
X151292698Y-108421490D01*
X151344213Y-108379213D01*
X151512915Y-108173649D01*
X151638272Y-107939122D01*
X151715467Y-107684646D01*
X151735000Y-107486321D01*
X151735000Y-107486312D01*
X151741531Y-107420001D01*
X151735000Y-107353690D01*
X151735000Y-105795043D01*
X151752658Y-105809535D01*
X152117477Y-106004535D01*
X152513329Y-106124615D01*
X152925000Y-106165161D01*
X153336672Y-106124615D01*
X153732524Y-106004535D01*
X154097343Y-105809535D01*
X154417109Y-105547109D01*
X154625116Y-105293652D01*
X154714792Y-105357761D01*
X154983363Y-105479087D01*
X155132101Y-105517593D01*
X155365000Y-105426359D01*
X155365000Y-102905000D01*
X155345000Y-102905000D01*
X155345000Y-102705000D01*
X155365000Y-102705000D01*
X155365000Y-100183641D01*
X155132101Y-100092407D01*
X154983363Y-100130913D01*
X154714792Y-100252239D01*
X154625116Y-100316348D01*
X154417109Y-100062891D01*
X154097343Y-99800465D01*
X153732523Y-99605465D01*
X153336671Y-99485385D01*
X152925000Y-99444839D01*
X152513328Y-99485385D01*
X152117476Y-99605465D01*
X151752657Y-99800465D01*
X151655000Y-99880610D01*
X151557343Y-99800465D01*
X151192523Y-99605465D01*
X150796671Y-99485385D01*
X150385000Y-99444839D01*
X149973328Y-99485385D01*
X149577476Y-99605465D01*
X149354532Y-99724631D01*
X149246484Y-99635958D01*
X149055388Y-99533816D01*
X148848038Y-99470916D01*
X148632400Y-99449678D01*
X147057600Y-99449678D01*
X146841962Y-99470916D01*
X146634612Y-99533816D01*
X146443516Y-99635958D01*
X146276019Y-99773419D01*
X146138558Y-99940916D01*
X146036416Y-100132012D01*
X145973516Y-100339362D01*
X145952278Y-100555000D01*
X145952278Y-105055000D01*
X145973516Y-105270638D01*
X146021615Y-105429196D01*
X145896478Y-105554334D01*
X145873794Y-105544938D01*
X145497058Y-105470000D01*
X145112942Y-105470000D01*
X144736206Y-105544938D01*
X144381329Y-105691933D01*
X144061948Y-105905336D01*
X143790336Y-106176948D01*
X143576933Y-106496329D01*
X143429938Y-106851206D01*
X143355000Y-107227942D01*
X138926820Y-107227942D01*
X138926820Y-102006531D01*
X141100453Y-102006531D01*
X141125688Y-102110100D01*
X141228532Y-102344094D01*
X141375050Y-102553528D01*
X141559611Y-102730353D01*
X141775123Y-102867775D01*
X142013304Y-102960512D01*
X142265000Y-103005000D01*
X142665000Y-103005000D01*
X142665000Y-101805000D01*
X142865000Y-101805000D01*
X142865000Y-103005000D01*
X143265000Y-103005000D01*
X143516696Y-102960512D01*
X143754877Y-102867775D01*
X143970389Y-102730353D01*
X144154950Y-102553528D01*
X144301468Y-102344094D01*
X144404312Y-102110100D01*
X144429547Y-102006531D01*
X144335737Y-101805000D01*
X142865000Y-101805000D01*
X142665000Y-101805000D01*
X141194263Y-101805000D01*
X141100453Y-102006531D01*
X138926820Y-102006531D01*
X138926820Y-86465000D01*
X140455807Y-86465000D01*
X140492492Y-86837465D01*
X140601136Y-87195617D01*
X140777564Y-87525691D01*
X141014997Y-87815003D01*
X141304309Y-88052436D01*
X141419419Y-88113963D01*
X141375050Y-88156472D01*
X141228532Y-88365906D01*
X141125688Y-88599900D01*
X141100453Y-88703469D01*
X141194263Y-88905000D01*
X142665000Y-88905000D01*
X142665000Y-88885000D01*
X142865000Y-88885000D01*
X142865000Y-88905000D01*
X144335737Y-88905000D01*
X144429547Y-88703469D01*
X144404312Y-88599900D01*
X144301468Y-88365906D01*
X144154950Y-88156472D01*
X144110581Y-88113963D01*
X144225691Y-88052436D01*
X144515003Y-87815003D01*
X144752436Y-87525691D01*
X144928864Y-87195617D01*
X145037508Y-86837465D01*
X145074193Y-86465000D01*
X145037508Y-86092535D01*
X144928864Y-85734383D01*
X144752436Y-85404309D01*
X144515003Y-85114997D01*
X144225691Y-84877564D01*
X143895617Y-84701136D01*
X143537465Y-84592492D01*
X143258337Y-84565000D01*
X142271663Y-84565000D01*
X141992535Y-84592492D01*
X141634383Y-84701136D01*
X141304309Y-84877564D01*
X141014997Y-85114997D01*
X140777564Y-85404309D01*
X140601136Y-85734383D01*
X140492492Y-86092535D01*
X140455807Y-86465000D01*
X138926820Y-86465000D01*
X138926820Y-75645136D01*
X138962011Y-75601272D01*
X138926820Y-75566081D01*
X138926820Y-75283239D01*
X139103432Y-75459851D01*
X139558678Y-75094616D01*
X139910173Y-74456138D01*
X140130354Y-73761356D01*
X140210759Y-73036968D01*
X140148297Y-72310813D01*
X139945371Y-71610797D01*
X139609777Y-70963819D01*
X139558678Y-70887344D01*
X139103432Y-70522109D01*
X138926820Y-70698721D01*
X138926820Y-70415879D01*
X138962011Y-70380688D01*
X138926820Y-70336824D01*
X138926820Y-69175000D01*
X143364035Y-69175000D01*
X141868488Y-70670548D01*
M02*
