M48
; DRILL file {KiCad (5.1.12)-1} date 01/17/22 10:13:44
; FORMAT={-:-/ absolute / inch / decimal}
; #@! TF.CreationDate,2022-01-17T10:13:44+01:00
; #@! TF.GenerationSoftware,Kicad,Pcbnew,(5.1.12)-1
; #@! TF.FileFunction,Plated,1,2,PTH
FMAT,2
INCH
T1C0.0157
T2C0.0315
T3C0.0354
T4C0.0394
T5C0.0433
T6C0.0472
T7C0.0512
T8C0.0531
T9C0.0591
T10C0.1260
%
G90
G05
T1
X7.4207Y-3.2541
T2
X4.8905Y-4.2204
X4.8905Y-4.5204
X5.0086Y-4.2204
X5.0086Y-4.5204
X5.1267Y-4.2204
X5.1267Y-4.5204
X5.3149Y-3.4041
X5.3149Y-3.5041
X5.3149Y-3.6041
X5.3157Y-3.8051
X5.3157Y-3.9051
X5.3157Y-4.0051
X5.6149Y-3.4041
X5.6149Y-3.5041
X5.6149Y-3.6041
X5.6157Y-3.8051
X5.6157Y-3.9051
X5.6157Y-4.0051
T3
X6.7015Y-2.8267
X7.1015Y-2.8267
T4
X4.8511Y-3.433
X4.8511Y-3.8267
X5.3236Y-2.4882
X5.3236Y-2.9212
X5.7207Y-4.2291
X5.7207Y-4.3291
X5.7207Y-4.4291
X5.8207Y-3.1041
X5.8207Y-3.2041
X5.8216Y-3.4039
X5.8216Y-4.0039
X5.9216Y-3.4039
X5.9216Y-4.0039
X5.9937Y-4.2791
X6.0216Y-3.4039
X6.0216Y-4.0039
X6.0937Y-4.2791
X6.1216Y-3.4039
X6.1216Y-4.0039
X6.1937Y-4.2791
X6.1957Y-2.8799
X6.1957Y-3.1791
X6.2216Y-3.4039
X6.2216Y-4.0039
X6.2937Y-4.2791
X6.3216Y-3.4039
X6.3216Y-4.0039
X6.4216Y-3.4039
X6.4216Y-4.0039
X6.5216Y-3.4039
X6.5216Y-4.0039
X6.6216Y-3.4039
X6.6216Y-4.0039
X6.7216Y-3.4039
X6.7216Y-4.0039
X6.8216Y-3.4039
X6.8216Y-4.0039
X6.9216Y-3.4039
X6.9216Y-4.0039
X7.0216Y-3.4039
X7.0216Y-4.0039
X7.1207Y-4.2791
X7.1216Y-3.4039
X7.1216Y-4.0039
X7.2207Y-4.2791
X7.2216Y-3.4039
X7.2216Y-4.0039
X7.3207Y-4.2791
X7.4207Y-4.2791
X7.5207Y-4.2791
T5
X4.2844Y-3.7897
X4.2844Y-3.8897
X4.2844Y-3.9897
X7.2685Y-2.8976
X7.3685Y-2.8976
X7.4685Y-2.8976
T6
X5.0874Y-3.2267
X5.0874Y-3.8267
T7
X4.3Y-2.4882
X4.4968Y-2.4882
X4.8905Y-2.4882
X5.0874Y-2.4882
X5.737Y-2.4882
X5.9338Y-2.4882
X7.0322Y-2.4882
X7.2291Y-2.4882
X7.4811Y-2.4882
X7.6779Y-2.4882
T8
X4.3Y-2.9212
X4.4968Y-2.9212
X4.8905Y-2.9212
X5.0874Y-2.9212
T9
X4.3393Y-3.1771
T10
X6.4456Y-2.4488
X6.7212Y-4.3189
X7.736Y-4.4485
T0
M30
