G04 #@! TF.GenerationSoftware,KiCad,Pcbnew,(5.1.12)-1*
G04 #@! TF.CreationDate,2022-01-17T10:13:42+01:00*
G04 #@! TF.ProjectId,arduino_nano_reflow_TRIAC_v1_0,61726475-696e-46f5-9f6e-616e6f5f7265,1.0*
G04 #@! TF.SameCoordinates,Original*
G04 #@! TF.FileFunction,Soldermask,Top*
G04 #@! TF.FilePolarity,Negative*
%FSLAX46Y46*%
G04 Gerber Fmt 4.6, Leading zero omitted, Abs format (unit mm)*
G04 Created by KiCad (PCBNEW (5.1.12)-1) date 2022-01-17 10:13:42*
%MOMM*%
%LPD*%
G01*
G04 APERTURE LIST*
%ADD10R,1.700000X1.700000*%
%ADD11C,6.400000*%
%ADD12O,1.800000X1.800000*%
%ADD13R,1.800000X1.800000*%
%ADD14O,2.400000X2.400000*%
%ADD15C,2.400000*%
%ADD16C,2.000000*%
%ADD17C,2.600000*%
%ADD18R,2.600000X2.600000*%
%ADD19O,1.700000X1.700000*%
%ADD20O,1.600000X1.600000*%
%ADD21R,1.600000X1.600000*%
%ADD22C,1.600000*%
%ADD23O,2.000000X1.905000*%
%ADD24R,2.000000X1.905000*%
%ADD25O,1.905000X2.000000*%
%ADD26R,1.905000X2.000000*%
%ADD27R,2.000000X2.000000*%
%ADD28C,2.350000*%
G04 APERTURE END LIST*
D10*
X135218820Y-74199260D03*
X135218820Y-63199260D03*
D11*
X163718820Y-62199260D03*
D12*
X180378820Y-71799260D03*
D13*
X170218820Y-71799260D03*
D14*
X129218820Y-81959260D03*
D15*
X129218820Y-97199260D03*
D16*
X123218820Y-97199260D03*
X123218820Y-87199260D03*
G36*
G01*
X196723820Y-86939260D02*
X197023820Y-86939260D01*
G75*
G02*
X197173820Y-87089260I0J-150000D01*
G01*
X197173820Y-88539260D01*
G75*
G02*
X197023820Y-88689260I-150000J0D01*
G01*
X196723820Y-88689260D01*
G75*
G02*
X196573820Y-88539260I0J150000D01*
G01*
X196573820Y-87089260D01*
G75*
G02*
X196723820Y-86939260I150000J0D01*
G01*
G37*
G36*
G01*
X195453820Y-86939260D02*
X195753820Y-86939260D01*
G75*
G02*
X195903820Y-87089260I0J-150000D01*
G01*
X195903820Y-88539260D01*
G75*
G02*
X195753820Y-88689260I-150000J0D01*
G01*
X195453820Y-88689260D01*
G75*
G02*
X195303820Y-88539260I0J150000D01*
G01*
X195303820Y-87089260D01*
G75*
G02*
X195453820Y-86939260I150000J0D01*
G01*
G37*
G36*
G01*
X194183820Y-86939260D02*
X194483820Y-86939260D01*
G75*
G02*
X194633820Y-87089260I0J-150000D01*
G01*
X194633820Y-88539260D01*
G75*
G02*
X194483820Y-88689260I-150000J0D01*
G01*
X194183820Y-88689260D01*
G75*
G02*
X194033820Y-88539260I0J150000D01*
G01*
X194033820Y-87089260D01*
G75*
G02*
X194183820Y-86939260I150000J0D01*
G01*
G37*
G36*
G01*
X192913820Y-86939260D02*
X193213820Y-86939260D01*
G75*
G02*
X193363820Y-87089260I0J-150000D01*
G01*
X193363820Y-88539260D01*
G75*
G02*
X193213820Y-88689260I-150000J0D01*
G01*
X192913820Y-88689260D01*
G75*
G02*
X192763820Y-88539260I0J150000D01*
G01*
X192763820Y-87089260D01*
G75*
G02*
X192913820Y-86939260I150000J0D01*
G01*
G37*
G36*
G01*
X192913820Y-81789260D02*
X193213820Y-81789260D01*
G75*
G02*
X193363820Y-81939260I0J-150000D01*
G01*
X193363820Y-83389260D01*
G75*
G02*
X193213820Y-83539260I-150000J0D01*
G01*
X192913820Y-83539260D01*
G75*
G02*
X192763820Y-83389260I0J150000D01*
G01*
X192763820Y-81939260D01*
G75*
G02*
X192913820Y-81789260I150000J0D01*
G01*
G37*
G36*
G01*
X194183820Y-81789260D02*
X194483820Y-81789260D01*
G75*
G02*
X194633820Y-81939260I0J-150000D01*
G01*
X194633820Y-83389260D01*
G75*
G02*
X194483820Y-83539260I-150000J0D01*
G01*
X194183820Y-83539260D01*
G75*
G02*
X194033820Y-83389260I0J150000D01*
G01*
X194033820Y-81939260D01*
G75*
G02*
X194183820Y-81789260I150000J0D01*
G01*
G37*
G36*
G01*
X195453820Y-81789260D02*
X195753820Y-81789260D01*
G75*
G02*
X195903820Y-81939260I0J-150000D01*
G01*
X195903820Y-83389260D01*
G75*
G02*
X195753820Y-83539260I-150000J0D01*
G01*
X195453820Y-83539260D01*
G75*
G02*
X195303820Y-83389260I0J150000D01*
G01*
X195303820Y-81939260D01*
G75*
G02*
X195453820Y-81789260I150000J0D01*
G01*
G37*
G36*
G01*
X196723820Y-81789260D02*
X197023820Y-81789260D01*
G75*
G02*
X197173820Y-81939260I0J-150000D01*
G01*
X197173820Y-83389260D01*
G75*
G02*
X197023820Y-83539260I-150000J0D01*
G01*
X196723820Y-83539260D01*
G75*
G02*
X196573820Y-83389260I0J150000D01*
G01*
X196573820Y-81939260D01*
G75*
G02*
X196723820Y-81789260I150000J0D01*
G01*
G37*
D17*
X190018820Y-63199260D03*
D18*
X195018820Y-63199260D03*
G36*
G01*
X190343820Y-80649260D02*
X191293820Y-80649260D01*
G75*
G02*
X191543820Y-80899260I0J-250000D01*
G01*
X191543820Y-81399260D01*
G75*
G02*
X191293820Y-81649260I-250000J0D01*
G01*
X190343820Y-81649260D01*
G75*
G02*
X190093820Y-81399260I0J250000D01*
G01*
X190093820Y-80899260D01*
G75*
G02*
X190343820Y-80649260I250000J0D01*
G01*
G37*
G36*
G01*
X190343820Y-78749260D02*
X191293820Y-78749260D01*
G75*
G02*
X191543820Y-78999260I0J-250000D01*
G01*
X191543820Y-79499260D01*
G75*
G02*
X191293820Y-79749260I-250000J0D01*
G01*
X190343820Y-79749260D01*
G75*
G02*
X190093820Y-79499260I0J250000D01*
G01*
X190093820Y-78999260D01*
G75*
G02*
X190343820Y-78749260I250000J0D01*
G01*
G37*
D19*
X159858820Y-108690000D03*
X157318820Y-108690000D03*
X154778820Y-108690000D03*
D10*
X152238820Y-108690000D03*
D17*
X178618820Y-63199260D03*
D18*
X183618820Y-63199260D03*
D20*
X183428820Y-86459260D03*
X183428820Y-101699260D03*
X147868820Y-86459260D03*
X180888820Y-101699260D03*
X150408820Y-86459260D03*
X178348820Y-101699260D03*
X152948820Y-86459260D03*
X175808820Y-101699260D03*
X155488820Y-86459260D03*
X173268820Y-101699260D03*
X158028820Y-86459260D03*
X170728820Y-101699260D03*
X160568820Y-86459260D03*
X168188820Y-101699260D03*
X163108820Y-86459260D03*
X165648820Y-101699260D03*
X165648820Y-86459260D03*
X163108820Y-101699260D03*
X168188820Y-86459260D03*
X160568820Y-101699260D03*
X170728820Y-86459260D03*
X158028820Y-101699260D03*
X173268820Y-86459260D03*
X155488820Y-101699260D03*
X175808820Y-86459260D03*
X152948820Y-101699260D03*
X178348820Y-86459260D03*
X150408820Y-101699260D03*
X180888820Y-86459260D03*
D21*
X147868820Y-101699260D03*
D20*
X124218820Y-114819260D03*
D22*
X124218820Y-107199260D03*
D20*
X134998820Y-91545000D03*
X142618820Y-86465000D03*
X134998820Y-89005000D03*
X142618820Y-89005000D03*
X134998820Y-86465000D03*
D21*
X142618820Y-91545000D03*
D20*
X142638820Y-96649260D03*
X135018820Y-101729260D03*
X142638820Y-99189260D03*
X135018820Y-99189260D03*
X142638820Y-101729260D03*
D21*
X135018820Y-96649260D03*
D23*
X108823820Y-101339260D03*
X108823820Y-98799260D03*
D24*
X108823820Y-96259260D03*
G36*
G01*
X156443820Y-105930510D02*
X156443820Y-105418010D01*
G75*
G02*
X156662570Y-105199260I218750J0D01*
G01*
X157100070Y-105199260D01*
G75*
G02*
X157318820Y-105418010I0J-218750D01*
G01*
X157318820Y-105930510D01*
G75*
G02*
X157100070Y-106149260I-218750J0D01*
G01*
X156662570Y-106149260D01*
G75*
G02*
X156443820Y-105930510I0J218750D01*
G01*
G37*
G36*
G01*
X154868820Y-105930510D02*
X154868820Y-105418010D01*
G75*
G02*
X155087570Y-105199260I218750J0D01*
G01*
X155525070Y-105199260D01*
G75*
G02*
X155743820Y-105418010I0J-218750D01*
G01*
X155743820Y-105930510D01*
G75*
G02*
X155525070Y-106149260I-218750J0D01*
G01*
X155087570Y-106149260D01*
G75*
G02*
X154868820Y-105930510I0J218750D01*
G01*
G37*
D11*
X170718820Y-109699260D03*
X196493140Y-112990980D03*
D25*
X189698820Y-73599260D03*
X187158820Y-73599260D03*
D26*
X184618820Y-73599260D03*
D20*
X127218820Y-107199260D03*
D22*
X127218820Y-114819260D03*
D20*
X130218820Y-107199260D03*
D22*
X130218820Y-114819260D03*
D16*
X157370000Y-73150000D03*
D27*
X157370000Y-80750000D03*
G36*
G01*
X183468820Y-83530510D02*
X183468820Y-82618010D01*
G75*
G02*
X183712570Y-82374260I243750J0D01*
G01*
X184200070Y-82374260D01*
G75*
G02*
X184443820Y-82618010I0J-243750D01*
G01*
X184443820Y-83530510D01*
G75*
G02*
X184200070Y-83774260I-243750J0D01*
G01*
X183712570Y-83774260D01*
G75*
G02*
X183468820Y-83530510I0J243750D01*
G01*
G37*
G36*
G01*
X181593820Y-83530510D02*
X181593820Y-82618010D01*
G75*
G02*
X181837570Y-82374260I243750J0D01*
G01*
X182325070Y-82374260D01*
G75*
G02*
X182568820Y-82618010I0J-243750D01*
G01*
X182568820Y-83530510D01*
G75*
G02*
X182325070Y-83774260I-243750J0D01*
G01*
X181837570Y-83774260D01*
G75*
G02*
X181593820Y-83530510I0J243750D01*
G01*
G37*
G36*
G01*
X176093820Y-76524260D02*
X173943820Y-76524260D01*
G75*
G02*
X173693820Y-76274260I0J250000D01*
G01*
X173693820Y-75524260D01*
G75*
G02*
X173943820Y-75274260I250000J0D01*
G01*
X176093820Y-75274260D01*
G75*
G02*
X176343820Y-75524260I0J-250000D01*
G01*
X176343820Y-76274260D01*
G75*
G02*
X176093820Y-76524260I-250000J0D01*
G01*
G37*
G36*
G01*
X176093820Y-79324260D02*
X173943820Y-79324260D01*
G75*
G02*
X173693820Y-79074260I0J250000D01*
G01*
X173693820Y-78324260D01*
G75*
G02*
X173943820Y-78074260I250000J0D01*
G01*
X176093820Y-78074260D01*
G75*
G02*
X176343820Y-78324260I0J-250000D01*
G01*
X176343820Y-79074260D01*
G75*
G02*
X176093820Y-79324260I-250000J0D01*
G01*
G37*
G36*
G01*
X182043820Y-77624260D02*
X182043820Y-79774260D01*
G75*
G02*
X181793820Y-80024260I-250000J0D01*
G01*
X181043820Y-80024260D01*
G75*
G02*
X180793820Y-79774260I0J250000D01*
G01*
X180793820Y-77624260D01*
G75*
G02*
X181043820Y-77374260I250000J0D01*
G01*
X181793820Y-77374260D01*
G75*
G02*
X182043820Y-77624260I0J-250000D01*
G01*
G37*
G36*
G01*
X184843820Y-77624260D02*
X184843820Y-79774260D01*
G75*
G02*
X184593820Y-80024260I-250000J0D01*
G01*
X183843820Y-80024260D01*
G75*
G02*
X183593820Y-79774260I0J250000D01*
G01*
X183593820Y-77624260D01*
G75*
G02*
X183843820Y-77374260I250000J0D01*
G01*
X184593820Y-77374260D01*
G75*
G02*
X184843820Y-77624260I0J-250000D01*
G01*
G37*
D19*
X191025000Y-108690000D03*
X188485000Y-108690000D03*
X185945000Y-108690000D03*
X183405000Y-108690000D03*
D10*
X180865000Y-108690000D03*
D17*
X124218820Y-63199260D03*
D18*
X129218820Y-63199260D03*
D17*
X109218820Y-63199260D03*
D18*
X114218820Y-63199260D03*
D17*
X145718820Y-63199260D03*
D18*
X150718820Y-63199260D03*
D10*
X147845000Y-81385000D03*
D19*
X147845000Y-78845000D03*
D10*
X145305000Y-112500000D03*
D19*
X145305000Y-109960000D03*
X145305000Y-107420000D03*
D28*
X124218820Y-74199260D03*
X129218820Y-74199260D03*
X114218820Y-74199260D03*
X109218820Y-74199260D03*
M02*
