G04 #@! TF.GenerationSoftware,KiCad,Pcbnew,(5.1.12)-1*
G04 #@! TF.CreationDate,2022-01-17T10:13:42+01:00*
G04 #@! TF.ProjectId,arduino_nano_reflow_TRIAC_v1_0,61726475-696e-46f5-9f6e-616e6f5f7265,1.0*
G04 #@! TF.SameCoordinates,Original*
G04 #@! TF.FileFunction,Copper,L2,Bot*
G04 #@! TF.FilePolarity,Positive*
%FSLAX46Y46*%
G04 Gerber Fmt 4.6, Leading zero omitted, Abs format (unit mm)*
G04 Created by KiCad (PCBNEW (5.1.12)-1) date 2022-01-17 10:13:42*
%MOMM*%
%LPD*%
G01*
G04 APERTURE LIST*
G04 #@! TA.AperFunction,ComponentPad*
%ADD10R,1.700000X1.700000*%
G04 #@! TD*
G04 #@! TA.AperFunction,ComponentPad*
%ADD11C,6.400000*%
G04 #@! TD*
G04 #@! TA.AperFunction,ComponentPad*
%ADD12O,1.800000X1.800000*%
G04 #@! TD*
G04 #@! TA.AperFunction,ComponentPad*
%ADD13R,1.800000X1.800000*%
G04 #@! TD*
G04 #@! TA.AperFunction,ComponentPad*
%ADD14O,2.400000X2.400000*%
G04 #@! TD*
G04 #@! TA.AperFunction,ComponentPad*
%ADD15C,2.400000*%
G04 #@! TD*
G04 #@! TA.AperFunction,ComponentPad*
%ADD16C,2.000000*%
G04 #@! TD*
G04 #@! TA.AperFunction,ComponentPad*
%ADD17C,2.600000*%
G04 #@! TD*
G04 #@! TA.AperFunction,ComponentPad*
%ADD18R,2.600000X2.600000*%
G04 #@! TD*
G04 #@! TA.AperFunction,ComponentPad*
%ADD19O,1.700000X1.700000*%
G04 #@! TD*
G04 #@! TA.AperFunction,ComponentPad*
%ADD20O,1.600000X1.600000*%
G04 #@! TD*
G04 #@! TA.AperFunction,ComponentPad*
%ADD21R,1.600000X1.600000*%
G04 #@! TD*
G04 #@! TA.AperFunction,ComponentPad*
%ADD22C,1.600000*%
G04 #@! TD*
G04 #@! TA.AperFunction,ComponentPad*
%ADD23O,2.000000X1.905000*%
G04 #@! TD*
G04 #@! TA.AperFunction,ComponentPad*
%ADD24R,2.000000X1.905000*%
G04 #@! TD*
G04 #@! TA.AperFunction,ComponentPad*
%ADD25O,1.905000X2.000000*%
G04 #@! TD*
G04 #@! TA.AperFunction,ComponentPad*
%ADD26R,1.905000X2.000000*%
G04 #@! TD*
G04 #@! TA.AperFunction,ComponentPad*
%ADD27R,2.000000X2.000000*%
G04 #@! TD*
G04 #@! TA.AperFunction,ComponentPad*
%ADD28C,2.350000*%
G04 #@! TD*
G04 #@! TA.AperFunction,ViaPad*
%ADD29C,0.600000*%
G04 #@! TD*
G04 #@! TA.AperFunction,ViaPad*
%ADD30C,3.000000*%
G04 #@! TD*
G04 #@! TA.AperFunction,Conductor*
%ADD31C,0.500000*%
G04 #@! TD*
G04 #@! TA.AperFunction,Conductor*
%ADD32C,0.750000*%
G04 #@! TD*
G04 #@! TA.AperFunction,Conductor*
%ADD33C,1.000000*%
G04 #@! TD*
G04 #@! TA.AperFunction,Conductor*
%ADD34C,2.000000*%
G04 #@! TD*
G04 #@! TA.AperFunction,Conductor*
%ADD35C,0.200000*%
G04 #@! TD*
G04 #@! TA.AperFunction,Conductor*
%ADD36C,0.100000*%
G04 #@! TD*
G04 APERTURE END LIST*
D10*
X135218820Y-74199260D03*
X135218820Y-63199260D03*
D11*
X163718820Y-62199260D03*
D12*
X180378820Y-71799260D03*
D13*
X170218820Y-71799260D03*
D14*
X129218820Y-81959260D03*
D15*
X129218820Y-97199260D03*
D16*
X123218820Y-97199260D03*
X123218820Y-87199260D03*
D17*
X190018820Y-63199260D03*
D18*
X195018820Y-63199260D03*
D19*
X159858820Y-108690000D03*
X157318820Y-108690000D03*
X154778820Y-108690000D03*
D10*
X152238820Y-108690000D03*
D17*
X178618820Y-63199260D03*
D18*
X183618820Y-63199260D03*
D20*
X183428820Y-86459260D03*
X183428820Y-101699260D03*
X147868820Y-86459260D03*
X180888820Y-101699260D03*
X150408820Y-86459260D03*
X178348820Y-101699260D03*
X152948820Y-86459260D03*
X175808820Y-101699260D03*
X155488820Y-86459260D03*
X173268820Y-101699260D03*
X158028820Y-86459260D03*
X170728820Y-101699260D03*
X160568820Y-86459260D03*
X168188820Y-101699260D03*
X163108820Y-86459260D03*
X165648820Y-101699260D03*
X165648820Y-86459260D03*
X163108820Y-101699260D03*
X168188820Y-86459260D03*
X160568820Y-101699260D03*
X170728820Y-86459260D03*
X158028820Y-101699260D03*
X173268820Y-86459260D03*
X155488820Y-101699260D03*
X175808820Y-86459260D03*
X152948820Y-101699260D03*
X178348820Y-86459260D03*
X150408820Y-101699260D03*
X180888820Y-86459260D03*
D21*
X147868820Y-101699260D03*
D20*
X124218820Y-114819260D03*
D22*
X124218820Y-107199260D03*
D20*
X134998820Y-91545000D03*
X142618820Y-86465000D03*
X134998820Y-89005000D03*
X142618820Y-89005000D03*
X134998820Y-86465000D03*
D21*
X142618820Y-91545000D03*
D20*
X142638820Y-96649260D03*
X135018820Y-101729260D03*
X142638820Y-99189260D03*
X135018820Y-99189260D03*
X142638820Y-101729260D03*
D21*
X135018820Y-96649260D03*
D23*
X108823820Y-101339260D03*
X108823820Y-98799260D03*
D24*
X108823820Y-96259260D03*
D11*
X170718820Y-109699260D03*
X196493140Y-112990980D03*
D25*
X189698820Y-73599260D03*
X187158820Y-73599260D03*
D26*
X184618820Y-73599260D03*
D20*
X127218820Y-107199260D03*
D22*
X127218820Y-114819260D03*
D20*
X130218820Y-107199260D03*
D22*
X130218820Y-114819260D03*
D16*
X157370000Y-73150000D03*
D27*
X157370000Y-80750000D03*
D19*
X191025000Y-108690000D03*
X188485000Y-108690000D03*
X185945000Y-108690000D03*
X183405000Y-108690000D03*
D10*
X180865000Y-108690000D03*
D17*
X124218820Y-63199260D03*
D18*
X129218820Y-63199260D03*
D17*
X109218820Y-63199260D03*
D18*
X114218820Y-63199260D03*
D17*
X145718820Y-63199260D03*
D18*
X150718820Y-63199260D03*
D10*
X147845000Y-81385000D03*
D19*
X147845000Y-78845000D03*
D10*
X145305000Y-112500000D03*
D19*
X145305000Y-109960000D03*
X145305000Y-107420000D03*
D28*
X124218820Y-74199260D03*
X129218820Y-74199260D03*
X114218820Y-74199260D03*
X109218820Y-74199260D03*
D29*
X188485000Y-82655000D03*
D30*
X110218820Y-80699260D03*
D31*
X158005000Y-99800000D02*
X158005000Y-101705000D01*
X142765000Y-99165000D02*
X144780000Y-99060000D01*
X144780000Y-99060000D02*
X145940000Y-97260000D01*
X145940000Y-97260000D02*
X155465000Y-97260000D01*
X155465000Y-97260000D02*
X158005000Y-99800000D01*
X183405000Y-104880000D02*
X180865000Y-106785000D01*
X180865000Y-106785000D02*
X180865000Y-108690000D01*
X183405000Y-101705000D02*
X183405000Y-104880000D01*
D32*
X188485000Y-82655000D02*
X188485000Y-108690000D01*
D33*
X181475740Y-115699260D02*
X188485000Y-108690000D01*
X161718820Y-115699260D02*
X181475740Y-115699260D01*
X156128820Y-113309260D02*
X159328820Y-113309260D01*
X154778820Y-111959260D02*
X156128820Y-113309260D01*
X159328820Y-113309260D02*
X161718820Y-115699260D01*
X154778820Y-108389260D02*
X154778820Y-111959260D01*
D32*
X187029260Y-81199260D02*
X188485000Y-82655000D01*
X177504260Y-81199260D02*
X187029260Y-81199260D01*
X171975000Y-75670000D02*
X177504260Y-81199260D01*
X156735000Y-75670000D02*
X171975000Y-75670000D01*
X153560000Y-78845000D02*
X156735000Y-75670000D01*
X153560000Y-82020000D02*
X153560000Y-78845000D01*
X155465000Y-83290000D02*
X153560000Y-82020000D01*
X155465000Y-86465000D02*
X155465000Y-83290000D01*
D31*
X185310000Y-99800000D02*
X185310000Y-105515000D01*
X183405000Y-106785000D02*
X185310000Y-105515000D01*
X173245000Y-87735000D02*
X173245000Y-86465000D01*
X183405000Y-108690000D02*
X183405000Y-106785000D01*
X173245000Y-87735000D02*
X185310000Y-99800000D01*
X185945000Y-108690000D02*
X185945000Y-106785000D01*
X185945000Y-106785000D02*
X186580000Y-106150000D01*
X186580000Y-106150000D02*
X186580000Y-98530000D01*
X183405000Y-95355000D02*
X183405000Y-86465000D01*
X186580000Y-98530000D02*
X183405000Y-95355000D01*
D32*
X147845000Y-86465000D02*
X147845000Y-81385000D01*
D34*
X134998820Y-86465000D02*
X130953080Y-86465000D01*
X130953080Y-86465000D02*
X124218820Y-93199260D01*
X124218820Y-93199260D02*
X120718820Y-93199260D01*
X112578820Y-101339260D02*
X108823820Y-101339260D01*
X120718820Y-93199260D02*
X112578820Y-101339260D01*
D33*
X135018820Y-96649260D02*
X133768820Y-96649260D01*
X127218820Y-103199260D02*
X127218820Y-107199260D01*
X133768820Y-96649260D02*
X127218820Y-103199260D01*
D31*
X157370000Y-80750000D02*
X161815000Y-80750000D01*
X163085000Y-82020000D02*
X161815000Y-80750000D01*
X163085000Y-82020000D02*
X163085000Y-86465000D01*
D34*
X108823820Y-96259260D02*
X111158820Y-96259260D01*
X120218820Y-87199260D02*
X123218820Y-87199260D01*
X111158820Y-96259260D02*
X120218820Y-87199260D01*
X109218820Y-66699260D02*
X109218820Y-63199260D01*
X111218820Y-68699260D02*
X109218820Y-66699260D01*
X115718820Y-68699260D02*
X111218820Y-68699260D01*
X119218820Y-72199260D02*
X115718820Y-68699260D01*
X119218820Y-80199260D02*
X119218820Y-72199260D01*
X123218820Y-84199260D02*
X119218820Y-80199260D01*
X123218820Y-87199260D02*
X123218820Y-84199260D01*
X108823820Y-98799260D02*
X105618820Y-98799260D01*
X105618820Y-98799260D02*
X104218820Y-100199260D01*
X104218820Y-100199260D02*
X104218820Y-111199260D01*
X107838820Y-114819260D02*
X127218820Y-114819260D01*
X104218820Y-111199260D02*
X107838820Y-114819260D01*
X105618820Y-98799260D02*
X105618820Y-85299260D01*
X105618820Y-85299260D02*
X110218820Y-80699260D01*
X110218820Y-80699260D02*
X110218820Y-80699260D01*
D31*
X150385000Y-101705000D02*
X150385000Y-107420000D01*
X150385000Y-107420000D02*
X147845000Y-109960000D01*
X147845000Y-109960000D02*
X145305000Y-109960000D01*
X147845000Y-105515000D02*
X145940000Y-107420000D01*
X147845000Y-101705000D02*
X147845000Y-105515000D01*
X165648820Y-102599260D02*
X165648820Y-101699260D01*
X159858820Y-108389260D02*
X165648820Y-102599260D01*
X163108820Y-102599260D02*
X163108820Y-101699260D01*
X157318820Y-108389260D02*
X163108820Y-102599260D01*
D35*
X161249949Y-59588968D02*
X163718820Y-62057839D01*
X166187691Y-59588968D01*
X165854979Y-59174260D01*
X199243821Y-59174260D01*
X199243820Y-110634740D01*
X199103432Y-110522109D01*
X196634561Y-112990980D01*
X199103432Y-115459851D01*
X199243820Y-115347220D01*
X199243820Y-116824714D01*
X198501429Y-116825000D01*
X182621699Y-116825000D01*
X182662693Y-116775048D01*
X183836469Y-115601272D01*
X194024269Y-115601272D01*
X194389504Y-116056518D01*
X195027982Y-116408013D01*
X195722764Y-116628194D01*
X196447152Y-116708599D01*
X197173307Y-116646137D01*
X197873323Y-116443211D01*
X198520301Y-116107617D01*
X198596776Y-116056518D01*
X198962011Y-115601272D01*
X196493140Y-113132401D01*
X194024269Y-115601272D01*
X183836469Y-115601272D01*
X186492749Y-112944992D01*
X192775521Y-112944992D01*
X192837983Y-113671147D01*
X193040909Y-114371163D01*
X193376503Y-115018141D01*
X193427602Y-115094616D01*
X193882848Y-115459851D01*
X196351719Y-112990980D01*
X193882848Y-110522109D01*
X193427602Y-110887344D01*
X193076107Y-111525822D01*
X192855926Y-112220604D01*
X192775521Y-112944992D01*
X186492749Y-112944992D01*
X188827708Y-110610034D01*
X189053794Y-110565062D01*
X189408671Y-110418067D01*
X189464612Y-110380688D01*
X194024269Y-110380688D01*
X196493140Y-112849559D01*
X198962011Y-110380688D01*
X198596776Y-109925442D01*
X197958298Y-109573947D01*
X197263516Y-109353766D01*
X196539128Y-109273361D01*
X195812973Y-109335823D01*
X195112957Y-109538749D01*
X194465979Y-109874343D01*
X194389504Y-109925442D01*
X194024269Y-110380688D01*
X189464612Y-110380688D01*
X189728052Y-110204664D01*
X189999664Y-109933052D01*
X190148152Y-109710823D01*
X190314570Y-109837954D01*
X190552175Y-109954494D01*
X190715625Y-110004072D01*
X190925000Y-109910912D01*
X190925000Y-108790000D01*
X191125000Y-108790000D01*
X191125000Y-109910912D01*
X191334375Y-110004072D01*
X191497825Y-109954494D01*
X191735430Y-109837954D01*
X191945734Y-109677298D01*
X192120655Y-109478701D01*
X192253470Y-109249795D01*
X192339076Y-108999376D01*
X192246295Y-108790000D01*
X191125000Y-108790000D01*
X190925000Y-108790000D01*
X190905000Y-108790000D01*
X190905000Y-108590000D01*
X190925000Y-108590000D01*
X190925000Y-107469088D01*
X191125000Y-107469088D01*
X191125000Y-108590000D01*
X192246295Y-108590000D01*
X192339076Y-108380624D01*
X192253470Y-108130205D01*
X192120655Y-107901299D01*
X191945734Y-107702702D01*
X191735430Y-107542046D01*
X191497825Y-107425506D01*
X191334375Y-107375928D01*
X191125000Y-107469088D01*
X190925000Y-107469088D01*
X190715625Y-107375928D01*
X190552175Y-107425506D01*
X190314570Y-107542046D01*
X190148152Y-107669177D01*
X189999664Y-107446948D01*
X189960000Y-107407284D01*
X189960000Y-82727444D01*
X189967135Y-82654999D01*
X189960000Y-82582554D01*
X189960000Y-82582548D01*
X189938657Y-82365850D01*
X189938122Y-82364084D01*
X189914024Y-82284645D01*
X189854315Y-82087811D01*
X189717351Y-81831569D01*
X189647507Y-81746465D01*
X189579213Y-81663248D01*
X189579208Y-81663243D01*
X189533027Y-81606972D01*
X189476757Y-81560793D01*
X188123476Y-80207512D01*
X188077288Y-80151232D01*
X187852691Y-79966909D01*
X187596449Y-79829945D01*
X187318410Y-79745603D01*
X187101712Y-79724260D01*
X187101705Y-79724260D01*
X187029260Y-79717125D01*
X186956815Y-79724260D01*
X178115225Y-79724260D01*
X173069216Y-74678252D01*
X173023028Y-74621972D01*
X172798431Y-74437649D01*
X172542189Y-74300685D01*
X172264150Y-74216343D01*
X172047452Y-74195000D01*
X172047445Y-74195000D01*
X171975000Y-74187865D01*
X171902555Y-74195000D01*
X158455900Y-74195000D01*
X158506162Y-74144738D01*
X158415555Y-74054131D01*
X158645489Y-73953091D01*
X158777656Y-73688824D01*
X158855728Y-73403850D01*
X158876703Y-73109121D01*
X158839777Y-72815963D01*
X158746369Y-72535642D01*
X158645489Y-72346909D01*
X158415554Y-72245868D01*
X157511421Y-73150000D01*
X157525564Y-73164142D01*
X157384142Y-73305564D01*
X157370000Y-73291421D01*
X156465868Y-74195554D01*
X156473794Y-74213591D01*
X156445849Y-74216343D01*
X156167811Y-74300685D01*
X155911569Y-74437649D01*
X155686972Y-74621972D01*
X155640788Y-74678247D01*
X152568248Y-77750788D01*
X152511973Y-77796972D01*
X152327650Y-78021569D01*
X152254441Y-78158534D01*
X152190685Y-78277812D01*
X152106343Y-78555850D01*
X152077865Y-78845000D01*
X152085001Y-78917455D01*
X152085000Y-81948323D01*
X152077865Y-82021550D01*
X152092145Y-82164991D01*
X152106343Y-82309149D01*
X152106570Y-82309898D01*
X152106647Y-82310670D01*
X152148667Y-82448672D01*
X152190685Y-82587188D01*
X152191052Y-82587875D01*
X152191279Y-82588620D01*
X152259577Y-82716076D01*
X152327649Y-82843430D01*
X152328143Y-82844031D01*
X152328511Y-82844719D01*
X152420590Y-82956679D01*
X152511972Y-83068027D01*
X152512571Y-83068519D01*
X152513069Y-83069124D01*
X152624962Y-83160757D01*
X152736569Y-83252351D01*
X152801462Y-83287037D01*
X153990001Y-84079397D01*
X153990001Y-84869845D01*
X153848807Y-84775502D01*
X153503029Y-84632276D01*
X153135954Y-84559260D01*
X152761686Y-84559260D01*
X152394611Y-84632276D01*
X152048833Y-84775502D01*
X151737641Y-84983434D01*
X151472994Y-85248081D01*
X151297251Y-85511098D01*
X151292733Y-85505998D01*
X151089777Y-85351872D01*
X150860652Y-85240302D01*
X150710351Y-85194713D01*
X150508820Y-85288523D01*
X150508820Y-86359260D01*
X150528820Y-86359260D01*
X150528820Y-86559260D01*
X150508820Y-86559260D01*
X150508820Y-87629997D01*
X150710351Y-87723807D01*
X150860652Y-87678218D01*
X151089777Y-87566648D01*
X151292733Y-87412522D01*
X151297251Y-87407422D01*
X151472994Y-87670439D01*
X151737641Y-87935086D01*
X152048833Y-88143018D01*
X152394611Y-88286244D01*
X152761686Y-88359260D01*
X153135954Y-88359260D01*
X153503029Y-88286244D01*
X153848807Y-88143018D01*
X154159999Y-87935086D01*
X154218820Y-87876265D01*
X154277641Y-87935086D01*
X154588833Y-88143018D01*
X154934611Y-88286244D01*
X155301686Y-88359260D01*
X155675954Y-88359260D01*
X156043029Y-88286244D01*
X156388807Y-88143018D01*
X156699999Y-87935086D01*
X156758820Y-87876265D01*
X156817641Y-87935086D01*
X157128833Y-88143018D01*
X157474611Y-88286244D01*
X157841686Y-88359260D01*
X158215954Y-88359260D01*
X158583029Y-88286244D01*
X158928807Y-88143018D01*
X159239999Y-87935086D01*
X159298820Y-87876265D01*
X159357641Y-87935086D01*
X159668833Y-88143018D01*
X160014611Y-88286244D01*
X160381686Y-88359260D01*
X160755954Y-88359260D01*
X161123029Y-88286244D01*
X161468807Y-88143018D01*
X161779999Y-87935086D01*
X161838820Y-87876265D01*
X161897641Y-87935086D01*
X162208833Y-88143018D01*
X162554611Y-88286244D01*
X162921686Y-88359260D01*
X163295954Y-88359260D01*
X163663029Y-88286244D01*
X164008807Y-88143018D01*
X164319999Y-87935086D01*
X164378820Y-87876265D01*
X164437641Y-87935086D01*
X164748833Y-88143018D01*
X165094611Y-88286244D01*
X165461686Y-88359260D01*
X165835954Y-88359260D01*
X166203029Y-88286244D01*
X166548807Y-88143018D01*
X166859999Y-87935086D01*
X166918820Y-87876265D01*
X166977641Y-87935086D01*
X167288833Y-88143018D01*
X167634611Y-88286244D01*
X168001686Y-88359260D01*
X168375954Y-88359260D01*
X168743029Y-88286244D01*
X169088807Y-88143018D01*
X169399999Y-87935086D01*
X169458820Y-87876265D01*
X169517641Y-87935086D01*
X169828833Y-88143018D01*
X170174611Y-88286244D01*
X170541686Y-88359260D01*
X170915954Y-88359260D01*
X171283029Y-88286244D01*
X171628807Y-88143018D01*
X171910140Y-87955037D01*
X171914533Y-87999645D01*
X171991728Y-88254121D01*
X171991729Y-88254122D01*
X172117085Y-88488649D01*
X172243510Y-88642698D01*
X172243513Y-88642701D01*
X172285787Y-88694212D01*
X172337299Y-88736487D01*
X183400072Y-99799260D01*
X183241686Y-99799260D01*
X182874611Y-99872276D01*
X182528833Y-100015502D01*
X182217641Y-100223434D01*
X182158820Y-100282255D01*
X182099999Y-100223434D01*
X181788807Y-100015502D01*
X181443029Y-99872276D01*
X181075954Y-99799260D01*
X180701686Y-99799260D01*
X180334611Y-99872276D01*
X179988833Y-100015502D01*
X179677641Y-100223434D01*
X179618820Y-100282255D01*
X179559999Y-100223434D01*
X179248807Y-100015502D01*
X178903029Y-99872276D01*
X178535954Y-99799260D01*
X178161686Y-99799260D01*
X177794611Y-99872276D01*
X177448833Y-100015502D01*
X177137641Y-100223434D01*
X177078820Y-100282255D01*
X177019999Y-100223434D01*
X176708807Y-100015502D01*
X176363029Y-99872276D01*
X175995954Y-99799260D01*
X175621686Y-99799260D01*
X175254611Y-99872276D01*
X174908833Y-100015502D01*
X174597641Y-100223434D01*
X174538820Y-100282255D01*
X174479999Y-100223434D01*
X174168807Y-100015502D01*
X173823029Y-99872276D01*
X173455954Y-99799260D01*
X173081686Y-99799260D01*
X172714611Y-99872276D01*
X172368833Y-100015502D01*
X172057641Y-100223434D01*
X171998820Y-100282255D01*
X171939999Y-100223434D01*
X171628807Y-100015502D01*
X171283029Y-99872276D01*
X170915954Y-99799260D01*
X170541686Y-99799260D01*
X170174611Y-99872276D01*
X169828833Y-100015502D01*
X169517641Y-100223434D01*
X169458820Y-100282255D01*
X169399999Y-100223434D01*
X169088807Y-100015502D01*
X168743029Y-99872276D01*
X168375954Y-99799260D01*
X168001686Y-99799260D01*
X167634611Y-99872276D01*
X167288833Y-100015502D01*
X166977641Y-100223434D01*
X166918820Y-100282255D01*
X166859999Y-100223434D01*
X166548807Y-100015502D01*
X166203029Y-99872276D01*
X165835954Y-99799260D01*
X165461686Y-99799260D01*
X165094611Y-99872276D01*
X164748833Y-100015502D01*
X164437641Y-100223434D01*
X164378820Y-100282255D01*
X164319999Y-100223434D01*
X164008807Y-100015502D01*
X163663029Y-99872276D01*
X163295954Y-99799260D01*
X162921686Y-99799260D01*
X162554611Y-99872276D01*
X162208833Y-100015502D01*
X161897641Y-100223434D01*
X161838820Y-100282255D01*
X161779999Y-100223434D01*
X161468807Y-100015502D01*
X161123029Y-99872276D01*
X160755954Y-99799260D01*
X160381686Y-99799260D01*
X160014611Y-99872276D01*
X159668833Y-100015502D01*
X159357641Y-100223434D01*
X159355000Y-100226075D01*
X159355000Y-99866310D01*
X159361531Y-99799999D01*
X159355000Y-99733688D01*
X159355000Y-99733679D01*
X159335467Y-99535354D01*
X159258272Y-99280878D01*
X159132915Y-99046351D01*
X158964212Y-98840787D01*
X158912701Y-98798513D01*
X156466491Y-96352303D01*
X156424213Y-96300787D01*
X156218649Y-96132085D01*
X155984122Y-96006728D01*
X155729646Y-95929533D01*
X155531321Y-95910000D01*
X155531319Y-95910000D01*
X155465000Y-95903468D01*
X155398681Y-95910000D01*
X145995091Y-95910000D01*
X145917497Y-95903655D01*
X145796567Y-95917595D01*
X145675354Y-95929533D01*
X145664539Y-95932814D01*
X145653320Y-95934107D01*
X145537421Y-95971375D01*
X145420878Y-96006728D01*
X145410915Y-96012053D01*
X145400159Y-96015512D01*
X145293751Y-96074679D01*
X145186351Y-96132085D01*
X145177615Y-96139254D01*
X145167744Y-96144743D01*
X145074912Y-96223540D01*
X144980787Y-96300787D01*
X144973622Y-96309518D01*
X144965006Y-96316831D01*
X144889333Y-96412224D01*
X144812085Y-96506351D01*
X144775379Y-96575023D01*
X144508407Y-96989290D01*
X144538820Y-96836394D01*
X144538820Y-96462126D01*
X144465804Y-96095051D01*
X144322578Y-95749273D01*
X144114646Y-95438081D01*
X143849999Y-95173434D01*
X143538807Y-94965502D01*
X143193029Y-94822276D01*
X142825954Y-94749260D01*
X142451686Y-94749260D01*
X142084611Y-94822276D01*
X141738833Y-94965502D01*
X141427641Y-95173434D01*
X141162994Y-95438081D01*
X140955062Y-95749273D01*
X140811836Y-96095051D01*
X140738820Y-96462126D01*
X140738820Y-96836394D01*
X140811836Y-97203469D01*
X140955062Y-97549247D01*
X141162994Y-97860439D01*
X141221815Y-97919260D01*
X141162994Y-97978081D01*
X140955062Y-98289273D01*
X140811836Y-98635051D01*
X140738820Y-99002126D01*
X140738820Y-99376394D01*
X140811836Y-99743469D01*
X140955062Y-100089247D01*
X141162994Y-100400439D01*
X141427641Y-100665086D01*
X141690658Y-100840829D01*
X141685558Y-100845347D01*
X141531432Y-101048303D01*
X141419862Y-101277428D01*
X141374273Y-101427729D01*
X141468083Y-101629260D01*
X142538820Y-101629260D01*
X142538820Y-101609260D01*
X142738820Y-101609260D01*
X142738820Y-101629260D01*
X143809557Y-101629260D01*
X143903367Y-101427729D01*
X143857778Y-101277428D01*
X143746208Y-101048303D01*
X143592082Y-100845347D01*
X143586982Y-100840829D01*
X143849999Y-100665086D01*
X144066050Y-100449035D01*
X144760026Y-100412872D01*
X144802502Y-100416345D01*
X144892533Y-100405967D01*
X144916483Y-100404719D01*
X144958382Y-100398377D01*
X145066679Y-100385893D01*
X145089655Y-100378505D01*
X145113523Y-100374892D01*
X145216062Y-100337858D01*
X145319840Y-100304488D01*
X145340937Y-100292758D01*
X145363637Y-100284559D01*
X145456967Y-100228241D01*
X145552255Y-100175258D01*
X145570659Y-100159636D01*
X145591323Y-100147167D01*
X145671880Y-100073717D01*
X145754992Y-100003169D01*
X145769992Y-99984261D01*
X145787829Y-99967997D01*
X145852510Y-99880240D01*
X145878844Y-99847044D01*
X145891836Y-99826883D01*
X145945605Y-99753932D01*
X145963711Y-99715354D01*
X146676050Y-98610000D01*
X154905812Y-98610000D01*
X156655000Y-100359188D01*
X156655000Y-100386075D01*
X156552994Y-100488081D01*
X156377251Y-100751098D01*
X156372733Y-100745998D01*
X156169777Y-100591872D01*
X155940652Y-100480302D01*
X155790351Y-100434713D01*
X155588820Y-100528523D01*
X155588820Y-101599260D01*
X155608820Y-101599260D01*
X155608820Y-101799260D01*
X155588820Y-101799260D01*
X155588820Y-102869997D01*
X155790351Y-102963807D01*
X155940652Y-102918218D01*
X156169777Y-102806648D01*
X156372733Y-102652522D01*
X156377251Y-102647422D01*
X156552994Y-102910439D01*
X156817641Y-103175086D01*
X157128833Y-103383018D01*
X157474611Y-103526244D01*
X157841686Y-103599260D01*
X158215954Y-103599260D01*
X158583029Y-103526244D01*
X158928807Y-103383018D01*
X159239999Y-103175086D01*
X159298820Y-103116265D01*
X159357641Y-103175086D01*
X159668833Y-103383018D01*
X160014611Y-103526244D01*
X160229837Y-103569055D01*
X157042040Y-106756852D01*
X156750026Y-106814938D01*
X156395149Y-106961933D01*
X156075768Y-107175336D01*
X156048820Y-107202284D01*
X156021872Y-107175336D01*
X155702491Y-106961933D01*
X155347614Y-106814938D01*
X154970878Y-106740000D01*
X154586762Y-106740000D01*
X154210026Y-106814938D01*
X153855149Y-106961933D01*
X153535768Y-107175336D01*
X153316402Y-107394702D01*
X153281087Y-107375825D01*
X153186837Y-107347235D01*
X153088820Y-107337581D01*
X152463820Y-107340000D01*
X152338820Y-107465000D01*
X152338820Y-108590000D01*
X152358820Y-108590000D01*
X152358820Y-108790000D01*
X152338820Y-108790000D01*
X152338820Y-109915000D01*
X152463820Y-110040000D01*
X153088820Y-110042419D01*
X153178820Y-110033555D01*
X153178821Y-111880657D01*
X153171079Y-111959260D01*
X153192074Y-112172416D01*
X153201972Y-112272915D01*
X153213086Y-112309552D01*
X153293461Y-112574515D01*
X153442032Y-112852473D01*
X153517961Y-112944992D01*
X153641976Y-113096105D01*
X153703027Y-113146208D01*
X154941871Y-114385053D01*
X154991975Y-114446105D01*
X155235607Y-114646048D01*
X155513564Y-114794619D01*
X155815165Y-114886109D01*
X156050223Y-114909260D01*
X156050225Y-114909260D01*
X156128819Y-114917001D01*
X156207413Y-114909260D01*
X158666079Y-114909260D01*
X160531871Y-116775053D01*
X160572861Y-116825000D01*
X138926502Y-116825000D01*
X138926178Y-113350000D01*
X143952581Y-113350000D01*
X143962235Y-113448017D01*
X143990825Y-113542267D01*
X144037254Y-113629129D01*
X144099736Y-113705264D01*
X144175871Y-113767746D01*
X144262733Y-113814175D01*
X144356983Y-113842765D01*
X144455000Y-113852419D01*
X145080000Y-113850000D01*
X145205000Y-113725000D01*
X145205000Y-112600000D01*
X145405000Y-112600000D01*
X145405000Y-113725000D01*
X145530000Y-113850000D01*
X146155000Y-113852419D01*
X146253017Y-113842765D01*
X146347267Y-113814175D01*
X146434129Y-113767746D01*
X146510264Y-113705264D01*
X146572746Y-113629129D01*
X146619175Y-113542267D01*
X146647765Y-113448017D01*
X146657419Y-113350000D01*
X146655000Y-112725000D01*
X146530000Y-112600000D01*
X145405000Y-112600000D01*
X145205000Y-112600000D01*
X144080000Y-112600000D01*
X143955000Y-112725000D01*
X143952581Y-113350000D01*
X138926178Y-113350000D01*
X138925607Y-107227942D01*
X143355000Y-107227942D01*
X143355000Y-107612058D01*
X143429938Y-107988794D01*
X143576933Y-108343671D01*
X143790336Y-108663052D01*
X143817284Y-108690000D01*
X143790336Y-108716948D01*
X143576933Y-109036329D01*
X143429938Y-109391206D01*
X143355000Y-109767942D01*
X143355000Y-110152058D01*
X143429938Y-110528794D01*
X143576933Y-110883671D01*
X143790336Y-111203052D01*
X144009702Y-111422418D01*
X143990825Y-111457733D01*
X143962235Y-111551983D01*
X143952581Y-111650000D01*
X143955000Y-112275000D01*
X144080000Y-112400000D01*
X145205000Y-112400000D01*
X145205000Y-112380000D01*
X145405000Y-112380000D01*
X145405000Y-112400000D01*
X146530000Y-112400000D01*
X146655000Y-112275000D01*
X146657419Y-111650000D01*
X146647765Y-111551983D01*
X146619175Y-111457733D01*
X146600298Y-111422418D01*
X146712716Y-111310000D01*
X147778681Y-111310000D01*
X147845000Y-111316532D01*
X147911319Y-111310000D01*
X147911321Y-111310000D01*
X148109646Y-111290467D01*
X148364122Y-111213272D01*
X148598649Y-111087915D01*
X148804213Y-110919213D01*
X148846491Y-110867697D01*
X150924186Y-108790002D01*
X151013818Y-108790002D01*
X150888820Y-108915000D01*
X150886401Y-109540000D01*
X150896055Y-109638017D01*
X150924645Y-109732267D01*
X150971074Y-109819129D01*
X151033556Y-109895264D01*
X151109691Y-109957746D01*
X151196553Y-110004175D01*
X151290803Y-110032765D01*
X151388820Y-110042419D01*
X152013820Y-110040000D01*
X152138820Y-109915000D01*
X152138820Y-108790000D01*
X152118820Y-108790000D01*
X152118820Y-108590000D01*
X152138820Y-108590000D01*
X152138820Y-107465000D01*
X152013820Y-107340000D01*
X151735000Y-107338921D01*
X151735000Y-103172445D01*
X151737641Y-103175086D01*
X152048833Y-103383018D01*
X152394611Y-103526244D01*
X152761686Y-103599260D01*
X153135954Y-103599260D01*
X153503029Y-103526244D01*
X153848807Y-103383018D01*
X154159999Y-103175086D01*
X154424646Y-102910439D01*
X154600389Y-102647422D01*
X154604907Y-102652522D01*
X154807863Y-102806648D01*
X155036988Y-102918218D01*
X155187289Y-102963807D01*
X155388820Y-102869997D01*
X155388820Y-101799260D01*
X155368820Y-101799260D01*
X155368820Y-101599260D01*
X155388820Y-101599260D01*
X155388820Y-100528523D01*
X155187289Y-100434713D01*
X155036988Y-100480302D01*
X154807863Y-100591872D01*
X154604907Y-100745998D01*
X154600389Y-100751098D01*
X154424646Y-100488081D01*
X154159999Y-100223434D01*
X153848807Y-100015502D01*
X153503029Y-99872276D01*
X153135954Y-99799260D01*
X152761686Y-99799260D01*
X152394611Y-99872276D01*
X152048833Y-100015502D01*
X151737641Y-100223434D01*
X151678820Y-100282255D01*
X151619999Y-100223434D01*
X151308807Y-100015502D01*
X150963029Y-99872276D01*
X150595954Y-99799260D01*
X150221686Y-99799260D01*
X149854611Y-99872276D01*
X149508833Y-100015502D01*
X149407997Y-100082879D01*
X149282904Y-99980218D01*
X149091808Y-99878076D01*
X148884458Y-99815176D01*
X148668820Y-99793938D01*
X147068820Y-99793938D01*
X146853182Y-99815176D01*
X146645832Y-99878076D01*
X146454736Y-99980218D01*
X146287239Y-100117679D01*
X146149778Y-100285176D01*
X146047636Y-100476272D01*
X145984736Y-100683622D01*
X145963498Y-100899260D01*
X145963498Y-102499260D01*
X145984736Y-102714898D01*
X146047636Y-102922248D01*
X146149778Y-103113344D01*
X146287239Y-103280841D01*
X146454736Y-103418302D01*
X146495000Y-103439824D01*
X146495001Y-104955810D01*
X145896478Y-105554334D01*
X145873794Y-105544938D01*
X145497058Y-105470000D01*
X145112942Y-105470000D01*
X144736206Y-105544938D01*
X144381329Y-105691933D01*
X144061948Y-105905336D01*
X143790336Y-106176948D01*
X143576933Y-106496329D01*
X143429938Y-106851206D01*
X143355000Y-107227942D01*
X138925607Y-107227942D01*
X138925122Y-102030791D01*
X141374273Y-102030791D01*
X141419862Y-102181092D01*
X141531432Y-102410217D01*
X141685558Y-102613173D01*
X141876318Y-102782161D01*
X142096380Y-102910687D01*
X142337288Y-102993811D01*
X142538820Y-102900412D01*
X142538820Y-101829260D01*
X142738820Y-101829260D01*
X142738820Y-102900412D01*
X142940352Y-102993811D01*
X143181260Y-102910687D01*
X143401322Y-102782161D01*
X143592082Y-102613173D01*
X143746208Y-102410217D01*
X143857778Y-102181092D01*
X143903367Y-102030791D01*
X143809557Y-101829260D01*
X142738820Y-101829260D01*
X142538820Y-101829260D01*
X141468083Y-101829260D01*
X141374273Y-102030791D01*
X138925122Y-102030791D01*
X138924068Y-90745000D01*
X140713498Y-90745000D01*
X140713498Y-92345000D01*
X140734736Y-92560638D01*
X140797636Y-92767988D01*
X140899778Y-92959084D01*
X141037239Y-93126581D01*
X141204736Y-93264042D01*
X141395832Y-93366184D01*
X141603182Y-93429084D01*
X141818820Y-93450322D01*
X143418820Y-93450322D01*
X143634458Y-93429084D01*
X143841808Y-93366184D01*
X144032904Y-93264042D01*
X144200401Y-93126581D01*
X144337862Y-92959084D01*
X144440004Y-92767988D01*
X144502904Y-92560638D01*
X144524142Y-92345000D01*
X144524142Y-90745000D01*
X144502904Y-90529362D01*
X144440004Y-90322012D01*
X144337862Y-90130916D01*
X144200401Y-89963419D01*
X144032904Y-89825958D01*
X143841808Y-89723816D01*
X143724485Y-89688226D01*
X143726208Y-89685957D01*
X143837778Y-89456832D01*
X143883367Y-89306531D01*
X143789557Y-89105000D01*
X142718820Y-89105000D01*
X142718820Y-89125000D01*
X142518820Y-89125000D01*
X142518820Y-89105000D01*
X141448083Y-89105000D01*
X141354273Y-89306531D01*
X141399862Y-89456832D01*
X141511432Y-89685957D01*
X141513155Y-89688226D01*
X141395832Y-89723816D01*
X141204736Y-89825958D01*
X141037239Y-89963419D01*
X140899778Y-90130916D01*
X140797636Y-90322012D01*
X140734736Y-90529362D01*
X140713498Y-90745000D01*
X138924068Y-90745000D01*
X138923652Y-86277866D01*
X140718820Y-86277866D01*
X140718820Y-86652134D01*
X140791836Y-87019209D01*
X140935062Y-87364987D01*
X141142994Y-87676179D01*
X141407641Y-87940826D01*
X141670658Y-88116569D01*
X141665558Y-88121087D01*
X141511432Y-88324043D01*
X141399862Y-88553168D01*
X141354273Y-88703469D01*
X141448083Y-88905000D01*
X142518820Y-88905000D01*
X142518820Y-88885000D01*
X142718820Y-88885000D01*
X142718820Y-88905000D01*
X143789557Y-88905000D01*
X143883367Y-88703469D01*
X143837778Y-88553168D01*
X143726208Y-88324043D01*
X143572082Y-88121087D01*
X143566982Y-88116569D01*
X143829999Y-87940826D01*
X144094646Y-87676179D01*
X144302578Y-87364987D01*
X144445804Y-87019209D01*
X144518820Y-86652134D01*
X144518820Y-86277866D01*
X144445804Y-85910791D01*
X144302578Y-85565013D01*
X144094646Y-85253821D01*
X143829999Y-84989174D01*
X143518807Y-84781242D01*
X143173029Y-84638016D01*
X142805954Y-84565000D01*
X142431686Y-84565000D01*
X142064611Y-84638016D01*
X141718833Y-84781242D01*
X141407641Y-84989174D01*
X141142994Y-85253821D01*
X140935062Y-85565013D01*
X140791836Y-85910791D01*
X140718820Y-86277866D01*
X138923652Y-86277866D01*
X138923116Y-80535000D01*
X145889678Y-80535000D01*
X145889678Y-82235000D01*
X145910916Y-82450638D01*
X145973816Y-82657988D01*
X146075958Y-82849084D01*
X146213419Y-83016581D01*
X146370001Y-83145084D01*
X146370000Y-85282494D01*
X146185062Y-85559273D01*
X146041836Y-85905051D01*
X145968820Y-86272126D01*
X145968820Y-86646394D01*
X146041836Y-87013469D01*
X146185062Y-87359247D01*
X146392994Y-87670439D01*
X146657641Y-87935086D01*
X146968833Y-88143018D01*
X147314611Y-88286244D01*
X147681686Y-88359260D01*
X148055954Y-88359260D01*
X148423029Y-88286244D01*
X148768807Y-88143018D01*
X149079999Y-87935086D01*
X149344646Y-87670439D01*
X149520389Y-87407422D01*
X149524907Y-87412522D01*
X149727863Y-87566648D01*
X149956988Y-87678218D01*
X150107289Y-87723807D01*
X150308820Y-87629997D01*
X150308820Y-86559260D01*
X150288820Y-86559260D01*
X150288820Y-86359260D01*
X150308820Y-86359260D01*
X150308820Y-85288523D01*
X150107289Y-85194713D01*
X149956988Y-85240302D01*
X149727863Y-85351872D01*
X149524907Y-85505998D01*
X149520389Y-85511098D01*
X149344646Y-85248081D01*
X149320000Y-85223435D01*
X149320000Y-83145083D01*
X149476581Y-83016581D01*
X149614042Y-82849084D01*
X149716184Y-82657988D01*
X149779084Y-82450638D01*
X149800322Y-82235000D01*
X149800322Y-80535000D01*
X149779084Y-80319362D01*
X149716184Y-80112012D01*
X149614042Y-79920916D01*
X149535383Y-79825069D01*
X149573067Y-79768671D01*
X149720062Y-79413794D01*
X149795000Y-79037058D01*
X149795000Y-78652942D01*
X149720062Y-78276206D01*
X149573067Y-77921329D01*
X149359664Y-77601948D01*
X149088052Y-77330336D01*
X148768671Y-77116933D01*
X148413794Y-76969938D01*
X148037058Y-76895000D01*
X147652942Y-76895000D01*
X147276206Y-76969938D01*
X146921329Y-77116933D01*
X146601948Y-77330336D01*
X146330336Y-77601948D01*
X146116933Y-77921329D01*
X145969938Y-78276206D01*
X145895000Y-78652942D01*
X145895000Y-79037058D01*
X145969938Y-79413794D01*
X146116933Y-79768671D01*
X146154617Y-79825069D01*
X146075958Y-79920916D01*
X145973816Y-80112012D01*
X145910916Y-80319362D01*
X145889678Y-80535000D01*
X138923116Y-80535000D01*
X138922431Y-73190879D01*
X155863297Y-73190879D01*
X155900223Y-73484037D01*
X155993631Y-73764358D01*
X156094511Y-73953091D01*
X156324446Y-74054132D01*
X157228579Y-73150000D01*
X156324446Y-72245868D01*
X156094511Y-72346909D01*
X155962344Y-72611176D01*
X155884272Y-72896150D01*
X155863297Y-73190879D01*
X138922431Y-73190879D01*
X138922330Y-72104446D01*
X156465868Y-72104446D01*
X157370000Y-73008579D01*
X158274132Y-72104446D01*
X158173091Y-71874511D01*
X157908824Y-71742344D01*
X157623850Y-71664272D01*
X157329121Y-71643297D01*
X157035963Y-71680223D01*
X156755642Y-71773631D01*
X156566909Y-71874511D01*
X156465868Y-72104446D01*
X138922330Y-72104446D01*
X138922218Y-70899260D01*
X168213498Y-70899260D01*
X168213498Y-72699260D01*
X168234736Y-72914898D01*
X168297636Y-73122248D01*
X168399778Y-73313344D01*
X168537239Y-73480841D01*
X168704736Y-73618302D01*
X168895832Y-73720444D01*
X169103182Y-73783344D01*
X169318820Y-73804582D01*
X171118820Y-73804582D01*
X171334458Y-73783344D01*
X171541808Y-73720444D01*
X171732904Y-73618302D01*
X171900401Y-73480841D01*
X172037862Y-73313344D01*
X172140004Y-73122248D01*
X172202904Y-72914898D01*
X172224142Y-72699260D01*
X172224142Y-71602277D01*
X178378820Y-71602277D01*
X178378820Y-71996243D01*
X178455679Y-72382638D01*
X178606443Y-72746615D01*
X178825319Y-73074186D01*
X179103894Y-73352761D01*
X179431465Y-73571637D01*
X179795442Y-73722401D01*
X180181837Y-73799260D01*
X180575803Y-73799260D01*
X180962198Y-73722401D01*
X181326175Y-73571637D01*
X181653746Y-73352761D01*
X181932321Y-73074186D01*
X182151197Y-72746615D01*
X182212233Y-72599260D01*
X182560998Y-72599260D01*
X182560998Y-74599260D01*
X182582236Y-74814898D01*
X182645136Y-75022248D01*
X182747278Y-75213344D01*
X182884739Y-75380841D01*
X183052236Y-75518302D01*
X183243332Y-75620444D01*
X183450682Y-75683344D01*
X183666320Y-75704582D01*
X185571320Y-75704582D01*
X185786958Y-75683344D01*
X185994308Y-75620444D01*
X186185404Y-75518302D01*
X186233027Y-75479218D01*
X186369563Y-75552198D01*
X186756461Y-75669562D01*
X187158820Y-75709191D01*
X187561180Y-75669562D01*
X187948078Y-75552198D01*
X188304645Y-75361609D01*
X188617179Y-75105119D01*
X188851001Y-74820206D01*
X188888597Y-74851255D01*
X189139151Y-74986178D01*
X189373369Y-75062330D01*
X189598820Y-74970488D01*
X189598820Y-73699260D01*
X189798820Y-73699260D01*
X189798820Y-74970488D01*
X190024271Y-75062330D01*
X190258489Y-74986178D01*
X190509043Y-74851255D01*
X190728460Y-74670044D01*
X190908309Y-74449509D01*
X191041678Y-74198125D01*
X191123441Y-73925552D01*
X191024514Y-73699260D01*
X189798820Y-73699260D01*
X189598820Y-73699260D01*
X189578820Y-73699260D01*
X189578820Y-73499260D01*
X189598820Y-73499260D01*
X189598820Y-72228032D01*
X189798820Y-72228032D01*
X189798820Y-73499260D01*
X191024514Y-73499260D01*
X191123441Y-73272968D01*
X191041678Y-73000395D01*
X190908309Y-72749011D01*
X190728460Y-72528476D01*
X190509043Y-72347265D01*
X190258489Y-72212342D01*
X190024271Y-72136190D01*
X189798820Y-72228032D01*
X189598820Y-72228032D01*
X189373369Y-72136190D01*
X189139151Y-72212342D01*
X188888597Y-72347265D01*
X188851001Y-72378314D01*
X188617179Y-72093401D01*
X188304645Y-71836911D01*
X187948077Y-71646322D01*
X187561179Y-71528958D01*
X187158820Y-71489329D01*
X186756460Y-71528958D01*
X186369562Y-71646322D01*
X186233027Y-71719301D01*
X186185404Y-71680218D01*
X185994308Y-71578076D01*
X185786958Y-71515176D01*
X185571320Y-71493938D01*
X183666320Y-71493938D01*
X183450682Y-71515176D01*
X183243332Y-71578076D01*
X183052236Y-71680218D01*
X182884739Y-71817679D01*
X182747278Y-71985176D01*
X182645136Y-72176272D01*
X182582236Y-72383622D01*
X182560998Y-72599260D01*
X182212233Y-72599260D01*
X182301961Y-72382638D01*
X182378820Y-71996243D01*
X182378820Y-71602277D01*
X182301961Y-71215882D01*
X182151197Y-70851905D01*
X181932321Y-70524334D01*
X181653746Y-70245759D01*
X181326175Y-70026883D01*
X180962198Y-69876119D01*
X180575803Y-69799260D01*
X180181837Y-69799260D01*
X179795442Y-69876119D01*
X179431465Y-70026883D01*
X179103894Y-70245759D01*
X178825319Y-70524334D01*
X178606443Y-70851905D01*
X178455679Y-71215882D01*
X178378820Y-71602277D01*
X172224142Y-71602277D01*
X172224142Y-70899260D01*
X172202904Y-70683622D01*
X172140004Y-70476272D01*
X172037862Y-70285176D01*
X171900401Y-70117679D01*
X171732904Y-69980218D01*
X171541808Y-69878076D01*
X171334458Y-69815176D01*
X171118820Y-69793938D01*
X169318820Y-69793938D01*
X169103182Y-69815176D01*
X168895832Y-69878076D01*
X168704736Y-69980218D01*
X168537239Y-70117679D01*
X168399778Y-70285176D01*
X168297636Y-70476272D01*
X168234736Y-70683622D01*
X168213498Y-70899260D01*
X138922218Y-70899260D01*
X138921475Y-62962881D01*
X143318820Y-62962881D01*
X143318820Y-63435639D01*
X143411050Y-63899314D01*
X143591967Y-64336086D01*
X143854618Y-64729171D01*
X144188909Y-65063462D01*
X144581994Y-65326113D01*
X145018766Y-65507030D01*
X145482441Y-65599260D01*
X145955199Y-65599260D01*
X146418874Y-65507030D01*
X146855646Y-65326113D01*
X147248731Y-65063462D01*
X147583022Y-64729171D01*
X147736643Y-64499260D01*
X148916401Y-64499260D01*
X148926055Y-64597277D01*
X148954645Y-64691527D01*
X149001074Y-64778389D01*
X149063556Y-64854524D01*
X149139691Y-64917006D01*
X149226553Y-64963435D01*
X149320803Y-64992025D01*
X149418820Y-65001679D01*
X150493820Y-64999260D01*
X150618820Y-64874260D01*
X150618820Y-63299260D01*
X150818820Y-63299260D01*
X150818820Y-64874260D01*
X150943820Y-64999260D01*
X152018820Y-65001679D01*
X152116837Y-64992025D01*
X152211087Y-64963435D01*
X152297949Y-64917006D01*
X152374084Y-64854524D01*
X152410991Y-64809552D01*
X161249949Y-64809552D01*
X161615184Y-65264798D01*
X162253662Y-65616293D01*
X162948444Y-65836474D01*
X163672832Y-65916879D01*
X164398987Y-65854417D01*
X165099003Y-65651491D01*
X165745981Y-65315897D01*
X165822456Y-65264798D01*
X166187691Y-64809552D01*
X163718820Y-62340681D01*
X161249949Y-64809552D01*
X152410991Y-64809552D01*
X152436566Y-64778389D01*
X152482995Y-64691527D01*
X152511585Y-64597277D01*
X152521239Y-64499260D01*
X152518820Y-63424260D01*
X152393820Y-63299260D01*
X150818820Y-63299260D01*
X150618820Y-63299260D01*
X149043820Y-63299260D01*
X148918820Y-63424260D01*
X148916401Y-64499260D01*
X147736643Y-64499260D01*
X147845673Y-64336086D01*
X148026590Y-63899314D01*
X148118820Y-63435639D01*
X148118820Y-62962881D01*
X148026590Y-62499206D01*
X147845673Y-62062434D01*
X147736644Y-61899260D01*
X148916401Y-61899260D01*
X148918820Y-62974260D01*
X149043820Y-63099260D01*
X150618820Y-63099260D01*
X150618820Y-61524260D01*
X150818820Y-61524260D01*
X150818820Y-63099260D01*
X152393820Y-63099260D01*
X152518820Y-62974260D01*
X152520667Y-62153272D01*
X160001201Y-62153272D01*
X160063663Y-62879427D01*
X160266589Y-63579443D01*
X160602183Y-64226421D01*
X160653282Y-64302896D01*
X161108528Y-64668131D01*
X163577399Y-62199260D01*
X163860241Y-62199260D01*
X166329112Y-64668131D01*
X166784358Y-64302896D01*
X167135853Y-63664418D01*
X167356034Y-62969636D01*
X167356783Y-62962881D01*
X176218820Y-62962881D01*
X176218820Y-63435639D01*
X176311050Y-63899314D01*
X176491967Y-64336086D01*
X176754618Y-64729171D01*
X177088909Y-65063462D01*
X177481994Y-65326113D01*
X177918766Y-65507030D01*
X178382441Y-65599260D01*
X178855199Y-65599260D01*
X179318874Y-65507030D01*
X179755646Y-65326113D01*
X180148731Y-65063462D01*
X180483022Y-64729171D01*
X180745673Y-64336086D01*
X180926590Y-63899314D01*
X181018820Y-63435639D01*
X181018820Y-62962881D01*
X180926590Y-62499206D01*
X180745673Y-62062434D01*
X180636644Y-61899260D01*
X181213498Y-61899260D01*
X181213498Y-64499260D01*
X181234736Y-64714898D01*
X181297636Y-64922248D01*
X181399778Y-65113344D01*
X181537239Y-65280841D01*
X181704736Y-65418302D01*
X181895832Y-65520444D01*
X182103182Y-65583344D01*
X182318820Y-65604582D01*
X184918820Y-65604582D01*
X185134458Y-65583344D01*
X185341808Y-65520444D01*
X185532904Y-65418302D01*
X185700401Y-65280841D01*
X185837862Y-65113344D01*
X185940004Y-64922248D01*
X186002904Y-64714898D01*
X186024142Y-64499260D01*
X186024142Y-64458431D01*
X188901070Y-64458431D01*
X189038216Y-64719076D01*
X189353559Y-64881179D01*
X189694469Y-64978648D01*
X190047842Y-65007735D01*
X190400100Y-64967324D01*
X190737706Y-64858968D01*
X190999424Y-64719076D01*
X191136570Y-64458431D01*
X190018820Y-63340681D01*
X188901070Y-64458431D01*
X186024142Y-64458431D01*
X186024142Y-63228282D01*
X188210345Y-63228282D01*
X188250756Y-63580540D01*
X188359112Y-63918146D01*
X188499004Y-64179864D01*
X188759649Y-64317010D01*
X189877399Y-63199260D01*
X190160241Y-63199260D01*
X191277991Y-64317010D01*
X191538636Y-64179864D01*
X191700739Y-63864521D01*
X191798208Y-63523611D01*
X191827295Y-63170238D01*
X191786884Y-62817980D01*
X191678528Y-62480374D01*
X191538636Y-62218656D01*
X191277991Y-62081510D01*
X190160241Y-63199260D01*
X189877399Y-63199260D01*
X188759649Y-62081510D01*
X188499004Y-62218656D01*
X188336901Y-62533999D01*
X188239432Y-62874909D01*
X188210345Y-63228282D01*
X186024142Y-63228282D01*
X186024142Y-61940089D01*
X188901070Y-61940089D01*
X190018820Y-63057839D01*
X191136570Y-61940089D01*
X191115087Y-61899260D01*
X192613498Y-61899260D01*
X192613498Y-64499260D01*
X192634736Y-64714898D01*
X192697636Y-64922248D01*
X192799778Y-65113344D01*
X192937239Y-65280841D01*
X193104736Y-65418302D01*
X193295832Y-65520444D01*
X193503182Y-65583344D01*
X193718820Y-65604582D01*
X196318820Y-65604582D01*
X196534458Y-65583344D01*
X196741808Y-65520444D01*
X196932904Y-65418302D01*
X197100401Y-65280841D01*
X197237862Y-65113344D01*
X197340004Y-64922248D01*
X197402904Y-64714898D01*
X197424142Y-64499260D01*
X197424142Y-61899260D01*
X197402904Y-61683622D01*
X197340004Y-61476272D01*
X197237862Y-61285176D01*
X197100401Y-61117679D01*
X196932904Y-60980218D01*
X196741808Y-60878076D01*
X196534458Y-60815176D01*
X196318820Y-60793938D01*
X193718820Y-60793938D01*
X193503182Y-60815176D01*
X193295832Y-60878076D01*
X193104736Y-60980218D01*
X192937239Y-61117679D01*
X192799778Y-61285176D01*
X192697636Y-61476272D01*
X192634736Y-61683622D01*
X192613498Y-61899260D01*
X191115087Y-61899260D01*
X190999424Y-61679444D01*
X190684081Y-61517341D01*
X190343171Y-61419872D01*
X189989798Y-61390785D01*
X189637540Y-61431196D01*
X189299934Y-61539552D01*
X189038216Y-61679444D01*
X188901070Y-61940089D01*
X186024142Y-61940089D01*
X186024142Y-61899260D01*
X186002904Y-61683622D01*
X185940004Y-61476272D01*
X185837862Y-61285176D01*
X185700401Y-61117679D01*
X185532904Y-60980218D01*
X185341808Y-60878076D01*
X185134458Y-60815176D01*
X184918820Y-60793938D01*
X182318820Y-60793938D01*
X182103182Y-60815176D01*
X181895832Y-60878076D01*
X181704736Y-60980218D01*
X181537239Y-61117679D01*
X181399778Y-61285176D01*
X181297636Y-61476272D01*
X181234736Y-61683622D01*
X181213498Y-61899260D01*
X180636644Y-61899260D01*
X180483022Y-61669349D01*
X180148731Y-61335058D01*
X179755646Y-61072407D01*
X179318874Y-60891490D01*
X178855199Y-60799260D01*
X178382441Y-60799260D01*
X177918766Y-60891490D01*
X177481994Y-61072407D01*
X177088909Y-61335058D01*
X176754618Y-61669349D01*
X176491967Y-62062434D01*
X176311050Y-62499206D01*
X176218820Y-62962881D01*
X167356783Y-62962881D01*
X167436439Y-62245248D01*
X167373977Y-61519093D01*
X167171051Y-60819077D01*
X166835457Y-60172099D01*
X166784358Y-60095624D01*
X166329112Y-59730389D01*
X163860241Y-62199260D01*
X163577399Y-62199260D01*
X161108528Y-59730389D01*
X160653282Y-60095624D01*
X160301787Y-60734102D01*
X160081606Y-61428884D01*
X160001201Y-62153272D01*
X152520667Y-62153272D01*
X152521239Y-61899260D01*
X152511585Y-61801243D01*
X152482995Y-61706993D01*
X152436566Y-61620131D01*
X152374084Y-61543996D01*
X152297949Y-61481514D01*
X152211087Y-61435085D01*
X152116837Y-61406495D01*
X152018820Y-61396841D01*
X150943820Y-61399260D01*
X150818820Y-61524260D01*
X150618820Y-61524260D01*
X150493820Y-61399260D01*
X149418820Y-61396841D01*
X149320803Y-61406495D01*
X149226553Y-61435085D01*
X149139691Y-61481514D01*
X149063556Y-61543996D01*
X149001074Y-61620131D01*
X148954645Y-61706993D01*
X148926055Y-61801243D01*
X148916401Y-61899260D01*
X147736644Y-61899260D01*
X147583022Y-61669349D01*
X147248731Y-61335058D01*
X146855646Y-61072407D01*
X146418874Y-60891490D01*
X145955199Y-60799260D01*
X145482441Y-60799260D01*
X145018766Y-60891490D01*
X144581994Y-61072407D01*
X144188909Y-61335058D01*
X143854618Y-61669349D01*
X143591967Y-62062434D01*
X143411050Y-62499206D01*
X143318820Y-62962881D01*
X138921475Y-62962881D01*
X138921121Y-59174260D01*
X161582661Y-59174260D01*
X161249949Y-59588968D01*
G04 #@! TA.AperFunction,Conductor*
D36*
G36*
X161249949Y-59588968D02*
G01*
X163718820Y-62057839D01*
X166187691Y-59588968D01*
X165854979Y-59174260D01*
X199243821Y-59174260D01*
X199243820Y-110634740D01*
X199103432Y-110522109D01*
X196634561Y-112990980D01*
X199103432Y-115459851D01*
X199243820Y-115347220D01*
X199243820Y-116824714D01*
X198501429Y-116825000D01*
X182621699Y-116825000D01*
X182662693Y-116775048D01*
X183836469Y-115601272D01*
X194024269Y-115601272D01*
X194389504Y-116056518D01*
X195027982Y-116408013D01*
X195722764Y-116628194D01*
X196447152Y-116708599D01*
X197173307Y-116646137D01*
X197873323Y-116443211D01*
X198520301Y-116107617D01*
X198596776Y-116056518D01*
X198962011Y-115601272D01*
X196493140Y-113132401D01*
X194024269Y-115601272D01*
X183836469Y-115601272D01*
X186492749Y-112944992D01*
X192775521Y-112944992D01*
X192837983Y-113671147D01*
X193040909Y-114371163D01*
X193376503Y-115018141D01*
X193427602Y-115094616D01*
X193882848Y-115459851D01*
X196351719Y-112990980D01*
X193882848Y-110522109D01*
X193427602Y-110887344D01*
X193076107Y-111525822D01*
X192855926Y-112220604D01*
X192775521Y-112944992D01*
X186492749Y-112944992D01*
X188827708Y-110610034D01*
X189053794Y-110565062D01*
X189408671Y-110418067D01*
X189464612Y-110380688D01*
X194024269Y-110380688D01*
X196493140Y-112849559D01*
X198962011Y-110380688D01*
X198596776Y-109925442D01*
X197958298Y-109573947D01*
X197263516Y-109353766D01*
X196539128Y-109273361D01*
X195812973Y-109335823D01*
X195112957Y-109538749D01*
X194465979Y-109874343D01*
X194389504Y-109925442D01*
X194024269Y-110380688D01*
X189464612Y-110380688D01*
X189728052Y-110204664D01*
X189999664Y-109933052D01*
X190148152Y-109710823D01*
X190314570Y-109837954D01*
X190552175Y-109954494D01*
X190715625Y-110004072D01*
X190925000Y-109910912D01*
X190925000Y-108790000D01*
X191125000Y-108790000D01*
X191125000Y-109910912D01*
X191334375Y-110004072D01*
X191497825Y-109954494D01*
X191735430Y-109837954D01*
X191945734Y-109677298D01*
X192120655Y-109478701D01*
X192253470Y-109249795D01*
X192339076Y-108999376D01*
X192246295Y-108790000D01*
X191125000Y-108790000D01*
X190925000Y-108790000D01*
X190905000Y-108790000D01*
X190905000Y-108590000D01*
X190925000Y-108590000D01*
X190925000Y-107469088D01*
X191125000Y-107469088D01*
X191125000Y-108590000D01*
X192246295Y-108590000D01*
X192339076Y-108380624D01*
X192253470Y-108130205D01*
X192120655Y-107901299D01*
X191945734Y-107702702D01*
X191735430Y-107542046D01*
X191497825Y-107425506D01*
X191334375Y-107375928D01*
X191125000Y-107469088D01*
X190925000Y-107469088D01*
X190715625Y-107375928D01*
X190552175Y-107425506D01*
X190314570Y-107542046D01*
X190148152Y-107669177D01*
X189999664Y-107446948D01*
X189960000Y-107407284D01*
X189960000Y-82727444D01*
X189967135Y-82654999D01*
X189960000Y-82582554D01*
X189960000Y-82582548D01*
X189938657Y-82365850D01*
X189938122Y-82364084D01*
X189914024Y-82284645D01*
X189854315Y-82087811D01*
X189717351Y-81831569D01*
X189647507Y-81746465D01*
X189579213Y-81663248D01*
X189579208Y-81663243D01*
X189533027Y-81606972D01*
X189476757Y-81560793D01*
X188123476Y-80207512D01*
X188077288Y-80151232D01*
X187852691Y-79966909D01*
X187596449Y-79829945D01*
X187318410Y-79745603D01*
X187101712Y-79724260D01*
X187101705Y-79724260D01*
X187029260Y-79717125D01*
X186956815Y-79724260D01*
X178115225Y-79724260D01*
X173069216Y-74678252D01*
X173023028Y-74621972D01*
X172798431Y-74437649D01*
X172542189Y-74300685D01*
X172264150Y-74216343D01*
X172047452Y-74195000D01*
X172047445Y-74195000D01*
X171975000Y-74187865D01*
X171902555Y-74195000D01*
X158455900Y-74195000D01*
X158506162Y-74144738D01*
X158415555Y-74054131D01*
X158645489Y-73953091D01*
X158777656Y-73688824D01*
X158855728Y-73403850D01*
X158876703Y-73109121D01*
X158839777Y-72815963D01*
X158746369Y-72535642D01*
X158645489Y-72346909D01*
X158415554Y-72245868D01*
X157511421Y-73150000D01*
X157525564Y-73164142D01*
X157384142Y-73305564D01*
X157370000Y-73291421D01*
X156465868Y-74195554D01*
X156473794Y-74213591D01*
X156445849Y-74216343D01*
X156167811Y-74300685D01*
X155911569Y-74437649D01*
X155686972Y-74621972D01*
X155640788Y-74678247D01*
X152568248Y-77750788D01*
X152511973Y-77796972D01*
X152327650Y-78021569D01*
X152254441Y-78158534D01*
X152190685Y-78277812D01*
X152106343Y-78555850D01*
X152077865Y-78845000D01*
X152085001Y-78917455D01*
X152085000Y-81948323D01*
X152077865Y-82021550D01*
X152092145Y-82164991D01*
X152106343Y-82309149D01*
X152106570Y-82309898D01*
X152106647Y-82310670D01*
X152148667Y-82448672D01*
X152190685Y-82587188D01*
X152191052Y-82587875D01*
X152191279Y-82588620D01*
X152259577Y-82716076D01*
X152327649Y-82843430D01*
X152328143Y-82844031D01*
X152328511Y-82844719D01*
X152420590Y-82956679D01*
X152511972Y-83068027D01*
X152512571Y-83068519D01*
X152513069Y-83069124D01*
X152624962Y-83160757D01*
X152736569Y-83252351D01*
X152801462Y-83287037D01*
X153990001Y-84079397D01*
X153990001Y-84869845D01*
X153848807Y-84775502D01*
X153503029Y-84632276D01*
X153135954Y-84559260D01*
X152761686Y-84559260D01*
X152394611Y-84632276D01*
X152048833Y-84775502D01*
X151737641Y-84983434D01*
X151472994Y-85248081D01*
X151297251Y-85511098D01*
X151292733Y-85505998D01*
X151089777Y-85351872D01*
X150860652Y-85240302D01*
X150710351Y-85194713D01*
X150508820Y-85288523D01*
X150508820Y-86359260D01*
X150528820Y-86359260D01*
X150528820Y-86559260D01*
X150508820Y-86559260D01*
X150508820Y-87629997D01*
X150710351Y-87723807D01*
X150860652Y-87678218D01*
X151089777Y-87566648D01*
X151292733Y-87412522D01*
X151297251Y-87407422D01*
X151472994Y-87670439D01*
X151737641Y-87935086D01*
X152048833Y-88143018D01*
X152394611Y-88286244D01*
X152761686Y-88359260D01*
X153135954Y-88359260D01*
X153503029Y-88286244D01*
X153848807Y-88143018D01*
X154159999Y-87935086D01*
X154218820Y-87876265D01*
X154277641Y-87935086D01*
X154588833Y-88143018D01*
X154934611Y-88286244D01*
X155301686Y-88359260D01*
X155675954Y-88359260D01*
X156043029Y-88286244D01*
X156388807Y-88143018D01*
X156699999Y-87935086D01*
X156758820Y-87876265D01*
X156817641Y-87935086D01*
X157128833Y-88143018D01*
X157474611Y-88286244D01*
X157841686Y-88359260D01*
X158215954Y-88359260D01*
X158583029Y-88286244D01*
X158928807Y-88143018D01*
X159239999Y-87935086D01*
X159298820Y-87876265D01*
X159357641Y-87935086D01*
X159668833Y-88143018D01*
X160014611Y-88286244D01*
X160381686Y-88359260D01*
X160755954Y-88359260D01*
X161123029Y-88286244D01*
X161468807Y-88143018D01*
X161779999Y-87935086D01*
X161838820Y-87876265D01*
X161897641Y-87935086D01*
X162208833Y-88143018D01*
X162554611Y-88286244D01*
X162921686Y-88359260D01*
X163295954Y-88359260D01*
X163663029Y-88286244D01*
X164008807Y-88143018D01*
X164319999Y-87935086D01*
X164378820Y-87876265D01*
X164437641Y-87935086D01*
X164748833Y-88143018D01*
X165094611Y-88286244D01*
X165461686Y-88359260D01*
X165835954Y-88359260D01*
X166203029Y-88286244D01*
X166548807Y-88143018D01*
X166859999Y-87935086D01*
X166918820Y-87876265D01*
X166977641Y-87935086D01*
X167288833Y-88143018D01*
X167634611Y-88286244D01*
X168001686Y-88359260D01*
X168375954Y-88359260D01*
X168743029Y-88286244D01*
X169088807Y-88143018D01*
X169399999Y-87935086D01*
X169458820Y-87876265D01*
X169517641Y-87935086D01*
X169828833Y-88143018D01*
X170174611Y-88286244D01*
X170541686Y-88359260D01*
X170915954Y-88359260D01*
X171283029Y-88286244D01*
X171628807Y-88143018D01*
X171910140Y-87955037D01*
X171914533Y-87999645D01*
X171991728Y-88254121D01*
X171991729Y-88254122D01*
X172117085Y-88488649D01*
X172243510Y-88642698D01*
X172243513Y-88642701D01*
X172285787Y-88694212D01*
X172337299Y-88736487D01*
X183400072Y-99799260D01*
X183241686Y-99799260D01*
X182874611Y-99872276D01*
X182528833Y-100015502D01*
X182217641Y-100223434D01*
X182158820Y-100282255D01*
X182099999Y-100223434D01*
X181788807Y-100015502D01*
X181443029Y-99872276D01*
X181075954Y-99799260D01*
X180701686Y-99799260D01*
X180334611Y-99872276D01*
X179988833Y-100015502D01*
X179677641Y-100223434D01*
X179618820Y-100282255D01*
X179559999Y-100223434D01*
X179248807Y-100015502D01*
X178903029Y-99872276D01*
X178535954Y-99799260D01*
X178161686Y-99799260D01*
X177794611Y-99872276D01*
X177448833Y-100015502D01*
X177137641Y-100223434D01*
X177078820Y-100282255D01*
X177019999Y-100223434D01*
X176708807Y-100015502D01*
X176363029Y-99872276D01*
X175995954Y-99799260D01*
X175621686Y-99799260D01*
X175254611Y-99872276D01*
X174908833Y-100015502D01*
X174597641Y-100223434D01*
X174538820Y-100282255D01*
X174479999Y-100223434D01*
X174168807Y-100015502D01*
X173823029Y-99872276D01*
X173455954Y-99799260D01*
X173081686Y-99799260D01*
X172714611Y-99872276D01*
X172368833Y-100015502D01*
X172057641Y-100223434D01*
X171998820Y-100282255D01*
X171939999Y-100223434D01*
X171628807Y-100015502D01*
X171283029Y-99872276D01*
X170915954Y-99799260D01*
X170541686Y-99799260D01*
X170174611Y-99872276D01*
X169828833Y-100015502D01*
X169517641Y-100223434D01*
X169458820Y-100282255D01*
X169399999Y-100223434D01*
X169088807Y-100015502D01*
X168743029Y-99872276D01*
X168375954Y-99799260D01*
X168001686Y-99799260D01*
X167634611Y-99872276D01*
X167288833Y-100015502D01*
X166977641Y-100223434D01*
X166918820Y-100282255D01*
X166859999Y-100223434D01*
X166548807Y-100015502D01*
X166203029Y-99872276D01*
X165835954Y-99799260D01*
X165461686Y-99799260D01*
X165094611Y-99872276D01*
X164748833Y-100015502D01*
X164437641Y-100223434D01*
X164378820Y-100282255D01*
X164319999Y-100223434D01*
X164008807Y-100015502D01*
X163663029Y-99872276D01*
X163295954Y-99799260D01*
X162921686Y-99799260D01*
X162554611Y-99872276D01*
X162208833Y-100015502D01*
X161897641Y-100223434D01*
X161838820Y-100282255D01*
X161779999Y-100223434D01*
X161468807Y-100015502D01*
X161123029Y-99872276D01*
X160755954Y-99799260D01*
X160381686Y-99799260D01*
X160014611Y-99872276D01*
X159668833Y-100015502D01*
X159357641Y-100223434D01*
X159355000Y-100226075D01*
X159355000Y-99866310D01*
X159361531Y-99799999D01*
X159355000Y-99733688D01*
X159355000Y-99733679D01*
X159335467Y-99535354D01*
X159258272Y-99280878D01*
X159132915Y-99046351D01*
X158964212Y-98840787D01*
X158912701Y-98798513D01*
X156466491Y-96352303D01*
X156424213Y-96300787D01*
X156218649Y-96132085D01*
X155984122Y-96006728D01*
X155729646Y-95929533D01*
X155531321Y-95910000D01*
X155531319Y-95910000D01*
X155465000Y-95903468D01*
X155398681Y-95910000D01*
X145995091Y-95910000D01*
X145917497Y-95903655D01*
X145796567Y-95917595D01*
X145675354Y-95929533D01*
X145664539Y-95932814D01*
X145653320Y-95934107D01*
X145537421Y-95971375D01*
X145420878Y-96006728D01*
X145410915Y-96012053D01*
X145400159Y-96015512D01*
X145293751Y-96074679D01*
X145186351Y-96132085D01*
X145177615Y-96139254D01*
X145167744Y-96144743D01*
X145074912Y-96223540D01*
X144980787Y-96300787D01*
X144973622Y-96309518D01*
X144965006Y-96316831D01*
X144889333Y-96412224D01*
X144812085Y-96506351D01*
X144775379Y-96575023D01*
X144508407Y-96989290D01*
X144538820Y-96836394D01*
X144538820Y-96462126D01*
X144465804Y-96095051D01*
X144322578Y-95749273D01*
X144114646Y-95438081D01*
X143849999Y-95173434D01*
X143538807Y-94965502D01*
X143193029Y-94822276D01*
X142825954Y-94749260D01*
X142451686Y-94749260D01*
X142084611Y-94822276D01*
X141738833Y-94965502D01*
X141427641Y-95173434D01*
X141162994Y-95438081D01*
X140955062Y-95749273D01*
X140811836Y-96095051D01*
X140738820Y-96462126D01*
X140738820Y-96836394D01*
X140811836Y-97203469D01*
X140955062Y-97549247D01*
X141162994Y-97860439D01*
X141221815Y-97919260D01*
X141162994Y-97978081D01*
X140955062Y-98289273D01*
X140811836Y-98635051D01*
X140738820Y-99002126D01*
X140738820Y-99376394D01*
X140811836Y-99743469D01*
X140955062Y-100089247D01*
X141162994Y-100400439D01*
X141427641Y-100665086D01*
X141690658Y-100840829D01*
X141685558Y-100845347D01*
X141531432Y-101048303D01*
X141419862Y-101277428D01*
X141374273Y-101427729D01*
X141468083Y-101629260D01*
X142538820Y-101629260D01*
X142538820Y-101609260D01*
X142738820Y-101609260D01*
X142738820Y-101629260D01*
X143809557Y-101629260D01*
X143903367Y-101427729D01*
X143857778Y-101277428D01*
X143746208Y-101048303D01*
X143592082Y-100845347D01*
X143586982Y-100840829D01*
X143849999Y-100665086D01*
X144066050Y-100449035D01*
X144760026Y-100412872D01*
X144802502Y-100416345D01*
X144892533Y-100405967D01*
X144916483Y-100404719D01*
X144958382Y-100398377D01*
X145066679Y-100385893D01*
X145089655Y-100378505D01*
X145113523Y-100374892D01*
X145216062Y-100337858D01*
X145319840Y-100304488D01*
X145340937Y-100292758D01*
X145363637Y-100284559D01*
X145456967Y-100228241D01*
X145552255Y-100175258D01*
X145570659Y-100159636D01*
X145591323Y-100147167D01*
X145671880Y-100073717D01*
X145754992Y-100003169D01*
X145769992Y-99984261D01*
X145787829Y-99967997D01*
X145852510Y-99880240D01*
X145878844Y-99847044D01*
X145891836Y-99826883D01*
X145945605Y-99753932D01*
X145963711Y-99715354D01*
X146676050Y-98610000D01*
X154905812Y-98610000D01*
X156655000Y-100359188D01*
X156655000Y-100386075D01*
X156552994Y-100488081D01*
X156377251Y-100751098D01*
X156372733Y-100745998D01*
X156169777Y-100591872D01*
X155940652Y-100480302D01*
X155790351Y-100434713D01*
X155588820Y-100528523D01*
X155588820Y-101599260D01*
X155608820Y-101599260D01*
X155608820Y-101799260D01*
X155588820Y-101799260D01*
X155588820Y-102869997D01*
X155790351Y-102963807D01*
X155940652Y-102918218D01*
X156169777Y-102806648D01*
X156372733Y-102652522D01*
X156377251Y-102647422D01*
X156552994Y-102910439D01*
X156817641Y-103175086D01*
X157128833Y-103383018D01*
X157474611Y-103526244D01*
X157841686Y-103599260D01*
X158215954Y-103599260D01*
X158583029Y-103526244D01*
X158928807Y-103383018D01*
X159239999Y-103175086D01*
X159298820Y-103116265D01*
X159357641Y-103175086D01*
X159668833Y-103383018D01*
X160014611Y-103526244D01*
X160229837Y-103569055D01*
X157042040Y-106756852D01*
X156750026Y-106814938D01*
X156395149Y-106961933D01*
X156075768Y-107175336D01*
X156048820Y-107202284D01*
X156021872Y-107175336D01*
X155702491Y-106961933D01*
X155347614Y-106814938D01*
X154970878Y-106740000D01*
X154586762Y-106740000D01*
X154210026Y-106814938D01*
X153855149Y-106961933D01*
X153535768Y-107175336D01*
X153316402Y-107394702D01*
X153281087Y-107375825D01*
X153186837Y-107347235D01*
X153088820Y-107337581D01*
X152463820Y-107340000D01*
X152338820Y-107465000D01*
X152338820Y-108590000D01*
X152358820Y-108590000D01*
X152358820Y-108790000D01*
X152338820Y-108790000D01*
X152338820Y-109915000D01*
X152463820Y-110040000D01*
X153088820Y-110042419D01*
X153178820Y-110033555D01*
X153178821Y-111880657D01*
X153171079Y-111959260D01*
X153192074Y-112172416D01*
X153201972Y-112272915D01*
X153213086Y-112309552D01*
X153293461Y-112574515D01*
X153442032Y-112852473D01*
X153517961Y-112944992D01*
X153641976Y-113096105D01*
X153703027Y-113146208D01*
X154941871Y-114385053D01*
X154991975Y-114446105D01*
X155235607Y-114646048D01*
X155513564Y-114794619D01*
X155815165Y-114886109D01*
X156050223Y-114909260D01*
X156050225Y-114909260D01*
X156128819Y-114917001D01*
X156207413Y-114909260D01*
X158666079Y-114909260D01*
X160531871Y-116775053D01*
X160572861Y-116825000D01*
X138926502Y-116825000D01*
X138926178Y-113350000D01*
X143952581Y-113350000D01*
X143962235Y-113448017D01*
X143990825Y-113542267D01*
X144037254Y-113629129D01*
X144099736Y-113705264D01*
X144175871Y-113767746D01*
X144262733Y-113814175D01*
X144356983Y-113842765D01*
X144455000Y-113852419D01*
X145080000Y-113850000D01*
X145205000Y-113725000D01*
X145205000Y-112600000D01*
X145405000Y-112600000D01*
X145405000Y-113725000D01*
X145530000Y-113850000D01*
X146155000Y-113852419D01*
X146253017Y-113842765D01*
X146347267Y-113814175D01*
X146434129Y-113767746D01*
X146510264Y-113705264D01*
X146572746Y-113629129D01*
X146619175Y-113542267D01*
X146647765Y-113448017D01*
X146657419Y-113350000D01*
X146655000Y-112725000D01*
X146530000Y-112600000D01*
X145405000Y-112600000D01*
X145205000Y-112600000D01*
X144080000Y-112600000D01*
X143955000Y-112725000D01*
X143952581Y-113350000D01*
X138926178Y-113350000D01*
X138925607Y-107227942D01*
X143355000Y-107227942D01*
X143355000Y-107612058D01*
X143429938Y-107988794D01*
X143576933Y-108343671D01*
X143790336Y-108663052D01*
X143817284Y-108690000D01*
X143790336Y-108716948D01*
X143576933Y-109036329D01*
X143429938Y-109391206D01*
X143355000Y-109767942D01*
X143355000Y-110152058D01*
X143429938Y-110528794D01*
X143576933Y-110883671D01*
X143790336Y-111203052D01*
X144009702Y-111422418D01*
X143990825Y-111457733D01*
X143962235Y-111551983D01*
X143952581Y-111650000D01*
X143955000Y-112275000D01*
X144080000Y-112400000D01*
X145205000Y-112400000D01*
X145205000Y-112380000D01*
X145405000Y-112380000D01*
X145405000Y-112400000D01*
X146530000Y-112400000D01*
X146655000Y-112275000D01*
X146657419Y-111650000D01*
X146647765Y-111551983D01*
X146619175Y-111457733D01*
X146600298Y-111422418D01*
X146712716Y-111310000D01*
X147778681Y-111310000D01*
X147845000Y-111316532D01*
X147911319Y-111310000D01*
X147911321Y-111310000D01*
X148109646Y-111290467D01*
X148364122Y-111213272D01*
X148598649Y-111087915D01*
X148804213Y-110919213D01*
X148846491Y-110867697D01*
X150924186Y-108790002D01*
X151013818Y-108790002D01*
X150888820Y-108915000D01*
X150886401Y-109540000D01*
X150896055Y-109638017D01*
X150924645Y-109732267D01*
X150971074Y-109819129D01*
X151033556Y-109895264D01*
X151109691Y-109957746D01*
X151196553Y-110004175D01*
X151290803Y-110032765D01*
X151388820Y-110042419D01*
X152013820Y-110040000D01*
X152138820Y-109915000D01*
X152138820Y-108790000D01*
X152118820Y-108790000D01*
X152118820Y-108590000D01*
X152138820Y-108590000D01*
X152138820Y-107465000D01*
X152013820Y-107340000D01*
X151735000Y-107338921D01*
X151735000Y-103172445D01*
X151737641Y-103175086D01*
X152048833Y-103383018D01*
X152394611Y-103526244D01*
X152761686Y-103599260D01*
X153135954Y-103599260D01*
X153503029Y-103526244D01*
X153848807Y-103383018D01*
X154159999Y-103175086D01*
X154424646Y-102910439D01*
X154600389Y-102647422D01*
X154604907Y-102652522D01*
X154807863Y-102806648D01*
X155036988Y-102918218D01*
X155187289Y-102963807D01*
X155388820Y-102869997D01*
X155388820Y-101799260D01*
X155368820Y-101799260D01*
X155368820Y-101599260D01*
X155388820Y-101599260D01*
X155388820Y-100528523D01*
X155187289Y-100434713D01*
X155036988Y-100480302D01*
X154807863Y-100591872D01*
X154604907Y-100745998D01*
X154600389Y-100751098D01*
X154424646Y-100488081D01*
X154159999Y-100223434D01*
X153848807Y-100015502D01*
X153503029Y-99872276D01*
X153135954Y-99799260D01*
X152761686Y-99799260D01*
X152394611Y-99872276D01*
X152048833Y-100015502D01*
X151737641Y-100223434D01*
X151678820Y-100282255D01*
X151619999Y-100223434D01*
X151308807Y-100015502D01*
X150963029Y-99872276D01*
X150595954Y-99799260D01*
X150221686Y-99799260D01*
X149854611Y-99872276D01*
X149508833Y-100015502D01*
X149407997Y-100082879D01*
X149282904Y-99980218D01*
X149091808Y-99878076D01*
X148884458Y-99815176D01*
X148668820Y-99793938D01*
X147068820Y-99793938D01*
X146853182Y-99815176D01*
X146645832Y-99878076D01*
X146454736Y-99980218D01*
X146287239Y-100117679D01*
X146149778Y-100285176D01*
X146047636Y-100476272D01*
X145984736Y-100683622D01*
X145963498Y-100899260D01*
X145963498Y-102499260D01*
X145984736Y-102714898D01*
X146047636Y-102922248D01*
X146149778Y-103113344D01*
X146287239Y-103280841D01*
X146454736Y-103418302D01*
X146495000Y-103439824D01*
X146495001Y-104955810D01*
X145896478Y-105554334D01*
X145873794Y-105544938D01*
X145497058Y-105470000D01*
X145112942Y-105470000D01*
X144736206Y-105544938D01*
X144381329Y-105691933D01*
X144061948Y-105905336D01*
X143790336Y-106176948D01*
X143576933Y-106496329D01*
X143429938Y-106851206D01*
X143355000Y-107227942D01*
X138925607Y-107227942D01*
X138925122Y-102030791D01*
X141374273Y-102030791D01*
X141419862Y-102181092D01*
X141531432Y-102410217D01*
X141685558Y-102613173D01*
X141876318Y-102782161D01*
X142096380Y-102910687D01*
X142337288Y-102993811D01*
X142538820Y-102900412D01*
X142538820Y-101829260D01*
X142738820Y-101829260D01*
X142738820Y-102900412D01*
X142940352Y-102993811D01*
X143181260Y-102910687D01*
X143401322Y-102782161D01*
X143592082Y-102613173D01*
X143746208Y-102410217D01*
X143857778Y-102181092D01*
X143903367Y-102030791D01*
X143809557Y-101829260D01*
X142738820Y-101829260D01*
X142538820Y-101829260D01*
X141468083Y-101829260D01*
X141374273Y-102030791D01*
X138925122Y-102030791D01*
X138924068Y-90745000D01*
X140713498Y-90745000D01*
X140713498Y-92345000D01*
X140734736Y-92560638D01*
X140797636Y-92767988D01*
X140899778Y-92959084D01*
X141037239Y-93126581D01*
X141204736Y-93264042D01*
X141395832Y-93366184D01*
X141603182Y-93429084D01*
X141818820Y-93450322D01*
X143418820Y-93450322D01*
X143634458Y-93429084D01*
X143841808Y-93366184D01*
X144032904Y-93264042D01*
X144200401Y-93126581D01*
X144337862Y-92959084D01*
X144440004Y-92767988D01*
X144502904Y-92560638D01*
X144524142Y-92345000D01*
X144524142Y-90745000D01*
X144502904Y-90529362D01*
X144440004Y-90322012D01*
X144337862Y-90130916D01*
X144200401Y-89963419D01*
X144032904Y-89825958D01*
X143841808Y-89723816D01*
X143724485Y-89688226D01*
X143726208Y-89685957D01*
X143837778Y-89456832D01*
X143883367Y-89306531D01*
X143789557Y-89105000D01*
X142718820Y-89105000D01*
X142718820Y-89125000D01*
X142518820Y-89125000D01*
X142518820Y-89105000D01*
X141448083Y-89105000D01*
X141354273Y-89306531D01*
X141399862Y-89456832D01*
X141511432Y-89685957D01*
X141513155Y-89688226D01*
X141395832Y-89723816D01*
X141204736Y-89825958D01*
X141037239Y-89963419D01*
X140899778Y-90130916D01*
X140797636Y-90322012D01*
X140734736Y-90529362D01*
X140713498Y-90745000D01*
X138924068Y-90745000D01*
X138923652Y-86277866D01*
X140718820Y-86277866D01*
X140718820Y-86652134D01*
X140791836Y-87019209D01*
X140935062Y-87364987D01*
X141142994Y-87676179D01*
X141407641Y-87940826D01*
X141670658Y-88116569D01*
X141665558Y-88121087D01*
X141511432Y-88324043D01*
X141399862Y-88553168D01*
X141354273Y-88703469D01*
X141448083Y-88905000D01*
X142518820Y-88905000D01*
X142518820Y-88885000D01*
X142718820Y-88885000D01*
X142718820Y-88905000D01*
X143789557Y-88905000D01*
X143883367Y-88703469D01*
X143837778Y-88553168D01*
X143726208Y-88324043D01*
X143572082Y-88121087D01*
X143566982Y-88116569D01*
X143829999Y-87940826D01*
X144094646Y-87676179D01*
X144302578Y-87364987D01*
X144445804Y-87019209D01*
X144518820Y-86652134D01*
X144518820Y-86277866D01*
X144445804Y-85910791D01*
X144302578Y-85565013D01*
X144094646Y-85253821D01*
X143829999Y-84989174D01*
X143518807Y-84781242D01*
X143173029Y-84638016D01*
X142805954Y-84565000D01*
X142431686Y-84565000D01*
X142064611Y-84638016D01*
X141718833Y-84781242D01*
X141407641Y-84989174D01*
X141142994Y-85253821D01*
X140935062Y-85565013D01*
X140791836Y-85910791D01*
X140718820Y-86277866D01*
X138923652Y-86277866D01*
X138923116Y-80535000D01*
X145889678Y-80535000D01*
X145889678Y-82235000D01*
X145910916Y-82450638D01*
X145973816Y-82657988D01*
X146075958Y-82849084D01*
X146213419Y-83016581D01*
X146370001Y-83145084D01*
X146370000Y-85282494D01*
X146185062Y-85559273D01*
X146041836Y-85905051D01*
X145968820Y-86272126D01*
X145968820Y-86646394D01*
X146041836Y-87013469D01*
X146185062Y-87359247D01*
X146392994Y-87670439D01*
X146657641Y-87935086D01*
X146968833Y-88143018D01*
X147314611Y-88286244D01*
X147681686Y-88359260D01*
X148055954Y-88359260D01*
X148423029Y-88286244D01*
X148768807Y-88143018D01*
X149079999Y-87935086D01*
X149344646Y-87670439D01*
X149520389Y-87407422D01*
X149524907Y-87412522D01*
X149727863Y-87566648D01*
X149956988Y-87678218D01*
X150107289Y-87723807D01*
X150308820Y-87629997D01*
X150308820Y-86559260D01*
X150288820Y-86559260D01*
X150288820Y-86359260D01*
X150308820Y-86359260D01*
X150308820Y-85288523D01*
X150107289Y-85194713D01*
X149956988Y-85240302D01*
X149727863Y-85351872D01*
X149524907Y-85505998D01*
X149520389Y-85511098D01*
X149344646Y-85248081D01*
X149320000Y-85223435D01*
X149320000Y-83145083D01*
X149476581Y-83016581D01*
X149614042Y-82849084D01*
X149716184Y-82657988D01*
X149779084Y-82450638D01*
X149800322Y-82235000D01*
X149800322Y-80535000D01*
X149779084Y-80319362D01*
X149716184Y-80112012D01*
X149614042Y-79920916D01*
X149535383Y-79825069D01*
X149573067Y-79768671D01*
X149720062Y-79413794D01*
X149795000Y-79037058D01*
X149795000Y-78652942D01*
X149720062Y-78276206D01*
X149573067Y-77921329D01*
X149359664Y-77601948D01*
X149088052Y-77330336D01*
X148768671Y-77116933D01*
X148413794Y-76969938D01*
X148037058Y-76895000D01*
X147652942Y-76895000D01*
X147276206Y-76969938D01*
X146921329Y-77116933D01*
X146601948Y-77330336D01*
X146330336Y-77601948D01*
X146116933Y-77921329D01*
X145969938Y-78276206D01*
X145895000Y-78652942D01*
X145895000Y-79037058D01*
X145969938Y-79413794D01*
X146116933Y-79768671D01*
X146154617Y-79825069D01*
X146075958Y-79920916D01*
X145973816Y-80112012D01*
X145910916Y-80319362D01*
X145889678Y-80535000D01*
X138923116Y-80535000D01*
X138922431Y-73190879D01*
X155863297Y-73190879D01*
X155900223Y-73484037D01*
X155993631Y-73764358D01*
X156094511Y-73953091D01*
X156324446Y-74054132D01*
X157228579Y-73150000D01*
X156324446Y-72245868D01*
X156094511Y-72346909D01*
X155962344Y-72611176D01*
X155884272Y-72896150D01*
X155863297Y-73190879D01*
X138922431Y-73190879D01*
X138922330Y-72104446D01*
X156465868Y-72104446D01*
X157370000Y-73008579D01*
X158274132Y-72104446D01*
X158173091Y-71874511D01*
X157908824Y-71742344D01*
X157623850Y-71664272D01*
X157329121Y-71643297D01*
X157035963Y-71680223D01*
X156755642Y-71773631D01*
X156566909Y-71874511D01*
X156465868Y-72104446D01*
X138922330Y-72104446D01*
X138922218Y-70899260D01*
X168213498Y-70899260D01*
X168213498Y-72699260D01*
X168234736Y-72914898D01*
X168297636Y-73122248D01*
X168399778Y-73313344D01*
X168537239Y-73480841D01*
X168704736Y-73618302D01*
X168895832Y-73720444D01*
X169103182Y-73783344D01*
X169318820Y-73804582D01*
X171118820Y-73804582D01*
X171334458Y-73783344D01*
X171541808Y-73720444D01*
X171732904Y-73618302D01*
X171900401Y-73480841D01*
X172037862Y-73313344D01*
X172140004Y-73122248D01*
X172202904Y-72914898D01*
X172224142Y-72699260D01*
X172224142Y-71602277D01*
X178378820Y-71602277D01*
X178378820Y-71996243D01*
X178455679Y-72382638D01*
X178606443Y-72746615D01*
X178825319Y-73074186D01*
X179103894Y-73352761D01*
X179431465Y-73571637D01*
X179795442Y-73722401D01*
X180181837Y-73799260D01*
X180575803Y-73799260D01*
X180962198Y-73722401D01*
X181326175Y-73571637D01*
X181653746Y-73352761D01*
X181932321Y-73074186D01*
X182151197Y-72746615D01*
X182212233Y-72599260D01*
X182560998Y-72599260D01*
X182560998Y-74599260D01*
X182582236Y-74814898D01*
X182645136Y-75022248D01*
X182747278Y-75213344D01*
X182884739Y-75380841D01*
X183052236Y-75518302D01*
X183243332Y-75620444D01*
X183450682Y-75683344D01*
X183666320Y-75704582D01*
X185571320Y-75704582D01*
X185786958Y-75683344D01*
X185994308Y-75620444D01*
X186185404Y-75518302D01*
X186233027Y-75479218D01*
X186369563Y-75552198D01*
X186756461Y-75669562D01*
X187158820Y-75709191D01*
X187561180Y-75669562D01*
X187948078Y-75552198D01*
X188304645Y-75361609D01*
X188617179Y-75105119D01*
X188851001Y-74820206D01*
X188888597Y-74851255D01*
X189139151Y-74986178D01*
X189373369Y-75062330D01*
X189598820Y-74970488D01*
X189598820Y-73699260D01*
X189798820Y-73699260D01*
X189798820Y-74970488D01*
X190024271Y-75062330D01*
X190258489Y-74986178D01*
X190509043Y-74851255D01*
X190728460Y-74670044D01*
X190908309Y-74449509D01*
X191041678Y-74198125D01*
X191123441Y-73925552D01*
X191024514Y-73699260D01*
X189798820Y-73699260D01*
X189598820Y-73699260D01*
X189578820Y-73699260D01*
X189578820Y-73499260D01*
X189598820Y-73499260D01*
X189598820Y-72228032D01*
X189798820Y-72228032D01*
X189798820Y-73499260D01*
X191024514Y-73499260D01*
X191123441Y-73272968D01*
X191041678Y-73000395D01*
X190908309Y-72749011D01*
X190728460Y-72528476D01*
X190509043Y-72347265D01*
X190258489Y-72212342D01*
X190024271Y-72136190D01*
X189798820Y-72228032D01*
X189598820Y-72228032D01*
X189373369Y-72136190D01*
X189139151Y-72212342D01*
X188888597Y-72347265D01*
X188851001Y-72378314D01*
X188617179Y-72093401D01*
X188304645Y-71836911D01*
X187948077Y-71646322D01*
X187561179Y-71528958D01*
X187158820Y-71489329D01*
X186756460Y-71528958D01*
X186369562Y-71646322D01*
X186233027Y-71719301D01*
X186185404Y-71680218D01*
X185994308Y-71578076D01*
X185786958Y-71515176D01*
X185571320Y-71493938D01*
X183666320Y-71493938D01*
X183450682Y-71515176D01*
X183243332Y-71578076D01*
X183052236Y-71680218D01*
X182884739Y-71817679D01*
X182747278Y-71985176D01*
X182645136Y-72176272D01*
X182582236Y-72383622D01*
X182560998Y-72599260D01*
X182212233Y-72599260D01*
X182301961Y-72382638D01*
X182378820Y-71996243D01*
X182378820Y-71602277D01*
X182301961Y-71215882D01*
X182151197Y-70851905D01*
X181932321Y-70524334D01*
X181653746Y-70245759D01*
X181326175Y-70026883D01*
X180962198Y-69876119D01*
X180575803Y-69799260D01*
X180181837Y-69799260D01*
X179795442Y-69876119D01*
X179431465Y-70026883D01*
X179103894Y-70245759D01*
X178825319Y-70524334D01*
X178606443Y-70851905D01*
X178455679Y-71215882D01*
X178378820Y-71602277D01*
X172224142Y-71602277D01*
X172224142Y-70899260D01*
X172202904Y-70683622D01*
X172140004Y-70476272D01*
X172037862Y-70285176D01*
X171900401Y-70117679D01*
X171732904Y-69980218D01*
X171541808Y-69878076D01*
X171334458Y-69815176D01*
X171118820Y-69793938D01*
X169318820Y-69793938D01*
X169103182Y-69815176D01*
X168895832Y-69878076D01*
X168704736Y-69980218D01*
X168537239Y-70117679D01*
X168399778Y-70285176D01*
X168297636Y-70476272D01*
X168234736Y-70683622D01*
X168213498Y-70899260D01*
X138922218Y-70899260D01*
X138921475Y-62962881D01*
X143318820Y-62962881D01*
X143318820Y-63435639D01*
X143411050Y-63899314D01*
X143591967Y-64336086D01*
X143854618Y-64729171D01*
X144188909Y-65063462D01*
X144581994Y-65326113D01*
X145018766Y-65507030D01*
X145482441Y-65599260D01*
X145955199Y-65599260D01*
X146418874Y-65507030D01*
X146855646Y-65326113D01*
X147248731Y-65063462D01*
X147583022Y-64729171D01*
X147736643Y-64499260D01*
X148916401Y-64499260D01*
X148926055Y-64597277D01*
X148954645Y-64691527D01*
X149001074Y-64778389D01*
X149063556Y-64854524D01*
X149139691Y-64917006D01*
X149226553Y-64963435D01*
X149320803Y-64992025D01*
X149418820Y-65001679D01*
X150493820Y-64999260D01*
X150618820Y-64874260D01*
X150618820Y-63299260D01*
X150818820Y-63299260D01*
X150818820Y-64874260D01*
X150943820Y-64999260D01*
X152018820Y-65001679D01*
X152116837Y-64992025D01*
X152211087Y-64963435D01*
X152297949Y-64917006D01*
X152374084Y-64854524D01*
X152410991Y-64809552D01*
X161249949Y-64809552D01*
X161615184Y-65264798D01*
X162253662Y-65616293D01*
X162948444Y-65836474D01*
X163672832Y-65916879D01*
X164398987Y-65854417D01*
X165099003Y-65651491D01*
X165745981Y-65315897D01*
X165822456Y-65264798D01*
X166187691Y-64809552D01*
X163718820Y-62340681D01*
X161249949Y-64809552D01*
X152410991Y-64809552D01*
X152436566Y-64778389D01*
X152482995Y-64691527D01*
X152511585Y-64597277D01*
X152521239Y-64499260D01*
X152518820Y-63424260D01*
X152393820Y-63299260D01*
X150818820Y-63299260D01*
X150618820Y-63299260D01*
X149043820Y-63299260D01*
X148918820Y-63424260D01*
X148916401Y-64499260D01*
X147736643Y-64499260D01*
X147845673Y-64336086D01*
X148026590Y-63899314D01*
X148118820Y-63435639D01*
X148118820Y-62962881D01*
X148026590Y-62499206D01*
X147845673Y-62062434D01*
X147736644Y-61899260D01*
X148916401Y-61899260D01*
X148918820Y-62974260D01*
X149043820Y-63099260D01*
X150618820Y-63099260D01*
X150618820Y-61524260D01*
X150818820Y-61524260D01*
X150818820Y-63099260D01*
X152393820Y-63099260D01*
X152518820Y-62974260D01*
X152520667Y-62153272D01*
X160001201Y-62153272D01*
X160063663Y-62879427D01*
X160266589Y-63579443D01*
X160602183Y-64226421D01*
X160653282Y-64302896D01*
X161108528Y-64668131D01*
X163577399Y-62199260D01*
X163860241Y-62199260D01*
X166329112Y-64668131D01*
X166784358Y-64302896D01*
X167135853Y-63664418D01*
X167356034Y-62969636D01*
X167356783Y-62962881D01*
X176218820Y-62962881D01*
X176218820Y-63435639D01*
X176311050Y-63899314D01*
X176491967Y-64336086D01*
X176754618Y-64729171D01*
X177088909Y-65063462D01*
X177481994Y-65326113D01*
X177918766Y-65507030D01*
X178382441Y-65599260D01*
X178855199Y-65599260D01*
X179318874Y-65507030D01*
X179755646Y-65326113D01*
X180148731Y-65063462D01*
X180483022Y-64729171D01*
X180745673Y-64336086D01*
X180926590Y-63899314D01*
X181018820Y-63435639D01*
X181018820Y-62962881D01*
X180926590Y-62499206D01*
X180745673Y-62062434D01*
X180636644Y-61899260D01*
X181213498Y-61899260D01*
X181213498Y-64499260D01*
X181234736Y-64714898D01*
X181297636Y-64922248D01*
X181399778Y-65113344D01*
X181537239Y-65280841D01*
X181704736Y-65418302D01*
X181895832Y-65520444D01*
X182103182Y-65583344D01*
X182318820Y-65604582D01*
X184918820Y-65604582D01*
X185134458Y-65583344D01*
X185341808Y-65520444D01*
X185532904Y-65418302D01*
X185700401Y-65280841D01*
X185837862Y-65113344D01*
X185940004Y-64922248D01*
X186002904Y-64714898D01*
X186024142Y-64499260D01*
X186024142Y-64458431D01*
X188901070Y-64458431D01*
X189038216Y-64719076D01*
X189353559Y-64881179D01*
X189694469Y-64978648D01*
X190047842Y-65007735D01*
X190400100Y-64967324D01*
X190737706Y-64858968D01*
X190999424Y-64719076D01*
X191136570Y-64458431D01*
X190018820Y-63340681D01*
X188901070Y-64458431D01*
X186024142Y-64458431D01*
X186024142Y-63228282D01*
X188210345Y-63228282D01*
X188250756Y-63580540D01*
X188359112Y-63918146D01*
X188499004Y-64179864D01*
X188759649Y-64317010D01*
X189877399Y-63199260D01*
X190160241Y-63199260D01*
X191277991Y-64317010D01*
X191538636Y-64179864D01*
X191700739Y-63864521D01*
X191798208Y-63523611D01*
X191827295Y-63170238D01*
X191786884Y-62817980D01*
X191678528Y-62480374D01*
X191538636Y-62218656D01*
X191277991Y-62081510D01*
X190160241Y-63199260D01*
X189877399Y-63199260D01*
X188759649Y-62081510D01*
X188499004Y-62218656D01*
X188336901Y-62533999D01*
X188239432Y-62874909D01*
X188210345Y-63228282D01*
X186024142Y-63228282D01*
X186024142Y-61940089D01*
X188901070Y-61940089D01*
X190018820Y-63057839D01*
X191136570Y-61940089D01*
X191115087Y-61899260D01*
X192613498Y-61899260D01*
X192613498Y-64499260D01*
X192634736Y-64714898D01*
X192697636Y-64922248D01*
X192799778Y-65113344D01*
X192937239Y-65280841D01*
X193104736Y-65418302D01*
X193295832Y-65520444D01*
X193503182Y-65583344D01*
X193718820Y-65604582D01*
X196318820Y-65604582D01*
X196534458Y-65583344D01*
X196741808Y-65520444D01*
X196932904Y-65418302D01*
X197100401Y-65280841D01*
X197237862Y-65113344D01*
X197340004Y-64922248D01*
X197402904Y-64714898D01*
X197424142Y-64499260D01*
X197424142Y-61899260D01*
X197402904Y-61683622D01*
X197340004Y-61476272D01*
X197237862Y-61285176D01*
X197100401Y-61117679D01*
X196932904Y-60980218D01*
X196741808Y-60878076D01*
X196534458Y-60815176D01*
X196318820Y-60793938D01*
X193718820Y-60793938D01*
X193503182Y-60815176D01*
X193295832Y-60878076D01*
X193104736Y-60980218D01*
X192937239Y-61117679D01*
X192799778Y-61285176D01*
X192697636Y-61476272D01*
X192634736Y-61683622D01*
X192613498Y-61899260D01*
X191115087Y-61899260D01*
X190999424Y-61679444D01*
X190684081Y-61517341D01*
X190343171Y-61419872D01*
X189989798Y-61390785D01*
X189637540Y-61431196D01*
X189299934Y-61539552D01*
X189038216Y-61679444D01*
X188901070Y-61940089D01*
X186024142Y-61940089D01*
X186024142Y-61899260D01*
X186002904Y-61683622D01*
X185940004Y-61476272D01*
X185837862Y-61285176D01*
X185700401Y-61117679D01*
X185532904Y-60980218D01*
X185341808Y-60878076D01*
X185134458Y-60815176D01*
X184918820Y-60793938D01*
X182318820Y-60793938D01*
X182103182Y-60815176D01*
X181895832Y-60878076D01*
X181704736Y-60980218D01*
X181537239Y-61117679D01*
X181399778Y-61285176D01*
X181297636Y-61476272D01*
X181234736Y-61683622D01*
X181213498Y-61899260D01*
X180636644Y-61899260D01*
X180483022Y-61669349D01*
X180148731Y-61335058D01*
X179755646Y-61072407D01*
X179318874Y-60891490D01*
X178855199Y-60799260D01*
X178382441Y-60799260D01*
X177918766Y-60891490D01*
X177481994Y-61072407D01*
X177088909Y-61335058D01*
X176754618Y-61669349D01*
X176491967Y-62062434D01*
X176311050Y-62499206D01*
X176218820Y-62962881D01*
X167356783Y-62962881D01*
X167436439Y-62245248D01*
X167373977Y-61519093D01*
X167171051Y-60819077D01*
X166835457Y-60172099D01*
X166784358Y-60095624D01*
X166329112Y-59730389D01*
X163860241Y-62199260D01*
X163577399Y-62199260D01*
X161108528Y-59730389D01*
X160653282Y-60095624D01*
X160301787Y-60734102D01*
X160081606Y-61428884D01*
X160001201Y-62153272D01*
X152520667Y-62153272D01*
X152521239Y-61899260D01*
X152511585Y-61801243D01*
X152482995Y-61706993D01*
X152436566Y-61620131D01*
X152374084Y-61543996D01*
X152297949Y-61481514D01*
X152211087Y-61435085D01*
X152116837Y-61406495D01*
X152018820Y-61396841D01*
X150943820Y-61399260D01*
X150818820Y-61524260D01*
X150618820Y-61524260D01*
X150493820Y-61399260D01*
X149418820Y-61396841D01*
X149320803Y-61406495D01*
X149226553Y-61435085D01*
X149139691Y-61481514D01*
X149063556Y-61543996D01*
X149001074Y-61620131D01*
X148954645Y-61706993D01*
X148926055Y-61801243D01*
X148916401Y-61899260D01*
X147736644Y-61899260D01*
X147583022Y-61669349D01*
X147248731Y-61335058D01*
X146855646Y-61072407D01*
X146418874Y-60891490D01*
X145955199Y-60799260D01*
X145482441Y-60799260D01*
X145018766Y-60891490D01*
X144581994Y-61072407D01*
X144188909Y-61335058D01*
X143854618Y-61669349D01*
X143591967Y-62062434D01*
X143411050Y-62499206D01*
X143318820Y-62962881D01*
X138921475Y-62962881D01*
X138921121Y-59174260D01*
X161582661Y-59174260D01*
X161249949Y-59588968D01*
G37*
G04 #@! TD.AperFunction*
D35*
X179677641Y-103175086D02*
X179988833Y-103383018D01*
X180334611Y-103526244D01*
X180701686Y-103599260D01*
X181075954Y-103599260D01*
X181443029Y-103526244D01*
X181788807Y-103383018D01*
X182055000Y-103205153D01*
X182055001Y-104205000D01*
X180137583Y-105643064D01*
X180111351Y-105657085D01*
X180031379Y-105722717D01*
X180001944Y-105744793D01*
X179980152Y-105764758D01*
X179905787Y-105825788D01*
X179882304Y-105854402D01*
X179855003Y-105879414D01*
X179798109Y-105956994D01*
X179737085Y-106031352D01*
X179719632Y-106064004D01*
X179697740Y-106093856D01*
X179657079Y-106181034D01*
X179611728Y-106265879D01*
X179600981Y-106301306D01*
X179585332Y-106334858D01*
X179562459Y-106428295D01*
X179534533Y-106520355D01*
X179530904Y-106557201D01*
X179522102Y-106593158D01*
X179517898Y-106689260D01*
X179515000Y-106718680D01*
X179515000Y-106755490D01*
X179510479Y-106858829D01*
X179510986Y-106862125D01*
X179400916Y-106920958D01*
X179233419Y-107058419D01*
X179095958Y-107225916D01*
X178993816Y-107417012D01*
X178930916Y-107624362D01*
X178909678Y-107840000D01*
X178909678Y-109540000D01*
X178930916Y-109755638D01*
X178993816Y-109962988D01*
X179095958Y-110154084D01*
X179233419Y-110321581D01*
X179400916Y-110459042D01*
X179592012Y-110561184D01*
X179799362Y-110624084D01*
X180015000Y-110645322D01*
X181715000Y-110645322D01*
X181930638Y-110624084D01*
X182137988Y-110561184D01*
X182329084Y-110459042D01*
X182424931Y-110380383D01*
X182481329Y-110418067D01*
X182836206Y-110565062D01*
X183212942Y-110640000D01*
X183597058Y-110640000D01*
X183973794Y-110565062D01*
X184328671Y-110418067D01*
X184648052Y-110204664D01*
X184675000Y-110177716D01*
X184701948Y-110204664D01*
X184705333Y-110206926D01*
X180812999Y-114099260D01*
X162381562Y-114099260D01*
X160591854Y-112309552D01*
X168249949Y-112309552D01*
X168615184Y-112764798D01*
X169253662Y-113116293D01*
X169948444Y-113336474D01*
X170672832Y-113416879D01*
X171398987Y-113354417D01*
X172099003Y-113151491D01*
X172745981Y-112815897D01*
X172822456Y-112764798D01*
X173187691Y-112309552D01*
X170718820Y-109840681D01*
X168249949Y-112309552D01*
X160591854Y-112309552D01*
X160515773Y-112233472D01*
X160465665Y-112172415D01*
X160222033Y-111972472D01*
X159944076Y-111823901D01*
X159642475Y-111732411D01*
X159407417Y-111709260D01*
X159407414Y-111709260D01*
X159328820Y-111701519D01*
X159250226Y-111709260D01*
X156791562Y-111709260D01*
X156378820Y-111296519D01*
X156378820Y-110407156D01*
X156395149Y-110418067D01*
X156750026Y-110565062D01*
X157126762Y-110640000D01*
X157510878Y-110640000D01*
X157887614Y-110565062D01*
X158242491Y-110418067D01*
X158561872Y-110204664D01*
X158588820Y-110177716D01*
X158615768Y-110204664D01*
X158935149Y-110418067D01*
X159290026Y-110565062D01*
X159666762Y-110640000D01*
X160050878Y-110640000D01*
X160427614Y-110565062D01*
X160782491Y-110418067D01*
X161101872Y-110204664D01*
X161373484Y-109933052D01*
X161560426Y-109653272D01*
X167001201Y-109653272D01*
X167063663Y-110379427D01*
X167266589Y-111079443D01*
X167602183Y-111726421D01*
X167653282Y-111802896D01*
X168108528Y-112168131D01*
X170577399Y-109699260D01*
X170860241Y-109699260D01*
X173329112Y-112168131D01*
X173784358Y-111802896D01*
X174135853Y-111164418D01*
X174356034Y-110469636D01*
X174436439Y-109745248D01*
X174373977Y-109019093D01*
X174171051Y-108319077D01*
X173835457Y-107672099D01*
X173784358Y-107595624D01*
X173329112Y-107230389D01*
X170860241Y-109699260D01*
X170577399Y-109699260D01*
X168108528Y-107230389D01*
X167653282Y-107595624D01*
X167301787Y-108234102D01*
X167081606Y-108928884D01*
X167001201Y-109653272D01*
X161560426Y-109653272D01*
X161586887Y-109613671D01*
X161733882Y-109258794D01*
X161808820Y-108882058D01*
X161808820Y-108497942D01*
X161784017Y-108373251D01*
X163068300Y-107088968D01*
X168249949Y-107088968D01*
X170718820Y-109557839D01*
X173187691Y-107088968D01*
X172822456Y-106633722D01*
X172183978Y-106282227D01*
X171489196Y-106062046D01*
X170764808Y-105981641D01*
X170038653Y-106044103D01*
X169338637Y-106247029D01*
X168691659Y-106582623D01*
X168615184Y-106633722D01*
X168249949Y-107088968D01*
X163068300Y-107088968D01*
X166556521Y-103600747D01*
X166608032Y-103558473D01*
X166776735Y-103352909D01*
X166815256Y-103280841D01*
X166885316Y-103149769D01*
X166918820Y-103116265D01*
X166977641Y-103175086D01*
X167288833Y-103383018D01*
X167634611Y-103526244D01*
X168001686Y-103599260D01*
X168375954Y-103599260D01*
X168743029Y-103526244D01*
X169088807Y-103383018D01*
X169399999Y-103175086D01*
X169458820Y-103116265D01*
X169517641Y-103175086D01*
X169828833Y-103383018D01*
X170174611Y-103526244D01*
X170541686Y-103599260D01*
X170915954Y-103599260D01*
X171283029Y-103526244D01*
X171628807Y-103383018D01*
X171939999Y-103175086D01*
X171998820Y-103116265D01*
X172057641Y-103175086D01*
X172368833Y-103383018D01*
X172714611Y-103526244D01*
X173081686Y-103599260D01*
X173455954Y-103599260D01*
X173823029Y-103526244D01*
X174168807Y-103383018D01*
X174479999Y-103175086D01*
X174538820Y-103116265D01*
X174597641Y-103175086D01*
X174908833Y-103383018D01*
X175254611Y-103526244D01*
X175621686Y-103599260D01*
X175995954Y-103599260D01*
X176363029Y-103526244D01*
X176708807Y-103383018D01*
X177019999Y-103175086D01*
X177078820Y-103116265D01*
X177137641Y-103175086D01*
X177448833Y-103383018D01*
X177794611Y-103526244D01*
X178161686Y-103599260D01*
X178535954Y-103599260D01*
X178903029Y-103526244D01*
X179248807Y-103383018D01*
X179559999Y-103175086D01*
X179618820Y-103116265D01*
X179677641Y-103175086D01*
G04 #@! TA.AperFunction,Conductor*
D36*
G36*
X179677641Y-103175086D02*
G01*
X179988833Y-103383018D01*
X180334611Y-103526244D01*
X180701686Y-103599260D01*
X181075954Y-103599260D01*
X181443029Y-103526244D01*
X181788807Y-103383018D01*
X182055000Y-103205153D01*
X182055001Y-104205000D01*
X180137583Y-105643064D01*
X180111351Y-105657085D01*
X180031379Y-105722717D01*
X180001944Y-105744793D01*
X179980152Y-105764758D01*
X179905787Y-105825788D01*
X179882304Y-105854402D01*
X179855003Y-105879414D01*
X179798109Y-105956994D01*
X179737085Y-106031352D01*
X179719632Y-106064004D01*
X179697740Y-106093856D01*
X179657079Y-106181034D01*
X179611728Y-106265879D01*
X179600981Y-106301306D01*
X179585332Y-106334858D01*
X179562459Y-106428295D01*
X179534533Y-106520355D01*
X179530904Y-106557201D01*
X179522102Y-106593158D01*
X179517898Y-106689260D01*
X179515000Y-106718680D01*
X179515000Y-106755490D01*
X179510479Y-106858829D01*
X179510986Y-106862125D01*
X179400916Y-106920958D01*
X179233419Y-107058419D01*
X179095958Y-107225916D01*
X178993816Y-107417012D01*
X178930916Y-107624362D01*
X178909678Y-107840000D01*
X178909678Y-109540000D01*
X178930916Y-109755638D01*
X178993816Y-109962988D01*
X179095958Y-110154084D01*
X179233419Y-110321581D01*
X179400916Y-110459042D01*
X179592012Y-110561184D01*
X179799362Y-110624084D01*
X180015000Y-110645322D01*
X181715000Y-110645322D01*
X181930638Y-110624084D01*
X182137988Y-110561184D01*
X182329084Y-110459042D01*
X182424931Y-110380383D01*
X182481329Y-110418067D01*
X182836206Y-110565062D01*
X183212942Y-110640000D01*
X183597058Y-110640000D01*
X183973794Y-110565062D01*
X184328671Y-110418067D01*
X184648052Y-110204664D01*
X184675000Y-110177716D01*
X184701948Y-110204664D01*
X184705333Y-110206926D01*
X180812999Y-114099260D01*
X162381562Y-114099260D01*
X160591854Y-112309552D01*
X168249949Y-112309552D01*
X168615184Y-112764798D01*
X169253662Y-113116293D01*
X169948444Y-113336474D01*
X170672832Y-113416879D01*
X171398987Y-113354417D01*
X172099003Y-113151491D01*
X172745981Y-112815897D01*
X172822456Y-112764798D01*
X173187691Y-112309552D01*
X170718820Y-109840681D01*
X168249949Y-112309552D01*
X160591854Y-112309552D01*
X160515773Y-112233472D01*
X160465665Y-112172415D01*
X160222033Y-111972472D01*
X159944076Y-111823901D01*
X159642475Y-111732411D01*
X159407417Y-111709260D01*
X159407414Y-111709260D01*
X159328820Y-111701519D01*
X159250226Y-111709260D01*
X156791562Y-111709260D01*
X156378820Y-111296519D01*
X156378820Y-110407156D01*
X156395149Y-110418067D01*
X156750026Y-110565062D01*
X157126762Y-110640000D01*
X157510878Y-110640000D01*
X157887614Y-110565062D01*
X158242491Y-110418067D01*
X158561872Y-110204664D01*
X158588820Y-110177716D01*
X158615768Y-110204664D01*
X158935149Y-110418067D01*
X159290026Y-110565062D01*
X159666762Y-110640000D01*
X160050878Y-110640000D01*
X160427614Y-110565062D01*
X160782491Y-110418067D01*
X161101872Y-110204664D01*
X161373484Y-109933052D01*
X161560426Y-109653272D01*
X167001201Y-109653272D01*
X167063663Y-110379427D01*
X167266589Y-111079443D01*
X167602183Y-111726421D01*
X167653282Y-111802896D01*
X168108528Y-112168131D01*
X170577399Y-109699260D01*
X170860241Y-109699260D01*
X173329112Y-112168131D01*
X173784358Y-111802896D01*
X174135853Y-111164418D01*
X174356034Y-110469636D01*
X174436439Y-109745248D01*
X174373977Y-109019093D01*
X174171051Y-108319077D01*
X173835457Y-107672099D01*
X173784358Y-107595624D01*
X173329112Y-107230389D01*
X170860241Y-109699260D01*
X170577399Y-109699260D01*
X168108528Y-107230389D01*
X167653282Y-107595624D01*
X167301787Y-108234102D01*
X167081606Y-108928884D01*
X167001201Y-109653272D01*
X161560426Y-109653272D01*
X161586887Y-109613671D01*
X161733882Y-109258794D01*
X161808820Y-108882058D01*
X161808820Y-108497942D01*
X161784017Y-108373251D01*
X163068300Y-107088968D01*
X168249949Y-107088968D01*
X170718820Y-109557839D01*
X173187691Y-107088968D01*
X172822456Y-106633722D01*
X172183978Y-106282227D01*
X171489196Y-106062046D01*
X170764808Y-105981641D01*
X170038653Y-106044103D01*
X169338637Y-106247029D01*
X168691659Y-106582623D01*
X168615184Y-106633722D01*
X168249949Y-107088968D01*
X163068300Y-107088968D01*
X166556521Y-103600747D01*
X166608032Y-103558473D01*
X166776735Y-103352909D01*
X166815256Y-103280841D01*
X166885316Y-103149769D01*
X166918820Y-103116265D01*
X166977641Y-103175086D01*
X167288833Y-103383018D01*
X167634611Y-103526244D01*
X168001686Y-103599260D01*
X168375954Y-103599260D01*
X168743029Y-103526244D01*
X169088807Y-103383018D01*
X169399999Y-103175086D01*
X169458820Y-103116265D01*
X169517641Y-103175086D01*
X169828833Y-103383018D01*
X170174611Y-103526244D01*
X170541686Y-103599260D01*
X170915954Y-103599260D01*
X171283029Y-103526244D01*
X171628807Y-103383018D01*
X171939999Y-103175086D01*
X171998820Y-103116265D01*
X172057641Y-103175086D01*
X172368833Y-103383018D01*
X172714611Y-103526244D01*
X173081686Y-103599260D01*
X173455954Y-103599260D01*
X173823029Y-103526244D01*
X174168807Y-103383018D01*
X174479999Y-103175086D01*
X174538820Y-103116265D01*
X174597641Y-103175086D01*
X174908833Y-103383018D01*
X175254611Y-103526244D01*
X175621686Y-103599260D01*
X175995954Y-103599260D01*
X176363029Y-103526244D01*
X176708807Y-103383018D01*
X177019999Y-103175086D01*
X177078820Y-103116265D01*
X177137641Y-103175086D01*
X177448833Y-103383018D01*
X177794611Y-103526244D01*
X178161686Y-103599260D01*
X178535954Y-103599260D01*
X178903029Y-103526244D01*
X179248807Y-103383018D01*
X179559999Y-103175086D01*
X179618820Y-103116265D01*
X179677641Y-103175086D01*
G37*
G04 #@! TD.AperFunction*
M02*
